<?xml version="1.0" encoding="UTF-8"?>
<svg width="20px" height="20px" viewBox="0 0 20 20" version="1.1" xmlns="http://www.w3.org/2000/svg" xmlns:xlink="http://www.w3.org/1999/xlink">
    <!-- Generator: Sketch 42 (36781) - http://www.bohemiancoding.com/sketch -->
    <title>ic_blur_off</title>
    <desc>Created with Sketch.</desc>
    <defs></defs>
    <g id="Page-1" stroke="none" stroke-width="1" fill="none" fill-rule="evenodd">
        <g id="Image" transform="translate(-434.000000, -50.000000)">
            <g id="ic_blur_off" transform="translate(432.000000, 48.000000)">
                <g id="Icon-24px">
                    <polygon id="Shape" points="0 0 24 0 24 24 0 24"></polygon>
                    <path d="M14,7 C14.55,7 15,6.55 15,6 C15,5.45 14.55,5 14,5 C13.45,5 13,5.45 13,6 C13,6.55 13.45,7 14,7 L14,7 Z M13.8,11.48 L14,11.5 C14.83,11.5 15.5,10.83 15.5,10 C15.5,9.17 14.83,8.5 14,8.5 C13.17,8.5 12.5,9.17 12.5,10 L12.52,10.2 C12.61,10.87 13.13,11.39 13.8,11.48 L13.8,11.48 Z M14,3.5 C14.28,3.5 14.5,3.28 14.5,3 C14.5,2.72 14.28,2.5 14,2.5 C13.72,2.5 13.5,2.72 13.5,3 C13.5,3.28 13.72,3.5 14,3.5 L14,3.5 Z M10,3.5 C10.28,3.5 10.5,3.28 10.5,3 C10.5,2.72 10.28,2.5 10,2.5 C9.72,2.5 9.5,2.72 9.5,3 C9.5,3.28 9.72,3.5 10,3.5 L10,3.5 Z M21,10.5 C21.28,10.5 21.5,10.28 21.5,10 C21.5,9.72 21.28,9.5 21,9.5 C20.72,9.5 20.5,9.72 20.5,10 C20.5,10.28 20.72,10.5 21,10.5 L21,10.5 Z M10,7 C10.55,7 11,6.55 11,6 C11,5.45 10.55,5 10,5 C9.45,5 9,5.45 9,6 C9,6.55 9.45,7 10,7 L10,7 Z M18,15 C18.55,15 19,14.55 19,14 C19,13.45 18.55,13 18,13 C17.45,13 17,13.45 17,14 C17,14.55 17.45,15 18,15 L18,15 Z M18,11 C18.55,11 19,10.55 19,10 C19,9.45 18.55,9 18,9 C17.45,9 17,9.45 17,10 C17,10.55 17.45,11 18,11 L18,11 Z M18,7 C18.55,7 19,6.55 19,6 C19,5.45 18.55,5 18,5 C17.45,5 17,5.45 17,6 C17,6.55 17.45,7 18,7 L18,7 Z M14,20.5 C13.72,20.5 13.5,20.72 13.5,21 C13.5,21.28 13.72,21.5 14,21.5 C14.28,21.5 14.5,21.28 14.5,21 C14.5,20.72 14.28,20.5 14,20.5 L14,20.5 Z M2.5,5.27 L6.28,9.05 L6,9 C5.45,9 5,9.45 5,10 C5,10.55 5.45,11 6,11 C6.55,11 7,10.55 7,10 C7,9.9 6.97,9.81 6.94,9.72 L9.75,12.53 C9.04,12.64 8.5,13.26 8.5,14 C8.5,14.83 9.17,15.5 10,15.5 C10.74,15.5 11.36,14.96 11.47,14.25 L14.28,17.06 C14.19,17.03 14.1,17 14,17 C13.45,17 13,17.45 13,18 C13,18.55 13.45,19 14,19 C14.55,19 15,18.55 15,18 C15,17.9 14.97,17.81 14.94,17.72 L18.72,21.5 L20,20.23 L3.77,4 L2.5,5.27 L2.5,5.27 Z M10,17 C9.45,17 9,17.45 9,18 C9,18.55 9.45,19 10,19 C10.55,19 11,18.55 11,18 C11,17.45 10.55,17 10,17 L10,17 Z M21,13.5 C20.72,13.5 20.5,13.72 20.5,14 C20.5,14.28 20.72,14.5 21,14.5 C21.28,14.5 21.5,14.28 21.5,14 C21.5,13.72 21.28,13.5 21,13.5 L21,13.5 Z M6,13 C5.45,13 5,13.45 5,14 C5,14.55 5.45,15 6,15 C6.55,15 7,14.55 7,14 C7,13.45 6.55,13 6,13 L6,13 Z M3,9.5 C2.72,9.5 2.5,9.72 2.5,10 C2.5,10.28 2.72,10.5 3,10.5 C3.28,10.5 3.5,10.28 3.5,10 C3.5,9.72 3.28,9.5 3,9.5 L3,9.5 Z M10,20.5 C9.72,20.5 9.5,20.72 9.5,21 C9.5,21.28 9.72,21.5 10,21.5 C10.28,21.5 10.5,21.28 10.5,21 C10.5,20.72 10.28,20.5 10,20.5 L10,20.5 Z M6,17 C5.45,17 5,17.45 5,18 C5,18.55 5.45,19 6,19 C6.55,19 7,18.55 7,18 C7,17.45 6.55,17 6,17 L6,17 Z M3,13.5 C2.72,13.5 2.5,13.72 2.5,14 C2.5,14.28 2.72,14.5 3,14.5 C3.28,14.5 3.5,14.28 3.5,14 C3.5,13.72 3.28,13.5 3,13.5 L3,13.5 Z" id="Shape" fill="#000000"></path>
                </g>
            </g>
        </g>
    </g>
</svg>