<?xml version="1.0" encoding="UTF-8"?>
<svg width="18px" height="14px" viewBox="0 0 18 14" version="1.1" xmlns="http://www.w3.org/2000/svg" xmlns:xlink="http://www.w3.org/1999/xlink">
    <!-- Generator: Sketch 42 (36781) - http://www.bohemiancoding.com/sketch -->
    <title>ic_crop_5_4</title>
    <desc>Created with Sketch.</desc>
    <defs></defs>
    <g id="Page-1" stroke="none" stroke-width="1" fill="none" fill-rule="evenodd">
        <g id="Image" transform="translate(-51.000000, -245.000000)">
            <g id="ic_crop_5_4" transform="translate(48.000000, 240.000000)">
                <g id="Icon-24px">
                    <polygon id="Shape" points="0 0 24 0 24 24 0 24"></polygon>
                    <path d="M19,5 L5,5 C3.9,5 3,5.9 3,7 L3,17 C3,18.1 3.9,19 5,19 L19,19 C20.1,19 21,18.1 21,17 L21,7 C21,5.9 20.1,5 19,5 L19,5 Z M19,17 L5,17 L5,7 L19,7 L19,17 L19,17 Z" id="Shape" fill="#000000"></path>
                </g>
            </g>
        </g>
    </g>
</svg>