<?xml version="1.0" encoding="UTF-8"?>
<svg width="22px" height="22px" viewBox="0 0 22 22" version="1.1" xmlns="http://www.w3.org/2000/svg" xmlns:xlink="http://www.w3.org/1999/xlink">
    <!-- Generator: Sketch 42 (36781) - http://www.bohemiancoding.com/sketch -->
    <title>ic_crop</title>
    <desc>Created with Sketch.</desc>
    <defs></defs>
    <g id="Page-1" stroke="none" stroke-width="1" fill="none" fill-rule="evenodd">
        <g id="Image" transform="translate(-337.000000, -193.000000)">
            <g id="ic_crop" transform="translate(336.000000, 192.000000)">
                <g id="Icon-24px">
                    <polygon id="Shape" points="0 0 24 0 24 24 0 24"></polygon>
                    <path d="M17,15 L19,15 L19,7 C19,5.9 18.1,5 17,5 L9,5 L9,7 L17,7 L17,15 L17,15 Z M7,17 L7,1 L5,1 L5,5 L1,5 L1,7 L5,7 L5,17 C5,18.1 5.9,19 7,19 L17,19 L17,23 L19,23 L19,19 L23,19 L23,17 L7,17 L7,17 Z" id="Shape" fill="#000000"></path>
                </g>
            </g>
        </g>
    </g>
</svg>