<?xml version="1.0" encoding="UTF-8"?>
<svg width="18px" height="10px" viewBox="0 0 18 10" version="1.1" xmlns="http://www.w3.org/2000/svg" xmlns:xlink="http://www.w3.org/1999/xlink">
    <!-- Generator: Sketch 42 (36781) - http://www.bohemiancoding.com/sketch -->
    <title>ic_crop_7_5</title>
    <desc>Created with Sketch.</desc>
    <defs></defs>
    <g id="Page-1" stroke="none" stroke-width="1" fill="none" fill-rule="evenodd">
        <g id="Image" transform="translate(-99.000000, -247.000000)">
            <g id="ic_crop_7_5" transform="translate(96.000000, 240.000000)">
                <g id="Icon-24px">
                    <polygon id="Shape" points="0 0 24 0 24 24 0 24"></polygon>
                    <path d="M19,7 L5,7 C3.9,7 3,7.9 3,9 L3,15 C3,16.1 3.9,17 5,17 L19,17 C20.1,17 21,16.1 21,15 L21,9 C21,7.9 20.1,7 19,7 L19,7 Z M19,15 L5,15 L5,9 L19,9 L19,15 L19,15 Z" id="Shape" fill="#000000"></path>
                </g>
            </g>
        </g>
    </g>
</svg>