<?xml version="1.0" encoding="UTF-8"?>
<svg width="18px" height="16px" viewBox="0 0 18 16" version="1.1" xmlns="http://www.w3.org/2000/svg" xmlns:xlink="http://www.w3.org/1999/xlink">
    <!-- Generator: Sketch 42 (36781) - http://www.bohemiancoding.com/sketch -->
    <title>ic_crop_3_2</title>
    <desc>Created with Sketch.</desc>
    <defs></defs>
    <g id="Page-1" stroke="none" stroke-width="1" fill="none" fill-rule="evenodd">
        <g id="Image" transform="translate(-435.000000, -196.000000)">
            <g id="ic_crop_3_2" transform="translate(432.000000, 192.000000)">
                <g id="Icon-24px">
                    <polygon id="Shape" points="0 0 24 0 24 24 0 24"></polygon>
                    <path d="M19,4 L5,4 C3.9,4 3,4.9 3,6 L3,18 C3,19.1 3.9,20 5,20 L19,20 C20.1,20 21,19.1 21,18 L21,6 C21,4.9 20.1,4 19,4 L19,4 Z M19,18 L5,18 L5,6 L19,6 L19,18 L19,18 Z" id="Shape" fill="#000000"></path>
                </g>
            </g>
        </g>
    </g>
</svg>