<?xml version="1.0" encoding="UTF-8"?>
<svg width="18px" height="12px" viewBox="0 0 18 12" version="1.1" xmlns="http://www.w3.org/2000/svg" xmlns:xlink="http://www.w3.org/1999/xlink">
    <!-- Generator: Sketch 42 (36781) - http://www.bohemiancoding.com/sketch -->
    <title>ic_crop_16_9</title>
    <desc>Created with Sketch.</desc>
    <defs></defs>
    <g id="Page-1" stroke="none" stroke-width="1" fill="none" fill-rule="evenodd">
        <g id="Image" transform="translate(-387.000000, -198.000000)">
            <g id="ic_crop_16_9" transform="translate(384.000000, 192.000000)">
                <g id="Icon-24px">
                    <polygon id="Shape" points="0 0 24 0 24 24 0 24"></polygon>
                    <path d="M19,6 L5,6 C3.9,6 3,6.9 3,8 L3,16 C3,17.1 3.9,18 5,18 L19,18 C20.1,18 21,17.1 21,16 L21,8 C21,6.9 20.1,6 19,6 L19,6 Z M19,16 L5,16 L5,8 L19,8 L19,16 L19,16 Z" id="Shape" fill="#000000"></path>
                </g>
            </g>
        </g>
    </g>
</svg>