<?xml version="1.0" encoding="UTF-8"?>
<svg width="14px" height="18px" viewBox="0 0 14 18" version="1.1" xmlns="http://www.w3.org/2000/svg" xmlns:xlink="http://www.w3.org/1999/xlink">
    <!-- Generator: Sketch 42 (36781) - http://www.bohemiancoding.com/sketch -->
    <title>ic_crop_portrait</title>
    <desc>Created with Sketch.</desc>
    <defs></defs>
    <g id="Page-1" stroke="none" stroke-width="1" fill="none" fill-rule="evenodd">
        <g id="Image" transform="translate(-341.000000, -243.000000)">
            <g id="ic_crop_portrait" transform="translate(336.000000, 240.000000)">
                <g id="Icon-24px">
                    <polygon id="Shape" points="0 0 24 0 24 24 0 24"></polygon>
                    <path d="M17,3 L7,3 C5.9,3 5,3.9 5,5 L5,19 C5,20.1 5.9,21 7,21 L17,21 C18.1,21 19,20.1 19,19 L19,5 C19,3.9 18.1,3 17,3 L17,3 Z M17,19 L7,19 L7,5 L17,5 L17,19 L17,19 Z" id="Shape" fill="#000000"></path>
                </g>
            </g>
        </g>
    </g>
</svg>