<?xml version="1.0" encoding="UTF-8"?>
<svg width="20px" height="20px" viewBox="0 0 20 20" version="1.1" xmlns="http://www.w3.org/2000/svg" xmlns:xlink="http://www.w3.org/1999/xlink">
    <!-- Generator: Sketch 42 (36781) - http://www.bohemiancoding.com/sketch -->
    <title>ic_exposure</title>
    <desc>Created with Sketch.</desc>
    <defs></defs>
    <g id="Page-1" stroke="none" stroke-width="1" fill="none" fill-rule="evenodd">
        <g id="Image" transform="translate(-194.000000, -290.000000)">
            <g id="ic_exposure" transform="translate(192.000000, 288.000000)">
                <g id="Icon-24px">
                    <polygon id="Shape" points="0 0 24 0 24 24 0 24"></polygon>
                    <path d="M15,17 L15,19 L17,19 L17,17 L19,17 L19,15 L17,15 L17,13 L15,13 L15,15 L13,15 L13,17 L15,17 L15,17 Z M20,2 L4,2 C2.9,2 2,2.9 2,4 L2,20 C2,21.1 2.9,22 4,22 L20,22 C21.1,22 22,21.1 22,20 L22,4 C22,2.9 21.1,2 20,2 L20,2 Z M5,5 L11,5 L11,7 L5,7 L5,5 L5,5 Z M20,20 L4,20 L20,4 L20,20 L20,20 Z" id="Shape" fill="#000000"></path>
                </g>
            </g>
        </g>
    </g>
</svg>