<?xml version="1.0" encoding="UTF-8"?>
<svg width="16px" height="13px" viewBox="0 0 16 13" version="1.1" xmlns="http://www.w3.org/2000/svg" xmlns:xlink="http://www.w3.org/1999/xlink">
    <!-- Generator: Sketch 42 (36781) - http://www.bohemiancoding.com/sketch -->
    <title>ic_exposure_plus_1</title>
    <desc>Created with Sketch.</desc>
    <defs></defs>
    <g id="Page-1" stroke="none" stroke-width="1" fill="none" fill-rule="evenodd">
        <g id="Image" transform="translate(-340.000000, -293.000000)">
            <g id="ic_exposure_plus_1" transform="translate(336.000000, 288.000000)">
                <g id="Icon-24px">
                    <path d="M0,0 L24,0 L24,24 L0,24 L0,0 Z M0,0 L24,0 L24,24 L0,24 L0,0 Z" id="Shape"></path>
                    <path d="M10,7 L8,7 L8,11 L4,11 L4,13 L8,13 L8,17 L10,17 L10,13 L14,13 L14,11 L10,11 L10,7 L10,7 Z M20,18 L18,18 L18,7.38 L15,8.4 L15,6.7 L19.7,5 L20,5 L20,18 L20,18 Z" id="Shape" fill="#000000"></path>
                </g>
            </g>
        </g>
    </g>
</svg>