<?xml version="1.0" encoding="UTF-8"?>
<svg width="20px" height="22px" viewBox="0 0 20 22" version="1.1" xmlns="http://www.w3.org/2000/svg" xmlns:xlink="http://www.w3.org/1999/xlink">
    <!-- Generator: Sketch 42 (36781) - http://www.bohemiancoding.com/sketch -->
    <title>ic_filter_frames</title>
    <desc>Created with Sketch.</desc>
    <defs></defs>
    <g id="Page-1" stroke="none" stroke-width="1" fill="none" fill-rule="evenodd">
        <g id="Image" transform="translate(-290.000000, -384.000000)">
            <g id="ic_filter_frames" transform="translate(288.000000, 384.000000)">
                <g id="Icon-24px">
                    <polygon id="Shape" points="0 0 24 0 24 24 0 24"></polygon>
                    <path d="M20,4 L16,4 L12,0 L8,4 L4,4 C2.9,4 2,4.9 2,6 L2,20 C2,21.1 2.9,22 4,22 L20,22 C21.1,22 22,21.1 22,20 L22,6 C22,4.9 21.1,4 20,4 L20,4 Z M20,20 L4,20 L4,6 L8.52,6 L12.04,2.5 L15.52,6 L20,6 L20,20 L20,20 Z M18,8 L6,8 L6,18 L18,18 L18,8 Z" id="Shape" fill="#000000"></path>
                </g>
            </g>
        </g>
    </g>
</svg>