<?xml version="1.0" encoding="UTF-8"?>
<svg width="23px" height="23px" viewBox="0 0 23 23" version="1.1" xmlns="http://www.w3.org/2000/svg" xmlns:xlink="http://www.w3.org/1999/xlink">
    <!-- Generator: Sketch 42 (36781) - http://www.bohemiancoding.com/sketch -->
    <title>ic_grid_off</title>
    <desc>Created with Sketch.</desc>
    <defs></defs>
    <g id="Page-1" stroke="none" stroke-width="1" fill="none" fill-rule="evenodd">
        <g id="Image" transform="translate(-432.000000, -433.000000)">
            <g id="ic_grid_off" transform="translate(432.000000, 432.000000)">
                <g id="Icon-24px">
                    <polygon id="Shape" points="0 0 24 0 24 24 0 24"></polygon>
                    <path d="M8,4 L8,5.45 L10,7.45 L10,4 L14,4 L14,8 L10.55,8 L12.55,10 L14,10 L14,11.45 L16,13.45 L16,10 L20,10 L20,14 L16.55,14 L18.55,16 L20,16 L20,17.45 L22,19.45 L22,4 C22,2.9 21.1,2 20,2 L4.55,2 L6.55,4 L8,4 L8,4 Z M16,4 L20,4 L20,8 L16,8 L16,4 L16,4 Z M1.27,1.27 L0,2.55 L2,4.55 L2,20 C2,21.1 2.9,22 4,22 L19.46,22 L21.46,24 L22.73,22.73 L1.27,1.27 L1.27,1.27 Z M10,12.55 L11.45,14 L10,14 L10,12.55 L10,12.55 Z M4,6.55 L5.45,8 L4,8 L4,6.55 L4,6.55 Z M8,20 L4,20 L4,16 L8,16 L8,20 L8,20 Z M8,14 L4,14 L4,10 L7.45,10 L8,10.55 L8,14 L8,14 Z M14,20 L10,20 L10,16 L13.45,16 L14,16.54 L14,20 L14,20 Z M16,20 L16,18.54 L17.46,20 L16,20 L16,20 Z" id="Shape" fill="#000000"></path>
                </g>
            </g>
        </g>
    </g>
</svg>