<?xml version="1.0" encoding="UTF-8"?>
<svg width="18px" height="18px" viewBox="0 0 18 18" version="1.1" xmlns="http://www.w3.org/2000/svg" xmlns:xlink="http://www.w3.org/1999/xlink">
    <!-- Generator: Sketch 42 (36781) - http://www.bohemiancoding.com/sketch -->
    <title>ic_gradient</title>
    <desc>Created with Sketch.</desc>
    <defs></defs>
    <g id="Page-1" stroke="none" stroke-width="1" fill="none" fill-rule="evenodd">
        <g id="Image" transform="translate(-339.000000, -435.000000)">
            <g id="ic_gradient" transform="translate(336.000000, 432.000000)">
                <g id="Icon-24px">
                    <path d="M11,9 L13,9 L13,11 L11,11 L11,9 Z M9,11 L11,11 L11,13 L9,13 L9,11 Z M13,11 L15,11 L15,13 L13,13 L13,11 Z M15,9 L17,9 L17,11 L15,11 L15,9 Z M7,9 L9,9 L9,11 L7,11 L7,9 Z M19,3 L5,3 C3.9,3 3,3.9 3,5 L3,19 C3,20.1 3.9,21 5,21 L19,21 C20.1,21 21,20.1 21,19 L21,5 C21,3.9 20.1,3 19,3 L19,3 Z M9,18 L7,18 L7,16 L9,16 L9,18 L9,18 Z M13,18 L11,18 L11,16 L13,16 L13,18 L13,18 Z M17,18 L15,18 L15,16 L17,16 L17,18 L17,18 Z M19,11 L17,11 L17,13 L19,13 L19,15 L17,15 L17,13 L15,13 L15,15 L13,15 L13,13 L11,13 L11,15 L9,15 L9,13 L7,13 L7,15 L5,15 L5,13 L7,13 L7,11 L5,11 L5,5 L19,5 L19,11 L19,11 Z" id="Shape" fill="#000000"></path>
                    <polygon id="Shape" points="0 0 24 0 24 24 0 24"></polygon>
                </g>
            </g>
        </g>
    </g>
</svg>