<?xml version="1.0" encoding="UTF-8"?>
<svg width="21px" height="21px" viewBox="0 0 21 21" version="1.1" xmlns="http://www.w3.org/2000/svg" xmlns:xlink="http://www.w3.org/1999/xlink">
    <!-- Generator: Sketch 42 (36781) - http://www.bohemiancoding.com/sketch -->
    <title>ic_hdr_off</title>
    <desc>Created with Sketch.</desc>
    <defs></defs>
    <g id="Page-1" stroke="none" stroke-width="1" fill="none" fill-rule="evenodd">
        <g id="Image" transform="translate(-98.000000, -482.000000)">
            <g id="ic_hdr_off" transform="translate(96.000000, 480.000000)">
                <g id="Icon-24px">
                    <path d="M18.1,14.5 L18.1,12.5 L19.2,12.5 L20.1,14.5 L21.6,14.5 L20.7,12.4 C21.2,12.2 21.6,11.6 21.6,11 L21.6,10 C21.6,9.2 20.9,8.5 20.1,8.5 L16.6,8.5 L16.6,13.4 L17.7,14.5 L18.1,14.5 L18.1,14.5 Z M18.1,10 L20.1,10 L20.1,11 L18.1,11 L18.1,10 L18.1,10 Z M13.6,10 L13.6,10.4 L15.1,11.9 L15.1,10 C15.1,9.2 14.4,8.5 13.6,8.5 L11.7,8.5 L13.2,10 L13.6,10 L13.6,10 Z M10.1,9 L3.1,2 L2,3 L7.5,8.5 L7.1,8.5 L7.1,10.5 L5.1,10.5 L5.1,8.5 L3.6,8.5 L3.6,14.5 L5.1,14.5 L5.1,12 L7.1,12 L7.1,14.5 L8.6,14.5 L8.6,9.6 L10.1,11.1 L10.1,14.5 L13.5,14.5 L21.1,22.1 L22.2,21 L10.1,9 L10.1,9 Z" id="Shape" fill="#000000"></path>
                    <polygon id="Shape" points="0 0 24 0 24 24 0 24"></polygon>
                </g>
            </g>
        </g>
    </g>
</svg>