<?xml version="1.0" encoding="UTF-8"?>
<svg width="18px" height="6px" viewBox="0 0 18 6" version="1.1" xmlns="http://www.w3.org/2000/svg" xmlns:xlink="http://www.w3.org/1999/xlink">
    <!-- Generator: Sketch 42 (36781) - http://www.bohemiancoding.com/sketch -->
    <title>ic_hdr_on</title>
    <desc>Created with Sketch.</desc>
    <defs></defs>
    <g id="Page-1" stroke="none" stroke-width="1" fill="none" fill-rule="evenodd">
        <g id="Image" transform="translate(-147.000000, -489.000000)">
            <g id="ic_hdr_on" transform="translate(144.000000, 480.000000)">
                <g id="Icon-24px">
                    <polygon id="Shape" points="0 0 24 0 24 24 0 24"></polygon>
                    <path d="M21,11.5 L21,10.5 C21,9.7 20.3,9 19.5,9 L16,9 L16,15 L17.5,15 L17.5,13 L18.6,13 L19.5,15 L21,15 L20.1,12.9 C20.6,12.6 21,12.1 21,11.5 L21,11.5 Z M19.5,11.5 L17.5,11.5 L17.5,10.5 L19.5,10.5 L19.5,11.5 L19.5,11.5 Z M6.5,11 L4.5,11 L4.5,9 L3,9 L3,15 L4.5,15 L4.5,12.5 L6.5,12.5 L6.5,15 L8,15 L8,9 L6.5,9 L6.5,11 L6.5,11 Z M13,9 L9.5,9 L9.5,15 L13,15 C13.8,15 14.5,14.3 14.5,13.5 L14.5,10.5 C14.5,9.7 13.8,9 13,9 L13,9 Z M13,13.5 L11,13.5 L11,10.5 L13,10.5 L13,13.5 L13,13.5 Z" id="Shape" fill="#000000"></path>
                </g>
            </g>
        </g>
    </g>
</svg>