<?xml version="1.0" encoding="UTF-8"?>
<svg width="20px" height="16px" viewBox="0 0 20 16" version="1.1" xmlns="http://www.w3.org/2000/svg" xmlns:xlink="http://www.w3.org/1999/xlink">
    <!-- Generator: Sketch 42 (36781) - http://www.bohemiancoding.com/sketch -->
    <title>ic_image_aspect_ratio</title>
    <desc>Created with Sketch.</desc>
    <defs></defs>
    <g id="Page-1" stroke="none" stroke-width="1" fill="none" fill-rule="evenodd">
        <g id="Image" transform="translate(-386.000000, -484.000000)">
            <g id="ic_image_aspect_ratio" transform="translate(384.000000, 480.000000)">
                <g id="Icon-24px">
                    <polygon id="Shape" points="0 0 24 0 24 24 0 24"></polygon>
                    <path d="M16,10 L14,10 L14,12 L16,12 L16,10 L16,10 Z M16,14 L14,14 L14,16 L16,16 L16,14 L16,14 Z M8,10 L6,10 L6,12 L8,12 L8,10 L8,10 Z M12,10 L10,10 L10,12 L12,12 L12,10 L12,10 Z M20,4 L4,4 C2.9,4 2,4.9 2,6 L2,18 C2,19.1 2.9,20 4,20 L20,20 C21.1,20 22,19.1 22,18 L22,6 C22,4.9 21.1,4 20,4 L20,4 Z M20,18 L4,18 L4,6 L20,6 L20,18 L20,18 Z" id="Shape" fill="#000000"></path>
                </g>
            </g>
        </g>
    </g>
</svg>