<?xml version="1.0" encoding="UTF-8"?>
<svg width="18px" height="18px" viewBox="0 0 18 18" version="1.1" xmlns="http://www.w3.org/2000/svg" xmlns:xlink="http://www.w3.org/1999/xlink">
    <!-- Generator: Sketch 42 (36781) - http://www.bohemiancoding.com/sketch -->
    <title>ic_leak_add</title>
    <desc>Created with Sketch.</desc>
    <defs></defs>
    <g id="Page-1" stroke="none" stroke-width="1" fill="none" fill-rule="evenodd">
        <g id="Image" transform="translate(-99.000000, -531.000000)">
            <g id="ic_leak_add" transform="translate(96.000000, 528.000000)">
                <g id="Icon-24px">
                    <polygon id="Shape" points="0 0 24 0 24 24 0 24"></polygon>
                    <path d="M6,3 L3,3 L3,6 C4.66,6 6,4.66 6,3 L6,3 Z M14,3 L12,3 C12,7.97 7.97,12 3,12 L3,14 C9.08,14 14,9.07 14,3 L14,3 Z M10,3 L8,3 C8,5.76 5.76,8 3,8 L3,10 C6.87,10 10,6.87 10,3 L10,3 Z M10,21 L12,21 C12,16.03 16.03,12 21,12 L21,10 C14.93,10 10,14.93 10,21 L10,21 Z M18,21 L21,21 L21,18 C19.34,18 18,19.34 18,21 L18,21 Z M14,21 L16,21 C16,18.24 18.24,16 21,16 L21,14 C17.13,14 14,17.13 14,21 L14,21 Z" id="Shape" fill="#000000"></path>
                </g>
            </g>
        </g>
    </g>
</svg>