<?xml version="1.0" encoding="UTF-8"?>
<svg width="19px" height="18px" viewBox="0 0 19 18" version="1.1" xmlns="http://www.w3.org/2000/svg" xmlns:xlink="http://www.w3.org/1999/xlink">
    <!-- Generator: Sketch 42 (36781) - http://www.bohemiancoding.com/sketch -->
    <title>ic_looks_3</title>
    <desc>Created with Sketch.</desc>
    <defs></defs>
    <g id="Page-1" stroke="none" stroke-width="1" fill="none" fill-rule="evenodd">
        <g id="Image" transform="translate(-339.000000, -531.000000)">
            <g id="ic_looks_3" transform="translate(336.000000, 528.000000)">
                <g id="Icon-24px">
                    <polygon id="Shape" points="0.01 0 24.01 0 24.01 24 0.01 24"></polygon>
                    <path d="M19.01,3 L5.01,3 C3.91,3 3.01,3.9 3.01,5 L3.01,19 C3.01,20.1 3.91,21 5.01,21 L19.01,21 C20.11,21 21.01,20.1 21.01,19 L21.01,5 C21.01,3.9 20.11,3 19.01,3 L19.01,3 Z M15.01,10.5 C15.01,11.33 14.34,12 13.51,12 C14.34,12 15.01,12.67 15.01,13.5 L15.01,15 C15.01,16.11 14.11,17 13.01,17 L9.01,17 L9.01,15 L13.01,15 L13.01,13 L11.01,13 L11.01,11 L13.01,11 L13.01,9 L9.01,9 L9.01,7 L13.01,7 C14.11,7 15.01,7.89 15.01,9 L15.01,10.5 L15.01,10.5 Z" id="Shape" fill="#000000"></path>
                </g>
            </g>
        </g>
    </g>
</svg>