<?xml version="1.0" encoding="UTF-8"?>
<svg width="22px" height="11px" viewBox="0 0 22 11" version="1.1" xmlns="http://www.w3.org/2000/svg" xmlns:xlink="http://www.w3.org/1999/xlink">
    <!-- Generator: Sketch 42 (36781) - http://www.bohemiancoding.com/sketch -->
    <title>ic_looks</title>
    <desc>Created with Sketch.</desc>
    <defs></defs>
    <g id="Page-1" stroke="none" stroke-width="1" fill="none" fill-rule="evenodd">
        <g id="Image" transform="translate(-289.000000, -534.000000)">
            <g id="ic_looks" transform="translate(288.000000, 528.000000)">
                <g id="Icon-24px">
                    <polygon id="Shape" points="0 0 24 0 24 24 0 24"></polygon>
                    <path d="M12,10 C8.14,10 5,13.14 5,17 L7,17 C7,14.24 9.24,12 12,12 C14.76,12 17,14.24 17,17 L19,17 C19,13.14 15.86,10 12,10 L12,10 Z M12,6 C5.93,6 1,10.93 1,17 L3,17 C3,12.04 7.04,8 12,8 C16.96,8 21,12.04 21,17 L23,17 C23,10.93 18.07,6 12,6 L12,6 Z" id="Shape" fill="#000000"></path>
                </g>
            </g>
        </g>
    </g>
</svg>