<?xml version="1.0" encoding="UTF-8"?>
<svg width="20px" height="20px" viewBox="0 0 20 20" version="1.1" xmlns="http://www.w3.org/2000/svg" xmlns:xlink="http://www.w3.org/1999/xlink">
    <!-- Generator: Sketch 42 (36781) - http://www.bohemiancoding.com/sketch -->
    <title>ic_linked_camera</title>
    <desc>Created with Sketch.</desc>
    <defs></defs>
    <g id="Page-1" stroke="none" stroke-width="1" fill="none" fill-rule="evenodd">
        <g id="Image" transform="translate(-242.000000, -530.000000)">
            <g id="ic_linked_camera" transform="translate(240.000000, 528.000000)">
                <g id="Icon-24px">
                    <circle id="Oval" fill="#000000" cx="12" cy="14" r="3.2"></circle>
                    <circle id="Oval" cx="12" cy="14" r="5"></circle>
                    <path d="M16,3.33 C18.58,3.33 20.67,5.42 20.67,8 L22,8 C22,4.69 19.31,2 16,2 L16,3.33 M16,6 C17.11,6 18,6.89 18,8 L19.33,8 C19.33,6.16 17.84,4.67 16,4.67 L16,6" id="Shape" fill="#000000"></path>
                    <polygon id="Shape" points="24 0 0 0 0 24 24 24"></polygon>
                    <path d="M17,9 C17,7.89 16.11,7 15,7 L15,4 L9,4 L7.17,6 L4,6 C2.9,6 2,6.9 2,8 L2,20 C2,21.1 2.9,22 4,22 L20,22 C21.1,22 22,21.1 22,20 L22,9 L17,9 L17,9 Z M12,19 C9.24,19 7,16.76 7,14 C7,11.24 9.24,9 12,9 C14.76,9 17,11.24 17,14 C17,16.76 14.76,19 12,19 L12,19 Z" id="Shape" fill="#000000"></path>
                </g>
            </g>
        </g>
    </g>
</svg>