<?xml version="1.0" encoding="UTF-8"?>
<svg width="18px" height="18px" viewBox="0 0 18 18" version="1.1" xmlns="http://www.w3.org/2000/svg" xmlns:xlink="http://www.w3.org/1999/xlink">
    <!-- Generator: Sketch 42 (36781) - http://www.bohemiancoding.com/sketch -->
    <title>ic_leak_remove</title>
    <desc>Created with Sketch.</desc>
    <defs></defs>
    <g id="Page-1" stroke="none" stroke-width="1" fill="none" fill-rule="evenodd">
        <g id="Image" transform="translate(-147.000000, -531.000000)">
            <g id="ic_leak_remove" transform="translate(144.000000, 528.000000)">
                <g id="Icon-24px">
                    <polygon id="Shape" points="0 0 24 0 24 24 0 24"></polygon>
                    <path d="M10,3 L8,3 C8,3.37 7.96,3.72 7.88,4.06 L9.47,5.65 C9.81,4.84 10,3.94 10,3 L10,3 Z M3,4.27 L5.84,7.11 C5.03,7.67 4.06,8 3,8 L3,10 C4.61,10 6.09,9.45 7.27,8.54 L8.7,9.97 C7.14,11.24 5.16,12 3,12 L3,14 C5.71,14 8.19,13.01 10.11,11.38 L12.61,13.88 C10.99,15.81 10,18.29 10,21 L12,21 C12,18.84 12.76,16.86 14.03,15.31 L15.46,16.74 C14.55,17.91 14,19.39 14,21 L16,21 C16,19.94 16.33,18.97 16.89,18.16 L19.73,21 L21,19.73 L4.27,3 L3,4.27 L3,4.27 Z M14,3 L12,3 C12,4.5 11.63,5.91 10.98,7.16 L12.44,8.62 C13.42,6.98 14,5.06 14,3 L14,3 Z M19.94,16.12 C20.28,16.04 20.63,16 21,16 L21,14 C20.06,14 19.16,14.19 18.34,14.52 L19.94,16.12 L19.94,16.12 Z M15.38,11.56 L16.84,13.02 C18.09,12.37 19.5,12 21,12 L21,10 C18.94,10 17.02,10.58 15.38,11.56 L15.38,11.56 Z" id="Shape" fill="#000000"></path>
                </g>
            </g>
        </g>
    </g>
</svg>