<?xml version="1.0" encoding="UTF-8"?>
<svg width="20px" height="16px" viewBox="0 0 20 16" version="1.1" xmlns="http://www.w3.org/2000/svg" xmlns:xlink="http://www.w3.org/1999/xlink">
    <!-- Generator: Sketch 42 (36781) - http://www.bohemiancoding.com/sketch -->
    <title>ic_movie_filter</title>
    <desc>Created with Sketch.</desc>
    <defs></defs>
    <g id="Page-1" stroke="none" stroke-width="1" fill="none" fill-rule="evenodd">
        <g id="Image" transform="translate(-338.000000, -580.000000)">
            <g id="ic_movie_filter" transform="translate(336.000000, 576.000000)">
                <g id="Icon-24px">
                    <polygon id="Shape" points="0 0 24 0 24 24 0 24"></polygon>
                    <path d="M18,4 L20,8 L17,8 L15,4 L13,4 L15,8 L12,8 L10,4 L8,4 L10,8 L7,8 L5,4 L4,4 C2.9,4 2.01,4.9 2.01,6 L2,18 C2,19.1 2.9,20 4,20 L20,20 C21.1,20 22,19.1 22,18 L22,4 L18,4 L18,4 Z M11.42,15.68 L10.37,18 L9.32,15.68 L7,14.63 L9.32,13.58 L10.37,11.26 L11.42,13.58 L13.74,14.63 L11.42,15.68 L11.42,15.68 Z M15.11,12.21 L14.58,13.37 L14.05,12.21 L12.89,11.68 L14.05,11.15 L14.58,10 L15.11,11.16 L16.27,11.69 L15.11,12.21 L15.11,12.21 Z" id="Shape" fill="#000000"></path>
                </g>
            </g>
        </g>
    </g>
</svg>