<?xml version="1.0" encoding="UTF-8"?>
<svg width="18px" height="18px" viewBox="0 0 18 18" version="1.1" xmlns="http://www.w3.org/2000/svg" xmlns:xlink="http://www.w3.org/1999/xlink">
    <!-- Generator: Sketch 42 (36781) - http://www.bohemiancoding.com/sketch -->
    <title>ic_portrait</title>
    <desc>Created with Sketch.</desc>
    <defs></defs>
    <g id="Page-1" stroke="none" stroke-width="1" fill="none" fill-rule="evenodd">
        <g id="Image" transform="translate(-51.000000, -723.000000)">
            <g id="ic_portrait" transform="translate(48.000000, 720.000000)">
                <g id="Icon-24px">
                    <polygon id="Shape" points="0 0 24 0 24 24 0 24"></polygon>
                    <path d="M12,12.25 C13.24,12.25 14.25,11.24 14.25,10 C14.25,8.76 13.24,7.75 12,7.75 C10.76,7.75 9.75,8.76 9.75,10 C9.75,11.24 10.76,12.25 12,12.25 L12,12.25 Z M16.5,16.25 C16.5,14.75 13.5,14 12,14 C10.5,14 7.5,14.75 7.5,16.25 L7.5,17 L16.5,17 L16.5,16.25 L16.5,16.25 Z M19,3 L5,3 C3.9,3 3,3.9 3,5 L3,19 C3,20.1 3.9,21 5,21 L19,21 C20.1,21 21,20.1 21,19 L21,5 C21,3.9 20.1,3 19,3 L19,3 Z M19,19 L5,19 L5,5 L19,5 L19,19 L19,19 Z" id="Shape" fill="#000000"></path>
                </g>
            </g>
        </g>
    </g>
</svg>