<?xml version="1.0" encoding="UTF-8"?>
<svg width="19px" height="18px" viewBox="0 0 19 18" version="1.1" xmlns="http://www.w3.org/2000/svg" xmlns:xlink="http://www.w3.org/1999/xlink">
    <!-- Generator: Sketch 42 (36781) - http://www.bohemiancoding.com/sketch -->
    <title>ic_photo_filter</title>
    <desc>Created with Sketch.</desc>
    <defs></defs>
    <g id="Page-1" stroke="none" stroke-width="1" fill="none" fill-rule="evenodd">
        <g id="Image" transform="translate(-195.000000, -675.000000)">
            <g id="ic_photo_filter" transform="translate(192.000000, 672.000000)">
                <g id="Icon-24px">
                    <polygon id="Shape" points="0 0 24 0 24 24 0 24"></polygon>
                    <path d="M17.13,8.9 L17.72,7.6 L19.02,7 L17.72,6.41 L17.13,5.11 L16.54,6.41 L15.23,7 L16.54,7.6 L17.13,8.9 Z M12.39,6.53 L11.21,9.14 L8.6,10.32 L11.21,11.5 L12.39,14.11 L13.58,11.5 L16.18,10.32 L13.58,9.14 L12.39,6.53 Z M19.02,10 L19.02,19 L5,19 L5,5 L14,5 L14,3 L5.02,3 C3.92,3 3.02,3.9 3.02,5 L3.02,19 C3.02,20.1 3.92,21 5.02,21 L19.02,21 C20.12,21 21.02,20.1 21.02,19 L21.02,10 L19.02,10 L19.02,10 Z" id="Shape" fill="#000000"></path>
                </g>
            </g>
        </g>
    </g>
</svg>