<?xml version="1.0" encoding="UTF-8"?>
<svg width="22px" height="16px" viewBox="0 0 22 16" version="1.1" xmlns="http://www.w3.org/2000/svg" xmlns:xlink="http://www.w3.org/1999/xlink">
    <!-- Generator: Sketch 42 (36781) - http://www.bohemiancoding.com/sketch -->
    <title>ic_panorama</title>
    <desc>Created with Sketch.</desc>
    <defs></defs>
    <g id="Page-1" stroke="none" stroke-width="1" fill="none" fill-rule="evenodd">
        <g id="Image" transform="translate(-241.000000, -628.000000)">
            <g id="ic_panorama" transform="translate(240.000000, 624.000000)">
                <g id="Icon-24px">
                    <polygon id="Shape" points="0 0 24 0 24 24 0 24"></polygon>
                    <path d="M23,18 L23,6 C23,4.9 22.1,4 21,4 L3,4 C1.9,4 1,4.9 1,6 L1,18 C1,19.1 1.9,20 3,20 L21,20 C22.1,20 23,19.1 23,18 L23,18 Z M8.5,12.5 L11,15.51 L14.5,11 L19,17 L5,17 L8.5,12.5 L8.5,12.5 Z" id="Shape" fill="#000000"></path>
                </g>
            </g>
        </g>
    </g>
</svg>