<?xml version="1.0" encoding="UTF-8"?>
<svg width="20px" height="14px" viewBox="0 0 20 14" version="1.1" xmlns="http://www.w3.org/2000/svg" xmlns:xlink="http://www.w3.org/1999/xlink">
    <!-- Generator: Sketch 42 (36781) - http://www.bohemiancoding.com/sketch -->
    <title>ic_switch_video</title>
    <desc>Created with Sketch.</desc>
    <defs></defs>
    <g id="Page-1" stroke="none" stroke-width="1" fill="none" fill-rule="evenodd">
        <g id="Image" transform="translate(-50.000000, -773.000000)">
            <g id="ic_switch_video" transform="translate(48.000000, 768.000000)">
                <g id="Icon-24px">
                    <polygon id="Shape" points="0 0 24 0 24 24 0 24"></polygon>
                    <path d="M18,9.5 L18,6 C18,5.45 17.55,5 17,5 L3,5 C2.45,5 2,5.45 2,6 L2,18 C2,18.55 2.45,19 3,19 L17,19 C17.55,19 18,18.55 18,18 L18,14.5 L22,18.5 L22,5.5 L18,9.5 L18,9.5 Z M13,15.5 L13,13 L7,13 L7,15.5 L3.5,12 L7,8.5 L7,11 L13,11 L13,8.5 L16.5,12 L13,15.5 L13,15.5 Z" id="Shape" fill="#000000"></path>
                </g>
            </g>
        </g>
    </g>
</svg>