<?xml version="1.0" encoding="UTF-8"?>
<svg width="24px" height="14px" viewBox="0 0 24 14" version="1.1" xmlns="http://www.w3.org/2000/svg" xmlns:xlink="http://www.w3.org/1999/xlink">
    <!-- Generator: Sketch 42 (36781) - http://www.bohemiancoding.com/sketch -->
    <title>ic_timer_10</title>
    <desc>Created with Sketch.</desc>
    <defs></defs>
    <g id="Page-1" stroke="none" stroke-width="1" fill="none" fill-rule="evenodd">
        <g id="Image" transform="translate(-288.000000, -773.000000)">
            <g id="ic_timer_10" transform="translate(288.000000, 768.000000)">
                <g id="Icon-24px">
                    <path d="M0,0 L24,0 L24,24 L0,24 L0,0 Z M0,0 L24,0 L24,24 L0,24 L0,0 Z" id="Shape"></path>
                    <path d="M0,7.72 L0,9.4 L3,8.4 L3,18 L5,18 L5,6 L4.75,6 L0,7.72 L0,7.72 Z M23.78,14.37 C23.64,14.09 23.43,13.84 23.15,13.63 C22.87,13.42 22.54,13.24 22.14,13.1 C21.74,12.96 21.29,12.83 20.79,12.72 C20.44,12.65 20.15,12.57 19.92,12.49 C19.69,12.41 19.51,12.33 19.37,12.24 C19.23,12.15 19.14,12.05 19.09,11.94 C19.04,11.83 19.01,11.7 19.01,11.55 C19.01,11.41 19.04,11.27 19.1,11.14 C19.16,11.01 19.25,10.89 19.37,10.8 C19.49,10.7 19.64,10.62 19.82,10.56 C20,10.5 20.22,10.47 20.46,10.47 C20.71,10.47 20.93,10.51 21.12,10.58 C21.31,10.65 21.47,10.75 21.6,10.87 C21.73,10.99 21.82,11.13 21.89,11.29 C21.95,11.45 21.99,11.61 21.99,11.78 L23.94,11.78 C23.94,11.39 23.86,11.03 23.7,10.69 C23.54,10.35 23.31,10.06 23.01,9.81 C22.71,9.56 22.35,9.37 21.92,9.22 C21.49,9.07 21,9 20.46,9 C19.95,9 19.48,9.07 19.07,9.21 C18.66,9.35 18.3,9.54 18.01,9.78 C17.72,10.02 17.5,10.3 17.34,10.62 C17.18,10.94 17.11,11.27 17.11,11.63 C17.11,11.99 17.19,12.32 17.34,12.59 C17.49,12.87 17.7,13.11 17.98,13.32 C18.25,13.53 18.58,13.7 18.96,13.85 C19.34,13.99 19.77,14.11 20.23,14.21 C20.62,14.29 20.94,14.38 21.18,14.47 C21.42,14.56 21.61,14.66 21.75,14.76 C21.88,14.86 21.97,14.98 22.02,15.1 C22.07,15.22 22.09,15.35 22.09,15.49 C22.09,15.81 21.96,16.06 21.69,16.26 C21.42,16.46 21.03,16.55 20.52,16.55 C20.3,16.55 20.09,16.53 19.88,16.47 C19.67,16.42 19.48,16.34 19.32,16.23 C19.15,16.12 19.02,15.97 18.91,15.79 C18.8,15.61 18.74,15.38 18.73,15.12 L16.84,15.12 C16.84,15.48 16.92,15.83 17.08,16.17 C17.24,16.51 17.47,16.82 17.78,17.1 C18.09,17.37 18.47,17.59 18.93,17.76 C19.39,17.93 19.91,18.01 20.51,18.01 C21.04,18.01 21.52,17.95 21.95,17.82 C22.38,17.69 22.75,17.51 23.06,17.28 C23.37,17.05 23.6,16.77 23.77,16.45 C23.94,16.13 24.02,15.78 24.02,15.39 C24,14.99 23.93,14.65 23.78,14.37 L23.78,14.37 Z M13.82,7.05 C13.48,6.65 13.07,6.35 12.59,6.17 C12.12,5.99 11.58,5.9 11,5.9 C10.42,5.9 9.89,5.99 9.41,6.17 C8.93,6.35 8.52,6.64 8.18,7.05 C7.84,7.46 7.58,7.98 7.39,8.64 C7.21,9.29 7.11,10.09 7.11,11.03 L7.11,12.95 C7.11,13.89 7.2,14.69 7.39,15.34 C7.58,16 7.84,16.53 8.19,16.94 C8.53,17.35 8.94,17.65 9.42,17.83 C9.9,18.01 10.43,18.11 11.01,18.11 C11.6,18.11 12.13,18.02 12.6,17.83 C13.08,17.65 13.48,17.35 13.82,16.94 C14.16,16.53 14.42,16 14.6,15.34 C14.78,14.69 14.88,13.89 14.88,12.95 L14.88,11.03 C14.88,10.09 14.79,9.29 14.6,8.64 C14.42,7.98 14.16,7.45 13.82,7.05 L13.82,7.05 Z M12.9,13.22 C12.9,13.82 12.86,14.33 12.78,14.75 C12.7,15.17 12.58,15.51 12.42,15.77 C12.26,16.03 12.06,16.22 11.83,16.34 C11.6,16.46 11.32,16.52 11.01,16.52 C10.71,16.52 10.43,16.46 10.19,16.34 C9.95,16.22 9.75,16.03 9.59,15.77 C9.43,15.51 9.3,15.17 9.21,14.75 C9.12,14.33 9.08,13.82 9.08,13.22 L9.08,10.72 C9.08,10.12 9.12,9.61 9.21,9.2 C9.3,8.79 9.42,8.46 9.59,8.2 C9.75,7.95 9.95,7.77 10.19,7.65 C10.43,7.54 10.7,7.48 11,7.48 C11.31,7.48 11.58,7.54 11.81,7.65 C12.05,7.76 12.25,7.94 12.41,8.2 C12.57,8.45 12.7,8.78 12.78,9.19 C12.86,9.6 12.91,10.11 12.91,10.71 L12.91,13.22 L12.9,13.22 Z" id="Shape" fill="#000000"></path>
                </g>
            </g>
        </g>
    </g>
</svg>