<?xml version="1.0" encoding="UTF-8"?>
<svg width="19px" height="14px" viewBox="0 0 19 14" version="1.1" xmlns="http://www.w3.org/2000/svg" xmlns:xlink="http://www.w3.org/1999/xlink">
    <!-- Generator: Sketch 42 (36781) - http://www.bohemiancoding.com/sketch -->
    <title>ic_view_comfy</title>
    <desc>Created with Sketch.</desc>
    <defs></defs>
    <g id="Page-1" stroke="none" stroke-width="1" fill="none" fill-rule="evenodd">
        <g id="Image" transform="translate(-147.000000, -821.000000)">
            <g id="ic_view_comfy" transform="translate(144.000000, 816.000000)">
                <g id="Icon-24px">
                    <path d="M3,9 L7,9 L7,5 L3,5 L3,9 L3,9 Z M3,14 L7,14 L7,10 L3,10 L3,14 L3,14 Z M8,14 L12,14 L12,10 L8,10 L8,14 L8,14 Z M13,14 L17,14 L17,10 L13,10 L13,14 L13,14 Z M8,9 L12,9 L12,5 L8,5 L8,9 L8,9 Z M13,5 L13,9 L17,9 L17,5 L13,5 L13,5 Z M18,14 L22,14 L22,10 L18,10 L18,14 L18,14 Z M3,19 L7,19 L7,15 L3,15 L3,19 L3,19 Z M8,19 L12,19 L12,15 L8,15 L8,19 L8,19 Z M13,19 L17,19 L17,15 L13,15 L13,19 L13,19 Z M18,19 L22,19 L22,15 L18,15 L18,19 L18,19 Z M18,5 L18,9 L22,9 L22,5 L18,5 L18,5 Z" id="Shape" fill="#000000"></path>
                    <polygon id="Shape" points="0 0 24 0 24 24 0 24"></polygon>
                </g>
            </g>
        </g>
    </g>
</svg>