<?xml version="1.0" encoding="UTF-8"?>
<svg width="22px" height="22px" viewBox="0 0 22 22" version="1.1" xmlns="http://www.w3.org/2000/svg" xmlns:xlink="http://www.w3.org/1999/xlink">
    <!-- Generator: Sketch 42 (36781) - http://www.bohemiancoding.com/sketch -->
    <title>ic_wb_incandescent</title>
    <desc>Created with Sketch.</desc>
    <defs></defs>
    <g id="Page-1" stroke="none" stroke-width="1" fill="none" fill-rule="evenodd">
        <g id="Image" transform="translate(-385.000000, -817.000000)">
            <g id="ic_wb_incandescent" transform="translate(384.000000, 816.000000)">
                <g id="Icon-24px">
                    <polygon id="Shape" points="0 0 24 0 24 24 0 24"></polygon>
                    <path d="M3.55,18.54 L4.96,19.95 L6.75,18.15 L5.34,16.74 L3.55,18.54 L3.55,18.54 Z M11,22.45 L13,22.45 L13,19.5 L11,19.5 L11,22.45 L11,22.45 Z M4,10.5 L1,10.5 L1,12.5 L4,12.5 L4,10.5 L4,10.5 Z M15,6.31 L15,1.5 L9,1.5 L9,6.31 C7.21,7.35 6,9.28 6,11.5 C6,14.81 8.69,17.5 12,17.5 C15.31,17.5 18,14.81 18,11.5 C18,9.28 16.79,7.35 15,6.31 L15,6.31 Z M20,10.5 L20,12.5 L23,12.5 L23,10.5 L20,10.5 L20,10.5 Z M17.24,18.16 L19.03,19.96 L20.44,18.55 L18.64,16.76 L17.24,18.16 L17.24,18.16 Z" id="Shape" fill="#000000"></path>
                </g>
            </g>
        </g>
    </g>
</svg>