<?xml version="1.0" encoding="UTF-8"?>
<svg width="24px" height="16px" viewBox="0 0 24 16" version="1.1" xmlns="http://www.w3.org/2000/svg" xmlns:xlink="http://www.w3.org/1999/xlink">
    <!-- Generator: Sketch 42 (36781) - http://www.bohemiancoding.com/sketch -->
    <title>ic_wb_auto</title>
    <desc>Created with Sketch.</desc>
    <defs></defs>
    <g id="Page-1" stroke="none" stroke-width="1" fill="none" fill-rule="evenodd">
        <g id="Image" transform="translate(-288.000000, -820.000000)">
            <g id="ic_wb_auto" transform="translate(288.000000, 816.000000)">
                <g id="Icon-24px">
                    <polygon id="Shape" points="0 0 24 0 24 24 0 24"></polygon>
                    <path d="M6.85,12.65 L9.15,12.65 L8,9 L6.85,12.65 L6.85,12.65 Z M22,7 L20.8,13.29 L19.3,7 L17.7,7 L16.21,13.29 L15,7 L14.24,7 C12.77,5.17 10.53,4 8,4 C3.58,4 0,7.58 0,12 C0,16.42 3.58,20 8,20 C11.13,20 13.84,18.19 15.15,15.57 L15.25,16 L17,16 L18.5,9.9 L20,16 L21.75,16 L23.8,7 L22,7 L22,7 Z M10.3,16 L9.6,14 L6.4,14 L5.7,16 L3.8,16 L7,7 L9,7 L12.2,16 L10.3,16 L10.3,16 Z" id="Shape" fill="#000000"></path>
                </g>
            </g>
        </g>
    </g>
</svg>