<?xml version="1.0" encoding="UTF-8"?>
<svg width="18px" height="20px" viewBox="0 0 18 20" version="1.1" xmlns="http://www.w3.org/2000/svg" xmlns:xlink="http://www.w3.org/1999/xlink">
    <!-- Generator: Sketch 42 (36781) - http://www.bohemiancoding.com/sketch -->
    <title>ic_location_off</title>
    <desc>Created with Sketch.</desc>
    <defs></defs>
    <g id="Page-1" stroke="none" stroke-width="1" fill="none" fill-rule="evenodd">
        <g id="Communication" transform="translate(-386.000000, -146.000000)">
            <g id="ic_location_off" transform="translate(384.000000, 144.000000)">
                <g id="Icon-24px">
                    <path d="M0,0 L24,0 L24,24 L0,24 L0,0 Z M11.75,11.47 L11.64,11.36 L11.75,11.47 Z" id="Shape"></path>
                    <path d="M12,6.5 C13.38,6.5 14.5,7.62 14.5,9 C14.5,9.74 14.17,10.39 13.67,10.85 L17.3,14.48 C18.28,12.62 19,10.68 19,9 C19,5.13 15.87,2 12,2 C10.02,2 8.24,2.83 6.96,4.15 L10.15,7.34 C10.61,6.82 11.26,6.5 12,6.5 L12,6.5 Z M16.37,16.1 L11.74,11.47 L11.63,11.36 L3.27,3 L2,4.27 L5.18,7.45 C5.07,7.95 5,8.47 5,9 C5,14.25 12,22 12,22 C12,22 13.67,20.15 15.38,17.65 L18.73,21 L20,19.73 L16.37,16.1 L16.37,16.1 Z" id="Shape" fill="#000000"></path>
                </g>
            </g>
        </g>
    </g>
</svg>