<?xml version="1.0" encoding="UTF-8"?>
<svg width="18px" height="21px" viewBox="0 0 18 21" version="1.1" xmlns="http://www.w3.org/2000/svg" xmlns:xlink="http://www.w3.org/1999/xlink">
    <!-- Generator: Sketch 42 (36781) - http://www.bohemiancoding.com/sketch -->
    <title>ic_live_help</title>
    <desc>Created with Sketch.</desc>
    <defs></defs>
    <g id="Page-1" stroke="none" stroke-width="1" fill="none" fill-rule="evenodd">
        <g id="Communication" transform="translate(-339.000000, -146.000000)">
            <g id="ic_live_help" transform="translate(336.000000, 144.000000)">
                <g id="Icon-24px">
                    <polygon id="Shape" points="0 0 24 0 24 24 0 24"></polygon>
                    <path d="M19,2 L5,2 C3.89,2 3,2.9 3,4 L3,18 C3,19.1 3.89,20 5,20 L9,20 L12,23 L15,20 L19,20 C20.1,20 21,19.1 21,18 L21,4 C21,2.9 20.1,2 19,2 L19,2 Z M13,18 L11,18 L11,16 L13,16 L13,18 L13,18 Z M15.07,10.25 L14.17,11.17 C13.45,11.9 13,12.5 13,14 L11,14 L11,13.5 C11,12.4 11.45,11.4 12.17,10.67 L13.41,9.41 C13.78,9.05 14,8.55 14,8 C14,6.9 13.1,6 12,6 C10.9,6 10,6.9 10,8 L8,8 C8,5.79 9.79,4 12,4 C14.21,4 16,5.79 16,8 C16,8.88 15.64,9.68 15.07,10.25 L15.07,10.25 Z" id="Shape" fill="#000000"></path>
                </g>
            </g>
        </g>
    </g>
</svg>