<?xml version="1.0" encoding="UTF-8"?>
<svg width="18px" height="22px" viewBox="0 0 18 22" version="1.1" xmlns="http://www.w3.org/2000/svg" xmlns:xlink="http://www.w3.org/1999/xlink">
    <!-- Generator: Sketch 42 (36781) - http://www.bohemiancoding.com/sketch -->
    <title>ic_phonelink_erase</title>
    <desc>Created with Sketch.</desc>
    <defs></defs>
    <g id="Page-1" stroke="none" stroke-width="1" fill="none" fill-rule="evenodd">
        <g id="Communication" transform="translate(-243.000000, -193.000000)">
            <g id="ic_phonelink_erase" transform="translate(240.000000, 192.000000)">
                <g id="Icon-24px">
                    <polygon id="Shape" points="0 0 24 0 24 24 0 24"></polygon>
                    <path d="M13,8.2 L12,7.2 L8,11.2 L4,7.2 L3,8.2 L7,12.2 L3,16.2 L4,17.2 L8,13.2 L12,17.2 L13,16.2 L9,12.2 L13,8.2 L13,8.2 Z M19,1 L9,1 C7.9,1 7,1.9 7,3 L7,6 L9,6 L9,4 L19,4 L19,20 L9,20 L9,18 L7,18 L7,21 C7,22.1 7.9,23 9,23 L19,23 C20.1,23 21,22.1 21,21 L21,3 C21,1.9 20.1,1 19,1 L19,1 Z" id="Shape" fill="#000000"></path>
                </g>
            </g>
        </g>
    </g>
</svg>