<?xml version="1.0" encoding="UTF-8"?>
<svg width="20px" height="20px" viewBox="0 0 20 20" version="1.1" xmlns="http://www.w3.org/2000/svg" xmlns:xlink="http://www.w3.org/1999/xlink">
    <!-- Generator: Sketch 42 (36781) - http://www.bohemiancoding.com/sketch -->
    <title>ic_portable_wifi_off</title>
    <desc>Created with Sketch.</desc>
    <defs></defs>
    <g id="Page-1" stroke="none" stroke-width="1" fill="none" fill-rule="evenodd">
        <g id="Communication" transform="translate(-434.000000, -194.000000)">
            <g id="ic_portable_wifi_off" transform="translate(432.000000, 192.000000)">
                <g id="Icon-24px">
                    <path d="M0,0 L24,0 L24,24 L0,24 L0,0 Z M0,0 L24,0 L24,24 L0,24 L0,0 Z" id="Shape"></path>
                    <path d="M17.56,14.24 C17.84,13.55 18,12.79 18,12 C18,8.69 15.31,6 12,6 C11.21,6 10.45,6.16 9.76,6.44 L11.38,8.06 C11.58,8.03 11.79,8 12,8 C14.21,8 16,9.79 16,12 C16,12.21 15.98,12.42 15.95,12.63 L17.56,14.24 L17.56,14.24 Z M12,4 C16.42,4 20,7.58 20,12 C20,13.35 19.65,14.62 19.05,15.74 L20.52,17.21 C21.46,15.69 22,13.91 22,12 C22,6.48 17.52,2 12,2 C10.09,2 8.31,2.55 6.79,3.47 L8.25,4.93 C9.37,4.34 10.65,4 12,4 L12,4 Z M3.27,2.5 L2,3.77 L4.1,5.87 C2.79,7.57 2,9.69 2,12 C2,15.7 4.01,18.92 6.99,20.65 L7.99,18.92 C5.61,17.53 4,14.96 4,12 C4,10.24 4.57,8.62 5.53,7.31 L6.96,8.75 C6.36,9.68 6,10.8 6,12 C6,14.22 7.21,16.15 9,17.19 L10,15.45 C8.81,14.75 8,13.48 8,12 C8,11.35 8.17,10.75 8.44,10.21 L10.02,11.79 L10,12 C10,13.1 10.9,14 12,14 L12.21,13.98 L12.22,13.99 L19.73,21.5 L21,20.23 L4.27,3.5 L3.27,2.5 L3.27,2.5 Z" id="Shape" fill="#000000"></path>
                </g>
            </g>
        </g>
    </g>
</svg>