<?xml version="1.0" encoding="UTF-8"?>
<svg width="20px" height="22px" viewBox="0 0 20 22" version="1.1" xmlns="http://www.w3.org/2000/svg" xmlns:xlink="http://www.w3.org/1999/xlink">
    <!-- Generator: Sketch 42 (36781) - http://www.bohemiancoding.com/sketch -->
    <title>ic_phonelink_ring</title>
    <desc>Created with Sketch.</desc>
    <defs></defs>
    <g id="Page-1" stroke="none" stroke-width="1" fill="none" fill-rule="evenodd">
        <g id="Communication" transform="translate(-338.000000, -193.000000)">
            <g id="ic_phonelink_ring" transform="translate(336.000000, 192.000000)">
                <g id="Icon-24px">
                    <polygon id="Shape" points="0 0 24 0 24 24 0 24"></polygon>
                    <path d="M20.1,7.7 L19.1,8.7 C20.9,10.5 20.9,13.3 19.1,15.2 L20.1,16.2 C22.6,13.9 22.6,10.1 20.1,7.7 L20.1,7.7 Z M18,9.8 L17,10.8 C17.5,11.5 17.5,12.4 17,13.1 L18,14.1 C19.2,12.9 19.2,11.1 18,9.8 L18,9.8 Z M14,1 L4,1 C2.9,1 2,1.9 2,3 L2,21 C2,22.1 2.9,23 4,23 L14,23 C15.1,23 16,22.1 16,21 L16,3 C16,1.9 15.1,1 14,1 L14,1 Z M14,20 L4,20 L4,4 L14,4 L14,20 L14,20 Z" id="Shape" fill="#000000"></path>
                </g>
            </g>
        </g>
    </g>
</svg>