<?xml version="1.0" encoding="UTF-8"?>
<svg width="22px" height="18px" viewBox="0 0 22 18" version="1.1" xmlns="http://www.w3.org/2000/svg" xmlns:xlink="http://www.w3.org/1999/xlink">
    <!-- Generator: Sketch 42 (36781) - http://www.bohemiancoding.com/sketch -->
    <title>ic_present_to_all</title>
    <desc>Created with Sketch.</desc>
    <defs></defs>
    <g id="Page-1" stroke="none" stroke-width="1" fill="none" fill-rule="evenodd">
        <g id="Communication" transform="translate(-49.000000, -243.000000)">
            <g id="ic_present_to_all" transform="translate(48.000000, 240.000000)">
                <g id="Icon-24px">
                    <polygon id="Shape" points="0 0 24 0 24 24 0 24"></polygon>
                    <path d="M21,3 L3,3 C1.89,3 1,3.89 1,5 L1,19 C1,20.11 1.89,21 3,21 L21,21 C22.11,21 23,20.11 23,19 L23,5 C23,3.89 22.11,3 21,3 L21,3 Z M21,19.02 L3,19.02 L3,4.98 L21,4.98 L21,19.02 L21,19.02 Z M10,12 L8,12 L12,8 L16,12 L14,12 L14,16 L10,16 L10,12 L10,12 Z" id="Shape" fill="#000000"></path>
                </g>
            </g>
        </g>
    </g>
</svg>