<?xml version="1.0" encoding="UTF-8"?>
<svg width="18px" height="22px" viewBox="0 0 18 22" version="1.1" xmlns="http://www.w3.org/2000/svg" xmlns:xlink="http://www.w3.org/1999/xlink">
    <!-- Generator: Sketch 42 (36781) - http://www.bohemiancoding.com/sketch -->
    <title>ic_phonelink_setup</title>
    <desc>Created with Sketch.</desc>
    <defs></defs>
    <g id="Page-1" stroke="none" stroke-width="1" fill="none" fill-rule="evenodd">
        <g id="Communication" transform="translate(-387.000000, -193.000000)">
            <g id="ic_phonelink_setup" transform="translate(384.000000, 192.000000)">
                <g id="Icon-24px">
                    <polygon id="Shape" points="0 0 24 0 24 24 0 24"></polygon>
                    <path d="M11.8,12.5 L11.8,11.5 L12.9,10.7 C13,10.6 13,10.5 13,10.4 L12,8.7 C11.9,8.6 11.8,8.5 11.7,8.6 L10.4,9 C10.1,8.8 9.8,8.6 9.5,8.5 L9.3,7.2 C9.3,7.1 9.2,7 9,7 L7,7 C6.9,7 6.8,7.1 6.7,7.2 L6.5,8.5 C6.2,8.6 5.9,8.8 5.6,9 L4.3,8.5 C4.2,8.5 4.1,8.5 4,8.6 L3,10.3 C2.9,10.4 3,10.5 3.1,10.6 L4.2,11.4 L4.2,12.4 L3.1,13.2 C3,13.4 3,13.5 3,13.6 L4,15.3 C4.1,15.4 4.2,15.5 4.3,15.4 L5.7,15 C6,15.2 6.3,15.4 6.6,15.5 L6.8,16.8 C6.7,16.9 6.9,17 7,17 L9,17 C9.1,17 9.2,16.9 9.3,16.8 L9.5,15.5 C9.8,15.4 10.1,15.2 10.4,15 L11.7,15.5 C11.8,15.5 11.9,15.5 12,15.4 L13,13.7 C13.1,13.6 13,13.5 12.9,13.4 L11.8,12.5 L11.8,12.5 Z M8,14 C6.9,14 6,13.1 6,12 C6,10.9 6.9,10 8,10 C9.1,10 10,10.9 10,12 C10,13.1 9.1,14 8,14 L8,14 Z M19,1 L9,1 C7.9,1 7,1.9 7,3 L7,6 L9,6 L9,4 L19,4 L19,20 L9,20 L9,18 L7,18 L7,21 C7,22.1 7.9,23 9,23 L19,23 C20.1,23 21,22.1 21,21 L21,3 C21,1.9 20.1,1 19,1 L19,1 Z" id="Shape" fill="#000000"></path>
                </g>
            </g>
        </g>
    </g>
</svg>