<?xml version="1.0" encoding="UTF-8"?>
<svg width="24px" height="19px" viewBox="0 0 24 19" version="1.1" xmlns="http://www.w3.org/2000/svg" xmlns:xlink="http://www.w3.org/1999/xlink">
    <!-- Generator: Sketch 42 (36781) - http://www.bohemiancoding.com/sketch -->
    <title>ic_ring_volume</title>
    <desc>Created with Sketch.</desc>
    <defs></defs>
    <g id="Page-1" stroke="none" stroke-width="1" fill="none" fill-rule="evenodd">
        <g id="Communication" transform="translate(-96.000000, -242.000000)">
            <g id="ic_ring_volume" transform="translate(96.000000, 240.000000)">
                <g id="Icon-24px">
                    <polygon id="Shape" points="0 0 24 0 24 24 0 24"></polygon>
                    <path d="M23.71,16.67 C20.66,13.78 16.54,12 12,12 C7.46,12 3.34,13.78 0.29,16.67 C0.11,16.85 0,17.1 0,17.38 C0,17.66 0.11,17.91 0.29,18.09 L2.77,20.57 C2.95,20.75 3.2,20.86 3.48,20.86 C3.75,20.86 4,20.75 4.18,20.58 C4.97,19.84 5.87,19.22 6.84,18.73 C7.17,18.57 7.4,18.23 7.4,17.83 L7.4,14.73 C8.85,14.25 10.4,14 12,14 C13.6,14 15.15,14.25 16.6,14.72 L16.6,17.82 C16.6,18.21 16.83,18.56 17.16,18.72 C18.14,19.21 19.03,19.84 19.82,20.57 C20,20.75 20.25,20.85 20.52,20.85 C20.8,20.85 21.05,20.74 21.23,20.56 L23.71,18.08 C23.89,17.9 24,17.65 24,17.37 C24,17.1 23.89,16.85 23.71,16.67 L23.71,16.67 Z M21.16,6.26 L19.75,4.85 L16.19,8.4 L17.6,9.81 C0.1,-8.8817842e-16 21.05,6.29 21.16,6.26 L21.16,6.26 Z M13,2 L11,2 L11,7 L13,7 L13,2 L13,2 Z M6.4,9.81 L7.81,8.4 L4.26,4.84 L2.84,6.26 C2.95,6.29 6.4,9.81 6.4,9.81 L6.4,9.81 Z" id="Shape" fill="#000000"></path>
                </g>
            </g>
        </g>
    </g>
</svg>