<?xml version="1.0" encoding="UTF-8"?>
<svg width="22px" height="14px" viewBox="0 0 22 14" version="1.1" xmlns="http://www.w3.org/2000/svg" xmlns:xlink="http://www.w3.org/1999/xlink">
    <!-- Generator: Sketch 42 (36781) - http://www.bohemiancoding.com/sketch -->
    <title>ic_stay_current_landscape</title>
    <desc>Created with Sketch.</desc>
    <defs></defs>
    <g id="Page-1" stroke="none" stroke-width="1" fill="none" fill-rule="evenodd">
        <g id="Communication" transform="translate(-241.000000, -245.000000)">
            <g id="ic_stay_current_landscape" transform="translate(240.000000, 240.000000)">
                <g id="Icon-24px">
                    <polygon id="Shape" points="0 0 24 0 24 24 0 24"></polygon>
                    <path d="M1.01,7 L1,17 C1,18.1 1.9,19 3,19 L21,19 C22.1,19 23,18.1 23,17 L23,7 C23,5.9 22.1,5 21,5 L3,5 C1.9,5 1.01,5.9 1.01,7 L1.01,7 Z M19,7 L19,17 L5,17 L5,7 L19,7 L19,7 Z" id="Shape" fill="#000000"></path>
                </g>
            </g>
        </g>
    </g>
</svg>