<?xml version="1.0" encoding="UTF-8"?>
<svg width="24px" height="16px" viewBox="0 0 24 16" version="1.1" xmlns="http://www.w3.org/2000/svg" xmlns:xlink="http://www.w3.org/1999/xlink">
    <!-- Generator: Sketch 42 (36781) - http://www.bohemiancoding.com/sketch -->
    <title>ic_screen_share</title>
    <desc>Created with Sketch.</desc>
    <defs></defs>
    <g id="Page-1" stroke="none" stroke-width="1" fill="none" fill-rule="evenodd">
        <g id="Communication" transform="translate(-144.000000, -244.000000)">
            <g id="ic_screen_share" transform="translate(144.000000, 240.000000)">
                <g id="Icon-24px">
                    <polygon id="Shape" points="0 0 24 0 24 24 0 24"></polygon>
                    <path d="M20,18 C21.1,18 21.99,17.1 21.99,16 L22,6 C22,4.89 21.1,4 20,4 L4,4 C2.89,4 2,4.89 2,6 L2,16 C2,17.1 2.89,18 4,18 L0,18 L0,20 L24,20 L24,18 L20,18 L20,18 Z M13,14.47 L13,12.28 C10.22,12.28 8.39,13.13 7,15 C7.56,12.33 9.11,9.67 13,9.13 L13,7 L17,10.73 L13,14.47 L13,14.47 Z" id="Shape" fill="#000000"></path>
                </g>
            </g>
        </g>
    </g>
</svg>