<?xml version="1.0" encoding="UTF-8"?>
<svg width="22px" height="12px" viewBox="0 0 22 12" version="1.1" xmlns="http://www.w3.org/2000/svg" xmlns:xlink="http://www.w3.org/1999/xlink">
    <!-- Generator: Sketch 42 (36781) - http://www.bohemiancoding.com/sketch -->
    <title>ic_vpn_key</title>
    <desc>Created with Sketch.</desc>
    <defs></defs>
    <g id="Page-1" stroke="none" stroke-width="1" fill="none" fill-rule="evenodd">
        <g id="Communication" transform="translate(-193.000000, -294.000000)">
            <g id="ic_vpn_key" transform="translate(192.000000, 288.000000)">
                <g id="Icon-24px">
                    <polygon id="Shape" points="0 0 24 0 24 24 0 24"></polygon>
                    <path d="M12.65,10 C11.83,7.67 9.61,6 7,6 C3.69,6 1,8.69 1,12 C1,15.31 3.69,18 7,18 C9.61,18 11.83,16.33 12.65,14 L17,14 L17,18 L21,18 L21,14 L23,14 L23,10 L12.65,10 L12.65,10 Z M7,14 C5.9,14 5,13.1 5,12 C5,10.9 5.9,10 7,10 C8.1,10 9,10.9 9,12 C9,13.1 8.1,14 7,14 L7,14 Z" id="Shape" fill="#000000"></path>
                </g>
            </g>
        </g>
    </g>
</svg>