<?xml version="1.0" encoding="UTF-8"?>
<svg width="60px" height="60px" viewBox="0 0 60 60" version="1.1" xmlns="http://www.w3.org/2000/svg" xmlns:xlink="http://www.w3.org/1999/xlink">
    <!-- Generator: Sketch 44.1 (41455) - http://www.bohemiancoding.com/sketch -->
    <title>Android_White</title>
    <desc>Created with Sketch.</desc>
    <defs></defs>
    <g id="Page-1" stroke="none" stroke-width="1" fill="none" fill-rule="evenodd" opacity="0.5">
        <g id="Social_icons" transform="translate(-460.000000, -811.000000)" fill="#FFFFFF">
            <g id="White" transform="translate(60.000000, 560.000000)">
                <g id="Android" transform="translate(400.000000, 251.000000)">
                    <path d="M30,60 C13.4314575,60 0,46.5685425 0,30 C0,13.4314575 13.4314575,0 30,0 C46.5685425,0 60,13.4314575 60,30 C60,46.5685425 46.5685425,60 30,60 Z M34.6955286,15.8703993 L35.0766357,15.309985 L35.45775,14.757635 L36.3069571,13.5158635 C36.4125929,13.3626564 36.3691,13.157035 36.2116786,13.0562421 C36.0563357,12.953435 35.843,12.9957707 35.7415071,13.1489707 L34.4449071,15.0378421 L34.0555071,15.6063207 C32.8231143,15.1406564 31.4498786,14.8806064 30,14.8806064 C28.5521929,14.8806064 27.1768857,15.1406564 25.9444929,15.6063207 L25.5571643,15.0378421 L25.1739857,14.4794493 L24.2626357,13.1489707 C24.157,12.9957707 23.9457357,12.9554493 23.7883214,13.0562421 C23.6329714,13.157035 23.5894786,13.3626564 23.6930429,13.5158635 L24.54225,14.757635 L24.9233643,15.309985 L25.3065429,15.8703993 C22.4130071,17.1827278 20.455675,19.6682993 20.455675,22.5126921 L39.5443214,22.5126921 C39.5443214,19.6682993 37.5869929,17.1827278 34.6955286,15.8703993 Z M20.6027343,23.8391278 L20.455675,23.8391278 L20.455675,38.4380635 C20.455675,39.597185 21.4229493,40.5406128 22.6159929,40.5406128 L24.1735714,40.5406128 C24.1197214,40.7159935 24.0907214,40.8994378 24.0907214,41.0929614 L24.0907214,45.29605 C24.0907214,46.3946993 25.0082857,47.2857135 26.1371143,47.2857135 C27.26595,47.2857135 28.1835143,46.3946993 28.1835143,45.29605 L28.1835143,41.0929614 C28.1835143,40.8994378 28.1524429,40.7159935 28.1006643,40.5406128 L31.8993357,40.5406128 C31.8475571,40.7159935 31.8185571,40.8994378 31.8185571,41.0929614 L31.8185571,45.29605 C31.8185571,46.3946993 32.73405,47.2857135 33.8628857,47.2857135 C34.9937857,47.2857135 35.91135,46.3946993 35.91135,45.29605 L35.91135,41.0929614 C35.91135,40.8994378 35.8802786,40.7159935 35.8264286,40.5406128 L37.3860786,40.5406128 C38.5791214,40.5406128 39.5443214,39.597185 39.5443214,38.4380635 L39.5443214,23.8391278 L20.6027343,23.8391278 Z M17.0463957,23.8391278 C15.9154929,23.8391278 15,24.7301493 15,25.8287921 L15,34.3458421 C15,35.4444921 15.9154929,36.3355064 17.0463957,36.3355064 C18.1752279,36.3355064 19.0907207,35.4444921 19.0907207,34.3458421 L19.0907207,25.8287921 C19.0907207,24.7301493 18.1752279,23.8391278 17.0463957,23.8391278 Z M42.9556786,23.8391278 C41.8247714,23.8391278 40.9092786,24.7301493 40.9092786,25.8287921 L40.9092786,34.3458421 C40.9092786,35.4444921 41.8247714,36.3355064 42.9556786,36.3355064 C44.0845071,36.3355064 45,35.4444921 45,34.3458421 L45,25.8287921 C45,24.7301493 44.0845071,23.8391278 42.9556786,23.8391278 Z" id="Combined-Shape"></path>
                    <path d="M25.9092786,19.857785 C25.3438286,19.857785 24.8860786,19.4122778 24.8860786,18.8619493 C24.8860786,18.3116135 25.3438286,17.8681278 25.9092786,17.8681278 C26.4747286,17.8681278 26.9324786,18.3116135 26.9324786,18.8619493 C26.9324786,19.4122778 26.4747286,19.857785 25.9092786,19.857785 L25.9092786,19.857785 Z" id="Clip-2"></path>
                    <path d="M34.0907214,19.857785 C33.5252714,19.857785 33.0675214,19.4122778 33.0675214,18.8619493 C33.0675214,18.3116135 33.5252714,17.8681278 34.0907214,17.8681278 C34.6561714,17.8681278 35.1139214,18.3116135 35.1139214,18.8619493 C35.1139214,19.4122778 34.6561714,19.857785 34.0907214,19.857785 L34.0907214,19.857785 Z" id="Clip-2"></path>
                </g>
            </g>
        </g>
    </g>
</svg>