<?xml version="1.0" encoding="UTF-8"?>
<svg width="60px" height="60px" viewBox="0 0 60 60" version="1.1" xmlns="http://www.w3.org/2000/svg" xmlns:xlink="http://www.w3.org/1999/xlink">
    <!-- Generator: Sketch 44.1 (41455) - http://www.bohemiancoding.com/sketch -->
    <title>blogger-white</title>
    <desc>Created with Sketch.</desc>
    <defs></defs>
    <g id="Mockups" stroke="none" stroke-width="1" fill="none" fill-rule="evenodd" opacity="0.5">
        <g id="Mobile-V2" transform="translate(-30.000000, -2426.000000)" fill-rule="nonzero" fill="#FFFFFF">
            <g id="blogger-white" transform="translate(30.000000, 2426.000000)">
                <g id="Page-1">
                    <g id="Social_icons">
                        <g id="White">
                            <g id="Instagram">
                                <path d="M0,30 C0,13.4314567 13.4314567,0 30,0 C46.5685433,0 60,13.4314567 60,30 C60,46.5685433 46.5685433,60 30,60 C13.4314567,60 0,46.5685433 0,30 Z M35.6980117,37.6820004 L24.2688661,37.6820004 C23.1959097,37.6820004 22.3267051,36.8049998 22.3267051,35.7580004 C22.3267051,34.6990002 23.1959097,33.8329998 24.2688661,33.8329998 L35.6980117,33.8329998 C36.7599275,33.8329998 37.6291321,34.6990002 37.6291321,35.7580004 C37.6291321,36.8049998 36.7599275,37.6820004 35.6980117,37.6820004 M24.2688661,22.2649998 L29.8926037,22.2649998 C30.9655602,22.2649998 31.8347655,23.1310002 31.8347655,24.1889998 C31.8347655,25.248 30.9655602,26.124 29.8926037,26.124 L24.2688661,26.124 C23.1959097,26.124 22.3267051,25.248 22.3267051,24.1889998 C22.3267051,23.1310002 23.1959097,22.2649998 24.2688661,22.2649998 M45.1839908,26.3809998 C44.5084999,26.092 41.6108146,26.4129998 40.8058468,25.6860004 C40.2377515,25.1619996 40.2016185,24.2139996 39.9798002,22.9489998 C39.6084309,20.8310002 39.453861,20.3510002 39.0674361,19.5169998 C37.6622542,16.5449998 34.2938332,14 31.2335488,14 L24.1403925,14 C18.5598144,14 14,18.5550002 14,24.1139996 L14,35.9070002 C14,41.456 18.5598144,46 24.1403925,46 L35.7943666,46 C41.3749454,46 45.9036444,41.456 45.9357632,35.9070002 L46,27.7390002 C46,27.7390002 46,26.7289998 45.1839908,26.3809998" id="Combined-Shape"></path>
                            </g>
                        </g>
                    </g>
                </g>
            </g>
        </g>
    </g>
</svg>