<?xml version="1.0" encoding="UTF-8"?>
<svg width="60px" height="60px" viewBox="0 0 60 60" version="1.1" xmlns="http://www.w3.org/2000/svg" xmlns:xlink="http://www.w3.org/1999/xlink">
    <!-- Generator: Sketch 44.1 (41455) - http://www.bohemiancoding.com/sketch -->
    <title>Dribbble_White</title>
    <desc>Created with Sketch.</desc>
    <defs></defs>
    <g id="Page-1" stroke="none" stroke-width="1" fill="none" fill-rule="evenodd" opacity="0.5">
        <g id="Social_icons" transform="translate(-260.000000, -721.000000)" fill="#FFFFFF">
            <g id="White" transform="translate(60.000000, 560.000000)">
                <g id="Dribbble" transform="translate(200.000000, 161.000000)">
                    <path d="M0,30 C0,13.4314567 13.4314567,0 30,0 C46.5685433,0 60,13.4314567 60,30 C60,46.5685433 46.5685433,60 30,60 C13.4314567,60 0,46.5685433 0,30 Z M46,29.9778187 C46,28.8949584 45.8898415,27.812098 45.67347,26.7611306 C45.4624843,25.7328635 45.1499825,24.7217936 44.7405988,23.758313 C44.340609,22.8097158 43.8444888,21.8953254 43.2648261,21.0433451 C42.6937431,20.1961176 42.035861,19.4034208 41.3131614,18.6786372 C40.5889587,17.9577309 39.7919851,17.3032369 38.9458504,16.7306017 C38.0911359,16.1524633 37.1762383,15.657059 36.2277733,15.2545196 C35.2612721,14.8464771 34.2494926,14.5336758 33.2221194,14.3245579 C32.1673787,14.1092491 31.0829535,14 29.9993424,14 C28.9149172,14 27.830492,14.1092491 26.777317,14.3245579 C25.7483155,14.5336133 24.7365986,14.8464146 23.7709116,15.2545196 C22.8224466,15.6571216 21.9067348,16.1524633 21.0520204,16.7306017 C20.2058856,17.3032369 19.4089746,17.9577309 18.686275,18.6786372 C17.9628239,19.4034208 17.3049417,20.1961176 16.7330446,21.0433451 C16.1564505,21.8953254 15.6595163,22.8096532 15.2579608,23.758313 C14.8485145,24.7217936 14.5352612,25.7328635 14.3235239,26.7611306 C14.1093443,27.812098 14,28.8949584 14,29.9778187 C14,31.0598662 14.109407,32.1404127 14.3234613,33.1936939 C14.5351985,34.2218985 14.8484519,35.2314676 15.2578982,36.1965115 C15.6594536,37.1444208 16.1563879,38.0579983 16.732982,38.909916 C17.3048791,39.7564557 17.9627612,40.5506533 18.6862124,41.2746239 C19.408912,41.9954677 20.205823,42.6515876 21.0519577,43.2250358 C21.9066722,43.8007353 22.822384,44.2961396 23.7708489,44.6979911 C24.736536,45.1052206 25.7483155,45.4172715 26.7772544,45.6278902 C27.8304294,45.844825 28.9148546,45.9555749 29.9992798,45.9555749 C31.0828909,45.9555749 32.1673787,45.844825 33.2220567,45.6278902 C34.24943,45.4172715 35.2612721,45.1052206 36.2277107,44.6979911 C37.1762383,44.2961396 38.0910733,43.8007353 38.9457877,43.2250358 C39.7919225,42.651525 40.5888335,41.9954677 41.3130987,41.2746239 C42.0357984,40.5506533 42.6936805,39.7564557 43.2647635,38.909916 C43.8444888,38.0579983 44.340609,37.1444834 44.7405988,36.1965115 C45.1499825,35.2314676 45.4624843,34.221961 45.67347,33.1936939 C45.8898415,32.1404127 46,31.0598662 46,29.9778187 Z" id="Combined-Shape"></path>
                    <path d="M32.9393021,26.7089137 C38.3341233,24.5087985 40.5256442,21.3467662 40.551446,21.310183 C42.4686666,23.634243 43.6273658,26.6027913 43.658616,29.837302 C43.4609069,29.7967792 38.8364434,28.8044073 34.1424655,29.3942398 C34.0463978,29.1602329 33.9479503,28.9261635 33.847123,28.6874039 C33.5635542,28.0218412 33.2564382,27.3595929 32.9393021,26.7089137 Z M37.6348457,41.293322 C37.4957542,40.471046 36.7675435,36.4656632 34.9752609,31.5474535 C39.3856701,30.841368 43.2085257,32.0498617 43.4897773,32.1403502 C42.8819331,35.9429936 40.7029373,39.2259066 37.6348457,41.293322 Z M32.4150004,32.1794347 C34.3377321,37.1693724 35.1315118,41.3479152 35.3338552,42.5400247 C33.6939408,43.2366048 31.8915129,43.6213217 29.9992798,43.6213217 C26.8303609,43.6213217 23.9208373,42.5345216 21.6011364,40.7331554 C21.6296215,40.6714147 24.2623779,35.0155551 32.3243811,32.2090764 C32.3541283,32.1981953 32.3845644,32.1895029 32.4150004,32.1794347 Z M39.023193,19.737359 C38.989563,19.7872621 37.0434093,22.7456797 31.8876301,24.6757676 C29.5508178,20.391165 26.984232,16.9912486 26.7795715,16.7165938 C27.8116417,16.4685164 28.8890528,16.3343158 29.9992798,16.3343158 C33.4588442,16.3343158 36.6175551,17.619165 39.023193,19.737359 Z M30.3750335,27.5999159 C30.7664436,28.3660352 31.1407569,29.1430982 31.4836948,29.9185353 C31.3040219,29.9700018 31.1227208,30.0230943 30.9446135,30.0823777 C23.5708227,32.4634073 19.8315097,39.0877663 19.8362066,39.0948327 C17.659528,36.6785958 16.3352467,33.4830445 16.3352467,29.9778187 C16.3352467,29.831111 16.3422607,29.689156 16.3462062,29.5425109 C16.5883794,29.5518286 23.3395463,29.7031639 30.3750335,27.5999159 Z M24.1692731,17.6363622 C24.3513258,17.8790615 26.878019,21.3031166 29.2429502,25.4988566 C22.6824783,27.2394627 16.9884319,27.1676722 16.6282093,27.1645455 C17.5149881,22.9391638 20.35888,19.433125 24.1692731,17.6363622 Z" id="Combined-Shape"></path>
                </g>
            </g>
        </g>
    </g>
</svg>