<?xml version="1.0" encoding="UTF-8"?>
<svg width="60px" height="60px" viewBox="0 0 60 60" version="1.1" xmlns="http://www.w3.org/2000/svg" xmlns:xlink="http://www.w3.org/1999/xlink">
    <!-- Generator: Sketch 44.1 (41455) - http://www.bohemiancoding.com/sketch -->
    <title>Dropbox_White</title>
    <desc>Created with Sketch.</desc>
    <defs></defs>
    <g id="Page-1" stroke="none" stroke-width="1" fill="none" fill-rule="evenodd" opacity="0.5">
        <g id="Social_icons" transform="translate(-660.000000, -561.000000)" fill="#FFFFFF">
            <g id="White" transform="translate(60.000000, 560.000000)">
                <g id="Dropbox" transform="translate(600.000000, 1.000000)">
                    <path d="M0,30 C0,13.4314567 13.4314567,0 30,0 C46.5685433,0 60,13.4314567 60,30 C60,46.5685433 46.5685433,60 30,60 C13.4314567,60 0,46.5685433 0,30 Z M22.8687093,13.0000352 L12.0000352,20.0965014 L19.5152446,26.1144398 L30.4736494,19.3476899 L22.8687093,13.0000352 Z M12,32.1330116 L22.8686741,39.2294778 L30.4739661,32.8814711 L19.5152094,26.1143694 L12,32.1330116 Z M30.4738253,32.8813656 L38.0791173,39.2293722 L48.9477914,32.132906 L41.4329339,26.1146157 L30.4738253,32.8813656 Z M48.9479321,20.0964662 L38.079258,13 L30.4739661,19.3476547 L41.4327227,26.1144046 L48.9479321,20.0964662 Z M30.4963108,34.2470315 L22.86885,40.5763882 L19.6047641,38.4453723 L19.6047641,40.83432 L30.4963108,47.3656587 L41.3878574,40.83432 L41.3878574,38.4453723 L38.1237715,40.5763882 L30.4963108,34.2470315 Z" id="Combined-Shape"></path>
                </g>
            </g>
        </g>
    </g>
</svg>