<?xml version="1.0" encoding="UTF-8"?>
<svg width="60px" height="60px" viewBox="0 0 60 60" version="1.1" xmlns="http://www.w3.org/2000/svg" xmlns:xlink="http://www.w3.org/1999/xlink">
    <!-- Generator: Sketch 44.1 (41455) - http://www.bohemiancoding.com/sketch -->
    <title>Evernote_White</title>
    <desc>Created with Sketch.</desc>
    <defs></defs>
    <g id="Page-1" stroke="none" stroke-width="1" fill="none" fill-rule="evenodd" opacity="0.5">
        <g id="Social_icons" transform="translate(-660.000000, -893.000000)" fill="#FFFFFF">
            <g id="White" transform="translate(60.000000, 560.000000)">
                <g id="Evernote" transform="translate(600.000000, 333.000000)">
                    <path d="M30,60 C13.4314575,60 0,46.5685425 0,30 C0,13.4314575 13.4314575,0 30,0 C46.5685425,0 60,13.4314575 60,30 C60,46.5685425 46.5685425,60 30,60 Z M44.1820513,18.2637603 C43.9147358,16.8270558 43.0639615,16.1190974 42.2947726,15.8407293 C41.4648891,15.5395879 39.78213,15.2276494 37.6678339,14.9774532 C35.9668416,14.7763406 33.9675685,14.7923502 32.7599203,14.82983 C32.6149827,13.8331407 31.9186643,12.9226425 31.1395244,12.6074152 C29.0636723,11.7685257 25.8562565,11.9711896 25.032801,12.2028941 C24.3783878,12.3865078 23.6541326,12.762857 23.2510269,13.3426768 C22.9806828,13.7300093 22.8057688,14.2262441 22.804409,14.9194961 C22.804409,15.3118548 22.8152871,16.2361287 22.825238,17.0572711 C22.8351271,17.8810817 22.8458816,18.6178326 22.8458816,18.6227968 C22.8455107,19.3561968 22.2534608,19.953081 21.5197492,19.9540118 L18.1539849,19.9540118 C17.4360958,19.9540118 16.8874963,20.0751385 16.4685062,20.2662606 C16.0488362,20.4575688 15.7516061,20.7155216 15.5257627,21.0206344 C15.0761781,21.6264542 14.9981776,22.3741883 15.0000318,23.1371874 C15.0000318,23.1371874 15.0066452,23.7606922 15.1562801,24.9674917 C15.2806359,25.9012596 16.2892657,32.4243558 17.247337,34.4082403 C17.6187357,35.1801129 17.8662112,35.5016076 18.5959672,35.8417801 C20.2219257,36.5406788 23.9358492,37.3181982 25.6765215,37.540843 C27.4140418,37.7640463 28.5045656,38.2332262 29.1544669,36.865152 C29.1566302,36.8618011 29.2846944,36.5247933 29.4607209,36.0304821 C30.0249576,34.3139203 30.1035144,32.7908386 30.1035144,31.6887219 C30.1035144,31.5766548 30.2673031,31.5715045 30.2673031,31.6887219 C30.2673031,32.4668618 30.1192752,35.2204471 32.1911098,35.9591836 C33.0090027,36.2503966 34.7056685,36.5100248 36.4296529,36.7128748 C37.9884889,36.8927654 39.1197436,37.5086377 39.1197436,41.523815 C39.1197436,43.9666413 38.6087228,44.3015393 35.9370506,44.3015393 C33.7712693,44.3015393 32.9458977,44.3578211 32.9458977,42.6304621 C32.9458977,41.2343394 34.3212285,41.3806595 35.3405506,41.3806595 C35.7958215,41.3806595 35.4654009,41.0406111 35.4654009,40.1793207 C35.4654009,39.322498 35.9991049,38.827194 35.4942648,38.8145973 C31.9695933,38.7172367 29.8956572,38.8105639 29.8956572,43.2362198 C29.8956572,47.2539412 31.4271127,48 36.4296529,48 C40.3519293,48 41.7345533,47.8710546 43.3540839,42.8259899 C43.6746771,41.8300453 44.4496759,38.790645 44.9187297,33.687437 C45.2151564,30.4607004 44.6390528,20.7217889 44.1820513,18.2637603 Z M17.996315,18.9725874 L17.9985401,18.9725874 L21.3637481,18.9725874 C21.5565862,18.9725874 21.7116601,18.8149117 21.7120928,18.6227968 C21.7120928,18.6215557 21.6712383,15.7258699 21.6712383,14.920613 L21.6712383,14.9111189 C21.6712383,14.2497621 21.8094389,13.673107 22.050301,13.1899652 L22.1653858,12.9729672 C22.1525299,12.9751391 22.1396122,12.9814684 22.1268182,12.9943133 L15.5881261,19.5041923 C15.575332,19.5147412 15.5673589,19.5284549 15.5636505,19.5424788 C15.6989464,19.4752758 15.8838114,19.3834379 15.9099558,19.3719581 C16.4793842,19.1140054 17.169831,18.9725874 17.996315,18.9725874 Z" id="Combined-Shape"></path>
                    <path d="M37.3447683,29.0283396 C36.860201,29.0113372 36.3941139,29.0420533 35.9594866,29.1121727 C36.0818028,28.1203856 36.489544,26.9034095 37.9339751,26.9543547 C39.5329239,27.0095816 39.7569745,28.5268303 39.7627225,29.5545459 C39.0884693,29.252784 38.2538267,29.0604209 37.3447683,29.0283396 L37.3447683,29.0283396 Z" id="Clip-2"></path>
                </g>
            </g>
        </g>
    </g>
</svg>