<?xml version="1.0" encoding="UTF-8"?>
<svg width="60px" height="61px" viewBox="0 0 60 61" version="1.1" xmlns="http://www.w3.org/2000/svg" xmlns:xlink="http://www.w3.org/1999/xlink">
    <!-- Generator: Sketch 44.1 (41455) - http://www.bohemiancoding.com/sketch -->
    <title>Pinterest_White</title>
    <desc>Created with Sketch.</desc>
    <defs></defs>
    <g id="Page-1" stroke="none" stroke-width="1" fill="none" fill-rule="evenodd" opacity="0.5">
        <g id="Social_icons" transform="translate(-560.000000, -641.000000)" fill="#FFFFFF">
            <g id="White" transform="translate(60.000000, 560.000000)">
                <g id="Pinterest" transform="translate(500.000000, 81.000000)">
                    <path d="M29.9507168,60.3431263 C13.4069574,60.3431263 0.00064160401,46.9199158 0.00064160401,30.3664421 C0.00064160401,13.8129684 13.4069574,0.392968421 29.9507168,0.392968421 C46.4912682,0.392968421 59.900792,13.8129684 59.900792,30.3664421 C59.900792,46.9199158 46.4912682,60.3431263 29.9507168,60.3431263 Z M2.77172932,30.3667632 C2.77172932,41.8732895 9.92561404,51.7039211 20.0212531,55.6625 C19.7838596,53.5146579 19.5721303,50.2174474 20.1174937,47.8673421 C20.6083208,45.7483947 23.2998496,34.3670789 23.2998496,34.3670789 C23.2998496,34.3670789 22.4882206,32.7393421 22.4882206,30.3346579 C22.4882206,26.5558684 24.6728822,23.7370263 27.3996992,23.7370263 C29.7126817,23.7370263 30.8322807,25.4771316 30.8322807,27.5639737 C30.8322807,29.8948158 29.3501754,33.3782368 28.5834586,36.6080263 C27.9450627,39.3145 29.9404511,41.5169211 32.6031078,41.5169211 C37.4279699,41.5169211 41.1364411,36.4250263 41.1364411,29.0761316 C41.1364411,22.5716053 36.4687719,18.0255 29.7992982,18.0255 C22.077594,18.0255 17.5446617,23.8237105 17.5446617,29.8145526 C17.5446617,32.1486053 18.4396992,34.6528158 19.5625063,36.0140789 C19.7838596,36.2837632 19.8159398,36.5181316 19.7517794,36.7942368 C19.5464662,37.6514474 19.0877193,39.4975 18.9978947,39.8731316 C18.879198,40.3707632 18.6033083,40.4767105 18.086817,40.2391316 C14.6991479,38.6595526 12.5818546,33.6960789 12.5818546,29.7150263 C12.5818546,21.1461316 18.8022055,13.2739211 30.5146867,13.2739211 C39.9302256,13.2739211 47.2477193,19.9903421 47.2477193,28.9637632 C47.2477193,38.3256579 41.3481704,45.8607632 33.1645113,45.8607632 C30.4120301,45.8607632 27.8263659,44.4288684 26.9409524,42.7401316 C26.9409524,42.7401316 25.5807519,47.9251316 25.2503258,49.1965 C24.637594,51.5562368 22.9822556,54.5131316 21.8786967,56.3174474 C24.4162406,57.1072368 27.1141855,57.5310263 29.914787,57.5310263 C44.9058647,57.5310263 57.0578446,45.3695526 57.0578446,30.3667632 C57.0578446,15.3607632 44.9058647,3.2025 29.914787,3.2025 C14.9237093,3.2025 2.77172932,15.3607632 2.77172932,30.3667632 Z" id="Combined-Shape"></path>
                </g>
            </g>
        </g>
    </g>
</svg>