<?xml version="1.0" encoding="UTF-8"?>
<svg width="61px" height="60px" viewBox="0 0 61 60" version="1.1" xmlns="http://www.w3.org/2000/svg" xmlns:xlink="http://www.w3.org/1999/xlink">
    <!-- Generator: Sketch 44.1 (41455) - http://www.bohemiancoding.com/sketch -->
    <title>Slack_White</title>
    <desc>Created with Sketch.</desc>
    <defs></defs>
    <g id="Page-1" stroke="none" stroke-width="1" fill="none" fill-rule="evenodd" opacity="0.5">
        <g id="Social_icons" transform="translate(-260.000000, -641.000000)" fill="#FFFFFF">
            <g id="White" transform="translate(60.000000, 560.000000)">
                <g id="Slack" transform="translate(200.000000, 81.000000)">
                    <path d="M37.4395076,24.2710714 C39.1867334,23.7033745 40.3105574,23.3382295 40.3105574,23.3382295 C41.8072131,22.8519344 42.6263606,21.2443279 42.1400656,19.7474098 C41.6537705,18.2507541 40.0461639,17.4316066 38.5492459,17.9179016 L35.6783815,18.8510189 C35.110628,17.1036984 34.7454426,15.9798033 34.7454426,15.9798033 C34.2591475,14.4828852 32.651541,13.6637377 31.1548853,14.1502951 C29.6579673,14.6365902 28.8388196,16.2441967 29.325377,17.7408525 L30.2587372,20.6125664 L24.2615406,22.5618357 C23.6935945,20.8138426 23.3282623,19.6894426 23.3282623,19.6894426 C22.8417049,18.1927869 21.2340984,17.3736393 19.7374426,17.8599344 C18.2405246,18.3462295 17.4213771,19.9538361 17.9079344,21.4507541 L18.8416211,24.3234725 L15.8785574,25.2865574 C14.4802623,25.7922623 13.6944262,27.3028196 14.112,28.7527869 C14.5471475,30.2651804 16.1534426,31.1871475 17.639082,30.7045246 C17.6518035,30.7003827 18.8125087,30.3232479 20.6026135,29.7416144 L22.5524078,35.7406275 L19.588459,36.704 C18.1901639,37.2097049 17.4043279,38.7202622 17.8216394,40.1702295 C18.2570492,41.682623 19.8633443,42.6045901 21.3487213,42.1219672 C21.3615045,42.1178245 22.5226832,41.7405464 24.3133854,41.1587237 L25.2763279,44.1214426 C25.7822951,45.5197377 27.2928525,46.3055737 28.7428196,45.888 C30.2552131,45.4528525 31.1771804,43.8465574 30.6945574,42.360918 C30.6904161,42.3481983 30.3133911,41.1878312 29.7319027,39.3981729 C31.69079,38.7616965 33.7761166,38.0841409 35.7308909,37.4490034 L36.6937705,40.411541 C37.1997378,41.8098361 38.7102951,42.5956721 40.1602623,42.1783606 C41.6726558,41.7429509 42.594623,40.1366557 42.112,38.6512787 C42.1078587,38.6385 41.7308259,37.4781172 41.1493241,35.6884663 C42.8964487,35.1207967 44.0201968,34.7556721 44.0201968,34.7556721 C45.5171148,34.269377 46.336,32.6617705 45.8497049,31.1648525 C45.3634099,29.6681967 43.7558033,28.8490491 42.2591475,29.3353442 L39.3882291,30.2684791 C38.7519107,28.3101356 38.0745248,26.2254055 37.4395076,24.2710714 Z M32.0201218,26.0319025 L33.9695239,32.0297213 L27.9712444,33.9793426 C27.3348351,32.0206431 26.6573274,29.9354507 26.0222052,27.9807087 C27.9807328,27.3443553 30.0656548,26.6669354 32.0201218,26.0319025 Z M0,30 C0,13.4314567 13.4508663,0 30.0433526,0 C46.6358389,0 60.0867052,13.4314567 60.0867052,30 C60.0867052,46.5685433 46.6358389,60 30.0433526,60 C13.4508663,60 0,46.5685433 0,30 Z" id="Combined-Shape"></path>
                </g>
            </g>
        </g>
    </g>
</svg>