<?xml version="1.0" encoding="UTF-8"?>
<svg width="60px" height="60px" viewBox="0 0 60 60" version="1.1" xmlns="http://www.w3.org/2000/svg" xmlns:xlink="http://www.w3.org/1999/xlink">
    <!-- Generator: Sketch 44.1 (41455) - http://www.bohemiancoding.com/sketch -->
    <title>Telegram_White</title>
    <desc>Created with Sketch.</desc>
    <defs></defs>
    <g id="Page-1" stroke="none" stroke-width="1" fill="none" fill-rule="evenodd" opacity="0.5">
        <g id="Social_icons" transform="translate(-360.000000, -811.000000)" fill="#FFFFFF">
            <g id="White" transform="translate(60.000000, 560.000000)">
                <g id="Telegram" transform="translate(300.000000, 251.000000)">
                    <path d="M25.0104288,36.1028168 L24.5,43.75 C25.25,43.75 25.581375,43.407 26,43 L29.6033883,39.4961553 L37.1,45.03475 C38.479625,45.795975 39.47535,45.40185 39.819,43.753875 L44.74025,20.563125 C45.2441,18.543075 43.970225,17.626875 42.6504,18.226075 L13.7529,29.368825 C11.780375,30.16 11.791875,31.260475 13.39335,31.750825 L20.8091,34.0654 L37.97735,23.23415 C38.787825,22.742675 39.531675,23.0069025 38.92115,23.54875 L25.01,36.1025 Z M30,60 C13.4314575,60 0,46.5685425 0,30 C0,13.4314575 13.4314575,0 30,0 C46.5685425,0 60,13.4314575 60,30 C60,46.5685425 46.5685425,60 30,60 Z" id="Combined-Shape"></path>
                </g>
            </g>
        </g>
    </g>
</svg>