<?xml version="1.0" encoding="UTF-8"?>
<svg width="60px" height="60px" viewBox="0 0 60 60" version="1.1" xmlns="http://www.w3.org/2000/svg" xmlns:xlink="http://www.w3.org/1999/xlink">
    <!-- Generator: Sketch 44.1 (41455) - http://www.bohemiancoding.com/sketch -->
    <title>Trello_White</title>
    <desc>Created with Sketch.</desc>
    <defs></defs>
    <g id="Page-1" stroke="none" stroke-width="1" fill="none" fill-rule="evenodd" opacity="0.5">
        <g id="Social_icons" transform="translate(-360.000000, -893.000000)" fill="#FFFFFF">
            <g id="White" transform="translate(60.000000, 560.000000)">
                <g id="Trello" transform="translate(300.000000, 333.000000)">
                    <path d="M30,60 C13.4314575,60 0,46.5685425 0,30 C0,13.4314575 13.4314575,0 30,0 C46.5685425,0 60,13.4314575 60,30 C60,46.5685425 46.5685425,60 30,60 Z M12,18.0053227 L12,41.9946773 C12,45.3235601 14.6886745,48 18.0053227,48 L41.9946773,48 C45.3235601,48 48,45.3113255 48,41.9946773 L48,18.0053227 C48,14.6764399 45.3113255,12 41.9946773,12 L18.0053227,12 C14.6764399,12 12,14.6886745 12,18.0053227 Z" id="Combined-Shape"></path>
                    <path d="M16.68,18.8384959 C16.68,17.6463915 17.6471806,16.68 18.8394665,16.68 L25.5005335,16.68 C26.6931739,16.68 27.66,17.6464279 27.66,18.8384959 L27.66,39.2715041 C27.66,40.4636085 26.6928194,41.43 25.5005335,41.43 L18.8394665,41.43 C17.6468261,41.43 16.68,40.4635721 16.68,39.2715041 L16.68,18.8384959 L16.68,18.8384959 Z" id="Combined-Shape"></path>
                    <path d="M32.34,18.8410636 C32.34,17.6475411 33.3071806,16.68 34.4994665,16.68 L41.1605335,16.68 C42.3531739,16.68 43.32,17.6474277 43.32,18.8410636 L43.32,30.2689364 C43.32,31.4624589 42.3528194,32.43 41.1605335,32.43 L34.4994665,32.43 C33.3068261,32.43 32.34,31.4625723 32.34,30.2689364 L32.34,18.8410636 L32.34,18.8410636 Z" id="Combined-Shape"></path>
                </g>
            </g>
        </g>
    </g>
</svg>