<?xml version="1.0" encoding="UTF-8"?>
<svg width="60px" height="60px" viewBox="0 0 60 60" version="1.1" xmlns="http://www.w3.org/2000/svg" xmlns:xlink="http://www.w3.org/1999/xlink">
    <!-- Generator: Sketch 44.1 (41455) - http://www.bohemiancoding.com/sketch -->
    <title>Tumblr_White</title>
    <desc>Created with Sketch.</desc>
    <defs></defs>
    <g id="Page-1" stroke="none" stroke-width="1" fill="none" fill-rule="evenodd" opacity="0.5">
        <g id="Social_icons" transform="translate(-160.000000, -641.000000)" fill="#FFFFFF">
            <g id="White" transform="translate(60.000000, 560.000000)">
                <g id="Tumblr" transform="translate(100.000000, 81.000000)">
                    <path d="M0,30 C0,13.4314567 13.4314567,0 30,0 C46.5685433,0 60,13.4314567 60,30 C60,46.5685433 46.5685433,60 30,60 C13.4314567,60 0,46.5685433 0,30 Z M32.7865715,46.5192579 C36.2050315,46.5192579 39.592208,45.2942388 40.7126411,43.8100781 L40.9370847,43.512633 L38.8181507,37.1909491 C38.7985198,37.132464 38.7440361,37.093104 38.6827287,37.093104 L33.9488384,37.093104 C33.8847492,37.093104 33.8268012,37.0520006 33.8105296,36.9896058 C33.755416,36.7788055 33.7224528,36.5210375 33.7173613,36.2025653 L33.7173613,28.4707912 C33.7173613,28.3913317 33.7813456,28.3269293 33.8602893,28.3269293 L39.4298591,28.3269293 C39.5088028,28.3269293 39.572787,28.2625269 39.572787,28.1830673 L39.572787,20.2733018 C39.572787,20.1938423 39.5088028,20.1294399 39.4298591,20.1294399 L33.8841718,20.1294399 C33.8052806,20.1294399 33.7412439,20.0650375 33.7412439,19.9856308 L33.7412439,12.2759406 C33.7412439,12.196481 33.6773121,12.1320786 33.5983685,12.1320786 L23.8727612,12.1320786 C23.1772801,12.1320786 22.3747212,12.6512602 22.2573555,13.6136506 C21.7717785,17.5933909 19.9584363,19.9809287 16.5507365,21.1272279 L16.1705052,21.254976 C16.1121373,21.2745767 16.0728229,21.3295222 16.0728229,21.3914415 L16.0728229,28.1830673 C16.0728229,28.2625269 16.1368072,28.3269293 16.2157509,28.3269293 L19.6960956,28.3269293 L19.6960956,36.6918438 C19.6960956,43.3694051 24.2910996,46.5192579 32.7865715,46.5192579 Z" id="Combined-Shape"></path>
                    <path d="M39.3005259,43.2918475 C38.2337367,44.3242405 36.0443098,45.0912049 33.945899,45.1269194 C33.8666404,45.1282931 33.788904,45.1289799 33.7108527,45.1289799 L33.7101703,45.1289799 C26.8081112,45.1286101 24.9666348,39.8254772 24.9666348,36.6918438 L24.9666348,27.0624446 C24.9666348,26.9830379 24.9026506,26.9186355 24.8237069,26.9186355 L21.4862376,26.9186355 C21.4073464,26.9186355 21.3433097,26.8542331 21.3433097,26.7747735 L21.3433097,22.3881728 C21.3433097,22.3295291 21.3797896,22.2772253 21.4341159,22.255934 C25.0012252,20.8582594 26.9932929,18.0810845 27.517292,13.7855665 C27.5464759,13.5469236 27.7420505,13.5403725 27.7440975,13.5403725 L32.199218,13.5403725 C32.2781092,13.5403725 32.3420935,13.6047748 32.3420935,13.6842344 L32.3420935,21.3939246 C32.3420935,21.4733313 32.4060777,21.5377337 32.4850214,21.5377337 L38.0307087,21.5377337 C38.1096523,21.5377337 38.1736366,21.6021889 38.1736366,21.6815956 L38.1736366,26.7747735 C38.1736366,26.8542331 38.1096523,26.9186355 38.0307087,26.9186355 L32.4611388,26.9186355 C32.3821952,26.9186355 32.3182109,26.9830379 32.3182109,27.0624974 L32.3183684,36.2139242 C32.3511741,38.2744837 33.341959,39.3190282 35.2632189,39.3190282 C36.0373812,39.3190282 36.9240802,39.1377611 37.7336202,38.8264741 C37.8093095,38.7974164 37.8928197,38.8361423 37.9186969,38.9133829 L39.3354312,43.1405362 C39.35333,43.1938438 39.3407851,43.2528574 39.3005259,43.2918475" id="Fill-4"></path>
                    <path d="M23.5674319,30.5775789 L19.6960956,30.5775789 L19.6960956,28.3269293 L23.4413005,28.3269293 C23.5109536,28.3269293 23.5674319,28.3837767 23.5674319,28.453885 L23.5674319,30.5775789" id="Fill-5"></path>
                </g>
            </g>
        </g>
    </g>
</svg>