<?xml version="1.0" encoding="UTF-8"?>
<svg width="60px" height="60px" viewBox="0 0 60 60" version="1.1" xmlns="http://www.w3.org/2000/svg" xmlns:xlink="http://www.w3.org/1999/xlink">
    <!-- Generator: Sketch 44.1 (41455) - http://www.bohemiancoding.com/sketch -->
    <title>Viber_White</title>
    <desc>Created with Sketch.</desc>
    <defs></defs>
    <g id="Page-1" stroke="none" stroke-width="1" fill="none" fill-rule="evenodd" opacity="0.5">
        <g id="Social_icons" transform="translate(-260.000000, -893.000000)" fill="#FFFFFF">
            <g id="White" transform="translate(60.000000, 560.000000)">
                <g id="Viber" transform="translate(200.000000, 333.000000)">
                    <path d="M30,60 C46.5685425,60 60,46.5685425 60,30 C60,13.4314575 46.5685425,0 30,0 C13.4314575,0 0,13.4314575 0,30 C0,46.5685425 13.4314575,60 30,60 Z M31.7967264,47.7798545 C33.8366106,47.5252658 35.4850769,47.0338527 37.2937301,46.151647 C39.0726214,45.2812402 40.2111276,44.4582597 41.7173301,42.9603128 C43.128646,41.5452219 43.9114048,40.4735083 44.7415409,38.8097832 C45.8978933,36.4887789 46.5561135,33.7296873 46.6687143,30.6922994 C46.7102931,29.6561913 46.6806411,29.4252115 46.4433918,29.1292167 C45.9927578,28.5548156 45.0024128,28.6496574 44.6644896,29.2949729 C44.5576872,29.5081445 44.5280352,29.6916101 44.4924637,30.5205888 C44.4331487,31.7935762 44.3442916,32.6165567 44.1663573,33.5994488 C43.4666573,37.4538737 41.6165241,40.5327336 38.6634452,42.7412417 C36.2025902,44.5885093 33.6586654,45.4885233 30.3261834,45.6838867 C29.199494,45.7490115 29.0038236,45.7904176 28.74886,45.9858359 C28.2743724,46.3588642 28.2507388,47.2351156 28.7072812,47.6436506 C28.9859993,47.8982942 29.1816588,47.9338008 30.1482602,47.9041936 C30.6523008,47.8864403 31.3934807,47.827226 31.7967264,47.7798545 L31.7967264,47.7798545 Z M18.2411681,47.1403836 C18.4487543,47.0693594 18.7689523,46.9036032 18.952795,46.7851635 C20.0793854,46.0391068 23.2163069,42.0307465 24.2422124,40.0294557 C24.8292017,38.8867618 25.0248612,38.0400737 24.8411286,37.4124566 C24.6512675,36.7374791 24.3370879,36.3822041 22.9316804,35.2513091 C22.3683356,34.7954575 21.8405514,34.3276972 21.7576027,34.2033471 C21.544108,33.8954435 21.3720822,33.2915342 21.3720822,32.8652349 C21.3781006,31.8764434 22.0184856,30.0824247 22.8605485,28.7028515 C23.5127503,27.6311818 24.6809195,26.2576179 25.837272,25.2036466 C27.1951923,23.9602115 28.3930136,23.1136332 29.7450255,22.4445002 C31.4824479,21.5801027 32.5439248,21.3610316 33.3207642,21.7221512 C33.5164236,21.8109837 33.7239109,21.9294233 33.7892334,21.9826393 C33.8484384,22.0359652 34.3050908,22.592558 34.803212,23.2082553 C35.763795,24.4161728 35.9831981,24.6115362 36.6414183,24.8365177 C37.4775728,25.1207136 38.3314524,25.0437899 39.1912405,24.6056368 C39.8435523,24.268115 41.2666961,23.3859203 42.1857993,22.7464933 C43.3954374,21.8998052 45.980842,19.7919725 46.3308021,19.3715287 C46.9474434,18.6136731 47.0542458,17.6427447 46.6390732,16.5709652 C46.2002561,15.4401801 44.4924858,13.3204496 43.3005729,12.4145361 C42.2213707,11.5974552 41.4564582,11.283751 40.4483769,11.2363356 C39.6182409,11.1949185 39.2742992,11.2659428 38.2128223,11.7040959 C29.8873773,15.1322765 23.2400395,20.247824 17.9624389,27.2759507 C15.2051295,30.9468661 13.1059302,34.7539636 11.6708596,38.7031754 C10.8348152,41.0063605 10.7933354,42.0070059 11.4811086,43.1852503 C11.777662,43.6825739 13.0407068,44.9141442 13.9598099,45.6009317 C15.489756,46.7377701 16.1953645,47.1581699 16.7587092,47.2765546 C17.1441307,47.3594657 17.8141677,47.2943409 18.2411681,47.1403836 L18.2411681,47.1403836 Z M32.2058916,43.4872325 C35.8053739,42.9603128 38.5923354,41.2905893 40.4187249,38.5788582 C41.4446304,37.0512821 42.0850153,35.2572635 42.3044294,33.3330062 C42.3814697,32.6284105 42.3814697,31.3435692 42.298521,31.1303976 C42.2213707,30.9291348 41.9723156,30.6567379 41.7588099,30.5442965 C41.527579,30.4258569 41.0354762,30.4376558 40.7626665,30.5798032 C40.3060141,30.8106842 40.1696697,31.177813 40.1696697,32.1725041 C40.1696697,33.7059796 39.7723324,35.3223882 39.0845592,36.5776224 C38.3018004,38.0104665 37.1633052,39.1946214 35.7757329,40.0176568 C34.58382,40.7281519 32.8226539,41.2550827 31.2156675,41.3853212 C30.6344876,41.4327367 30.3142896,41.5511324 30.0948865,41.8057211 C29.7569633,42.1906033 29.7212928,42.7116345 30.0059194,43.1438223 C30.3142786,43.6234255 30.7886562,43.7004041 32.2058916,43.4872325 L32.2058916,43.4872325 Z M33.4689363,39.0170114 C34.6371056,38.7683222 35.5325751,38.3242695 36.2974877,37.607831 C37.2818143,36.6783197 37.8215144,35.5533242 38.0586427,33.9369156 C38.2187417,32.8829992 38.1535182,32.4685648 37.7799245,32.1251436 C37.4300855,31.8054301 36.7837921,31.7935762 36.3923632,32.0955364 C36.1077367,32.308708 36.0187695,32.5336896 35.9535461,33.1434984 C35.8765058,33.9546799 35.734143,34.5230716 35.4910953,35.0500572 C34.9692194,36.1690874 34.0501163,36.7493439 32.4965365,36.9388078 C31.7670744,37.0276403 31.5476713,37.1105184 31.3105321,37.3887599 C30.8776233,37.9038917 31.0436307,38.738726 31.6425469,39.0466295 C31.8679684,39.1591148 31.9628439,39.1709687 32.4608661,39.1413615 C32.7692363,39.1235972 33.2258887,39.0703263 33.4689363,39.0170114 L33.4689363,39.0170114 Z" transform="translate(30.000000, 30.000000) scale(1, -1) translate(-30.000000, -30.000000) "></path>
                </g>
            </g>
        </g>
    </g>
</svg>