<svg xmlns="http://www.w3.org/2000/svg" width="24" height="24" viewBox="0 0 24 24"><g><path d="M19 18h2v1h-2zM20.5 14h-3.5v-1h-1v-2h.5c1.379 0 2.5-1.121 2.5-2.5v-5.5h-13v5.5c0 1.379 1.121 2.5 2.5 2.5h.5v2h-1v1h-4.5c-1.93 0-3.5 1.57-3.5 3.5v2c0 1.93 1.57 3.5 3.5 3.5h4.5v1h9v-1h3.5c1.93 0 3.5-1.57 3.5-3.5v-2c0-1.93-1.57-3.5-3.5-3.5zm-4.5-9h1v4h-1v-4zm-11.5 16c-1.379 0-2.5-1.121-2.5-2.5 0-1.378 1.121-2.5 2.5-2.5s2.5 1.122 2.5 2.5c0 1.379-1.121 2.5-2.5 2.5zm7.5-16h1v4h-1v-4zm-2 0h1v4h-1v-4zm-1 4h-1v-4h1v4zm5.658 11.475l-.158.025c-.209 0-.404-.132-.475-.341l-.885-2.659h-1.28l-.886 2.659c-.088.261-.369.404-.633.316-.262-.087-.403-.37-.316-.633l1-3c.068-.204.26-.342.475-.342h2c.215 0 .406.138.475.342l1 3c.087.262-.055.546-.317.633zm.342-7.475h-5v-2h5v2zm0-4h-1v-4h1v4zm7 11h-4v-3h4v3z"/><circle cx="4.5" cy="18.5" r="1.5"/></g></svg>