<svg xmlns="http://www.w3.org/2000/svg" width="24" height="24" viewBox="0 0 24 24"><g><path d="M6.499 20h-1v3.5c0 .276.224.5.5.5h11c.276 0 .5-.224.5-.5v-3.5h-11zM17.001 2.561c-.465 0-.928.082-1.362.24-.698-1.638-2.326-2.74-4.138-2.74-1.811 0-3.439 1.102-4.139 2.74-.435-.158-.896-.24-1.361-.24-2.206 0-4.001 1.794-4.001 4 0 2.074 1.501 3.732 3.499 3.971v8.468h3v-3.5c0-.276.224-.5.5-.5s.5.224.5.5v3.5h1.5v-4.5c0-.276.224-.5.5-.5s.5.224.5.5v4.5h1.5v-3.5c0-.276.224-.5.5-.5s.5.224.5.5v3.5h3v-8.469c1.999-.238 3.501-1.896 3.501-3.97 0-2.206-1.794-4-3.999-4z"/></g></svg>