<svg xmlns="http://www.w3.org/2000/svg" width="24" height="24" viewBox="0 0 24 24"><g><path d="M18.5 12h-.5v-.5c0-.276-.224-.5-.5-.5h-13c-.275 0-.5.224-.5.5v10c0 1.378 1.122 2.5 2.5 2.5h9c1.379 0 2.5-1.122 2.5-2.5v-2.5h.5c1.931 0 3.5-1.569 3.5-3.5 0-1.93-1.569-3.5-3.5-3.5zm0 6h-.5v-5h.5c1.379 0 2.5 1.122 2.5 2.5s-1.121 2.5-2.5 2.5zM14.5 10h2c.19 0 .365-.108.449-.28l1.523-3.104c1.007-.144 1.764-1.041 1.918-2.335.195-1.64-.626-3.654-2.892-4.202-.201-.048-.408.031-.526.197-.118.168-.121.39-.009.563.527.806.209 1.282-.354 1.993-.215.271-.419.529-.541.82-.235.555-.247 1.141-.035 1.646.093.222.234.421.404.599l-1.976 2.79-.125.179-.245.346c-.107.153-.122.353-.035.518.087.165.257.27.444.27zm2.489-5.96c.07-.167.232-.371.404-.586.38-.48.896-1.133.839-1.982.938.64 1.277 1.748 1.165 2.69-.082.684-.447 1.482-1.208 1.482h-.001l-.853-.283c-.175-.122-.307-.273-.381-.45-.107-.26-.097-.56.035-.871zM3.758 4.072c-.167-.101-.377-.095-.539.014-.161.111-.244.304-.212.496l.466 2.792 2.422-2.021-2.137-1.281zM5.5 10h3.011c.267 0 .48-.211.494-.475.014.264.227.475.495.475h4c.276 0 .5-.223.5-.5v-.5h-1.25c-.275 0-.5-.223-.5-.5 0-.276.225-.5.5-.5h1.25v-1h-2.5c-.275 0-.5-.223-.5-.5 0-.276.225-.5.5-.5h2.5v-1h-1.25c-.275 0-.5-.223-.5-.5 0-.276.225-.5.5-.5h1.25v-1h-2.5c-.275 0-.5-.223-.5-.5 0-.276.225-.5.5-.5h2.5v-1.5c0-.276-.224-.5-.5-.5h-4c-.275 0-.5.224-.5.5v8.952c-.012-.12-.06-.231-.143-.311l-2.217-3.106-2.685 2.237 1.146 1.528c.093.126.242.2.399.2z"/></g></svg>