<svg xmlns="http://www.w3.org/2000/svg" width="24" height="24" viewBox="0 0 24 24"><path d="M22 4h-20c-1.103 0-2 .898-2 2v12c0 1.103.897 2 2 2h20c1.103 0 2-.897 2-2v-12c0-1.102-.897-2-2-2zm-14.752 10.434l-3.5 2.001c-.078.044-.164.065-.248.065-.174 0-.342-.09-.435-.252-.137-.239-.054-.545.186-.682l3.5-2c.24-.137.545-.055.682.186.138.24.055.545-.185.682zm4.752.066c-.094 0-.189-.026-.271-.08l-8.5-5.5c-.232-.15-.299-.459-.148-.691.149-.231.459-.298.691-.147l8.228 5.322 8.229-5.322c.232-.151.542-.084.691.146.15.232.083.541-.148.691l-8.5 5.5c-.083.055-.177.081-.272.081zm8.934 1.748c-.092.162-.261.252-.434.252-.084 0-.169-.021-.248-.065l-3.5-2.001c-.24-.137-.323-.441-.186-.682s.443-.322.682-.186l3.5 2c.24.137.323.443.186.682z"/></svg>