<svg xmlns="http://www.w3.org/2000/svg" width="24" height="24" viewBox="0 0 24 24"><path d="M23 13c.552 0 1-.447 1-1 0-.552-.448-1-1-1h-5v-3h5c.552 0 1-.447 1-1 0-.552-.448-1-1-1h-5v-5c0-.552-.448-1-1-1s-1 .448-1 1v5h-3v-5c0-.552-.448-1-1-1s-1 .448-1 1v5h-3v-5c0-.552-.448-1-1-1s-1 .448-1 1v5h-5c-.552 0-1 .448-1 1 0 .553.448 1 1 1h5v3h-5c-.552 0-1 .448-1 1 0 .553.448 1 1 1h5v3h-5c-.552 0-1 .448-1 1 0 .553.448 1 1 1h5v5c0 .553.448 1 1 1s1-.447 1-1v-5h3v5c0 .553.448 1 1 1s1-.447 1-1v-5h3v5c0 .553.448 1 1 1s1-.447 1-1v-5h5c.552 0 1-.447 1-1 0-.552-.448-1-1-1h-5v-3h5zm-12 3h-3v-3h3v3zm0-5h-3v-3h3v3zm5 5h-3v-3h3v3zm0-5h-3v-3h3v3z"/></svg>