<svg xmlns="http://www.w3.org/2000/svg" width="24" height="24" viewBox="0 0 24 24"><g><path d="M20.147 7.354c.096.095.224.146.353.146.276 0 .5-.224.5-.5v-4.5c0-.276-.223-.5-.5-.5h-4.5c-.202 0-.385.121-.462.31-.078.186-.035.4.108.544l4.501 4.5zM3 12.621v11.379h7v-7h4v7h7v-11.379l-9-9zM23.864 12.662l-.01-.016-11.5-11.5c-.191-.191-.516-.191-.707 0l-11.5 11.5c-.18.181-.207.479-.011.691.227.227.532.193.711.02l.007-.004 11.146-11.146 11.146 11.146.006.004c.19.185.505.185.694 0l.007-.004c.183-.181.207-.484.011-.691z"/></g></svg>