<svg xmlns="http://www.w3.org/2000/svg" width="24" height="24" viewBox="0 0 24 24"><g><path d="M16.157 2.026c.48-.481 1.063-.823 1.699-1.008-.968-.673-1.945-1.018-2.917-1.018-1.116 0-2.162.456-3.023 1.318l-10.608 10.608c-1.371 1.37-1.952 3.733-.304 5.959.181-.63.518-1.223 1.012-1.718l14.141-14.141zM22.825 5.97c-.181.627-.518 1.22-1.01 1.714l-14.143 14.141c-.487.487-1.079.831-1.724 1.016.867.66 1.833 1.01 2.835 1.01 1.169 0 2.282-.466 3.133-1.317l10.606-10.607c1.407-1.408 1.957-3.721.303-5.957zM21.107 6.976c1.169-1.17 1.169-3.072 0-4.242-.566-.567-1.32-.879-2.121-.879-.801 0-1.556.312-2.122.879l-14.141 14.141c-1.17 1.171-1.17 3.074 0 4.244.567.566 1.321.879 2.121.879.801 0 1.555-.312 2.121-.879l14.142-14.143zm-15.909 11.668c-.095-.095-.22-.147-.354-.147-.133 0-.258.053-.354.146-.095.095-.146.22-.146.354 0 .133.052.259.146.354.195.195.195.512 0 .707-.098.097-.225.146-.353.146-.129 0-.256-.05-.354-.147-.283-.283-.438-.661-.438-1.061 0-.4.156-.778.439-1.061.282-.283.66-.439 1.061-.439h.001c.402 0 .778.157 1.061.441.193.193.512.193.707-.002.193-.194.193-.513-.001-.709-.282-.28-.439-.656-.439-1.058s.156-.778.44-1.062c.583-.584 1.536-.584 2.12 0 .191.192.519.19.708.001.096-.095.147-.22.147-.354 0-.133-.051-.259-.146-.352-.584-.588-.584-1.539 0-2.123.282-.283.658-.439 1.059-.44h-.002c.402 0 .778.157 1.062.44.19.188.518.188.708 0 .095-.096.146-.221.146-.354 0-.133-.051-.259-.146-.353-.585-.586-.584-1.537 0-2.121.584-.584 1.536-.584 2.121 0 .095.094.22.146.354.146.134 0 .259-.052.353-.146.196-.195.196-.514 0-.709-.583-.584-.583-1.535 0-2.119.565-.568 1.554-.569 2.122-.001.195.196.513.194.707 0 .096-.094.148-.22.148-.353-.001-.134-.053-.259-.148-.352-.584-.588-.584-1.54 0-2.124.585-.585 1.537-.582 2.123.002.194.196.194.511 0 .706-.195.195-.512.195-.708 0-.195-.195-.513-.194-.708 0-.195.194-.194.512.001.708.282.282.439.658.44 1.058 0 .401-.157.779-.44 1.062-.584.585-1.536.585-2.121 0-.189-.188-.519-.188-.707 0-.194.195-.194.513 0 .706.584.587.583 1.539 0 2.123-.282.283-.659.439-1.06.439h-.001c-.401 0-.778-.156-1.062-.439-.195-.195-.512-.195-.707 0-.195.195-.195.512 0 .707.283.281.438.658.439 1.059 0 .401-.156.779-.439 1.062-.585.585-1.536.585-2.121 0-.095-.095-.221-.147-.355-.147-.132 0-.259.053-.352.147-.196.195-.196.512 0 .708.283.281.439.659.439 1.06s-.156.778-.44 1.061c-.565.566-1.555.567-2.121 0-.194-.194-.512-.194-.707 0-.096.095-.147.221-.147.354s.051.258.146.353c.583.586.583 1.537.001 2.121-.587.585-1.539.585-2.122.002z"/></g></svg>