<svg xmlns="http://www.w3.org/2000/svg" width="24" height="24" viewBox="0 0 24 24"><g><path d="M9.181 10.783c.756-.757 2.073-.757 2.828 0l.707.706c.391.392 1.023.392 1.414 0 .391-.39.391-1.023 0-1.414l-.706-.706c-.756-.757-1.761-1.173-2.829-1.173s-2.073.416-2.828 1.171l-4.597 4.598c-1.56 1.559-1.56 4.097 0 5.656l.707.706c.756.757 1.76 1.173 2.829 1.173 1.068 0 2.072-.418 2.827-1.172l2.173-2.172c.391-.391.391-1.023 0-1.413-.391-.392-1.023-.392-1.414 0l-2.173 2.171c-.755.756-2.071.756-2.828 0l-.707-.707c-.779-.78-.779-2.049 0-2.828l4.597-4.596zM15.545 14.318l4.596-4.598c.756-.755 1.172-1.759 1.172-2.827 0-1.069-.416-2.073-1.172-2.827l-.707-.709c-.756-.756-1.76-1.172-2.828-1.172s-2.073.416-2.828 1.172l-1.985 1.985c-.391.392-.391 1.024-.001 1.413.391.393 1.024.393 1.415.001l1.985-1.985c.378-.378.88-.586 1.414-.586s1.036.208 1.414.586l.707.708c.378.377.586.879.586 1.414 0 .534-.208 1.036-.586 1.413l-4.597 4.596c-.755.757-2.072.757-2.827.001-.391-.391-1.023-.391-1.414-.001-.391.392-.391 1.023-.001 1.414.756.756 1.76 1.173 2.828 1.173 1.069 0 2.073-.417 2.829-1.171z"/></g></svg>