<svg xmlns="http://www.w3.org/2000/svg" width="24" height="24" viewBox="0 0 24 24"><g><path d="M2.381 17.442c-.97.971-1.691 4.489-1.856 5.352l2.938-2.938c.195-.194.512-.194.707.001.195.196.195.513 0 .708l-2.938 2.935c.863-.164 4.382-.885 5.352-1.856.561-.561.87-1.308.87-2.1 0-.796-.31-1.54-.87-2.102s-1.307-.87-2.102-.87c-.793 0-1.539.309-2.101.87zM5.512 15.686l2.828 2.83c.094.093.221.146.354.146s.26-.053.354-.146l8.857-8.858-3.594-3.478-8.799 8.799c-.196.195-.196.511 0 .707zM18.611 8.951l5.242-5.244c.094-.092.147-.221.147-.353 0-.131-.053-.259-.146-.354l-2.828-2.828c-.195-.194-.512-.194-.707 0l-.391.39c-.404-.269-.88-.413-1.378-.413-.668 0-1.296.259-1.768.73l-5.657 5.658c-.195.195-.195.512 0 .706.197.196.511.196.707 0l5.658-5.657c.442-.442 1.142-.533 1.697-.283l-4.17 4.169 3.594 3.479z"/></g></svg>