<svg xmlns="http://www.w3.org/2000/svg" width="24" height="24" viewBox="0 0 24 24"><g><path d="M5 19h5v1h-5zM8 8.5h2v9.5h-2zM7.957 3.298c-.08-.182-.26-.298-.457-.298s-.377.116-.457.298l-1.867 4.202h4.648l-1.867-4.202zM5 21.5c0 1.378 1.121 2.5 2.5 2.5s2.5-1.122 2.5-2.5v-.5h-5v.5zM5 8.5h2v9.5h-2zM18.5 0h-6c-.275 0-.5.224-.5.5v2.5h2.5c.275 0 .5.224.5.5 0 .277-.225.5-.5.5h-2.5v3h2.5c.275 0 .5.224.5.5 0 .277-.225.5-.5.5h-2.5v3h2.5c.275 0 .5.224.5.5 0 .277-.225.5-.5.5h-2.5v3h2.5c.275 0 .5.224.5.5 0 .277-.225.5-.5.5h-2.5v3h2.5c.275 0 .5.224.5.5 0 .277-.225.5-.5.5h-2.5v3.5c0 .277.225.5.5.5h6c.275 0 .5-.223.5-.5v-23c0-.276-.225-.5-.5-.5z"/></g></svg>