<svg xmlns="http://www.w3.org/2000/svg" width="24" height="24" viewBox="0 0 24 24"><g><path d="M18.183 5l-5.199-4.381c-.188-.16-.465-.158-.651.003l-5.021 4.378h-7.312v19h24v-19h-5.817zm-5.516-3.341l3.964 3.341h-7.797l3.833-3.341zm10.333 21.341h-22v-17h22v17zM7.522 17.5h2.955c-.575-1.211-1.11-2.539-1.477-3.893-.367 1.354-.902 2.682-1.478 3.893zM8.5 10.213c0-.276.225-.5.5-.5s.5.224.5.5c0 4.759 3.947 10.633 4.758 11.787h1.742v-4c0-.276.225-.5.5-.5h1.5v-2.5c0-.276.225-.5.5-.5h3.5v-7.5h-20v15h1.742c.81-1.155 4.758-7.033 4.758-11.787zM7.029 18.5c-.779 1.504-1.564 2.743-2.072 3.5h8.086c-.508-.757-1.293-1.996-2.071-3.5h-3.943zM17 18.5h1v3.5h-1zM19 18v4h3v-6.5h-3z"/></g></svg>