<svg xmlns="http://www.w3.org/2000/svg" width="24" height="24" viewBox="0 0 24 24"><g><path d="M23.866 14.725l-2.42-4.186-.141-.189c-.168-.186-.397-.305-.65-.327-.326-.024-.644.104-.854.354l-3.213 3.832c-.355.423-.3 1.054.123 1.408.423.355 1.055.3 1.408-.123l1.456-1.735c-.553 2.833-2.817 5.341-5.802 6.041-2.528.594-5.143-.146-6.994-1.977-.393-.389-1.025-.386-1.414.008-.389.393-.385 1.025.008 1.414 1.812 1.79 4.199 2.755 6.669 2.755.727 0 1.461-.084 2.189-.255 3.605-.845 6.378-3.801 7.214-7.212l.689 1.192c.186.321.521.5.866.5.17 0 .343-.043.5-.135.479-.276.643-.887.366-1.365zM7.415 10.389c-.424-.354-1.054-.3-1.408.124l-1.723 2.055c.032-1.282.396-2.549 1.085-3.697 1.111-1.854 2.928-3.194 4.983-3.676 2.695-.633 5.508.267 7.342 2.345.365.414.996.454 1.411.089.414-.365.454-.997.089-1.411-2.322-2.633-5.885-3.772-9.299-2.969-2.579.603-4.854 2.277-6.242 4.593-.624 1.041-1.029 2.162-1.229 3.312l-.566-.944c-.285-.473-.899-.626-1.373-.342-.473.284-.627.898-.342 1.372l2.561 4.262c.166.277.456.457.778.482l.078.003c.294 0 .575-.13.767-.357l3.212-3.831c.355-.426.3-1.056-.124-1.41z"/></g></svg>