<svg xmlns="http://www.w3.org/2000/svg" width="24" height="24" viewBox="0 0 24 24"><path d="M22.5 0h-22c-.28 0-.5.22-.5.5v23c0 .281.22.5.5.5h22c.28 0 .5-.219.5-.5v-23c0-.28-.22-.5-.5-.5zm-17 21c-1.1 0-2-.9-2-2s.9-2 2-2 2 .9 2 2-.9 2-2 2zm2.5-10.5c0 .281-.22.5-.5.5h-1.5v3.5c0 .281-.22.5-.5.5s-.5-.219-.5-.5v-3.5h-1.5c-.28 0-.5-.219-.5-.5v-2c0-.28.22-.5.5-.5h1.5v-4.5c0-.28.22-.5.5-.5s.5.22.5.5v4.5h1.5c.28 0 .5.22.5.5v2zm3.5 10.5c-1.1 0-2-.9-2-2s.9-2 2-2 2 .9 2 2-.9 2-2 2zm2.5-13.5c0 .281-.22.5-.5.5h-1.5v6.5c0 .281-.22.5-.5.5s-.5-.219-.5-.5v-6.5h-1.5c-.28 0-.5-.219-.5-.5v-2c0-.28.22-.5.5-.5h1.5v-1.5c0-.28.22-.5.5-.5s.5.22.5.5v1.5h1.5c.28 0 .5.22.5.5v2zm3.54 13.5c-1.1 0-2-.9-2-2s.9-2 2-2 2 .9 2 2-.9 2-2 2zm2.46-8.5c0 .281-.22.5-.5.5h-1.5v1.5c0 .281-.22.5-.5.5s-.5-.219-.5-.5v-1.5h-1.5c-.28 0-.5-.219-.5-.5v-2c0-.28.22-.5.5-.5h1.5v-6.5c0-.28.22-.5.5-.5s.5.22.5.5v6.5h1.5c.28 0 .5.22.5.5v2z"/></svg>