<svg xmlns="http://www.w3.org/2000/svg" width="24" height="24" viewBox="0 0 24 24"><path d="M22.68 16.316c-1.22-1.221-3-1.627-4.618-1.082l-3.163-3.164 3.164-3.164c.462.156.944.234 1.438.234 1.2 0 2.329-.467 3.178-1.316 1.307-1.307 1.675-3.17.959-4.863-.065-.154-.204-.265-.369-.297-.167-.029-.335.025-.452.146l-1.766 1.836h-1.408v-1.563l1.769-1.769c.118-.118.169-.286.137-.447-.032-.164-.143-.301-.296-.367-.559-.236-1.15-.354-1.759-.354-1.202 0-2.331.467-3.18 1.315-1.221 1.221-1.629 3-1.083 4.618l-3.161 3.163-3.164-3.163c.547-1.618.14-3.397-1.082-4.618-1.307-1.309-3.171-1.677-4.862-.961-.155.066-.266.204-.297.371-.03.164.024.333.146.451l1.834 1.766v1.558h-1.557l-1.766-1.836c-.117-.122-.287-.175-.452-.146-.165.032-.304.143-.369.297-.711 1.682-.335 3.605.96 4.901 1.214 1.213 2.995 1.613 4.618 1.062l3.158 3.15-3.159 3.159c-.462-.154-.944-.233-1.438-.233-1.202 0-2.331.467-3.179 1.316-1.301 1.303-1.679 3.239-.96 4.938.064.153.201.264.364.296.164.032.332-.021.45-.138l1.767-1.767h1.562v1.407l-1.834 1.767c-.121.116-.176.286-.146.451.031.165.142.304.297.37.559.236 1.146.355 1.749.355 1.184 0 2.302-.467 3.151-1.316 1.208-1.206 1.601-2.986 1.045-4.617l3.164-3.164 3.165 3.166c-.546 1.615-.139 3.396 1.082 4.617.863.862 2.006 1.319 3.173 1.319.593 0 1.192-.117 1.765-.359.153-.065.264-.202.296-.365s-.02-.332-.137-.449l-1.77-1.768v-1.413h1.415l1.768 1.767c.117.117.285.171.449.138.164-.032.3-.143.365-.296.717-1.699.341-3.636-.961-4.939z"/></svg>