<?xml version="1.0" encoding="UTF-8"?>
<svg width="16px" height="20px" viewBox="0 0 16 20" version="1.1" xmlns="http://www.w3.org/2000/svg" xmlns:xlink="http://www.w3.org/1999/xlink">
    <!-- Generator: Sketch 42 (36781) - http://www.bohemiancoding.com/sketch -->
    <title>Fill 264</title>
    <desc>Created with Sketch.</desc>
    <defs></defs>
    <g id="Page-1" stroke="none" stroke-width="1" fill="none" fill-rule="evenodd">
        <g id="Line-Icons" transform="translate(-244.000000, -1.000000)" fill="#757575">
            <g id="Fill-264" transform="translate(244.000000, 1.000000)">
                <path d="M3.0806,10.0005 L6.9996,10.0005 C7.5526,10.0005 7.9996,10.4485 7.9996,11.0005 L7.9996,16.1505 L12.9196,10.0005 L8.9996,10.0005 C8.4476,10.0005 7.9996,9.5525 7.9996,9.0005 L7.9996,3.8515 L3.0806,10.0005 Z M6.9996,20.0005 C6.8896,20.0005 6.7776,19.9825 6.6686,19.9435 C6.2686,19.8035 5.9996,19.4255 5.9996,19.0005 L5.9996,12.0005 L0.9996,12.0005 C0.6156,12.0005 0.2656,11.7795 0.0986,11.4335 C-0.0674,11.0875 -0.0214,10.6775 0.2196,10.3755 L8.2196,0.3755 C8.4846,0.0445 8.9306,-0.0835 9.3306,0.0575 C9.7316,0.1975 9.9996,0.5755 9.9996,1.0005 L9.9996,8.0005 L14.9996,8.0005 C15.3846,8.0005 15.7346,8.2215 15.9016,8.5675 C16.0676,8.9135 16.0206,9.3245 15.7806,9.6255 L7.7806,19.6255 C7.5876,19.8675 7.2976,20.0005 6.9996,20.0005 L6.9996,20.0005 Z"></path>
            </g>
        </g>
    </g>
</svg>