<?xml version="1.0" encoding="UTF-8"?>
<svg width="18px" height="20px" viewBox="0 0 18 20" version="1.1" xmlns="http://www.w3.org/2000/svg" xmlns:xlink="http://www.w3.org/1999/xlink">
    <!-- Generator: Sketch 42 (36781) - http://www.bohemiancoding.com/sketch -->
    <title>Fill 764 + Fill 765</title>
    <desc>Created with Sketch.</desc>
    <defs></defs>
    <g id="Page-1" stroke="none" stroke-width="1" fill="none" fill-rule="evenodd">
        <g id="Line-Icons" transform="translate(-51.000000, -1297.000000)" fill="#767676">
            <g id="Fill-764-+-Fill-765" transform="translate(51.000000, 1297.000000)">
                <path d="M2.001,11.0025 C2.001,7.4485 5.755,2.0025 9.001,2.0025 C12.247,2.0025 16.001,7.4485 16.001,11.0025 C16.001,13.0255 15.46,15.0025 9.001,15.0025 C2.541,15.0025 2.001,13.0255 2.001,11.0025 M18.001,11.0025 C18.001,6.4015 13.466,0.0025 9.001,0.0025 C4.536,0.0025 0.001,6.4015 0.001,11.0025 C0.001,15.9005 4.082,16.8635 8.001,16.9845 L8.001,18.0025 L5.001,18.0025 L5.001,20.0025 L13.001,20.0025 L13.001,18.0025 L10.001,18.0025 L10.001,16.9845 C13.92,16.8635 18.001,15.9005 18.001,11.0025" id="Fill-764"></path>
                <path d="M12.001,13.0025 L14.001,13.0025 C14.001,11.2345 11.366,10.0025 9.001,10.0025 C6.636,10.0025 4.001,11.2345 4.001,13.0025 L5.993,13.0615 C6.122,12.7385 7.393,12.0025 9.001,12.0025 C10.609,12.0025 11.88,12.7385 12.001,13.0025" id="Fill-765"></path>
            </g>
        </g>
    </g>
</svg>