<?xml version="1.0" encoding="UTF-8"?>
<svg width="17px" height="18px" viewBox="0 0 17 18" version="1.1" xmlns="http://www.w3.org/2000/svg" xmlns:xlink="http://www.w3.org/1999/xlink">
    <!-- Generator: Sketch 42 (36781) - http://www.bohemiancoding.com/sketch -->
    <title>Fill 512</title>
    <desc>Created with Sketch.</desc>
    <defs></defs>
    <g id="Page-1" stroke="none" stroke-width="1" fill="none" fill-rule="evenodd">
        <g id="Line-Icons" transform="translate(-195.000000, -674.000000)" fill="#757575">
            <g id="Fill-512" transform="translate(195.000000, 674.000000)">
                <path d="M13.5,13.0005 C12.673,13.0005 12,12.3275 12,11.5005 C12,10.6735 12.673,10.0005 13.5,10.0005 C14.327,10.0005 15,10.6735 15,11.5005 C15,12.3275 14.327,13.0005 13.5,13.0005 M3.5,16.0005 C2.673,16.0005 2,15.3275 2,14.5005 C2,13.6735 2.673,13.0005 3.5,13.0005 C4.327,13.0005 5,13.6735 5,14.5005 C5,15.3275 4.327,16.0005 3.5,16.0005 M16.56,0.1725 C16.285,-0.0135 15.937,-0.0515 15.628,0.0715 L5.628,4.0715 C5.249,4.2245 5,4.5925 5,5.0005 L5,11.3525 C4.544,11.1335 4.039,11.0005 3.5,11.0005 C1.57,11.0005 0,12.5705 0,14.5005 C0,16.4305 1.57,18.0005 3.5,18.0005 C5.43,18.0005 7,16.4305 7,14.5005 L7,5.6785 L15,2.4785 L15,8.3525 C14.543,8.1335 14.039,8.0005 13.5,8.0005 C11.57,8.0005 10,9.5705 10,11.5005 C10,13.4305 11.57,15.0005 13.5,15.0005 C15.43,15.0005 17,13.4305 17,11.5005 L17,1.0005 C17,0.6685 16.835,0.3585 16.56,0.1725"></path>
            </g>
        </g>
    </g>
</svg>