<?xml version="1.0" encoding="UTF-8"?>
<svg width="20px" height="19px" viewBox="0 0 20 19" version="1.1" xmlns="http://www.w3.org/2000/svg" xmlns:xlink="http://www.w3.org/1999/xlink">
    <!-- Generator: Sketch 42 (36781) - http://www.bohemiancoding.com/sketch -->
    <title>Fill 745 + Fill 746 + Fill 747</title>
    <desc>Created with Sketch.</desc>
    <defs></defs>
    <g id="Page-1" stroke="none" stroke-width="1" fill="none" fill-rule="evenodd">
        <g id="Line-Icons" transform="translate(-98.000000, -1250.000000)" fill="#767676">
            <g id="Fill-745-+-Fill-746-+-Fill-747" transform="translate(98.000000, 1250.000000)">
                <path d="M18.001,15.003 L16.001,15.003 L16.001,12.003 L18.001,12.003 L18.001,15.003 Z M6.001,9.003 L14.001,9.003 L14.001,15.003 L6.001,15.003 L6.001,9.003 Z M2.001,12.003 L4.001,12.003 L4.001,15.003 L2.001,15.003 L2.001,12.003 Z M14.001,7.003 L6.001,7.003 L6.001,4.003 L14.001,4.003 L14.001,7.003 Z M19.001,10.281 L19.001,6.003 L17.001,6.003 L17.001,10.003 L16.001,10.003 L16.001,4.003 C16.001,2.899 15.104,2.003 14.001,2.003 L13.001,2.003 L13.001,0.003 L7.001,0.003 L7.001,2.003 L6.001,2.003 C4.898,2.003 4.001,2.899 4.001,4.003 L4.001,10.003 L3.001,10.003 L3.001,6.003 L1.001,6.003 L1.001,10.281 C0.406,10.628 0.001,11.265 0.001,12.003 L0.001,16.003 C0.001,16.555 0.449,17.003 1.001,17.003 L2.001,17.003 C2.001,18.107 2.896,19.003 4.001,19.003 C5.105,19.003 6.001,18.107 6.001,17.003 L14.001,17.003 C14.001,18.107 14.896,19.003 16.001,19.003 C17.105,19.003 18.001,18.107 18.001,17.003 L19.001,17.003 C19.553,17.003 20.001,16.555 20.001,16.003 L20.001,12.003 C20.001,11.265 19.596,10.628 19.001,10.281 L19.001,10.281 Z" id="Fill-745"></path>
                <polygon id="Fill-746" points="7.001 14.003 9.001 14.003 9.001 10.003 7.001 10.003"></polygon>
                <polygon id="Fill-747" points="11.001 14.003 13.001 14.003 13.001 10.003 11.001 10.003"></polygon>
            </g>
        </g>
    </g>
</svg>