<?xml version="1.0" encoding="UTF-8"?>
<svg width="24px" height="25px" viewBox="0 0 24 25" version="1.1" xmlns="http://www.w3.org/2000/svg" xmlns:xlink="http://www.w3.org/1999/xlink">
    <!-- Generator: Sketch 42 (36781) - http://www.bohemiancoding.com/sketch -->
    <title>Fill 434 + Fill 435</title>
    <desc>Created with Sketch.</desc>
    <defs></defs>
    <g id="Page-1" stroke="none" stroke-width="1" fill="none" fill-rule="evenodd">
        <g id="Line-Icons" transform="translate(-96.000000, -479.000000)" fill="#757575">
            <g id="Fill-434-+-Fill-435" transform="translate(96.000000, 479.000000)">
                <path d="M2,6.6006 C3.736,7.5226 6.374,8.0006 9,8.0006 C11.626,8.0006 14.264,7.5226 16,6.6006 L16,8.0006 C16,8.5816 13.547,10.0006 9,10.0006 C4.453,10.0006 2,8.5816 2,8.0006 L2,6.6006 Z M9,2.0006 C13.547,2.0006 16,3.4196 16,4.0006 C16,4.5816 13.547,6.0006 9,6.0006 C4.453,6.0006 2,4.5816 2,4.0006 C2,3.4196 4.453,2.0006 9,2.0006 L9,2.0006 Z M14,17.2866 C12.824,17.6826 11.149,18.0006 9,18.0006 C4.453,18.0006 2,16.5816 2,16.0006 L2,14.6006 C3.736,15.5226 6.374,16.0006 9,16.0006 C10.754,16.0006 12.507,15.7836 14,15.3656 L14,13.2866 C12.824,13.6826 11.149,14.0006 9,14.0006 C4.453,14.0006 2,12.5816 2,12.0006 L2,10.6006 C3.736,11.5226 6.374,12.0006 9,12.0006 C11.626,12.0006 14.264,11.5226 16,10.6006 L16,12.0006 L18,12.0006 L18,4.0006 C18,1.3746 13.473,0.0006 9,0.0006 C4.527,0.0006 0,1.3746 0,4.0006 L0,16.0006 C0,18.6266 4.527,20.0006 9,20.0006 C10.751,20.0006 12.507,19.7866 14,19.3726 L14,17.2866 Z" id="Fill-434"></path>
                <polygon id="Fill-435" points="24 19.0005 21 19.0005 21 16.0005 19 16.0005 19 19.0005 16 19.0005 16 21.0005 19 21.0005 19 24.0005 21 24.0005 21 21.0005 24 21.0005"></polygon>
            </g>
        </g>
    </g>
</svg>