<?xml version="1.0" encoding="UTF-8"?>
<svg width="20px" height="20px" viewBox="0 0 20 20" version="1.1" xmlns="http://www.w3.org/2000/svg" xmlns:xlink="http://www.w3.org/1999/xlink">
    <!-- Generator: Sketch 42 (36781) - http://www.bohemiancoding.com/sketch -->
    <title>Fill 759</title>
    <desc>Created with Sketch.</desc>
    <defs></defs>
    <g id="Page-1" stroke="none" stroke-width="1" fill="none" fill-rule="evenodd">
        <g id="Line-Icons" transform="translate(-434.000000, -1249.000000)" fill="#767676">
            <g id="Fill-759" transform="translate(434.000000, 1249.000000)">
                <path d="M9,16.0025 C8.723,16.0025 8.459,16.0595 8.219,16.1605 L5.842,13.7835 C5.943,13.5435 6,13.2795 6,13.0025 C6,12.8135 5.966,12.6355 5.917,12.4615 L12.004,7.7275 C12.298,7.8975 12.636,8.0025 13,8.0025 C13.082,8.0025 13.16,7.9875 13.24,7.9775 L16.449,13.7545 C16.198,14.0655 16.04,14.4505 16.013,14.8745 L10.513,16.7075 C10.146,16.2795 9.608,16.0025 9,16.0025 M18,13.0025 C17.918,13.0025 17.84,13.0175 17.76,13.0265 L14.551,7.2505 C14.828,6.9075 15,6.4775 15,6.0025 C15,4.8985 14.104,4.0025 13,4.0025 C12.411,4.0025 11.887,4.2615 11.521,4.6665 L3.993,1.9285 C3.953,0.8595 3.079,0.0025 2,0.0025 C0.896,0.0025 0,0.8985 0,2.0025 C0,3.1065 0.896,4.0025 2,4.0025 C2.589,4.0025 3.113,3.7435 3.478,3.3385 L11.007,6.0765 C11.014,6.2375 11.041,6.3935 11.083,6.5425 L4.996,11.2775 C4.702,11.1075 4.364,11.0025 4,11.0025 C2.896,11.0025 2,11.8985 2,13.0025 C2,14.1065 2.896,15.0025 4,15.0025 C4.277,15.0025 4.541,14.9455 4.781,14.8445 L7.158,17.2215 C7.057,17.4615 7,17.7255 7,18.0025 C7,19.1065 7.896,20.0025 9,20.0025 C10.06,20.0025 10.92,19.1745 10.987,18.1305 L16.487,16.2975 C16.854,16.7255 17.392,17.0025 18,17.0025 C19.104,17.0025 20,16.1065 20,15.0025 C20,13.8985 19.104,13.0025 18,13.0025"></path>
            </g>
        </g>
    </g>
</svg>