<?xml version="1.0" encoding="UTF-8"?>
<svg width="22px" height="18px" viewBox="0 0 22 18" version="1.1" xmlns="http://www.w3.org/2000/svg" xmlns:xlink="http://www.w3.org/1999/xlink">
    <!-- Generator: Sketch 42 (36781) - http://www.bohemiancoding.com/sketch -->
    <title>Fill 177 + Fill 178 + Fill 179</title>
    <desc>Created with Sketch.</desc>
    <defs></defs>
    <g id="Page-1" stroke="none" stroke-width="1" fill="none" fill-rule="evenodd">
        <g id="Line-Icons" transform="translate(-49.000000, -530.000000)" fill="#757575">
            <g id="Fill-177-+-Fill-178-+-Fill-179" transform="translate(49.000000, 530.000000)">
                <path d="M7,1.5005 C7,0.6725 6.328,0.0005 5.5,0.0005 C4.672,0.0005 4,0.6725 4,1.5005 L4,2.0005 L7,2.0005 L7,1.5005 Z" id="Fill-177"></path>
                <polygon id="Fill-178" points="7 12.0005 7 3.0005 4 3.0005 4 12.0005 5.5 15.0005"></polygon>
                <path d="M16,16.0005 L16,12.0005 L20.001,12.0005 L20.002,16.0005 L16,16.0005 Z M16,6.0005 L20,6.0005 L20.001,10.0005 L16,10.0005 L16,6.0005 Z M20,4.0005 L9,4.0005 L9,6.0005 L14,6.0005 L14,16.0005 L2,16.0005 L2,4.0005 C0.897,4.0005 0,4.8985 0,6.0005 L0,16.0005 C0,17.1035 0.897,18.0005 2,18.0005 L20,18.0005 C21.103,18.0005 22,17.1035 22,16.0005 L22,6.0005 C22,4.8985 21.103,4.0005 20,4.0005 L20,4.0005 Z" id="Fill-179"></path>
            </g>
        </g>
    </g>
</svg>