<?xml version="1.0" encoding="UTF-8"?>
<svg width="18px" height="22px" viewBox="0 0 18 22" version="1.1" xmlns="http://www.w3.org/2000/svg" xmlns:xlink="http://www.w3.org/1999/xlink">
    <!-- Generator: Sketch 42 (36781) - http://www.bohemiancoding.com/sketch -->
    <title>Fill 314 + Fill 315</title>
    <desc>Created with Sketch.</desc>
    <defs></defs>
    <g id="Page-1" stroke="none" stroke-width="1" fill="none" fill-rule="evenodd">
        <g id="Line-Icons" transform="translate(-51.000000, -193.000000)" fill="#757575">
            <g id="Fill-314-+-Fill-315" transform="translate(51.000000, 193.000000)">
                <path d="M14,8.0005 L14,7.0005 C14,6.5415 13.688,6.1425 13.243,6.0305 C11.044,5.4795 9.877,3.5205 9.868,3.5035 C9.512,2.8815 8.488,2.8815 8.132,3.5035 C8.121,3.5235 6.948,5.4825 4.757,6.0305 C4.312,6.1425 4,6.5415 4,7.0005 L4,8.0005 L2.071,8.0005 C2.558,4.6125 5.48,2.0005 9,2.0005 C12.521,2.0005 15.442,4.6125 15.929,8.0005 L14,8.0005 Z M12,8.0005 C12,9.6545 10.654,11.0005 9,11.0005 C7.346,11.0005 6,9.6545 6,8.0005 L6,7.7345 C7.362,7.2205 8.359,6.3545 9,5.6485 C9.641,6.3545 10.638,7.2205 12,7.7345 L12,8.0005 Z M9,0.0005 C4.038,0.0005 0,4.0385 0,9.0005 L0,10.0005 L4.424,10.0005 C5.198,11.7635 6.955,13.0005 9,13.0005 C11.045,13.0005 12.802,11.7635 13.576,10.0005 L18,10.0005 L18,9.0005 C18,4.0385 13.962,0.0005 9,0.0005 L9,0.0005 Z" id="Fill-314"></path>
                <path d="M3,20.0005 C3,18.5425 3.944,17.3355 5.612,16.6315 L9,19.2685 L12.388,16.6315 C14.056,17.3355 15,18.5425 15,20.0005 L3,20.0005 Z M12.535,14.5515 L12.026,14.3795 L9,16.7335 L5.974,14.3795 L5.465,14.5515 C2.669,15.4925 1,17.5295 1,20.0005 L1,22.0005 L17,22.0005 L17,20.0005 C17,17.5295 15.331,15.4925 12.535,14.5515 L12.535,14.5515 Z" id="Fill-315"></path>
            </g>
        </g>
    </g>
</svg>