<?xml version="1.0" encoding="UTF-8"?>
<svg width="19px" height="19px" viewBox="0 0 19 19" version="1.1" xmlns="http://www.w3.org/2000/svg" xmlns:xlink="http://www.w3.org/1999/xlink">
    <!-- Generator: Sketch 42 (36781) - http://www.bohemiancoding.com/sketch -->
    <title>Fill 513 + Fill 514</title>
    <desc>Created with Sketch.</desc>
    <defs></defs>
    <g id="Page-1" stroke="none" stroke-width="1" fill="none" fill-rule="evenodd">
        <g id="Line-Icons" transform="translate(-339.000000, -675.000000)" fill="#757575">
            <g id="Fill-513-+-Fill-514" transform="translate(339.000000, 675.000000)">
                <path d="M11.0269,15.9761 L8.3159,12.0991 L11.0269,9.3881 L11.0269,15.9761 Z M18.7069,1.7071 L17.2929,0.2931 L0.2929,17.2931 L1.7069,18.7071 L6.8789,13.5361 L9.4989,17.2811 C9.9159,17.7771 10.4579,18.0001 11.0259,18.0001 C11.2889,18.0001 11.5459,17.9501 11.7899,17.8501 C12.5409,17.5401 13.0259,16.8131 13.0259,16.0001 L13.0259,7.3891 L18.7069,1.7071 Z" id="Fill-513"></path>
                <path d="M4.0254,10.7329 L4.0254,7.0009 L7.5464,7.0009 L11.0254,2.0279 L11.0254,3.7329 L12.9904,1.7679 C12.9064,1.0539 12.4664,0.4319 11.7894,0.1529 C11.0504,-0.1531 10.1744,0.0219 9.6114,0.5869 L6.5044,5.0009 L4.0254,5.0009 C2.9224,5.0009 2.0254,5.8979 2.0254,7.0009 L2.0254,11.0009 C2.0254,11.4839 2.2044,11.9209 2.4904,12.2679 L4.0254,10.7329 Z" id="Fill-514"></path>
            </g>
        </g>
    </g>
</svg>