<?xml version="1.0" encoding="UTF-8"?>
<svg width="22px" height="20px" viewBox="0 0 22 20" version="1.1" xmlns="http://www.w3.org/2000/svg" xmlns:xlink="http://www.w3.org/1999/xlink">
    <!-- Generator: Sketch 42 (36781) - http://www.bohemiancoding.com/sketch -->
    <title>Fill 611 + Fill 612 + Fill 613</title>
    <desc>Created with Sketch.</desc>
    <defs></defs>
    <g id="Page-1" stroke="none" stroke-width="1" fill="none" fill-rule="evenodd">
        <g id="Line-Icons" transform="translate(-49.000000, -1009.000000)" fill="#767676">
            <g id="Fill-611-+-Fill-612-+-Fill-613" transform="translate(49.000000, 1009.000000)">
                <path d="M2.6177,9.0005 L4.6177,5.0005 L17.3817,5.0005 L19.3817,9.0005 L2.6177,9.0005 Z M12.9997,18.0005 L12.9997,16.0005 L8.9997,16.0005 L8.9997,18.0005 L4.9997,18.0005 L4.9997,11.0005 L16.9997,11.0005 L16.9997,18.0005 L12.9997,18.0005 Z M6.9997,2.0005 L7.9997,2.0005 L7.9997,3.0005 L6.9997,3.0005 L6.9997,2.0005 Z M13.9997,2.0005 L14.9997,2.0005 L14.9997,3.0005 L13.9997,3.0005 L13.9997,2.0005 Z M21.8937,9.5535 L18.8937,3.5535 C18.7247,3.2145 18.3787,3.0005 17.9997,3.0005 L16.9997,3.0005 L16.9997,1.0005 C16.9997,0.4485 16.5517,0.0005 15.9997,0.0005 L12.9997,0.0005 C12.4477,0.0005 11.9997,0.4485 11.9997,1.0005 L11.9997,3.0005 L9.9997,3.0005 L9.9997,1.0005 C9.9997,0.4485 9.5517,0.0005 8.9997,0.0005 L5.9997,0.0005 C5.4477,0.0005 4.9997,0.4485 4.9997,1.0005 L4.9997,3.0005 L3.9997,3.0005 C3.6207,3.0005 3.2747,3.2145 3.1047,3.5535 L0.1047,9.5535 C-0.0493,9.8635 -0.0333,10.2315 0.1487,10.5265 C0.3307,10.8215 0.6527,11.0005 0.9997,11.0005 L2.9997,11.0005 L2.9997,19.0005 C2.9997,19.5525 3.4477,20.0005 3.9997,20.0005 L17.9997,20.0005 C18.5517,20.0005 18.9997,19.5525 18.9997,19.0005 L18.9997,11.0005 L20.9997,11.0005 C21.3467,11.0005 21.6677,10.8215 21.8497,10.5265 C22.0327,10.2315 22.0487,9.8635 21.8937,9.5535 L21.8937,9.5535 Z" id="Fill-611"></path>
                <polygon id="Fill-612" points="5.999 15 8.999 15 8.999 12 5.999 12"></polygon>
                <polygon id="Fill-613" points="12.999 15 15.999 15 15.999 12 12.999 12"></polygon>
            </g>
        </g>
    </g>
</svg>