<?xml version="1.0" encoding="UTF-8"?>
<svg width="24px" height="24px" viewBox="0 0 24 24" version="1.1" xmlns="http://www.w3.org/2000/svg" xmlns:xlink="http://www.w3.org/1999/xlink">
    <!-- Generator: Sketch 42 (36781) - http://www.bohemiancoding.com/sketch -->
    <title>Fill 900 + Fill 901 + Fill 902</title>
    <desc>Created with Sketch.</desc>
    <defs></defs>
    <g id="Page-1" stroke="none" stroke-width="1" fill="none" fill-rule="evenodd">
        <g id="Line-Icons" transform="translate(-192.000000, -1151.000000)" fill="#757575">
            <g id="Fill-900-+-Fill-901-+-Fill-902" transform="translate(192.000000, 1151.000000)">
                <path d="M12,10.0005 C10.897,10.0005 10,9.1035 10,8.0005 C10,7.3385 10.933,5.5275 12,3.8215 C13.067,5.5275 14,7.3385 14,8.0005 C14,9.1035 13.103,10.0005 12,10.0005 M16,8.0005 C16,5.9675 13.06,1.7755 12,0.2415 C11.309,1.2415 8,5.8545 8,8.0005 C8,10.2055 9.794,12.0005 12,12.0005 C14.206,12.0005 16,10.2055 16,8.0005" id="Fill-900"></path>
                <path d="M21,22 L16,22 L16,21 L21,21 L21,22 Z M16,14.415 L17.293,15.707 C17.538,15.953 17.892,16.054 18.23,15.973 C18.567,15.894 18.839,15.645 18.949,15.317 L21.721,7 L22,7 L22,15.764 L20.382,19 L16.677,19 L15.173,15.242 L16,14.415 Z M23,5 L21,5 C20.569,5 20.187,5.276 20.051,5.684 L17.563,13.149 L16.707,12.293 C16.316,11.903 15.684,11.903 15.293,12.293 L13.293,14.293 C13.01,14.577 12.923,15 13.071,15.372 L14.566,19.109 C14.234,19.272 14,19.606 14,20 L14,23 C14,23.554 14.448,24 15,24 L22,24 C22.552,24 23,23.554 23,23 L23,20 C23,19.648 22.807,19.353 22.531,19.174 L23.895,16.448 C23.964,16.309 24,16.156 24,16 L24,6 C24,5.448 23.552,5 23,5 L23,5 Z" id="Fill-901"></path>
                <path d="M8,22 L3,22 L3,21 L8,21 L8,22 Z M2,7 L2.279,7 L5.051,15.317 C5.161,15.645 5.433,15.894 5.77,15.973 C6.109,16.054 6.462,15.953 6.707,15.707 L8,14.415 L8.827,15.242 L7.323,19 L3.618,19 L2,15.764 L2,7 Z M8.707,12.293 C8.316,11.903 7.684,11.903 7.293,12.293 L6.437,13.149 L3.949,5.684 C3.812,5.276 3.431,5 3,5 L1,5 C0.448,5 0,5.448 0,6 L0,16 C0,16.156 0.036,16.309 0.105,16.448 L1.469,19.174 C1.193,19.353 1,19.648 1,20 L1,23 C1,23.554 1.448,24 2,24 L9,24 C9.552,24 10,23.554 10,23 L10,20 C10,19.606 9.766,19.272 9.434,19.109 L10.929,15.372 C11.077,15 10.99,14.577 10.707,14.293 L8.707,12.293 Z" id="Fill-902"></path>
            </g>
        </g>
    </g>
</svg>