<?xml version="1.0" encoding="UTF-8"?>
<svg width="20px" height="20px" viewBox="0 0 20 20" version="1.1" xmlns="http://www.w3.org/2000/svg" xmlns:xlink="http://www.w3.org/1999/xlink">
    <!-- Generator: Sketch 42 (36781) - http://www.bohemiancoding.com/sketch -->
    <title>Fill 575 + Fill 576</title>
    <desc>Created with Sketch.</desc>
    <defs></defs>
    <g id="Page-1" stroke="none" stroke-width="1" fill="none" fill-rule="evenodd">
        <g id="Line-Icons" transform="translate(-434.000000, -865.000000)" fill="#757575">
            <g id="Fill-575-+-Fill-576" transform="translate(434.000000, 865.000000)">
                <path d="M2.0859,3.001 C2.5619,2.595 4.2149,2.001 5.9999,2.001 C7.7849,2.001 9.4389,2.595 9.9139,3.001 L11.9999,3.001 C11.9999,0.757 7.8789,0.001 5.9999,0.001 C4.1209,0.001 -0.0001,0.757 -0.0001,3.001 L-0.0001,15.001 C-0.0001,17.246 4.1209,18.001 5.9999,18.001 C6.2869,18.001 6.6309,17.981 6.9999,17.943 L6.9999,15.935 C6.6749,15.974 6.3419,16.001 5.9999,16.001 C4.0839,16.001 2.3179,15.316 1.9999,14.915 L1.9999,14.222 C3.3199,14.778 4.9859,15.001 5.9999,15.001 C6.2879,15.001 6.6309,14.981 6.9999,14.943 L6.9999,12.935 C6.6749,12.974 6.3419,13.001 5.9999,13.001 C4.0639,13.001 2.2909,12.303 1.9999,11.903 L1.9999,11.222 C3.3199,11.778 4.9859,12.001 5.9999,12.001 C6.2879,12.001 6.6309,11.981 6.9999,11.943 L6.9999,9.935 C6.6749,9.974 6.3419,10.001 5.9999,10.001 C4.0639,10.001 2.2909,9.303 1.9999,8.903 L1.9999,8.222 C3.3199,8.778 4.9859,9.001 5.9999,9.001 C6.2879,9.001 6.6309,8.981 6.9999,8.943 L6.9999,6.935 C6.6749,6.974 6.3419,7.001 5.9999,7.001 C4.0639,7.001 2.2909,6.303 1.9999,5.903 L1.9999,5.222 C3.3199,5.778 4.9859,6.001 5.9999,6.001 C6.2879,6.001 6.6309,5.981 6.9999,5.943 L6.9999,3.936 C6.6749,3.974 6.3419,4.001 5.9999,4.001 C4.2159,4.001 2.5619,3.407 2.0859,3.001" id="Fill-575"></path>
                <path d="M14,18.001 C12.084,18.001 10.318,17.316 10,16.915 L10,16.222 C11.32,16.778 12.985,17.001 14,17.001 C15.015,17.001 16.68,16.778 18,16.222 L18,16.915 C17.682,17.316 15.916,18.001 14,18.001 L14,18.001 Z M14,7.001 C15.785,7.001 17.439,7.595 17.914,8.001 C17.439,8.407 15.784,9.001 14,9.001 C12.216,9.001 10.561,8.407 10.086,8.001 C10.561,7.595 12.215,7.001 14,7.001 L14,7.001 Z M18,13.903 C17.71,14.303 15.936,15.001 14,15.001 C12.064,15.001 10.29,14.303 10,13.903 L10,13.222 C11.32,13.778 12.985,14.001 14,14.001 C15.015,14.001 16.68,13.778 18,13.222 L18,13.903 Z M18,10.903 C17.71,11.303 15.936,12.001 14,12.001 C12.064,12.001 10.29,11.303 10,10.903 L10,10.222 C11.32,10.778 12.985,11.001 14,11.001 C15.015,11.001 16.68,10.778 18,10.222 L18,10.903 Z M14,5.001 C12.121,5.001 8,5.757 8,8.001 L8,17.001 C8,19.246 12.121,20.001 14,20.001 C15.879,20.001 20,19.246 20,17.001 L20,8.001 C20,5.757 15.879,5.001 14,5.001 L14,5.001 Z" id="Fill-576"></path>
            </g>
        </g>
    </g>
</svg>