<?xml version="1.0" encoding="UTF-8"?>
<svg width="16px" height="21px" viewBox="0 0 16 21" version="1.1" xmlns="http://www.w3.org/2000/svg" xmlns:xlink="http://www.w3.org/1999/xlink">
    <!-- Generator: Sketch 42 (36781) - http://www.bohemiancoding.com/sketch -->
    <title>Fill 596 + Fill 597</title>
    <desc>Created with Sketch.</desc>
    <defs></defs>
    <g id="Page-1" stroke="none" stroke-width="1" fill="none" fill-rule="evenodd">
        <g id="Line-Icons" transform="translate(-196.000000, -961.000000)" fill="#767676">
            <g id="Fill-596-+-Fill-597" transform="translate(196.000000, 961.000000)">
                <path d="M8.001,17.6563 C5.871,15.6593 2.001,11.3403 2.001,8.0023 C2.001,4.6933 4.692,2.0023 8.001,2.0023 C11.31,2.0023 14.001,4.6933 14.001,8.0023 C14.001,11.3403 10.131,15.6593 8.001,17.6563 M8.001,0.0023 C3.59,0.0023 0.001,3.5913 0.001,8.0023 C0.001,12.4123 4.645,17.4423 8.001,20.3203 C11.355,17.4443 16.001,12.4143 16.001,8.0023 C16.001,3.5913 12.412,0.0023 8.001,0.0023" id="Fill-596"></path>
                <polygon id="Fill-597" points="9.001 4.0022 7.001 4.0022 7.001 7.0022 4.001 7.0022 4.001 9.0022 7.001 9.0022 7.001 12.0022 9.001 12.0022 9.001 9.0022 12.001 9.0022 12.001 7.0022 9.001 7.0022"></polygon>
            </g>
        </g>
    </g>
</svg>