<?xml version="1.0" encoding="UTF-8"?>
<svg width="17px" height="12px" viewBox="0 0 17 12" version="1.1" xmlns="http://www.w3.org/2000/svg" xmlns:xlink="http://www.w3.org/1999/xlink">
    <!-- Generator: Sketch 42 (36781) - http://www.bohemiancoding.com/sketch -->
    <title>Fill 374</title>
    <desc>Created with Sketch.</desc>
    <defs></defs>
    <g id="Page-1" stroke="none" stroke-width="1" fill="none" fill-rule="evenodd">
        <g id="Line-Icons" transform="translate(-244.000000, -293.000000)" fill="#757575">
            <g id="Fill-374" transform="translate(244.000000, 293.000000)">
                <path d="M15,7.3823 L13,6.3823 L13,5.6193 L15,4.6193 L15,7.3823 Z M10.997,10.0003 L2,10.0003 L2,2.0003 L11,2.0003 L10.997,10.0003 Z M16.526,2.1503 C16.231,1.9673 15.862,1.9513 15.553,2.1063 L13,3.3823 L13,2.0003 C13,0.8973 12.103,0.0003 11,0.0003 L2,0.0003 C0.897,0.0003 0,0.8973 0,2.0003 L0,10.0003 C0,11.1033 0.897,12.0003 2,12.0003 L11,12.0003 C12.103,12.0003 13,11.1033 13,10.0003 L13,8.6193 L15.553,9.8953 C15.694,9.9653 15.847,10.0003 16,10.0003 C16.183,10.0003 16.365,9.9503 16.526,9.8513 C16.82,9.6693 17,9.3473 17,9.0003 L17,3.0003 C17,2.6533 16.82,2.3323 16.526,2.1503 L16.526,2.1503 Z"></path>
            </g>
        </g>
    </g>
</svg>