<?xml version="1.0" encoding="UTF-8"?>
<svg width="23px" height="18px" viewBox="0 0 23 18" version="1.1" xmlns="http://www.w3.org/2000/svg" xmlns:xlink="http://www.w3.org/1999/xlink">
    <!-- Generator: Sketch 42 (36781) - http://www.bohemiancoding.com/sketch -->
    <title>Fill 609 + Fill 610</title>
    <desc>Created with Sketch.</desc>
    <defs></defs>
    <g id="Page-1" stroke="none" stroke-width="1" fill="none" fill-rule="evenodd">
        <g id="Line-Icons" transform="translate(-1.000000, -1011.000000)" fill="#767676">
            <g id="Fill-609-+-Fill-610" transform="translate(0.000000, 1011.000000)">
                <path d="M4.6055,9.0005 L12.0305,2.3185 L20.1985,9.0005 L4.6055,9.0005 Z M10.9995,16.0005 L10.9995,12.0005 L7.9995,12.0005 L7.9995,16.0005 L5.9995,16.0005 L5.9995,11.0005 L18.9995,11.0005 L18.9995,16.0005 L10.9995,16.0005 Z M17.9995,4.0005 L18.9995,4.0005 L18.9995,5.4365 L17.9995,4.6175 L17.9995,4.0005 Z M23.6325,9.2275 L20.9995,7.0715 L20.9995,3.0005 C20.9995,2.4485 20.5515,2.0005 19.9995,2.0005 L16.9995,2.0005 C16.4535,2.0005 16.0125,2.4405 16.0025,2.9845 L12.6325,0.2275 C12.2505,-0.0865 11.6975,-0.0725 11.3305,0.2575 L1.3305,9.2575 C1.0225,9.5345 0.9175,9.9725 1.0655,10.3585 C1.2145,10.7465 1.5855,11.0005 1.9995,11.0005 L3.9995,11.0005 L3.9995,17.0005 C3.9995,17.5535 4.4475,18.0005 4.9995,18.0005 L19.9995,18.0005 C20.5515,18.0005 20.9995,17.5535 20.9995,17.0005 L20.9995,11.0005 L22.9995,11.0005 C23.4225,11.0005 23.7995,10.7355 23.9415,10.3365 C24.0835,9.9395 23.9605,9.4945 23.6325,9.2275 L23.6325,9.2275 Z" id="Fill-609"></path>
                <polygon id="Fill-610" points="12.999 15 16.999 15 16.999 12 12.999 12"></polygon>
            </g>
        </g>
    </g>
</svg>