<?xml version="1.0" encoding="UTF-8"?>
<svg width="19px" height="23px" viewBox="0 0 19 23" version="1.1" xmlns="http://www.w3.org/2000/svg" xmlns:xlink="http://www.w3.org/1999/xlink">
    <!-- Generator: Sketch 42 (36781) - http://www.bohemiancoding.com/sketch -->
    <title>Fill 29</title>
    <desc>Created with Sketch.</desc>
    <defs></defs>
    <g id="Page-1" stroke="none" stroke-width="1" fill="none" fill-rule="evenodd">
        <g id="Line-Icons" transform="translate(-434.000000, -1632.000000)" fill="#757575">
            <g id="Fill-29" transform="translate(434.000000, 1632.000000)">
                <path d="M16,7.0005 L14,7.0005 L14,5.0005 L15,5.0005 C15.551,5.0005 16,5.4495 16,6.0005 L16,7.0005 Z M16,11.0005 L14,11.0005 L14,9.0005 L16,9.0005 L16,11.0005 Z M16,15.0005 L14,15.0005 L14,13.0005 L16,13.0005 L16,15.0005 Z M16,21.0005 L14,21.0005 L14,17.0005 L16,17.0005 L16,21.0005 Z M8,16.0005 L2,16.0005 L2,15.0005 L8,15.0005 L8,16.0005 Z M8,6.0005 L2,6.0005 L2,5.0005 L8,5.0005 L8,6.0005 Z M18,21.0005 L18,6.0005 C18,4.3465 16.654,3.0005 15,3.0005 L7,3.0005 L7,2.0005 L8,2.0005 L8,0.0005 L4,0.0005 L4,2.0005 L5,2.0005 L5,3.0005 L0,3.0005 L0,8.0005 L10,8.0005 L10,5.0005 L12,5.0005 L12,16.0005 L10,16.0005 L10,13.0005 L0,13.0005 L0,18.0005 L5,18.0005 L5,19.0005 L4,19.0005 L4,21.0005 L8,21.0005 L8,19.0005 L7,19.0005 L7,18.0005 L12,18.0005 L12,21.0005 L11,21.0005 L11,23.0005 L19,23.0005 L19,21.0005 L18,21.0005 Z"></path>
            </g>
        </g>
    </g>
</svg>