<?xml version="1.0" encoding="UTF-8"?>
<svg width="18px" height="20px" viewBox="0 0 18 20" version="1.1" xmlns="http://www.w3.org/2000/svg" xmlns:xlink="http://www.w3.org/1999/xlink">
    <!-- Generator: Sketch 42 (36781) - http://www.bohemiancoding.com/sketch -->
    <title>Fill 851 + Fill 852</title>
    <desc>Created with Sketch.</desc>
    <defs></defs>
    <g id="Page-1" stroke="none" stroke-width="1" fill="none" fill-rule="evenodd">
        <g id="Line-Icons" transform="translate(-339.000000, -1489.000000)" fill="#767676">
            <g id="Fill-851-+-Fill-852" transform="translate(338.000000, 1489.000000)">
                <path d="M10.999,5.5005 C10.999,4.6725 10.327,4.0005 9.499,4.0005 C8.671,4.0005 7.999,4.6725 7.999,5.5005 C7.999,6.3285 8.671,7.0005 9.499,7.0005 C10.327,7.0005 10.999,6.3285 10.999,5.5005" id="Fill-851"></path>
                <path d="M10.999,18.0005 C6.588,18.0005 2.999,14.4115 2.999,10.0005 C2.999,5.5895 6.588,2.0005 10.999,2.0005 C12.786,2.0005 14.49,2.5955 15.891,3.6935 L10.292,9.2935 C10.104,9.4805 9.999,9.7355 9.999,10.0005 C9.999,10.2665 10.104,10.5205 10.292,10.7075 L15.891,16.3075 C14.49,17.4055 12.786,18.0005 10.999,18.0005 L10.999,18.0005 Z M12.413,10.0005 L18.054,4.3585 C18.445,3.9695 18.445,3.3355 18.055,2.9455 C16.159,1.0465 13.653,0.0005 10.999,0.0005 C5.485,0.0005 0.999,4.4855 0.999,10.0005 C0.999,15.5155 5.485,20.0005 10.999,20.0005 C13.653,20.0005 16.159,18.9545 18.055,17.0555 C18.445,16.6655 18.445,16.0325 18.054,15.6425 L12.413,10.0005 Z" id="Fill-852"></path>
            </g>
        </g>
    </g>
</svg>