<?xml version="1.0" encoding="UTF-8"?>
<svg width="21px" height="22px" viewBox="0 0 21 22" version="1.1" xmlns="http://www.w3.org/2000/svg" xmlns:xlink="http://www.w3.org/1999/xlink">
    <!-- Generator: Sketch 42 (36781) - http://www.bohemiancoding.com/sketch -->
    <title>Fill 653</title>
    <desc>Created with Sketch.</desc>
    <defs></defs>
    <g id="Page-1" stroke="none" stroke-width="1" fill="none" fill-rule="evenodd">
        <g id="Line-Icons" transform="translate(-386.000000, -1057.000000)" fill="#767676">
            <g id="Fill-653" transform="translate(386.000000, 1057.000000)">
                <path d="M18.9995,20.001 L8.0855,20.001 C10.4525,19.082 14.0625,18.128 18.9995,18.012 L18.9995,20.001 Z M5.2775,10.441 C4.1665,10.778 3.1635,11.361 2.3315,12.141 C2.0505,8.482 4.3345,4.98 7.9875,3.872 C11.6715,2.752 15.4715,4.435 17.2735,7.605 C16.1455,7.418 14.9895,7.496 13.8895,7.829 C12.3225,8.305 10.9755,9.265 10.0185,10.572 C8.5005,10.019 6.8265,9.971 5.2775,10.441 L5.2775,10.441 Z M19.9995,16.001 C17.2915,16.001 14.9425,16.24 12.9225,16.6 L11.4975,11.987 C12.2065,10.918 13.2365,10.118 14.4705,9.743 C15.8165,9.334 17.2865,9.465 18.5515,10.099 C18.8925,10.269 19.3005,10.233 19.6045,10.002 C20.1105,9.617 20.0365,9.156 19.8795,8.625 C18.4165,3.806 13.6105,0.704 8.3845,1.738 L8.0735,0.711 C7.9135,0.182 7.3555,-0.116 6.8265,0.044 C6.2985,0.204 5.9995,0.762 6.1595,1.291 L6.4645,2.297 C1.1515,4.505 -0.8375,10.626 0.8685,14.803 C1.0195,15.171 1.3805,15.424 1.7935,15.424 C2.1515,15.424 2.4835,15.232 2.6625,14.918 C3.3695,13.676 4.5045,12.765 5.8585,12.355 C7.0865,11.982 8.4095,12.08 9.5855,12.575 L10.9565,17.011 C5.0615,18.435 3.1385,20.41 1.1485,22.001 L20.9995,22.001 L20.9995,16.001 L19.9995,16.001 Z"></path>
            </g>
        </g>
    </g>
</svg>