<?xml version="1.0" encoding="UTF-8"?>
<svg width="14px" height="20px" viewBox="0 0 14 20" version="1.1" xmlns="http://www.w3.org/2000/svg" xmlns:xlink="http://www.w3.org/1999/xlink">
    <!-- Generator: Sketch 42 (36781) - http://www.bohemiancoding.com/sketch -->
    <title>Fill 363</title>
    <desc>Created with Sketch.</desc>
    <defs></defs>
    <g id="Page-1" stroke="none" stroke-width="1" fill="none" fill-rule="evenodd">
        <g id="Line-Icons" transform="translate(-5.000000, -289.000000)" fill="#757575">
            <g id="Fill-363" transform="translate(5.000000, 289.000000)">
                <path d="M2.0015,18.0005 L2.0015,16.0005 L12.0025,16.0005 L12.0025,18.0005 L2.0015,18.0005 Z M4.0015,5.0005 C4.5535,5.0005 5.0015,4.5525 5.0015,4.0005 L5.0015,2.0005 L9.0015,2.0005 L9.0015,4.0005 C9.0015,4.5525 9.4495,5.0005 10.0015,5.0005 L12.0015,5.0005 L12.0025,14.0005 L2.0015,14.0005 L2.0015,5.0005 L4.0015,5.0005 Z M13.0015,3.0005 L11.0015,3.0005 L11.0015,1.0005 C11.0015,0.4485 10.5535,0.0005 10.0015,0.0005 L4.0015,0.0005 C3.4495,0.0005 3.0015,0.4485 3.0015,1.0005 L3.0015,3.0005 L1.0015,3.0005 C0.4495,3.0005 0.0015,3.4485 0.0015,4.0005 L0.0015,18.0005 C0.0015,19.1035 0.8985,20.0005 2.0015,20.0005 L12.0015,20.0005 C13.1045,20.0005 14.0015,19.1035 14.0015,18.0005 L14.0015,4.0005 C14.0015,3.4485 13.5535,3.0005 13.0015,3.0005 L13.0015,3.0005 Z"></path>
            </g>
        </g>
    </g>
</svg>