<?xml version="1.0" encoding="UTF-8"?>
<svg width="24px" height="24px" viewBox="0 0 24 24" version="1.1" xmlns="http://www.w3.org/2000/svg" xmlns:xlink="http://www.w3.org/1999/xlink">
    <!-- Generator: Sketch 42 (36781) - http://www.bohemiancoding.com/sketch -->
    <title>Fill 95 + Fill 96 + Fill 97</title>
    <desc>Created with Sketch.</desc>
    <defs></defs>
    <g id="Page-1" stroke="none" stroke-width="1" fill="none" fill-rule="evenodd">
        <g id="Line-Icons" transform="translate(-288.000000, -815.000000)" fill="#757575">
            <g id="Fill-95-+-Fill-96-+-Fill-97" transform="translate(288.000000, 815.000000)">
                <path d="M15,3.001 L15,4.051 C13.86,4.284 13,5.294 13,6.501 C13,7.879 14.122,9.001 15.5,9.001 L16.5,9.001 C16.776,9.001 17,9.226 17,9.501 C17,9.777 16.776,10.001 16.5,10.001 L15,10.001 L15,13.001 L17,13.001 L17,11.951 C18.14,11.718 19,10.709 19,9.501 C19,8.123 17.878,7.001 16.5,7.001 L15.5,7.001 C15.224,7.001 15,6.777 15,6.501 C15,6.226 15.224,6.001 15.5,6.001 L19,6.001 L19,4.001 L17,4.001 L17,3.001 L15,3.001 Z" id="Fill-95"></path>
                <path d="M4,20.001 L2,20.001 L2,14.001 L4,14.001 L4,20.001 Z M19,18.001 C19,18.553 18.551,19.001 18,19.001 L13,19.001 L13,21.001 L17,21.001 C17,21.553 16.551,22.001 16,22.001 L8.414,22.001 L6,19.587 L6,14.415 L8.414,12.001 L12,12.001 L12,13.001 C12,13.553 11.551,14.001 11,14.001 L9,14.001 L9,16.001 L11,16.001 C12.654,16.001 14,14.655 14,13.001 L14,11.001 C14,10.449 13.552,10.001 13,10.001 L8,10.001 C7.735,10.001 7.48,10.106 7.293,10.294 L5.46,12.128 C5.32,12.053 5.169,12.001 5,12.001 L1,12.001 C0.448,12.001 0,12.449 0,13.001 L0,21.001 C0,21.553 0.448,22.001 1,22.001 L5,22.001 C5.169,22.001 5.32,21.949 5.46,21.875 L7.293,23.708 C7.48,23.895 7.735,24.001 8,24.001 L16,24.001 C17.654,24.001 19,22.655 19,21.001 L19,20.817 C20.162,20.403 21,19.303 21,18.001 L21,17.001 L19,17.001 L19,18.001 Z" id="Fill-96"></path>
                <path d="M16,0.001 C11.589,0.001 8,3.59 8,8.001 C8,8.341 8.028,8.672 8.069,9.001 L10.09,9.001 C10.035,8.675 10,8.342 10,8.001 C10,4.693 12.691,2.001 16,2.001 C19.309,2.001 22,4.693 22,8.001 C22,11.31 19.309,14.001 16,14.001 C15.659,14.001 15.326,13.966 15,13.911 L15,15.932 C15.328,15.973 15.661,16.001 16,16.001 C20.411,16.001 24,12.412 24,8.001 C24,3.59 20.411,0.001 16,0.001" id="Fill-97"></path>
            </g>
        </g>
    </g>
</svg>