<?xml version="1.0" encoding="UTF-8"?>
<svg width="22px" height="18px" viewBox="0 0 22 18" version="1.1" xmlns="http://www.w3.org/2000/svg" xmlns:xlink="http://www.w3.org/1999/xlink">
    <!-- Generator: Sketch 42 (36781) - http://www.bohemiancoding.com/sketch -->
    <title>Fill 755 + Fill 756 + Fill 757</title>
    <desc>Created with Sketch.</desc>
    <defs></defs>
    <g id="Page-1" stroke="none" stroke-width="1" fill="none" fill-rule="evenodd">
        <g id="Line-Icons" transform="translate(-385.000000, -1203.000000)" fill="#767676">
            <g id="Fill-755-+-Fill-756-+-Fill-757" transform="translate(384.000000, 1202.000000)">
                <polygon id="Fill-755" points="15.998 0.999 3.998 0.999 3.998 2.999 15.998 2.999"></polygon>
                <path d="M20.998,8.2178 L14.921,9.7368 C14.812,9.1038 14.581,8.5128 14.236,7.9988 L20.998,7.9988 L20.998,8.2178 Z M10.498,12.9988 L6.498,12.9988 C5.12,12.9988 3.998,11.8768 3.998,10.4988 C3.998,9.1198 5.12,7.9988 6.498,7.9988 L10.498,7.9988 C11.877,7.9988 12.998,9.1198 12.998,10.4988 C12.998,11.8768 11.877,12.9988 10.498,12.9988 L10.498,12.9988 Z M10.998,16.9988 L6.998,16.9988 L6.998,14.9988 C11.197,14.9988 10.303,15.0268 10.998,14.9488 L10.998,16.9988 Z M20.998,3.9988 L20.998,5.9988 L10.998,5.9988 L10.998,3.9988 L8.998,3.9988 L8.998,5.9988 L6.498,5.9988 C4.017,5.9988 1.998,8.0168 1.998,10.4988 C1.998,12.4518 3.256,14.1008 4.998,14.7218 L4.998,16.9988 L3.998,16.9988 C3.447,16.9988 2.998,16.5498 2.998,15.9988 L2.998,14.9988 L0.998,14.9988 L0.998,15.9988 C0.998,17.6528 2.344,18.9988 3.998,18.9988 L15.998,18.9988 L15.998,16.9988 L12.998,16.9988 L12.998,14.2368 C13.84,13.6718 14.462,12.8228 14.773,11.8358 L22.241,9.9688 C22.685,9.8578 22.998,9.4578 22.998,8.9988 L22.998,3.9988 L20.998,3.9988 Z" id="Fill-756"></path>
                <path d="M6.498,8.9985 C5.67,8.9985 4.998,9.6705 4.998,10.4985 C4.998,11.3275 5.67,11.9985 6.498,11.9985 C7.327,11.9985 7.998,11.3275 7.998,10.4985 C7.998,9.6705 7.327,8.9985 6.498,8.9985" id="Fill-757"></path>
            </g>
        </g>
    </g>
</svg>