<?xml version="1.0" encoding="UTF-8"?>
<svg width="22px" height="20px" viewBox="0 0 22 20" version="1.1" xmlns="http://www.w3.org/2000/svg" xmlns:xlink="http://www.w3.org/1999/xlink">
    <!-- Generator: Sketch 42 (36781) - http://www.bohemiancoding.com/sketch -->
    <title>Fill 111 + Fill 112 + Fill 113</title>
    <desc>Created with Sketch.</desc>
    <defs></defs>
    <g id="Page-1" stroke="none" stroke-width="1" fill="none" fill-rule="evenodd">
        <g id="Line-Icons" transform="translate(-433.000000, -913.000000)" fill="#757575">
            <g id="Fill-111-+-Fill-112-+-Fill-113" transform="translate(433.000000, 913.000000)">
                <path d="M2,18.001 L2,6.001 L19.999,6.001 L19.997,18.001 L2,18.001 Z M5,4.001 L2,4.001 L2,2.001 L5,2.001 L5,4.001 Z M7,2.001 L10,2.001 L10,4.001 L7,4.001 L7,2.001 Z M20,4.001 L12,4.001 L12,2.001 L20,2.001 L20,4.001 Z M20,0.001 L2,0.001 C0.897,0.001 0,0.898 0,2.001 L0,18.001 C0,19.104 0.897,20.001 2,20.001 L20,20.001 C21.103,20.001 22,19.104 22,18.001 L22,2.001 C22,0.898 21.103,0.001 20,0.001 L20,0.001 Z" id="Fill-111"></path>
                <polygon id="Fill-112" points="12 15.001 17 15.001 17 13.001 12 13.001"></polygon>
                <polygon id="Fill-113" points="5.293 9.7083 7.586 12.0013 5.293 14.2953 6.707 15.7083 10.414 12.0013 6.707 8.2953"></polygon>
            </g>
        </g>
    </g>
</svg>