<?xml version="1.0" encoding="UTF-8"?>
<svg width="24px" height="20px" viewBox="0 0 24 20" version="1.1" xmlns="http://www.w3.org/2000/svg" xmlns:xlink="http://www.w3.org/1999/xlink">
    <!-- Generator: Sketch 42 (36781) - http://www.bohemiancoding.com/sketch -->
    <title>Fill 579 + Fill 580</title>
    <desc>Created with Sketch.</desc>
    <defs></defs>
    <g id="Page-1" stroke="none" stroke-width="1" fill="none" fill-rule="evenodd">
        <g id="Line-Icons" transform="translate(-48.000000, -913.000000)" fill="#757575">
            <g id="Fill-579-+-Fill-580" transform="translate(48.000000, 913.000000)">
                <path d="M21,18.001 L3,18.001 C2.91,18.001 2.749,17.875 2.728,17.788 L2.281,16.002 L8.586,16.002 L9.293,16.709 C9.48,16.897 9.735,17.002 10,17.002 L14,17.002 C14.265,17.002 14.52,16.897 14.707,16.709 L15.414,16.002 L21.719,16.002 L21.273,17.788 C21.251,17.875 21.09,18.001 21,18.001 L21,18.001 Z M3,2.001 L21,2.001 L21,14.002 L15,14.002 C14.735,14.002 14.48,14.108 14.293,14.295 L13.586,15.002 L10.414,15.002 L9.707,14.295 C9.52,14.108 9.265,14.002 9,14.002 L3,14.002 L3,2.001 Z M23.243,14.032 C23.161,14.012 23.081,14.021 23,14.021 L23,14.002 L23,1.001 C23,0.449 22.552,0.001 22,0.001 L2,0.001 C1.448,0.001 1,0.449 1,1.001 L1,14.002 L1,14.021 C0.919,14.021 0.839,14.012 0.757,14.032 C0.222,14.166 -0.104,14.709 0.03,15.245 L0.787,18.273 C1.033,19.258 1.985,20.001 3,20.001 L21,20.001 C22.015,20.001 22.967,19.258 23.213,18.273 L23.97,15.245 C24.104,14.709 23.778,14.166 23.243,14.032 L23.243,14.032 Z" id="Fill-579"></path>
                <path d="M13,6.5022 C13,6.7782 12.776,7.0022 12.5,7.0022 L11,7.0022 L11,6.0022 L12.5,6.0022 C12.776,6.0022 13,6.2262 13,6.5022 L13,6.5022 Z M12.5,10.0022 L11,10.0022 L11,9.0022 L12.5,9.0022 C12.776,9.0022 13,9.2262 13,9.5022 C13,9.7782 12.776,10.0022 12.5,10.0022 L12.5,10.0022 Z M11,12.0022 L11,13.0022 L13,13.0022 L13,11.9522 C14.14,11.7192 15,10.7092 15,9.5022 C15,8.9372 14.805,8.4212 14.487,8.0022 C14.805,7.5832 15,7.0672 15,6.5022 C15,5.2952 14.14,4.2862 13,4.0532 L13,3.0022 L11,3.0022 L11,4.0022 L9,4.0022 L9,12.0022 L11,12.0022 Z" id="Fill-580"></path>
            </g>
        </g>
    </g>
</svg>