<?xml version="1.0" encoding="UTF-8"?>
<svg width="16px" height="23px" viewBox="0 0 16 23" version="1.1" xmlns="http://www.w3.org/2000/svg" xmlns:xlink="http://www.w3.org/1999/xlink">
    <!-- Generator: Sketch 42 (36781) - http://www.bohemiancoding.com/sketch -->
    <title>Fill 636</title>
    <desc>Created with Sketch.</desc>
    <defs></defs>
    <g id="Page-1" stroke="none" stroke-width="1" fill="none" fill-rule="evenodd">
        <g id="Line-Icons" transform="translate(-3.000000, -1056.000000)" fill="#767676">
            <g id="Fill-636" transform="translate(3.000000, 1056.000000)">
                <path d="M12,13.002 L4,13.002 L4,7.002 L12,7.002 L12,13.002 Z M9.267,18.859 L10.564,17.192 L11.355,21.544 L9.267,18.859 Z M6.267,15.002 L9.733,15.002 L8,17.229 L6.267,15.002 Z M4.646,21.544 L5.437,17.192 L6.733,18.859 L4.646,21.544 Z M8,2.303 L11.238,5.002 L4.762,5.002 L8,2.303 Z M14,13.002 L14,7.002 C14.421,7.002 14.797,6.738 14.94,6.342 C15.084,5.946 14.963,5.502 14.64,5.234 L8.64,0.234 C8.269,-0.075 7.731,-0.075 7.36,0.234 L1.36,5.234 C1.037,5.502 0.917,5.946 1.06,6.342 C1.203,6.738 1.579,7.002 2,7.002 L2,13.002 L0,13.002 L0,15.002 L3.802,15.002 L2.347,23.002 L6.045,23.002 L8,20.488 L9.955,23.002 L13.653,23.002 L12.198,15.002 L16,15.002 L16,13.002 L14,13.002 Z"></path>
            </g>
        </g>
    </g>
</svg>