<?xml version="1.0" encoding="UTF-8"?>
<svg width="24px" height="19px" viewBox="0 0 24 19" version="1.1" xmlns="http://www.w3.org/2000/svg" xmlns:xlink="http://www.w3.org/1999/xlink">
    <!-- Generator: Sketch 42 (36781) - http://www.bohemiancoding.com/sketch -->
    <title>Fill 182</title>
    <desc>Created with Sketch.</desc>
    <defs></defs>
    <g id="Page-1" stroke="none" stroke-width="1" fill="none" fill-rule="evenodd">
        <g id="Line-Icons" transform="translate(-48.000000, -577.000000)" fill="#757575">
            <g id="Fill-182" transform="translate(48.000000, 577.000000)">
                <path d="M10.2187,16.3677 L7.2467,11.1677 L12.4137,6.0007 L20.5857,6.0007 L10.2187,16.3677 Z M16.1497,17.0007 L12.4137,17.0007 L14.0737,15.3407 L16.1497,17.0007 Z M3.0807,5.0007 L4.9997,2.6017 L4.9997,5.0007 L3.0807,5.0007 Z M10.6797,4.9077 L6.9997,8.5867 L6.9997,2.0007 L8.4997,2.0007 L10.6797,4.9077 Z M23.9237,4.6177 C23.7687,4.2437 23.4047,4.0007 22.9997,4.0007 L12.4997,4.0007 L9.7997,0.4007 C9.6117,0.1487 9.3147,0.0007 8.9997,0.0007 L4.9997,0.0007 C4.6967,0.0007 4.4087,0.1397 4.2197,0.3757 L0.2197,5.3757 C-0.0213,5.6777 -0.0683,6.0877 0.0987,6.4337 C0.2647,6.7797 0.6157,7.0007 0.9997,7.0007 L4.9997,7.0007 L4.9997,11.0007 C4.9997,11.1747 5.0457,11.3457 5.1317,11.4967 L9.1317,18.4967 C9.3097,18.8077 9.6407,19.0007 9.9997,19.0007 L18.9997,19.0007 C19.4247,19.0007 19.8037,18.7317 19.9437,18.3317 C20.0837,17.9317 19.9567,17.4847 19.6247,17.2197 L15.4967,13.9177 L23.7067,5.7067 C23.9937,5.4217 24.0787,4.9917 23.9237,4.6177 L23.9237,4.6177 Z"></path>
            </g>
        </g>
    </g>
</svg>