<?xml version="1.0" encoding="UTF-8"?>
<svg width="22px" height="22px" viewBox="0 0 22 22" version="1.1" xmlns="http://www.w3.org/2000/svg" xmlns:xlink="http://www.w3.org/1999/xlink">
    <!-- Generator: Sketch 42 (36781) - http://www.bohemiancoding.com/sketch -->
    <title>Fill 348 + Fill 349</title>
    <desc>Created with Sketch.</desc>
    <defs></defs>
    <g id="Page-1" stroke="none" stroke-width="1" fill="none" fill-rule="evenodd">
        <g id="Line-Icons" transform="translate(-97.000000, -240.000000)" fill="#757575">
            <g id="Fill-348-+-Fill-349" transform="translate(97.000000, 240.000000)">
                <path d="M18,20.0005 L14.443,20.0005 C14.788,19.4095 15,18.7315 15,18.0005 C15,15.7945 13.206,14.0005 11,14.0005 C8.794,14.0005 7,15.7945 7,18.0005 C7,18.7315 7.212,19.4095 7.557,20.0005 L4,20.0005 L4,19.0005 C4,16.2435 6.243,14.0005 9,14.0005 L11,14.0005 L13,14.0005 C15.757,14.0005 18,16.2435 18,19.0005 L18,20.0005 Z M9,18.0005 C9,16.8975 9.897,16.0005 11,16.0005 C12.103,16.0005 13,16.8975 13,18.0005 C13,19.1035 12.103,20.0005 11,20.0005 C9.897,20.0005 9,19.1035 9,18.0005 L9,18.0005 Z M14,12.0805 L14,10.0005 L12,10.0005 L12,12.0005 L10,12.0005 L10,10.0005 L8,10.0005 L8,12.0805 C4.613,12.5675 2,15.4805 2,19.0005 L2,22.0005 L20,22.0005 L20,19.0005 C20,15.4805 17.387,12.5675 14,12.0805 L14,12.0805 Z" id="Fill-348"></path>
                <path d="M17.3652,9.2935 L15.2422,7.1725 L17.3642,5.0515 L19.4852,7.1725 L17.3652,9.2935 Z M2.5142,7.1725 L4.6352,5.0505 L6.7582,7.1725 L4.6352,9.2935 L2.5142,7.1725 Z M20.8992,5.7585 L18.0712,2.9295 C14.1722,-0.9705 7.8282,-0.9705 3.9282,2.9295 L1.1002,5.7585 C0.7222,6.1365 0.5142,6.6385 0.5142,7.1725 C0.5142,7.7065 0.7222,8.2085 1.1002,8.5865 L3.2212,10.7075 C3.5992,11.0855 4.1012,11.2935 4.6352,11.2935 C5.1702,11.2935 5.6722,11.0855 6.0502,10.7075 L8.1722,8.5865 C8.5502,8.2085 8.7582,7.7065 8.7582,7.1725 C8.7582,6.6385 8.5502,6.1365 8.1722,5.7585 L6.0982,3.6865 C8.9732,1.4525 13.0262,1.4525 15.9012,3.6865 L13.8272,5.7595 C13.0502,6.5385 13.0502,7.8065 13.8282,8.5865 L15.9492,10.7075 C16.3272,11.0855 16.8292,11.2935 17.3642,11.2935 C17.8982,11.2935 18.4002,11.0855 18.7782,10.7075 L20.8992,8.5865 C21.6792,7.8075 21.6792,6.5385 20.8992,5.7585 L20.8992,5.7585 Z" id="Fill-349"></path>
            </g>
        </g>
    </g>
</svg>