<?xml version="1.0" encoding="UTF-8"?>
<svg width="16px" height="20px" viewBox="0 0 16 20" version="1.1" xmlns="http://www.w3.org/2000/svg" xmlns:xlink="http://www.w3.org/1999/xlink">
    <!-- Generator: Sketch 42 (36781) - http://www.bohemiancoding.com/sketch -->
    <title>Fill 789 + Fill 790</title>
    <desc>Created with Sketch.</desc>
    <defs></defs>
    <g id="Page-1" stroke="none" stroke-width="1" fill="none" fill-rule="evenodd">
        <g id="Line-Icons" transform="translate(-148.000000, -1345.000000)" fill="#767676">
            <g id="Fill-789-+-Fill-790" transform="translate(148.000000, 1345.000000)">
                <path d="M7.001,14.001 L14.001,14.001 L14.001,18.001 L7.001,18.001 L7.001,14.001 Z M2.001,2.001 L5.001,2.001 L5.001,9.001 L2.001,9.001 L2.001,2.001 Z M14.001,12.001 L7.001,12.001 L7.001,11.001 L14.001,11.001 L14.001,12.001 Z M15.001,9.001 L7.001,9.001 L7.001,1.001 C7.001,0.45 6.553,0.001 6.001,0.001 L2.001,0.001 C0.898,0.001 0.001,0.899 0.001,2.001 L0.001,9.001 C0.001,10.103 0.898,11.001 2.001,11.001 L5.001,11.001 L5.001,18.001 C5.001,19.103 5.898,20.001 7.001,20.001 L14.001,20.001 C15.104,20.001 16.001,19.103 16.001,18.001 L16.001,10.001 C16.001,9.45 15.553,9.001 15.001,9.001 L15.001,9.001 Z" id="Fill-789"></path>
                <path d="M12.001,2.855 C12.577,3.826 12.993,4.697 13.001,5.001 C13.001,5.553 12.552,6.001 12.001,6.001 C11.45,6.001 11.001,5.553 11.001,5.002 C11.009,4.697 11.425,3.826 12.001,2.855 M12.001,8.001 C13.655,8.001 15.001,6.655 15.001,5.001 C15.001,3.724 13.478,1.381 12.824,0.433 C12.451,-0.108 11.551,-0.108 11.178,0.433 C10.523,1.381 9.001,3.724 9.001,5.001 C9.001,6.655 10.347,8.001 12.001,8.001" id="Fill-790"></path>
            </g>
        </g>
    </g>
</svg>