<?xml version="1.0" encoding="UTF-8"?>
<svg width="20px" height="20px" viewBox="0 0 20 20" version="1.1" xmlns="http://www.w3.org/2000/svg" xmlns:xlink="http://www.w3.org/1999/xlink">
    <!-- Generator: Sketch 42 (36781) - http://www.bohemiancoding.com/sketch -->
    <title>Fill 455</title>
    <desc>Created with Sketch.</desc>
    <defs></defs>
    <g id="Page-1" stroke="none" stroke-width="1" fill="none" fill-rule="evenodd">
        <g id="Line-Icons" transform="translate(-434.000000, -577.000000)" fill="#757575">
            <g id="Fill-455" transform="translate(434.000000, 577.000000)">
                <path d="M17.1982,13.4697 L14.0422,8.0027 L17.7372,8.0027 C17.9022,8.6427 18.0002,9.3107 18.0002,10.0027 C18.0002,11.2457 17.7062,12.4187 17.1982,13.4697 L17.1982,13.4697 Z M10.5952,17.9717 L14.0412,12.0027 L15.9582,15.3227 C14.6162,16.8237 12.7222,17.8127 10.5952,17.9717 L10.5952,17.9717 Z M3.0822,14.0027 L10.5772,14.0027 L8.3652,17.8327 C6.1102,17.3627 4.2052,15.9357 3.0822,14.0027 L3.0822,14.0027 Z M2.8022,6.5337 L5.9582,12.0027 L2.2632,12.0027 C2.0972,11.3617 2.0002,10.6937 2.0002,10.0027 C2.0002,8.7597 2.2932,7.5847 2.8022,6.5337 L2.8022,6.5337 Z M9.4062,2.0317 L5.9582,8.0027 L4.0422,4.6817 C5.3842,3.1807 7.2782,2.1887 9.4062,2.0317 L9.4062,2.0317 Z M12.8862,10.0027 L11.7322,12.0027 L8.2672,12.0027 L7.1132,10.0027 L8.2682,8.0027 L11.7322,8.0027 L12.8862,10.0027 Z M16.9172,6.0027 L9.4232,6.0027 L11.6352,2.1717 C13.8902,2.6417 15.7952,4.0687 16.9172,6.0027 L16.9172,6.0027 Z M10.0002,0.0027 C4.4862,0.0027 0.0002,4.4877 0.0002,10.0027 C0.0002,15.5167 4.4862,20.0017 10.0002,20.0017 C15.5142,20.0017 20.0002,15.5167 20.0002,10.0027 C20.0002,4.4877 15.5142,0.0027 10.0002,0.0027 L10.0002,0.0027 Z"></path>
            </g>
        </g>
    </g>
</svg>