<?xml version="1.0" encoding="UTF-8"?>
<svg width="20px" height="20px" viewBox="0 0 20 20" version="1.1" xmlns="http://www.w3.org/2000/svg" xmlns:xlink="http://www.w3.org/1999/xlink">
    <!-- Generator: Sketch 42 (36781) - http://www.bohemiancoding.com/sketch -->
    <title>Fill 841 + Fill 842 + Fill 843</title>
    <desc>Created with Sketch.</desc>
    <defs></defs>
    <g id="Page-1" stroke="none" stroke-width="1" fill="none" fill-rule="evenodd">
        <g id="Line-Icons" transform="translate(-242.000000, -1489.000000)" fill="#767676">
            <g id="Fill-841-+-Fill-842-+-Fill-843" transform="translate(242.000000, 1489.000000)">
                <path d="M3.0288,7.5005 L7.2398,4.3425 L6.1338,6.5535 C6.0648,6.6915 6.0288,6.8455 6.0288,7.0005 L6.0288,8.0005 L3.0288,8.0005 L3.0288,7.5005 Z M17.0288,8.0005 L14.0288,8.0005 L14.0288,7.0025 C14.0288,6.8475 13.9928,6.6935 13.9238,6.5555 L12.8168,4.3415 L17.0288,7.5005 L17.0288,8.0005 Z M10.0288,3.2365 L12.0288,7.2385 L12.0288,8.0005 L8.0288,8.0005 L8.0288,7.2365 L10.0288,3.2365 Z M17.9988,10.0005 C18.5508,10.0005 18.9988,9.5525 18.9988,9.0005 L18.9988,7.0005 C18.9988,6.6865 18.8508,6.3895 18.5988,6.2005 L10.6288,0.2005 C10.2738,-0.0655 9.7838,-0.0655 9.4288,0.2005 L1.3988,6.2005 C1.1468,6.3895 0.9988,6.6865 0.9988,7.0005 L0.9988,9.0005 C0.9988,9.5525 1.4468,10.0005 1.9988,10.0005 L9.0288,10.0005 L9.0288,20.0005 L10.9988,20.0005 L10.9988,10.0005 L17.9988,10.0005 Z" id="Fill-841"></path>
                <path d="M18.0586,12.7578 L17.2476,16.0008 L14.0286,16.0008 C13.4766,16.0008 13.0286,16.4488 13.0286,17.0008 L13.0286,20.0008 L14.9986,20.0008 L14.9986,18.0008 L17.0286,18.0008 L17.0286,20.0008 L18.9986,20.0008 L18.9986,17.1238 L19.9986,13.2438 L18.0586,12.7578 Z" id="Fill-842"></path>
                <path d="M5.999,16.0005 L2.81,16.0005 L1.999,12.7575 L0.059,13.2435 L0.999,17.1235 L0.999,20.0005 L2.999,20.0005 L2.999,18.0005 L5.029,18.0005 L5.029,20.0005 L6.999,20.0005 L6.999,17.0005 C6.999,16.4485 6.551,16.0005 5.999,16.0005" id="Fill-843"></path>
            </g>
        </g>
    </g>
</svg>