<?xml version="1.0" encoding="UTF-8"?>
<svg width="20px" height="24px" viewBox="0 0 20 24" version="1.1" xmlns="http://www.w3.org/2000/svg" xmlns:xlink="http://www.w3.org/1999/xlink">
    <!-- Generator: Sketch 42 (36781) - http://www.bohemiancoding.com/sketch -->
    <title>Fill 588 + Fill 589 + Fill 590</title>
    <desc>Created with Sketch.</desc>
    <defs></defs>
    <g id="Page-1" stroke="none" stroke-width="1" fill="none" fill-rule="evenodd">
        <g id="Line-Icons" transform="translate(-50.000000, -959.000000)" fill="#767676">
            <g id="Fill-588-+-Fill-589-+-Fill-590" transform="translate(50.000000, 959.000000)">
                <path d="M10.001,2.0029 C9.45,2.0029 9.001,2.4519 9.001,3.0029 C9.001,3.5549 9.45,4.0029 10.001,4.0029 C10.552,4.0029 11.001,3.5549 11.001,3.0029 C11.001,2.4519 10.552,2.0029 10.001,2.0029 M10.001,6.0029 C8.347,6.0029 7.001,4.6569 7.001,3.0029 C7.001,1.3489 8.347,0.0029 10.001,0.0029 C11.655,0.0029 13.001,1.3489 13.001,3.0029 C13.001,4.6569 11.655,6.0029 10.001,6.0029" id="Fill-588"></path>
                <path d="M9.001,18.0029 L11.001,18.0029 L11.001,14.0029 C11.001,13.4509 11.449,13.0029 12.001,13.0029 L13.001,13.0029 L13.001,12.0029 C13.001,10.3489 11.655,9.0029 10.001,9.0029 C8.347,9.0029 7.001,10.3489 7.001,12.0029 L7.001,13.0029 L8.001,13.0029 C8.553,13.0029 9.001,13.4509 9.001,14.0029 L9.001,18.0029 Z M12.001,20.0029 L8.001,20.0029 C7.449,20.0029 7.001,19.5549 7.001,19.0029 L7.001,15.0029 L6.001,15.0029 C5.449,15.0029 5.001,14.5549 5.001,14.0029 L5.001,12.0029 C5.001,9.2459 7.244,7.0029 10.001,7.0029 C12.758,7.0029 15.001,9.2459 15.001,12.0029 L15.001,14.0029 C15.001,14.5549 14.553,15.0029 14.001,15.0029 L13.001,15.0029 L13.001,19.0029 C13.001,19.5549 12.553,20.0029 12.001,20.0029 L12.001,20.0029 Z" id="Fill-589"></path>
                <path d="M10.001,24.0029 C5.185,24.0029 0.001,22.7519 0.001,20.0029 C0.001,19.0339 0.668,17.6859 3.842,16.7709 L4.396,18.6929 C2.418,19.2639 2.001,19.9009 2.001,20.0029 C2.001,20.5179 4.752,22.0029 10.001,22.0029 C15.25,22.0029 18.001,20.5179 18.001,20.0029 C18.001,19.9069 17.612,19.2989 15.762,18.7389 L16.342,16.8259 C19.366,17.7409 20.001,19.0589 20.001,20.0029 C20.001,22.7519 14.817,24.0029 10.001,24.0029" id="Fill-590"></path>
            </g>
        </g>
    </g>
</svg>