<?xml version="1.0" encoding="UTF-8"?>
<svg width="24px" height="16px" viewBox="0 0 24 16" version="1.1" xmlns="http://www.w3.org/2000/svg" xmlns:xlink="http://www.w3.org/1999/xlink">
    <!-- Generator: Sketch 42 (36781) - http://www.bohemiancoding.com/sketch -->
    <title>Fill 732</title>
    <desc>Created with Sketch.</desc>
    <defs></defs>
    <g id="Page-1" stroke="none" stroke-width="1" fill="none" fill-rule="evenodd">
        <g id="Line-Icons" transform="translate(-192.000000, -1203.000000)" fill="#767676">
            <g id="Fill-732" transform="translate(192.000000, 1203.000000)">
                <path d="M17.9995,4.0005 L17.9995,12.0005 L21.9995,12.0005 L21.9995,14.0005 L12.9995,14.0005 L12.9995,11.8585 C14.7195,11.4105 15.9995,9.8585 15.9995,8.0005 C15.9995,6.1425 14.7195,4.5905 12.9995,4.1425 L12.9995,2.0005 L21.9995,2.0005 L21.9995,4.0005 L17.9995,4.0005 Z M21.9995,10.0005 L19.9995,10.0005 L19.9995,6.0005 L21.9995,6.0005 L21.9995,10.0005 Z M1.9995,12.0005 L5.9995,12.0005 L5.9995,4.0005 L1.9995,4.0005 L1.9995,2.0005 L10.9995,2.0005 L10.9995,4.1425 C9.2795,4.5905 7.9995,6.1425 7.9995,8.0005 C7.9995,9.8585 9.2795,11.4105 10.9995,11.8585 L10.9995,14.0005 L1.9995,14.0005 L1.9995,12.0005 Z M1.9995,6.0005 L3.9995,6.0005 L3.9995,10.0005 L1.9995,10.0005 L1.9995,6.0005 Z M11.9995,10.0005 C10.8965,10.0005 9.9995,9.1035 9.9995,8.0005 C9.9995,6.8975 10.8965,6.0005 11.9995,6.0005 C13.1025,6.0005 13.9995,6.8975 13.9995,8.0005 C13.9995,9.1035 13.1025,10.0005 11.9995,10.0005 L11.9995,10.0005 Z M22.9995,0.0005 L0.9995,0.0005 C0.4475,0.0005 -0.0005,0.4485 -0.0005,1.0005 L-0.0005,15.0005 C-0.0005,15.5525 0.4475,16.0005 0.9995,16.0005 L22.9995,16.0005 C23.5515,16.0005 23.9995,15.5525 23.9995,15.0005 L23.9995,1.0005 C23.9995,0.4485 23.5515,0.0005 22.9995,0.0005 L22.9995,0.0005 Z"></path>
            </g>
        </g>
    </g>
</svg>