<?xml version="1.0" encoding="UTF-8"?>
<svg width="20px" height="18px" viewBox="0 0 20 18" version="1.1" xmlns="http://www.w3.org/2000/svg" xmlns:xlink="http://www.w3.org/1999/xlink">
    <!-- Generator: Sketch 42 (36781) - http://www.bohemiancoding.com/sketch -->
    <title>Fill 280 + Fill 281 + Fill 282</title>
    <desc>Created with Sketch.</desc>
    <defs></defs>
    <g id="Page-1" stroke="none" stroke-width="1" fill="none" fill-rule="evenodd">
        <g id="Line-Icons" transform="translate(-50.000000, -50.000000)" fill="#757575">
            <g id="Fill-280-+-Fill-281-+-Fill-282" transform="translate(50.000000, 50.000000)">
                <path d="M17,2.0005 C17.551,2.0005 18,2.4485 18,3.0005 C18,3.5525 17.551,4.0005 17,4.0005 C16.449,4.0005 16,3.5525 16,3.0005 C16,2.4485 16.449,2.0005 17,2.0005 M17,6.0005 C18.654,6.0005 20,4.6545 20,3.0005 C20,1.3465 18.654,0.0005 17,0.0005 C15.698,0.0005 14.599,0.8385 14.185,2.0005 L0,2.0005 L0,4.0005 L14.185,4.0005 C14.599,5.1625 15.698,6.0005 17,6.0005" id="Fill-280"></path>
                <path d="M7,10.0005 C6.449,10.0005 6,9.5525 6,9.0005 C6,8.4485 6.449,8.0005 7,8.0005 C7.551,8.0005 8,8.4485 8,9.0005 C8,9.5525 7.551,10.0005 7,10.0005 M7,6.0005 C5.698,6.0005 4.599,6.8385 4.185,8.0005 L0,8.0005 L0,10.0005 L4.185,10.0005 C4.599,11.1625 5.698,12.0005 7,12.0005 C8.302,12.0005 9.401,11.1625 9.815,10.0005 L20,10.0005 L20,8.0005 L9.815,8.0005 C9.401,6.8385 8.302,6.0005 7,6.0005" id="Fill-281"></path>
                <path d="M17,16.0005 C16.449,16.0005 16,15.5525 16,15.0005 C16,14.4485 16.449,14.0005 17,14.0005 C17.551,14.0005 18,14.4485 18,15.0005 C18,15.5525 17.551,16.0005 17,16.0005 M17,12.0005 C15.698,12.0005 14.599,12.8385 14.185,14.0005 L0,14.0005 L0,16.0005 L14.185,16.0005 C14.599,17.1625 15.698,18.0005 17,18.0005 C18.654,18.0005 20,16.6545 20,15.0005 C20,13.3465 18.654,12.0005 17,12.0005" id="Fill-282"></path>
            </g>
        </g>
    </g>
</svg>