<?xml version="1.0" encoding="UTF-8"?>
<svg width="24px" height="24px" viewBox="0 0 24 24" version="1.1" xmlns="http://www.w3.org/2000/svg" xmlns:xlink="http://www.w3.org/1999/xlink">
    <!-- Generator: Sketch 42 (36781) - http://www.bohemiancoding.com/sketch -->
    <title>Fill 872</title>
    <desc>Created with Sketch.</desc>
    <defs></defs>
    <g id="Page-1" stroke="none" stroke-width="1" fill="none" fill-rule="evenodd">
        <g id="Line-Icons" transform="translate(-192.000000, -1535.000000)" fill="#767676">
            <g id="Fill-872" transform="translate(192.000000, 1535.000000)">
                <path d="M18.6182,15.0005 L20.0002,12.2365 L21.3822,15.0005 L18.6182,15.0005 Z M12.9402,21.7685 C11.3472,21.3605 10.0002,20.3275 10.0002,18.0005 C10.0002,15.6735 11.3472,14.6405 12.9402,14.2325 C12.4432,15.1985 12.0002,16.4845 12.0002,18.0005 C12.0002,19.5165 12.4432,20.8025 12.9402,21.7685 L12.9402,21.7685 Z M6.0002,12.0005 C6.0002,13.1025 5.1032,14.0005 4.0002,14.0005 C2.8972,14.0005 2.0002,13.1025 2.0002,12.0005 C2.0002,10.8965 2.8972,10.0005 4.0002,10.0005 C5.1032,10.0005 6.0002,10.8965 6.0002,12.0005 L6.0002,12.0005 Z M23.8942,15.5535 L21.0002,9.7645 L21.0002,6.0005 L23.0002,6.0005 L23.0002,4.0005 L13.0002,4.0005 L13.0002,0.0005 L11.0002,0.0005 L11.0002,4.0005 L1.0002,4.0005 L1.0002,6.0005 L3.0002,6.0005 L3.0002,8.1425 C1.2802,8.5905 0.0002,10.1425 0.0002,12.0005 C0.0002,14.2065 1.7942,16.0005 4.0002,16.0005 C6.2052,16.0005 8.0002,14.2065 8.0002,12.0005 C8.0002,10.1425 6.7202,8.5905 5.0002,8.1425 L5.0002,6.0005 L11.0002,6.0005 L11.0002,12.8415 C9.0772,13.8135 8.0002,15.5955 8.0002,18.0005 C8.0002,21.7575 10.6172,24.0005 15.0002,24.0005 C15.4042,24.0005 15.7692,23.7575 15.9242,23.3835 C16.0782,23.0095 15.9932,22.5795 15.7072,22.2935 C15.6902,22.2765 14.0002,20.5565 14.0002,18.0005 C14.0002,15.4745 15.6932,13.7225 15.7072,13.7075 C15.9932,13.4215 16.0782,12.9915 15.9242,12.6175 C15.7692,12.2445 15.4042,12.0005 15.0002,12.0005 C14.2832,12.0005 13.6192,12.0665 13.0002,12.1835 L13.0002,6.0005 L19.0002,6.0005 L19.0002,9.7645 L16.1052,15.5535 C15.9512,15.8635 15.9672,16.2315 16.1492,16.5265 C16.3312,16.8205 16.6532,17.0005 17.0002,17.0005 L23.0002,17.0005 C23.3472,17.0005 23.6682,16.8205 23.8502,16.5265 C24.0332,16.2315 24.0492,15.8635 23.8942,15.5535 L23.8942,15.5535 Z"></path>
            </g>
        </g>
    </g>
</svg>