<?xml version="1.0" encoding="UTF-8"?>
<svg width="14px" height="20px" viewBox="0 0 14 20" version="1.1" xmlns="http://www.w3.org/2000/svg" xmlns:xlink="http://www.w3.org/1999/xlink">
    <!-- Generator: Sketch 42 (36781) - http://www.bohemiancoding.com/sketch -->
    <title>Fill 292 + Fill 293</title>
    <desc>Created with Sketch.</desc>
    <defs></defs>
    <g id="Page-1" stroke="none" stroke-width="1" fill="none" fill-rule="evenodd">
        <g id="Line-Icons" transform="translate(-293.000000, -49.000000)" fill="#757575">
            <g id="Fill-292-+-Fill-293" transform="translate(293.000000, 49.000000)">
                <path d="M12,3.1729 C12,3.4349 11.893,3.6929 11.707,3.8799 L7,8.5869 L2.293,3.8799 C2.107,3.6929 2,3.4349 2,3.1729 L2,2.0009 L12,2.0009 L12,3.1729 Z M12,16.8299 L12,18.0009 L2,18.0009 L2,16.8299 C2,16.5619 2.104,16.3109 2.293,16.1219 L7,11.4149 L11.707,16.1219 C11.896,16.3109 12,16.5619 12,16.8299 L12,16.8299 Z M14,3.1729 L14,1.0009 C14,0.4489 13.552,0.0009 13,0.0009 L1,0.0009 C0.448,0.0009 0,0.4489 0,1.0009 L0,3.1729 C0,3.9629 0.32,4.7349 0.879,5.2939 L5.586,10.0009 L0.879,14.7079 C0.312,15.2749 0,16.0279 0,16.8299 L0,19.0009 C0,19.5529 0.448,20.0009 1,20.0009 L13,20.0009 C13.552,20.0009 14,19.5529 14,19.0009 L14,16.8299 C14,16.0279 13.688,15.2749 13.121,14.7079 L8.414,10.0009 L13.121,5.2939 C13.68,4.7349 14,3.9629 14,3.1729 L14,3.1729 Z" id="Fill-292"></path>
                <polygon id="Fill-293" points="4 17.0005 7 14.0005 10 17.0005"></polygon>
            </g>
        </g>
    </g>
</svg>