<?xml version="1.0" encoding="UTF-8"?>
<svg width="18px" height="20px" viewBox="0 0 18 20" version="1.1" xmlns="http://www.w3.org/2000/svg" xmlns:xlink="http://www.w3.org/1999/xlink">
    <!-- Generator: Sketch 42 (36781) - http://www.bohemiancoding.com/sketch -->
    <title>Fill 869 + Fill 870 + Fill 871</title>
    <desc>Created with Sketch.</desc>
    <defs></defs>
    <g id="Page-1" stroke="none" stroke-width="1" fill="none" fill-rule="evenodd">
        <g id="Line-Icons" transform="translate(-147.000000, -1537.000000)" fill="#767676">
            <g id="Fill-869-+-Fill-870-+-Fill-871" transform="translate(146.000000, 1537.000000)">
                <path d="M11.2549,13.0005 L4.7199,13.0005 L3.3859,9.0005 L12.4549,9.0005 L11.2549,13.0005 Z M6.9989,5.5865 L4.3989,2.9855 C5.0999,2.3805 6.0019,2.0005 6.9989,2.0005 L6.9989,5.5865 Z M2.9989,6.0005 C2.9989,5.5285 3.0959,5.0825 3.2469,4.6625 L5.5849,7.0005 L2.9989,7.0005 L2.9989,6.0005 Z M14.9989,3.0005 C14.5579,3.0005 14.1679,3.2905 14.0409,3.7135 L13.0549,7.0005 L8.9989,7.0005 L8.9989,1.0005 C8.9989,0.4485 8.5509,0.0005 7.9989,0.0005 L6.9989,0.0005 C3.6909,0.0005 0.9989,2.6915 0.9989,6.0005 C0.9989,6.3155 0.9969,7.7125 1.0039,8.0275 C1.0069,8.1245 1.0189,8.2225 1.0499,8.3165 L3.0499,14.3165 C3.1869,14.7255 3.5689,15.0005 3.9989,15.0005 L11.9989,15.0005 C12.4409,15.0005 12.8299,14.7105 12.9569,14.2875 L15.7429,5.0005 L18.9989,5.0005 L18.9989,3.0005 L14.9989,3.0005 Z" id="Fill-869"></path>
                <path d="M4.999,16.0005 C3.895,16.0005 2.999,16.8965 2.999,18.0005 C2.999,19.1055 3.895,20.0005 4.999,20.0005 C6.104,20.0005 6.999,19.1055 6.999,18.0005 C6.999,16.8965 6.104,16.0005 4.999,16.0005" id="Fill-870"></path>
                <path d="M10.999,16.0005 C9.895,16.0005 8.999,16.8965 8.999,18.0005 C8.999,19.1055 9.895,20.0005 10.999,20.0005 C12.104,20.0005 12.999,19.1055 12.999,18.0005 C12.999,16.8965 12.104,16.0005 10.999,16.0005" id="Fill-871"></path>
            </g>
        </g>
    </g>
</svg>