<?xml version="1.0" encoding="UTF-8"?>
<svg width="16px" height="23px" viewBox="0 0 16 23" version="1.1" xmlns="http://www.w3.org/2000/svg" xmlns:xlink="http://www.w3.org/1999/xlink">
    <!-- Generator: Sketch 42 (36781) - http://www.bohemiancoding.com/sketch -->
    <title>Fill 311 + Fill 312 + Fill 313</title>
    <desc>Created with Sketch.</desc>
    <defs></defs>
    <g id="Page-1" stroke="none" stroke-width="1" fill="none" fill-rule="evenodd">
        <g id="Line-Icons" transform="translate(-4.000000, -192.000000)" fill="#757575">
            <g id="Fill-311-+-Fill-312-+-Fill-313" transform="translate(4.000000, 192.000000)">
                <path d="M11,9.0005 C11,10.6545 9.654,12.0005 8,12.0005 C6.346,12.0005 5,10.6545 5,9.0005 L11,9.0005 Z M5,2.0005 L11,2.0005 L11,7.0005 L5,7.0005 L5,2.0005 Z M8,14.0005 C10.757,14.0005 13,11.7575 13,9.0005 L13,7.0005 L13,2.0005 C13,0.8975 12.103,0.0005 11,0.0005 L5,0.0005 C3.897,0.0005 3,0.8975 3,2.0005 L3,7.0005 L3,9.0005 C3,11.7575 5.243,14.0005 8,14.0005 L8,14.0005 Z" id="Fill-311"></path>
                <path d="M7,21.0005 L7,17.0515 C7.323,17.0205 7.655,17.0005 8,17.0005 C11.533,17.0005 14,18.6455 14,21.0005 L7,21.0005 Z M5,17.4715 L5,21.0005 L2,21.0005 C2,19.3945 3.149,18.1195 5,17.4715 L5,17.4715 Z M8,15.0005 C3.29,15.0005 0,17.4675 0,21.0005 L0,23.0005 L16,23.0005 L16,21.0005 C16,17.4675 12.71,15.0005 8,15.0005 L8,15.0005 Z" id="Fill-312"></path>
                <path d="M9,18.0005 C8.448,18.0005 8,18.4485 8,19.0005 C8,19.5535 8.448,20.0005 9,20.0005 C9.552,20.0005 10,19.5535 10,19.0005 C10,18.4485 9.552,18.0005 9,18.0005" id="Fill-313"></path>
            </g>
        </g>
    </g>
</svg>