<?xml version="1.0" encoding="UTF-8"?>
<svg width="9px" height="20px" viewBox="0 0 9 20" version="1.1" xmlns="http://www.w3.org/2000/svg" xmlns:xlink="http://www.w3.org/1999/xlink">
    <!-- Generator: Sketch 42 (36781) - http://www.bohemiancoding.com/sketch -->
    <title>Fill 84</title>
    <desc>Created with Sketch.</desc>
    <defs></defs>
    <g id="Page-1" stroke="none" stroke-width="1" fill="none" fill-rule="evenodd">
        <g id="Line-Icons" transform="translate(-343.000000, -1107.000000)" fill="#767676">
            <g id="Fill-84" transform="translate(342.000000, 1107.000000)">
                <path d="M2.999,18.0005 L2.999,17.0005 L8,17.0005 L8,18.0005 L2.999,18.0005 Z M3.999,4.5665 L6.999,2.7665 L6.999,11.0005 L3.999,11.0005 L3.999,4.5665 Z M2.999,13.0005 L7.999,13.0005 L8,13.0005 L8,15.0005 L2.999,15.0005 L2.999,13.0005 Z M8.999,11.0005 L8.999,1.0005 C8.999,0.6405 8.805,0.3085 8.492,0.1305 C8.179,-0.0475 7.793,-0.0435 7.484,0.1435 L2.484,3.1435 C2.183,3.3235 1.999,3.6495 1.999,4.0005 L1.999,11.0005 L0.999,11.0005 L0.999,18.0005 C0.999,19.1035 1.896,20.0005 2.999,20.0005 L7.999,20.0005 C9.102,20.0005 9.999,19.1035 9.999,18.0005 L9.999,11.0005 L8.999,11.0005 Z"></path>
            </g>
        </g>
    </g>
</svg>