<?xml version="1.0" encoding="UTF-8"?>
<svg width="14px" height="21px" viewBox="0 0 14 21" version="1.1" xmlns="http://www.w3.org/2000/svg" xmlns:xlink="http://www.w3.org/1999/xlink">
    <!-- Generator: Sketch 42 (36781) - http://www.bohemiancoding.com/sketch -->
    <title>Fill 839 + Fill 840</title>
    <desc>Created with Sketch.</desc>
    <defs></defs>
    <g id="Page-1" stroke="none" stroke-width="1" fill="none" fill-rule="evenodd">
        <g id="Line-Icons" transform="translate(-149.000000, -1488.000000)" fill="#767676">
            <g id="Fill-839-+-Fill-840" transform="translate(148.000000, 1488.000000)">
                <path d="M4.3979,9.0005 C3.8139,6.9725 3.3669,4.4745 3.9009,3.3545 C4.0369,3.0685 4.3199,2.8255 4.5699,2.9895 C5.4859,3.5825 6.2729,6.4345 6.7129,9.0005 L9.2849,9.0005 C9.7239,6.4355 10.5099,3.5825 11.4279,2.9895 C11.6779,2.8255 11.9609,3.0695 12.0969,3.3545 C12.6299,4.4715 12.1829,6.9705 11.5999,9.0005 L13.6769,9.0005 C14.2139,6.9855 14.7059,4.1775 13.9019,2.4935 C13.5639,1.7835 13.0149,1.2855 12.3149,1.0515 C11.6349,0.8265 10.9529,0.9145 10.3399,1.3105 C9.2669,2.0065 8.5149,3.7125 7.9989,5.5115 C7.4829,3.7125 6.7309,2.0065 5.6579,1.3105 C5.0459,0.9145 4.3629,0.8255 3.6829,1.0515 C2.9829,1.2855 2.4349,1.7835 2.0959,2.4935 C1.2929,4.1775 1.7839,6.9855 2.3209,9.0005 L4.3979,9.0005 Z" id="Fill-839"></path>
                <path d="M10.999,13.001 L4.999,13.001 L4.999,12.001 L10.999,12.001 L10.999,13.001 Z M4.999,15.001 L10.999,15.001 L10.999,19.001 L4.999,19.001 L4.999,15.001 Z M14.999,10.001 L0.999,10.001 L0.999,12.001 L2.999,12.001 L2.999,20.001 C2.999,20.552 3.447,21.001 3.999,21.001 L11.999,21.001 C12.551,21.001 12.999,20.552 12.999,20.001 L12.999,12.001 L14.999,12.001 L14.999,10.001 Z" id="Fill-840"></path>
            </g>
        </g>
    </g>
</svg>