<?xml version="1.0" encoding="UTF-8"?>
<svg width="14px" height="21px" viewBox="0 0 14 21" version="1.1" xmlns="http://www.w3.org/2000/svg" xmlns:xlink="http://www.w3.org/1999/xlink">
    <!-- Generator: Sketch 42 (36781) - http://www.bohemiancoding.com/sketch -->
    <title>Fill 687 + Fill 688</title>
    <desc>Created with Sketch.</desc>
    <defs></defs>
    <g id="Page-1" stroke="none" stroke-width="1" fill="none" fill-rule="evenodd">
        <g id="Line-Icons" transform="translate(-293.000000, -1153.000000)" fill="#767676">
            <g id="Fill-687-+-Fill-688" transform="translate(292.000000, 1153.000000)">
                <path d="M11.2788,19.0005 L4.7198,19.0005 L3.3868,15.0005 L12.6118,15.0005 L11.2788,19.0005 Z M5.9998,10.0005 C5.4478,10.0005 4.9998,9.5515 4.9998,9.0005 C4.9998,8.4835 5.5718,7.9375 5.7678,7.7905 C6.0598,7.5765 6.2128,7.2215 6.1688,6.8615 C6.1258,6.5025 5.8898,6.1945 5.5548,6.0575 C4.8448,5.7665 4.0728,5.2285 3.9998,5.0005 C3.9988,4.2735 4.8358,3.7425 5.5118,4.1495 C5.8418,4.3495 6.2568,4.3265 6.5798,4.1125 C6.9018,3.8985 7.0698,3.5035 7.0138,3.1215 C7.0088,3.0815 6.9998,3.0425 6.9998,3.0005 C6.9998,2.4495 7.4478,2.0005 7.9998,2.0005 C8.5508,2.0005 8.9998,2.4495 8.9998,3.0005 C8.9988,3.0425 8.9898,3.0815 8.9808,3.1515 C8.9258,3.5345 9.0958,3.9135 9.4178,4.1275 C9.7398,4.3405 10.1548,4.3505 10.4858,4.1505 C11.1688,3.7395 11.9988,4.2835 12.0028,4.9715 C11.9268,5.2285 11.1558,5.7665 10.4458,6.0565 C10.1118,6.1925 9.8798,6.4995 9.8338,6.8565 C9.7878,7.2135 9.9388,7.5695 10.2268,7.7865 C10.4268,7.9375 10.9998,8.4835 10.9998,9.0005 C10.9998,9.5515 10.5508,10.0005 9.9998,10.0005 C9.4478,10.0005 8.9998,9.5515 8.9998,9.0005 C8.9998,8.4485 8.5518,8.0005 7.9998,8.0005 C7.4468,8.0005 6.9998,8.4485 6.9998,9.0005 C6.9998,9.5515 6.5508,10.0005 5.9998,10.0005 L5.9998,10.0005 Z M14.8108,13.4165 C14.6228,13.1555 14.3208,13.0005 13.9998,13.0005 L8.9998,13.0005 L8.9998,11.8215 C9.3138,11.9335 9.6478,12.0005 9.9998,12.0005 C11.6538,12.0005 12.9998,10.6555 12.9998,9.0005 C12.9998,8.3165 12.7448,7.7265 12.4378,7.2655 C13.2068,6.7635 13.9998,6.0025 13.9998,5.0005 C13.9998,3.2895 12.5278,1.9035 10.8298,2.0055 C10.4188,0.8385 9.3048,0.0005 7.9998,0.0005 C6.6938,0.0005 5.5808,0.8385 5.1688,2.0055 C3.4738,1.9055 1.9998,3.2895 1.9998,5.0005 C1.9998,6.0005 2.7928,6.7615 3.5618,7.2645 C3.2548,7.7265 2.9998,8.3155 2.9998,9.0005 C2.9998,10.6555 4.3448,12.0005 5.9998,12.0005 C6.3508,12.0005 6.6858,11.9335 6.9998,11.8215 L6.9998,13.0005 L1.9998,13.0005 C1.6778,13.0005 1.3768,13.1555 1.1888,13.4165 C1.0008,13.6775 0.9488,14.0115 1.0508,14.3165 L3.0508,20.3165 C3.1868,20.7255 3.5688,21.0005 3.9998,21.0005 L11.9998,21.0005 C12.4298,21.0005 12.8118,20.7255 12.9478,20.3165 L14.9478,14.3165 C15.0498,14.0115 14.9988,13.6775 14.8108,13.4165 L14.8108,13.4165 Z" id="Fill-687"></path>
                <path d="M9.9995,6.0005 C9.9995,4.8975 9.1025,4.0005 7.9995,4.0005 C6.8965,4.0005 5.9995,4.8975 5.9995,6.0005 C5.9995,7.1035 6.8965,8.0005 7.9995,8.0005 C9.1025,8.0005 9.9995,7.1035 9.9995,6.0005" id="Fill-688"></path>
            </g>
        </g>
    </g>
</svg>