<?xml version="1.0" encoding="UTF-8"?>
<svg width="19px" height="18px" viewBox="0 0 19 18" version="1.1" xmlns="http://www.w3.org/2000/svg" xmlns:xlink="http://www.w3.org/1999/xlink">
    <!-- Generator: Sketch 42 (36781) - http://www.bohemiancoding.com/sketch -->
    <title>Fill 483 + Fill 484</title>
    <desc>Created with Sketch.</desc>
    <defs></defs>
    <g id="Page-1" stroke="none" stroke-width="1" fill="none" fill-rule="evenodd">
        <g id="Line-Icons" transform="translate(-243.000000, -626.000000)" fill="#757575">
            <g id="Fill-483-+-Fill-484" transform="translate(243.000000, 626.000000)">
                <path d="M16.9995,13.9565 L10.6285,9.0015 L16.9995,4.0455 L16.9995,13.9565 Z M17.8795,2.2495 C17.2115,1.9215 16.3615,2.0075 15.7715,2.4665 L9.3995,7.4225 C8.9105,7.8045 8.6285,8.3795 8.6285,9.0005 C8.6285,9.6215 8.9105,10.1965 9.4005,10.5785 L15.7725,15.5355 C16.3675,15.9985 17.1825,16.0935 17.8795,15.7525 C18.5605,15.4185 18.9995,14.7135 18.9995,13.9555 L18.9995,4.0455 C18.9995,3.2875 18.5605,2.5825 17.8795,2.2495 L17.8795,2.2495 Z" id="Fill-483"></path>
                <path d="M2,16.0005 L2,2.0005 L4,2.0005 L4.001,16.0005 L2,16.0005 Z M4,0.0005 L2,0.0005 C0.897,0.0005 0,0.8965 0,2.0005 L0,16.0005 C0,17.1035 0.897,18.0005 2,18.0005 L4,18.0005 C5.103,18.0005 6,17.1035 6,16.0005 L6,2.0005 C6,0.8965 5.103,0.0005 4,0.0005 L4,0.0005 Z" id="Fill-484"></path>
            </g>
        </g>
    </g>
</svg>