<?xml version="1.0" encoding="UTF-8"?>
<svg width="24px" height="19px" viewBox="0 0 24 19" version="1.1" xmlns="http://www.w3.org/2000/svg" xmlns:xlink="http://www.w3.org/1999/xlink">
    <!-- Generator: Sketch 42 (36781) - http://www.bohemiancoding.com/sketch -->
    <title>Fill 568 + Fill 569 + Fill 570</title>
    <desc>Created with Sketch.</desc>
    <defs></defs>
    <g id="Page-1" stroke="none" stroke-width="1" fill="none" fill-rule="evenodd">
        <g id="Line-Icons" transform="translate(-96.000000, -818.000000)" fill="#757575">
            <g id="Fill-568-+-Fill-569-+-Fill-570" transform="translate(96.000000, 818.000000)">
                <path d="M14.3257,17.0005 L15.7547,12.0005 L20.2457,12.0005 L21.6747,17.0005 L14.3257,17.0005 Z M23.9617,17.7265 L21.9617,10.7265 C21.8387,10.2965 21.4467,10.0005 20.9997,10.0005 L14.9997,10.0005 C14.5537,10.0005 14.1607,10.2965 14.0387,10.7265 L12.0387,17.7265 C11.9517,18.0275 12.0127,18.3525 12.2017,18.6025 C12.3907,18.8535 12.6857,19.0005 12.9997,19.0005 L22.9997,19.0005 C23.3137,19.0005 23.6097,18.8535 23.7987,18.6025 C23.9877,18.3525 24.0477,18.0275 23.9617,17.7265 L23.9617,17.7265 Z" id="Fill-568"></path>
                <path d="M2.3257,17.0005 L3.7547,12.0005 L8.2457,12.0005 L9.6747,17.0005 L2.3257,17.0005 Z M9.9617,10.7265 C9.8387,10.2965 9.4467,10.0005 8.9997,10.0005 L2.9997,10.0005 C2.5537,10.0005 2.1607,10.2965 2.0387,10.7265 L0.0387,17.7265 C-0.0483,18.0275 0.0127,18.3525 0.2017,18.6025 C0.3907,18.8535 0.6857,19.0005 0.9997,19.0005 L10.9997,19.0005 C11.3137,19.0005 11.6097,18.8535 11.7987,18.6025 C11.9877,18.3525 12.0477,18.0275 11.9617,17.7265 L9.9617,10.7265 Z" id="Fill-569"></path>
                <path d="M9.7544,2.001 L14.2454,2.001 L15.6744,7.001 L8.3254,7.001 L9.7544,2.001 Z M7.0004,9.001 L17.0004,9.001 C17.3144,9.001 17.6094,8.854 17.7984,8.604 C17.9874,8.353 18.0484,8.029 17.9614,7.727 L15.9614,0.727 C15.8394,0.297 15.4464,0.001 15.0004,0.001 L9.0004,0.001 C8.5534,0.001 8.1614,0.297 8.0384,0.727 L6.0384,7.727 C5.9524,8.029 6.0124,8.353 6.2014,8.604 C6.3904,8.854 6.6864,9.001 7.0004,9.001 L7.0004,9.001 Z" id="Fill-570"></path>
            </g>
        </g>
    </g>
</svg>