<?xml version="1.0" encoding="UTF-8"?>
<svg width="24px" height="24px" viewBox="0 0 24 24" version="1.1" xmlns="http://www.w3.org/2000/svg" xmlns:xlink="http://www.w3.org/1999/xlink">
    <!-- Generator: Sketch 42 (36781) - http://www.bohemiancoding.com/sketch -->
    <title>Fill 254 + Fill 255 + Fill 256</title>
    <desc>Created with Sketch.</desc>
    <defs></defs>
    <g id="Page-1" stroke="none" stroke-width="1" fill="none" fill-rule="evenodd">
        <g id="Line-Icons" transform="translate(-336.000000, -95.000000)" fill="#757575">
            <g id="Fill-254-+-Fill-255-+-Fill-256" transform="translate(336.000000, 95.000000)">
                <path d="M14,16.0005 L14.001,22.0005 L2,22.0005 L2,14.9435 L7.419,18.8145 C7.593,18.9385 7.796,19.0005 8,19.0005 C8.204,19.0005 8.407,18.9385 8.581,18.8145 L12,16.3725 L12,14.0005 L11.879,14.0005 L8,16.7715 L4.121,14.0005 L8,14.0005 L8,12.0005 L2,12.0005 C0.897,12.0005 0,12.8985 0,14.0005 L0,22.0005 C0,23.1035 0.897,24.0005 2,24.0005 L14,24.0005 C15.103,24.0005 16,23.1035 16,22.0005 L16,16.0005 L14,16.0005 Z" id="Fill-254"></path>
                <path d="M17,2.0005 C14.243,2.0005 12,4.2435 12,7.0005 C12,9.7575 14.243,12.0005 17,12.0005 C19.757,12.0005 22,9.7575 22,7.0005 C22,4.2435 19.757,2.0005 17,2.0005 M17,14.0005 C13.14,14.0005 10,10.8605 10,7.0005 C10,3.1405 13.14,0.0005 17,0.0005 C20.86,0.0005 24,3.1405 24,7.0005 C24,10.8605 20.86,14.0005 17,14.0005" id="Fill-255"></path>
                <polygon id="Fill-256" points="20 8.0005 16 8.0005 16 3.0005 18 3.0005 18 6.0005 20 6.0005"></polygon>
            </g>
        </g>
    </g>
</svg>