<?xml version="1.0" encoding="UTF-8"?>
<svg width="16px" height="21px" viewBox="0 0 16 21" version="1.1" xmlns="http://www.w3.org/2000/svg" xmlns:xlink="http://www.w3.org/1999/xlink">
    <!-- Generator: Sketch 42 (36781) - http://www.bohemiancoding.com/sketch -->
    <title>Fill 733</title>
    <desc>Created with Sketch.</desc>
    <defs></defs>
    <g id="Page-1" stroke="none" stroke-width="1" fill="none" fill-rule="evenodd">
        <g id="Line-Icons" transform="translate(-340.000000, -1201.000000)" fill="#767676">
            <g id="Fill-733" transform="translate(339.000000, 1200.000000)">
                <path d="M9.6597,18.9985 L8.3367,18.9985 L6.6747,15.6735 C7.4097,15.8835 8.1897,15.9985 8.9977,15.9985 C9.8067,15.9985 10.5857,15.8835 11.3217,15.6735 L9.6597,18.9985 Z M2.9977,8.4985 C2.9977,6.5785 4.0787,4.8875 5.7097,3.9035 C5.4117,5.2815 5.2477,6.8655 5.2477,8.4985 C5.2477,10.1525 5.4097,11.7215 5.7067,13.0925 C4.0767,12.1075 2.9977,10.4175 2.9977,8.4985 L2.9977,8.4985 Z M10.5577,3.1935 C10.9987,4.6515 11.2477,6.5335 11.2477,8.4985 C11.2477,10.4625 10.9987,12.3445 10.5577,13.8035 C10.0597,13.9275 9.5377,13.9985 8.9977,13.9985 C8.4577,13.9985 7.9367,13.9275 7.4387,13.8035 C6.9977,12.3455 6.7477,10.4635 6.7477,8.4985 C6.7477,6.5275 6.9977,4.6505 7.4387,3.1935 C7.9367,3.0695 8.4577,2.9985 8.9977,2.9985 C9.5387,2.9985 10.0597,3.0695 10.5577,3.1935 L10.5577,3.1935 Z M14.9977,8.4985 C14.9977,10.4175 13.9187,12.1075 12.2887,13.0925 C12.5867,11.7205 12.7477,10.1515 12.7477,8.4985 C12.7477,6.8445 12.5867,5.2755 12.2897,3.9045 C13.9187,4.8895 14.9977,6.5795 14.9977,8.4985 L14.9977,8.4985 Z M16.9977,8.4985 C16.9977,4.3625 13.4097,0.9985 8.9977,0.9985 C4.5867,0.9985 0.9977,4.3625 0.9977,8.4985 C0.9977,11.0765 2.3937,13.3535 4.5127,14.7055 L6.6597,18.9985 L5.9977,18.9985 L6.9977,21.9985 L10.9977,21.9985 L11.9977,18.9985 L11.3367,18.9985 L13.4837,14.7055 C15.6027,13.3535 16.9977,11.0765 16.9977,8.4985 L16.9977,8.4985 Z"></path>
            </g>
        </g>
    </g>
</svg>