<?xml version="1.0" encoding="UTF-8"?>
<svg width="20px" height="20px" viewBox="0 0 20 20" version="1.1" xmlns="http://www.w3.org/2000/svg" xmlns:xlink="http://www.w3.org/1999/xlink">
    <!-- Generator: Sketch 42 (36781) - http://www.bohemiancoding.com/sketch -->
    <title>Fill 724</title>
    <desc>Created with Sketch.</desc>
    <defs></defs>
    <g id="Page-1" stroke="none" stroke-width="1" fill="none" fill-rule="evenodd">
        <g id="Line-Icons" transform="translate(-146.000000, -1201.000000)" fill="#767676">
            <g id="Fill-724" transform="translate(145.000000, 1201.000000)">
                <path d="M16.0796,9.0025 C16.2646,7.7215 16.7996,6.5225 17.6276,5.5285 C18.3156,6.5445 18.7696,7.7275 18.9296,9.0025 L16.0796,9.0025 Z M11.9986,11.0025 L14.0546,11.0025 C14.2606,12.8625 15.0486,14.5935 16.2916,15.9855 C15.1156,17.0265 13.6356,17.7275 11.9986,17.9335 L11.9986,11.0025 Z M7.9406,11.0025 L9.9986,11.0025 L9.9986,17.9335 C8.3656,17.7275 6.8876,17.0295 5.7126,15.9905 C6.9526,14.5995 7.7336,12.8555 7.9406,11.0025 L7.9406,11.0025 Z M9.9986,9.0025 L7.9436,9.0025 C7.7376,7.1425 6.9496,5.4105 5.7066,4.0195 C6.8826,2.9775 8.3626,2.2775 9.9986,2.0715 L9.9986,9.0025 Z M11.9986,9.0025 L11.9986,2.0715 C13.6346,2.2775 15.1146,2.9775 16.2906,4.0195 C15.0486,5.4105 14.2616,7.1445 14.0556,9.0025 L11.9986,9.0025 Z M4.3706,5.5275 C5.1996,6.5205 5.7346,7.7185 5.9186,9.0025 L3.0686,9.0025 C3.2286,7.7275 3.6826,6.5445 4.3706,5.5275 L4.3706,5.5275 Z M3.0686,11.0025 L5.9176,11.0025 C5.7326,12.2815 5.1966,13.4825 4.3696,14.4765 C3.6816,13.4605 3.2286,12.2765 3.0686,11.0025 L3.0686,11.0025 Z M17.6276,14.4775 C16.7986,13.4835 16.2636,12.2865 16.0786,11.0025 L18.9296,11.0025 C18.7696,12.2765 18.3156,13.4605 17.6276,14.4775 L17.6276,14.4775 Z M10.9986,0.0025 C5.4846,0.0025 0.9986,4.4885 0.9986,10.0025 C0.9986,15.5165 5.4846,20.0025 10.9986,20.0025 C16.5136,20.0025 20.9986,15.5165 20.9986,10.0025 C20.9986,4.4885 16.5136,0.0025 10.9986,0.0025 L10.9986,0.0025 Z"></path>
            </g>
        </g>
    </g>
</svg>