<?xml version="1.0" encoding="UTF-8"?>
<svg width="20px" height="20px" viewBox="0 0 20 20" version="1.1" xmlns="http://www.w3.org/2000/svg" xmlns:xlink="http://www.w3.org/1999/xlink">
    <!-- Generator: Sketch 42 (36781) - http://www.bohemiancoding.com/sketch -->
    <title>Fill 848 + Fill 849 + Fill 850</title>
    <desc>Created with Sketch.</desc>
    <defs></defs>
    <g id="Page-1" stroke="none" stroke-width="1" fill="none" fill-rule="evenodd">
        <g id="Line-Icons" transform="translate(-194.000000, -1489.000000)" fill="#767676">
            <g id="Fill-848-+-Fill-849-+-Fill-850" transform="translate(193.000000, 1489.000000)">
                <path d="M18.999,6.0025 L15.534,6.0025 L13.744,3.3165 L18.999,5.6525 L18.999,6.0025 Z M8.868,6.0025 L10.999,2.8055 L13.13,6.0025 L8.868,6.0025 Z M2.999,5.6525 L8.254,3.3165 L6.464,6.0025 L2.999,6.0025 L2.999,5.6525 Z M20.999,7.0025 L20.999,5.0025 C20.999,4.6075 20.766,4.2485 20.405,4.0885 L11.405,0.0885 C11.147,-0.0255 10.852,-0.0255 10.593,0.0885 L1.593,4.0885 C1.232,4.2485 0.999,4.6075 0.999,5.0025 L0.999,7.0025 C0.999,7.5555 1.447,8.0025 1.999,8.0025 L9.999,8.0025 L9.999,18.0025 L0.999,18.0025 L0.999,20.0025 L20.999,20.0025 L20.999,18.0025 L11.999,18.0025 L11.999,8.0025 L19.999,8.0025 C20.551,8.0025 20.999,7.5555 20.999,7.0025 L20.999,7.0025 Z" id="Fill-848"></path>
                <path d="M16.9985,15.0025 C16.7515,15.0025 15.9985,15.0025 15.9985,14.0025 L17.9985,14.0025 C17.9985,14.8985 17.4285,15.0025 16.9985,15.0025 L16.9985,15.0025 Z M14.9985,12.0025 C14.4465,12.0025 13.9985,12.4505 13.9985,13.0025 L13.9985,14.0025 C13.9985,15.7965 15.2045,17.0025 16.9985,17.0025 L17.0005,17.0025 C18.7935,17.0025 19.9985,15.7965 19.9985,14.0025 L19.9985,13.0025 C19.9985,12.4505 19.5515,12.0025 18.9985,12.0025 L14.9985,12.0025 Z" id="Fill-849"></path>
                <path d="M3.999,14.0025 L5.999,14.0025 C5.999,14.7965 5.794,15.0025 4.998,15.0025 C4.205,15.0025 3.999,14.7965 3.999,14.0025 L3.999,14.0025 Z M5.001,17.0025 C6.906,17.0025 7.999,15.9085 7.999,14.0025 L7.999,13.0025 C7.999,12.4505 7.551,12.0025 6.999,12.0025 L2.999,12.0025 C2.447,12.0025 1.999,12.4505 1.999,13.0025 L1.999,14.0025 C1.999,15.9095 3.092,17.0025 4.999,17.0025 L5.001,17.0025 Z" id="Fill-850"></path>
            </g>
        </g>
    </g>
</svg>