<?xml version="1.0" encoding="UTF-8"?>
<svg width="18px" height="22px" viewBox="0 0 18 22" version="1.1" xmlns="http://www.w3.org/2000/svg" xmlns:xlink="http://www.w3.org/1999/xlink">
    <!-- Generator: Sketch 42 (36781) - http://www.bohemiancoding.com/sketch -->
    <title>Fill 883 + Fill 884</title>
    <desc>Created with Sketch.</desc>
    <defs></defs>
    <g id="Page-1" stroke="none" stroke-width="1" fill="none" fill-rule="evenodd">
        <g id="Line-Icons" transform="translate(-3.000000, -1632.000000)" fill="#757575">
            <g id="Fill-883-+-Fill-884" transform="translate(3.000000, 1632.000000)">
                <polygon id="Fill-883" points="4 9.0005 4 13.0005 6 13.0005 6 11.0005 8 11.0005 8 16.0005 6 16.0005 6 18.0005 12 18.0005 12 16.0005 10 16.0005 10 11.0005 12 11.0005 12 13.0005 14 13.0005 14 9.0005"></polygon>
                <path d="M2,20.0005 L2,2.0005 L12,2.0005 L12,6.0005 L16,6.0005 L16.002,20.0005 L2,20.0005 Z M13.414,0.0005 L2,0.0005 C0.897,0.0005 0,0.8985 0,2.0005 L0,20.0005 C0,21.1025 0.897,22.0005 2,22.0005 L16,22.0005 C17.103,22.0005 18,21.1025 18,20.0005 L18,4.5865 L13.414,0.0005 Z" id="Fill-884"></path>
            </g>
        </g>
    </g>
</svg>