<?xml version="1.0" encoding="UTF-8"?>
<svg width="16px" height="16px" viewBox="0 0 16 16" version="1.1" xmlns="http://www.w3.org/2000/svg" xmlns:xlink="http://www.w3.org/1999/xlink">
    <!-- Generator: Sketch 42 (36781) - http://www.bohemiancoding.com/sketch -->
    <title>Fill 379</title>
    <desc>Created with Sketch.</desc>
    <defs></defs>
    <g id="Page-1" stroke="none" stroke-width="1" fill="none" fill-rule="evenodd">
        <g id="Line-Icons" transform="translate(-340.000000, -291.000000)" fill="#757575">
            <g id="Fill-379" transform="translate(340.000000, 291.000000)">
                <path d="M5.437,11.1489 L2.581,2.5819 L11.149,5.4369 L5.437,11.1489 Z M15.707,14.2939 L10.414,9.0009 L13.707,5.7069 C13.952,5.4619 14.053,5.1079 13.973,4.7709 C13.894,4.4339 13.645,4.1619 13.316,4.0519 L1.316,0.0519 C0.957,-0.0671 0.56,0.0249 0.293,0.2939 C0.025,0.5609 -0.068,0.9569 0.051,1.3169 L4.051,13.3169 C4.161,13.6449 4.433,13.8939 4.77,13.9739 C4.847,13.9919 4.923,14.0009 5,14.0009 C5.262,14.0009 5.518,13.8969 5.707,13.7069 L9,10.4149 L14.293,15.7069 L15.707,14.2939 Z"></path>
            </g>
        </g>
    </g>
</svg>