<?xml version="1.0" encoding="UTF-8"?>
<svg width="22px" height="20px" viewBox="0 0 22 20" version="1.1" xmlns="http://www.w3.org/2000/svg" xmlns:xlink="http://www.w3.org/1999/xlink">
    <!-- Generator: Sketch 42 (36781) - http://www.bohemiancoding.com/sketch -->
    <title>Fill 17</title>
    <desc>Created with Sketch.</desc>
    <defs></defs>
    <g id="Page-1" stroke="none" stroke-width="1" fill="none" fill-rule="evenodd">
        <g id="Line-Icons" transform="translate(-193.000000, -1057.000000)" fill="#767676">
            <g id="Fill-17" transform="translate(193.000000, 1057.000000)">
                <path d="M20,18.0005 L16,18.0005 L16,17.5005 C16,16.1225 14.878,15.0005 13.5,15.0005 C12.122,15.0005 11,16.1225 11,17.5005 L11,18.0005 L9,18.0005 L9,17.5015 C9,16.1225 7.878,15.0005 6.499,15.0005 C5.12,15.0005 3.998,16.1225 3.998,17.5015 L3.998,18.0005 L2,18.0005 L2,14.0005 L4.998,14.0005 C5.55,14.0005 5.998,13.5525 5.998,13.0005 L5.998,11.5015 C5.998,11.2255 6.223,11.0005 6.499,11.0005 C6.775,11.0005 7,11.2255 7,11.5015 L7,13.0005 C7,13.5525 7.448,14.0005 8,14.0005 L12,14.0005 C12.552,14.0005 13,13.5525 13,13.0005 L13,11.5005 C13,11.2255 13.224,11.0005 13.5,11.0005 C13.776,11.0005 14,11.2255 14,11.5005 L14,13.0005 C14,13.5525 14.448,14.0005 15,14.0005 L20,14.0005 L20,18.0005 Z M2,2.0005 L11,2.0005 L11,6.0005 L9,6.0005 L9,5.5015 C9,4.1225 7.878,3.0005 6.499,3.0005 C5.12,3.0005 3.998,4.1225 3.998,5.5015 L3.998,6.0005 L2,6.0005 L2,2.0005 Z M17,8.0005 L17,12.0005 L16,12.0005 L16,11.5005 C16,10.1225 14.878,9.0005 13.5,9.0005 C12.122,9.0005 11,10.1225 11,11.5005 L11,12.0005 L9,12.0005 L9,11.5015 C9,10.1225 7.878,9.0005 6.499,9.0005 C5.12,9.0005 3.998,10.1225 3.998,11.5015 L3.998,12.0005 L2,12.0005 L2,8.0005 L4.998,8.0005 C5.55,8.0005 5.998,7.5525 5.998,7.0005 L5.998,5.5015 C5.998,5.2255 6.223,5.0005 6.499,5.0005 C6.775,5.0005 7,5.2255 7,5.5015 L7,7.0005 C7,7.5525 7.448,8.0005 8,8.0005 L17,8.0005 Z M21,12.0005 L19,12.0005 L19,7.0005 C19,6.4485 18.552,6.0005 18,6.0005 L13,6.0005 L13,1.0005 C13,0.4485 12.552,0.0005 12,0.0005 L1,0.0005 C0.448,0.0005 0,0.4485 0,1.0005 L0,19.0005 C0,19.5525 0.448,20.0005 1,20.0005 L4.998,20.0005 C5.55,20.0005 5.998,19.5525 5.998,19.0005 L5.998,17.5015 C5.998,17.2255 6.223,17.0005 6.499,17.0005 C6.775,17.0005 7,17.2255 7,17.5015 L7,19.0005 C7,19.5525 7.448,20.0005 8,20.0005 L12,20.0005 C12.552,20.0005 13,19.5525 13,19.0005 L13,17.5005 C13,17.2255 13.224,17.0005 13.5,17.0005 C13.776,17.0005 14,17.2255 14,17.5005 L14,19.0005 C14,19.5525 14.448,20.0005 15,20.0005 L21,20.0005 C21.552,20.0005 22,19.5525 22,19.0005 L22,13.0005 C22,12.4485 21.552,12.0005 21,12.0005 L21,12.0005 Z"></path>
            </g>
        </g>
    </g>
</svg>