<?xml version="1.0" encoding="UTF-8"?>
<svg width="24px" height="18px" viewBox="0 0 24 18" version="1.1" xmlns="http://www.w3.org/2000/svg" xmlns:xlink="http://www.w3.org/1999/xlink">
    <!-- Generator: Sketch 42 (36781) - http://www.bohemiancoding.com/sketch -->
    <title>Fill 637</title>
    <desc>Created with Sketch.</desc>
    <defs></defs>
    <g id="Page-1" stroke="none" stroke-width="1" fill="none" fill-rule="evenodd">
        <g id="Line-Icons" transform="translate(-48.000000, -1059.000000)" fill="#767676">
            <g id="Fill-637" transform="translate(48.000000, 1059.000000)">
                <path d="M19,16.0015 L19,13.0015 L15,13.0015 L15,16.0015 L14,16.0015 L14,9.6195 L17,8.1195 L20,9.6195 L20,16.0015 L19,16.0015 Z M5,12.0015 L8,12.0015 L8,16.0015 L5,16.0015 L5,12.0015 Z M6.5,2.0015 C7.327,2.0015 8,2.6745 8,3.5015 L8,5.0015 L5,5.0015 L5,3.5015 C5,2.6745 5.673,2.0015 6.5,2.0015 L6.5,2.0015 Z M8,10.0015 L5,10.0015 L5,7.0015 L8,7.0015 L8,10.0015 Z M22,16.0015 L22,9.0015 C22,8.6225 21.786,8.2765 21.447,8.1065 L17.447,6.1065 C17.166,5.9665 16.834,5.9665 16.553,6.1065 L12.553,8.1065 C12.214,8.2765 12,8.6225 12,9.0015 L12,16.0015 L10,16.0015 L10,3.5015 C10,1.5715 8.43,0.0015 6.5,0.0015 C4.57,0.0015 3,1.5715 3,3.5015 L3,16.0015 L0,16.0015 L0,18.0015 L24,18.0015 L24,16.0015 L22,16.0015 Z"></path>
            </g>
        </g>
    </g>
</svg>