<?xml version="1.0" encoding="UTF-8"?>
<svg width="20px" height="20px" viewBox="0 0 20 20" version="1.1" xmlns="http://www.w3.org/2000/svg" xmlns:xlink="http://www.w3.org/1999/xlink">
    <!-- Generator: Sketch 42 (36781) - http://www.bohemiancoding.com/sketch -->
    <title>Fill 531</title>
    <desc>Created with Sketch.</desc>
    <defs></defs>
    <g id="Page-1" stroke="none" stroke-width="1" fill="none" fill-rule="evenodd">
        <g id="Line-Icons" transform="translate(-2.000000, -721.000000)" fill="#757575">
            <g id="Fill-531" transform="translate(2.000000, 721.000000)">
                <path d="M10,9.3408 C8.483,8.4628 6.768,8.0008 5,8.0008 C4.31,8.0008 3.628,8.0718 2.96,8.2128 C4.327,5.6618 7.001,4.0008 10,4.0008 C12.999,4.0008 15.673,5.6618 17.04,8.2128 C14.663,7.7118 12.109,8.1198 10,9.3408 M19.691,9.5708 C18.658,5.4408 15.16,2.4698 11,2.0548 L11,0.0008 L9,0.0008 L9,2.0548 C4.84,2.4698 1.342,5.4408 0.309,9.5708 C0.216,9.9428 0.344,10.3368 0.64,10.5818 C0.935,10.8278 1.345,10.8828 1.694,10.7238 C4.048,9.6508 6.796,9.8208 8.996,11.0898 L8.996,17.5008 C8.996,18.8798 10.118,20.0008 11.496,20.0008 C12.874,20.0008 13.996,18.8798 13.996,17.5008 L13.996,17.0008 L11.996,17.0008 L11.996,17.5008 C11.996,17.7768 11.772,18.0008 11.496,18.0008 C11.22,18.0008 10.996,17.7768 10.996,17.5008 L10.996,11.0948 C13.197,9.8208 15.95,9.6488 18.306,10.7238 C18.655,10.8828 19.065,10.8278 19.36,10.5818 C19.656,10.3368 19.784,9.9428 19.691,9.5708"></path>
            </g>
        </g>
    </g>
</svg>