<?xml version="1.0" encoding="UTF-8"?>
<svg width="16px" height="21px" viewBox="0 0 16 21" version="1.1" xmlns="http://www.w3.org/2000/svg" xmlns:xlink="http://www.w3.org/1999/xlink">
    <!-- Generator: Sketch 42 (36781) - http://www.bohemiancoding.com/sketch -->
    <title>Fill 753 + Fill 754</title>
    <desc>Created with Sketch.</desc>
    <defs></defs>
    <g id="Page-1" stroke="none" stroke-width="1" fill="none" fill-rule="evenodd">
        <g id="Line-Icons" transform="translate(-244.000000, -1249.000000)" fill="#767676">
            <g id="Fill-753-+-Fill-754" transform="translate(244.000000, 1249.000000)">
                <path d="M4.9927,3.062 C5.1217,2.738 6.3927,2.002 8.0007,2.002 C9.6097,2.002 10.8797,2.738 11.0007,3.002 C11.0007,3.781 10.4497,6.002 8.0007,6.002 C5.5517,6.002 5.0007,3.781 4.9927,3.062 L4.9927,3.062 Z M13.0007,13.002 L13.0007,16.002 L11.0007,16.002 L11.0007,14.002 C11.0007,12.348 9.6557,11.002 8.0007,11.002 C6.3467,11.002 5.0007,12.348 5.0007,14.002 L5.0007,16.002 L3.0007,16.002 L3.0007,13.002 C3.0007,10.246 5.2437,8.002 8.0007,8.002 C10.7577,8.002 13.0007,10.246 13.0007,13.002 L13.0007,13.002 Z M9.0007,18.002 C9.0007,18.554 8.5517,19.002 8.0007,19.002 C7.4497,19.002 7.0007,18.554 7.0007,18.002 L7.0007,14.002 C7.0007,13.452 7.4497,13.002 8.0007,13.002 C8.5517,13.002 9.0007,13.452 9.0007,14.002 L9.0007,18.002 Z M12.8857,4.002 L16.0007,4.002 L16.0007,2.002 L12.6977,2.002 C11.9417,0.788 9.8877,0.002 8.0007,0.002 C6.1147,0.002 4.0607,0.788 3.3047,2.002 L0.0007,2.002 L0.0007,4.002 L3.1157,4.002 C3.3297,4.998 3.8597,6.042 4.7337,6.817 C2.5157,7.993 1.0007,10.323 1.0007,13.002 L1.0007,17.002 C1.0007,17.555 1.4487,18.002 2.0007,18.002 L5.0007,18.002 C5.0007,19.657 6.3467,21.002 8.0007,21.002 C9.6557,21.002 11.0007,19.657 11.0007,18.002 L14.0007,18.002 C14.5527,18.002 15.0007,17.555 15.0007,17.002 L15.0007,13.002 C15.0007,10.323 13.4857,7.993 11.2687,6.817 C12.1427,6.042 12.6717,4.998 12.8857,4.002 L12.8857,4.002 Z" id="Fill-753"></path>
                <path d="M8.001,3.0025 C7.449,3.0025 7.001,3.4495 7.001,4.0025 C7.001,4.5555 7.449,5.0025 8.001,5.0025 C8.553,5.0025 9.001,4.5555 9.001,4.0025 C9.001,3.4495 8.553,3.0025 8.001,3.0025" id="Fill-754"></path>
            </g>
        </g>
    </g>
</svg>