<?xml version="1.0" encoding="UTF-8"?>
<svg width="24px" height="24px" viewBox="0 0 24 24" version="1.1" xmlns="http://www.w3.org/2000/svg" xmlns:xlink="http://www.w3.org/1999/xlink">
    <!-- Generator: Sketch 42 (36781) - http://www.bohemiancoding.com/sketch -->
    <title>Fill 585</title>
    <desc>Created with Sketch.</desc>
    <defs></defs>
    <g id="Page-1" stroke="none" stroke-width="1" fill="none" fill-rule="evenodd">
        <g id="Line-Icons" transform="translate(-432.000000, -719.000000)" fill="#757575">
            <g id="Fill-585" transform="translate(432.000000, 719.000000)">
                <path d="M12.9019,11.0991 C12.7929,10.0731 12.8179,9.0471 12.9999,8.0491 L15.9509,11.0011 C14.9539,11.1821 13.9279,11.2071 12.9019,11.0991 L12.9019,11.0991 Z M4.0289,14.6361 C4.6139,14.2461 5.2289,13.9161 5.8729,13.6511 L10.3499,18.1281 C10.0849,18.7721 9.7539,19.3871 9.3649,19.9721 L4.0289,14.6361 Z M11.0989,12.9031 C11.2079,13.9281 11.1829,14.9541 11.0019,15.9521 L8.0489,12.9991 C9.0469,12.8181 10.0729,12.7931 11.0989,12.9031 L11.0989,12.9031 Z M19.9709,9.3651 C19.3869,9.7531 18.7719,10.0841 18.1279,10.3501 L13.6509,5.8721 C13.9169,5.2291 14.2469,4.6141 14.6359,4.0301 L19.9709,9.3651 Z M22.2539,7.4051 L21.6189,8.0381 C21.5949,8.0631 21.5669,8.0821 21.5419,8.1071 L15.8939,2.4591 C15.9179,2.4341 15.9379,2.4061 15.9629,2.3811 L16.5959,1.7471 L15.1819,0.3331 L14.5479,0.9671 C11.9279,3.5881 10.6059,7.2111 10.8659,10.8671 C7.2109,10.6081 3.5869,11.9281 0.9669,14.5491 L0.3329,15.1831 L1.7469,16.5971 L2.3809,15.9621 C2.4059,15.9381 2.4339,15.9181 2.4589,15.8941 L8.1069,21.5421 C8.0829,21.5671 8.0629,21.5951 8.0379,21.6201 L7.4039,22.2531 L8.8189,23.6671 L9.4519,23.0341 C12.0729,20.4131 13.3939,16.7901 13.1349,13.1351 C16.7919,13.3961 20.4129,12.0741 23.0329,9.4521 L23.6679,8.8191 L22.2539,7.4051 Z"></path>
            </g>
        </g>
    </g>
</svg>