<?xml version="1.0" encoding="UTF-8"?>
<svg width="22px" height="18px" viewBox="0 0 22 18" version="1.1" xmlns="http://www.w3.org/2000/svg" xmlns:xlink="http://www.w3.org/1999/xlink">
    <!-- Generator: Sketch 42 (36781) - http://www.bohemiancoding.com/sketch -->
    <title>Fill 473 + Fill 474 + Fill 475</title>
    <desc>Created with Sketch.</desc>
    <defs></defs>
    <g id="Page-1" stroke="none" stroke-width="1" fill="none" fill-rule="evenodd">
        <g id="Line-Icons" transform="translate(-49.000000, -626.000000)" fill="#757575">
            <g id="Fill-473-+-Fill-474-+-Fill-475" transform="translate(49.000000, 626.000000)">
                <polygon id="Fill-473" points="10 11.0005 13 9.0005 10 7.0005"></polygon>
                <path d="M2,16.0005 L2,2.0005 L20,2.0005 L20.002,16.0005 L2,16.0005 Z M20,0.0005 L2,0.0005 C0.897,0.0005 0,0.8965 0,2.0005 L0,16.0005 C0,17.1035 0.897,18.0005 2,18.0005 L20,18.0005 C21.103,18.0005 22,17.1035 22,16.0005 L22,2.0005 C22,0.8965 21.103,0.0005 20,0.0005 L20,0.0005 Z" id="Fill-474"></path>
                <path d="M11,13.0005 C8.794,13.0005 7,11.2065 7,9.0005 C7,6.7955 8.794,5.0005 11,5.0005 C13.206,5.0005 15,6.7955 15,9.0005 C15,11.2065 13.206,13.0005 11,13.0005 M11,3.0005 C7.691,3.0005 5,5.6915 5,9.0005 C5,12.3095 7.691,15.0005 11,15.0005 C14.309,15.0005 17,12.3095 17,9.0005 C17,5.6915 14.309,3.0005 11,3.0005" id="Fill-475"></path>
            </g>
        </g>
    </g>
</svg>