<?xml version="1.0" encoding="UTF-8"?>
<svg width="20px" height="20px" viewBox="0 0 20 20" version="1.1" xmlns="http://www.w3.org/2000/svg" xmlns:xlink="http://www.w3.org/1999/xlink">
    <!-- Generator: Sketch 42 (36781) - http://www.bohemiancoding.com/sketch -->
    <title>Fill 832 + Fill 833</title>
    <desc>Created with Sketch.</desc>
    <defs></defs>
    <g id="Page-1" stroke="none" stroke-width="1" fill="none" fill-rule="evenodd">
        <g id="Line-Icons" transform="translate(-338.000000, -1441.000000)" fill="#767676">
            <g id="Fill-832-+-Fill-833" transform="translate(338.000000, 1441.000000)">
                <path d="M8.001,2.001 L18.001,2.001 L18.001,4.001 L8.001,4.001 L8.001,2.001 Z M19.001,0.001 L0.001,0.001 L0.001,2.001 L6.001,2.001 L6.001,4.001 C6.001,5.104 6.898,6.001 8.001,6.001 L18.001,6.001 C19.104,6.001 20.001,5.104 20.001,4.001 L20.001,1.001 C20.001,0.45 19.553,0.001 19.001,0.001 L19.001,0.001 Z" id="Fill-832"></path>
                <path d="M13.001,18.0015 C11.347,18.0015 10.001,16.6555 10.001,15.0015 C10.001,14.1985 10.93,12.8035 12.001,11.5295 L12.001,15.0015 C12.001,15.3705 12.204,15.7095 12.529,15.8835 C12.853,16.0575 13.248,16.0375 13.556,15.8335 L15.802,14.3365 C15.914,14.5365 16.001,14.7685 16.001,15.0015 C16.001,16.6555 14.655,18.0015 13.001,18.0015 M16.652,12.2425 C16.311,11.9515 15.819,11.9225 15.446,12.1695 L14.001,13.1335 L14.001,9.0015 C14.001,8.6025 13.763,8.2405 13.396,8.0835 C13.029,7.9255 12.603,8.0015 12.313,8.2755 C11.593,8.9585 8.001,12.4895 8.001,15.0015 C8.001,17.7585 10.244,20.0015 13.001,20.0015 C15.758,20.0015 18.001,17.7585 18.001,15.0015 C18.001,13.4455 16.79,12.3615 16.652,12.2425" id="Fill-833"></path>
            </g>
        </g>
    </g>
</svg>