<?xml version="1.0" encoding="UTF-8"?>
<svg width="20px" height="20px" viewBox="0 0 20 20" version="1.1" xmlns="http://www.w3.org/2000/svg" xmlns:xlink="http://www.w3.org/1999/xlink">
    <!-- Generator: Sketch 42 (36781) - http://www.bohemiancoding.com/sketch -->
    <title>Fill 228 + Fill 229 + Fill 230</title>
    <desc>Created with Sketch.</desc>
    <defs></defs>
    <g id="Page-1" stroke="none" stroke-width="1" fill="none" fill-rule="evenodd">
        <g id="Line-Icons" transform="translate(-146.000000, -145.000000)" fill="#757575">
            <g id="Fill-228-+-Fill-229-+-Fill-230" transform="translate(146.000000, 145.000000)">
                <path d="M3.7578,12.2422 C2.6238,11.1112 1.9998,9.6032 1.9998,8.0002 C1.9998,6.3972 2.6238,4.8912 3.7578,3.7582 C4.8908,2.6242 6.3978,2.0002 7.9998,2.0002 C9.6028,2.0002 11.1088,2.6242 12.2418,3.7592 C13.3758,4.8912 13.9998,6.3972 13.9998,8.0002 C13.9998,9.6032 13.3758,11.1112 12.2418,12.2432 C11.1088,13.3762 9.6028,14.0002 7.9998,14.0002 C6.3978,14.0002 4.8908,13.3762 3.7578,12.2422 L3.7578,12.2422 Z M19.6558,18.2932 L14.2928,12.9302 C15.3958,11.5292 15.9998,9.8122 15.9998,8.0002 C15.9998,5.8632 15.1678,3.8542 13.6558,2.3442 C12.1458,0.8332 10.1368,0.0002 7.9998,0.0002 C5.8628,0.0002 3.8548,0.8332 2.3438,2.3442 C0.8328,3.8542 -0.0002,5.8632 -0.0002,8.0002 C-0.0002,10.1382 0.8328,12.1462 2.3438,13.6572 C3.8548,15.1682 5.8628,16.0002 7.9998,16.0002 C9.7868,16.0002 11.4798,15.4112 12.8718,14.3372 L18.2418,19.7072 L19.6558,18.2932 Z" id="Fill-228"></path>
                <path d="M4.9492,12.0005 C4.9492,10.1595 6.1082,9.0005 7.9492,9.0005 C9.7902,9.0005 10.9492,10.1595 10.9492,12.0005 L4.9492,12.0005 Z" id="Fill-229"></path>
                <path d="M9.9492,6.0005 C9.9492,7.1045 9.0532,8.0005 7.9492,8.0005 C6.8442,8.0005 5.9492,7.1045 5.9492,6.0005 C5.9492,4.8965 6.8442,4.0005 7.9492,4.0005 C9.0532,4.0005 9.9492,4.8965 9.9492,6.0005" id="Fill-230"></path>
            </g>
        </g>
    </g>
</svg>