<?xml version="1.0" encoding="UTF-8"?>
<svg width="24px" height="14px" viewBox="0 0 24 14" version="1.1" xmlns="http://www.w3.org/2000/svg" xmlns:xlink="http://www.w3.org/1999/xlink">
    <!-- Generator: Sketch 42 (36781) - http://www.bohemiancoding.com/sketch -->
    <title>Fill 274 + Fill 275</title>
    <desc>Created with Sketch.</desc>
    <defs></defs>
    <g id="Page-1" stroke="none" stroke-width="1" fill="none" fill-rule="evenodd">
        <g id="Line-Icons" transform="translate(-96.000000, -52.000000)" fill="#757575">
            <g id="Fill-274-+-Fill-275" transform="translate(96.000000, 52.000000)">
                <path d="M7,2.0005 C4.243,2.0005 2,4.2435 2,7.0005 C2,9.7575 4.243,12.0005 7,12.0005 L17,12.0005 C19.757,12.0005 22,9.7575 22,7.0005 C22,4.2435 19.757,2.0005 17,2.0005 L7,2.0005 Z M17,14.0005 L7,14.0005 C3.14,14.0005 0,10.8605 0,7.0005 C0,3.1405 3.14,0.0005 7,0.0005 L17,0.0005 C20.86,0.0005 24,3.1405 24,7.0005 C24,10.8605 20.86,14.0005 17,14.0005 L17,14.0005 Z" id="Fill-274"></path>
                <path d="M20,7.0005 C20,8.6575 18.657,10.0005 17,10.0005 C15.343,10.0005 14,8.6575 14,7.0005 C14,5.3435 15.343,4.0005 17,4.0005 C18.657,4.0005 20,5.3435 20,7.0005" id="Fill-275"></path>
            </g>
        </g>
    </g>
</svg>