<?xml version="1.0" encoding="UTF-8"?>
<svg width="21px" height="24px" viewBox="0 0 21 24" version="1.1" xmlns="http://www.w3.org/2000/svg" xmlns:xlink="http://www.w3.org/1999/xlink">
    <!-- Generator: Sketch 42 (36781) - http://www.bohemiancoding.com/sketch -->
    <title>Fill 19 + Fill 21</title>
    <desc>Created with Sketch.</desc>
    <defs></defs>
    <g id="Page-1" stroke="none" stroke-width="1" fill="none" fill-rule="evenodd">
        <g id="Line-Icons" transform="translate(-432.000000, -1103.000000)" fill="#767676">
            <g id="Fill-19-+-Fill-21" transform="translate(432.000000, 1103.000000)">
                <path d="M16.5,4.1663 C17.717,5.9453 19,8.1563 19,9.0563 C19,10.4343 17.878,11.5563 16.5,11.5563 C15.122,11.5563 14,10.4343 14,9.0563 C14,8.1573 15.283,5.9453 16.5,4.1663 M16.5,13.5563 C18.981,13.5563 21,11.5383 21,9.0563 C21,6.7883 17.794,2.5053 16.5,0.7753 C15.752,1.7753 12,6.6243 12,9.0563 C12,11.5383 14.019,13.5563 16.5,13.5563" id="Fill-19"></path>
                <path d="M16.5,21.0005 L6,21.0005 L6,16.7215 L10.494,15.2245 L10.783,15.8035 L9.293,17.2935 C9.007,17.5795 8.921,18.0095 9.076,18.3835 C9.231,18.7575 9.596,19.0005 10,19.0005 L18,19.0005 L16.5,21.0005 Z M2,16.0005 L4,16.0005 L4,22.0005 L2,22.0005 L2,16.0005 Z M20,17.0005 L12.414,17.0005 L12.707,16.7075 C13.011,16.4035 13.087,15.9385 12.895,15.5535 L11.895,13.5535 C11.672,13.1085 11.156,12.8955 10.684,13.0515 L5.927,14.6375 C5.781,14.2665 5.423,14.0005 5,14.0005 L1,14.0005 C0.448,14.0005 0,14.4485 0,15.0005 L0,23.0005 C0,23.5525 0.448,24.0005 1,24.0005 L5,24.0005 C5.552,24.0005 6,23.5525 6,23.0005 L17,23.0005 C17.315,23.0005 17.611,22.8525 17.8,22.6005 L20.8,18.6005 C21.027,18.2975 21.064,17.8925 20.895,17.5535 C20.725,17.2145 20.379,17.0005 20,17.0005 L20,17.0005 Z" id="Fill-21"></path>
            </g>
        </g>
    </g>
</svg>