<?xml version="1.0" encoding="UTF-8"?>
<svg width="24px" height="24px" viewBox="0 0 24 24" version="1.1" xmlns="http://www.w3.org/2000/svg" xmlns:xlink="http://www.w3.org/1999/xlink">
    <!-- Generator: Sketch 42 (36781) - http://www.bohemiancoding.com/sketch -->
    <title>Fill 421 + Fill 422</title>
    <desc>Created with Sketch.</desc>
    <defs></defs>
    <g id="Page-1" stroke="none" stroke-width="1" fill="none" fill-rule="evenodd">
        <g id="Line-Icons" transform="translate(-240.000000, -479.000000)" fill="#757575">
            <g id="Fill-421-+-Fill-422" transform="translate(240.000000, 479.000000)">
                <path d="M2,12.0005 L2,10.6005 C3.736,11.5225 6.374,12.0005 9,12.0005 C11.626,12.0005 14.264,11.5225 16,10.6005 L16,12.0005 C16,12.5825 13.547,14.0005 9,14.0005 C4.453,14.0005 2,12.5825 2,12.0005 L2,12.0005 Z M2,6.6005 C3.736,7.5225 6.374,8.0005 9,8.0005 C11.626,8.0005 14.264,7.5225 16,6.6005 L16,8.0005 C16,8.5825 13.547,10.0005 9,10.0005 C4.453,10.0005 2,8.5825 2,8.0005 L2,6.6005 Z M9,2.0005 C13.547,2.0005 16,3.4195 16,4.0005 C16,4.5825 13.547,6.0005 9,6.0005 C4.453,6.0005 2,4.5825 2,4.0005 C2,3.4195 4.453,2.0005 9,2.0005 L9,2.0005 Z M18,15.0005 L18,4.0005 C18,1.3745 13.473,0.0005 9,0.0005 C4.527,0.0005 0,1.3745 0,4.0005 L0,16.0005 C0,18.6265 4.527,20.0005 9,20.0005 C11.161,20.0005 13.33,19.6775 15,19.0485 L15,16.8795 C13.885,17.4405 11.856,18.0005 9,18.0005 C4.453,18.0005 2,16.5825 2,16.0005 L2,14.6005 C3.736,15.5225 6.374,16.0005 9,16.0005 C11.626,16.0005 14.264,15.5225 16,14.6005 L16,15.0005 L18,15.0005 Z" id="Fill-421"></path>
                <polygon id="Fill-422" points="23.707 17.707 22.293 16.293 20 18.586 17.707 16.293 16.293 17.707 18.586 20 16.293 22.293 17.707 23.707 20 21.415 22.293 23.707 23.707 22.293 21.414 20"></polygon>
            </g>
        </g>
    </g>
</svg>