<?xml version="1.0" encoding="UTF-8"?>
<svg width="24px" height="21px" viewBox="0 0 24 21" version="1.1" xmlns="http://www.w3.org/2000/svg" xmlns:xlink="http://www.w3.org/1999/xlink">
    <!-- Generator: Sketch 42 (36781) - http://www.bohemiancoding.com/sketch -->
    <title>Fill 332</title>
    <desc>Created with Sketch.</desc>
    <defs></defs>
    <g id="Page-1" stroke="none" stroke-width="1" fill="none" fill-rule="evenodd">
        <g id="Line-Icons" transform="translate(-432.000000, -194.000000)" fill="#757575">
            <g id="Fill-332" transform="translate(432.000000, 194.000000)">
                <path d="M2,14 L21.997,14 L21.997,15 L2,15 L2,14 Z M22,2 L21.998,12 L2,12 L2,2 L22,2 Z M22,0 L2,0 C0.897,0 0,0.897 0,2 L0,15 C0,16.103 0.897,17 2,17 L11,17 L11,19 L7,19 L7,21 L17,21 L17,19 L13,19 L13,17 L22,17 C23.103,17 24,16.103 24,15 L24,2 C24,0.897 23.103,0 22,0 L22,0 Z"></path>
            </g>
        </g>
    </g>
</svg>