<?xml version="1.0" encoding="UTF-8"?>
<svg width="16px" height="20px" viewBox="0 0 16 20" version="1.1" xmlns="http://www.w3.org/2000/svg" xmlns:xlink="http://www.w3.org/1999/xlink">
    <!-- Generator: Sketch 42 (36781) - http://www.bohemiancoding.com/sketch -->
    <title>Fill 876 + Fill 877 + Fill 878</title>
    <desc>Created with Sketch.</desc>
    <defs></defs>
    <g id="Page-1" stroke="none" stroke-width="1" fill="none" fill-rule="evenodd">
        <g id="Line-Icons" transform="translate(-100.000000, -1633.000000)" fill="#757575">
            <g id="Fill-876-+-Fill-877-+-Fill-878" transform="translate(100.000000, 1633.000000)">
                <polygon id="Fill-876" points="7 6.5864 5.707 5.2934 4.293 6.7074 7 9.4154 11.707 4.7074 10.293 3.2934"></polygon>
                <polygon id="Fill-877" points="7 13.5864 5.707 12.2934 4.293 13.7074 7 16.4154 11.707 11.7074 10.293 10.2934"></polygon>
                <path d="M2,18.0005 L2,2.0005 L14,2.0005 L14.001,18.0005 L2,18.0005 Z M14,0.0005 L2,0.0005 C0.897,0.0005 0,0.8975 0,2.0005 L0,18.0005 C0,19.1025 0.897,20.0005 2,20.0005 L14,20.0005 C15.103,20.0005 16,19.1025 16,18.0005 L16,2.0005 C16,0.8975 15.103,0.0005 14,0.0005 L14,0.0005 Z" id="Fill-878"></path>
            </g>
        </g>
    </g>
</svg>