<?xml version="1.0" encoding="UTF-8"?>
<svg width="24px" height="25px" viewBox="0 0 24 25" version="1.1" xmlns="http://www.w3.org/2000/svg" xmlns:xlink="http://www.w3.org/1999/xlink">
    <!-- Generator: Sketch 42 (36781) - http://www.bohemiancoding.com/sketch -->
    <title>Fill 133 + Fill 134</title>
    <desc>Created with Sketch.</desc>
    <defs></defs>
    <g id="Page-1" stroke="none" stroke-width="1" fill="none" fill-rule="evenodd">
        <g id="Line-Icons" transform="translate(-144.000000, -863.000000)" fill="#757575">
            <g id="Fill-133-+-Fill-134" transform="translate(144.000000, 863.000000)">
                <path d="M5.5352,2.0068 L9.0002,2.0068 L9.0002,6.0068 L2.8682,6.0068 L5.5352,2.0068 Z M17.1312,6.0068 L11.0002,6.0068 L11.0002,2.0068 L14.4652,2.0068 L17.1312,6.0068 Z M2.0002,8.0068 L18.0002,8.0068 L18.0002,14.0008 L20.0002,14.0008 L20.0002,7.0068 C20.0002,6.9998 19.9962,6.9948 19.9962,6.9878 C19.9942,6.8718 19.9692,6.7588 19.9282,6.6488 C19.9172,6.6208 19.9022,6.5958 19.8892,6.5688 C19.8702,6.5308 19.8572,6.4888 19.8322,6.4518 L15.8322,0.4518 C15.6462,0.1738 15.3342,0.0068 15.0002,0.0068 L5.0002,0.0068 C4.6652,0.0068 4.3532,0.1738 4.1682,0.4518 L0.1682,6.4518 C0.1432,6.4888 0.1302,6.5308 0.1112,6.5688 C0.0982,6.5958 0.0832,6.6208 0.0722,6.6488 C0.0302,6.7588 0.0062,6.8718 0.0042,6.9878 C0.0032,6.9948 0.0002,6.9998 0.0002,7.0068 L0.0002,19.0068 C0.0002,19.5588 0.4482,20.0068 1.0002,20.0068 L14.0002,20.0068 L14.0002,18.0068 L2.0002,18.0068 L2.0002,8.0068 Z" id="Fill-133"></path>
                <polygon id="Fill-134" points="24 19.0005 21 19.0005 21 16.0005 19 16.0005 19 19.0005 16 19.0005 16 21.0005 19 21.0005 19 24.0005 21 24.0005 21 21.0005 24 21.0005"></polygon>
            </g>
        </g>
    </g>
</svg>