<?xml version="1.0" encoding="UTF-8"?>
<svg width="16px" height="21px" viewBox="0 0 16 21" version="1.1" xmlns="http://www.w3.org/2000/svg" xmlns:xlink="http://www.w3.org/1999/xlink">
    <!-- Generator: Sketch 42 (36781) - http://www.bohemiancoding.com/sketch -->
    <title>Fill 306 + Fill 307</title>
    <desc>Created with Sketch.</desc>
    <defs></defs>
    <g id="Page-1" stroke="none" stroke-width="1" fill="none" fill-rule="evenodd">
        <g id="Line-Icons" transform="translate(-388.000000, -146.000000)" fill="#757575">
            <g id="Fill-306-+-Fill-307" transform="translate(388.000000, 146.000000)">
                <path d="M5,5 L11,5 L11,6 L5,6 L5,5 Z M8,10 C6.696,10 5.584,9.165 5.171,8 L10.829,8 C10.416,9.165 9.304,10 8,10 L8,10 Z M8,12 C10.757,12 13,9.757 13,7 L13,1 L11,1 L11,3 L9,3 L9,0 L7,0 L7,3 L5,3 L5,1 L3,1 L3,7 C3,9.757 5.243,12 8,12 L8,12 Z" id="Fill-306"></path>
                <path d="M9.8682,19.0005 L11.9432,15.8885 C13.2322,16.5985 14.0002,17.6885 14.0002,19.0005 L9.8682,19.0005 Z M4.0562,15.8885 L6.1322,19.0005 L2.0002,19.0005 C2.0002,17.6885 2.7672,16.5985 4.0562,15.8885 L4.0562,15.8885 Z M10.0002,15.1975 L8.0002,18.1975 L6.0002,15.1975 C6.6162,15.0705 7.2852,15.0005 8.0002,15.0005 C8.7152,15.0005 9.3842,15.0705 10.0002,15.1975 L10.0002,15.1975 Z M8.0002,13.0005 C3.2892,13.0005 0.0002,15.4675 0.0002,19.0005 L0.0002,21.0005 L16.0002,21.0005 L16.0002,19.0005 C16.0002,15.4675 12.7102,13.0005 8.0002,13.0005 L8.0002,13.0005 Z" id="Fill-307"></path>
            </g>
        </g>
    </g>
</svg>