<?xml version="1.0" encoding="UTF-8"?>
<svg width="14px" height="20px" viewBox="0 0 14 20" version="1.1" xmlns="http://www.w3.org/2000/svg" xmlns:xlink="http://www.w3.org/1999/xlink">
    <!-- Generator: Sketch 42 (36781) - http://www.bohemiancoding.com/sketch -->
    <title>Fill 467 + Fill 468 + Fill 469</title>
    <desc>Created with Sketch.</desc>
    <defs></defs>
    <g id="Page-1" stroke="none" stroke-width="1" fill="none" fill-rule="evenodd">
        <g id="Line-Icons" transform="translate(-389.000000, -577.000000)" fill="#757575">
            <g id="Fill-467-+-Fill-468-+-Fill-469" transform="translate(389.000000, 577.000000)">
                <path d="M2,18.0024 L2,2.0024 L12,2.0024 L12.001,18.0024 L2,18.0024 Z M12,0.0024 L2,0.0024 C0.897,0.0024 0,0.8994 0,2.0024 L0,18.0024 C0,19.1044 0.897,20.0024 2,20.0024 L12,20.0024 C13.103,20.0024 14,19.1044 14,18.0024 L14,2.0024 C14,0.8994 13.103,0.0024 12,0.0024 L12,0.0024 Z" id="Fill-467"></path>
                <path d="M7,11.0024 C5.159,11.0024 4,12.1614 4,14.0024 L10,14.0024 C10,12.1614 8.841,11.0024 7,11.0024" id="Fill-468"></path>
                <path d="M7,10.0024 C8.104,10.0024 9,9.1064 9,8.0024 C9,6.8984 8.104,6.0024 7,6.0024 C5.896,6.0024 5,6.8984 5,8.0024 C5,9.1064 5.896,10.0024 7,10.0024" id="Fill-469"></path>
            </g>
        </g>
    </g>
</svg>