<?xml version="1.0" encoding="UTF-8"?>
<svg width="24px" height="20px" viewBox="0 0 24 20" version="1.1" xmlns="http://www.w3.org/2000/svg" xmlns:xlink="http://www.w3.org/1999/xlink">
    <!-- Generator: Sketch 42 (36781) - http://www.bohemiancoding.com/sketch -->
    <title>Fill 93 + Fill 94</title>
    <desc>Created with Sketch.</desc>
    <defs></defs>
    <g id="Page-1" stroke="none" stroke-width="1" fill="none" fill-rule="evenodd">
        <g id="Line-Icons" transform="translate(-384.000000, -816.000000)" fill="#757575">
            <g id="Fill-93-+-Fill-94" transform="translate(384.000000, 816.000000)">
                <path d="M16,13.001 C17.104,13.001 18,12.106 18,11.001 C18,9.896 17.104,9.001 16,9.001 C14.896,9.001 14,9.896 14,11.001 C14,12.106 14.896,13.001 16,13.001" id="Fill-93"></path>
                <path d="M4,16.001 L2,16.001 L2,10.001 L4,10.001 L4,16.001 Z M23,5.001 L21.566,5.001 L18.857,0.486 C18.714,0.247 18.478,0.079 18.204,0.022 C17.932,-0.035 17.647,0.025 17.419,0.187 L10.68,5.001 L14.121,5.001 L17.7,2.445 L19.234,5.001 L15,5.001 L15,7.001 L22,7.001 L22,15.001 L10,15.001 L10,13.001 L8,13.001 L8,16.001 C8,16.553 8.448,17.001 9,17.001 L15.882,17.001 L15.658,17.449 C15.488,17.79 15.146,18.001 14.765,18.001 L8.414,18.001 L6,15.587 L6,10.415 L8.414,8.001 L12,8.001 L12,9.001 C12,9.553 11.552,10.001 11,10.001 L9,10.001 L9,12.001 L11,12.001 C12.654,12.001 14,10.655 14,9.001 L14,7.001 C14,6.449 13.553,6.001 13,6.001 L8,6.001 C7.735,6.001 7.48,6.106 7.293,6.294 L5.46,8.128 C5.32,8.053 5.169,8.001 5,8.001 L1,8.001 C0.448,8.001 0,8.449 0,9.001 L0,17.001 C0,17.553 0.448,18.001 1,18.001 L5,18.001 C5.169,18.001 5.32,17.949 5.46,17.875 L7.293,19.708 C7.48,19.895 7.735,20.001 8,20.001 L14.765,20.001 C15.908,20.001 16.936,19.366 17.447,18.342 L18.118,17.001 L23,17.001 C23.553,17.001 24,16.553 24,16.001 L24,6.001 C24,5.449 23.553,5.001 23,5.001 L23,5.001 Z" id="Fill-94"></path>
            </g>
        </g>
    </g>
</svg>