<?xml version="1.0" encoding="UTF-8"?>
<svg width="20px" height="20px" viewBox="0 0 20 20" version="1.1" xmlns="http://www.w3.org/2000/svg" xmlns:xlink="http://www.w3.org/1999/xlink">
    <!-- Generator: Sketch 42 (36781) - http://www.bohemiancoding.com/sketch -->
    <title>Fill 130</title>
    <desc>Created with Sketch.</desc>
    <defs></defs>
    <g id="Page-1" stroke="none" stroke-width="1" fill="none" fill-rule="evenodd">
        <g id="Line-Icons" transform="translate(-98.000000, -865.000000)" fill="#757575">
            <g id="Fill-130" transform="translate(98.000000, 865.000000)">
                <path d="M18,18 L2,18 L2,8 L18,8 L18,18 Z M5.535,2 L9,2 L9,6 L2.869,6 L5.535,2 Z M17.131,6 L11,6 L11,2 L14.465,2 L17.131,6 Z M19.996,6.982 C19.994,6.866 19.97,6.753 19.928,6.643 C19.917,6.615 19.902,6.59 19.889,6.563 C19.87,6.525 19.857,6.483 19.832,6.446 L15.832,0.446 C15.646,0.167 15.335,0 15,0 L5,0 C4.665,0 4.354,0.167 4.168,0.446 L0.168,6.446 C0.143,6.483 0.13,6.525 0.111,6.563 C0.098,6.59 0.083,6.615 0.072,6.643 C0.03,6.753 0.006,6.866 0.004,6.982 C0.003,6.989 0,6.994 0,7 L0,19 C0,19.553 0.448,20 1,20 L19,20 C19.552,20 20,19.553 20,19 L20,7 C20,6.994 19.997,6.989 19.996,6.982 L19.996,6.982 Z"></path>
            </g>
        </g>
    </g>
</svg>