<?xml version="1.0" encoding="UTF-8"?>
<svg width="19px" height="20px" viewBox="0 0 19 20" version="1.1" xmlns="http://www.w3.org/2000/svg" xmlns:xlink="http://www.w3.org/1999/xlink">
    <!-- Generator: Sketch 42 (36781) - http://www.bohemiancoding.com/sketch -->
    <title>Fill 83</title>
    <desc>Created with Sketch.</desc>
    <defs></defs>
    <g id="Page-1" stroke="none" stroke-width="1" fill="none" fill-rule="evenodd">
        <g id="Line-Icons" transform="translate(-3.000000, -1153.000000)" fill="#767676">
            <g id="Fill-83" transform="translate(3.000000, 1153.000000)">
                <path d="M14.3237,11.811 C13.7677,12.368 13.0677,12.614 12.4067,12.706 C13.0697,11.756 13.5867,10.557 13.5867,9.112 C13.5867,8.789 13.5517,8.466 13.5027,8.145 C14.3637,7.828 15.2697,7.655 15.9537,7.569 C15.7827,8.9 15.3317,10.803 14.3237,11.811 L14.3237,11.811 Z M2.1067,7.567 C2.7897,7.653 3.6967,7.822 4.5587,8.142 C4.5107,8.465 4.4747,8.788 4.4747,9.112 C4.4747,10.556 4.9907,11.753 5.6537,12.703 C4.9927,12.612 4.2917,12.366 3.7387,11.813 C2.7287,10.803 2.2787,8.899 2.1067,7.567 L2.1067,7.567 Z M9.0337,3.525 C10.1027,4.857 11.5867,7.142 11.5867,9.112 C11.5867,11.207 9.8827,12.665 9.0307,13.262 C8.1787,12.665 6.4747,11.207 6.4747,9.112 C6.4747,7.018 8.0697,4.722 9.0337,3.525 L9.0337,3.525 Z M17.0277,5.476 C16.9287,5.478 14.9277,5.522 12.9647,6.209 C11.9097,3.566 9.8657,1.425 9.7497,1.305 L9.0307,0.562 L8.3117,1.305 C8.1967,1.425 6.1527,3.566 5.0967,6.209 C3.1347,5.522 1.1337,5.478 1.0337,5.476 L-0.0003,5.459 L0.0167,6.493 C0.0197,6.676 0.1167,11.018 2.3237,13.226 C3.5507,14.453 5.1057,14.752 6.3307,14.752 C6.7977,14.752 7.2107,14.709 7.5457,14.656 C7.7267,14.795 7.8877,14.906 8.0307,15.002 L8.0307,20.001 L10.0307,20.001 L10.0307,15.002 C10.1747,14.906 10.3347,14.795 10.5157,14.656 C10.8497,14.709 11.2637,14.752 11.7307,14.752 C12.9547,14.752 14.5107,14.453 15.7387,13.226 C17.9447,11.018 18.0417,6.676 18.0447,6.493 L18.0617,5.459 L17.0277,5.476 Z"></path>
            </g>
        </g>
    </g>
</svg>