<?xml version="1.0" encoding="UTF-8"?>
<svg width="16px" height="20px" viewBox="0 0 16 20" version="1.1" xmlns="http://www.w3.org/2000/svg" xmlns:xlink="http://www.w3.org/1999/xlink">
    <!-- Generator: Sketch 42 (36781) - http://www.bohemiancoding.com/sketch -->
    <title>Fill 352 + Fill 353</title>
    <desc>Created with Sketch.</desc>
    <defs></defs>
    <g id="Page-1" stroke="none" stroke-width="1" fill="none" fill-rule="evenodd">
        <g id="Line-Icons" transform="translate(-340.000000, -241.000000)" fill="#757575">
            <g id="Fill-352-+-Fill-353" transform="translate(340.000000, 241.000000)">
                <polygon id="Fill-352" points="15.707 7.707 14.293 6.293 12 8.586 9.707 6.293 8.293 7.707 10.586 10 8.293 12.293 9.707 13.707 12 11.415 14.293 13.707 15.707 12.293 13.414 10"></polygon>
                <path d="M2,16 L10,16 L10,18 L2,18 L2,16 Z M10,4 L2,4 L2,2 L10,2 L10,4 Z M2,14 L2,6 L12,6 L12,2 C12,0.897 11.103,0 10,0 L2,0 C0.897,0 0,0.897 0,2 L0,18 C0,19.103 0.897,20 2,20 L10,20 C11.103,20 12,19.103 12,18 L12,14 L2,14 Z" id="Fill-353"></path>
            </g>
        </g>
    </g>
</svg>