<?xml version="1.0" encoding="UTF-8"?>
<svg width="22px" height="20px" viewBox="0 0 22 20" version="1.1" xmlns="http://www.w3.org/2000/svg" xmlns:xlink="http://www.w3.org/1999/xlink">
    <!-- Generator: Sketch 42 (36781) - http://www.bohemiancoding.com/sketch -->
    <title>Fill 654 + Fill 655</title>
    <desc>Created with Sketch.</desc>
    <defs></defs>
    <g id="Page-1" stroke="none" stroke-width="1" fill="none" fill-rule="evenodd">
        <g id="Line-Icons" transform="translate(-433.000000, -1057.000000)" fill="#767676">
            <g id="Fill-654-+-Fill-655" transform="translate(433.000000, 1057.000000)">
                <path d="M5.4478,16.1069 C5.1668,15.9659 4.8348,15.9659 4.5528,16.1069 L2.1968,17.2859 L3.1878,8.3759 C3.6928,8.7619 4.3168,9.0019 5.0008,9.0019 C5.6848,9.0019 6.3088,8.7619 6.8138,8.3759 L7.8038,17.2859 L5.4478,16.1069 Z M4.0008,3.0019 C4.0008,2.4509 4.4488,2.0019 5.0008,2.0019 C5.5518,2.0019 6.0008,2.4509 6.0008,3.0019 L6.0008,6.0019 C6.0008,6.5529 5.5518,7.0019 5.0008,7.0019 C4.4488,7.0019 4.0008,6.5529 4.0008,6.0019 L4.0008,3.0019 Z M5.0008,0.0019 C3.3508,0.0019 1.9688,1.2389 1.7858,2.8799 L0.0068,18.8909 C-0.0342,19.2549 0.1278,19.6129 0.4288,19.8219 C0.7298,20.0319 1.1198,20.0609 1.4478,19.8969 L5.0008,18.1199 L8.5528,19.8969 C8.8798,20.0599 9.2708,20.0319 9.5718,19.8219 C9.8728,19.6129 10.0348,19.2549 9.9938,18.8909 L8.2148,2.8799 C8.0318,1.2389 6.6508,0.0019 5.0008,0.0019 L5.0008,0.0019 Z" id="Fill-654"></path>
                <path d="M16.0005,17.0015 L16.0005,14.0015 C16.0005,13.4505 16.4495,13.0015 17.0005,13.0015 C17.5515,13.0015 18.0005,13.4505 18.0005,14.0015 L18.0005,17.0015 C18.0005,17.5535 17.5515,18.0015 17.0005,18.0015 C16.4495,18.0015 16.0005,17.5535 16.0005,17.0015 L16.0005,17.0015 Z M16.5535,3.8965 C16.8345,4.0365 17.1665,4.0365 17.4475,3.8965 L19.8035,2.7185 L18.8145,11.6275 C18.3085,11.2405 17.6845,11.0015 17.0005,11.0015 C16.3165,11.0015 15.6925,11.2405 15.1875,11.6275 L14.1975,2.7185 L16.5535,3.8965 Z M21.5725,0.1825 C21.2715,-0.0275 20.8815,-0.0575 20.5535,0.1065 L17.0005,1.8835 L13.4475,0.1065 C13.1195,-0.0575 12.7295,-0.0275 12.4285,0.1825 C12.1275,0.3905 11.9665,0.7485 12.0065,1.1115 L13.7865,17.1245 C13.9685,18.7645 15.3505,20.0015 17.0005,20.0015 C18.6505,20.0015 20.0325,18.7645 20.2145,17.1245 L21.9945,1.1115 C22.0345,0.7485 21.8725,0.3905 21.5725,0.1825 L21.5725,0.1825 Z" id="Fill-655"></path>
            </g>
        </g>
    </g>
</svg>