<?xml version="1.0" encoding="UTF-8"?>
<svg width="20px" height="16px" viewBox="0 0 20 16" version="1.1" xmlns="http://www.w3.org/2000/svg" xmlns:xlink="http://www.w3.org/1999/xlink">
    <!-- Generator: Sketch 42 (36781) - http://www.bohemiancoding.com/sketch -->
    <title>Fill 682</title>
    <desc>Created with Sketch.</desc>
    <defs></defs>
    <g id="Page-1" stroke="none" stroke-width="1" fill="none" fill-rule="evenodd">
        <g id="Line-Icons" transform="translate(-242.000000, -1109.000000)" fill="#767676">
            <g id="Fill-682" transform="translate(242.000000, 1109.000000)">
                <path d="M2.0005,9.6475 C6.9975,7.4915 13.0035,7.4915 18.0005,9.6475 L18.0005,12.0025 L2.0005,12.0025 L2.0005,9.6475 Z M4.0005,4.0025 L9.0005,4.0025 L9.0005,6.0665 C7.3085,6.1405 5.6255,6.3945 4.0005,6.8385 L4.0005,4.0025 Z M16.0005,4.0025 L16.0005,6.8385 C14.3755,6.3945 12.6925,6.1405 11.0005,6.0665 L11.0005,4.0025 L16.0005,4.0025 Z M19.4265,8.0975 C18.9605,7.8785 18.4825,7.6825 18.0005,7.4985 L18.0005,0.0025 L16.0005,0.0025 L16.0005,2.0025 L4.0005,2.0025 L4.0005,0.0025 L2.0005,0.0025 L2.0005,7.4985 C1.5185,7.6825 1.0405,7.8785 0.5745,8.0975 C0.2245,8.2625 0.0005,8.6145 0.0005,9.0025 L0.0005,16.0025 L2.0005,16.0025 L2.0005,14.0025 L18.0005,14.0025 L18.0005,16.0025 L20.0005,16.0025 L20.0005,9.0025 C20.0005,8.6145 19.7765,8.2625 19.4265,8.0975 L19.4265,8.0975 Z"></path>
            </g>
        </g>
    </g>
</svg>