<?xml version="1.0" encoding="UTF-8"?>
<svg width="21px" height="20px" viewBox="0 0 21 20" version="1.1" xmlns="http://www.w3.org/2000/svg" xmlns:xlink="http://www.w3.org/1999/xlink">
    <!-- Generator: Sketch 42 (36781) - http://www.bohemiancoding.com/sketch -->
    <title>Fill 205 + Fill 206 + Fill 207</title>
    <desc>Created with Sketch.</desc>
    <defs></defs>
    <g id="Page-1" stroke="none" stroke-width="1" fill="none" fill-rule="evenodd">
        <g id="Line-Icons" transform="translate(-433.000000, -385.000000)" fill="#757575">
            <g id="Fill-205-+-Fill-206-+-Fill-207" transform="translate(433.000000, 385.000000)">
                <path d="M5,3.7656 L5,6.0006 L3.082,6.0006 C3.581,5.1416 4.23,4.3836 5,3.7656 L5,3.7656 Z M5,12.0006 L2.263,12.0006 C2.098,11.3596 2,10.6916 2,10.0006 C2,9.3096 2.098,8.6416 2.263,8.0006 L5,8.0006 L5,12.0006 Z M5,16.2356 C4.23,15.6176 3.581,14.8586 3.082,14.0006 L5,14.0006 L5,16.2356 Z M0,10.0006 C0,15.5156 4.486,20.0006 10,20.0006 L10,18.0006 C8.939,18.0006 7.927,17.7886 7,17.4116 L7,14.0006 L10,14.0006 L10,12.0006 L7,12.0006 L7,8.0006 L10,8.0006 L10,6.0006 L7,6.0006 L7,2.5896 C7.927,2.2126 8.939,2.0006 10,2.0006 L10,0.0006 C4.486,0.0006 0,4.4866 0,10.0006 L0,10.0006 Z" id="Fill-205"></path>
                <path d="M16,4.0005 C15.449,4.0005 15,3.5515 15,3.0005 C15,2.4495 15.449,2.0005 16,2.0005 C16.551,2.0005 17,2.4495 17,3.0005 C17,3.5515 16.551,4.0005 16,4.0005 M19,3.0005 C19,1.3465 17.654,0.0005 16,0.0005 C14.346,0.0005 13,1.3465 13,3.0005 C13,4.6545 14.346,6.0005 16,6.0005 C17.654,6.0005 19,4.6545 19,3.0005" id="Fill-206"></path>
                <path d="M19,13.0005 L18,13.0005 C17.448,13.0005 17,13.4485 17,14.0005 L17,18.0005 L15,18.0005 L15,14.0005 C15,13.4485 14.552,13.0005 14,13.0005 L13,13.0005 L13,11.0005 C13,9.3465 14.346,8.0005 16,8.0005 C17.654,8.0005 19,9.3465 19,11.0005 L19,13.0005 Z M16,6.0005 C13.243,6.0005 11,8.2435 11,11.0005 L11,14.0005 C11,14.5525 11.448,15.0005 12,15.0005 L13,15.0005 L13,19.0005 C13,19.5525 13.448,20.0005 14,20.0005 L18,20.0005 C18.552,20.0005 19,19.5525 19,19.0005 L19,15.0005 L20,15.0005 C20.552,15.0005 21,14.5525 21,14.0005 L21,11.0005 C21,8.2435 18.757,6.0005 16,6.0005 L16,6.0005 Z" id="Fill-207"></path>
            </g>
        </g>
    </g>
</svg>