<?xml version="1.0" encoding="UTF-8"?>
<svg width="20px" height="20px" viewBox="0 0 20 20" version="1.1" xmlns="http://www.w3.org/2000/svg" xmlns:xlink="http://www.w3.org/1999/xlink">
    <!-- Generator: Sketch 42 (36781) - http://www.bohemiancoding.com/sketch -->
    <title>Fill 270</title>
    <desc>Created with Sketch.</desc>
    <defs></defs>
    <g id="Page-1" stroke="none" stroke-width="1" fill="none" fill-rule="evenodd">
        <g id="Line-Icons" transform="translate(-386.000000, -1.000000)" fill="#757575">
            <g id="Fill-270" transform="translate(386.000000, 1.000000)">
                <path d="M13.8232,3.3135 L14.5432,2.5955 C15.3082,1.8315 16.6422,1.8315 17.4072,2.5955 L17.4052,2.5935 C18.1702,3.3585 18.1702,4.6925 17.4052,5.4585 L16.6872,6.1775 L13.8232,3.3135 Z M3.1652,14.4645 L5.1412,14.8595 L5.5372,16.8355 L2.3742,17.6265 L3.1652,14.4645 Z M5.6632,12.9235 L4.4542,12.6825 L12.4092,4.7285 L13.1352,5.4535 L5.6632,12.9235 Z M7.0772,14.3385 L14.5482,6.8675 L15.2742,7.5915 L7.3192,15.5465 L7.0772,14.3385 Z M18.8212,1.1805 C18.0602,0.4205 17.0502,0.0025 15.9742,0.0025 C14.9002,0.0025 13.8882,0.4205 13.1282,1.1815 L1.7192,12.5905 C1.5912,12.7185 1.5002,12.8785 1.4562,13.0545 L0.0292,18.7585 C-0.0548,19.0995 0.0452,19.4605 0.2932,19.7075 C0.5402,19.9565 0.9022,20.0565 1.2422,19.9715 L6.9472,18.5445 C7.1222,18.5015 7.2832,18.4095 7.4112,18.2815 L18.8202,6.8725 C19.5802,6.1125 19.9982,5.1005 19.9982,4.0265 C19.9982,2.9515 19.5802,1.9395 18.8192,1.1795 L18.8212,1.1805 Z"></path>
            </g>
        </g>
    </g>
</svg>