<?xml version="1.0" encoding="UTF-8"?>
<svg width="19px" height="19px" viewBox="0 0 19 19" version="1.1" xmlns="http://www.w3.org/2000/svg" xmlns:xlink="http://www.w3.org/1999/xlink">
    <!-- Generator: Sketch 42 (36781) - http://www.bohemiancoding.com/sketch -->
    <title>Fill 380</title>
    <desc>Created with Sketch.</desc>
    <defs></defs>
    <g id="Page-1" stroke="none" stroke-width="1" fill="none" fill-rule="evenodd">
        <g id="Line-Icons" transform="translate(-387.000000, -290.000000)" fill="#757575">
            <g id="Fill-380" transform="translate(387.000000, 290.000000)">
                <path d="M2.8384,2.8389 L7.7674,14.8089 L9.0294,9.7579 C9.1194,9.3999 9.3994,9.1199 9.7574,9.0299 L14.8084,7.7679 L2.8384,2.8389 Z M7.9994,19.0009 C7.5974,19.0009 7.2304,18.7579 7.0754,18.3809 L0.0754,1.3809 C-0.0786,1.0089 0.0074,0.5789 0.2934,0.2939 C0.5784,0.0069 1.0084,-0.0771 1.3804,0.0759 L18.3804,7.0759 C18.7804,7.2399 19.0284,7.6429 18.9974,8.0729 C18.9654,8.5039 18.6614,8.8659 18.2424,8.9709 L10.8244,10.8249 L8.9704,18.2439 C8.8654,18.6619 8.5034,18.9659 8.0724,18.9979 C8.0484,18.9989 8.0234,19.0009 7.9994,19.0009 L7.9994,19.0009 Z"></path>
            </g>
        </g>
    </g>
</svg>