<?xml version="1.0" encoding="UTF-8"?>
<svg width="22px" height="21px" viewBox="0 0 22 21" version="1.1" xmlns="http://www.w3.org/2000/svg" xmlns:xlink="http://www.w3.org/1999/xlink">
    <!-- Generator: Sketch 42 (36781) - http://www.bohemiancoding.com/sketch -->
    <title>Fill 262</title>
    <desc>Created with Sketch.</desc>
    <defs></defs>
    <g id="Page-1" stroke="none" stroke-width="1" fill="none" fill-rule="evenodd">
        <g id="Line-Icons" transform="translate(-145.000000, 0.000000)" fill="#757575">
            <g id="Fill-262" transform="translate(145.000000, 0.000000)">
                <path d="M18,18.5464 C17.466,18.5464 16.964,18.3384 16.586,17.9604 C16.208,17.5824 16,17.0824 16,16.5464 C16,15.4434 16.897,14.5464 18,14.5464 C19.103,14.5464 20,15.4434 20,16.5464 C20,17.6484 19.103,18.5464 18,18.5464 M5.414,17.9604 C5.036,18.3384 4.534,18.5464 4,18.5464 C2.897,18.5464 2,17.6484 2,16.5464 C2,15.4434 2.897,14.5464 4,14.5464 C5.103,14.5464 6,15.4434 6,16.5464 C6,17.0824 5.792,17.5824 5.414,17.9604 M18,12.5464 C16.439,12.5464 15.099,13.4534 14.44,14.7614 L12.341,11.5354 C13.991,8.8904 16.088,5.4844 18.838,1.0914 L17.162,0.0004 L11,9.4724 L4.838,0.0004 L3.162,1.0914 C5.912,5.4844 8.009,8.8904 9.659,11.5354 L7.56,14.7614 C6.901,13.4534 5.561,12.5464 4,12.5464 C1.794,12.5464 0,14.3404 0,16.5464 C0,18.7514 1.794,20.5464 4,20.5464 C6.213,20.5464 7.125,19.7774 11,13.6684 C14.875,19.7774 15.787,20.5464 18,20.5464 C20.206,20.5464 22,18.7514 22,16.5464 C22,14.3404 20.206,12.5464 18,12.5464"></path>
            </g>
        </g>
    </g>
</svg>