<?xml version="1.0" encoding="UTF-8"?>
<svg width="24px" height="16px" viewBox="0 0 24 16" version="1.1" xmlns="http://www.w3.org/2000/svg" xmlns:xlink="http://www.w3.org/1999/xlink">
    <!-- Generator: Sketch 42 (36781) - http://www.bohemiancoding.com/sketch -->
    <title>Fill 763</title>
    <desc>Created with Sketch.</desc>
    <defs></defs>
    <g id="Page-1" stroke="none" stroke-width="1" fill="none" fill-rule="evenodd">
        <g id="Line-Icons" transform="translate(0.000000, -1299.000000)" fill="#767676">
            <g id="Fill-763" transform="translate(0.000000, 1299.000000)">
                <path d="M22.001,13.0025 L2.001,13.0025 L2.001,8.0025 C2.001,7.1755 2.674,6.5025 3.501,6.5025 C4.328,6.5025 5.001,7.1755 5.001,8.0025 L5.001,9.0025 C5.001,9.5545 5.449,10.0025 6.001,10.0025 L18.001,10.0025 C18.553,10.0025 19.001,9.5545 19.001,9.0025 L19.001,8.0025 C19.001,7.1755 19.674,6.5025 20.501,6.5025 C21.328,6.5025 22.001,7.1755 22.001,8.0025 L22.001,13.0025 Z M8.001,2.0025 L11.001,2.0025 L11.001,8.0025 L7.001,8.0025 C7.001,6.6165 6.185,5.4275 5.015,4.8605 C5.091,3.2735 6.395,2.0025 8.001,2.0025 L8.001,2.0025 Z M18.987,4.8605 C17.816,5.4275 17.001,6.6165 17.001,8.0025 L13.001,8.0025 L13.001,2.0025 L16.001,2.0025 C17.607,2.0025 18.911,3.2735 18.987,4.8605 L18.987,4.8605 Z M20.955,4.5475 C20.722,2.0065 18.603,0.0025 16.001,0.0025 L8.001,0.0025 C5.399,0.0025 3.28,2.0065 3.047,4.5475 C1.333,4.7735 0.001,6.2275 0.001,8.0025 L0.001,13.0025 C0.001,14.1045 0.898,15.0025 2.001,15.0025 L2.001,16.0025 L4.001,16.0025 L4.001,15.0025 L20.001,15.0025 L20.001,16.0025 L22.001,16.0025 L22.001,15.0025 C23.104,15.0025 24.001,14.1045 24.001,13.0025 L24.001,8.0025 C24.001,6.2275 22.669,4.7735 20.955,4.5475 L20.955,4.5475 Z"></path>
            </g>
        </g>
    </g>
</svg>