<?xml version="1.0" encoding="UTF-8"?>
<svg width="22px" height="18px" viewBox="0 0 22 18" version="1.1" xmlns="http://www.w3.org/2000/svg" xmlns:xlink="http://www.w3.org/1999/xlink">
    <!-- Generator: Sketch 42 (36781) - http://www.bohemiancoding.com/sketch -->
    <title>Fill 614</title>
    <desc>Created with Sketch.</desc>
    <defs></defs>
    <g id="Page-1" stroke="none" stroke-width="1" fill="none" fill-rule="evenodd">
        <g id="Line-Icons" transform="translate(-97.000000, -1011.000000)" fill="#767676">
            <g id="Fill-614" transform="translate(97.000000, 1011.000000)">
                <path d="M20,7.001 L19,7.001 C18.448,7.001 18,7.449 18,8.001 L18,16.001 L16,16.001 L16,8.001 C16,7.449 15.552,7.001 15,7.001 L7,7.001 C6.448,7.001 6,7.449 6,8.001 L6,16.001 L4,16.001 L4,8.001 C4,7.449 3.552,7.001 3,7.001 L2,7.001 L2,6.62 L11,2.12 L20,6.62 L20,7.001 Z M8,15.001 L14,15.001 L14,16.001 L8,16.001 L8,15.001 Z M8,12.001 L14,12.001 L14,13.001 L8,13.001 L8,12.001 Z M14,10.001 L8,10.001 L8,9.001 L14,9.001 L14,10.001 Z M21.447,5.106 L11.447,0.106 C11.166,-0.034 10.834,-0.034 10.553,0.106 L0.553,5.106 C0.214,5.276 0,5.622 0,6.001 L0,8.001 C0,8.553 0.448,9.001 1,9.001 L2,9.001 L2,17.001 C2,17.553 2.448,18.001 3,18.001 L19,18.001 C19.552,18.001 20,17.553 20,17.001 L20,9.001 L21,9.001 C21.552,9.001 22,8.553 22,8.001 L22,6.001 C22,5.622 21.786,5.276 21.447,5.106 L21.447,5.106 Z"></path>
            </g>
        </g>
    </g>
</svg>