<?xml version="1.0" encoding="UTF-8"?>
<svg width="22px" height="18px" viewBox="0 0 22 18" version="1.1" xmlns="http://www.w3.org/2000/svg" xmlns:xlink="http://www.w3.org/1999/xlink">
    <!-- Generator: Sketch 42 (36781) - http://www.bohemiancoding.com/sketch -->
    <title>Fill 535 + Fill 536</title>
    <desc>Created with Sketch.</desc>
    <defs></defs>
    <g id="Page-1" stroke="none" stroke-width="1" fill="none" fill-rule="evenodd">
        <g id="Line-Icons" transform="translate(-49.000000, -769.000000)" fill="#757575">
            <g id="Fill-535-+-Fill-536" transform="translate(49.000000, 769.000000)">
                <path d="M11,8.9234 L3.439,5.8994 L11,2.1194 L18.561,5.8994 L11,8.9234 Z M16,12.5634 L15.025,13.0504 C12.504,14.3114 9.495,14.3114 6.975,13.0504 L6,12.5634 L6,9.0774 L10.628,10.9294 C10.748,10.9784 10.874,11.0004 11,11.0004 C11.126,11.0004 11.252,10.9784 11.372,10.9294 L16,9.0774 L16,12.5634 Z M21.447,5.1064 L11.447,0.1064 C11.166,-0.0346 10.834,-0.0346 10.553,0.1064 L0.553,5.1064 C0.352,5.2064 0.198,5.3794 0.107,5.5694 C0.047,5.6904 0,5.8984 0,6.0004 L0,11.7654 C0,12.3164 0.448,12.7654 1,12.7654 C1.552,12.7654 2,12.3164 2,11.7654 L2,7.4784 L4,8.2774 L4,13.1814 C4,13.5604 4.214,13.9054 4.553,14.0754 C6.271,14.9344 8.039,15.9944 11,15.9944 C13.961,15.9944 15.73,14.9344 17.447,14.0754 C17.786,13.9054 18,13.5604 18,13.1814 L18,8.2774 L21.372,6.9294 C21.737,6.7834 21.983,6.4364 21.999,6.0424 C22.016,5.6494 21.799,5.2834 21.447,5.1064 L21.447,5.1064 Z" id="Fill-535"></path>
                <path d="M1,14.0005 C0.448,14.0005 0,14.4485 0,15.0005 L0,17.0005 C0,17.5535 0.448,18.0005 1,18.0005 C1.552,18.0005 2,17.5535 2,17.0005 L2,15.0005 C2,14.4485 1.552,14.0005 1,14.0005" id="Fill-536"></path>
            </g>
        </g>
    </g>
</svg>