<?xml version="1.0" encoding="UTF-8"?>
<svg width="16px" height="22px" viewBox="0 0 16 22" version="1.1" xmlns="http://www.w3.org/2000/svg" xmlns:xlink="http://www.w3.org/1999/xlink">
    <!-- Generator: Sketch 42 (36781) - http://www.bohemiancoding.com/sketch -->
    <title>Fill 638</title>
    <desc>Created with Sketch.</desc>
    <defs></defs>
    <g id="Page-1" stroke="none" stroke-width="1" fill="none" fill-rule="evenodd">
        <g id="Line-Icons" transform="translate(-148.000000, -1057.000000)" fill="#767676">
            <g id="Fill-638" transform="translate(147.000000, 1057.000000)">
                <path d="M14.1323,20.0005 L11.9993,20.0005 L11.9993,19.0005 C11.9993,17.8985 11.1023,17.0005 9.9993,17.0005 L7.9993,17.0005 C6.8963,17.0005 5.9993,17.8985 5.9993,19.0005 L5.9993,20.0005 L3.8663,20.0005 C4.7753,18.4795 5.5433,16.7555 6.1933,15.0005 L11.8063,15.0005 C12.4563,16.7555 13.2243,18.4795 14.1323,20.0005 L14.1323,20.0005 Z M7.7453,10.0005 L10.2543,10.0005 C10.5043,10.9685 10.7933,11.9785 11.1193,13.0005 L6.8803,13.0005 C7.2063,11.9785 7.4943,10.9685 7.7453,10.0005 L7.7453,10.0005 Z M8.9993,4.0005 C8.9993,4.4135 9.6703,7.5665 9.7683,8.0005 L8.2303,8.0005 C8.3283,7.5665 8.9993,4.4135 8.9993,4.0005 L8.9993,4.0005 Z M16.9993,13.0005 L13.2293,13.0005 C12.9073,12.0465 12.6043,11.0455 12.3213,10.0005 L13.9993,10.0005 L13.9993,8.0005 L11.8183,8.0005 C11.5103,6.6855 11.2353,5.3195 10.9993,3.9175 L10.9993,3.0005 C10.9993,2.8455 10.9633,2.6915 10.8943,2.5535 L9.8943,0.5535 C9.5553,-0.1235 8.4443,-0.1235 8.1053,0.5535 L7.1053,2.5535 C7.0353,2.6915 6.9993,2.8455 6.9993,3.0005 L6.9993,3.9175 C6.7643,5.3195 6.4883,6.6855 6.1813,8.0005 L3.9993,8.0005 L3.9993,10.0005 L5.6773,10.0005 C5.3953,11.0455 5.0913,12.0465 4.7703,13.0005 L0.9993,13.0005 L0.9993,15.0005 L4.0413,15.0005 C3.1753,17.1995 2.2123,19.0505 1.1993,20.4005 C0.9723,20.7035 0.9353,21.1085 1.1053,21.4475 C1.2743,21.7865 1.6203,22.0005 1.9993,22.0005 L6.9993,22.0005 C7.5523,22.0005 7.9993,21.5525 7.9993,21.0005 L7.9993,19.0005 L9.9993,19.0005 L9.9993,21.0005 C9.9993,21.5525 10.4473,22.0005 10.9993,22.0005 L15.9993,22.0005 C16.3783,22.0005 16.7243,21.7865 16.8943,21.4475 C17.0633,21.1085 17.0273,20.7035 16.7993,20.4005 C15.7873,19.0505 14.8243,17.1995 13.9573,15.0005 L16.9993,15.0005 L16.9993,13.0005 Z"></path>
            </g>
        </g>
    </g>
</svg>