<?xml version="1.0" encoding="UTF-8"?>
<svg width="20px" height="20px" viewBox="0 0 20 20" version="1.1" xmlns="http://www.w3.org/2000/svg" xmlns:xlink="http://www.w3.org/1999/xlink">
    <!-- Generator: Sketch 42 (36781) - http://www.bohemiancoding.com/sketch -->
    <title>Fill 571 + Fill 572</title>
    <desc>Created with Sketch.</desc>
    <defs></defs>
    <g id="Page-1" stroke="none" stroke-width="1" fill="none" fill-rule="evenodd">
        <g id="Line-Icons" transform="translate(-338.000000, -865.000000)" fill="#757575">
            <g id="Fill-571-+-Fill-572" transform="translate(338.000000, 865.000000)">
                <path d="M18,14.001 L13.414,14.001 L11.414,12.001 L13.414,10.001 L18,10.001 L18,14.001 Z M15.997,18.001 L2,18.001 L2,6.001 L16,6.001 L16,8.001 L13,8.001 C12.735,8.001 12.48,8.107 12.293,8.294 L9.293,11.294 C8.902,11.685 8.902,12.317 9.293,12.709 L12.293,15.709 C12.48,15.895 12.735,16.001 13,16.001 L15.998,16.001 L15.997,18.001 Z M12.517,2.271 L13.382,4.001 L8.193,4.001 L12.517,2.271 Z M19,8.001 L18,8.001 L18,6.001 C18,4.898 17.103,4.001 16,4.001 L15.618,4.001 L13.895,0.554 C13.662,0.089 13.112,-0.12 12.628,0.073 L2.807,4.001 L2,4.001 C0.897,4.001 0,4.898 0,6.001 L0,18.001 C0,19.104 0.897,20.001 2,20.001 L16,20.001 C17.103,20.001 18,19.104 18,18.001 L18,16.001 L19,16.001 C19.552,16.001 20,15.553 20,15.001 L20,9.001 C20,8.449 19.552,8.001 19,8.001 L19,8.001 Z" id="Fill-571"></path>
                <path d="M13,12.001 C13,12.554 13.448,13.001 14,13.001 C14.552,13.001 15,12.554 15,12.001 C15,11.45 14.552,11.001 14,11.001 C13.448,11.001 13,11.45 13,12.001" id="Fill-572"></path>
            </g>
        </g>
    </g>
</svg>