<?xml version="1.0" encoding="UTF-8"?>
<svg width="20px" height="20px" viewBox="0 0 20 20" version="1.1" xmlns="http://www.w3.org/2000/svg" xmlns:xlink="http://www.w3.org/1999/xlink">
    <!-- Generator: Sketch 42 (36781) - http://www.bohemiancoding.com/sketch -->
    <title>Fill 532 + Fill 533</title>
    <desc>Created with Sketch.</desc>
    <defs></defs>
    <g id="Page-1" stroke="none" stroke-width="1" fill="none" fill-rule="evenodd">
        <g id="Line-Icons" transform="translate(-52.000000, -722.000000)" fill="#757575">
            <g id="Fill-532-+-Fill-533" transform="translate(52.000000, 722.000000)">
                <path d="M13,8.3237 L13,5.6777 L16.305,7.0017 L13,8.3237 Z M5,11.5237 L5,2.4777 L7,3.2777 L7,10.7237 L5,11.5237 Z M11,4.8787 L11,9.1227 L9,9.9237 L9,4.0787 L11,4.8787 Z M18.443,5.7017 L5.299,0.4437 C5.071,0.3517 4.838,0.3047 4.607,0.3047 C3.691,0.3047 3,1.0347 3,2.0007 L3,12.0007 C3,12.9677 3.691,13.6957 4.607,13.6957 C4.838,13.6957 5.071,13.6507 5.299,13.5577 L18.442,8.3007 C19.356,7.9347 19.454,7.2697 19.454,7.0007 C19.454,6.7317 19.356,6.0667 18.443,5.7017 L18.443,5.7017 Z" id="Fill-532"></path>
                <polygon id="Fill-533" points="0 20 2 20 2 0 0 0"></polygon>
            </g>
        </g>
    </g>
</svg>