<?xml version="1.0" encoding="UTF-8"?>
<svg width="24px" height="18px" viewBox="0 0 24 18" version="1.1" xmlns="http://www.w3.org/2000/svg" xmlns:xlink="http://www.w3.org/1999/xlink">
    <!-- Generator: Sketch 42 (36781) - http://www.bohemiancoding.com/sketch -->
    <title>Fill 31</title>
    <desc>Created with Sketch.</desc>
    <defs></defs>
    <g id="Page-1" stroke="none" stroke-width="1" fill="none" fill-rule="evenodd">
        <g id="Line-Icons" transform="translate(-48.000000, -1587.000000)" fill="#757575">
            <g id="Fill-31" transform="translate(48.000000, 1587.000000)">
                <path d="M22.0015,16.0005 L12.9995,16.0005 L12.9995,2.0005 L18.9995,2.0005 L18.9995,5.0005 L21.9995,5.0005 L22.0015,16.0005 Z M10.9995,16.0005 L1.9995,16.0005 L1.9995,5.0005 L4.9995,5.0005 L4.9995,2.0005 L10.9995,2.0005 L10.9995,16.0005 Z M20.4145,0.0005 L3.5855,0.0005 L-0.0005,3.5865 L-0.0005,16.0005 C-0.0005,17.1025 0.8965,18.0005 1.9995,18.0005 L21.9995,18.0005 C23.1025,18.0005 23.9995,17.1025 23.9995,16.0005 L23.9995,3.5865 L20.4145,0.0005 Z"></path>
            </g>
        </g>
    </g>
</svg>