<?xml version="1.0" encoding="UTF-8"?>
<svg width="20px" height="20px" viewBox="0 0 20 20" version="1.1" xmlns="http://www.w3.org/2000/svg" xmlns:xlink="http://www.w3.org/1999/xlink">
    <!-- Generator: Sketch 42 (36781) - http://www.bohemiancoding.com/sketch -->
    <title>Fill 400 + Fill 401</title>
    <desc>Created with Sketch.</desc>
    <defs></defs>
    <g id="Page-1" stroke="none" stroke-width="1" fill="none" fill-rule="evenodd">
        <g id="Line-Icons" transform="translate(-50.000000, -385.000000)" fill="#757575">
            <g id="Fill-400-+-Fill-401" transform="translate(50.000000, 385.000000)">
                <path d="M10,2.0005 C5.589,2.0005 2,5.5885 2,9.9985 C2,14.4095 5.589,17.9985 10,17.9985 C14.411,17.9985 18,14.4095 18,9.9985 C18,5.5885 14.411,2.0005 10,2.0005 M10,19.9985 C4.486,19.9985 0,15.5125 0,9.9985 C0,4.4865 4.486,0.0005 10,0.0005 C15.514,0.0005 20,4.4865 20,9.9985 C20,15.5125 15.514,19.9985 10,19.9985" id="Fill-400"></path>
                <path d="M8,7.0005 C6.195,7.0005 6,8.3985 6,8.9985 C6,10.7365 8.578,12.8445 10,13.8095 C11.422,12.8445 14,10.7365 14,8.9985 C14,8.3985 13.805,7.0005 12,7.0005 C11.551,7.0005 11,7.5515 11,7.9985 C11,8.5505 10.552,8.9985 10,8.9985 C9.448,8.9985 9,8.5505 9,7.9985 C9,7.5515 8.449,7.0005 8,7.0005 M10,15.9985 C9.822,15.9985 9.644,15.9515 9.485,15.8565 C8.924,15.5195 4,12.4645 4,8.9985 C4,6.6075 5.607,5.0005 8,5.0005 C8.735,5.0005 9.452,5.3325 10,5.8455 C10.548,5.3325 11.265,5.0005 12,5.0005 C14.393,5.0005 16,6.6075 16,8.9985 C16,12.4645 11.076,15.5195 10.515,15.8565 C10.356,15.9515 10.178,15.9985 10,15.9985" id="Fill-401"></path>
            </g>
        </g>
    </g>
</svg>