<?xml version="1.0" encoding="UTF-8"?>
<svg width="10px" height="19px" viewBox="0 0 10 19" version="1.1" xmlns="http://www.w3.org/2000/svg" xmlns:xlink="http://www.w3.org/1999/xlink">
    <!-- Generator: Sketch 42 (36781) - http://www.bohemiancoding.com/sketch -->
    <title>Fill 231 + Fill 232</title>
    <desc>Created with Sketch.</desc>
    <defs></defs>
    <g id="Page-1" stroke="none" stroke-width="1" fill="none" fill-rule="evenodd">
        <g id="Line-Icons" transform="translate(-7.000000, -146.000000)" fill="#757575">
            <g id="Fill-231-+-Fill-232" transform="translate(7.000000, 146.000000)">
                <path d="M5,2.0005 C4.449,2.0005 4,2.4495 4,3.0005 C4,3.5515 4.449,4.0005 5,4.0005 C5.551,4.0005 6,3.5515 6,3.0005 C6,2.4495 5.551,2.0005 5,2.0005 M5,6.0005 C3.346,6.0005 2,4.6545 2,3.0005 C2,1.3465 3.346,0.0005 5,0.0005 C6.654,0.0005 8,1.3465 8,3.0005 C8,4.6545 6.654,6.0005 5,6.0005" id="Fill-231"></path>
                <path d="M4.7334,17.0005 L5.2674,17.0005 C6.2154,14.0005 6.2654,14.0005 6.9994,14.0005 C7.0574,14.0005 7.1154,14.0055 7.1724,14.0155 C7.2844,14.0205 7.4944,14.0205 7.7244,14.0185 L7.4814,13.0465 C7.0274,11.2305 7.0274,11.2305 6.7594,10.2145 L6.5074,9.2545 C6.3564,8.5165 5.7134,8.0005 5.0004,8.0005 C4.2864,8.0005 3.6444,8.5165 3.5054,9.1995 L3.2404,10.2145 C2.9724,11.2305 2.9724,11.2305 2.5194,13.0465 L2.2764,14.0185 C2.5074,14.0205 2.7174,14.0205 2.8294,14.0155 C2.9134,14.0005 3.0044,14.0005 3.0814,14.0005 C3.7394,14.0005 3.8224,14.1205 4.7334,17.0005 M6.0004,19.0005 L4.0004,19.0005 C3.5634,19.0005 3.1774,18.7175 3.0464,18.3015 C2.7884,17.4835 2.5024,16.5915 2.3104,16.0185 C1.7234,16.0165 0.9784,16.0005 0.9784,16.0005 C0.6744,15.9935 0.3894,15.8495 0.2054,15.6075 C0.0204,15.3655 -0.0436,15.0535 0.0294,14.7575 L1.5584,8.7465 C1.8744,7.1795 3.3274,6.0005 5.0004,6.0005 C6.6724,6.0005 8.1254,7.1795 8.4544,8.8015 L9.9704,14.7575 C10.0444,15.0535 9.9794,15.3655 9.7954,15.6075 C9.6104,15.8495 9.3254,15.9935 9.0214,16.0005 C9.0214,16.0005 8.2774,16.0165 7.6904,16.0185 C7.4984,16.5915 7.2114,17.4835 6.9534,18.3015 C6.8224,18.7175 6.4364,19.0005 6.0004,19.0005" id="Fill-232"></path>
            </g>
        </g>
    </g>
</svg>