<?xml version="1.0" encoding="UTF-8"?>
<svg width="20px" height="17px" viewBox="0 0 20 17" version="1.1" xmlns="http://www.w3.org/2000/svg" xmlns:xlink="http://www.w3.org/1999/xlink">
    <!-- Generator: Sketch 42 (36781) - http://www.bohemiancoding.com/sketch -->
    <title>Fill 387</title>
    <desc>Created with Sketch.</desc>
    <defs></defs>
    <g id="Page-1" stroke="none" stroke-width="1" fill="none" fill-rule="evenodd">
        <g id="Line-Icons" transform="translate(-98.000000, -339.000000)" fill="#757575">
            <g id="Fill-387" transform="translate(98.000000, 339.000000)">
                <path d="M18,13.0005 L12,13.0005 C11.735,13.0005 11.48,13.1065 11.293,13.2935 L11,13.5865 L11,3.4145 L12.414,2.0005 L18,2.0005 L18,13.0005 Z M8,13.0005 L2,13.0005 L2,2.0005 L7.586,2.0005 L9,3.4145 L9,13.5865 L8.707,13.2935 C8.52,13.1065 8.265,13.0005 8,13.0005 L8,13.0005 Z M19,0.0005 L12,0.0005 C11.735,0.0005 11.48,0.1065 11.293,0.2935 L10,1.5865 L8.707,0.2935 C8.52,0.1065 8.265,0.0005 8,0.0005 L1,0.0005 C0.448,0.0005 0,0.4485 0,1.0005 L0,14.0005 C0,14.5525 0.448,15.0005 1,15.0005 L7.586,15.0005 L9.293,16.7075 C9.488,16.9025 9.744,17.0005 10,17.0005 C10.256,17.0005 10.512,16.9025 10.707,16.7075 L12.414,15.0005 L19,15.0005 C19.552,15.0005 20,14.5525 20,14.0005 L20,1.0005 C20,0.4485 19.552,0.0005 19,0.0005 L19,0.0005 Z"></path>
            </g>
        </g>
    </g>
</svg>