<?xml version="1.0" encoding="UTF-8"?>
<svg width="20px" height="14px" viewBox="0 0 20 14" version="1.1" xmlns="http://www.w3.org/2000/svg" xmlns:xlink="http://www.w3.org/1999/xlink">
    <!-- Generator: Sketch 42 (36781) - http://www.bohemiancoding.com/sketch -->
    <title>Fill 563 + Fill 564</title>
    <desc>Created with Sketch.</desc>
    <defs></defs>
    <g id="Page-1" stroke="none" stroke-width="1" fill="none" fill-rule="evenodd">
        <g id="Line-Icons" transform="translate(-146.000000, -820.000000)" fill="#757575">
            <g id="Fill-563-+-Fill-564" transform="translate(146.000000, 820.000000)">
                <path d="M8.4141,12.0005 L2.0001,5.5865 L2.0001,2.0005 L11.5861,2.0005 L18.0001,8.4145 L18.0001,12.0005 L8.4141,12.0005 Z M2.0001,8.4145 L5.5861,12.0005 L2.0001,12.0005 L2.0001,8.4145 Z M18.0001,5.5865 L14.4141,2.0005 L18.0001,2.0005 L18.0001,5.5865 Z M19.0001,0.0005 L1.0001,0.0005 C0.4481,0.0005 0.0001,0.4485 0.0001,1.0005 L0.0001,13.0005 C0.0001,13.5525 0.4481,14.0005 1.0001,14.0005 L19.0001,14.0005 C19.5521,14.0005 20.0001,13.5525 20.0001,13.0005 L20.0001,1.0005 C20.0001,0.4485 19.5521,0.0005 19.0001,0.0005 L19.0001,0.0005 Z" id="Fill-563"></path>
                <path d="M10,9.0005 C8.897,9.0005 8,8.1035 8,7.0005 C8,5.8985 8.897,5.0005 10,5.0005 C11.103,5.0005 12,5.8985 12,7.0005 C12,8.1035 11.103,9.0005 10,9.0005 M10,3.0005 C7.794,3.0005 6,4.7945 6,7.0005 C6,9.2065 7.794,11.0005 10,11.0005 C12.206,11.0005 14,9.2065 14,7.0005 C14,4.7945 12.206,3.0005 10,3.0005" id="Fill-564"></path>
            </g>
        </g>
    </g>
</svg>