<?xml version="1.0" encoding="UTF-8"?>
<svg width="15px" height="20px" viewBox="0 0 15 20" version="1.1" xmlns="http://www.w3.org/2000/svg" xmlns:xlink="http://www.w3.org/1999/xlink">
    <!-- Generator: Sketch 42 (36781) - http://www.bohemiancoding.com/sketch -->
    <title>Fill 85</title>
    <desc>Created with Sketch.</desc>
    <defs></defs>
    <g id="Page-1" stroke="none" stroke-width="1" fill="none" fill-rule="evenodd">
        <g id="Line-Icons" transform="translate(-54.000000, -1153.000000)" fill="#767676">
            <g id="Fill-85" transform="translate(54.000000, 1153.000000)">
                <path d="M2.004,14 L5.004,14 L5.004,18 L2.004,18 L2.004,14 Z M5.004,5 L2.004,5 L2.004,2 L5.004,2 L5.004,5 Z M5.004,12 L2.004,12 L2.004,7 L5.004,7 L5.004,12 Z M9.936,11.229 C9.558,11.266 9.196,11.33 8.846,11.406 C9.503,10.978 10.185,10.457 10.822,9.819 C13.165,7.475 14.004,4.515 14.004,4.515 C14.004,4.515 11.044,5.354 8.7,7.697 C8.008,8.389 7.451,9.134 7.004,9.842 L7.004,1 C7.004,0.448 6.556,0 6.004,0 L1.004,0 C0.452,0 0.004,0.448 0.004,1 L0.004,19 C0.004,19.552 0.452,20 1.004,20 L6.004,20 C6.556,20 7.004,19.552 7.004,19 L7.004,13.509 C7.885,13.689 8.989,13.819 10.184,13.699 C12.912,13.425 15,11.966 15,11.966 C15,11.966 12.664,10.954 9.936,11.229 L9.936,11.229 Z"></path>
            </g>
        </g>
    </g>
</svg>