<?xml version="1.0" encoding="UTF-8"?>
<svg width="20px" height="20px" viewBox="0 0 20 20" version="1.1" xmlns="http://www.w3.org/2000/svg" xmlns:xlink="http://www.w3.org/1999/xlink">
    <!-- Generator: Sketch 42 (36781) - http://www.bohemiancoding.com/sketch -->
    <title>Fill 189</title>
    <desc>Created with Sketch.</desc>
    <defs></defs>
    <g id="Page-1" stroke="none" stroke-width="1" fill="none" fill-rule="evenodd">
        <g id="Line-Icons" transform="translate(-194.000000, -529.000000)" fill="#757575">
            <g id="Fill-189" transform="translate(194.000000, 529.000000)">
                <path d="M17,18.0005 C16.448,18.0005 16,17.5525 16,17.0005 C16,16.4485 16.448,16.0005 17,16.0005 C17.552,16.0005 18,16.4485 18,17.0005 C18,17.5525 17.552,18.0005 17,18.0005 M14.184,16.0005 L5.815,16.0005 C5.514,15.1535 4.847,14.4865 4,14.1845 L4,5.8165 C4.847,5.5145 5.514,4.8475 5.815,4.0005 L14.185,4.0005 C14.486,4.8475 15.153,5.5145 16,5.8155 L16,14.1845 C15.153,14.4865 14.486,15.1535 14.184,16.0005 M3,18.0005 C2.448,18.0005 2,17.5525 2,17.0005 C2,16.4485 2.448,16.0005 3,16.0005 C3.552,16.0005 4,16.4485 4,17.0005 C4,17.5525 3.552,18.0005 3,18.0005 M3,2.0005 C3.552,2.0005 4,2.4485 4,3.0005 C4,3.5525 3.552,4.0005 3,4.0005 C2.448,4.0005 2,3.5525 2,3.0005 C2,2.4485 2.448,2.0005 3,2.0005 M17,2.0005 C17.552,2.0005 18,2.4485 18,3.0005 C18,3.5525 17.552,4.0005 17,4.0005 C16.448,4.0005 16,3.5525 16,3.0005 C16,2.4485 16.448,2.0005 17,2.0005 M18,14.1845 L18,5.8165 C19.162,5.4025 20,4.3025 20,3.0005 C20,1.3465 18.654,0.0005 17,0.0005 C15.698,0.0005 14.599,0.8385 14.184,2.0005 L5.815,2.0005 C5.401,0.8385 4.302,0.0005 3,0.0005 C1.346,0.0005 0,1.3465 0,3.0005 C0,4.3025 0.838,5.4025 2,5.8155 L2,14.1845 C0.838,14.5995 0,15.6995 0,17.0005 C0,18.6545 1.346,20.0005 3,20.0005 C4.302,20.0005 5.401,19.1625 5.815,18.0005 L14.185,18.0005 C14.599,19.1625 15.698,20.0005 17,20.0005 C18.654,20.0005 20,18.6545 20,17.0005 C20,15.6995 19.162,14.5995 18,14.1845"></path>
            </g>
        </g>
    </g>
</svg>