<?xml version="1.0" encoding="UTF-8"?>
<svg width="20px" height="21px" viewBox="0 0 20 21" version="1.1" xmlns="http://www.w3.org/2000/svg" xmlns:xlink="http://www.w3.org/1999/xlink">
    <!-- Generator: Sketch 42 (36781) - http://www.bohemiancoding.com/sketch -->
    <title>Fill 560 + Fill 561 + Fill 562</title>
    <desc>Created with Sketch.</desc>
    <defs></defs>
    <g id="Page-1" stroke="none" stroke-width="1" fill="none" fill-rule="evenodd">
        <g id="Line-Icons" transform="translate(-50.000000, -817.000000)" fill="#757575">
            <g id="Fill-560-+-Fill-561-+-Fill-562" transform="translate(50.000000, 817.000000)">
                <path d="M17.9971,18.0005 L2.0001,18.0005 L2.0001,2.0005 L18.0001,2.0005 L17.9971,18.0005 Z M18.0001,0.0005 L2.0001,0.0005 C0.8971,0.0005 0.0001,0.8975 0.0001,2.0005 L0.0001,18.0005 C0.0001,19.1035 0.8971,20.0005 2.0001,20.0005 L2.0001,21.0005 L4.0001,21.0005 L4.0001,20.0005 L16.0001,20.0005 L16.0001,21.0005 L18.0001,21.0005 L18.0001,20.0005 C19.1031,20.0005 20.0001,19.1035 20.0001,18.0005 L20.0001,2.0005 C20.0001,0.8975 19.1031,0.0005 18.0001,0.0005 L18.0001,0.0005 Z" id="Fill-560"></path>
                <path d="M6,8.0005 L7,8.0005 L7,6.0005 L6,6.0005 L6,5.0005 L15,5.0005 L15,15.0005 L6,15.0005 L6,14.0005 L7,14.0005 L7,12.0005 L6,12.0005 L6,8.0005 Z M4,16.0005 C4,16.5535 4.448,17.0005 5,17.0005 L16,17.0005 C16.553,17.0005 17,16.5535 17,16.0005 L17,4.0005 C17,3.4485 16.553,3.0005 16,3.0005 L5,3.0005 C4.448,3.0005 4,3.4485 4,4.0005 L4,6.0005 L3,6.0005 L3,8.0005 L4,8.0005 L4,12.0005 L3,12.0005 L3,14.0005 L4,14.0005 L4,16.0005 Z" id="Fill-561"></path>
                <path d="M11,9.0005 C11.552,9.0005 12,9.4495 12,10.0005 C12,10.5515 11.552,11.0005 11,11.0005 C10.449,11.0005 10,10.5515 10,10.0005 C10,9.4495 10.449,9.0005 11,9.0005 M11,13.0005 C12.654,13.0005 14,11.6545 14,10.0005 C14,8.3465 12.654,7.0005 11,7.0005 C9.346,7.0005 8,8.3465 8,10.0005 C8,11.6545 9.346,13.0005 11,13.0005" id="Fill-562"></path>
            </g>
        </g>
    </g>
</svg>