<?xml version="1.0" encoding="UTF-8"?>
<svg width="20px" height="20px" viewBox="0 0 20 20" version="1.1" xmlns="http://www.w3.org/2000/svg" xmlns:xlink="http://www.w3.org/1999/xlink">
    <!-- Generator: Sketch 42 (36781) - http://www.bohemiancoding.com/sketch -->
    <title>Fill 316</title>
    <desc>Created with Sketch.</desc>
    <defs></defs>
    <g id="Page-1" stroke="none" stroke-width="1" fill="none" fill-rule="evenodd">
        <g id="Line-Icons" transform="translate(-98.000000, -193.000000)" fill="#757575">
            <g id="Fill-316" transform="translate(98.000000, 193.000000)">
                <path d="M2,2.0005 L2,14.0005 L6,14.0005 L6,16.0005 L8.667,14.0005 L18,14.0005 L18,2.0005 L2,2.0005 Z M4,20.0005 L4,16.0005 L2,16.0005 C0.897,16.0005 0,15.1035 0,14.0005 L0,2.0005 C0,0.8975 0.897,0.0005 2,0.0005 L18,0.0005 C19.103,0.0005 20,0.8975 20,2.0005 L20,14.0005 C20,15.1035 19.103,16.0005 18,16.0005 L9.333,16.0005 L4,20.0005 Z"></path>
            </g>
        </g>
    </g>
</svg>