<?xml version="1.0" encoding="UTF-8"?>
<svg width="22px" height="19px" viewBox="0 0 22 19" version="1.1" xmlns="http://www.w3.org/2000/svg" xmlns:xlink="http://www.w3.org/1999/xlink">
    <!-- Generator: Sketch 42 (36781) - http://www.bohemiancoding.com/sketch -->
    <title>Fill 631</title>
    <desc>Created with Sketch.</desc>
    <defs></defs>
    <g id="Page-1" stroke="none" stroke-width="1" fill="none" fill-rule="evenodd">
        <g id="Line-Icons" transform="translate(-241.000000, -1010.000000)" fill="#767676">
            <g id="Fill-631" transform="translate(241.000000, 1010.000000)">
                <path d="M19.002,17.0022 L14.003,17.0022 C14.003,15.3482 12.657,14.0022 11.003,14.0022 C9.349,14.0022 8.002,15.3482 8.002,17.0022 L3.002,17.0022 L3.002,13.0022 L19.002,13.0022 L19.002,17.0022 Z M8.775,6.3692 C8.585,6.1362 8.302,6.0022 8.002,6.0022 L7.002,6.0022 L7.002,4.0022 L15.002,4.0022 L15.002,6.0022 L14.002,6.0022 C13.702,6.0022 13.418,6.1362 13.228,6.3692 C13.039,6.6002 12.962,6.9042 13.022,7.1982 L13.782,11.0022 L8.222,11.0022 L8.982,7.1982 C9.041,6.9042 8.965,6.6002 8.775,6.3692 L8.775,6.3692 Z M22.002,11.0022 L15.822,11.0022 L15.219,7.9902 C16.22,7.8822 17.002,7.0312 17.002,6.0022 L17.002,0.0022 L15.002,0.0022 L15.002,2.0022 L12.002,2.0022 L12.002,0.0022 L10.002,0.0022 L10.002,2.0022 L7.002,2.0022 L7.002,0.0022 L5.002,0.0022 L5.002,6.0022 C5.002,7.0312 5.784,7.8822 6.785,7.9902 L6.183,11.0022 L0.002,11.0022 L0.002,13.0022 L1.002,13.0022 L1.002,18.0022 C1.002,18.5542 1.45,19.0022 2.002,19.0022 L9.002,19.0022 C9.554,19.0022 10.002,18.5542 10.002,18.0022 L10.002,17.0032 C10.002,16.4512 10.451,16.0022 11.003,16.0022 C11.562,16.0022 12.004,16.4592 12.003,17.0052 L12.002,18.0012 C12.001,18.5512 12.448,19.0022 13.002,19.0022 L20.002,19.0022 C20.554,19.0022 21.002,18.5542 21.002,18.0022 L21.002,13.0022 L22.002,13.0022 L22.002,11.0022 Z"></path>
            </g>
        </g>
    </g>
</svg>