<?xml version="1.0" encoding="UTF-8"?>
<svg width="22px" height="22px" viewBox="0 0 22 22" version="1.1" xmlns="http://www.w3.org/2000/svg" xmlns:xlink="http://www.w3.org/1999/xlink">
    <!-- Generator: Sketch 42 (36781) - http://www.bohemiancoding.com/sketch -->
    <title>Fill 325 + Fill 326</title>
    <desc>Created with Sketch.</desc>
    <defs></defs>
    <g id="Page-1" stroke="none" stroke-width="1" fill="none" fill-rule="evenodd">
        <g id="Line-Icons" transform="translate(-288.000000, -193.000000)" fill="#757575">
            <g id="Fill-325-+-Fill-326" transform="translate(288.000000, 193.000000)">
                <path d="M3,22.0005 L3,18.0005 L2,18.0005 C0.897,18.0005 0,17.1035 0,16.0005 L0,7.0005 C0,5.8975 0.897,5.0005 2,5.0005 L11,5.0005 L11,7.0005 L2,7.0005 L2,16.0005 L5,16.0005 L5,18.0005 L7.667,16.0005 L15,16.0005 L15,10.0005 L17,10.0005 L17,16.0005 C17,17.1035 16.103,18.0005 15,18.0005 L8.333,18.0005 L3,22.0005 Z" id="Fill-325"></path>
                <polygon id="Fill-326" points="16 7.4146 12.293 3.7066 13.707 2.2936 16 4.5866 20.293 0.2936 21.707 1.7066"></polygon>
            </g>
        </g>
    </g>
</svg>