<?xml version="1.0" encoding="UTF-8"?>
<svg width="22px" height="24px" viewBox="0 0 22 24" version="1.1" xmlns="http://www.w3.org/2000/svg" xmlns:xlink="http://www.w3.org/1999/xlink">
    <!-- Generator: Sketch 42 (36781) - http://www.bohemiancoding.com/sketch -->
    <title>Fill 50 + Fill 51</title>
    <desc>Created with Sketch.</desc>
    <defs></defs>
    <g id="Page-1" stroke="none" stroke-width="1" fill="none" fill-rule="evenodd">
        <g id="Line-Icons" transform="translate(-192.000000, -1583.000000)" fill="#757575">
            <g id="Fill-50-+-Fill-51" transform="translate(192.000000, 1583.000000)">
                <path d="M13,11.0005 L13,2.0005 L17,2.0005 L17,5.0005 L20,5.0005 L20.001,11.0005 L13,11.0005 Z M20,0.0005 L13,0.0005 C11.897,0.0005 11,0.8985 11,2.0005 L11,11.0005 C11,12.1025 11.897,13.0005 13,13.0005 L20,13.0005 C21.103,13.0005 22,12.1025 22,11.0005 L22,2.0005 C22,0.8985 21.103,0.0005 20,0.0005 L20,0.0005 Z" id="Fill-50"></path>
                <path d="M16.5,21.0005 L6,21.0005 L6,16.7215 L10.494,15.2245 L10.783,15.8035 L9.293,17.2935 C9.007,17.5795 8.921,18.0095 9.076,18.3835 C9.231,18.7575 9.596,19.0005 10,19.0005 L18,19.0005 L16.5,21.0005 Z M2,16.0005 L4,16.0005 L4,22.0005 L2,22.0005 L2,16.0005 Z M20,17.0005 L12.414,17.0005 L12.707,16.7065 C13.011,16.4035 13.087,15.9385 12.895,15.5535 L11.895,13.5535 C11.672,13.1085 11.156,12.8945 10.684,13.0515 L5.927,14.6375 C5.781,14.2665 5.423,14.0005 5,14.0005 L1,14.0005 C0.448,14.0005 0,14.4485 0,15.0005 L0,23.0005 C0,23.5525 0.448,24.0005 1,24.0005 L5,24.0005 C5.552,24.0005 6,23.5525 6,23.0005 L17,23.0005 C17.315,23.0005 17.611,22.8525 17.8,22.6005 L20.8,18.6005 C21.027,18.2975 21.064,17.8925 20.895,17.5535 C20.725,17.2155 20.379,17.0005 20,17.0005 L20,17.0005 Z" id="Fill-51"></path>
            </g>
        </g>
    </g>
</svg>