<?xml version="1.0" encoding="UTF-8"?>
<svg width="24px" height="24px" viewBox="0 0 24 24" version="1.1" xmlns="http://www.w3.org/2000/svg" xmlns:xlink="http://www.w3.org/1999/xlink">
    <!-- Generator: Sketch 42 (36781) - http://www.bohemiancoding.com/sketch -->
    <title>Fill 181</title>
    <desc>Created with Sketch.</desc>
    <defs></defs>
    <g id="Page-1" stroke="none" stroke-width="1" fill="none" fill-rule="evenodd">
        <g id="Line-Icons" transform="translate(-336.000000, -527.000000)" fill="#757575">
            <g id="Fill-181" transform="translate(336.000000, 527.000000)">
                <path d="M22,13 L20,13 L20,11 L22,11 L22,13 Z M15,19.405 L15,19 C15,18.449 14.552,18 14,18 L10,18 C9.448,18 9,18.449 9,19 L9,19.414 C7.002,18.6 5.408,17 4.596,15 L5,15 C5.552,15 6,14.553 6,14 L6,10 C6,9.449 5.552,9 5,9 L4.596,9 C5.408,7 7.002,5.401 9,4.588 L9,5 C9,5.553 9.448,6 10,6 L14,6 C14.552,6 15,5.553 15,5 L15,4.596 C16.998,5.408 18.592,7.003 19.404,9 L19,9 C18.448,9 18,9.449 18,10 L18,14 C18,14.553 18.448,15 19,15 L19.404,15 C18.592,16.998 16.998,18.593 15,19.405 L15,19.405 Z M13,22 L11,22 L11,20 L13,20 L13,22 Z M2,11 L4,11 L4,13 L2,13 L2,11 Z M11,2 L13,2 L13,4 L11,4 L11,2 Z M23,9 L21.515,9 C20.536,5.903 18.098,3.465 15,2.485 L15,1 C15,0.449 14.552,0 14,0 L10,0 C9.448,0 9,0.449 9,1 L9,2.492 C5.903,3.472 3.465,5.905 2.485,9 L1,9 C0.448,9 0,9.449 0,10 L0,14 C0,14.553 0.448,15 1,15 L2.485,15 C3.465,18.096 5.903,20.529 9,21.509 L9,23 C9,23.553 9.448,24 10,24 L14,24 C14.552,24 15,23.553 15,23 L15,21.516 C18.098,20.536 20.536,18.098 21.515,15 L23,15 C23.552,15 24,14.553 24,14 L24,10 C24,9.449 23.552,9 23,9 L23,9 Z"></path>
            </g>
        </g>
    </g>
</svg>