<?xml version="1.0" encoding="UTF-8"?>
<svg width="21px" height="18px" viewBox="0 0 21 18" version="1.1" xmlns="http://www.w3.org/2000/svg" xmlns:xlink="http://www.w3.org/1999/xlink">
    <!-- Generator: Sketch 42 (36781) - http://www.bohemiancoding.com/sketch -->
    <title>Fill 403</title>
    <desc>Created with Sketch.</desc>
    <defs></defs>
    <g id="Page-1" stroke="none" stroke-width="1" fill="none" fill-rule="evenodd">
        <g id="Line-Icons" transform="translate(-145.000000, -385.000000)" fill="#757575">
            <g id="Fill-403" transform="translate(145.000000, 385.000000)">
                <path d="M19,10 L17,10 L17,2 L19,2 L19,10 Z M14,9 C13.6,9 13.238,9.239 13.081,9.606 L10.341,16 L9,16 L9,12 C9,11.449 8.552,11 8,11 L2.198,11 L3.835,2 L10.808,2 L15,3.678 L15,9 L14,9 Z M20,0 L16,0 C15.448,0 15,0.449 15,1 L15,1.523 L11.372,0.072 C11.253,0.025 11.127,0 11,0 L3,0 C2.517,0 2.102,0.346 2.016,0.822 L0.016,11.822 C-0.037,12.113 0.042,12.414 0.232,12.642 C0.422,12.869 0.704,13 1,13 L7,13 L7,17 C7,17.553 7.448,18 8,18 L11,18 C11.4,18 11.762,17.762 11.919,17.394 L14.659,11 L15,11 C15,11.553 15.448,12 16,12 L20,12 C20.552,12 21,11.553 21,11 L21,1 C21,0.449 20.552,0 20,0 L20,0 Z"></path>
            </g>
        </g>
    </g>
</svg>