<?xml version="1.0" encoding="UTF-8"?>
<svg width="22px" height="20px" viewBox="0 0 22 20" version="1.1" xmlns="http://www.w3.org/2000/svg" xmlns:xlink="http://www.w3.org/1999/xlink">
    <!-- Generator: Sketch 42 (36781) - http://www.bohemiancoding.com/sketch -->
    <title>Fill 249</title>
    <desc>Created with Sketch.</desc>
    <defs></defs>
    <g id="Page-1" stroke="none" stroke-width="1" fill="none" fill-rule="evenodd">
        <g id="Line-Icons" transform="translate(-385.000000, -49.000000)" fill="#757575">
            <g id="Fill-249" transform="translate(385.000000, 49.000000)">
                <path d="M8.8618,14.2559 C4.9198,16.0149 2.7928,16.9639 2.0348,17.0959 L5.6938,10.9989 L16.2088,10.9989 C13.1878,12.3279 10.7758,13.4029 8.8618,14.2559 L8.8618,14.2559 Z M2.0838,2.9149 C2.8838,3.0789 5.0128,4.0289 8.8908,5.7579 C10.8008,6.6099 13.2028,7.6799 16.2088,8.9989 L5.6938,8.9989 L5.6928,8.9989 L2.0838,2.9149 Z M21.3978,9.0819 C16.2268,6.8389 12.4628,5.1609 9.7058,3.9319 C4.3288,1.5329 2.8838,0.8899 1.8758,0.8899 C1.0118,0.8899 0.5868,1.4139 0.4478,1.5849 C-0.0812,2.2359 -0.1462,3.1569 0.2848,3.8729 L3.9608,10.0009 L0.2858,16.1249 C-0.1462,16.8429 -0.0812,17.7629 0.4478,18.4149 C0.5868,18.5879 1.0128,19.1129 1.8768,19.1129 L1.8778,19.1129 C2.8838,19.1129 4.3228,18.4699 9.6768,16.0819 C12.4358,14.8509 16.2078,13.1689 21.3978,10.9179 C21.7638,10.7579 21.9998,10.3989 21.9998,9.9989 C21.9998,9.6019 21.7638,9.2409 21.3978,9.0819 L21.3978,9.0819 Z"></path>
            </g>
        </g>
    </g>
</svg>