<?xml version="1.0" encoding="UTF-8"?>
<svg width="16px" height="20px" viewBox="0 0 16 20" version="1.1" xmlns="http://www.w3.org/2000/svg" xmlns:xlink="http://www.w3.org/1999/xlink">
    <!-- Generator: Sketch 42 (36781) - http://www.bohemiancoding.com/sketch -->
    <title>Fill 65</title>
    <desc>Created with Sketch.</desc>
    <defs></defs>
    <g id="Page-1" stroke="none" stroke-width="1" fill="none" fill-rule="evenodd">
        <g id="Line-Icons" transform="translate(-100.000000, -1489.000000)" fill="#767676">
            <g id="Fill-65" transform="translate(99.000000, 1489.000000)">
                <path d="M14.1392,11.064 C13.6052,11.837 12.9992,12.713 12.9992,14.001 C12.9992,14.544 13.1762,15.028 13.3642,15.541 C13.5872,16.149 13.8522,16.876 13.9552,18.001 L4.0422,18.001 C4.1452,16.876 4.4112,16.149 4.6342,15.541 C4.8222,15.028 4.9992,14.544 4.9992,14.001 C4.9992,12.713 4.3932,11.837 3.8592,11.064 C3.3782,10.37 2.9992,9.821 2.9992,9.001 C2.9992,8.578 3.4632,7.354 4.5232,7.063 C5.1462,7.82 6.5152,9.001 8.9992,9.001 C11.4832,9.001 12.8522,7.82 13.4742,7.063 C14.5342,7.354 14.9992,8.578 14.9992,9.001 C14.9992,9.821 14.6192,10.37 14.1392,11.064 M14.9992,14.001 C14.9992,13.337 15.3452,12.835 15.7842,12.202 C16.3252,11.419 16.9992,10.445 16.9992,9.001 C16.9992,7.758 15.9952,5.672 13.9992,5.134 L13.9992,0.001 L11.9992,0.001 L11.9992,5.706 C11.7232,6.085 10.8672,7.001 8.9992,7.001 C7.1222,7.001 6.2672,6.076 5.9992,5.709 L5.9992,0.001 L3.9992,0.001 L3.9992,5.134 C2.0022,5.672 0.9992,7.758 0.9992,9.001 C0.9992,10.445 1.6722,11.419 2.2142,12.202 C2.6522,12.835 2.9992,13.337 2.9992,14.001 C2.9992,14.189 2.8912,14.482 2.7562,14.853 C2.4542,15.677 1.9992,16.921 1.9992,19.001 C1.9992,19.552 2.4472,20.001 2.9992,20.001 L14.9992,20.001 C15.5512,20.001 15.9992,19.552 15.9992,19.001 C15.9992,16.921 15.5432,15.677 15.2422,14.853 C15.1062,14.482 14.9992,14.189 14.9992,14.001"></path>
            </g>
        </g>
    </g>
</svg>