<?xml version="1.0" encoding="UTF-8"?>
<svg width="20px" height="20px" viewBox="0 0 20 20" version="1.1" xmlns="http://www.w3.org/2000/svg" xmlns:xlink="http://www.w3.org/1999/xlink">
    <!-- Generator: Sketch 42 (36781) - http://www.bohemiancoding.com/sketch -->
    <title>Fill 69 + Fill 70</title>
    <desc>Created with Sketch.</desc>
    <defs></defs>
    <g id="Page-1" stroke="none" stroke-width="1" fill="none" fill-rule="evenodd">
        <g id="Line-Icons" transform="translate(-386.000000, -1441.000000)" fill="#767676">
            <g id="Fill-69-+-Fill-70" transform="translate(386.000000, 1441.000000)">
                <path d="M10.001,6.0025 C4.751,6.0025 2.001,4.5165 2.001,4.0025 C2.001,3.4885 4.751,2.0025 10.001,2.0025 C15.25,2.0025 18.001,3.4885 18.001,4.0025 C18.001,4.5165 15.25,6.0025 10.001,6.0025 L10.001,6.0025 Z M15.001,9.5455 C12.643,11.4775 7.359,11.4775 5.001,9.5455 L5.001,7.5185 C6.551,7.8425 8.297,8.0025 10.001,8.0025 C11.705,8.0025 13.451,7.8425 15.001,7.5185 L15.001,9.5455 Z M5.001,16.5595 L5.001,11.9065 C6.44,12.6385 8.217,13.0135 10.001,13.0135 C11.785,13.0135 13.561,12.6385 15.001,11.9065 L15.001,16.5595 C12.642,18.4825 7.36,18.4825 5.001,16.5595 L5.001,16.5595 Z M20.001,4.0025 C20.001,1.2545 14.817,0.0025 10.001,0.0025 C5.185,0.0025 0.001,1.2545 0.001,4.0025 C0.001,5.3275 1.212,6.3015 3.001,6.9585 L3.001,17.0025 C3.001,17.2685 3.106,17.5225 3.294,17.7095 C4.83,19.2455 7.415,20.0135 10.001,20.0135 C12.586,20.0135 15.172,19.2455 16.708,17.7095 C16.896,17.5225 17.001,17.2685 17.001,17.0025 L17.001,6.9585 C18.79,6.3015 20.001,5.3275 20.001,4.0025 L20.001,4.0025 Z" id="Fill-69"></path>
                <path d="M13.001,3.0025 L7.001,3.0025 C6.449,3.0025 6.001,3.4505 6.001,4.0025 C6.001,4.5555 6.449,5.0025 7.001,5.0025 L13.001,5.0025 C13.553,5.0025 14.001,4.5555 14.001,4.0025 C14.001,3.4505 13.553,3.0025 13.001,3.0025" id="Fill-70"></path>
            </g>
        </g>
    </g>
</svg>