<?xml version="1.0" encoding="UTF-8"?>
<svg width="10px" height="20px" viewBox="0 0 10 20" version="1.1" xmlns="http://www.w3.org/2000/svg" xmlns:xlink="http://www.w3.org/1999/xlink">
    <!-- Generator: Sketch 42 (36781) - http://www.bohemiancoding.com/sketch -->
    <title>Fill 223 + Fill 224</title>
    <desc>Created with Sketch.</desc>
    <defs></defs>
    <g id="Page-1" stroke="none" stroke-width="1" fill="none" fill-rule="evenodd">
        <g id="Line-Icons" transform="translate(-55.000000, -145.000000)" fill="#757575">
            <g id="Fill-223-+-Fill-224" transform="translate(55.000000, 145.000000)">
                <path d="M5,2.0005 C4.449,2.0005 4,2.4495 4,3.0005 C4,3.5515 4.449,4.0005 5,4.0005 C5.551,4.0005 6,3.5515 6,3.0005 C6,2.4495 5.551,2.0005 5,2.0005 M5,6.0005 C3.346,6.0005 2,4.6545 2,3.0005 C2,1.3465 3.346,0.0005 5,0.0005 C6.654,0.0005 8,1.3465 8,3.0005 C8,4.6545 6.654,6.0005 5,6.0005" id="Fill-223"></path>
                <path d="M4,18.0005 L6,18.0005 L6,14.0005 C6,13.4485 6.448,13.0005 7,13.0005 L8,13.0005 L8,11.0005 C8,9.3465 6.654,8.0005 5,8.0005 C3.346,8.0005 2,9.3465 2,11.0005 L2,13.0005 L3,13.0005 C3.552,13.0005 4,13.4485 4,14.0005 L4,18.0005 Z M7,20.0005 L3,20.0005 C2.448,20.0005 2,19.5525 2,19.0005 L2,15.0005 L1,15.0005 C0.448,15.0005 0,14.5525 0,14.0005 L0,11.0005 C0,8.2435 2.243,6.0005 5,6.0005 C7.757,6.0005 10,8.2435 10,11.0005 L10,14.0005 C10,14.5525 9.552,15.0005 9,15.0005 L8,15.0005 L8,19.0005 C8,19.5525 7.552,20.0005 7,20.0005 L7,20.0005 Z" id="Fill-224"></path>
            </g>
        </g>
    </g>
</svg>