<?xml version="1.0" encoding="UTF-8"?>
<svg width="24px" height="24px" viewBox="0 0 24 24" version="1.1" xmlns="http://www.w3.org/2000/svg" xmlns:xlink="http://www.w3.org/1999/xlink">
    <!-- Generator: Sketch 42 (36781) - http://www.bohemiancoding.com/sketch -->
    <title>Fill 137 + Fill 138</title>
    <desc>Created with Sketch.</desc>
    <defs></defs>
    <g id="Page-1" stroke="none" stroke-width="1" fill="none" fill-rule="evenodd">
        <g id="Line-Icons" transform="translate(-240.000000, -863.000000)" fill="#757575">
            <g id="Fill-137-+-Fill-138" transform="translate(240.000000, 863.000000)">
                <path d="M5.5352,2.0005 L9.0002,2.0005 L9.0002,6.0005 L2.8692,6.0005 L5.5352,2.0005 Z M17.1322,6.0005 L11.0002,6.0005 L11.0002,2.0005 L14.4652,2.0005 L17.1322,6.0005 Z M2.0002,8.0005 L18.0002,8.0005 L18.0002,15.0005 L20.0002,15.0005 L20.0002,7.0005 C20.0002,6.9935 19.9972,6.9885 19.9962,6.9825 C19.9942,6.8655 19.9702,6.7525 19.9282,6.6435 C19.9172,6.6155 19.9022,6.5905 19.8892,6.5625 C19.8702,6.5245 19.8572,6.4825 19.8322,6.4455 L15.8322,0.4455 C15.6462,0.1675 15.3352,0.0005 15.0002,0.0005 L5.0002,0.0005 C4.6662,0.0005 4.3532,0.1675 4.1682,0.4455 L0.1682,6.4455 C0.1432,6.4825 0.1302,6.5245 0.1112,6.5625 C0.0982,6.5905 0.0832,6.6155 0.0722,6.6435 C0.0302,6.7525 0.0062,6.8655 0.0042,6.9825 C0.0042,6.9885 0.0002,6.9935 0.0002,7.0005 L0.0002,19.0005 C0.0002,19.5525 0.4482,20.0005 1.0002,20.0005 L13.0002,20.0005 L13.0002,18.0005 L2.0002,18.0005 L2.0002,8.0005 Z" id="Fill-137"></path>
                <polygon id="Fill-138" points="22.293 16.2876 18 20.5806 15.707 18.2876 14.293 19.7016 18 23.4086 23.707 17.7016"></polygon>
            </g>
        </g>
    </g>
</svg>