<?xml version="1.0" encoding="UTF-8"?>
<svg width="20px" height="18px" viewBox="0 0 20 18" version="1.1" xmlns="http://www.w3.org/2000/svg" xmlns:xlink="http://www.w3.org/1999/xlink">
    <!-- Generator: Sketch 42 (36781) - http://www.bohemiancoding.com/sketch -->
    <title>Fill 797 + Fill 798 + Fill 799</title>
    <desc>Created with Sketch.</desc>
    <defs></defs>
    <g id="Page-1" stroke="none" stroke-width="1" fill="none" fill-rule="evenodd">
        <g id="Line-Icons" transform="translate(-2.000000, -1395.000000)" fill="#767676">
            <g id="Fill-797-+-Fill-798-+-Fill-799" transform="translate(2.000000, 1395.000000)">
                <path d="M15,16.0005 C14.449,16.0005 14,15.5525 14,15.0005 C14,14.4485 14.449,14.0005 15,14.0005 C15.551,14.0005 16,14.4485 16,15.0005 C16,15.5525 15.551,16.0005 15,16.0005 L15,16.0005 Z M6,16.0005 C5.449,16.0005 5,15.5525 5,15.0005 C5,14.4485 5.449,14.0005 6,14.0005 C6.551,14.0005 7,14.4485 7,15.0005 C7,15.5525 6.551,16.0005 6,16.0005 L6,16.0005 Z M2,9.4155 L4.414,7.0005 L6,7.0005 L6,12.0005 C4.698,12.0005 3.599,12.8385 3.185,14.0005 L2,14.0005 L2,9.4155 Z M18,4.0005 L18,14.0005 L17.816,14.0005 C17.401,12.8385 16.302,12.0005 15,12.0005 C13.698,12.0005 12.599,12.8385 12.185,14.0005 L8.816,14.0005 C8.647,13.5265 8.366,13.1105 8,12.7805 L8,4.0005 L18,4.0005 Z M18,2.0005 L12,2.0005 C12,0.8965 11.105,0.0005 10,0.0005 C8.896,0.0005 8,0.8965 8,2.0005 C6.897,2.0005 6,2.8985 6,4.0005 L6,5.0005 L4,5.0005 C3.735,5.0005 3.48,5.1055 3.293,5.2935 L0.293,8.2935 C0.105,8.4805 0,8.7355 0,9.0005 L0,15.0005 C0,15.5525 0.448,16.0005 1,16.0005 L3.185,16.0005 C3.599,17.1625 4.698,18.0005 6,18.0005 C7.302,18.0005 8.401,17.1625 8.816,16.0005 L12.185,16.0005 C12.599,17.1625 13.698,18.0005 15,18.0005 C16.302,18.0005 17.401,17.1625 17.816,16.0005 L19,16.0005 C19.552,16.0005 20,15.5525 20,15.0005 L20,4.0005 C20,2.8985 19.103,2.0005 18,2.0005 L18,2.0005 Z" id="Fill-797"></path>
                <polygon id="Fill-798" points="12 11.0005 14 11.0005 14 9.0005 16 9.0005 16 7.0005 14 7.0005 14 5.0005 12 5.0005 12 7.0005 10 7.0005 10 9.0005 12 9.0005"></polygon>
                <polygon id="Fill-799" points="5 9 3 9 3 11 5 11"></polygon>
            </g>
        </g>
    </g>
</svg>