<?xml version="1.0" encoding="UTF-8"?>
<svg width="24px" height="24px" viewBox="0 0 24 24" version="1.1" xmlns="http://www.w3.org/2000/svg" xmlns:xlink="http://www.w3.org/1999/xlink">
    <!-- Generator: Sketch 42 (36781) - http://www.bohemiancoding.com/sketch -->
    <title>Fill 131 + Fill 132</title>
    <desc>Created with Sketch.</desc>
    <defs></defs>
    <g id="Page-1" stroke="none" stroke-width="1" fill="none" fill-rule="evenodd">
        <g id="Line-Icons" transform="translate(-48.000000, -863.000000)" fill="#757575">
            <g id="Fill-131-+-Fill-132" transform="translate(48.000000, 863.000000)">
                <path d="M17,5.5869 L15.707,4.2939 C15.512,4.0989 15.256,4.0009 15,4.0009 C14.744,4.0009 14.488,4.0989 14.293,4.2939 L13,5.5869 L13,2.0009 L17,2.0009 L17,5.5869 Z M22,0.0009 L8,0.0009 C6.897,0.0009 6,0.8979 6,2.0009 L6,11.0009 L8,11.0009 L8,2.0009 L11,2.0009 L11,8.0009 C11,8.4049 11.244,8.7699 11.617,8.9249 C11.99,9.0799 12.42,8.9939 12.707,8.7089 L15,6.4159 L17.293,8.7089 C17.484,8.8999 17.74,9.0009 18,9.0009 C18.129,9.0009 18.259,8.9759 18.383,8.9249 C18.756,8.7699 19,8.4049 19,8.0009 L19,2.0009 L22,2.0009 L21.997,14.0009 L15,14.0009 L15,16.0009 L22,16.0009 C23.103,16.0009 24,15.1039 24,14.0009 L24,2.0009 C24,0.8979 23.103,0.0009 22,0.0009 L22,0.0009 Z" id="Fill-131"></path>
                <path d="M16.5,21.001 L6,21.001 L6,16.722 L10.494,15.224 L10.783,15.804 L9.293,17.294 C9.102,17.485 9.01,17.742 9.009,18.001 L9,18.001 L9,19.001 L18,19.001 L16.5,21.001 Z M2,16.001 L4,16.001 L4,22.001 L2,22.001 L2,16.001 Z M20,17.001 L12.414,17.001 L12.707,16.709 C13.011,16.404 13.087,15.939 12.895,15.554 L11.895,13.554 C11.672,13.109 11.158,12.895 10.684,13.053 L5.927,14.638 C5.781,14.266 5.423,14.001 5,14.001 L1,14.001 C0.448,14.001 0,14.449 0,15.001 L0,23.001 C0,23.553 0.448,24.001 1,24.001 L5,24.001 C5.552,24.001 6,23.553 6,23.001 L17,23.001 C17.315,23.001 17.611,22.853 17.8,22.602 L20.8,18.602 C21.027,18.299 21.064,17.893 20.895,17.554 C20.725,17.215 20.379,17.001 20,17.001 L20,17.001 Z" id="Fill-132"></path>
            </g>
        </g>
    </g>
</svg>