<?xml version="1.0" encoding="UTF-8"?>
<svg width="20px" height="20px" viewBox="0 0 20 20" version="1.1" xmlns="http://www.w3.org/2000/svg" xmlns:xlink="http://www.w3.org/1999/xlink">
    <!-- Generator: Sketch 42 (36781) - http://www.bohemiancoding.com/sketch -->
    <title>Fill 766 + Fill 767</title>
    <desc>Created with Sketch.</desc>
    <defs></defs>
    <g id="Page-1" stroke="none" stroke-width="1" fill="none" fill-rule="evenodd">
        <g id="Line-Icons" transform="translate(-242.000000, -1297.000000)" fill="#767676">
            <g id="Fill-766-+-Fill-767" transform="translate(242.000000, 1297.000000)">
                <polygon id="Fill-766" points="7.001 14.001 13.001 14.001 13.001 12.001 7.001 12.001"></polygon>
                <path d="M16.001,16.001 L18.001,16.001 L18.001,18.001 L16.001,18.001 L16.001,16.001 Z M6.001,9.001 L7.001,9.001 L7.001,10.001 L9.001,10.001 L9.001,9.001 L11.001,9.001 L11.001,10.001 L13.001,10.001 L13.001,9.001 L14.001,9.001 L14.001,18.001 L6.001,18.001 L6.001,9.001 Z M2.001,16.001 L4.001,16.001 L4.001,18.001 L2.001,18.001 L2.001,16.001 Z M3.001,13.001 L4.001,13.001 L4.001,14.001 L2.001,14.001 C2.001,13.45 2.45,13.001 3.001,13.001 L3.001,13.001 Z M5.001,3.001 C5.001,2.45 5.45,2.001 6.001,2.001 L14.001,2.001 C14.552,2.001 15.001,2.45 15.001,3.001 L15.001,7.001 L13.001,7.001 L13.001,5.001 L11.001,5.001 L11.001,7.001 L9.001,7.001 L9.001,5.001 L7.001,5.001 L7.001,7.001 L5.001,7.001 L5.001,3.001 Z M17.001,13.001 C17.552,13.001 18.001,13.45 18.001,14.001 L16.001,14.001 L16.001,13.001 L17.001,13.001 Z M17.001,11.001 L16.001,11.001 L16.001,9.001 C16.553,9.001 17.001,8.554 17.001,8.001 L17.001,3.001 C17.001,1.347 15.655,0.001 14.001,0.001 L6.001,0.001 C4.347,0.001 3.001,1.347 3.001,3.001 L3.001,8.001 C3.001,8.554 3.449,9.001 4.001,9.001 L4.001,11.001 L3.001,11.001 C1.347,11.001 0.001,12.347 0.001,14.001 L0.001,19.001 C0.001,19.554 0.449,20.001 1.001,20.001 L19.001,20.001 C19.553,20.001 20.001,19.554 20.001,19.001 L20.001,14.001 C20.001,12.347 18.655,11.001 17.001,11.001 L17.001,11.001 Z" id="Fill-767"></path>
            </g>
        </g>
    </g>
</svg>