<?xml version="1.0" encoding="UTF-8"?>
<svg width="24px" height="24px" viewBox="0 0 24 24" version="1.1" xmlns="http://www.w3.org/2000/svg" xmlns:xlink="http://www.w3.org/1999/xlink">
    <!-- Generator: Sketch 42 (36781) - http://www.bohemiancoding.com/sketch -->
    <title>Fill 583 + Fill 584</title>
    <desc>Created with Sketch.</desc>
    <defs></defs>
    <g id="Page-1" stroke="none" stroke-width="1" fill="none" fill-rule="evenodd">
        <g id="Line-Icons" transform="translate(-96.000000, -911.000000)" fill="#757575">
            <g id="Fill-583-+-Fill-584" transform="translate(96.000000, 911.000000)">
                <path d="M21.5386,15.0022 L19.4106,15.0022 C19.7876,14.0752 19.9996,13.0632 19.9996,12.0022 C19.9996,10.9412 19.7876,9.9302 19.4106,9.0022 L21.5386,9.0022 C21.8376,9.9502 21.9996,10.9572 21.9996,12.0022 C21.9996,13.0472 21.8376,14.0552 21.5386,15.0022 M15.2336,21.4542 C15.6026,20.9012 17.8196,17.5192 18.2346,17.0022 L20.6466,17.0022 C19.4456,19.0702 17.5286,20.6672 15.2336,21.4542 M11.5186,21.9762 L10.0326,19.7482 C10.6626,19.9082 11.3196,20.0022 11.9996,20.0022 C12.6806,20.0022 13.3366,19.9082 13.9676,19.7482 L12.4806,21.9762 C12.3206,21.9852 12.1626,22.0012 11.9996,22.0012 C11.8376,22.0012 11.6796,21.9852 11.5186,21.9762 M3.3536,17.0022 L5.7656,17.0022 C6.1806,17.5192 8.3976,20.9012 8.7666,21.4542 C6.4716,20.6672 4.5546,19.0702 3.3536,17.0022 M2.4606,9.0022 L4.5886,9.0022 C4.2116,9.9302 3.9996,10.9412 3.9996,12.0022 C3.9996,13.0632 4.2116,14.0752 4.5886,15.0022 L2.4616,15.0022 C2.1626,14.0552 1.9996,13.0472 1.9996,12.0022 C1.9996,10.9572 2.1626,9.9502 2.4606,9.0022 M8.7676,2.5492 C8.3976,3.1032 6.1806,6.4862 5.7656,7.0022 L3.3526,7.0022 C4.5536,4.9342 6.4716,3.3362 8.7676,2.5492 M12.4806,2.0272 L13.9686,4.2572 C13.3376,4.0972 12.6806,4.0022 11.9996,4.0022 C11.3196,4.0022 10.6626,4.0972 10.0316,4.2572 L11.5186,2.0272 C11.6796,2.0192 11.8376,2.0022 11.9996,2.0022 C12.1626,2.0022 12.3206,2.0192 12.4806,2.0272 M5.9996,12.0022 C5.9996,8.6942 8.6916,6.0022 11.9996,6.0022 C15.3086,6.0022 17.9996,8.6942 17.9996,12.0022 C17.9996,15.3112 15.3086,18.0022 11.9996,18.0022 C8.6916,18.0022 5.9996,15.3112 5.9996,12.0022 M20.6466,7.0022 L18.2346,7.0022 C17.8196,6.4862 15.6016,3.1032 15.2326,2.5492 C17.5286,3.3362 19.4466,4.9342 20.6466,7.0022 M11.9996,0.0022 C5.3836,0.0022 -0.0004,5.3862 -0.0004,12.0022 C-0.0004,18.6192 5.3836,24.0012 11.9996,24.0012 C18.6166,24.0012 23.9996,18.6192 23.9996,12.0022 C23.9996,5.3862 18.6166,0.0022 11.9996,0.0022" id="Fill-583"></path>
                <path d="M13,10.5022 C13,10.7782 12.776,11.0022 12.5,11.0022 L11,11.0022 L11,10.0022 L12.5,10.0022 C12.776,10.0022 13,10.2262 13,10.5022 L13,10.5022 Z M12.5,14.0022 L11,14.0022 L11,13.0022 L12.5,13.0022 C12.776,13.0022 13,13.2262 13,13.5022 C13,13.7782 12.776,14.0022 12.5,14.0022 L12.5,14.0022 Z M13,17.0022 L13,15.9522 C14.14,15.7192 15,14.7092 15,13.5022 C15,12.9372 14.805,12.4212 14.487,12.0022 C14.805,11.5832 15,11.0672 15,10.5022 C15,9.2952 14.14,8.2862 13,8.0532 L13,7.0022 L11,7.0022 L11,8.0022 L9,8.0022 L9,16.0022 L11,16.0022 L11,17.0022 L13,17.0022 Z" id="Fill-584"></path>
            </g>
        </g>
    </g>
</svg>