<?xml version="1.0" encoding="UTF-8"?>
<svg width="20px" height="21px" viewBox="0 0 20 21" version="1.1" xmlns="http://www.w3.org/2000/svg" xmlns:xlink="http://www.w3.org/1999/xlink">
    <!-- Generator: Sketch 42 (36781) - http://www.bohemiancoding.com/sketch -->
    <title>Fill 645 + Fill 646 + Fill 647</title>
    <desc>Created with Sketch.</desc>
    <defs></defs>
    <g id="Page-1" stroke="none" stroke-width="1" fill="none" fill-rule="evenodd">
        <g id="Line-Icons" transform="translate(-290.000000, -1009.000000)" fill="#767676">
            <g id="Fill-645-+-Fill-646-+-Fill-647" transform="translate(290.000000, 1009.000000)">
                <polygon id="Fill-645" points="6.001 10.003 14.001 10.003 14.001 8.003 6.001 8.003"></polygon>
                <path d="M16.0015,6.0029 C14.8975,6.0029 14.0015,5.1069 14.0015,4.0029 C14.0015,2.8989 14.8975,2.0029 16.0015,2.0029 C17.1055,2.0029 18.0015,2.8989 18.0015,4.0029 C18.0015,5.1069 17.1055,6.0029 16.0015,6.0029 M4.0015,6.0029 C2.8975,6.0029 2.0015,5.1069 2.0015,4.0029 C2.0015,2.8989 2.8975,2.0029 4.0015,2.0029 C5.1055,2.0029 6.0015,2.8989 6.0015,4.0029 C6.0015,5.1069 5.1055,6.0029 4.0015,6.0029 M16.0015,0.0029 L4.0015,0.0029 C1.7925,0.0029 0.0015,1.7939 0.0015,4.0029 C0.0015,6.2119 1.7925,8.0029 4.0015,8.0029 C6.2105,8.0029 8.0015,6.2119 8.0015,4.0029 C8.0015,3.2709 7.7905,2.5929 7.4465,2.0029 L12.5565,2.0029 C12.2125,2.5929 12.0015,3.2709 12.0015,4.0029 C12.0015,6.2119 13.7925,8.0029 16.0015,8.0029 C18.2105,8.0029 20.0015,6.2119 20.0015,4.0029 C20.0015,1.7939 18.2105,0.0029 16.0015,0.0029" id="Fill-646"></path>
                <polygon id="Fill-647" points="6.0015 20.0029 8.0015 20.0029 8.0015 13.0029 9.0015 13.0029 9.0015 20.0029 11.0015 20.0029 11.0015 13.0029 12.0015 13.0029 12.0015 20.0029 14.0015 20.0029 14.0015 11.0029 6.0015 11.0029"></polygon>
            </g>
        </g>
    </g>
</svg>