<?xml version="1.0" encoding="UTF-8"?>
<svg width="18px" height="18px" viewBox="0 0 18 18" version="1.1" xmlns="http://www.w3.org/2000/svg" xmlns:xlink="http://www.w3.org/1999/xlink">
    <!-- Generator: Sketch 42 (36781) - http://www.bohemiancoding.com/sketch -->
    <title>Fill 760</title>
    <desc>Created with Sketch.</desc>
    <defs></defs>
    <g id="Page-1" stroke="none" stroke-width="1" fill="none" fill-rule="evenodd">
        <g id="Line-Icons" transform="translate(-339.000000, -1250.000000)" fill="#767676">
            <g id="Fill-760" transform="translate(339.000000, 1250.000000)">
                <path d="M14.9365,5.313 C14.9345,5.309 14.9325,5.305 14.9305,5.302 C13.7365,7.127 12.3855,8.799 10.5905,10.594 C9.0295,12.155 7.3905,13.564 5.2985,14.934 C5.3025,14.936 5.3065,14.937 5.3105,14.939 C4.7155,15.316 2.2385,16.735 1.7525,16.251 C1.5765,16.074 1.6515,14.932 3.0655,12.697 C3.3495,13.152 3.6775,13.576 4.0545,13.953 C4.5985,13.615 5.1705,13.216 5.7555,12.776 C4.6905,11.858 4.0005,10.516 4.0005,9.003 C4.0005,6.246 6.2435,4.003 9.0005,4.003 C10.5135,4.003 11.8555,4.693 12.7725,5.759 C13.2135,5.173 13.6125,4.601 13.9495,4.057 C13.5725,3.68 13.1485,3.352 12.6945,3.069 C14.9275,1.655 16.0725,1.579 16.2475,1.756 C16.7315,2.238 15.3135,4.718 14.9365,5.313 M9.1005,13.993 C9.9515,13.281 10.8095,12.496 11.6515,11.654 C12.4935,10.812 13.2775,9.954 13.9895,9.103 C13.9355,11.779 11.7755,13.938 9.1005,13.993 M17.3075,0.695 C16.0185,-0.595 13.3125,0.784 11.0975,2.325 C10.4345,2.116 9.7305,2.003 9.0005,2.003 C5.1405,2.003 2.0005,5.143 2.0005,9.003 C2.0005,9.733 2.1135,10.437 2.3215,11.1 C0.7805,13.317 -0.5975,16.022 0.6915,17.311 C1.0295,17.65 1.4815,17.819 2.0455,17.819 C3.5835,17.819 5.6515,16.55 6.9145,15.673 C7.5735,15.882 8.2715,16.003 9.0005,16.003 C12.8595,16.003 16.0005,12.863 16.0005,9.003 C16.0005,8.275 15.8785,7.577 15.6695,6.917 C16.8175,5.265 18.7305,2.118 17.3075,0.695"></path>
            </g>
        </g>
    </g>
</svg>