<?xml version="1.0" encoding="UTF-8"?>
<svg width="20px" height="24px" viewBox="0 0 20 24" version="1.1" xmlns="http://www.w3.org/2000/svg" xmlns:xlink="http://www.w3.org/1999/xlink">
    <!-- Generator: Sketch 42 (36781) - http://www.bohemiancoding.com/sketch -->
    <title>Fill 644</title>
    <desc>Created with Sketch.</desc>
    <defs></defs>
    <g id="Page-1" stroke="none" stroke-width="1" fill="none" fill-rule="evenodd">
        <g id="Line-Icons" transform="translate(-242.000000, -1056.000000)" fill="#767676">
            <g id="Fill-644" transform="translate(242.000000, 1056.000000)">
                <path d="M8,18.1963 L8,14.5723 L12,10.0003 L12,18.1963 L8,18.1963 Z M14.613,21.1963 L5.387,21.1963 L5.721,20.1963 L14.279,20.1963 L14.613,21.1963 Z M4.535,8.1963 L3.868,7.1963 L11.796,7.1963 L8,11.5353 L8,9.1963 C8,8.6443 7.552,8.1963 7,8.1963 L4.535,8.1963 Z M9,3.1963 C9,2.6443 9.449,2.1963 10,2.1963 C10.551,2.1963 11,2.6443 11,3.1963 L11,5.1963 L9,5.1963 L9,3.1963 Z M15.465,8.1963 L13.579,8.1963 L14.454,7.1963 L16.132,7.1963 L15.465,8.1963 Z M16,10.1963 C16.335,10.1963 16.647,10.0293 16.832,9.7513 L18.535,7.1963 L20,7.1963 L20,5.1963 L13,5.1963 L13,3.1963 C13,1.5423 11.654,0.1963 10,0.1963 C8.346,0.1963 7,1.5423 7,3.1963 L7,5.1963 L0,5.1963 L0,7.1963 L1.465,7.1963 L3.168,9.7513 C3.353,10.0293 3.665,10.1963 4,10.1963 L6,10.1963 L6,18.1963 L5,18.1963 C4.569,18.1963 4.187,18.4713 4.051,18.8803 L3.051,21.8803 C2.95,22.1863 3.001,22.5203 3.189,22.7813 C3.377,23.0423 3.679,23.1963 4,23.1963 L16,23.1963 C16.321,23.1963 16.623,23.0423 16.811,22.7813 C16.999,22.5203 17.05,22.1863 16.949,21.8803 L15.949,18.8803 C15.812,18.4713 15.431,18.1963 15,18.1963 L14,18.1963 L14,10.1963 L16,10.1963 Z"></path>
            </g>
        </g>
    </g>
</svg>