<?xml version="1.0" encoding="UTF-8"?>
<svg width="20px" height="19px" viewBox="0 0 20 19" version="1.1" xmlns="http://www.w3.org/2000/svg" xmlns:xlink="http://www.w3.org/1999/xlink">
    <!-- Generator: Sketch 42 (36781) - http://www.bohemiancoding.com/sketch -->
    <title>Fill 788</title>
    <desc>Created with Sketch.</desc>
    <defs></defs>
    <g id="Page-1" stroke="none" stroke-width="1" fill="none" fill-rule="evenodd">
        <g id="Line-Icons" transform="translate(-50.000000, -1346.000000)" fill="#767676">
            <g id="Fill-788" transform="translate(50.000000, 1346.000000)">
                <path d="M11.6064,5.4155 L11.0334,5.9905 C10.7824,6.2435 10.6844,6.6095 10.7764,6.9545 C11.2354,8.6755 10.7404,10.5235 9.4864,11.7795 L2.4154,4.7065 C3.6674,3.4575 5.5334,2.9625 7.2414,3.4185 C7.5864,3.5105 7.9544,3.4115 8.2064,3.1595 L8.7794,2.5865 C9.5344,1.8315 10.8514,1.8305 11.6074,2.5865 C11.9854,2.9655 12.1934,3.4675 12.1934,4.0015 C12.1934,4.5355 11.9854,5.0365 11.6064,5.4155 L11.6064,5.4155 Z M18.0014,17.0015 L18.0014,10.0015 C18.0014,7.4055 16.4834,5.0075 14.1744,3.8055 C14.1264,2.8125 13.7304,1.8815 13.0224,1.1735 C11.5114,-0.3385 8.8754,-0.3375 7.3654,1.1725 L7.1804,1.3575 C4.9404,0.9605 2.6154,1.6825 1.0014,3.2925 L0.2934,3.9985 C-0.0976,4.3905 -0.0956,5.0235 0.2934,5.4135 L8.7794,13.9005 C9.1704,14.2905 9.8024,14.2905 10.1934,13.9005 L10.9014,13.1935 C12.5184,11.5745 13.2344,9.2525 12.8364,7.0155 L13.0214,6.8295 C13.3124,6.5395 13.5354,6.2035 13.7204,5.8505 C15.1114,6.7735 16.0014,8.3305 16.0014,10.0015 L16.0014,17.0015 L12.0014,17.0015 L12.0014,19.0015 L20.0014,19.0015 L20.0014,17.0015 L18.0014,17.0015 Z"></path>
            </g>
        </g>
    </g>
</svg>