<?xml version="1.0" encoding="UTF-8"?>
<svg width="20px" height="20px" viewBox="0 0 20 20" version="1.1" xmlns="http://www.w3.org/2000/svg" xmlns:xlink="http://www.w3.org/1999/xlink">
    <!-- Generator: Sketch 42 (36781) - http://www.bohemiancoding.com/sketch -->
    <title>Fill 237</title>
    <desc>Created with Sketch.</desc>
    <defs></defs>
    <g id="Page-1" stroke="none" stroke-width="1" fill="none" fill-rule="evenodd">
        <g id="Line-Icons" transform="translate(-434.000000, -49.000000)" fill="#757575">
            <g id="Fill-237" transform="translate(434.000000, 49.000000)">
                <path d="M10,12.6001 C8.566,12.6001 7.4,11.4341 7.4,10.0001 C7.4,8.5671 8.566,7.4011 10,7.4011 C11.434,7.4011 12.6,8.5671 12.6,10.0001 C12.6,11.4341 11.434,12.6001 10,12.6001 M10,0.0001 C4.486,0.0001 0,4.4871 0,10.0001 C0,15.5151 4.486,20.0001 10,20.0001 C12.039,20.0001 13.993,19.3991 15.653,18.2591 L14.521,16.6111 C13.196,17.5201 11.633,18.0001 10,18.0001 C5.589,18.0001 2,14.4121 2,10.0001 C2,5.5891 5.589,2.0001 10,2.0001 C14.411,2.0001 18,5.5891 18,10.0001 L18,10.7831 C18,12.1711 17.402,13.0001 16.4,13.0001 L16.398,13.0181 C16.337,13.0071 16.274,13.0001 16.21,13.0001 L16,13.0001 C15.437,13.0001 14.6,12.1821 14.6,11.6311 L14.6,10.0001 C14.6,7.4651 12.536,5.4011 10,5.4011 C7.464,5.4011 5.4,7.4651 5.4,10.0001 C5.4,12.5371 7.464,14.6001 10,14.6001 C11.234,14.6001 12.35,14.1061 13.177,13.3121 C13.826,14.2701 14.929,15.0001 16,15.0001 L16.002,14.9821 C16.065,14.9941 16.129,15.0001 16.196,15.0001 L16.4,15.0001 C18.553,15.0001 20,13.3061 20,10.7831 L20,10.0001 C20,4.4871 15.514,0.0001 10,0.0001"></path>
            </g>
        </g>
    </g>
</svg>