<?xml version="1.0" encoding="UTF-8"?>
<svg width="24px" height="16px" viewBox="0 0 24 16" version="1.1" xmlns="http://www.w3.org/2000/svg" xmlns:xlink="http://www.w3.org/1999/xlink">
    <!-- Generator: Sketch 42 (36781) - http://www.bohemiancoding.com/sketch -->
    <title>Fill 577 + Fill 578</title>
    <desc>Created with Sketch.</desc>
    <defs></defs>
    <g id="Page-1" stroke="none" stroke-width="1" fill="none" fill-rule="evenodd">
        <g id="Line-Icons" transform="translate(0.000000, -915.000000)" fill="#757575">
            <g id="Fill-577-+-Fill-578" transform="translate(0.000000, 915.000000)">
                <path d="M16.5,10.001 L15,10.001 L15,9.001 L16.5,9.001 C16.776,9.001 17,9.225 17,9.501 C17,9.777 16.776,10.001 16.5,10.001 M17,6.501 C17,6.777 16.776,7.001 16.5,7.001 L15,7.001 L15,6.001 L16.5,6.001 C16.776,6.001 17,6.225 17,6.501 M17,4.051 L17,3.001 L15,3.001 L15,4.001 L13,4.001 L13,12.001 L15,12.001 L15,13.001 L17,13.001 L17,11.951 C18.14,11.718 19,10.708 19,9.501 C19,8.936 18.805,8.421 18.487,8.001 C18.805,7.582 19,7.066 19,6.501 C19,5.293 18.14,4.284 17,4.051" id="Fill-577"></path>
                <path d="M16,14.001 L6,14.001 C3.794,14.001 2,12.207 2,10.001 C2,7.795 3.794,6.001 6,6.001 C7.194,6.001 8.066,6.532 8.586,6.979 C8.849,7.203 9.206,7.276 9.535,7.174 C9.864,7.072 10.117,6.807 10.205,6.474 C10.896,3.841 13.28,2.001 16,2.001 C19.309,2.001 22,4.693 22,8.001 C22,11.31 19.309,14.001 16,14.001 M16,0.001 C12.835,0.001 10.011,1.868 8.73,4.677 C7.884,4.236 6.949,4.001 6,4.001 C2.691,4.001 0,6.693 0,10.001 C0,13.31 2.691,16.001 6,16.001 L16,16.001 C20.411,16.001 24,12.412 24,8.001 C24,3.59 20.411,0.001 16,0.001" id="Fill-578"></path>
            </g>
        </g>
    </g>
</svg>