<?xml version="1.0" encoding="UTF-8"?>
<svg width="24px" height="20px" viewBox="0 0 24 20" version="1.1" xmlns="http://www.w3.org/2000/svg" xmlns:xlink="http://www.w3.org/1999/xlink">
    <!-- Generator: Sketch 42 (36781) - http://www.bohemiancoding.com/sketch -->
    <title>Fill 128 + Fill 129</title>
    <desc>Created with Sketch.</desc>
    <defs></defs>
    <g id="Page-1" stroke="none" stroke-width="1" fill="none" fill-rule="evenodd">
        <g id="Line-Icons" transform="translate(0.000000, -865.000000)" fill="#757575">
            <g id="Fill-128-+-Fill-129" transform="translate(0.000000, 865.000000)">
                <path d="M2,4.7647 L12,2.0377 L22,4.7647 L22,5.0007 L2,5.0007 L2,4.7647 Z M23.263,3.0357 L12.263,0.0357 C12.09,-0.0103 11.91,-0.0103 11.737,0.0357 L0.737,3.0357 C0.302,3.1547 0,3.5497 0,4.0007 L0,6.0007 C0,6.5537 0.448,7.0007 1,7.0007 L1,20.0007 L3,20.0007 L3,7.0007 L21,7.0007 L21,20.0007 L23,20.0007 L23,7.0007 C23.552,7.0007 24,6.5537 24,6.0007 L24,4.0007 C24,3.5497 23.698,3.1547 23.263,3.0357 L23.263,3.0357 Z" id="Fill-128"></path>
                <path d="M17,18.001 L13,18.001 L13,15.001 L14,15.001 L14,17.001 L16,17.001 L16,15.001 L17,15.001 L17,18.001 Z M7,15.001 L8,15.001 L8,17.001 L10,17.001 L10,15.001 L11,15.001 L11,18.001 L7,18.001 L7,15.001 Z M10,10.001 L11,10.001 L11,12.001 L13,12.001 L13,10.001 L14,10.001 L14,13.001 L10,13.001 L10,10.001 Z M18,13.001 L16,13.001 L16,9.001 C16,8.449 15.552,8.001 15,8.001 L9,8.001 C8.448,8.001 8,8.449 8,9.001 L8,13.001 L6,13.001 C5.448,13.001 5,13.449 5,14.001 L5,19.001 C5,19.553 5.448,20.001 6,20.001 L18,20.001 C18.552,20.001 19,19.553 19,19.001 L19,14.001 C19,13.449 18.552,13.001 18,13.001 L18,13.001 Z" id="Fill-129"></path>
            </g>
        </g>
    </g>
</svg>