<?xml version="1.0" encoding="UTF-8"?>
<svg width="20px" height="16px" viewBox="0 0 20 16" version="1.1" xmlns="http://www.w3.org/2000/svg" xmlns:xlink="http://www.w3.org/1999/xlink">
    <!-- Generator: Sketch 42 (36781) - http://www.bohemiancoding.com/sketch -->
    <title>Fill 77</title>
    <desc>Created with Sketch.</desc>
    <defs></defs>
    <g id="Page-1" stroke="none" stroke-width="1" fill="none" fill-rule="evenodd">
        <g id="Line-Icons" transform="translate(-194.000000, -1347.000000)" fill="#767676">
            <g id="Fill-77" transform="translate(194.000000, 1347.000000)">
                <path d="M8,8.0005 C7.511,8.0005 7.094,8.3545 7.014,8.8365 L6.153,14.0005 L3.181,14.0005 L3.986,9.1645 C4.059,8.7315 3.84,8.3025 3.447,8.1055 L2,7.3825 L2,7.0005 L17,7.0005 L17,8.0005 L8,8.0005 Z M3,3.0005 L5,3.0005 L5,4.0005 L11,4.0005 L11,3.0005 L17,3.0005 L17,5.0005 L2,5.0005 L2,4.0005 C2,3.4485 2.449,3.0005 3,3.0005 L3,3.0005 Z M20,3.0005 L19,3.0005 L19,2.0005 L19,0.0005 L17,0.0005 L17,1.0005 L5,1.0005 L5,0.0005 L3,0.0005 L3,1.0005 C1.346,1.0005 0,2.3465 0,4.0005 L0,8.0005 C0,8.3795 0.214,8.7265 0.553,8.8955 L1.892,9.5655 L1.014,14.8365 C0.965,15.1265 1.047,15.4225 1.237,15.6475 C1.427,15.8715 1.706,16.0005 2,16.0005 L9,16.0005 L9,14.0005 L8.181,14.0005 L8.847,10.0005 L10,10.0005 L10,12.0005 L12,12.0005 L12,10.0005 L18,10.0005 C18.552,10.0005 19,9.5525 19,9.0005 L19,5.0005 L20,5.0005 L20,3.0005 Z"></path>
            </g>
        </g>
    </g>
</svg>