<?xml version="1.0" encoding="UTF-8"?>
<svg width="20px" height="21px" viewBox="0 0 20 21" version="1.1" xmlns="http://www.w3.org/2000/svg" xmlns:xlink="http://www.w3.org/1999/xlink">
    <!-- Generator: Sketch 42 (36781) - http://www.bohemiancoding.com/sketch -->
    <title>Fill 80</title>
    <desc>Created with Sketch.</desc>
    <defs></defs>
    <g id="Page-1" stroke="none" stroke-width="1" fill="none" fill-rule="evenodd">
        <g id="Line-Icons" transform="translate(-146.000000, -1296.000000)" fill="#767676">
            <g id="Fill-80" transform="translate(146.000000, 1296.000000)">
                <path d="M15.4141,12.001 L18.0001,9.415 L18.0001,12.001 L15.4141,12.001 Z M4.5861,8.001 L2.0001,10.587 L2.0001,8.001 L4.5861,8.001 Z M4.0001,2.001 C4.5511,2.001 5.0001,2.45 5.0001,3.001 C5.0001,3.553 4.5511,4.001 4.0001,4.001 C3.4491,4.001 3.0001,3.553 3.0001,3.001 C3.0001,2.45 3.4491,2.001 4.0001,2.001 L4.0001,2.001 Z M16.0001,2.001 C16.5511,2.001 17.0001,2.45 17.0001,3.001 C17.0001,3.553 16.5511,4.001 16.0001,4.001 C15.4491,4.001 15.0001,3.553 15.0001,3.001 C15.0001,2.45 15.4491,2.001 16.0001,2.001 L16.0001,2.001 Z M6.5861,12.001 L3.4141,12.001 L7.4141,8.001 L10.5861,8.001 L6.5861,12.001 Z M13.4141,8.001 L16.5861,8.001 L12.5861,12.001 L9.4141,12.001 L13.4141,8.001 Z M19.0001,6.001 L17.0001,6.001 L17.0001,5.817 C18.1621,5.403 19.0001,4.303 19.0001,3.001 C19.0001,1.347 17.6541,0.001 16.0001,0.001 C14.3461,0.001 13.0001,1.347 13.0001,3.001 C13.0001,4.303 13.8381,5.403 15.0001,5.817 L15.0001,6.001 L5.0001,6.001 L5.0001,5.817 C6.1621,5.403 7.0001,4.303 7.0001,3.001 C7.0001,1.347 5.6541,0.001 4.0001,0.001 C2.3461,0.001 1.0001,1.347 1.0001,3.001 C1.0001,4.303 1.8381,5.403 3.0001,5.817 L3.0001,6.001 L1.0001,6.001 C0.4481,6.001 0.0001,6.45 0.0001,7.001 L0.0001,13.001 C0.0001,13.553 0.4481,14.001 1.0001,14.001 L2.0001,14.001 L2.0001,21.001 L4.0001,21.001 L4.0001,14.001 L16.0001,14.001 L16.0001,21.001 L18.0001,21.001 L18.0001,14.001 L19.0001,14.001 C19.5521,14.001 20.0001,13.553 20.0001,13.001 L20.0001,7.001 C20.0001,6.45 19.5521,6.001 19.0001,6.001 L19.0001,6.001 Z"></path>
            </g>
        </g>
    </g>
</svg>