<?xml version="1.0" encoding="UTF-8"?>
<svg width="20px" height="20px" viewBox="0 0 20 20" version="1.1" xmlns="http://www.w3.org/2000/svg" xmlns:xlink="http://www.w3.org/1999/xlink">
    <!-- Generator: Sketch 42 (36781) - http://www.bohemiancoding.com/sketch -->
    <title>Fill 519 + Fill 520 + Fill 521</title>
    <desc>Created with Sketch.</desc>
    <defs></defs>
    <g id="Page-1" stroke="none" stroke-width="1" fill="none" fill-rule="evenodd">
        <g id="Line-Icons" transform="translate(-98.000000, -673.000000)" fill="#757575">
            <g id="Fill-519-+-Fill-520-+-Fill-521" transform="translate(98.000000, 673.000000)">
                <path d="M8,8.0005 C8,6.8965 8.897,6.0005 10,6.0005 C11.103,6.0005 12,6.8965 12,8.0005 C12,9.1035 11.103,10.0005 10,10.0005 C8.897,10.0005 8,9.1035 8,8.0005 M14,8.0005 C14,5.7955 12.206,4.0005 10,4.0005 C7.794,4.0005 6,5.7955 6,8.0005 C6,10.2065 7.794,12.0005 10,12.0005 C12.206,12.0005 14,10.2065 14,8.0005" id="Fill-519"></path>
                <path d="M17,10.0005 L17,8.0005 L18,8.0005 L18.001,10.0005 L17,10.0005 Z M3,10.0005 L2,10.0005 L2,8.0005 L3,8.0005 L3,10.0005 Z M18,6.0005 L16.92,6.0005 C16.433,2.6135 13.52,0.0005 10,0.0005 C6.48,0.0005 3.567,2.6135 3.08,6.0005 L2,6.0005 C0.897,6.0005 0,6.8965 0,8.0005 L0,10.0005 C0,11.1035 0.897,12.0005 2,12.0005 L5,12.0005 L5,7.0005 C5,4.2435 7.243,2.0005 10,2.0005 C12.757,2.0005 15,4.2435 15,7.0005 L15,12.0005 L18,12.0005 C19.103,12.0005 20,11.1035 20,10.0005 L20,8.0005 C20,6.8965 19.103,6.0005 18,6.0005 L18,6.0005 Z" id="Fill-520"></path>
                <path d="M6.1265,18.0005 C6.5715,16.2775 8.1395,15.0005 10.0005,15.0005 C11.8605,15.0005 13.4285,16.2775 13.8735,18.0005 L6.1265,18.0005 Z M10.0005,13.0005 C6.6915,13.0005 4.0005,15.6915 4.0005,19.0005 L4.0005,20.0005 L16.0005,20.0005 L16.0005,19.0005 C16.0005,15.6915 13.3085,13.0005 10.0005,13.0005 L10.0005,13.0005 Z" id="Fill-521"></path>
            </g>
        </g>
    </g>
</svg>