<?xml version="1.0" encoding="UTF-8"?>
<svg width="20px" height="20px" viewBox="0 0 20 20" version="1.1" xmlns="http://www.w3.org/2000/svg" xmlns:xlink="http://www.w3.org/1999/xlink">
    <!-- Generator: Sketch 42 (36781) - http://www.bohemiancoding.com/sketch -->
    <title>Fill 815</title>
    <desc>Created with Sketch.</desc>
    <defs></defs>
    <g id="Page-1" stroke="none" stroke-width="1" fill="none" fill-rule="evenodd">
        <g id="Line-Icons" transform="translate(-338.000000, -1393.000000)" fill="#767676">
            <g id="Fill-815" transform="translate(338.000000, 1392.000000)">
                <path d="M16,7.0005 C15.822,7.0005 15.652,6.9705 15.488,6.9265 L15.707,6.7065 C15.993,6.4205 16.079,5.9905 15.924,5.6165 C15.769,5.2435 15.404,4.9995 15,4.9995 L14,4.9995 C14,3.8965 14.897,2.9995 16,2.9995 C17.103,2.9995 18,3.8965 18,4.9995 C18,6.1035 17.103,7.0005 16,7.0005 L16,7.0005 Z M12.556,6.9995 L8,11.5865 L3.414,6.9995 L12.556,6.9995 Z M16,0.9995 C13.794,0.9995 12,2.7945 12,4.9995 L6.414,4.9995 L3.414,1.9995 L5.60246294e-14,1.9995 L5.60246294e-14,3.9995 L2.586,3.9995 L3.586,4.9995 L1,4.9995 C0.596,4.9995 0.231,5.2435 0.076,5.6165 C-0.079,5.9905 0.007,6.4205 0.293,6.7065 L7,13.4145 L7,19.0005 L4,19.0005 L4,21.0005 L12,21.0005 L12,19.0005 L9,19.0005 L9,13.4145 L13.98,8.4335 C14.576,8.7855 15.26,9.0005 16,9.0005 C18.206,9.0005 20,7.2055 20,4.9995 C20,2.7945 18.206,0.9995 16,0.9995 L16,0.9995 Z"></path>
            </g>
        </g>
    </g>
</svg>