<?xml version="1.0" encoding="UTF-8"?>
<svg width="24px" height="24px" viewBox="0 0 24 24" version="1.1" xmlns="http://www.w3.org/2000/svg" xmlns:xlink="http://www.w3.org/1999/xlink">
    <!-- Generator: Sketch 42 (36781) - http://www.bohemiancoding.com/sketch -->
    <title>Fill 550 + Fill 551</title>
    <desc>Created with Sketch.</desc>
    <defs></defs>
    <g id="Page-1" stroke="none" stroke-width="1" fill="none" fill-rule="evenodd">
        <g id="Line-Icons" transform="translate(-384.000000, -767.000000)" fill="#757575">
            <g id="Fill-550-+-Fill-551" transform="translate(384.000000, 767.000000)">
                <path d="M3.2471,9.001 L16.7541,9.001 L15.4201,15.001 L17.4691,15.001 L18.8031,9.001 L20.0001,9.001 L20.0001,7.001 L16.5801,7.001 L12.8681,0.504 L11.1321,1.497 L14.2771,7.001 L5.7241,7.001 L8.8681,1.497 L7.1321,0.504 L3.4201,7.001 L0.0001,7.001 L0.0001,9.001 L1.1981,9.001 L3.0241,17.218 C3.1261,17.675 3.5311,18.001 4.0001,18.001 L13.0011,18.001 L13.0011,16.001 L4.8031,16.001 L3.2471,9.001 Z" id="Fill-550"></path>
                <polygon id="Fill-551" points="22.293 16.2935 18 20.5865 15.707 18.2935 14.293 19.7065 18 23.4145 23.707 17.7065"></polygon>
            </g>
        </g>
    </g>
</svg>