<?xml version="1.0" encoding="UTF-8"?>
<svg width="24px" height="24px" viewBox="0 0 24 24" version="1.1" xmlns="http://www.w3.org/2000/svg" xmlns:xlink="http://www.w3.org/1999/xlink">
    <!-- Generator: Sketch 42 (36781) - http://www.bohemiancoding.com/sketch -->
    <title>Fill 419 + Fill 420</title>
    <desc>Created with Sketch.</desc>
    <defs></defs>
    <g id="Page-1" stroke="none" stroke-width="1" fill="none" fill-rule="evenodd">
        <g id="Line-Icons" transform="translate(-192.000000, -479.000000)" fill="#757575">
            <g id="Fill-419-+-Fill-420" transform="translate(192.000000, 479.000000)">
                <path d="M2,10.6006 C3.736,11.5226 6.374,12.0006 9,12.0006 C11.626,12.0006 14.264,11.5226 16,10.6006 L16,12.0006 C16,12.5816 13.547,14.0006 9,14.0006 C4.453,14.0006 2,12.5816 2,12.0006 L2,10.6006 Z M2,6.6006 C3.736,7.5226 6.374,8.0006 9,8.0006 C11.626,8.0006 14.264,7.5226 16,6.6006 L16,8.0006 C16,8.5816 13.547,10.0006 9,10.0006 C4.453,10.0006 2,8.5816 2,8.0006 L2,6.6006 Z M9,2.0006 C13.547,2.0006 16,3.4196 16,4.0006 C16,4.5816 13.547,6.0006 9,6.0006 C4.453,6.0006 2,4.5816 2,4.0006 C2,3.4196 4.453,2.0006 9,2.0006 L9,2.0006 Z M13,17.5696 C11.934,17.8236 10.6,18.0006 9,18.0006 C4.453,18.0006 2,16.5816 2,16.0006 L2,14.6006 C3.736,15.5226 6.374,16.0006 9,16.0006 C11.626,16.0006 14.264,15.5226 16,14.6006 L16,16.0006 L18,16.0006 L18,4.0006 C18,1.3746 13.473,0.0006 9,0.0006 C4.527,0.0006 0,1.3746 0,4.0006 L0,16.0006 C0,18.6266 4.527,20.0006 9,20.0006 C10.373,20.0006 11.749,19.8696 13,19.6156 L13,17.5696 Z" id="Fill-419"></path>
                <polygon id="Fill-420" points="18 23.4087 14.293 19.7017 15.707 18.2877 18 20.5807 22.293 16.2877 23.707 17.7017"></polygon>
            </g>
        </g>
    </g>
</svg>