<?xml version="1.0" encoding="UTF-8"?>
<svg width="19px" height="21px" viewBox="0 0 19 21" version="1.1" xmlns="http://www.w3.org/2000/svg" xmlns:xlink="http://www.w3.org/1999/xlink">
    <!-- Generator: Sketch 42 (36781) - http://www.bohemiancoding.com/sketch -->
    <title>Fill 257</title>
    <desc>Created with Sketch.</desc>
    <defs></defs>
    <g id="Page-1" stroke="none" stroke-width="1" fill="none" fill-rule="evenodd">
        <g id="Line-Icons" transform="translate(-98.000000, -1.000000)" fill="#757575">
            <g id="Fill-257" transform="translate(98.000000, 1.000000)">
                <path d="M11.6904,12.1206 C9.5474,14.2636 7.9024,14.7136 6.8984,14.7136 C6.1504,14.7136 5.4804,14.4556 5.0124,13.9896 C3.9024,12.8786 3.7264,10.4636 6.8794,7.3106 C7.0404,7.1506 7.2194,6.9866 7.4184,6.8186 L9.2824,8.7396 C9.5664,9.0316 9.9994,9.1226 10.3754,8.9696 C10.7534,8.8166 11.0004,8.4506 11.0004,8.0426 L11.0004,4.5266 C13.0554,3.5446 15.1714,2.8396 16.5784,2.4226 C15.8394,4.9146 14.1934,9.6176 11.6904,12.1206 M18.7064,0.2926 C18.4634,0.0496 18.1084,-0.0514 17.7734,0.0266 C17.5984,0.0666 13.4284,1.0476 9.5484,3.0116 C9.2114,3.1826 9.0004,3.5266 9.0004,3.9036 L9.0004,5.5756 L8.2274,4.7796 C7.8794,4.4216 7.3194,4.3736 6.9164,4.6716 C6.3384,5.0976 5.8644,5.4976 5.4654,5.8956 C1.6614,9.7006 1.7764,12.9666 3.1424,14.8586 L0.0004,18.0006 L0.0004,21.0006 L4.7824,16.2196 C5.4224,16.5306 6.1354,16.7136 6.8984,16.7136 C8.2804,16.7136 10.4784,16.1626 13.1044,13.5356 C16.9984,9.6416 18.8954,1.5666 18.9744,1.2256 C19.0514,0.8896 18.9504,0.5366 18.7064,0.2926"></path>
            </g>
        </g>
    </g>
</svg>