<?xml version="1.0" encoding="UTF-8"?>
<svg width="14px" height="20px" viewBox="0 0 14 20" version="1.1" xmlns="http://www.w3.org/2000/svg" xmlns:xlink="http://www.w3.org/1999/xlink">
    <!-- Generator: Sketch 42 (36781) - http://www.bohemiancoding.com/sketch -->
    <title>Fill 830</title>
    <desc>Created with Sketch.</desc>
    <defs></defs>
    <g id="Page-1" stroke="none" stroke-width="1" fill="none" fill-rule="evenodd">
        <g id="Line-Icons" transform="translate(-149.000000, -1441.000000)" fill="#767676">
            <g id="Fill-830" transform="translate(149.000000, 1441.000000)">
                <path d="M12,8.0005 C12,8.5515 11.551,9.0005 11,9.0005 C10.449,9.0005 10,8.5515 10,8.0005 C10,7.4485 9.552,7.0005 9,7.0005 C8.448,7.0005 8,7.4485 8,8.0005 C8,8.5515 7.551,9.0005 7,9.0005 C6.449,9.0005 6,8.5515 6,8.0005 C6,7.4485 5.552,7.0005 5,7.0005 C4.448,7.0005 4,7.4485 4,8.0005 C4,8.5515 3.551,9.0005 3,9.0005 C2.449,9.0005 2,8.5515 2,8.0005 L2,7.0005 C2,4.2435 4.243,2.0005 7,2.0005 C9.757,2.0005 12,4.2435 12,7.0005 L12,8.0005 Z M7,16.5385 L4.383,10.6495 C4.604,10.5335 4.815,10.4005 5,10.2345 C5.531,10.7105 6.232,11.0005 7,11.0005 C7.768,11.0005 8.469,10.7105 9,10.2345 C9.185,10.4005 9.396,10.5335 9.617,10.6495 L7,16.5385 Z M7,0.0005 C3.14,0.0005 0,3.1405 0,7.0005 L0,8.0005 C0,9.4175 0.989,10.6005 2.311,10.9135 L6.086,19.4065 C6.247,19.7685 6.605,20.0005 7,20.0005 C7.395,20.0005 7.753,19.7685 7.914,19.4065 L11.689,10.9135 C13.011,10.6005 14,9.4175 14,8.0005 L14,7.0005 C14,3.1405 10.86,0.0005 7,0.0005 L7,0.0005 Z"></path>
            </g>
        </g>
    </g>
</svg>