<?xml version="1.0" encoding="UTF-8"?>
<svg width="18px" height="20px" viewBox="0 0 18 20" version="1.1" xmlns="http://www.w3.org/2000/svg" xmlns:xlink="http://www.w3.org/1999/xlink">
    <!-- Generator: Sketch 42 (36781) - http://www.bohemiancoding.com/sketch -->
    <title>Fill 388</title>
    <desc>Created with Sketch.</desc>
    <defs></defs>
    <g id="Page-1" stroke="none" stroke-width="1" fill="none" fill-rule="evenodd">
        <g id="Line-Icons" transform="translate(-147.000000, -337.000000)" fill="#757575">
            <g id="Fill-388" transform="translate(147.000000, 337.000000)">
                <path d="M16,18 L6,18 L6,2 L16,2 L16,18 Z M2,2 L4,2 L4,18 L2,18 L2,2 Z M17,0 L1,0 C0.448,0 0,0.449 0,1 L0,19 C0,19.553 0.448,20 1,20 L17,20 C17.552,20 18,19.553 18,19 L18,1 C18,0.449 17.552,0 17,0 L17,0 Z"></path>
            </g>
        </g>
    </g>
</svg>