<?xml version="1.0" encoding="UTF-8"?>
<svg width="16px" height="19px" viewBox="0 0 16 19" version="1.1" xmlns="http://www.w3.org/2000/svg" xmlns:xlink="http://www.w3.org/1999/xlink">
    <!-- Generator: Sketch 42 (36781) - http://www.bohemiancoding.com/sketch -->
    <title>Fill 758</title>
    <desc>Created with Sketch.</desc>
    <defs></defs>
    <g id="Page-1" stroke="none" stroke-width="1" fill="none" fill-rule="evenodd">
        <g id="Line-Icons" transform="translate(-292.000000, -1250.000000)" fill="#767676">
            <g id="Fill-758" transform="translate(292.000000, 1250.000000)">
                <path d="M8.0039,16.9116 C6.6649,16.2766 2.0009,13.6666 2.0009,8.1606 C2.0009,7.9776 2.0119,7.7986 2.0259,7.6196 C2.0989,8.9356 2.7249,11.9146 6.9389,11.9146 C6.9389,11.9146 7.9059,7.0536 2.1059,7.0076 C2.6189,4.1246 5.0219,2.0026 8.0009,2.0026 C10.9789,2.0026 13.3819,4.1246 13.8959,7.0076 C8.0949,7.0536 9.0619,11.9146 9.0619,11.9146 C13.2749,11.9146 13.9019,8.9356 13.9749,7.6206 C13.9889,7.7986 14.0009,7.9776 14.0009,8.1606 C14.0009,13.7086 9.3659,16.2766 8.0039,16.9116 M8.0009,0.0026 C3.5149,0.0026 0.0009,3.5866 0.0009,8.1606 C0.0009,15.9176 7.3309,18.8166 7.6429,18.9356 C7.7579,18.9806 7.8789,19.0026 8.0009,19.0026 C8.1219,19.0026 8.2429,18.9806 8.3579,18.9356 C8.6709,18.8166 16.0009,15.9176 16.0009,8.1606 C16.0009,3.5866 12.4859,0.0026 8.0009,0.0026"></path>
            </g>
        </g>
    </g>
</svg>