<?xml version="1.0" encoding="UTF-8"?>
<svg width="16px" height="21px" viewBox="0 0 16 21" version="1.1" xmlns="http://www.w3.org/2000/svg" xmlns:xlink="http://www.w3.org/1999/xlink">
    <!-- Generator: Sketch 42 (36781) - http://www.bohemiancoding.com/sketch -->
    <title>Fill 594 + Fill 595</title>
    <desc>Created with Sketch.</desc>
    <defs></defs>
    <g id="Page-1" stroke="none" stroke-width="1" fill="none" fill-rule="evenodd">
        <g id="Line-Icons" transform="translate(-340.000000, -961.000000)" fill="#767676">
            <g id="Fill-594-+-Fill-595" transform="translate(340.000000, 961.000000)">
                <path d="M9.0005,3.0015 L7.0005,3.0015 L7.0005,4.0525 C5.8605,4.2845 5.0005,5.2945 5.0005,6.5015 C5.0005,7.8795 6.1225,9.0015 7.5005,9.0015 L8.5005,9.0015 C8.7765,9.0015 9.0005,9.2265 9.0005,9.5015 C9.0005,9.7775 8.7765,10.0015 8.5005,10.0015 L5.0005,10.0015 L5.0005,12.0015 L7.0005,12.0015 L7.0005,13.0015 L9.0005,13.0015 L9.0005,11.9505 C10.1405,11.7185 11.0005,10.7085 11.0005,9.5015 C11.0005,8.1235 9.8785,7.0015 8.5005,7.0015 L7.5005,7.0015 C7.2245,7.0015 7.0005,6.7775 7.0005,6.5015 C7.0005,6.2265 7.2245,6.0015 7.5005,6.0015 L11.0005,6.0015 L11.0005,4.0015 L9.0005,4.0015 L9.0005,3.0015 Z" id="Fill-594"></path>
                <path d="M8.0005,17.6558 C5.8705,15.6588 2.0005,11.3398 2.0005,8.0018 C2.0005,4.6928 4.6915,2.0018 8.0005,2.0018 C11.3095,2.0018 14.0005,4.6928 14.0005,8.0018 C14.0005,11.3398 10.1305,15.6588 8.0005,17.6558 M8.0005,0.0018 C3.5895,0.0018 0.0005,3.5898 0.0005,8.0018 C0.0005,12.4118 4.6445,17.4418 8.0005,20.3188 C11.3545,17.4438 16.0005,12.4138 16.0005,8.0018 C16.0005,3.5898 12.4115,0.0018 8.0005,0.0018" id="Fill-595"></path>
            </g>
        </g>
    </g>
</svg>