<?xml version="1.0" encoding="UTF-8"?>
<svg width="22px" height="20px" viewBox="0 0 22 20" version="1.1" xmlns="http://www.w3.org/2000/svg" xmlns:xlink="http://www.w3.org/1999/xlink">
    <!-- Generator: Sketch 42 (36781) - http://www.bohemiancoding.com/sketch -->
    <title>Fill 581 + Fill 582</title>
    <desc>Created with Sketch.</desc>
    <defs></defs>
    <g id="Page-1" stroke="none" stroke-width="1" fill="none" fill-rule="evenodd">
        <g id="Line-Icons" transform="translate(-145.000000, -913.000000)" fill="#757575">
            <g id="Fill-581-+-Fill-582" transform="translate(145.000000, 913.000000)">
                <path d="M2,18.0005 L2,6.0005 L19.999,6.0005 L19.997,18.0005 L2,18.0005 Z M5,4.0005 L2,4.0005 L2,2.0005 L5,2.0005 L5,4.0005 Z M7,2.0005 L10,2.0005 L10,4.0005 L7,4.0005 L7,2.0005 Z M19.999,4.0005 L12,4.0005 L12,2.0005 L20,2.0005 L19.999,4.0005 Z M20,0.0005 L2,0.0005 C0.897,0.0005 0,0.8975 0,2.0005 L0,18.0005 C0,19.1035 0.897,20.0005 2,20.0005 L20,20.0005 C21.103,20.0005 22,19.1035 22,18.0005 L22,2.0005 C22,0.8975 21.103,0.0005 20,0.0005 L20,0.0005 Z" id="Fill-581"></path>
                <path d="M11.5,14.0005 L10,14.0005 L10,13.0005 L11.5,13.0005 C11.776,13.0005 12,13.2245 12,13.5005 C12,13.7775 11.776,14.0005 11.5,14.0005 M12,10.5005 C12,10.7775 11.776,11.0005 11.5,11.0005 L10,11.0005 L10,10.0005 L11.5,10.0005 C11.776,10.0005 12,10.2245 12,10.5005 M12,8.0515 L12,7.0005 L10,7.0005 L10,8.0005 L8,8.0005 L8,16.0005 L10,16.0005 L10,16.9995 L12,16.9995 L12,15.9495 C13.14,15.7175 14,14.7075 14,13.5005 C14,12.9365 13.805,12.4195 13.487,12.0005 C13.805,11.5815 14,11.0655 14,10.5005 C14,9.2935 13.14,8.2835 12,8.0515" id="Fill-582"></path>
            </g>
        </g>
    </g>
</svg>