<?xml version="1.0" encoding="UTF-8"?>
<svg width="22px" height="21px" viewBox="0 0 22 21" version="1.1" xmlns="http://www.w3.org/2000/svg" xmlns:xlink="http://www.w3.org/1999/xlink">
    <!-- Generator: Sketch 42 (36781) - http://www.bohemiancoding.com/sketch -->
    <title>Fill 795 + Fill 796</title>
    <desc>Created with Sketch.</desc>
    <defs></defs>
    <g id="Page-1" stroke="none" stroke-width="1" fill="none" fill-rule="evenodd">
        <g id="Line-Icons" transform="translate(-49.000000, -1393.000000)" fill="#767676">
            <g id="Fill-795-+-Fill-796" transform="translate(48.000000, 1393.000000)">
                <path d="M20.9961,16.0005 L6.9991,16.0005 L6.9991,2.0005 L20.9991,2.0005 L20.9961,16.0005 Z M2.9991,5.0005 L4.9991,5.0005 L4.9991,13.0005 L2.9991,13.0005 L2.9991,5.0005 Z M20.9991,0.0005 L6.9991,0.0005 C5.8961,0.0005 4.9991,0.8985 4.9991,2.0005 L4.9991,3.0005 L2.9991,3.0005 L2.9991,1.0005 L0.9991,1.0005 L0.9991,21.0005 L2.9991,21.0005 L2.9991,15.0005 L4.9991,15.0005 L4.9991,16.0005 C4.9991,17.1035 5.8961,18.0005 6.9991,18.0005 L20.9991,18.0005 C22.1021,18.0005 22.9991,17.1035 22.9991,16.0005 L22.9991,2.0005 C22.9991,0.8985 22.1021,0.0005 20.9991,0.0005 L20.9991,0.0005 Z" id="Fill-795"></path>
                <polygon id="Fill-796" points="11.999 14.0005 15.999 14.0005 15.999 11.0005 18.999 11.0005 18.999 7.0005 15.999 7.0005 15.999 4.0005 11.999 4.0005 11.999 7.0005 8.999 7.0005 8.999 11.0005 11.999 11.0005"></polygon>
            </g>
        </g>
    </g>
</svg>