<?xml version="1.0" encoding="UTF-8"?>
<svg width="20px" height="20px" viewBox="0 0 20 20" version="1.1" xmlns="http://www.w3.org/2000/svg" xmlns:xlink="http://www.w3.org/1999/xlink">
    <!-- Generator: Sketch 42 (36781) - http://www.bohemiancoding.com/sketch -->
    <title>Fill 364 + Fill 365</title>
    <desc>Created with Sketch.</desc>
    <defs></defs>
    <g id="Page-1" stroke="none" stroke-width="1" fill="none" fill-rule="evenodd">
        <g id="Line-Icons" transform="translate(-98.000000, -289.000000)" fill="#757575">
            <g id="Fill-364-+-Fill-365" transform="translate(98.000000, 289.000000)">
                <path d="M2,2 L14,2 L14,3 L2,3 L2,2 Z M10,18 L2,18 L2,17 L10,17 L10,15 L2,15 L2,5 L14.001,5 L14.001,6 L16,6 L16,2 C16,0.897 15.103,0 14,0 L2,0 C0.897,0 0,0.897 0,2 L0,18 C0,19.103 0.897,20 2,20 L10,20 L10,18 Z" id="Fill-364"></path>
                <path d="M14,17 L18.001,17 L18.001,18 L14,18 L14,17 Z M18,10 L18.001,15 L14,15 L14,10 L18,10 Z M18,8 L14,8 C12.897,8 12,8.897 12,10 L12,18 C12,19.103 12.897,20 14,20 L18,20 C19.103,20 20,19.103 20,18 L20,10 C20,8.897 19.103,8 18,8 L18,8 Z" id="Fill-365"></path>
            </g>
        </g>
    </g>
</svg>