<?xml version="1.0" encoding="UTF-8"?>
<svg width="20px" height="18px" viewBox="0 0 20 18" version="1.1" xmlns="http://www.w3.org/2000/svg" xmlns:xlink="http://www.w3.org/1999/xlink">
    <!-- Generator: Sketch 42 (36781) - http://www.bohemiancoding.com/sketch -->
    <title>Fill 505 + Fill 506 + Fill 507</title>
    <desc>Created with Sketch.</desc>
    <defs></defs>
    <g id="Page-1" stroke="none" stroke-width="1" fill="none" fill-rule="evenodd">
        <g id="Line-Icons" transform="translate(-242.000000, -674.000000)" fill="#757575">
            <g id="Fill-505-+-Fill-506-+-Fill-507" transform="translate(242.000000, 674.000000)">
                <path d="M5.521,11.0005 L2,11.0005 L2,7.0005 L5.521,7.0005 L9,2.0275 L9.001,15.9765 L5.521,11.0005 Z M9.764,0.1525 C9.025,-0.1525 8.149,0.0215 7.586,0.5865 L4.479,5.0005 L2,5.0005 C0.897,5.0005 0,5.8985 0,7.0005 L0,11.0005 C0,12.1035 0.897,13.0005 2,13.0005 L4.479,13.0005 L7.474,17.2805 C7.89,17.7765 8.433,18.0005 9,18.0005 C9.263,18.0005 9.521,17.9495 9.764,17.8495 C10.515,17.5405 11,16.8125 11,16.0005 L11,2.0005 C11,1.1875 10.515,0.4625 9.764,0.1525 L9.764,0.1525 Z" id="Fill-505"></path>
                <path d="M13,1.0005 L13,3.0005 C15.757,3.0005 18,5.2435 18,8.0005 C18,10.7575 15.757,13.0005 13,13.0005 L13,15.0005 C16.86,15.0005 20,11.8605 20,8.0005 C20,4.1415 16.86,1.0005 13,1.0005" id="Fill-506"></path>
                <path d="M16,8.0005 C16,6.3465 14.654,5.0005 13,5.0005 L13,7.0005 C13.551,7.0005 14,7.4495 14,8.0005 C14,8.5525 13.551,9.0005 13,9.0005 L13,11.0005 C14.654,11.0005 16,9.6545 16,8.0005" id="Fill-507"></path>
            </g>
        </g>
    </g>
</svg>