<?xml version="1.0" encoding="UTF-8"?>
<svg width="19px" height="20px" viewBox="0 0 19 20" version="1.1" xmlns="http://www.w3.org/2000/svg" xmlns:xlink="http://www.w3.org/1999/xlink">
    <!-- Generator: Sketch 42 (36781) - http://www.bohemiancoding.com/sketch -->
    <title>Fill 683 + Fill 684</title>
    <desc>Created with Sketch.</desc>
    <defs></defs>
    <g id="Page-1" stroke="none" stroke-width="1" fill="none" fill-rule="evenodd">
        <g id="Line-Icons" transform="translate(-291.000000, -1105.000000)" fill="#767676">
            <g id="Fill-683-+-Fill-684" transform="translate(291.000000, 1105.000000)">
                <polygon id="Fill-683" points="11 7.002 0 7.002 0 9.002 11 9.002"></polygon>
                <path d="M10.2202,18.0022 L10.9812,14.1982 C11.0402,13.9042 10.9642,13.6002 10.7742,13.3682 C10.5842,13.1362 10.3002,13.0022 10.0002,13.0022 L4.0002,13.0022 C3.2612,13.0022 2.6152,12.5992 2.2692,12.0022 L13.0002,12.0022 C13.5522,12.0022 14.0002,11.5542 14.0002,11.0022 L14.0002,6.0022 L17.0002,6.0022 L17.0002,18.0022 L10.2202,18.0022 Z M17.0002,4.0022 L14.0002,4.0022 L14.0002,2.0022 L17.0002,2.0022 L17.0002,4.0022 Z M17.0002,0.0022 L14.0002,0.0022 C12.8972,0.0022 12.0002,0.8992 12.0002,2.0022 L12.0002,10.0022 L1.0002,10.0022 C0.4482,10.0022 0.0002,10.4502 0.0002,11.0022 C0.0002,13.2072 1.7952,15.0022 4.0002,15.0022 L8.7812,15.0022 L8.0202,18.8062 C7.9612,19.1002 8.0372,19.4042 8.2272,19.6362 C8.4172,19.8672 8.7002,20.0022 9.0002,20.0022 L18.0002,20.0022 C18.5522,20.0022 19.0002,19.5542 19.0002,19.0022 L19.0002,2.0022 C19.0002,0.8992 18.1032,0.0022 17.0002,0.0022 L17.0002,0.0022 Z" id="Fill-684"></path>
            </g>
        </g>
    </g>
</svg>