<?xml version="1.0" encoding="UTF-8"?>
<svg width="18px" height="24px" viewBox="0 0 18 24" version="1.1" xmlns="http://www.w3.org/2000/svg" xmlns:xlink="http://www.w3.org/1999/xlink">
    <!-- Generator: Sketch 42 (36781) - http://www.bohemiancoding.com/sketch -->
    <title>Fill 858 + Fill 859 + Fill 860</title>
    <desc>Created with Sketch.</desc>
    <defs></defs>
    <g id="Page-1" stroke="none" stroke-width="1" fill="none" fill-rule="evenodd">
        <g id="Line-Icons" transform="translate(-387.000000, -1487.000000)" fill="#767676">
            <g id="Fill-858-+-Fill-859-+-Fill-860" transform="translate(386.000000, 1487.000000)">
                <polygon id="Fill-858" points="6.999 9.0005 4.999 9.0005 4.999 13.0005 7.999 13.0005 7.999 11.0005 6.999 11.0005"></polygon>
                <polygon id="Fill-859" points="11.999 9.0005 9.999 9.0005 9.999 13.0005 12.999 13.0005 12.999 11.0005 11.999 11.0005"></polygon>
                <path d="M16.999,20.5864 L14.706,18.2934 C14.315,17.9024 13.683,17.9024 13.292,18.2934 L9.999,21.5864 L6.706,18.2934 C6.511,18.0984 6.255,18.0004 5.999,18.0004 C5.743,18.0004 5.487,18.0984 5.292,18.2934 L2.999,20.5864 L2.999,9.0004 C2.999,5.1404 6.139,2.0004 9.999,2.0004 C13.859,2.0004 16.999,5.1404 16.999,9.0004 L16.999,20.5864 Z M9.999,0.0004 C5.037,0.0004 0.999,4.0384 0.999,9.0004 L0.999,23.0004 C0.999,23.4044 1.243,23.7694 1.616,23.9244 C1.989,24.0784 2.419,23.9934 2.706,23.7074 L5.999,20.4144 L9.292,23.7074 C9.683,24.0984 10.315,24.0984 10.706,23.7074 L13.999,20.4144 L17.292,23.7074 C17.483,23.8994 17.739,24.0004 17.999,24.0004 C18.128,24.0004 18.258,23.9764 18.382,23.9244 C18.755,23.7694 18.999,23.4044 18.999,23.0004 L18.999,9.0004 C18.999,4.0384 14.961,0.0004 9.999,0.0004 L9.999,0.0004 Z" id="Fill-860"></path>
            </g>
        </g>
    </g>
</svg>