<?xml version="1.0" encoding="UTF-8"?>
<svg width="22px" height="22px" viewBox="0 0 22 22" version="1.1" xmlns="http://www.w3.org/2000/svg" xmlns:xlink="http://www.w3.org/1999/xlink">
    <!-- Generator: Sketch 42 (36781) - http://www.bohemiancoding.com/sketch -->
    <title>Fill 323 + Fill 324</title>
    <desc>Created with Sketch.</desc>
    <defs></defs>
    <g id="Page-1" stroke="none" stroke-width="1" fill="none" fill-rule="evenodd">
        <g id="Line-Icons" transform="translate(-240.000000, -193.000000)" fill="#757575">
            <g id="Fill-323-+-Fill-324" transform="translate(240.000000, 193.000000)">
                <polygon id="Fill-323" points="22 2.995 16 2.995 16 0.995 22 0.995"></polygon>
                <path d="M2,7.0005 L2,16.0005 L5,16.0005 L5,18.0005 L7.667,16.0005 L15,16.0005 L15,7.0005 L2,7.0005 Z M3,22.0005 L3,18.0005 L2,18.0005 C0.897,18.0005 0,17.1035 0,16.0005 L0,7.0005 C0,5.8975 0.897,5.0005 2,5.0005 L15,5.0005 C16.103,5.0005 17,5.8975 17,7.0005 L17,16.0005 C17,17.1035 16.103,18.0005 15,18.0005 L8.333,18.0005 L3,22.0005 Z" id="Fill-324"></path>
            </g>
        </g>
    </g>
</svg>