<?xml version="1.0" encoding="UTF-8"?>
<svg width="24px" height="24px" viewBox="0 0 24 24" version="1.1" xmlns="http://www.w3.org/2000/svg" xmlns:xlink="http://www.w3.org/1999/xlink">
    <!-- Generator: Sketch 42 (36781) - http://www.bohemiancoding.com/sketch -->
    <title>Fill 552 + Fill 553</title>
    <desc>Created with Sketch.</desc>
    <defs></defs>
    <g id="Page-1" stroke="none" stroke-width="1" fill="none" fill-rule="evenodd">
        <g id="Line-Icons" transform="translate(-432.000000, -767.000000)" fill="#757575">
            <g id="Fill-552-+-Fill-553" transform="translate(432.000000, 767.000000)">
                <path d="M17.4687,15.0005 L18.8027,9.0005 L19.9997,9.0005 L19.9997,7.0005 L16.5797,7.0005 L12.8687,0.5045 L11.1317,1.4965 L14.2777,7.0005 L5.7237,7.0005 L8.8687,1.4965 L7.1317,0.5045 L3.4197,7.0005 L-0.0003,7.0005 L-0.0003,9.0005 L1.1987,9.0005 L3.0247,17.2185 C3.1257,17.6755 3.5307,18.0005 3.9997,18.0005 L15.0007,18.0005 L15.0007,16.0005 L4.8027,16.0005 L3.2467,9.0005 L16.7537,9.0005 L15.4197,15.0005 L17.4687,15.0005 Z" id="Fill-552"></path>
                <polygon id="Fill-553" points="23.707 17.707 22.293 16.294 20 18.586 17.707 16.294 16.293 17.707 18.586 20.001 16.293 22.294 17.707 23.707 20 21.415 22.293 23.707 23.707 22.294 21.414 20.001"></polygon>
            </g>
        </g>
    </g>
</svg>