<?xml version="1.0" encoding="UTF-8"?>
<svg width="22px" height="20px" viewBox="0 0 22 20" version="1.1" xmlns="http://www.w3.org/2000/svg" xmlns:xlink="http://www.w3.org/1999/xlink">
    <!-- Generator: Sketch 42 (36781) - http://www.bohemiancoding.com/sketch -->
    <title>Fill 180</title>
    <desc>Created with Sketch.</desc>
    <defs></defs>
    <g id="Page-1" stroke="none" stroke-width="1" fill="none" fill-rule="evenodd">
        <g id="Line-Icons" transform="translate(-96.000000, -529.000000)" fill="#757575">
            <g id="Fill-180" transform="translate(96.000000, 529.000000)">
                <path d="M19.707,3.7773 L10.414,13.0703 C10.244,12.7813 10.05,12.5063 9.807,12.2633 C9.564,12.0203 9.284,11.8303 8.992,11.6653 L18.293,2.3633 C18.67,1.9863 19.329,1.9863 19.707,2.3633 C19.896,2.5523 20,2.8043 20,3.0703 C20,3.3373 19.896,3.5883 19.707,3.7773 M8.393,16.5063 C7.35,17.5493 5.738,17.8803 4.528,17.9703 C4.907,17.0923 4.87,16.3403 4.84,15.7293 C4.753,13.9693 5.923,13.0913 6.979,13.0913 C7.513,13.0913 8.015,13.2993 8.393,13.6773 C9.176,14.4593 9.177,15.7213 8.393,16.5063 M22,3.0703 C22,2.2693 21.688,1.5163 21.122,0.9503 C19.989,-0.1837 18.012,-0.1837 16.879,0.9493 L6.67,11.1583 C5.74,11.2263 4.831,11.5833 4.151,12.2633 C2.736,13.6773 2.795,14.8693 2.842,15.8273 C2.883,16.6503 2.913,17.2443 1.919,18.2383 L0.477,19.6803 C2.293,19.9113 2.721,20.0003 3.721,20.0003 L3.722,20.0003 C5.218,20.0003 7.998,19.7303 9.807,17.9203 C10.499,17.2293 10.889,16.3253 10.953,15.3593 L21.121,5.1923 C21.688,4.6253 22,3.8723 22,3.0703"></path>
            </g>
        </g>
    </g>
</svg>