<?xml version="1.0" encoding="UTF-8"?>
<svg width="18px" height="20px" viewBox="0 0 18 20" version="1.1" xmlns="http://www.w3.org/2000/svg" xmlns:xlink="http://www.w3.org/1999/xlink">
    <!-- Generator: Sketch 42 (36781) - http://www.bohemiancoding.com/sketch -->
    <title>Fill 265 + Fill 266 + Fill 267</title>
    <desc>Created with Sketch.</desc>
    <defs></defs>
    <g id="Page-1" stroke="none" stroke-width="1" fill="none" fill-rule="evenodd">
        <g id="Line-Icons" transform="translate(-291.000000, -1.000000)" fill="#757575">
            <g id="Fill-265-+-Fill-266-+-Fill-267" transform="translate(291.000000, 1.000000)">
                <path d="M13.229,10.0005 L13.935,10.0005 L13.621,10.3925 L15.044,11.8155 L16.796,9.6255 C17.036,9.3245 17.083,8.9135 16.917,8.5675 C16.75,8.2215 16.399,8.0005 16.015,8.0005 L11.229,8.0005 L13.229,10.0005 Z" id="Fill-265"></path>
                <path d="M9.0151,16.1504 L9.0151,11.4434 L11.1061,13.5354 L9.0151,16.1504 Z M4.0961,10.0004 L5.6401,8.0694 L7.5711,10.0004 L4.0961,10.0004 Z M1.7071,1.3084 L0.2931,2.7224 L4.2181,6.6464 L1.2341,10.3754 C0.9941,10.6774 0.9471,11.0874 1.1141,11.4334 C1.2801,11.7794 1.6311,12.0004 2.0151,12.0004 L7.0151,12.0004 L7.0151,19.0004 C7.0151,19.4254 7.2831,19.8034 7.6841,19.9434 C7.7921,19.9824 7.9041,20.0004 8.0151,20.0004 C8.3131,20.0004 8.6021,19.8674 8.7961,19.6254 L12.5291,14.9584 L16.2931,18.7224 L17.7071,17.3084 L1.7071,1.3084 Z" id="Fill-266"></path>
                <path d="M8.1553,4.9263 L9.0153,3.8513 L9.0153,5.7863 L11.0153,7.7863 L11.0153,1.0003 C11.0153,0.5753 10.7473,0.1973 10.3463,0.0573 C9.9453,-0.0837 9.4993,0.0443 9.2343,0.3753 L6.7323,3.5033 L8.1553,4.9263 Z" id="Fill-267"></path>
            </g>
        </g>
    </g>
</svg>