<?xml version="1.0" encoding="UTF-8"?>
<svg width="20px" height="18px" viewBox="0 0 20 18" version="1.1" xmlns="http://www.w3.org/2000/svg" xmlns:xlink="http://www.w3.org/1999/xlink">
    <!-- Generator: Sketch 42 (36781) - http://www.bohemiancoding.com/sketch -->
    <title>Fill 812 + Fill 813</title>
    <desc>Created with Sketch.</desc>
    <defs></defs>
    <g id="Page-1" stroke="none" stroke-width="1" fill="none" fill-rule="evenodd">
        <g id="Line-Icons" transform="translate(-242.000000, -1394.000000)" fill="#767676">
            <g id="Fill-812-+-Fill-813" transform="translate(241.000000, 1394.000000)">
                <path d="M16.999,11 L18.999,11 L18.999,16 L16.999,16 L16.999,11 Z M10.999,6 L4.999,6 L4.999,2 L18.999,2 L18.999,3 L14.999,3 L14.999,5 L18.999,5 L18.999,6 L14.999,6 L14.999,8 L18.999,8 L18.999,9 L15.999,9 C15.447,9 14.999,9.448 14.999,10 L14.999,16 L11.999,16 L11.999,7 C11.999,6.448 11.551,6 10.999,6 L10.999,6 Z M19.999,0 L3.999,0 C3.447,0 2.999,0.448 2.999,1 L2.999,7 C2.999,7.551 3.447,8 3.999,8 L4.999,8 L4.999,10 L1.999,10 L1.999,12 L4.999,12 L4.999,13 L6.999,13 L6.999,12 L7.999,12 L7.999,10 L6.999,10 L6.999,8 L9.999,8 L9.999,16 L0.999,16 L0.999,18 L20.999,18 L20.999,1 C20.999,0.448 20.551,0 19.999,0 L19.999,0 Z" id="Fill-812"></path>
                <polygon id="Fill-813" points="5.999 5 9.999 5 9.999 3 5.999 3"></polygon>
            </g>
        </g>
    </g>
</svg>