<?xml version="1.0" encoding="UTF-8"?>
<svg width="19px" height="18px" viewBox="0 0 19 18" version="1.1" xmlns="http://www.w3.org/2000/svg" xmlns:xlink="http://www.w3.org/1999/xlink">
    <!-- Generator: Sketch 42 (36781) - http://www.bohemiancoding.com/sketch -->
    <title>Fill 27</title>
    <desc>Created with Sketch.</desc>
    <defs></defs>
    <g id="Page-1" stroke="none" stroke-width="1" fill="none" fill-rule="evenodd">
        <g id="Line-Icons" transform="translate(-339.000000, -1346.000000)" fill="#767676">
            <g id="Fill-27" transform="translate(338.000000, 1346.000000)">
                <path d="M15.999,6.0005 L15.999,7.0005 L14.999,7.0005 L14.999,6.4155 L15.414,6.0005 L15.999,6.0005 Z M13.292,5.2935 C13.104,5.4805 12.999,5.7355 12.999,6.0005 L12.999,8.0005 L5.999,8.0005 C4.345,8.0005 2.999,6.6545 2.999,5.0005 C2.999,3.6985 3.838,2.5995 4.999,2.1855 L4.999,5.0005 L6.999,5.0005 L6.999,2.0005 L7.999,2.0005 L7.999,4.0005 L9.999,4.0005 L9.999,2.0005 L16.585,2.0005 L13.292,5.2935 Z M19.923,0.6185 C19.768,0.2445 19.403,0.0005 18.999,0.0005 L5.999,0.0005 C3.242,0.0005 0.999,2.2435 0.999,5.0005 C0.999,7.7575 3.242,10.0005 5.999,10.0005 L7.999,10.0005 L7.999,12.2465 L2.999,13.6755 L2.999,11.0005 L0.999,11.0005 L0.999,18.0005 L2.999,18.0005 L2.999,15.7545 L9.274,13.9625 C9.703,13.8395 9.999,13.4465 9.999,13.0005 L9.999,10.0005 L13.999,10.0005 C14.551,10.0005 14.999,9.5525 14.999,9.0005 L16.999,9.0005 C17.551,9.0005 17.999,8.5525 17.999,8.0005 L17.999,5.0005 C17.999,4.5705 17.725,4.2115 17.344,4.0695 L19.706,1.7075 C19.992,1.4225 20.078,0.9915 19.923,0.6185 L19.923,0.6185 Z"></path>
            </g>
        </g>
    </g>
</svg>