<?xml version="1.0" encoding="UTF-8"?>
<svg width="16px" height="20px" viewBox="0 0 16 20" version="1.1" xmlns="http://www.w3.org/2000/svg" xmlns:xlink="http://www.w3.org/1999/xlink">
    <!-- Generator: Sketch 42 (36781) - http://www.bohemiancoding.com/sketch -->
    <title>Fill 25</title>
    <desc>Created with Sketch.</desc>
    <defs></defs>
    <g id="Page-1" stroke="none" stroke-width="1" fill="none" fill-rule="evenodd">
        <g id="Line-Icons" transform="translate(-388.000000, -1345.000000)" fill="#767676">
            <g id="Fill-25" transform="translate(388.000000, 1345.000000)">
                <path d="M14,3.7808 L11,3.1808 L11,2.8208 L14,2.2198 L14,3.7808 Z M9,9.0008 L7,9.0008 C6.448,9.0008 6,9.4488 6,10.0008 L6,16.0008 C6,16.5528 6.448,17.0008 7,17.0008 L9,17.0008 L9,18.0008 L5,18.0008 L5,9.0008 C5,7.8978 5.897,7.0008 7,7.0008 C8.103,7.0008 9,7.8978 9,9.0008 L9,9.0008 Z M9,15.0008 L8,15.0008 L8,11.0008 L9,11.0008 L9,15.0008 Z M15.634,0.2268 C15.402,0.0378 15.098,-0.0392 14.804,0.0208 L9.804,1.0208 C9.336,1.1138 9,1.5238 9,2.0008 L7.163,2.0008 L1.316,0.0518 L0.684,1.9498 L3.564,2.9098 C1.44,4.1128 0,6.3898 0,9.0008 L0,16.0008 L2,16.0008 L2,9.0008 C2,6.5868 3.721,4.5658 6,4.1018 L6,5.1428 C4.28,5.5908 3,7.1418 3,9.0008 L3,19.0008 C3,19.5528 3.448,20.0008 4,20.0008 L10,20.0008 C10.552,20.0008 11,19.5528 11,19.0008 L11,9.0008 C11,7.1418 9.72,5.5908 8,5.1428 L8,4.0008 L9,4.0008 C9,4.4768 9.336,4.8878 9.804,4.9808 L14.804,5.9808 C15.096,6.0398 15.401,5.9648 15.634,5.7738 C15.866,5.5848 16,5.3008 16,5.0008 L16,1.0008 C16,0.7008 15.866,0.4168 15.634,0.2268 L15.634,0.2268 Z"></path>
            </g>
        </g>
    </g>
</svg>