<?xml version="1.0" encoding="UTF-8"?>
<svg width="20px" height="21px" viewBox="0 0 20 21" version="1.1" xmlns="http://www.w3.org/2000/svg" xmlns:xlink="http://www.w3.org/1999/xlink">
    <!-- Generator: Sketch 42 (36781) - http://www.bohemiancoding.com/sketch -->
    <title>Fill 761 + Fill 762</title>
    <desc>Created with Sketch.</desc>
    <defs></defs>
    <g id="Page-1" stroke="none" stroke-width="1" fill="none" fill-rule="evenodd">
        <g id="Line-Icons" transform="translate(-386.000000, -1249.000000)" fill="#767676">
            <g id="Fill-761-+-Fill-762" transform="translate(386.000000, 1249.000000)">
                <path d="M17,17.5025 C17,18.3295 16.327,19.0025 15.5,19.0025 C15.1,19.0025 14.723,18.8465 14.44,18.5625 C14.087,18.2105 14.02,17.9565 14.004,17.4185 C13.98,16.6245 13.34,16.0025 12.506,16.0025 C11.689,16.0025 11.013,16.6675 11,17.4855 C10.978,18.8975 10.59,19.0025 10,19.0025 C9.406,19.0025 9.016,18.8945 9,17.4435 C8.991,16.6485 8.336,16.0025 7.5,16.0025 C6.71,16.0025 6.057,16.5965 5.983,17.3865 C5.884,18.4435 5.372,19.0025 4.5,19.0025 C3.673,19.0025 3,18.3295 3,17.5025 L3,11.0025 C3,7.1425 6.14,4.0025 10,4.0025 C13.86,4.0025 17,7.1425 17,11.0025 L17,17.5025 Z M19.414,3.4165 C20.195,2.6355 20.195,1.3695 19.414,0.5885 C18.633,-0.1925 17.367,-0.1925 16.586,0.5885 C16.064,1.1105 15.898,1.8485 16.075,2.5135 L15.039,3.5495 C13.6,2.5735 11.866,2.0025 10,2.0025 C8.134,2.0025 6.4,2.5735 4.961,3.5495 L3.925,2.5135 C4.101,1.8485 3.936,1.1105 3.414,0.5885 C2.633,-0.1925 1.367,-0.1925 0.586,0.5885 C-0.195,1.3695 -0.195,2.6355 0.586,3.4165 C1.108,3.9385 1.845,4.1025 2.511,3.9275 L3.442,4.8585 C1.933,6.4695 1,8.6265 1,11.0025 L1,17.5025 C1,19.4325 2.57,21.0025 4.5,21.0025 C5.751,21.0025 6.767,20.4285 7.375,19.4505 C7.937,20.6905 9.037,21.0025 10,21.0025 C10.954,21.0025 12.043,20.6975 12.61,19.4895 C12.726,19.6515 12.862,19.8135 13.025,19.9775 C13.686,20.6385 14.565,21.0025 15.5,21.0025 C17.43,21.0025 19,19.4325 19,17.5025 L19,11.0025 C19,8.6265 18.067,6.4695 16.558,4.8585 L17.489,3.9275 C18.155,4.1025 18.892,3.9385 19.414,3.4165 L19.414,3.4165 Z" id="Fill-761"></path>
                <path d="M10,12.0025 C8.897,12.0025 8,11.1055 8,10.0025 C8,8.8995 8.897,8.0025 10,8.0025 C11.103,8.0025 12,8.8995 12,10.0025 C12,11.1055 11.103,12.0025 10,12.0025 M10,6.0025 C7.794,6.0025 6,7.7965 6,10.0025 C6,12.2085 7.794,14.0025 10,14.0025 C12.206,14.0025 14,12.2085 14,10.0025 C14,7.7965 12.206,6.0025 10,6.0025" id="Fill-762"></path>
            </g>
        </g>
    </g>
</svg>