<?xml version="1.0" encoding="UTF-8"?>
<svg width="18px" height="24px" viewBox="0 0 18 24" version="1.1" xmlns="http://www.w3.org/2000/svg" xmlns:xlink="http://www.w3.org/1999/xlink">
    <!-- Generator: Sketch 42 (36781) - http://www.bohemiancoding.com/sketch -->
    <title>Fill 199 + Fill 200</title>
    <desc>Created with Sketch.</desc>
    <defs></defs>
    <g id="Page-1" stroke="none" stroke-width="1" fill="none" fill-rule="evenodd">
        <g id="Line-Icons" transform="translate(-99.000000, -431.000000)" fill="#757575">
            <g id="Fill-199-+-Fill-200" transform="translate(99.000000, 431.000000)">
                <path d="M2,17 L16,17 L16,19 L2,19 L2,17 Z M16,8 L14,8 L14,10 L16,10 L16,15 L2,15 L2,10 L4,10 L4,8 L2,8 C0.897,8 0,8.897 0,10 L0,19 C0,20.103 0.897,21 2,21 L8,21 L8,22 L5,22 L5,24 L13,24 L13,22 L10,22 L10,21 L16,21 C17.103,21 18,20.103 18,19 L18,10 C18,8.897 17.103,8 16,8 L16,8 Z" id="Fill-199"></path>
                <polygon id="Fill-200" points="8 4.4146 8 13.0006 10 13.0006 10 4.4146 12.293 6.7066 13.707 5.2936 9 0.5866 4.293 5.2936 5.707 6.7066"></polygon>
            </g>
        </g>
    </g>
</svg>