<?xml version="1.0" encoding="UTF-8"?>
<svg width="21px" height="18px" viewBox="0 0 21 18" version="1.1" xmlns="http://www.w3.org/2000/svg" xmlns:xlink="http://www.w3.org/1999/xlink">
    <!-- Generator: Sketch 42 (36781) - http://www.bohemiancoding.com/sketch -->
    <title>Fill 402</title>
    <desc>Created with Sketch.</desc>
    <defs></defs>
    <g id="Page-1" stroke="none" stroke-width="1" fill="none" fill-rule="evenodd">
        <g id="Line-Icons" transform="translate(-98.000000, -385.000000)" fill="#757575">
            <g id="Fill-402" transform="translate(98.000000, 385.000000)">
                <path d="M17.1655,16.0005 L10.1925,16.0005 L6.0005,14.3235 L6.0005,9.0005 L7.0005,9.0005 C7.3995,9.0005 7.7615,8.7625 7.9185,8.3945 L10.6595,2.0005 L12.0005,2.0005 L12.0005,6.0005 C12.0005,6.5525 12.4475,7.0005 13.0005,7.0005 L18.8015,7.0005 L17.1655,16.0005 Z M4.0005,16.0005 L2.0005,16.0005 L2.0005,8.0005 L4.0005,8.0005 L4.0005,16.0005 Z M20.7675,5.3595 C20.5775,5.1325 20.2965,5.0005 20.0005,5.0005 L14.0005,5.0005 L14.0005,1.0005 C14.0005,0.4485 13.5525,0.0005 13.0005,0.0005 L10.0005,0.0005 C9.6005,0.0005 9.2385,0.2385 9.0815,0.6065 L6.3405,7.0005 L6.0005,7.0005 C6.0005,6.4485 5.5525,6.0005 5.0005,6.0005 L1.0005,6.0005 C0.4475,6.0005 0.0005,6.4485 0.0005,7.0005 L0.0005,17.0005 C0.0005,17.5525 0.4475,18.0005 1.0005,18.0005 L5.0005,18.0005 C5.5525,18.0005 6.0005,17.5525 6.0005,17.0005 L6.0005,16.4785 L9.6285,17.9295 C9.7465,17.9765 9.8725,18.0005 10.0005,18.0005 L18.0005,18.0005 C18.4835,18.0005 18.8975,17.6545 18.9835,17.1795 L20.9835,6.1795 C21.0375,5.8875 20.9575,5.5875 20.7675,5.3595 L20.7675,5.3595 Z"></path>
            </g>
        </g>
    </g>
</svg>