<?xml version="1.0" encoding="UTF-8"?>
<svg width="20px" height="15px" viewBox="0 0 20 15" version="1.1" xmlns="http://www.w3.org/2000/svg" xmlns:xlink="http://www.w3.org/1999/xlink">
    <!-- Generator: Sketch 42 (36781) - http://www.bohemiancoding.com/sketch -->
    <title>Fill 66 + Fill 67</title>
    <desc>Created with Sketch.</desc>
    <defs></defs>
    <g id="Page-1" stroke="none" stroke-width="1" fill="none" fill-rule="evenodd">
        <g id="Line-Icons" transform="translate(-50.000000, -1492.000000)" fill="#767676">
            <g id="Fill-66-+-Fill-67" transform="translate(49.000000, 1492.000000)">
                <path d="M18.999,9.0493 C17.665,9.1823 16.558,9.5783 15.639,10.0783 C15.852,9.3293 15.999,8.6013 15.999,8.0003 C15.999,6.7193 15.683,5.7383 15.275,5.0003 L18.999,5.0003 L18.999,9.0493 Z M2.999,9.0493 L2.999,5.0003 L6.723,5.0003 C6.315,5.7383 5.999,6.7193 5.999,8.0003 C5.999,8.6013 6.146,9.3293 6.359,10.0783 C5.44,9.5783 4.334,9.1823 2.999,9.0493 L2.999,9.0493 Z M13.999,8.0003 C13.999,9.2433 12.987,11.6733 12.369,13.0003 L9.628,13.0003 C8.91,11.4653 7.999,9.1393 7.999,8.0003 C7.999,6.1233 8.923,5.2683 9.291,5.0003 L12.705,5.0003 C13.083,5.2773 13.999,6.1323 13.999,8.0003 L13.999,8.0003 Z M19.999,3.0003 L1.999,3.0003 C1.447,3.0003 0.999,3.4483 0.999,4.0003 L0.999,10.0003 C0.999,10.5523 1.447,11.0003 1.999,11.0003 C6.289,11.0003 8.035,14.3113 8.104,14.4473 C8.274,14.7863 8.62,15.0003 8.999,15.0003 L12.999,15.0003 C13.378,15.0003 13.724,14.7863 13.894,14.4473 C13.911,14.4133 15.667,11.0003 19.999,11.0003 C20.551,11.0003 20.999,10.5523 20.999,10.0003 L20.999,4.0003 C20.999,3.4483 20.551,3.0003 19.999,3.0003 L19.999,3.0003 Z" id="Fill-66"></path>
                <polygon id="Fill-67" points="0.999 2.001 20.999 2.001 20.999 0.001 0.999 0.001"></polygon>
            </g>
        </g>
    </g>
</svg>