<?xml version="1.0" encoding="UTF-8"?>
<svg width="22px" height="20px" viewBox="0 0 22 20" version="1.1" xmlns="http://www.w3.org/2000/svg" xmlns:xlink="http://www.w3.org/1999/xlink">
    <!-- Generator: Sketch 42 (36781) - http://www.bohemiancoding.com/sketch -->
    <title>Fill 648 + Fill 649</title>
    <desc>Created with Sketch.</desc>
    <defs></defs>
    <g id="Page-1" stroke="none" stroke-width="1" fill="none" fill-rule="evenodd">
        <g id="Line-Icons" transform="translate(-289.000000, -1057.000000)" fill="#767676">
            <g id="Fill-648-+-Fill-649" transform="translate(289.000000, 1057.000000)">
                <path d="M14,16.9182 L14,14.0002 L16.918,14.0002 C16.216,15.2092 15.208,16.2162 14,16.9182 M8,17.7372 L8,14.0002 L12,14.0002 L12,17.7372 C11.359,17.9032 10.691,18.0002 10,18.0002 C9.308,18.0002 8.641,17.9032 8,17.7372 M3.082,14.0002 L6,14.0002 L6,16.9182 C4.791,16.2162 3.784,15.2092 3.082,14.0002 M2.263,8.0002 L6,8.0002 L6,12.0002 L2.263,12.0002 C2.097,11.3602 2,10.6922 2,10.0002 C2,9.3092 2.097,8.6412 2.263,8.0002 M6,3.0832 L6,6.0002 L3.082,6.0002 C3.784,4.7912 4.791,3.7852 6,3.0832 M17.736,12.0002 L14,12.0002 L14,10.0002 L12,10.0002 L12,12.0002 L8,12.0002 L8,8.0002 L10,8.0002 L10,6.0002 L8,6.0002 L8,2.2632 C8.641,2.0982 9.308,2.0002 10,2.0002 L10,0.0002 C4.485,0.0002 0,4.4862 0,10.0002 C0,15.5152 4.485,20.0002 10,20.0002 C15.514,20.0002 20,15.5152 20,10.0002 L18,10.0002 C18,10.6922 17.902,11.3602 17.736,12.0002" id="Fill-648"></path>
                <path d="M21.9121,1.5205 C21.6891,1.0295 21.1171,0.7965 20.6151,0.9985 L17.8091,2.2475 L14.4881,0.1445 L12.8811,0.9765 L16.0001,3.0005 L16.1161,3.0005 L13.6851,4.0825 L11.5841,3.1445 L10.0001,4.0565 L14.0001,6.0605 L16.1991,5.0475 L14.6761,9.0005 L16.4731,8.0665 L18.6641,4.0625 L21.3961,2.8615 C21.9111,2.6365 22.1411,2.0345 21.9121,1.5205" id="Fill-649"></path>
            </g>
        </g>
    </g>
</svg>