<?xml version="1.0" encoding="UTF-8"?>
<svg width="16px" height="20px" viewBox="0 0 16 20" version="1.1" xmlns="http://www.w3.org/2000/svg" xmlns:xlink="http://www.w3.org/1999/xlink">
    <!-- Generator: Sketch 42 (36781) - http://www.bohemiancoding.com/sketch -->
    <title>Fill 40</title>
    <desc>Created with Sketch.</desc>
    <defs></defs>
    <g id="Page-1" stroke="none" stroke-width="1" fill="none" fill-rule="evenodd">
        <g id="Line-Icons" transform="translate(-388.000000, -1537.000000)" fill="#757575">
            <g id="Fill-40" transform="translate(388.000000, 1537.000000)">
                <path d="M14.001,18.0005 L2,18.0005 L2,2.0005 L4,2.0005 L4,11.0005 L6,9.0005 L8,11.0005 L8,2.0005 L10,2.0005 L10,6.0005 L14,6.0005 L14.001,18.0005 Z M11.414,0.0005 L2,0.0005 C0.897,0.0005 5.68434189e-14,0.8985 5.68434189e-14,2.0005 L5.68434189e-14,18.0005 C5.68434189e-14,19.1025 0.897,20.0005 2,20.0005 L14,20.0005 C15.103,20.0005 16,19.1025 16,18.0005 L16,4.5865 L11.414,0.0005 Z"></path>
            </g>
        </g>
    </g>
</svg>