<?xml version="1.0" encoding="UTF-8"?>
<svg width="20px" height="17px" viewBox="0 0 20 17" version="1.1" xmlns="http://www.w3.org/2000/svg" xmlns:xlink="http://www.w3.org/1999/xlink">
    <!-- Generator: Sketch 42 (36781) - http://www.bohemiancoding.com/sketch -->
    <title>Fill 23</title>
    <desc>Created with Sketch.</desc>
    <defs></defs>
    <g id="Page-1" stroke="none" stroke-width="1" fill="none" fill-rule="evenodd">
        <g id="Line-Icons" transform="translate(-434.000000, -1443.000000)" fill="#767676">
            <g id="Fill-23" transform="translate(433.000000, 1443.000000)">
                <path d="M10.999,15.0005 C6.116,15.0005 2.999,13.2245 2.999,12.0005 C2.999,11.5665 3.362,11.0935 3.999,10.6565 L3.999,11.0005 C3.999,11.4315 4.274,11.8125 4.683,11.9495 C4.812,11.9925 7.873,13.0005 10.999,13.0005 C14.125,13.0005 17.186,11.9925 17.315,11.9495 C17.724,11.8125 17.999,11.4315 17.999,11.0005 L17.999,10.6585 C18.635,11.0955 18.999,11.5675 18.999,12.0005 C18.999,13.2245 15.882,15.0005 10.999,15.0005 L10.999,15.0005 Z M9.999,8.5135 L7.407,4.3655 C8.051,3.6715 8.913,3.2395 9.999,3.0815 L9.999,8.5135 Z M14.591,4.3655 L11.999,8.5135 L11.999,3.0815 C13.085,3.2395 13.947,3.6715 14.591,4.3655 L14.591,4.3655 Z M5.999,9.0005 C5.999,8.0075 6.104,7.1375 6.313,6.3895 L9.115,10.8735 C7.836,10.7155 6.689,10.4415 5.999,10.2525 L5.999,9.0005 Z M15.999,9.0005 L15.999,10.2525 C15.309,10.4415 14.162,10.7155 12.883,10.8735 L15.685,6.3895 C15.894,7.1375 15.999,8.0075 15.999,9.0005 L15.999,9.0005 Z M17.978,8.3615 C17.787,4.0585 15.647,1.4545 11.999,1.0595 L11.999,0.0005 L9.999,0.0005 L9.999,1.0595 C6.352,1.4545 4.211,4.0575 4.02,8.3605 C2.07,9.2805 0.999,10.5545 0.999,12.0005 C0.999,14.8515 5.298,17.0005 10.999,17.0005 C16.7,17.0005 20.999,14.8515 20.999,12.0005 C20.999,10.5565 19.926,9.2825 17.978,8.3615 L17.978,8.3615 Z"></path>
            </g>
        </g>
    </g>
</svg>