<?xml version="1.0" encoding="UTF-8"?>
<svg width="20px" height="18px" viewBox="0 0 20 18" version="1.1" xmlns="http://www.w3.org/2000/svg" xmlns:xlink="http://www.w3.org/1999/xlink">
    <!-- Generator: Sketch 42 (36781) - http://www.bohemiancoding.com/sketch -->
    <title>Fill 573 + Fill 574</title>
    <desc>Created with Sketch.</desc>
    <defs></defs>
    <g id="Page-1" stroke="none" stroke-width="1" fill="none" fill-rule="evenodd">
        <g id="Line-Icons" transform="translate(-386.000000, -866.000000)" fill="#757575">
            <g id="Fill-573-+-Fill-574" transform="translate(386.000000, 866.000000)">
                <path d="M2.062,16.001 C2.556,12.06 5.928,9.001 10,9.001 C14.072,9.001 17.444,12.06 17.938,16.001 L2.062,16.001 Z M10,7.001 C4.486,7.001 0,11.487 0,17.001 C0,17.553 0.448,18.001 1,18.001 L19,18.001 C19.552,18.001 20,17.553 20,17.001 C20,11.487 15.514,7.001 10,7.001 L10,7.001 Z" id="Fill-573"></path>
                <path d="M8,2.001 C8.551,2.001 9,2.45 9,3.001 C9,3.553 8.551,4.001 8,4.001 C7.449,4.001 7,3.553 7,3.001 C7,2.45 7.449,2.001 8,2.001 M12,2.001 C12.551,2.001 13,2.45 13,3.001 C13,3.553 12.551,4.001 12,4.001 C11.449,4.001 11,3.553 11,3.001 C11,2.45 11.449,2.001 12,2.001 M10,6.001 C13.109,6.001 16.091,7.338 18.182,9.669 L19.671,8.334 C18.218,6.713 16.394,5.514 14.395,4.79 C14.77,4.289 15,3.673 15,3.001 C15,1.347 13.654,0.001 12,0.001 C11.229,0.001 10.532,0.301 10,0.781 C9.468,0.301 8.771,0.001 8,0.001 C6.346,0.001 5,1.347 5,3.001 C5,3.673 5.23,4.289 5.605,4.79 C3.606,5.514 1.782,6.713 0.329,8.334 L1.818,9.669 C3.909,7.338 6.891,6.001 10,6.001" id="Fill-574"></path>
            </g>
        </g>
    </g>
</svg>