<?xml version="1.0" encoding="UTF-8"?>
<svg width="20px" height="13px" viewBox="0 0 20 13" version="1.1" xmlns="http://www.w3.org/2000/svg" xmlns:xlink="http://www.w3.org/1999/xlink">
    <!-- Generator: Sketch 42 (36781) - http://www.bohemiancoding.com/sketch -->
    <title>Fill 398</title>
    <desc>Created with Sketch.</desc>
    <defs></defs>
    <g id="Page-1" stroke="none" stroke-width="1" fill="none" fill-rule="evenodd">
        <g id="Line-Icons" transform="translate(-2.000000, -389.000000)" fill="#757575">
            <g id="Fill-398" transform="translate(2.000000, 389.000000)">
                <path d="M18,11 L14,11 L14,7 L18,7 L18,11 Z M8,2 L12,2 L12,11 L8,11 L8,2 Z M2,6 L6,6 L6,11 L2,11 L2,6 Z M19,5 L14,5 L14,1 C14,0.449 13.552,0 13,0 L7,0 C6.448,0 6,0.449 6,1 L6,4 L1,4 C0.448,4 0,4.449 0,5 L0,12 C0,12.553 0.448,13 1,13 L7,13 L13,13 L19,13 C19.552,13 20,12.553 20,12 L20,6 C20,5.449 19.552,5 19,5 L19,5 Z"></path>
            </g>
        </g>
    </g>
</svg>