<?xml version="1.0" encoding="UTF-8"?>
<svg width="17px" height="24px" viewBox="0 0 17 24" version="1.1" xmlns="http://www.w3.org/2000/svg" xmlns:xlink="http://www.w3.org/1999/xlink">
    <!-- Generator: Sketch 42 (36781) - http://www.bohemiancoding.com/sketch -->
    <title>Fill 791 + Fill 792</title>
    <desc>Created with Sketch.</desc>
    <defs></defs>
    <g id="Page-1" stroke="none" stroke-width="1" fill="none" fill-rule="evenodd">
        <g id="Line-Icons" transform="translate(-100.000000, -1343.000000)" fill="#767676">
            <g id="Fill-791-+-Fill-792" transform="translate(100.000000, 1343.000000)">
                <path d="M2.9937,13.604 C2.5407,13.082 2.0007,12.207 2.0007,11.001 C2.0007,8.989 3.5727,6.149 5.0007,4.029 L5.0007,9.001 C5.0007,9.405 5.2447,9.769 5.6177,9.925 C5.9927,10.079 6.4217,9.994 6.7077,9.708 L8.8017,7.614 C9.3627,8.636 10.0007,10.038 10.0007,11.001 C10.0007,12.273 9.4027,13.443 8.3597,14.211 C6.7037,15.43 4.3297,15.145 2.9937,13.604 L2.9937,13.604 Z M16.7077,22.294 L9.9227,15.509 C11.2447,14.366 12.0007,12.752 12.0007,11.001 C12.0007,8.763 10.0547,5.779 9.8327,5.446 C9.6667,5.197 9.3977,5.036 9.0997,5.006 C8.7987,4.978 8.5057,5.082 8.2937,5.294 L7.0007,6.587 L7.0007,1.001 C7.0007,0.58 6.7377,0.204 6.3417,0.061 C5.9467,-0.082 5.5027,0.038 5.2327,0.361 C5.0187,0.618 0.0007,6.688 0.0007,11.001 C0.0007,12.424 0.5277,13.814 1.4827,14.915 L1.4837,14.915 C2.6327,16.241 4.2787,17.001 6.0007,17.001 C6.7467,17.001 7.4707,16.844 8.1587,16.574 L15.2937,23.708 L16.7077,22.294 Z" id="Fill-791"></path>
                <path d="M6.001,11.001 C4.944,11.001 3.967,11.334 3.158,11.896 C3.308,12.344 3.536,12.702 3.749,12.95 C3.933,13.162 4.152,13.33 4.386,13.48 C4.853,13.18 5.405,13.001 6.001,13.001 C6.603,13.001 7.163,13.183 7.633,13.49 C8.242,13.098 8.635,12.547 8.844,11.896 C8.036,11.334 7.058,11.001 6.001,11.001" id="Fill-792"></path>
            </g>
        </g>
    </g>
</svg>