<?xml version="1.0" encoding="UTF-8"?>
<svg width="20px" height="20px" viewBox="0 0 20 20" version="1.1" xmlns="http://www.w3.org/2000/svg" xmlns:xlink="http://www.w3.org/1999/xlink">
    <!-- Generator: Sketch 42 (36781) - http://www.bohemiancoding.com/sketch -->
    <title>Fill 78 + Fill 79</title>
    <desc>Created with Sketch.</desc>
    <defs></defs>
    <g id="Page-1" stroke="none" stroke-width="1" fill="none" fill-rule="evenodd">
        <g id="Line-Icons" transform="translate(-194.000000, -1297.000000)" fill="#767676">
            <g id="Fill-78-+-Fill-79" transform="translate(194.000000, 1297.000000)">
                <path d="M11.001,10.0025 L2.001,10.0025 L2.001,2.0025 L6.001,2.0025 C8.758,2.0025 11.001,4.2455 11.001,7.0025 L11.001,10.0025 Z M17.001,9.0025 L13.001,9.0025 L13.001,7.0025 C13.001,3.1425 9.861,0.0025 6.001,0.0025 L2.001,0.0025 C0.898,0.0025 0.001,0.8995 0.001,2.0025 L0.001,11.0025 C0.001,11.5545 0.449,12.0025 1.001,12.0025 L12.001,12.0025 C12.553,12.0025 13.001,11.5545 13.001,11.0025 L17.001,11.0025 C17.552,11.0025 18.001,11.4505 18.001,12.0025 C18.001,12.5545 17.552,13.0025 17.001,13.0025 L4.001,13.0025 C2.347,13.0025 1.001,14.3485 1.001,16.0025 C1.001,17.6565 2.347,19.0025 4.001,19.0025 L13.001,19.0025 L13.001,20.0025 L15.001,20.0025 L15.001,18.0025 C15.001,17.4505 14.553,17.0025 14.001,17.0025 L4.001,17.0025 C3.45,17.0025 3.001,16.5545 3.001,16.0025 C3.001,15.4505 3.45,15.0025 4.001,15.0025 L17.001,15.0025 C18.655,15.0025 20.001,13.6565 20.001,12.0025 C20.001,10.3485 18.655,9.0025 17.001,9.0025 L17.001,9.0025 Z" id="Fill-78"></path>
                <polygon id="Fill-79" points="3.001 9.003 9.001 9.003 9.001 7.003 3.001 7.003"></polygon>
            </g>
        </g>
    </g>
</svg>