<?xml version="1.0" encoding="UTF-8"?>
<svg width="18px" height="18px" viewBox="0 0 18 18" version="1.1" xmlns="http://www.w3.org/2000/svg" xmlns:xlink="http://www.w3.org/1999/xlink">
    <!-- Generator: Sketch 42 (36781) - http://www.bohemiancoding.com/sketch -->
    <title>Fill 390 + Fill 391 + Fill 392</title>
    <desc>Created with Sketch.</desc>
    <defs></defs>
    <g id="Page-1" stroke="none" stroke-width="1" fill="none" fill-rule="evenodd">
        <g id="Line-Icons" transform="translate(-243.000000, -338.000000)" fill="#757575">
            <g id="Fill-390-+-Fill-391-+-Fill-392" transform="translate(243.000000, 338.000000)">
                <path d="M2,6 L16,6 L16,16 L2,16 L2,6 Z M3,2 L5,2 L5,4 L2,4 L2,3 C2,2.449 2.449,2 3,2 L3,2 Z M7,2 L11,2 L11,4 L7,4 L7,2 Z M16,3 L16,4 L13,4 L13,2 L15,2 C15.551,2 16,2.449 16,3 L16,3 Z M15,0 L3,0 C1.346,0 0,1.346 0,3 L0,16 C0,17.103 0.897,18 2,18 L16,18 C17.103,18 18,17.103 18,16 L18,3 C18,1.346 16.654,0 15,0 L15,0 Z" id="Fill-390"></path>
                <path d="M13.5259,7.1504 C13.2309,6.9674 12.8619,6.9514 12.5529,7.1064 L9.6579,8.5534 L10.5529,10.3424 L11.9999,9.6194 L11.9999,15.0004 L13.9999,15.0004 L13.9999,8.0004 C13.9999,7.6534 13.8199,7.3324 13.5259,7.1504" id="Fill-391"></path>
                <polygon id="Fill-392" points="7 8.0005 5 8.0005 5 10.0005 3 10.0005 3 12.0005 5 12.0005 5 14.0005 7 14.0005 7 12.0005 9 12.0005 9 10.0005 7 10.0005"></polygon>
            </g>
        </g>
    </g>
</svg>