<?xml version="1.0" encoding="UTF-8"?>
<svg width="18px" height="21px" viewBox="0 0 18 21" version="1.1" xmlns="http://www.w3.org/2000/svg" xmlns:xlink="http://www.w3.org/1999/xlink">
    <!-- Generator: Sketch 42 (36781) - http://www.bohemiancoding.com/sketch -->
    <title>Fill 634 + Fill 635</title>
    <desc>Created with Sketch.</desc>
    <defs></defs>
    <g id="Page-1" stroke="none" stroke-width="1" fill="none" fill-rule="evenodd">
        <g id="Line-Icons" transform="translate(-435.000000, -1009.000000)" fill="#767676">
            <g id="Fill-634-+-Fill-635" transform="translate(435.000000, 1009.000000)">
                <path d="M3.6714,19.0029 L14.3314,19.0029 C13.0894,17.8249 11.7284,16.3239 11.2144,15.0029 L6.7884,15.0029 C6.2744,16.3239 4.9134,17.8249 3.6714,19.0029 M17.0014,21.0029 L1.0014,21.0029 C0.5764,21.0029 0.1984,20.7349 0.0584,20.3339 C-0.0826,19.9329 0.0454,19.4879 0.3764,19.2219 C2.6104,17.4339 5.0014,14.9099 5.0014,14.0029 C5.0014,13.4509 5.4494,13.0029 6.0014,13.0029 L12.0014,13.0029 C12.5534,13.0029 13.0014,13.4509 13.0014,14.0029 C13.0014,14.9119 15.3924,17.4359 17.6264,19.2219 C17.9584,19.4879 18.0854,19.9329 17.9454,20.3339 C17.8044,20.7349 17.4264,21.0029 17.0014,21.0029" id="Fill-634"></path>
                <path d="M12.0015,12.0029 L10.0015,12.0029 L10.0015,8.0029 C10.0015,7.4509 10.4495,7.0029 11.0015,7.0029 L15.0015,7.0029 C15.5525,7.0029 16.0015,6.5549 16.0015,6.0029 C16.0015,5.4509 15.5525,5.0029 15.0015,5.0029 L12.4505,5.0029 C11.9535,5.0029 11.5315,4.6379 11.4605,4.1459 C11.2845,2.9249 10.2275,2.0029 9.0015,2.0029 C7.7755,2.0029 6.7185,2.9249 6.5415,4.1459 C6.4715,4.6379 6.0495,5.0029 5.5525,5.0029 L3.0015,5.0029 C2.4505,5.0029 2.0015,5.4509 2.0015,6.0029 C2.0015,6.5549 2.4505,7.0029 3.0015,7.0029 L7.0015,7.0029 C7.5535,7.0029 8.0015,7.4509 8.0015,8.0029 L8.0015,12.0029 L6.0015,12.0029 L6.0015,9.0029 L3.0015,9.0029 C1.3475,9.0029 0.0015,7.6579 0.0015,6.0029 C0.0015,4.3489 1.3475,3.0029 3.0015,3.0029 L4.7745,3.0029 C5.3995,1.2439 7.0865,0.0029 9.0015,0.0029 C10.9165,0.0029 12.6035,1.2439 13.2285,3.0029 L15.0015,3.0029 C16.6555,3.0029 18.0015,4.3489 18.0015,6.0029 C18.0015,7.6579 16.6555,9.0029 15.0015,9.0029 L12.0015,9.0029 L12.0015,12.0029 Z" id="Fill-635"></path>
            </g>
        </g>
    </g>
</svg>