<?xml version="1.0" encoding="UTF-8"?>
<svg width="22px" height="20px" viewBox="0 0 22 20" version="1.1" xmlns="http://www.w3.org/2000/svg" xmlns:xlink="http://www.w3.org/1999/xlink">
    <!-- Generator: Sketch 42 (36781) - http://www.bohemiancoding.com/sketch -->
    <title>Fill 297 + Fill 298 + Fill 299</title>
    <desc>Created with Sketch.</desc>
    <defs></defs>
    <g id="Page-1" stroke="none" stroke-width="1" fill="none" fill-rule="evenodd">
        <g id="Line-Icons" transform="translate(-192.000000, -147.000000)" fill="#757575">
            <g id="Fill-297-+-Fill-298-+-Fill-299" transform="translate(192.000000, 147.000000)">
                <path d="M8,6.0005 C6.897,6.0005 6,6.8965 6,8.0005 C6,9.1035 6.897,10.0005 8,10.0005 C9.103,10.0005 10,9.1035 10,8.0005 C10,6.8965 9.103,6.0005 8,6.0005 M8,12.0005 C5.794,12.0005 4,10.2065 4,8.0005 C4,5.7945 5.794,4.0005 8,4.0005 C10.206,4.0005 12,5.7945 12,8.0005 C12,10.2065 10.206,12.0005 8,12.0005" id="Fill-297"></path>
                <path d="M2.1587,18.0005 L13.8417,18.0005 C13.2427,16.1925 11.0077,15.0005 7.9997,15.0005 C4.9917,15.0005 2.7567,16.1925 2.1587,18.0005 L2.1587,18.0005 Z M15.9997,20.0005 L-0.0003,20.0005 L-0.0003,19.0005 C-0.0003,15.4675 3.2897,13.0005 7.9997,13.0005 C12.7107,13.0005 15.9997,15.4675 15.9997,19.0005 L15.9997,20.0005 Z" id="Fill-298"></path>
                <polygon id="Fill-299" points="22 3.0005 19 3.0005 19 0.0005 17 0.0005 17 3.0005 14 3.0005 14 5.0005 17 5.0005 17 8.0005 19 8.0005 19 5.0005 22 5.0005"></polygon>
            </g>
        </g>
    </g>
</svg>