<?xml version="1.0" encoding="UTF-8"?>
<svg width="16px" height="20px" viewBox="0 0 16 20" version="1.1" xmlns="http://www.w3.org/2000/svg" xmlns:xlink="http://www.w3.org/1999/xlink">
    <!-- Generator: Sketch 42 (36781) - http://www.bohemiancoding.com/sketch -->
    <title>Fill 381 + Fill 382</title>
    <desc>Created with Sketch.</desc>
    <defs></defs>
    <g id="Page-1" stroke="none" stroke-width="1" fill="none" fill-rule="evenodd">
        <g id="Line-Icons" transform="translate(-436.000000, -289.000000)" fill="#757575">
            <g id="Fill-381-+-Fill-382" transform="translate(436.000000, 289.000000)">
                <path d="M8.6182,18.0005 L14.0002,18.0005 L14.0002,13.7815 L10.7572,12.9715 C10.3122,12.8595 10.0002,12.4595 10.0002,12.0005 L10.0002,7.7215 L9.0002,7.3885 L9.0002,13.0005 C9.0002,13.5525 8.5522,14.0005 8.0002,14.0005 L6.6182,14.0005 L8.6182,18.0005 Z M15.0002,20.0005 L8.0002,20.0005 C7.6212,20.0005 7.2752,19.7865 7.1052,19.4475 L4.1052,13.4475 C3.9512,13.1375 3.9672,12.7695 4.1492,12.4755 C4.3312,12.1805 4.6532,12.0005 5.0002,12.0005 L7.0002,12.0005 L7.0002,6.0005 C7.0002,5.6795 7.1542,5.3775 7.4152,5.1885 C7.6762,5.0005 8.0112,4.9505 8.3162,5.0515 L11.3162,6.0515 C11.7242,6.1875 12.0002,6.5695 12.0002,7.0005 L12.0002,11.2195 L15.2432,12.0305 C15.6872,12.1415 16.0002,12.5415 16.0002,13.0005 L16.0002,19.0005 C16.0002,19.5525 15.5522,20.0005 15.0002,20.0005 L15.0002,20.0005 Z" id="Fill-381"></path>
                <path d="M14,0.0005 L2,0.0005 C0.897,0.0005 0,0.8985 0,2.0005 L0,9.0005 C0,10.1035 0.897,11.0005 2,11.0005 L5,11.0005 L5,9.0005 L2,9.0005 L2,2.0005 L14,2.0005 L14,9.0005 L16,9.0005 L16,2.0005 C16,0.8985 15.103,0.0005 14,0.0005" id="Fill-382"></path>
            </g>
        </g>
    </g>
</svg>