<?xml version="1.0" encoding="UTF-8"?>
<svg width="20px" height="21px" viewBox="0 0 20 21" version="1.1" xmlns="http://www.w3.org/2000/svg" xmlns:xlink="http://www.w3.org/1999/xlink">
    <!-- Generator: Sketch 42 (36781) - http://www.bohemiancoding.com/sketch -->
    <title>Fill 250 + Fill 251</title>
    <desc>Created with Sketch.</desc>
    <defs></defs>
    <g id="Page-1" stroke="none" stroke-width="1" fill="none" fill-rule="evenodd">
        <g id="Line-Icons" transform="translate(-50.000000, -96.000000)" fill="#757575">
            <g id="Fill-250-+-Fill-251" transform="translate(50.000000, 96.000000)">
                <polygon id="Fill-250" points="14.707 7.707 13.293 6.293 11 8.586 11 -2.27373675e-13 9 -2.27373675e-13 9 8.586 6.707 6.293 5.293 7.707 10 12.415"></polygon>
                <path d="M18,19.0005 L2,19.0005 L2,15.0005 L5.586,15.0005 L7.586,17.0005 L12.414,17.0005 L14.414,15.0005 L18,15.0005 L18,19.0005 Z M13.586,13.0005 L11.586,15.0005 L8.414,15.0005 L6.414,13.0005 L0,13.0005 L0,21.0005 L20,21.0005 L20,13.0005 L13.586,13.0005 Z" id="Fill-251"></path>
            </g>
        </g>
    </g>
</svg>