<?xml version="1.0" encoding="UTF-8"?>
<svg width="14px" height="20px" viewBox="0 0 14 20" version="1.1" xmlns="http://www.w3.org/2000/svg" xmlns:xlink="http://www.w3.org/1999/xlink">
    <!-- Generator: Sketch 42 (36781) - http://www.bohemiancoding.com/sketch -->
    <title>Fill 394 + Fill 395</title>
    <desc>Created with Sketch.</desc>
    <defs></defs>
    <g id="Page-1" stroke="none" stroke-width="1" fill="none" fill-rule="evenodd">
        <g id="Line-Icons" transform="translate(-341.000000, -337.000000)" fill="#757575">
            <g id="Fill-394-+-Fill-395" transform="translate(341.000000, 337.000000)">
                <path d="M13.7803,0.375 C13.5903,0.138 13.3033,0 13.0003,0 L1.0003,0 C0.6973,0 0.4093,0.138 0.2193,0.375 C0.0303,0.611 -0.0417,0.921 0.0243,1.217 L2.0243,10.217 L3.9763,9.784 L2.2463,2 L5.2003,2 L6.0003,6 L8.0003,6 L8.8003,2 L11.7533,2 L10.0243,9.784 L11.9763,10.217 L13.9763,1.217 C14.0423,0.921 13.9693,0.611 13.7803,0.375" id="Fill-394"></path>
                <path d="M7,16.0005 C7.153,16.0005 7.307,16.0355 7.447,16.1065 L9.502,17.1335 L9.03,15.2435 C8.961,14.9695 9.012,14.6805 9.168,14.4455 L10.131,13.0005 L9,13.0005 C8.621,13.0005 8.275,12.7865 8.105,12.4475 L7,10.2365 L5.895,12.4475 C5.725,12.7865 5.379,13.0005 5,13.0005 L3.869,13.0005 L4.832,14.4455 C4.988,14.6805 5.039,14.9695 4.97,15.2435 L4.498,17.1335 L6.553,16.1065 C6.693,16.0355 6.847,16.0005 7,16.0005 M11,20.0005 C10.848,20.0005 10.694,19.9655 10.553,19.8955 L7,18.1195 L3.447,19.8955 C3.098,20.0695 2.679,20.0245 2.375,19.7805 C2.07,19.5365 1.935,19.1365 2.03,18.7585 L2.922,15.1875 L1.168,12.5555 C0.963,12.2485 0.944,11.8545 1.118,11.5285 C1.293,11.2035 1.631,11.0005 2,11.0005 L4.382,11.0005 L6.105,7.5535 C6.444,6.8765 7.556,6.8765 7.895,7.5535 L9.618,11.0005 L12,11.0005 C12.369,11.0005 12.707,11.2035 12.882,11.5285 C13.056,11.8545 13.037,12.2485 12.832,12.5555 L11.078,15.1875 L11.97,18.7585 C12.065,19.1365 11.93,19.5365 11.625,19.7805 C11.445,19.9255 11.223,20.0005 11,20.0005" id="Fill-395"></path>
            </g>
        </g>
    </g>
</svg>