<?xml version="1.0" encoding="UTF-8"?>
<svg width="18px" height="18px" viewBox="0 0 18 18" version="1.1" xmlns="http://www.w3.org/2000/svg" xmlns:xlink="http://www.w3.org/1999/xlink">
    <!-- Generator: Sketch 42 (36781) - http://www.bohemiancoding.com/sketch -->
    <title>Fill 278 + Fill 279</title>
    <desc>Created with Sketch.</desc>
    <defs></defs>
    <g id="Page-1" stroke="none" stroke-width="1" fill="none" fill-rule="evenodd">
        <g id="Line-Icons" transform="translate(-195.000000, -50.000000)" fill="#757575">
            <g id="Fill-278-+-Fill-279" transform="translate(195.000000, 50.000000)">
                <path d="M2,2.0005 L2,16.0005 L16.001,16.0005 L16,2.0005 L2,2.0005 Z M16,18.0005 L2,18.0005 C0.897,18.0005 0,17.1035 0,16.0005 L0,2.0005 C0,0.8985 0.897,0.0005 2,0.0005 L16,0.0005 C17.103,0.0005 18,0.8985 18,2.0005 L18,16.0005 C18,17.1035 17.103,18.0005 16,18.0005 L16,18.0005 Z" id="Fill-278"></path>
                <path d="M9,11.0005 C7.897,11.0005 7,10.1035 7,9.0005 C7,7.8985 7.897,7.0005 9,7.0005 C10.103,7.0005 11,7.8985 11,9.0005 C11,10.1035 10.103,11.0005 9,11.0005 L9,11.0005 Z M15,10.0005 L15,8.0005 L12.858,8.0005 C12.764,7.6375 12.62,7.2965 12.433,6.9815 L13.95,5.4645 L12.536,4.0505 L11.019,5.5675 C10.704,5.3805 10.363,5.2365 10,5.1425 L10,3.0005 L8,3.0005 L8,5.1425 C7.637,5.2365 7.296,5.3805 6.981,5.5675 L5.464,4.0505 L4.05,5.4645 L5.567,6.9815 C5.38,7.2965 5.236,7.6375 5.142,8.0005 L3,8.0005 L3,10.0005 L5.142,10.0005 C5.236,10.3635 5.38,10.7045 5.567,11.0195 L4.05,12.5365 L5.464,13.9505 L6.981,12.4335 C7.296,12.6205 7.637,12.7645 8,12.8585 L8,15.0005 L10,15.0005 L10,12.8585 C10.363,12.7645 10.704,12.6205 11.019,12.4335 L12.536,13.9505 L13.95,12.5365 L12.433,11.0195 C12.62,10.7045 12.764,10.3635 12.858,10.0005 L15,10.0005 Z" id="Fill-279"></path>
            </g>
        </g>
    </g>
</svg>