<?xml version="1.0" encoding="UTF-8"?>
<svg width="19px" height="18px" viewBox="0 0 19 18" version="1.1" xmlns="http://www.w3.org/2000/svg" xmlns:xlink="http://www.w3.org/1999/xlink">
    <!-- Generator: Sketch 42 (36781) - http://www.bohemiancoding.com/sketch -->
    <title>Fill 485 + Fill 486</title>
    <desc>Created with Sketch.</desc>
    <defs></defs>
    <g id="Page-1" stroke="none" stroke-width="1" fill="none" fill-rule="evenodd">
        <g id="Line-Icons" transform="translate(-291.000000, -626.000000)" fill="#757575">
            <g id="Fill-485-+-Fill-486" transform="translate(291.000000, 626.000000)">
                <path d="M2,13.9556 L2,4.0456 L8.372,9.0006 L2,13.9556 Z M9.599,7.4226 L3.228,2.4666 C2.639,2.0086 1.788,1.9226 1.121,2.2496 C0.44,2.5826 0,3.2876 0,4.0456 L0,13.9556 C0,14.7136 0.44,15.4186 1.121,15.7526 C1.813,16.0906 2.627,16.0026 3.228,15.5356 L9.6,10.5786 C10.09,10.1966 10.371,9.6216 10.371,9.0006 C10.371,8.3796 10.09,7.8046 9.599,7.4226 L9.599,7.4226 Z" id="Fill-485"></path>
                <path d="M15,16.0005 L15,2.0005 L17,2.0005 L17.001,16.0005 L15,16.0005 Z M17,0.0005 L15,0.0005 C13.897,0.0005 13,0.8965 13,2.0005 L13,16.0005 C13,17.1035 13.897,18.0005 15,18.0005 L17,18.0005 C18.103,18.0005 19,17.1035 19,16.0005 L19,2.0005 C19,0.8965 18.103,0.0005 17,0.0005 L17,0.0005 Z" id="Fill-486"></path>
            </g>
        </g>
    </g>
</svg>