<?xml version="1.0" encoding="UTF-8"?>
<svg width="16px" height="18px" viewBox="0 0 16 18" version="1.1" xmlns="http://www.w3.org/2000/svg" xmlns:xlink="http://www.w3.org/1999/xlink">
    <!-- Generator: Sketch 42 (36781) - http://www.bohemiancoding.com/sketch -->
    <title>Fill 508 + Fill 509</title>
    <desc>Created with Sketch.</desc>
    <defs></defs>
    <g id="Page-1" stroke="none" stroke-width="1" fill="none" fill-rule="evenodd">
        <g id="Line-Icons" transform="translate(-292.000000, -675.000000)" fill="#757575">
            <g id="Fill-508-+-Fill-509" transform="translate(292.000000, 675.000000)">
                <path d="M2,7.0005 L2,11.0005 L5.521,11.0005 L9.001,15.9765 L9,2.0275 L5.521,7.0005 L2,7.0005 Z M9,18.0005 C8.433,18.0005 7.89,17.7765 7.474,17.2805 L4.479,13.0005 L2,13.0005 C0.897,13.0005 0,12.1035 0,11.0005 L0,7.0005 C0,5.8985 0.897,5.0005 2,5.0005 L4.479,5.0005 L7.586,0.5865 C8.149,0.0215 9.025,-0.1525 9.764,0.1525 C10.515,0.4625 11,1.1875 11,2.0005 L11,16.0005 C11,16.8135 10.515,17.5405 9.764,17.8495 C9.521,17.9495 9.263,18.0005 9,18.0005 L9,18.0005 Z" id="Fill-508"></path>
                <path d="M13,12.0005 L13,10.0005 C13.551,10.0005 14,9.5525 14,9.0005 C14,8.4495 13.551,8.0005 13,8.0005 L13,6.0005 C14.654,6.0005 16,7.3465 16,9.0005 C16,10.6545 14.654,12.0005 13,12.0005" id="Fill-509"></path>
            </g>
        </g>
    </g>
</svg>