<?xml version="1.0" encoding="UTF-8"?>
<svg width="19px" height="21px" viewBox="0 0 19 21" version="1.1" xmlns="http://www.w3.org/2000/svg" xmlns:xlink="http://www.w3.org/1999/xlink">
    <!-- Generator: Sketch 42 (36781) - http://www.bohemiancoding.com/sketch -->
    <title>Fill 685 + Fill 686</title>
    <desc>Created with Sketch.</desc>
    <defs></defs>
    <g id="Page-1" stroke="none" stroke-width="1" fill="none" fill-rule="evenodd">
        <g id="Line-Icons" transform="translate(-242.000000, -1153.000000)" fill="#767676">
            <g id="Fill-685-+-Fill-686" transform="translate(242.000000, 1153.000000)">
                <path d="M6.2021,6.0366 C6.7871,6.5436 6.8661,7.4406 6.3441,8.0426 C5.8511,8.6096 4.9091,8.6766 4.3411,8.1826 C3.8611,7.7666 3.3341,6.4166 2.9561,5.1336 C4.4411,5.3796 5.8541,5.7346 6.2021,6.0366 M5.2711,10.5306 C6.2631,10.5306 7.2041,10.1026 7.8541,9.3526 C8.4541,8.6636 8.7481,7.7816 8.6841,6.8696 C8.6191,5.9586 8.2041,5.1266 7.5141,4.5266 C6.1891,3.3766 1.9531,2.9686 0.3451,2.7906 C0.5611,3.7906 1.3921,8.2706 3.0301,9.6936 C3.6521,10.2326 4.4481,10.5306 5.2711,10.5306" id="Fill-685"></path>
                <path d="M12.1611,4.5405 C12.7211,3.9655 14.4961,3.4035 16.0961,3.0435 C15.7041,4.8475 15.1611,6.6205 14.7421,7.0515 C14.0431,7.7695 12.9031,7.7755 12.1951,7.0865 C11.4841,6.3935 11.4691,5.2505 12.1611,4.5405 L12.1611,4.5405 Z M13.2791,19.0005 L6.7201,19.0005 L5.3871,15.0005 L14.6121,15.0005 L13.2791,19.0005 Z M11.3161,8.9325 C11.9421,9.3615 12.6791,9.5965 13.4511,9.5965 C14.4861,9.5965 15.4541,9.1865 16.1751,8.4465 C17.5331,7.0525 18.2771,2.3505 18.5761,0.5785 C17.5761,0.7355 12.4271,1.3995 10.7281,3.1445 C10.0201,3.8715 9.6381,4.8315 9.6511,5.8465 C9.6591,6.3615 9.7681,6.8565 9.9681,7.3145 C9.3551,8.1915 8.9991,9.1625 8.9991,10.0715 L8.9991,13.0005 L3.9991,13.0005 C3.6781,13.0005 3.3761,13.1555 3.1881,13.4165 C3.0001,13.6775 2.9491,14.0115 3.0511,14.3165 L5.0511,20.3165 C5.1871,20.7255 5.5691,21.0005 5.9991,21.0005 L13.9991,21.0005 C14.4301,21.0005 14.8121,20.7255 14.9481,20.3165 L16.9481,14.3165 C17.0501,14.0115 16.9981,13.6775 16.8101,13.4165 C16.6221,13.1555 16.3211,13.0005 15.9991,13.0005 L10.9991,13.0005 L10.9991,10.0715 C10.9991,9.7185 11.1181,9.3245 11.3161,8.9325 L11.3161,8.9325 Z" id="Fill-686"></path>
            </g>
        </g>
    </g>
</svg>