<?xml version="1.0" encoding="UTF-8"?>
<svg width="20px" height="20px" viewBox="0 0 20 20" version="1.1" xmlns="http://www.w3.org/2000/svg" xmlns:xlink="http://www.w3.org/1999/xlink">
    <!-- Generator: Sketch 42 (36781) - http://www.bohemiancoding.com/sketch -->
    <title>Fill 602 + Fill 603 + Fill 604</title>
    <desc>Created with Sketch.</desc>
    <defs></defs>
    <g id="Page-1" stroke="none" stroke-width="1" fill="none" fill-rule="evenodd">
        <g id="Line-Icons" transform="translate(-2.000000, -960.000000)" fill="#767676">
            <g id="Fill-602-+-Fill-603-+-Fill-604" transform="translate(2.000000, 960.000000)">
                <path d="M10.0015,2.0029 C8.3475,2.0029 7.0015,3.3489 7.0015,5.0029 C7.0015,6.1859 8.5945,10.2639 10.0015,13.5299 C11.4095,10.2639 13.0015,6.1849 13.0015,5.0029 C13.0015,3.3489 11.6555,2.0029 10.0015,2.0029 M10.0015,17.0029 C9.6095,17.0029 9.2535,16.7739 9.0915,16.4169 C8.4085,14.9169 5.0015,7.3129 5.0015,5.0029 C5.0015,2.2459 7.2445,0.0029 10.0015,0.0029 C12.7585,0.0029 15.0015,2.2459 15.0015,5.0029 C15.0015,7.3129 11.5955,14.9169 10.9115,16.4169 C10.7495,16.7739 10.3945,17.0029 10.0015,17.0029" id="Fill-602"></path>
                <path d="M11.5015,5.0029 C11.5015,5.8329 10.8305,6.5029 10.0015,6.5029 C9.1725,6.5029 8.5015,5.8329 8.5015,5.0029 C8.5015,4.1739 9.1725,3.5029 10.0015,3.5029 C10.8305,3.5029 11.5015,4.1739 11.5015,5.0029" id="Fill-603"></path>
                <path d="M17.4849,20.0029 L2.5179,20.0029 C1.8449,20.0029 1.2219,19.6679 0.8489,19.1049 C0.4769,18.5389 0.4139,17.8329 0.6809,17.2129 L2.8229,12.2149 C3.1369,11.4789 3.8589,11.0029 4.6609,11.0029 L5.4849,11.0029 L5.4849,13.0029 L4.6609,13.0029 L2.5179,18.0029 L17.4849,18.0029 L15.3419,13.0029 L14.4849,13.0029 L14.4849,11.0029 L15.3419,11.0029 C16.1439,11.0029 16.8659,11.4789 17.1809,12.2159 L19.3229,17.2149 C19.5889,17.8329 19.5259,18.5389 19.1549,19.1029 C18.7819,19.6679 18.1579,20.0029 17.4849,20.0029" id="Fill-604"></path>
            </g>
        </g>
    </g>
</svg>