<?xml version="1.0" encoding="UTF-8"?>
<svg width="20px" height="20px" viewBox="0 0 20 20" version="1.1" xmlns="http://www.w3.org/2000/svg" xmlns:xlink="http://www.w3.org/1999/xlink">
    <!-- Generator: Sketch 42 (36781) - http://www.bohemiancoding.com/sketch -->
    <title>Fill 723</title>
    <desc>Created with Sketch.</desc>
    <defs></defs>
    <g id="Page-1" stroke="none" stroke-width="1" fill="none" fill-rule="evenodd">
        <g id="Line-Icons" transform="translate(-290.000000, -1202.000000)" fill="#767676">
            <g id="Fill-723" transform="translate(290.000000, 1201.000000)">
                <path d="M9.9648,12.9927 C9.2678,12.1757 8.7258,11.2567 8.3528,10.2697 C9.4828,9.9747 10.6438,9.8947 11.7868,10.0347 C11.3678,11.1397 10.7498,12.1387 9.9648,12.9927 M7.9318,8.8277 C7.8188,8.2597 7.7598,7.6767 7.7548,7.0857 C11.0838,6.3057 14.7218,6.8997 17.7698,9.1257 C17.9428,9.8457 18.0168,10.5717 17.9818,11.3637 C15.1108,8.6957 11.3298,7.9257 7.9318,8.8277 M16.7818,6.7767 C13.8568,5.2867 10.7978,4.9417 7.8838,5.5147 C8.0188,4.6887 8.2658,3.8897 8.6148,3.1317 C11.9928,2.5537 15.1178,4.1027 16.7818,6.7767 M6.7998,3.6737 C5.5568,7.4947 6.5238,11.2987 8.8658,14.0107 C8.2038,14.5297 7.8588,14.7147 7.3758,14.9627 C5.1898,12.2927 4.1168,8.7057 4.8438,4.8957 C5.4538,4.3797 6.1098,3.9757 6.7998,3.6737 M3.1208,6.9377 C3.0548,10.2307 4.1428,13.1987 5.9368,15.5467 C5.2238,15.7727 4.4878,15.9127 3.7378,15.9617 C1.6148,13.2717 1.4928,9.6577 3.1208,6.9377 M5.0878,17.3007 C9.0878,16.5627 12.0288,13.8307 13.2668,10.3487 C14.2058,10.6257 14.5128,10.7907 15.1428,11.1397 C13.9628,14.2967 10.9308,17.3117 6.9568,18.3887 C6.2488,18.0987 5.6288,17.7237 5.0878,17.3007 M9.6248,18.9747 C12.9138,17.4187 15.2928,14.7347 16.4258,11.9777 C16.8858,12.3427 17.2978,12.7607 17.6808,13.2077 C16.7088,16.6037 13.5038,19.1547 9.6248,18.9747 M20.0008,11.0007 C20.0008,5.5337 15.5288,0.9977 10.0088,0.9977 C4.5688,0.9977 0.0008,5.4157 0.0008,11.0007 C0.0008,16.4757 4.4868,21.0007 9.9918,21.0007 L9.9998,21.0007 L10.0008,21.0007 C15.3418,21.0007 20.0008,16.6417 20.0008,11.0007"></path>
            </g>
        </g>
    </g>
</svg>