<?xml version="1.0" encoding="UTF-8"?>
<svg width="20px" height="24px" viewBox="0 0 20 24" version="1.1" xmlns="http://www.w3.org/2000/svg" xmlns:xlink="http://www.w3.org/1999/xlink">
    <!-- Generator: Sketch 42 (36781) - http://www.bohemiancoding.com/sketch -->
    <title>Fill 805 + Fill 806</title>
    <desc>Created with Sketch.</desc>
    <defs></defs>
    <g id="Page-1" stroke="none" stroke-width="1" fill="none" fill-rule="evenodd">
        <g id="Line-Icons" transform="translate(-98.000000, -1391.000000)" fill="#767676">
            <g id="Fill-805-+-Fill-806" transform="translate(97.000000, 1391.000000)">
                <path d="M18.999,22.0005 L2.999,22.0005 L2.999,5.0005 L4.999,5.0005 L4.999,6.0005 C4.447,6.0005 3.999,6.4485 3.999,7.0005 L3.999,20.0005 C3.999,20.5525 4.447,21.0005 4.999,21.0005 L16.999,21.0005 C17.551,21.0005 17.999,20.5525 17.999,20.0005 L17.999,7.0005 C17.999,6.4485 17.551,6.0005 16.999,6.0005 L16.999,5.0005 L18.999,5.0005 L18.999,22.0005 Z M6.999,4.0005 L8.999,4.0005 C9.551,4.0005 9.999,3.5525 9.999,3.0005 C9.999,2.4485 10.448,2.0005 10.999,2.0005 C11.55,2.0005 11.999,2.4485 11.999,3.0005 C11.999,3.5525 12.447,4.0005 12.999,4.0005 L14.999,4.0005 L14.999,6.0005 L6.999,6.0005 L6.999,4.0005 Z M5.999,8.0005 L15.999,8.0005 L15.999,19.0005 L5.999,19.0005 L5.999,8.0005 Z M18.999,3.0005 L16.999,3.0005 C16.999,2.4485 16.551,2.0005 15.999,2.0005 L13.828,2.0005 C13.415,0.8365 12.303,0.0005 10.999,0.0005 C9.695,0.0005 8.583,0.8365 8.17,2.0005 L5.999,2.0005 C5.447,2.0005 4.999,2.4485 4.999,3.0005 L2.999,3.0005 C1.896,3.0005 0.999,3.8985 0.999,5.0005 L0.999,22.0005 C0.999,23.1035 1.896,24.0005 2.999,24.0005 L18.999,24.0005 C20.102,24.0005 20.999,23.1035 20.999,22.0005 L20.999,5.0005 C20.999,3.8985 20.102,3.0005 18.999,3.0005 L18.999,3.0005 Z" id="Fill-805"></path>
                <polygon id="Fill-806" points="11.999 11.0005 9.999 11.0005 9.999 13.0005 7.999 13.0005 7.999 15.0005 9.999 15.0005 9.999 17.0005 11.999 17.0005 11.999 15.0005 13.999 15.0005 13.999 13.0005 11.999 13.0005"></polygon>
            </g>
        </g>
    </g>
</svg>