<?xml version="1.0" encoding="UTF-8"?>
<svg width="20px" height="20px" viewBox="0 0 20 20" version="1.1" xmlns="http://www.w3.org/2000/svg" xmlns:xlink="http://www.w3.org/1999/xlink">
    <!-- Generator: Sketch 42 (36781) - http://www.bohemiancoding.com/sketch -->
    <title>Fill 831</title>
    <desc>Created with Sketch.</desc>
    <defs></defs>
    <g id="Page-1" stroke="none" stroke-width="1" fill="none" fill-rule="evenodd">
        <g id="Line-Icons" transform="translate(-194.000000, -1441.000000)" fill="#767676">
            <g id="Fill-831" transform="translate(193.000000, 1441.000000)">
                <path d="M16.999,8.0005 C16.447,8.0005 15.999,8.4485 15.999,9.0005 L15.999,15.0005 L14.999,15.0005 L14.999,12.0005 L12.999,12.0005 L12.999,15.0005 L11.999,15.0005 L11.999,11.0005 L9.999,11.0005 L9.999,15.0005 L8.999,15.0005 L8.999,12.0005 L6.999,12.0005 L6.999,15.0005 L5.999,15.0005 L5.999,9.0005 C5.999,8.4485 5.551,8.0005 4.999,8.0005 C3.896,8.0005 2.999,7.1025 2.999,6.0005 C2.999,4.8965 3.896,4.0005 4.999,4.0005 C5.545,4.0005 6.057,4.2205 6.439,4.6215 C6.688,4.8805 7.056,4.9865 7.405,4.9005 C7.753,4.8125 8.029,4.5455 8.126,4.1995 C8.487,2.9045 9.669,2.0005 10.999,2.0005 C12.33,2.0005 13.511,2.9045 13.873,4.1995 C13.969,4.5455 14.245,4.8125 14.593,4.9005 C14.943,4.9865 15.31,4.8815 15.559,4.6215 C15.941,4.2205 16.453,4.0005 16.999,4.0005 C18.102,4.0005 18.999,4.8965 18.999,6.0005 C18.999,7.1025 18.102,8.0005 16.999,8.0005 L16.999,8.0005 Z M5.999,17.0005 L15.999,17.0005 L15.999,18.0005 L5.999,18.0005 L5.999,17.0005 Z M16.999,2.0005 C16.382,2.0005 15.789,2.1395 15.252,2.4025 C14.361,0.9415 12.758,0.0005 10.999,0.0005 C9.24,0.0005 7.637,0.9415 6.746,2.4025 C6.209,2.1395 5.616,2.0005 4.999,2.0005 C2.794,2.0005 0.999,3.7945 0.999,6.0005 C0.999,7.8605 2.276,9.4285 3.999,9.8745 L3.999,19.0005 C3.999,19.5525 4.447,20.0005 4.999,20.0005 L16.999,20.0005 C17.551,20.0005 17.999,19.5525 17.999,19.0005 L17.999,9.8745 C19.722,9.4285 20.999,7.8605 20.999,6.0005 C20.999,3.7945 19.205,2.0005 16.999,2.0005 L16.999,2.0005 Z"></path>
            </g>
        </g>
    </g>
</svg>