<?xml version="1.0" encoding="UTF-8"?>
<svg width="16px" height="20px" viewBox="0 0 16 20" version="1.1" xmlns="http://www.w3.org/2000/svg" xmlns:xlink="http://www.w3.org/1999/xlink">
    <!-- Generator: Sketch 42 (36781) - http://www.bohemiancoding.com/sketch -->
    <title>Fill 810 + Fill 811</title>
    <desc>Created with Sketch.</desc>
    <defs></defs>
    <g id="Page-1" stroke="none" stroke-width="1" fill="none" fill-rule="evenodd">
        <g id="Line-Icons" transform="translate(-148.000000, -1393.000000)" fill="#767676">
            <g id="Fill-810-+-Fill-811" transform="translate(147.000000, 1393.000000)">
                <path d="M13.999,18 L3.999,18 L3.999,6 L13.999,6 L13.999,18 Z M2.999,2 L3.999,2 L3.999,4 L2.999,4 L2.999,2 Z M9.999,2 L11.999,2 L11.999,4 L9.999,4 L9.999,2 Z M5.999,2 L7.999,2 L7.999,4 L5.999,4 L5.999,2 Z M14.999,4 L13.999,4 L13.999,2 L14.999,2 L14.999,4 Z M14.999,0 L2.999,0 C1.896,0 0.999,0.898 0.999,2 L0.999,6 L1.999,6 L1.999,18 C1.999,19.103 2.896,20 3.999,20 L13.999,20 C15.102,20 15.999,19.103 15.999,18 L15.999,6 L15.999,5 L16.999,5 L16.999,2 C16.999,0.898 16.102,0 14.999,0 L14.999,0 Z" id="Fill-810"></path>
                <polygon id="Fill-811" points="5.999 13.0005 7.999 13.0005 7.999 15.0005 9.999 15.0005 9.999 13.0005 11.999 13.0005 11.999 11.0005 9.999 11.0005 9.999 9.0005 7.999 9.0005 7.999 11.0005 5.999 11.0005"></polygon>
            </g>
        </g>
    </g>
</svg>