<?xml version="1.0" encoding="UTF-8"?>
<svg width="22px" height="22px" viewBox="0 0 22 22" version="1.1" xmlns="http://www.w3.org/2000/svg" xmlns:xlink="http://www.w3.org/1999/xlink">
    <!-- Generator: Sketch 42 (36781) - http://www.bohemiancoding.com/sketch -->
    <title>Fill 383 + Fill 384</title>
    <desc>Created with Sketch.</desc>
    <defs></defs>
    <g id="Page-1" stroke="none" stroke-width="1" fill="none" fill-rule="evenodd">
        <g id="Line-Icons" transform="translate(-1.000000, -336.000000)" fill="#757575">
            <g id="Fill-383-+-Fill-384" transform="translate(1.000000, 336.000000)">
                <path d="M11,20.0005 C6.038,20.0005 2,15.9635 2,11.0005 C2,6.0375 6.038,2.0005 11,2.0005 C15.962,2.0005 20,6.0375 20,11.0005 C20,15.9635 15.962,20.0005 11,20.0005 M11,0.0005 C4.935,0.0005 0,4.9355 0,11.0005 C0,17.0665 4.935,22.0005 11,22.0005 C17.065,22.0005 22,17.0665 22,11.0005 C22,4.9355 17.065,0.0005 11,0.0005" id="Fill-383"></path>
                <path d="M13,8.0005 L8.414,8.0005 L10.414,6.0005 L9,4.5865 L4.586,9.0005 L9,13.4145 L10.414,12.0005 L8.414,10.0005 L13,10.0005 C14.103,10.0005 15,10.8985 15,12.0005 C15,13.1035 14.103,14.0005 13,14.0005 L12,14.0005 L12,16.0005 L13,16.0005 C15.206,16.0005 17,14.2065 17,12.0005 C17,9.7945 15.206,8.0005 13,8.0005" id="Fill-384"></path>
            </g>
        </g>
    </g>
</svg>