<?xml version="1.0" encoding="UTF-8"?>
<svg width="21px" height="21px" viewBox="0 0 21 21" version="1.1" xmlns="http://www.w3.org/2000/svg" xmlns:xlink="http://www.w3.org/1999/xlink">
    <!-- Generator: Sketch 42 (36781) - http://www.bohemiancoding.com/sketch -->
    <title>Fill 698 + Fill 699 + Fill 700</title>
    <desc>Created with Sketch.</desc>
    <defs></defs>
    <g id="Page-1" stroke="none" stroke-width="1" fill="none" fill-rule="evenodd">
        <g id="Line-Icons" transform="translate(-146.000000, -1152.000000)" fill="#767676">
            <g id="Fill-698-+-Fill-699-+-Fill-700" transform="translate(146.000000, 1152.000000)">
                <path d="M18.8799,16.4109 C16.2999,18.0899 13.2709,19.0009 10.1599,19.0009 C7.0499,19.0009 4.0209,18.0899 1.4409,16.4109 L-0.0001,17.8499 C2.9809,19.8909 6.5299,21.0009 10.1599,21.0009 C13.7899,21.0009 17.3399,19.8909 20.3199,17.8499 L18.8799,16.4109 Z" id="Fill-698"></path>
                <path d="M10.3203,3.6353 C12.1123,6.0273 14.3203,9.4763 14.3203,11.0003 C14.3203,13.2063 12.5263,15.0003 10.3203,15.0003 C8.1143,15.0003 6.3203,13.2063 6.3203,11.0003 C6.3203,9.4783 8.5283,6.0283 10.3203,3.6353 M10.3203,17.0003 C13.6293,17.0003 16.3203,14.3093 16.3203,11.0003 C16.3203,7.9743 11.6343,2.0413 11.1003,1.3753 L10.3203,0.4013 L9.5403,1.3753 C9.0063,2.0413 4.3203,7.9743 4.3203,11.0003 C4.3203,14.3093 7.0113,17.0003 10.3203,17.0003" id="Fill-699"></path>
                <path d="M13.0703,11.0005 L11.5703,11.0005 C11.5703,11.6905 11.0093,12.2505 10.3203,12.2505 L10.3203,13.7505 C11.8373,13.7505 13.0703,12.5175 13.0703,11.0005" id="Fill-700"></path>
            </g>
        </g>
    </g>
</svg>