<?xml version="1.0" encoding="UTF-8"?>
<svg width="20px" height="15px" viewBox="0 0 20 15" version="1.1" xmlns="http://www.w3.org/2000/svg" xmlns:xlink="http://www.w3.org/1999/xlink">
    <!-- Generator: Sketch 42 (36781) - http://www.bohemiancoding.com/sketch -->
    <title>Fill 748</title>
    <desc>Created with Sketch.</desc>
    <defs></defs>
    <g id="Page-1" stroke="none" stroke-width="1" fill="none" fill-rule="evenodd">
        <g id="Line-Icons" transform="translate(-146.000000, -1254.000000)" fill="#767676">
            <g id="Fill-748" transform="translate(146.000000, 1254.000000)">
                <path d="M18.0005,11.0025 L17.8165,11.0025 C17.4015,9.8415 16.3025,9.0025 15.0005,9.0025 C13.6985,9.0025 12.5995,9.8415 12.1855,11.0025 L8.8165,11.0025 C8.4015,9.8415 7.3025,9.0025 6.0005,9.0025 C4.6985,9.0025 3.5995,9.8415 3.1855,11.0025 L2.0005,11.0025 L2.0005,10.0025 C2.0005,8.8995 2.8975,8.0025 4.0005,8.0025 L17.9205,8.0025 C17.9675,8.3305 18.0005,8.6625 18.0005,9.0025 L18.0005,11.0025 Z M15.0005,13.0025 C14.4495,13.0025 14.0005,12.5535 14.0005,12.0025 C14.0005,11.4515 14.4495,11.0025 15.0005,11.0025 C15.5515,11.0025 16.0005,11.4515 16.0005,12.0025 C16.0005,12.5535 15.5515,13.0025 15.0005,13.0025 L15.0005,13.0025 Z M6.0005,13.0025 C5.4495,13.0025 5.0005,12.5535 5.0005,12.0025 C5.0005,11.4515 5.4495,11.0025 6.0005,11.0025 C6.5515,11.0025 7.0005,11.4515 7.0005,12.0025 C7.0005,12.5535 6.5515,13.0025 6.0005,13.0025 L6.0005,13.0025 Z M10.0005,2.1025 L10.0005,6.0025 L6.1015,6.0025 C6.5005,4.0465 8.0445,2.5025 10.0005,2.1025 L10.0005,2.1025 Z M17.3155,6.0025 L12.0005,6.0025 L12.0005,2.0825 C14.3525,2.4215 16.3265,3.9305 17.3155,6.0025 L17.3155,6.0025 Z M11.0005,0.0025 C7.4795,0.0025 4.5585,2.6145 4.0715,6.0025 L4.0005,6.0025 C1.7945,6.0025 0.0005,7.7965 0.0005,10.0025 L0.0005,12.0025 C0.0005,12.5555 0.4485,13.0025 1.0005,13.0025 L3.1855,13.0025 C3.5995,14.1645 4.6985,15.0025 6.0005,15.0025 C7.3025,15.0025 8.4015,14.1645 8.8165,13.0025 L12.1855,13.0025 C12.5995,14.1645 13.6985,15.0025 15.0005,15.0025 C16.3025,15.0025 17.4015,14.1645 17.8165,13.0025 L19.0005,13.0025 C19.5525,13.0025 20.0005,12.5555 20.0005,12.0025 L20.0005,9.0025 C20.0005,4.0405 15.9625,0.0025 11.0005,0.0025 L11.0005,0.0025 Z"></path>
            </g>
        </g>
    </g>
</svg>