<?xml version="1.0" encoding="UTF-8"?>
<svg width="16px" height="19px" viewBox="0 0 16 19" version="1.1" xmlns="http://www.w3.org/2000/svg" xmlns:xlink="http://www.w3.org/1999/xlink">
    <!-- Generator: Sketch 42 (36781) - http://www.bohemiancoding.com/sketch -->
    <title>Fill 86 + Fill 87</title>
    <desc>Created with Sketch.</desc>
    <defs></defs>
    <g id="Page-1" stroke="none" stroke-width="1" fill="none" fill-rule="evenodd">
        <g id="Line-Icons" transform="translate(-387.000000, -1105.000000)" fill="#767676">
            <g id="Fill-86-+-Fill-87" transform="translate(386.000000, 1105.000000)">
                <path d="M0.999,10.0005 C0.999,11.1045 1.895,12.0005 2.999,12.0005 C4.103,12.0005 4.999,11.1045 4.999,10.0005 C4.999,8.5005 2.999,6.0005 2.999,6.0005 C2.999,6.0005 0.999,8.5005 0.999,10.0005" id="Fill-86"></path>
                <path d="M14.999,17.0005 L8.999,17.0005 L8.999,10.0005 C8.999,8.3465 10.345,7.0005 11.999,7.0005 C13.653,7.0005 14.999,8.3465 14.999,10.0005 L14.999,17.0005 Z M12.999,5.1025 L12.999,2.0005 L15.999,2.0005 L15.999,0.0005 L6.585,0.0005 L4.292,2.2935 L5.706,3.7075 L7.416,2.0005 L10.999,2.0005 L10.999,5.1025 C8.72,5.5665 6.999,7.5865 6.999,10.0005 L6.999,18.0005 C6.999,18.5525 7.447,19.0005 7.999,19.0005 L15.999,19.0005 C16.551,19.0005 16.999,18.5525 16.999,18.0005 L16.999,10.0005 C16.999,7.5865 15.278,5.5665 12.999,5.1025 L12.999,5.1025 Z" id="Fill-87"></path>
            </g>
        </g>
    </g>
</svg>