<?xml version="1.0" encoding="UTF-8"?>
<svg width="18px" height="20px" viewBox="0 0 18 20" version="1.1" xmlns="http://www.w3.org/2000/svg" xmlns:xlink="http://www.w3.org/1999/xlink">
    <!-- Generator: Sketch 42 (36781) - http://www.bohemiancoding.com/sketch -->
    <title>Fill 793 + Fill 794</title>
    <desc>Created with Sketch.</desc>
    <defs></defs>
    <g id="Page-1" stroke="none" stroke-width="1" fill="none" fill-rule="evenodd">
        <g id="Line-Icons" transform="translate(-3.000000, -1345.000000)" fill="#767676">
            <g id="Fill-793-+-Fill-794" transform="translate(3.000000, 1345.000000)">
                <path d="M16.001,8.5874 L15.708,8.2944 C15.317,7.9034 14.685,7.9034 14.294,8.2944 L13.001,9.5874 L11.708,8.2944 C11.513,8.0994 11.257,8.0014 11.001,8.0014 C10.745,8.0014 10.489,8.0994 10.294,8.2944 L9.001,9.5874 L7.708,8.2944 C7.317,7.9034 6.685,7.9034 6.294,8.2944 L5.001,9.5874 L3.708,8.2944 C3.317,7.9034 2.685,7.9034 2.294,8.2944 L2.001,8.5874 L2.001,8.0014 C2.001,5.2444 4.244,3.0014 7.001,3.0014 L11.001,3.0014 C13.758,3.0014 16.001,5.2444 16.001,8.0014 L16.001,8.5874 Z M11.001,1.0014 L10.001,1.0014 L10.001,0.0014 L8.001,0.0014 L8.001,1.0014 L7.001,1.0014 C3.141,1.0014 0.001,4.1424 0.001,8.0014 L0.001,11.0014 C0.001,11.4054 0.245,11.7704 0.618,11.9254 C0.992,12.0794 1.422,11.9944 1.708,11.7084 L3.001,10.4154 L4.294,11.7084 C4.685,12.0994 5.317,12.0994 5.708,11.7084 L7.001,10.4154 L8.001,11.4154 L8.001,18.0014 L5.001,18.0014 L5.001,20.0014 L13.001,20.0014 L13.001,18.0014 L10.001,18.0014 L10.001,11.4154 L11.001,10.4154 L12.294,11.7084 C12.685,12.0994 13.317,12.0994 13.708,11.7084 L15.001,10.4154 L16.294,11.7084 C16.485,11.9004 16.741,12.0014 17.001,12.0014 C17.13,12.0014 17.26,11.9764 17.384,11.9254 C17.757,11.7704 18.001,11.4054 18.001,11.0014 L18.001,8.0014 C18.001,4.1424 14.861,1.0014 11.001,1.0014 L11.001,1.0014 Z" id="Fill-793"></path>
                <polygon id="Fill-794" points="12.001 16.001 14.001 16.001 14.001 13.001 12.001 13.001"></polygon>
            </g>
        </g>
    </g>
</svg>