<?xml version="1.0" encoding="UTF-8"?>
<svg width="20px" height="19px" viewBox="0 0 20 19" version="1.1" xmlns="http://www.w3.org/2000/svg" xmlns:xlink="http://www.w3.org/1999/xlink">
    <!-- Generator: Sketch 42 (36781) - http://www.bohemiancoding.com/sketch -->
    <title>Fill 566 + Fill 567</title>
    <desc>Created with Sketch.</desc>
    <defs></defs>
    <g id="Page-1" stroke="none" stroke-width="1" fill="none" fill-rule="evenodd">
        <g id="Line-Icons" transform="translate(-2.000000, -818.000000)" fill="#757575">
            <g id="Fill-566-+-Fill-567" transform="translate(2.000000, 818.000000)">
                <path d="M18,17 L2,17 L2,5 L18,5 L18,17 Z M8,2 L12,2 L12,3 L8,3 L8,2 Z M18,3 L18,2 L16,2 L16,3 L14,3 L14,1 C14,0.449 13.552,0 13,0 L7,0 C6.448,0 6,0.449 6,1 L6,3 L4,3 L4,2 L2,2 L2,3 C0.897,3 0,3.898 0,5 L0,17 C0,18.104 0.897,19 2,19 L18,19 C19.103,19 20,18.104 20,17 L20,5 C20,3.898 19.103,3 18,3 L18,3 Z" id="Fill-566"></path>
                <path d="M11,6.0005 L9,6.0005 L9,7.0515 C7.86,7.2835 7,8.2935 7,9.5005 C7,10.8785 8.122,12.0005 9.5,12.0005 L10.5,12.0005 C10.776,12.0005 11,12.2245 11,12.5005 C11,12.7765 10.776,13.0005 10.5,13.0005 L7,13.0005 L7,15.0005 L9,15.0005 L9,16.0005 L11,16.0005 L11,14.9495 C12.14,14.7175 13,13.7075 13,12.5005 C13,11.1225 11.878,10.0005 10.5,10.0005 L9.5,10.0005 C9.224,10.0005 9,9.7765 9,9.5005 C9,9.2245 9.224,9.0005 9.5,9.0005 L13,9.0005 L13,7.0005 L11,7.0005 L11,6.0005 Z" id="Fill-567"></path>
            </g>
        </g>
    </g>
</svg>