<?xml version="1.0" encoding="UTF-8"?>
<svg width="20px" height="17px" viewBox="0 0 20 17" version="1.1" xmlns="http://www.w3.org/2000/svg" xmlns:xlink="http://www.w3.org/1999/xlink">
    <!-- Generator: Sketch 42 (36781) - http://www.bohemiancoding.com/sketch -->
    <title>Fill 190</title>
    <desc>Created with Sketch.</desc>
    <defs></defs>
    <g id="Page-1" stroke="none" stroke-width="1" fill="none" fill-rule="evenodd">
        <g id="Line-Icons" transform="translate(-290.000000, -386.000000)" fill="#757575">
            <g id="Fill-190" transform="translate(290.000000, 386.000000)">
                <path d="M1.9995,9.1982 L1.9995,6.8032 L17.9995,3.2472 L17.9995,12.7542 L1.9995,9.1982 Z M7.5975,14.8692 L4.9995,14.2192 L4.9995,11.9132 L9.1265,12.8302 L7.5975,14.8692 Z M17.9995,0.0002 L17.9995,1.1992 L1.9995,4.7542 L1.9995,4.0002 L-0.0005,4.0002 L-0.0005,12.0002 L1.9995,12.0002 L1.9995,11.2472 L2.9995,11.4692 L2.9995,15.0002 C2.9995,15.4592 3.3115,15.8592 3.7565,15.9712 L7.7565,16.9712 C7.8375,16.9912 7.9185,17.0002 7.9995,17.0002 C8.3095,17.0002 8.6075,16.8562 8.7995,16.6002 L11.2695,13.3072 L17.9995,14.8022 L17.9995,16.0002 L19.9995,16.0002 L19.9995,0.0002 L17.9995,0.0002 Z"></path>
            </g>
        </g>
    </g>
</svg>