<?xml version="1.0" encoding="UTF-8"?>
<svg width="19px" height="20px" viewBox="0 0 19 20" version="1.1" xmlns="http://www.w3.org/2000/svg" xmlns:xlink="http://www.w3.org/1999/xlink">
    <!-- Generator: Sketch 42 (36781) - http://www.bohemiancoding.com/sketch -->
    <title>Fill 652</title>
    <desc>Created with Sketch.</desc>
    <defs></defs>
    <g id="Page-1" stroke="none" stroke-width="1" fill="none" fill-rule="evenodd">
        <g id="Line-Icons" transform="translate(-3.000000, -1105.000000)" fill="#767676">
            <g id="Fill-652" transform="translate(2.000000, 1105.000000)">
                <path d="M13.9995,18.0005 L13.9995,16.5005 C13.9995,14.5695 12.4295,13.0005 10.4995,13.0005 C8.5695,13.0005 6.9995,14.5695 6.9995,16.5005 L6.9995,18.0005 L3.7825,18.0005 L10.4995,7.0095 L17.2165,18.0005 L13.9995,18.0005 Z M8.9995,18.0005 L8.9995,16.5005 C8.9995,15.6735 9.6725,15.0005 10.4995,15.0005 C11.3265,15.0005 11.9995,15.6735 11.9995,16.5005 L11.9995,18.0005 L8.9995,18.0005 Z M19.8535,18.4795 L11.6715,5.0915 L13.8535,1.5225 L12.1455,0.4795 L10.4995,3.1735 L8.8535,0.4795 L7.1455,1.5225 L9.3275,5.0915 L1.1455,18.4795 C0.9575,18.7875 0.9505,19.1745 1.1275,19.4895 C1.3045,19.8055 1.6375,20.0005 1.9995,20.0005 L18.9995,20.0005 C19.3615,20.0005 19.6945,19.8055 19.8715,19.4895 C20.0485,19.1745 20.0415,18.7875 19.8535,18.4795 L19.8535,18.4795 Z"></path>
            </g>
        </g>
    </g>
</svg>