<?xml version="1.0" encoding="UTF-8"?>
<svg width="22px" height="19px" viewBox="0 0 22 19" version="1.1" xmlns="http://www.w3.org/2000/svg" xmlns:xlink="http://www.w3.org/1999/xlink">
    <!-- Generator: Sketch 42 (36781) - http://www.bohemiancoding.com/sketch -->
    <title>Fill 734 + Fill 735</title>
    <desc>Created with Sketch.</desc>
    <defs></defs>
    <g id="Page-1" stroke="none" stroke-width="1" fill="none" fill-rule="evenodd">
        <g id="Line-Icons" transform="translate(-433.000000, -1201.000000)" fill="#767676">
            <g id="Fill-734-+-Fill-735" transform="translate(432.000000, 1200.000000)">
                <polygon id="Fill-734" points="14.999 0.9985 8.999 0.9985 8.999 2.9985 11.999 2.9985 14.999 2.9985"></polygon>
                <path d="M20.9097,8.8316 C20.7777,9.0296 20.5797,9.1746 20.3967,9.2276 L14.5397,10.6076 L14.7997,7.9986 L20.4627,7.9986 C20.6607,7.9986 20.8427,8.1076 20.9357,8.2826 C21.0297,8.4566 21.0187,8.6676 20.9097,8.8316 L20.9097,8.8316 Z M11.9987,14.9986 L11.9037,14.9986 L10.9987,5.9986 C10.9987,5.4476 11.4477,4.9986 11.9987,4.9986 C12.5507,4.9986 12.9987,5.4476 13.0037,5.8986 L12.0947,14.9986 L11.9987,14.9986 Z M14.9987,16.9986 C15.5507,16.9986 15.9987,17.4476 15.9987,17.9986 L7.9987,17.9986 C7.9987,17.4476 8.4477,16.9986 8.9987,16.9986 L14.9987,16.9986 Z M3.6457,9.2386 C3.4187,9.1746 3.2207,9.0296 3.0887,8.8326 C2.9787,8.6676 2.9687,8.4566 3.0617,8.2826 C3.1557,8.1076 3.3377,7.9986 3.5347,7.9986 L9.1937,7.9986 L9.4547,10.6076 L3.6457,9.2386 Z M22.6987,7.3376 C22.2557,6.5116 21.3987,5.9986 20.4627,5.9986 L14.9987,5.9986 C14.9987,4.3446 13.6537,2.9986 11.9987,2.9986 C10.3777,2.9986 9.0597,4.2946 9.0137,5.9986 L3.5347,5.9986 C2.5987,5.9986 1.7417,6.5116 1.2997,7.3376 C0.8567,8.1636 0.9047,9.1616 1.4257,9.9426 C1.8217,10.5356 2.4157,10.9686 3.1427,11.1736 L9.6657,12.7116 L9.8947,14.9986 L8.9987,14.9986 C7.3447,14.9986 5.9987,16.3446 5.9987,17.9986 L5.9987,18.9986 C5.9987,19.5516 6.4467,19.9986 6.9987,19.9986 L16.9987,19.9986 C17.5517,19.9986 17.9987,19.5516 17.9987,18.9986 L17.9987,17.9986 C17.9987,16.3446 16.6537,14.9986 14.9987,14.9986 L14.1027,14.9986 L14.3307,12.7116 L20.8997,11.1626 C21.5827,10.9686 22.1767,10.5356 22.5737,9.9416 C23.0937,9.1616 23.1417,8.1636 22.6987,7.3376 L22.6987,7.3376 Z" id="Fill-735"></path>
            </g>
        </g>
    </g>
</svg>