<?xml version="1.0" encoding="UTF-8"?>
<svg width="24px" height="24px" viewBox="0 0 24 24" version="1.1" xmlns="http://www.w3.org/2000/svg" xmlns:xlink="http://www.w3.org/1999/xlink">
    <!-- Generator: Sketch 42 (36781) - http://www.bohemiancoding.com/sketch -->
    <title>Fill 416 + Fill 417 + Fill 418</title>
    <desc>Created with Sketch.</desc>
    <defs></defs>
    <g id="Page-1" stroke="none" stroke-width="1" fill="none" fill-rule="evenodd">
        <g id="Line-Icons" transform="translate(-48.000000, -479.000000)" fill="#757575">
            <g id="Fill-416-+-Fill-417-+-Fill-418" transform="translate(48.000000, 479.000000)">
                <path d="M9,2.0005 C13.547,2.0005 16,3.4195 16,4.0005 C16,4.5825 13.547,6.0005 9,6.0005 C4.453,6.0005 2,4.5825 2,4.0005 C2,3.4195 4.453,2.0005 9,2.0005 L9,2.0005 Z M11,17.8985 C10.385,17.9615 9.722,18.0005 9,18.0005 C4.453,18.0005 2,16.5825 2,16.0005 L2,14.6005 C3.736,15.5225 6.374,16.0005 9,16.0005 C9.671,16.0005 10.343,15.9695 11,15.9075 L11,13.8985 C10.385,13.9615 9.722,14.0005 9,14.0005 C4.453,14.0005 2,12.5825 2,12.0005 L2,10.6005 C3.736,11.5225 6.374,12.0005 9,12.0005 C10.375,12.0005 11.749,11.8665 13,11.6085 L13,9.5695 C11.934,9.8235 10.6,10.0005 9,10.0005 C4.453,10.0005 2,8.5825 2,8.0005 L2,6.6005 C3.736,7.5225 6.374,8.0005 9,8.0005 C11.626,8.0005 14.264,7.5225 16,6.6005 L16,9.0005 L18,9.0005 L18,4.0005 C18,1.3745 13.473,0.0005 9,0.0005 C4.527,0.0005 0,1.3745 0,4.0005 L0,16.0005 C0,18.6265 4.527,20.0005 9,20.0005 C9.671,20.0005 10.342,19.9655 11,19.9045 L11,17.8985 Z" id="Fill-416"></path>
                <path d="M18,13.0005 C19.103,13.0005 20,13.8975 20,15.0005 L22,15.0005 C22,12.7945 20.206,11.0005 18,11.0005 C15.794,11.0005 14,12.7945 14,15.0005 L16,15.0005 C16,13.8975 16.897,13.0005 18,13.0005" id="Fill-417"></path>
                <path d="M20,20.4653 L18,21.7983 L16,20.4653 L16,18.0003 L20,18.0003 L20,20.4653 Z M24,18.0003 L24,16.0003 L21,16.0003 L15,16.0003 L12,16.0003 L12,18.0003 L14,18.0003 L14,19.0003 L12,19.0003 L12,21.0003 L14,21.0003 C14,21.3353 14.167,21.6473 14.445,21.8323 L17.445,23.8323 C17.613,23.9443 17.807,24.0003 18,24.0003 C18.193,24.0003 18.387,23.9443 18.555,23.8323 L21.555,21.8323 C21.833,21.6473 22,21.3353 22,21.0003 L24,21.0003 L24,19.0003 L22,19.0003 L22,18.0003 L24,18.0003 Z" id="Fill-418"></path>
            </g>
        </g>
    </g>
</svg>