<?xml version="1.0" encoding="UTF-8"?>
<svg width="14px" height="18px" viewBox="0 0 14 18" version="1.1" xmlns="http://www.w3.org/2000/svg" xmlns:xlink="http://www.w3.org/1999/xlink">
    <!-- Generator: Sketch 42 (36781) - http://www.bohemiancoding.com/sketch -->
    <title>Fill 487 + Fill 488</title>
    <desc>Created with Sketch.</desc>
    <defs></defs>
    <g id="Page-1" stroke="none" stroke-width="1" fill="none" fill-rule="evenodd">
        <g id="Line-Icons" transform="translate(-389.000000, -625.000000)" fill="#757575">
            <g id="Fill-487-+-Fill-488" transform="translate(389.000000, 625.000000)">
                <path d="M2,16.0005 L2,2.0005 L4,2.0005 L4.001,16.0005 L2,16.0005 Z M4,0.0005 L2,0.0005 C0.897,0.0005 0,0.8965 0,2.0005 L0,16.0005 C0,17.1035 0.897,18.0005 2,18.0005 L4,18.0005 C5.103,18.0005 6,17.1035 6,16.0005 L6,2.0005 C6,0.8965 5.103,0.0005 4,0.0005 L4,0.0005 Z" id="Fill-487"></path>
                <path d="M10,16.0005 L10,2.0005 L12,2.0005 L12.001,16.0005 L10,16.0005 Z M12,0.0005 L10,0.0005 C8.897,0.0005 8,0.8965 8,2.0005 L8,16.0005 C8,17.1035 8.897,18.0005 10,18.0005 L12,18.0005 C13.103,18.0005 14,17.1035 14,16.0005 L14,2.0005 C14,0.8965 13.103,0.0005 12,0.0005 L12,0.0005 Z" id="Fill-488"></path>
            </g>
        </g>
    </g>
</svg>