<?xml version="1.0" encoding="UTF-8"?>
<svg width="20px" height="20px" viewBox="0 0 20 20" version="1.1" xmlns="http://www.w3.org/2000/svg" xmlns:xlink="http://www.w3.org/1999/xlink">
    <!-- Generator: Sketch 42 (36781) - http://www.bohemiancoding.com/sketch -->
    <title>Fill 191 + Fill 192</title>
    <desc>Created with Sketch.</desc>
    <defs></defs>
    <g id="Page-1" stroke="none" stroke-width="1" fill="none" fill-rule="evenodd">
        <g id="Line-Icons" transform="translate(-338.000000, -385.000000)" fill="#757575">
            <g id="Fill-191-+-Fill-192" transform="translate(338.000000, 385.000000)">
                <path d="M13.3428,13.6577 C11.4728,13.6577 9.7148,12.9287 8.3928,11.6067 C7.0708,10.2847 6.3418,8.5267 6.3418,6.6577 C6.3418,5.1247 6.8308,3.6687 7.7358,2.4647 L17.5358,12.2637 C16.3318,13.1687 14.8748,13.6577 13.3428,13.6577 M19.7068,11.6067 L14.7568,6.6577 L16.4888,4.9267 C16.6528,4.9697 16.8218,5.0007 16.9998,5.0007 C18.1038,5.0007 18.9998,4.1047 18.9998,3.0007 C18.9998,1.8967 18.1038,1.0007 16.9998,1.0007 C15.8948,1.0007 14.9998,1.8967 14.9998,3.0007 C14.9998,3.1787 15.0308,3.3477 15.0738,3.5117 L13.3428,5.2437 L8.3928,0.2937 C8.0018,-0.0973 7.3688,-0.0973 6.9788,0.2937 C5.2778,1.9937 4.3418,4.2537 4.3418,6.6577 C4.3418,9.0607 5.2778,11.3217 6.9788,13.0207 C8.6788,14.7207 10.9388,15.6577 13.3428,15.6577 C15.7468,15.6577 18.0068,14.7207 19.7068,13.0207 C19.8948,12.8337 19.9998,12.5787 19.9998,12.3137 C19.9998,12.0497 19.8948,11.7947 19.7068,11.6067" id="Fill-191"></path>
                <path d="M2.6182,18.0005 L4.2742,14.6875 L7.5862,18.0005 L2.6182,18.0005 Z M4.7072,12.2935 C4.4792,12.0665 4.1562,11.9625 3.8402,12.0135 C3.5222,12.0645 3.2492,12.2665 3.1052,12.5535 L0.1052,18.5535 C-0.0488,18.8635 -0.0328,19.2315 0.1492,19.5265 C0.3312,19.8205 0.6532,20.0005 1.0002,20.0005 L10.0002,20.0005 C10.4042,20.0005 10.7692,19.7575 10.9242,19.3835 C11.0782,19.0095 10.9932,18.5795 10.7072,18.2935 L4.7072,12.2935 Z" id="Fill-192"></path>
            </g>
        </g>
    </g>
</svg>