<?xml version="1.0" encoding="UTF-8"?>
<svg width="19px" height="19px" viewBox="0 0 19 19" version="1.1" xmlns="http://www.w3.org/2000/svg" xmlns:xlink="http://www.w3.org/1999/xlink">
    <!-- Generator: Sketch 42 (36781) - http://www.bohemiancoding.com/sketch -->
    <title>Fill 476 + Fill 477 + Fill 478</title>
    <desc>Created with Sketch.</desc>
    <defs></defs>
    <g id="Page-1" stroke="none" stroke-width="1" fill="none" fill-rule="evenodd">
        <g id="Line-Icons" transform="translate(-98.000000, -626.000000)" fill="#757575">
            <g id="Fill-476-+-Fill-477-+-Fill-478" transform="translate(98.000000, 626.000000)">
                <path d="M17,15.3823 L15,14.3823 L15,13.6193 L17,12.6193 L17,15.3823 Z M5,17.0003 L5,11.0003 L13,11.0003 L13.001,17.0003 L5,17.0003 Z M18.526,10.1503 C18.23,9.9693 17.862,9.9513 17.553,10.1063 L15,11.3823 L15,11.0003 C15,9.8973 14.103,9.0003 13,9.0003 L5,9.0003 C3.897,9.0003 3,9.8973 3,11.0003 L3,17.0003 C3,18.1033 3.897,19.0003 5,19.0003 L13,19.0003 C14.103,19.0003 15,18.1033 15,17.0003 L15,16.6193 L17.553,17.8953 C17.694,17.9653 17.847,18.0003 18,18.0003 C18.183,18.0003 18.365,17.9513 18.526,17.8513 C18.82,17.6693 19,17.3473 19,17.0003 L19,11.0003 C19,10.6533 18.82,10.3323 18.526,10.1503 L18.526,10.1503 Z" id="Fill-476"></path>
                <path d="M2,4.0005 C2,2.8965 2.897,2.0005 4,2.0005 C5.103,2.0005 6,2.8965 6,4.0005 C6,5.1035 5.103,6.0005 4,6.0005 C2.897,6.0005 2,5.1035 2,4.0005 M8,4.0005 C8,1.7955 6.206,0.0005 4,0.0005 C1.794,0.0005 0,1.7955 0,4.0005 C0,6.2065 1.794,8.0005 4,8.0005 C6.206,8.0005 8,6.2065 8,4.0005" id="Fill-477"></path>
                <path d="M13,2.0005 C14.103,2.0005 15,2.8965 15,4.0005 C15,5.1035 14.103,6.0005 13,6.0005 C11.897,6.0005 11,5.1035 11,4.0005 C11,2.8965 11.897,2.0005 13,2.0005 M13,8.0005 C15.206,8.0005 17,6.2065 17,4.0005 C17,1.7955 15.206,0.0005 13,0.0005 C10.794,0.0005 9,1.7955 9,4.0005 C9,6.2065 10.794,8.0005 13,8.0005" id="Fill-478"></path>
            </g>
        </g>
    </g>
</svg>