<?xml version="1.0" encoding="UTF-8"?>
<svg width="20px" height="18px" viewBox="0 0 20 18" version="1.1" xmlns="http://www.w3.org/2000/svg" xmlns:xlink="http://www.w3.org/1999/xlink">
    <!-- Generator: Sketch 42 (36781) - http://www.bohemiancoding.com/sketch -->
    <title>Fill 541</title>
    <desc>Created with Sketch.</desc>
    <defs></defs>
    <g id="Page-1" stroke="none" stroke-width="1" fill="none" fill-rule="evenodd">
        <g id="Line-Icons" transform="translate(-242.000000, -770.000000)" fill="#757575">
            <g id="Fill-541" transform="translate(242.000000, 770.000000)">
                <path d="M15.1978,16.0005 L4.8018,16.0005 L3.2468,9.0005 L16.7538,9.0005 L15.1978,16.0005 Z M19.9998,7.0005 L16.5798,7.0005 L12.8678,0.5035 L11.1318,1.4965 L14.2768,7.0005 L5.7228,7.0005 L8.8678,1.4965 L7.1318,0.5035 L3.4198,7.0005 L-0.0002,7.0005 L-0.0002,9.0005 L1.1978,9.0005 L3.0238,17.2175 C3.1258,17.6755 3.5308,18.0005 3.9998,18.0005 L15.9998,18.0005 C16.4688,18.0005 16.8748,17.6755 16.9758,17.2175 L18.8018,9.0005 L19.9998,9.0005 L19.9998,7.0005 Z"></path>
            </g>
        </g>
    </g>
</svg>