<?xml version="1.0" encoding="UTF-8"?>
<svg width="24px" height="24px" viewBox="0 0 24 24" version="1.1" xmlns="http://www.w3.org/2000/svg" xmlns:xlink="http://www.w3.org/1999/xlink">
    <!-- Generator: Sketch 42 (36781) - http://www.bohemiancoding.com/sketch -->
    <title>Fill 862 + Fill 863</title>
    <desc>Created with Sketch.</desc>
    <defs></defs>
    <g id="Page-1" stroke="none" stroke-width="1" fill="none" fill-rule="evenodd">
        <g id="Line-Icons" transform="translate(-48.000000, -1535.000000)" fill="#767676">
            <g id="Fill-862-+-Fill-863" transform="translate(47.000000, 1535.000000)">
                <path d="M12.999,15.811 C11.577,14.846 8.999,12.739 8.999,11 C8.999,10.399 9.194,9.001 10.999,9.001 C11.448,9.001 11.999,9.552 11.999,10 C11.999,10.552 12.447,11 12.999,11 C13.551,11 13.999,10.552 13.999,10 C13.999,9.552 14.55,9.001 14.999,9.001 C16.804,9.001 16.999,10.399 16.999,11 C16.999,12.739 14.421,14.846 12.999,15.811 M14.999,7.001 C14.264,7.001 13.547,7.333 12.999,7.847 C12.451,7.333 11.734,7.001 10.999,7.001 C8.606,7.001 6.999,8.609 6.999,11 C6.999,14.467 11.923,17.521 12.484,17.858 C12.643,17.954 12.821,18 12.999,18 C13.177,18 13.355,17.954 13.514,17.858 C14.075,17.521 18.999,14.467 18.999,11 C18.999,8.609 17.392,7.001 14.999,7.001" id="Fill-862"></path>
                <path d="M13.999,19.9312 L13.999,19.0002 L11.999,19.0002 L11.999,19.9312 C8.388,19.4782 5.522,16.6132 5.068,13.0002 L5.999,13.0002 L5.999,11.0002 L5.068,11.0002 C5.522,7.3892 8.388,4.5242 11.999,4.0712 L11.999,5.0002 L13.999,5.0002 L13.999,4.0712 C17.61,4.5242 20.476,7.3892 20.93,11.0002 L19.999,11.0002 L19.999,13.0002 L20.93,13.0002 C20.476,16.6132 17.611,19.4782 13.999,19.9312 L13.999,19.9312 Z M24.999,11.0002 L22.948,11.0002 C22.478,6.2842 18.716,2.5232 13.999,2.0522 L13.999,0.0002 L11.999,0.0002 L11.999,2.0522 C7.282,2.5232 3.52,6.2842 3.05,11.0002 L0.999,11.0002 L0.999,13.0002 L3.05,13.0002 C3.52,17.7182 7.282,21.4792 11.999,21.9502 L11.999,24.0002 L13.999,24.0002 L13.999,21.9502 C18.716,21.4792 22.478,17.7182 22.948,13.0002 L24.999,13.0002 L24.999,11.0002 Z" id="Fill-863"></path>
            </g>
        </g>
    </g>
</svg>