<?xml version="1.0" encoding="UTF-8"?>
<svg width="17px" height="24px" viewBox="0 0 17 24" version="1.1" xmlns="http://www.w3.org/2000/svg" xmlns:xlink="http://www.w3.org/1999/xlink">
    <!-- Generator: Sketch 42 (36781) - http://www.bohemiancoding.com/sketch -->
    <title>Fill 873 + Fill 874 + Fill 875</title>
    <desc>Created with Sketch.</desc>
    <defs></defs>
    <g id="Page-1" stroke="none" stroke-width="1" fill="none" fill-rule="evenodd">
        <g id="Line-Icons" transform="translate(-243.000000, -1535.000000)" fill="#767676">
            <g id="Fill-873-+-Fill-874-+-Fill-875" transform="translate(243.000000, 1535.000000)">
                <path d="M8.9834,22.0005 C6.3404,22.0005 5.1464,21.5265 3.9534,16.7575 C3.7944,16.1235 3.6634,15.5035 3.5514,14.9025 L13.0624,19.6575 C12.1054,21.7355 10.9424,22.0005 8.9834,22.0005 M2.9834,8.0005 C2.9834,4.5235 5.5064,2.0005 8.9834,2.0005 C12.4604,2.0005 14.9834,4.5235 14.9844,8.0535 C14.9864,8.0805 15.0694,9.8415 14.7894,12.3805 L8.0404,14.9105 L3.1894,12.4855 C2.8944,9.8855 2.9814,8.0625 2.9834,8.0005 M13.7414,17.7615 L10.4824,16.1315 L14.4624,14.6395 C14.2454,15.8575 14.0124,16.8255 13.7414,17.7615 M16.9834,8.0005 C16.9834,3.3645 13.6194,0.0005 8.9834,0.0005 C4.3474,0.0005 0.9834,3.3645 0.9844,7.9465 C0.9754,8.1205 0.7694,12.2665 2.0134,17.2435 C3.2924,22.3585 4.9864,24.0005 8.9834,24.0005 C12.9804,24.0005 14.6744,22.3585 15.9534,17.2435 C17.1974,12.2665 16.9914,8.1205 16.9834,8.0005" id="Fill-873"></path>
                <path d="M8.9834,5.0005 C10.6374,5.0005 11.9834,6.3465 11.9834,8.0005 C11.9834,9.6545 10.6374,11.0005 8.9834,11.0005 C7.3294,11.0005 5.9834,9.6545 5.9834,8.0005 C5.9834,6.3465 7.3294,5.0005 8.9834,5.0005 M8.9834,13.0005 C11.7404,13.0005 13.9834,10.7575 13.9834,8.0005 C13.9834,5.2435 11.7404,3.0005 8.9834,3.0005 C6.2264,3.0005 3.9834,5.2435 3.9834,8.0005 C3.9834,10.7575 6.2264,13.0005 8.9834,13.0005" id="Fill-874"></path>
                <path d="M8.9834,10.0005 C9.5354,10.0005 9.9834,9.5535 9.9834,9.0005 C9.9834,8.4485 9.5354,8.0005 8.9834,8.0005 C8.4314,8.0005 7.9834,8.4485 7.9834,9.0005 C7.9834,9.5535 8.4314,10.0005 8.9834,10.0005" id="Fill-875"></path>
            </g>
        </g>
    </g>
</svg>