<?xml version="1.0" encoding="UTF-8"?>
<svg width="22px" height="20px" viewBox="0 0 22 20" version="1.1" xmlns="http://www.w3.org/2000/svg" xmlns:xlink="http://www.w3.org/1999/xlink">
    <!-- Generator: Sketch 42 (36781) - http://www.bohemiancoding.com/sketch -->
    <title>Fill 807 + Fill 808 + Fill 809</title>
    <desc>Created with Sketch.</desc>
    <defs></defs>
    <g id="Page-1" stroke="none" stroke-width="1" fill="none" fill-rule="evenodd">
        <g id="Line-Icons" transform="translate(-433.000000, -1345.000000)" fill="#767676">
            <g id="Fill-807-+-Fill-808-+-Fill-809" transform="translate(432.000000, 1345.000000)">
                <path d="M11.9941,17.7109 C10.9561,16.8439 9.5361,15.5269 8.1791,14.0009 L5.5571,14.0009 C8.1211,17.2199 11.1651,19.6199 11.3851,19.7899 C11.5651,19.9299 11.7821,20.0009 11.9991,20.0009 C12.2161,20.0009 12.4321,19.9299 12.6131,19.7899 C12.8091,19.6369 15.2601,17.7059 17.6091,15.0009 L14.8951,15.0009 C13.7281,16.2029 12.6401,17.1659 11.9941,17.7109" id="Fill-807"></path>
                <path d="M4.103,7.0005 C4.042,6.6625 3.999,6.3275 3.999,6.0005 C3.999,3.5705 5.569,2.0005 7.999,2.0005 C9.288,2.0005 10.351,2.9395 10.786,4.0005 L13.212,4.0005 C13.647,2.9395 14.71,2.0005 15.999,2.0005 C18.429,2.0005 19.999,3.5705 19.999,6.0005 C19.999,6.6535 19.866,7.3245 19.649,8.0005 L21.711,8.0005 C21.884,7.3325 21.999,6.6635 21.999,6.0005 C21.999,2.4675 19.532,0.0005 15.999,0.0005 C14.405,0.0005 12.928,0.8375 11.999,2.0805 C11.07,0.8375 9.593,0.0005 7.999,0.0005 C4.466,0.0005 1.999,2.4675 1.999,6.0005 C1.999,6.3325 2.037,6.6665 2.082,7.0005 L4.103,7.0005 Z" id="Fill-808"></path>
                <polygon id="Fill-809" points="19.6963 10.0005 17.2073 11.6595 13.0823 6.5035 8.9993 10.5865 5.9993 7.5865 3.5853 10.0005 0.9993 10.0005 0.9993 12.0005 4.4133 12.0005 5.9993 10.4155 8.9993 13.4155 12.9163 9.4975 16.7913 14.3415 20.3013 12.0005 22.9993 12.0005 22.9993 10.0005"></polygon>
            </g>
        </g>
    </g>
</svg>