<?xml version="1.0" encoding="UTF-8"?>
<svg width="24px" height="18px" viewBox="0 0 24 18" version="1.1" xmlns="http://www.w3.org/2000/svg" xmlns:xlink="http://www.w3.org/1999/xlink">
    <!-- Generator: Sketch 42 (36781) - http://www.bohemiancoding.com/sketch -->
    <title>Fill 333</title>
    <desc>Created with Sketch.</desc>
    <defs></defs>
    <g id="Page-1" stroke="none" stroke-width="1" fill="none" fill-rule="evenodd">
        <g id="Line-Icons" transform="translate(-48.000000, -242.000000)" fill="#757575">
            <g id="Fill-333" transform="translate(48.000000, 242.000000)">
                <path d="M21,16.0005 L3,16.0005 C2.91,16.0005 2.749,15.8755 2.728,15.7885 L2.281,14.0005 L8.586,14.0005 L9.293,14.7075 C9.48,14.8955 9.735,15.0005 10,15.0005 L14,15.0005 C14.265,15.0005 14.52,14.8955 14.707,14.7075 L15.414,14.0005 L21.719,14.0005 L21.273,15.7885 C21.251,15.8755 21.09,16.0005 21,16.0005 L21,16.0005 Z M3,2.0005 L21,2.0005 L21,12.0005 L15,12.0005 C14.735,12.0005 14.48,12.1065 14.293,12.2935 L13.586,13.0005 L10.414,13.0005 L9.707,12.2935 C9.52,12.1065 9.265,12.0005 9,12.0005 L3,12.0005 L3,2.0005 Z M23.243,12.0305 C23.161,12.0095 23.081,12.0195 23,12.0195 L23,12.0005 L23,1.0005 C23,0.4485 22.552,0.0005 22,0.0005 L2,0.0005 C1.448,0.0005 1,0.4485 1,1.0005 L1,12.0005 L1,12.0195 C0.919,12.0195 0.839,12.0095 0.757,12.0305 C0.222,12.1645 -0.104,12.7075 0.03,13.2435 L0.788,16.2745 C1.034,17.2585 1.985,18.0005 3,18.0005 L21,18.0005 C22.015,18.0005 22.967,17.2575 23.213,16.2735 L23.97,13.2435 C24.104,12.7075 23.778,12.1645 23.243,12.0305 L23.243,12.0305 Z"></path>
            </g>
        </g>
    </g>
</svg>