<?xml version="1.0" encoding="UTF-8"?>
<svg width="20px" height="17px" viewBox="0 0 20 17" version="1.1" xmlns="http://www.w3.org/2000/svg" xmlns:xlink="http://www.w3.org/1999/xlink">
    <!-- Generator: Sketch 42 (36781) - http://www.bohemiancoding.com/sketch -->
    <title>Fill 68</title>
    <desc>Created with Sketch.</desc>
    <defs></defs>
    <g id="Page-1" stroke="none" stroke-width="1" fill="none" fill-rule="evenodd">
        <g id="Line-Icons" transform="translate(-2.000000, -1490.000000)" fill="#767676">
            <g id="Fill-68" transform="translate(1.000000, 1490.000000)">
                <path d="M17.5518,7.6587 L16.4468,7.1057 C16.1368,6.9517 15.7678,6.9677 15.4728,7.1497 C15.1788,7.3327 14.9988,7.6537 14.9988,8.0007 L14.9988,15.0007 L6.9988,15.0007 L6.9988,8.0007 C6.9988,7.6537 6.8198,7.3327 6.5248,7.1497 C6.2298,6.9677 5.8618,6.9517 5.5518,7.1057 L4.4468,7.6587 L3.2668,5.2997 L6.3328,3.0007 L7.5848,3.0007 L9.9988,5.4147 L9.9988,9.0007 L11.9988,9.0007 L11.9988,5.4147 L14.4128,3.0007 L15.6658,3.0007 L18.7318,5.2997 L17.5518,7.6587 Z M12.5848,2.0007 L10.9988,3.5867 L9.4128,2.0007 L12.5848,2.0007 Z M20.5988,4.2007 L16.5988,1.2007 C16.4258,1.0707 16.2148,1.0007 15.9988,1.0007 L14.4128,1.0007 L13.7058,0.2937 C13.5188,0.1057 13.2638,0.0007 12.9988,0.0007 L8.9988,0.0007 C8.7338,0.0007 8.4798,0.1057 8.2918,0.2937 L7.5848,1.0007 L5.9988,1.0007 C5.7828,1.0007 5.5718,1.0707 5.3988,1.2007 L1.3988,4.2007 C1.0118,4.4897 0.8888,5.0157 1.1048,5.4477 L3.1048,9.4477 C3.3518,9.9417 3.9508,10.1437 4.4468,9.8947 L4.9988,9.6187 L4.9988,16.0007 C4.9988,16.5527 5.4468,17.0007 5.9988,17.0007 L15.9988,17.0007 C16.5508,17.0007 16.9988,16.5527 16.9988,16.0007 L16.9988,9.6187 L17.5518,9.8947 C18.0478,10.1427 18.6468,9.9417 18.8938,9.4477 L20.8938,5.4477 C21.1098,5.0157 20.9858,4.4897 20.5988,4.2007 L20.5988,4.2007 Z"></path>
            </g>
        </g>
    </g>
</svg>