<?xml version="1.0" encoding="UTF-8"?>
<svg width="17px" height="20px" viewBox="0 0 17 20" version="1.1" xmlns="http://www.w3.org/2000/svg" xmlns:xlink="http://www.w3.org/1999/xlink">
    <!-- Generator: Sketch 42 (36781) - http://www.bohemiancoding.com/sketch -->
    <title>Fill 216 + Fill 217</title>
    <desc>Created with Sketch.</desc>
    <defs></defs>
    <g id="Page-1" stroke="none" stroke-width="1" fill="none" fill-rule="evenodd">
        <g id="Line-Icons" transform="translate(-100.000000, -145.000000)" fill="#757575">
            <g id="Fill-216-+-Fill-217" transform="translate(100.000000, 145.000000)">
                <path d="M2,18.0005 L10,18.0005 L10,16.0005 C10,15.4485 10.448,15.0005 11,15.0005 L13,15.0005 L13,11.0005 C13,10.4485 13.448,10.0005 14,10.0005 L14.733,10.0005 C14.692,9.8215 14.651,9.6435 14.611,9.4655 C13.489,4.5605 12.685,2.0005 8,2.0005 C4.691,2.0005 2,4.6915 2,8.0005 L2,18.0005 Z M11,20.0005 L1,20.0005 C0.448,20.0005 0,19.5525 0,19.0005 L0,8.0005 C0,3.5895 3.589,0.0005 8,0.0005 C14.498,0.0005 15.546,4.5865 16.56,9.0205 C16.691,9.5915 16.824,10.1735 16.97,10.7575 C17.045,11.0565 16.977,11.3735 16.788,11.6155 C16.599,11.8585 16.308,12.0005 16,12.0005 L15,12.0005 L15,15.0005 C15,16.1035 14.103,17.0005 13,17.0005 L12,17.0005 L12,19.0005 C12,19.5525 11.552,20.0005 11,20.0005 L11,20.0005 Z" id="Fill-216"></path>
                <path d="M8,11.9888 C8,11.9888 12,9.0808 12,6.9248 C12,4.8778 8.889,3.9888 8,6.6768 C7.111,3.9888 4,4.8778 4,6.9248 C4,9.0808 8,11.9888 8,11.9888" id="Fill-217"></path>
            </g>
        </g>
    </g>
</svg>