<?xml version="1.0" encoding="UTF-8"?>
<svg width="20px" height="24px" viewBox="0 0 20 24" version="1.1" xmlns="http://www.w3.org/2000/svg" xmlns:xlink="http://www.w3.org/1999/xlink">
    <!-- Generator: Sketch 42 (36781) - http://www.bohemiancoding.com/sketch -->
    <title>Fill 81 + Fill 82</title>
    <desc>Created with Sketch.</desc>
    <defs></defs>
    <g id="Page-1" stroke="none" stroke-width="1" fill="none" fill-rule="evenodd">
        <g id="Line-Icons" transform="translate(-98.000000, -1295.000000)" fill="#767676">
            <g id="Fill-81-+-Fill-82" transform="translate(98.000000, 1295.000000)">
                <path d="M13.6284,19.9297 L18.0004,21.6777 L18.0004,22.0007 L6.0004,22.0007 L6.0004,21.6197 L9.4474,19.8947 C9.7864,19.7257 10.0004,19.3797 10.0004,19.0007 L10.0004,17.0007 L10.0004,13.0007 L18.0004,13.0007 L18.0004,14.3247 L13.6284,16.0727 C13.2494,16.2247 13.0004,16.5917 13.0004,17.0007 L13.0004,19.0007 C13.0004,19.4097 13.2494,19.7777 13.6284,19.9297 L13.6284,19.9297 Z M3.5914,15.0867 L2.8684,14.0007 L8.0004,14.0007 L8.0004,15.8207 L3.5914,15.0867 Z M19.3714,15.9297 C19.7514,15.7777 20.0004,15.4097 20.0004,15.0007 L20.0004,12.0007 C20.0004,11.4497 19.5524,11.0007 19.0004,11.0007 L9.0004,11.0007 C8.4474,11.0007 8.0004,11.4497 8.0004,12.0007 L1.0004,12.0007 C0.6314,12.0007 0.2924,12.2037 0.1184,12.5297 C-0.0556,12.8537 -0.0366,13.2487 0.1684,13.5557 L2.1684,16.5557 C2.3214,16.7857 2.5634,16.9417 2.8354,16.9877 L8.0004,17.8487 L8.0004,18.3837 L4.5524,20.1067 C4.2134,20.2757 4.0004,20.6217 4.0004,21.0007 L4.0004,23.0007 C4.0004,23.5537 4.4474,24.0007 5.0004,24.0007 L19.0004,24.0007 C19.5524,24.0007 20.0004,23.5537 20.0004,23.0007 L20.0004,21.0007 C20.0004,20.5917 19.7514,20.2247 19.3714,20.0727 L15.0004,18.3247 L15.0004,17.6777 L19.3714,15.9297 Z" id="Fill-81"></path>
                <path d="M12,2.001 L15,2.001 L15,8.001 L12,8.001 L12,2.001 Z M10,9.001 C10,9.553 10.448,10.001 11,10.001 L16,10.001 C16.552,10.001 17,9.553 17,9.001 L17,1.001 C17,0.45 16.552,0.001 16,0.001 L11,0.001 C10.448,0.001 10,0.45 10,1.001 L10,4.001 L0,4.001 L0,6.001 L10,6.001 L10,9.001 Z" id="Fill-82"></path>
            </g>
        </g>
    </g>
</svg>