<?xml version="1.0" encoding="UTF-8"?>
<svg width="20px" height="20px" viewBox="0 0 20 20" version="1.1" xmlns="http://www.w3.org/2000/svg" xmlns:xlink="http://www.w3.org/1999/xlink">
    <!-- Generator: Sketch 42 (36781) - http://www.bohemiancoding.com/sketch -->
    <title>Fill 399</title>
    <desc>Created with Sketch.</desc>
    <defs></defs>
    <g id="Page-1" stroke="none" stroke-width="1" fill="none" fill-rule="evenodd">
        <g id="Line-Icons" transform="translate(-434.000000, -337.000000)" fill="#757575">
            <g id="Fill-399" transform="translate(434.000000, 337.000000)">
                <path d="M18,5.04 C18,5.344 17.863,5.63 17.625,5.821 L15.994,7.125 C15.995,7.083 16,7.042 16,7 L16,3 L18,3 L18,5.04 Z M10,11 C7.794,11 6,9.207 6,7 L6,2 L14,2 L14,7 C14,9.207 12.206,11 10,11 L10,11 Z M2.376,5.821 C2.137,5.63 2,5.344 2,5.04 L2,3 L4,3 L4,7 C4,7.042 4.005,7.083 4.006,7.125 L2.376,5.821 Z M12,18 L8,18 L8,17 L12,17 L12,18 Z M19,1 L15.722,1 C15.375,0.406 14.737,0 14,0 L6,0 C5.263,0 4.625,0.406 4.278,1 L1,1 C0.448,1 0,1.449 0,2 L0,5.04 C0,5.955 0.41,6.81 1.126,7.382 L5.304,10.725 C6.207,11.86 7.51,12.659 9,12.91 L9,15 L7,15 C6.448,15 6,15.449 6,16 L6,18 L5,18 L5,20 L7,20 L13,20 L15,20 L15,18 L14,18 L14,16 C14,15.449 13.552,15 13,15 L11,15 L11,12.91 C12.49,12.659 13.793,11.86 14.696,10.725 L18.875,7.382 C19.59,6.81 20,5.955 20,5.04 L20,2 C20,1.449 19.552,1 19,1 L19,1 Z"></path>
            </g>
        </g>
    </g>
</svg>