<?xml version="1.0" encoding="UTF-8"?>
<svg width="20px" height="20px" viewBox="0 0 20 20" version="1.1" xmlns="http://www.w3.org/2000/svg" xmlns:xlink="http://www.w3.org/1999/xlink">
    <!-- Generator: Sketch 42 (36781) - http://www.bohemiancoding.com/sketch -->
    <title>Fill 393</title>
    <desc>Created with Sketch.</desc>
    <defs></defs>
    <g id="Page-1" stroke="none" stroke-width="1" fill="none" fill-rule="evenodd">
        <g id="Line-Icons" transform="translate(-290.000000, -337.000000)" fill="#757575">
            <g id="Fill-393" transform="translate(290.000000, 337.000000)">
                <path d="M18,10 L14,10 L14,8 L18,8 L18,10 Z M17,18 L14,18 L14,12 L17,12 L17,18 Z M13.293,2.294 C13.482,2.105 13.733,2.001 14,2.001 C14.267,2.001 14.518,2.105 14.707,2.293 C15.096,2.684 15.097,3.319 14.707,3.707 C14.116,4.299 13.057,4.643 12.174,4.828 C12.358,3.944 12.703,2.885 13.293,2.294 L13.293,2.294 Z M12,10 L8,10 L8,8 L12,8 L12,10 Z M12,18 L8,18 L8,12 L12,12 L12,18 Z M5.293,3.707 C5.104,3.519 5,3.267 5,3 C5,2.734 5.104,2.483 5.293,2.293 C5.482,2.105 5.732,2.001 6,2.001 C6.267,2.001 6.518,2.105 6.707,2.294 C7.297,2.884 7.641,3.942 7.825,4.824 C6.945,4.64 5.88,4.295 5.293,3.707 L5.293,3.707 Z M6,10 L2,10 L2,8 L6,8 L6,10 Z M6,18 L3,18 L3,12 L6,12 L6,18 Z M18,6 L14.885,6 C15.336,5.766 15.764,5.479 16.121,5.122 C17.29,3.953 17.29,2.05 16.121,0.88 C14.987,-0.253 13.013,-0.253 11.879,0.88 C10.243,2.516 10.02,5.597 10,5.943 C9.98,5.597 9.757,2.516 8.121,0.88 C6.987,-0.253 5.011,-0.252 3.879,0.88 C3.312,1.446 3,2.199 3,3 C3,3.802 3.312,4.555 3.878,5.122 C4.236,5.479 4.663,5.766 5.115,6 L2,6 C0.897,6 0,6.898 0,8 L0,11 C0,11.553 0.448,12 1,12 L1,18 C1,19.103 1.897,20 3,20 L17,20 C18.103,20 19,19.103 19,18 L19,12 C19.552,12 20,11.553 20,11 L20,8 C20,6.898 19.103,6 18,6 L18,6 Z"></path>
            </g>
        </g>
    </g>
</svg>