<?xml version="1.0" encoding="UTF-8"?>
<svg width="20px" height="21px" viewBox="0 0 20 21" version="1.1" xmlns="http://www.w3.org/2000/svg" xmlns:xlink="http://www.w3.org/1999/xlink">
    <!-- Generator: Sketch 42 (36781) - http://www.bohemiancoding.com/sketch -->
    <title>Fill 633</title>
    <desc>Created with Sketch.</desc>
    <defs></defs>
    <g id="Page-1" stroke="none" stroke-width="1" fill="none" fill-rule="evenodd">
        <g id="Line-Icons" transform="translate(-386.000000, -1009.000000)" fill="#767676">
            <g id="Fill-633" transform="translate(386.000000, 1009.000000)">
                <path d="M3,4.0015 L4.5,2.0015 L15.5,2.0015 L17,4.0015 L3,4.0015 Z M11.719,10.0015 L11.219,12.0015 L8.781,12.0015 L8.281,10.0015 L11.719,10.0015 Z M15,15.0015 L5,15.0015 L5,6.0015 L9,6.0015 L9,8.0015 L7,8.0015 C6.692,8.0015 6.401,8.1435 6.212,8.3865 C6.022,8.6285 5.955,8.9455 6.03,9.2435 L7.03,13.2435 C7.141,13.6895 7.541,14.0015 8,14.0015 L12,14.0015 C12.459,14.0015 12.859,13.6895 12.97,13.2435 L13.97,9.2435 C14.045,8.9455 13.978,8.6285 13.788,8.3865 C13.599,8.1435 13.308,8.0015 13,8.0015 L11,8.0015 L11,6.0015 L15,6.0015 L15,15.0015 Z M15,19.0015 L5,19.0015 L5,17.0015 L15,17.0015 L15,19.0015 Z M19.8,4.4025 L16.8,0.4025 C16.611,0.1505 16.315,0.0015 16,0.0015 L4,0.0015 C3.685,0.0015 3.389,0.1505 3.2,0.4025 L0.2,4.4025 C-0.027,4.7055 -0.064,5.1105 0.105,5.4485 C0.275,5.7875 0.621,6.0015 1,6.0015 L3,6.0015 L3,15.0015 L1,15.0015 L1,17.0015 L3,17.0015 L3,20.0015 C3,20.5535 3.448,21.0015 4,21.0015 L16,21.0015 C16.552,21.0015 17,20.5535 17,20.0015 L17,17.0015 L19,17.0015 L19,15.0015 L17,15.0015 L17,6.0015 L19,6.0015 C19.379,6.0015 19.725,5.7875 19.895,5.4485 C20.064,5.1105 20.027,4.7055 19.8,4.4025 L19.8,4.4025 Z"></path>
            </g>
        </g>
    </g>
</svg>