<?xml version="1.0" encoding="UTF-8"?>
<svg width="20px" height="19px" viewBox="0 0 20 19" version="1.1" xmlns="http://www.w3.org/2000/svg" xmlns:xlink="http://www.w3.org/1999/xlink">
    <!-- Generator: Sketch 42 (36781) - http://www.bohemiancoding.com/sketch -->
    <title>Fill 268</title>
    <desc>Created with Sketch.</desc>
    <defs></defs>
    <g id="Page-1" stroke="none" stroke-width="1" fill="none" fill-rule="evenodd">
        <g id="Line-Icons" transform="translate(-338.000000, -2.000000)" fill="#757575">
            <g id="Fill-268" transform="translate(338.000000, 2.000000)">
                <path d="M15.5,17.0005 C14.122,17.0005 13,15.8785 13,14.5005 C13,13.1225 14.122,12.0005 15.5,12.0005 C16.878,12.0005 18,13.1225 18,14.5005 C18,15.8785 16.878,17.0005 15.5,17.0005 L15.5,17.0005 Z M13,4.0005 L13,2.7265 C13,2.3255 13.326,2.0005 13.726,2.0005 C14.046,2.0005 14.325,2.2065 14.419,2.5135 L16.788,10.2105 C16.377,10.0865 15.951,10.0005 15.5,10.0005 C14.575,10.0005 13.716,10.2825 13,10.7625 L13,10.0005 L13,4.0005 Z M9,6.0005 L11,6.0005 L11,8.0005 L9,8.0005 L9,6.0005 Z M7,10.7625 C6.284,10.2825 5.425,10.0005 4.5,10.0005 C4.049,10.0005 3.623,10.0865 3.212,10.2105 L5.581,2.5135 C5.675,2.2065 5.954,2.0005 6.274,2.0005 C6.674,2.0005 7,2.3255 7,2.7265 L7,4.0005 L7,10.0005 L7,10.7625 Z M4.5,17.0005 C3.122,17.0005 2,15.8785 2,14.5005 C2,13.1225 3.122,12.0005 4.5,12.0005 C5.878,12.0005 7,13.1225 7,14.5005 C7,15.8785 5.878,17.0005 4.5,17.0005 L4.5,17.0005 Z M19.956,13.7065 L16.331,1.9255 C15.976,0.7745 14.929,0.0005 13.726,0.0005 C12.223,0.0005 11,1.2235 11,2.7265 L11,4.0005 L9,4.0005 L9,2.7265 C9,1.2235 7.777,0.0005 6.274,0.0005 C5.071,0.0005 4.024,0.7745 3.669,1.9255 L0.044,13.7065 C0.015,13.8015 0,13.9005 0,14.0005 L0,14.5005 C0,16.9825 2.019,19.0005 4.5,19.0005 C6.981,19.0005 9,16.9825 9,14.5005 L9,10.0005 L11,10.0005 L11,14.5005 C11,16.9825 13.019,19.0005 15.5,19.0005 C17.981,19.0005 20,16.9825 20,14.5005 L20,14.0005 C20,13.9005 19.985,13.8015 19.956,13.7065 L19.956,13.7065 Z"></path>
            </g>
        </g>
    </g>
</svg>