<?xml version="1.0" encoding="UTF-8"?>
<svg width="20px" height="19px" viewBox="0 0 20 19" version="1.1" xmlns="http://www.w3.org/2000/svg" xmlns:xlink="http://www.w3.org/1999/xlink">
    <!-- Generator: Sketch 42 (36781) - http://www.bohemiancoding.com/sketch -->
    <title>Fill 632</title>
    <desc>Created with Sketch.</desc>
    <defs></defs>
    <g id="Page-1" stroke="none" stroke-width="1" fill="none" fill-rule="evenodd">
        <g id="Line-Icons" transform="translate(-338.000000, -1009.000000)" fill="#767676">
            <g id="Fill-632" transform="translate(338.000000, 1009.000000)">
                <path d="M2.3892,17.0034 L2.7222,16.0034 L17.2812,16.0034 L17.6142,17.0034 L2.3892,17.0034 Z M5.0022,7.0034 L7.0022,7.0034 L7.0022,14.0034 L5.0022,14.0034 L5.0022,7.0034 Z M3.0022,4.6974 L10.0022,2.0714 L17.0022,4.6974 L17.0022,5.0034 L3.0022,5.0034 L3.0022,4.6974 Z M11.0022,14.0034 L9.0022,14.0034 L9.0022,7.0034 L11.0022,7.0034 L11.0022,14.0034 Z M15.0022,14.0034 L13.0022,14.0034 L13.0022,7.0034 L15.0022,7.0034 L15.0022,14.0034 Z M19.9512,17.6874 L18.9512,14.6874 C18.8142,14.2794 18.4322,14.0034 18.0022,14.0034 L17.0022,14.0034 L17.0022,7.0034 L18.0022,7.0034 C18.5542,7.0034 19.0022,6.5554 19.0022,6.0034 L19.0022,4.0034 C19.0022,3.5864 18.7432,3.2134 18.3532,3.0664 L10.3532,0.0664 C10.1262,-0.0176 9.8772,-0.0176 9.6512,0.0664 L1.6512,3.0664 C1.2612,3.2134 1.0022,3.5864 1.0022,4.0034 L1.0022,6.0034 C1.0022,6.5554 1.4502,7.0034 2.0022,7.0034 L3.0022,7.0034 L3.0022,14.0034 L2.0022,14.0034 C1.5712,14.0034 1.1892,14.2794 1.0532,14.6874 L0.0532,17.6874 C-0.0488,17.9924 0.0032,18.3274 0.1912,18.5884 C0.3792,18.8494 0.6812,19.0034 1.0022,19.0034 L19.0022,19.0034 C19.3232,19.0034 19.6252,18.8494 19.8132,18.5884 C20.0012,18.3274 20.0522,17.9924 19.9512,17.6874 L19.9512,17.6874 Z"></path>
            </g>
        </g>
    </g>
</svg>