<?xml version="1.0" encoding="UTF-8"?>
<svg width="12px" height="20px" viewBox="0 0 12 20" version="1.1" xmlns="http://www.w3.org/2000/svg" xmlns:xlink="http://www.w3.org/1999/xlink">
    <!-- Generator: Sketch 42 (36781) - http://www.bohemiancoding.com/sketch -->
    <title>Fill 650 + Fill 651</title>
    <desc>Created with Sketch.</desc>
    <defs></defs>
    <g id="Page-1" stroke="none" stroke-width="1" fill="none" fill-rule="evenodd">
        <g id="Line-Icons" transform="translate(-342.000000, -1058.000000)" fill="#767676">
            <g id="Fill-650-+-Fill-651" transform="translate(342.000000, 1058.000000)">
                <path d="M2,17.0005 L2,8.0005 L10,8.0005 L10.001,17.0005 L2,17.0005 Z M10,6.0005 L7,6.0005 L7,2.0005 L10,2.0005 L10,0.0005 L2,0.0005 L2,2.0005 L5,2.0005 L5,6.0005 L2,6.0005 C0.897,6.0005 0,6.8965 0,8.0005 L0,17.0005 C0,18.1035 0.897,19.0005 2,19.0005 L2,20.0005 L4,20.0005 L4,19.0005 L8,19.0005 L8,20.0005 L10,20.0005 L10,19.0005 C11.103,19.0005 12,18.1035 12,17.0005 L12,8.0005 C12,6.8965 11.103,6.0005 10,6.0005 L10,6.0005 Z" id="Fill-650"></path>
                <polygon id="Fill-651" points="4 11.0005 6 11.0005 6 12.0005 8 12.0005 8 9.0005 4 9.0005"></polygon>
            </g>
        </g>
    </g>
</svg>