<?xml version="1.0" encoding="UTF-8"?>
<svg width="22px" height="22px" viewBox="0 0 22 22" version="1.1" xmlns="http://www.w3.org/2000/svg" xmlns:xlink="http://www.w3.org/1999/xlink">
    <!-- Generator: Sketch 42 (36781) - http://www.bohemiancoding.com/sketch -->
    <title>Fill 263</title>
    <desc>Created with Sketch.</desc>
    <defs></defs>
    <g id="Page-1" stroke="none" stroke-width="1" fill="none" fill-rule="evenodd">
        <g id="Line-Icons" transform="translate(-1.000000, -1.000000)" fill="#757575">
            <g id="Fill-263" transform="translate(1.000000, 1.000000)">
                <path d="M7.3652,20.0005 C8.8622,18.9955 9.7602,17.2925 9.9582,15.0005 L12.0402,15.0005 C12.2242,17.2015 13.0362,18.8385 14.4622,19.8755 C14.5212,19.9185 14.5812,19.9605 14.6412,20.0005 L7.3652,20.0005 Z M9.0002,9.0005 L4.6362,9.0005 C3.3272,9.0005 2.0002,8.1885 2.0002,6.6365 C2.0002,5.1835 3.1822,4.0005 4.6362,4.0005 C5.5392,4.0005 6.2152,4.2625 6.6472,4.7775 C6.9012,5.0825 7.3092,5.2065 7.6892,5.0985 C8.0692,4.9895 8.3492,4.6665 8.4042,4.2745 C8.5862,2.9785 9.7022,2.0005 11.0002,2.0005 C12.2982,2.0005 13.4142,2.9785 13.5952,4.2745 C13.6502,4.6665 13.9302,4.9895 14.3112,5.0985 C14.6902,5.2065 15.0992,5.0825 15.3532,4.7775 C15.7842,4.2625 16.4612,4.0005 17.3632,4.0005 C18.8172,4.0005 20.0002,5.1835 20.0002,6.6365 C20.0002,8.1885 18.6732,9.0005 17.3632,9.0005 L13.0002,9.0005 C12.4482,9.0005 12.0002,9.4485 12.0002,10.0005 L12.0002,13.0005 L10.0002,13.0005 L10.0002,10.0005 C10.0002,9.4485 9.5522,9.0005 9.0002,9.0005 L9.0002,9.0005 Z M19.7542,19.0155 L19.5822,19.0005 C19.5242,19.0005 19.4282,19.0065 19.2982,19.0165 C19.1182,19.0285 18.8472,19.0495 18.5162,19.0495 C15.7962,19.0495 14.3362,17.7155 14.0582,15.0005 L18.0002,15.0005 L18.0002,13.0005 L14.0002,13.0005 L14.0002,11.0005 L17.3632,11.0005 C20.0072,11.0005 22.0002,9.1245 22.0002,6.6365 C22.0002,4.0805 19.9202,2.0005 17.3632,2.0005 C16.5092,2.0005 15.7432,2.1685 15.0922,2.4925 C14.3102,1.0035 12.7492,0.0005 11.0002,0.0005 C9.2502,0.0005 7.6892,1.0035 6.9072,2.4925 C6.2562,2.1685 5.4912,2.0005 4.6362,2.0005 C2.0802,2.0005 0.0002,4.0805 0.0002,6.6365 C0.0002,9.1245 1.9932,11.0005 4.6362,11.0005 L8.0002,11.0005 L8.0002,13.0005 L4.0002,13.0005 L4.0002,15.0005 L7.9422,15.0005 C7.6632,17.7155 6.2042,19.0495 3.4832,19.0495 C3.1532,19.0495 2.8812,19.0285 2.7022,19.0165 C2.5722,19.0065 2.4752,19.0005 2.4182,19.0005 L2.2462,19.0155 C1.4712,19.1505 0.9382,19.8425 1.0062,20.6255 C1.0732,21.4095 1.7172,22.0005 2.5042,22.0005 L19.4962,22.0005 C20.2822,22.0005 20.9272,21.4095 20.9942,20.6255 C21.0612,19.8425 20.5282,19.1505 19.7542,19.0155 L19.7542,19.0155 Z"></path>
            </g>
        </g>
    </g>
</svg>