<?xml version="1.0" encoding="UTF-8"?>
<svg width="24px" height="25px" viewBox="0 0 24 25" version="1.1" xmlns="http://www.w3.org/2000/svg" xmlns:xlink="http://www.w3.org/1999/xlink">
    <!-- Generator: Sketch 42 (36781) - http://www.bohemiancoding.com/sketch -->
    <title>Fill 546 + Fill 547</title>
    <desc>Created with Sketch.</desc>
    <defs></defs>
    <g id="Page-1" stroke="none" stroke-width="1" fill="none" fill-rule="evenodd">
        <g id="Line-Icons" transform="translate(-288.000000, -767.000000)" fill="#757575">
            <g id="Fill-546-+-Fill-547" transform="translate(288.000000, 767.000000)">
                <path d="M17.6914,14.0005 L18.8024,9.0005 L20.0004,9.0005 L20.0004,7.0005 L16.5804,7.0005 L12.8684,0.5045 L11.1314,1.4965 L14.2764,7.0005 L5.7234,7.0005 L8.8684,1.4965 L7.1314,0.5045 L3.4194,7.0005 L0.0004,7.0005 L0.0004,9.0005 L1.1974,9.0005 L3.0234,17.2185 C3.1254,17.6755 3.5314,18.0005 4.0004,18.0005 L13.0004,18.0005 L13.0004,16.0005 L4.8024,16.0005 L3.2464,9.0005 L16.7534,9.0005 L15.6424,14.0005 L17.6914,14.0005 Z" id="Fill-546"></path>
                <polygon id="Fill-547" points="24 19.0005 21 19.0005 21 16.0005 19 16.0005 19 19.0005 16 19.0005 16 21.0005 19 21.0005 19 24.0005 21 24.0005 21 21.0005 24 21.0005"></polygon>
            </g>
        </g>
    </g>
</svg>