<?xml version="1.0" encoding="UTF-8"?>
<svg width="16px" height="20px" viewBox="0 0 16 20" version="1.1" xmlns="http://www.w3.org/2000/svg" xmlns:xlink="http://www.w3.org/1999/xlink">
    <!-- Generator: Sketch 42 (36781) - http://www.bohemiancoding.com/sketch -->
    <title>Fill 837 + Fill 838</title>
    <desc>Created with Sketch.</desc>
    <defs></defs>
    <g id="Page-1" stroke="none" stroke-width="1" fill="none" fill-rule="evenodd">
        <g id="Line-Icons" transform="translate(-244.000000, -1441.000000)" fill="#767676">
            <g id="Fill-837-+-Fill-838" transform="translate(243.000000, 1441.000000)">
                <path d="M9.1968,12.0005 L7.9988,12.0005 L7.9988,9.0005 L5.9988,9.0005 L5.9988,12.0005 L4.8008,12.0005 L3.2458,5.0005 L10.7528,5.0005 L9.1968,12.0005 Z M10.9988,18.0005 L2.9988,18.0005 L2.9988,16.3035 L4.5338,14.0005 L9.4638,14.0005 L10.9988,16.3035 L10.9988,18.0005 Z M10.2778,2.0005 L10.6118,3.0005 L3.3858,3.0005 L3.7198,2.0005 L10.2778,2.0005 Z M13.9988,3.0005 L12.7198,3.0005 L11.9478,0.6845 C11.8118,0.2755 11.4298,0.0005 10.9988,0.0005 L2.9988,0.0005 C2.5688,0.0005 2.1868,0.2755 2.0498,0.6845 L1.0498,3.6845 C0.9928,3.8555 0.9838,4.0405 1.0228,4.2175 L2.9298,12.8015 L1.1668,15.4455 C1.0578,15.6095 0.9988,15.8035 0.9988,16.0005 L0.9988,19.0005 C0.9988,19.5525 1.4468,20.0005 1.9988,20.0005 L11.9988,20.0005 C12.5508,20.0005 12.9988,19.5525 12.9988,19.0005 L12.9988,16.0005 C12.9988,15.8035 12.9408,15.6095 12.8308,15.4455 L11.0678,12.8015 L12.8008,5.0005 L13.9988,5.0005 C14.5498,5.0005 14.9988,5.4495 14.9988,6.0005 L14.9988,13.0005 L16.9988,13.0005 L16.9988,6.0005 C16.9988,4.3455 15.6528,3.0005 13.9988,3.0005 L13.9988,3.0005 Z" id="Fill-837"></path>
                <path d="M6.999,15.0005 C6.447,15.0005 5.999,15.4475 5.999,16.0005 C5.999,16.5525 6.447,17.0005 6.999,17.0005 C7.551,17.0005 7.999,16.5525 7.999,16.0005 C7.999,15.4475 7.551,15.0005 6.999,15.0005" id="Fill-838"></path>
            </g>
        </g>
    </g>
</svg>