<?xml version="1.0" encoding="UTF-8"?>
<svg width="20px" height="23px" viewBox="0 0 20 23" version="1.1" xmlns="http://www.w3.org/2000/svg" xmlns:xlink="http://www.w3.org/1999/xlink">
    <!-- Generator: Sketch 42 (36781) - http://www.bohemiancoding.com/sketch -->
    <title>Fill 534</title>
    <desc>Created with Sketch.</desc>
    <defs></defs>
    <g id="Page-1" stroke="none" stroke-width="1" fill="none" fill-rule="evenodd">
        <g id="Line-Icons" transform="translate(-2.000000, -768.000000)" fill="#757575">
            <g id="Fill-534" transform="translate(1.000000, 768.000000)">
                <path d="M18.8867,20.4624 C18.7147,20.7944 18.3747,21.0004 17.9997,21.0004 L3.9997,21.0004 C3.6257,21.0004 3.2857,20.7944 3.1137,20.4634 C2.9407,20.1304 2.9667,19.7344 3.1337,19.4884 L5.1807,17.0004 L16.8217,17.0004 L18.8197,19.4274 C19.0337,19.7344 19.0597,20.1304 18.8867,20.4624 L18.8867,20.4624 Z M8.7717,12.6364 C8.9197,12.4574 8.9997,12.2334 8.9997,12.0004 L8.9997,5.0004 L12.9997,5.0004 L12.9997,6.0004 L10.9997,6.0004 L10.9997,8.0004 L12.9997,8.0004 L12.9997,9.0004 L9.9997,9.0004 L9.9997,11.0004 L12.9997,11.0004 L12.9997,12.0004 C12.9997,12.2334 13.0807,12.4574 13.2277,12.6364 L15.1747,15.0004 L6.8257,15.0004 L8.7717,12.6364 Z M6.9997,2.0004 L14.9997,2.0004 L14.9997,3.0004 L6.9997,3.0004 L6.9997,2.0004 Z M20.4107,18.2184 L14.9997,11.6424 L14.9997,5.0004 L15.9997,5.0004 C16.5517,5.0004 16.9997,4.5534 16.9997,4.0004 L16.9997,1.0004 C16.9997,0.4484 16.5517,0.0004 15.9997,0.0004 L5.9997,0.0004 C5.4477,0.0004 4.9997,0.4484 4.9997,1.0004 L4.9997,4.0004 C4.9997,4.5534 5.4477,5.0004 5.9997,5.0004 L6.9997,5.0004 L6.9997,11.6424 L1.5417,18.2804 C0.8987,19.2004 0.8207,20.3904 1.3387,21.3864 C1.8577,22.3824 2.8767,23.0004 3.9997,23.0004 L17.9997,23.0004 C19.1227,23.0004 20.1427,22.3824 20.6607,21.3864 C21.1787,20.3904 21.1017,19.2004 20.4107,18.2184 L20.4107,18.2184 Z"></path>
            </g>
        </g>
    </g>
</svg>