<?xml version="1.0" encoding="UTF-8"?>
<svg width="19px" height="19px" viewBox="0 0 19 19" version="1.1" xmlns="http://www.w3.org/2000/svg" xmlns:xlink="http://www.w3.org/1999/xlink">
    <!-- Generator: Sketch 42 (36781) - http://www.bohemiancoding.com/sketch -->
    <title>Fill 346 + Fill 347</title>
    <desc>Created with Sketch.</desc>
    <defs></defs>
    <g id="Page-1" stroke="none" stroke-width="1" fill="none" fill-rule="evenodd">
        <g id="Line-Icons" transform="translate(-145.000000, -243.000000)" fill="#757575">
            <g id="Fill-346-+-Fill-347" transform="translate(145.000000, 243.000000)">
                <polygon id="Fill-346" points="11 0.0005 11 2.0005 15.586 2.0005 9.293 8.2935 10.707 9.7075 17 3.4145 17 8.0005 19 8.0005 19 0.0005"></polygon>
                <path d="M12,17.0005 C6.486,17.0005 2,12.5155 2,7.0005 L2,2.0005 L6,2.0005 L6,6.0005 L5,6.0005 C4.732,6.0005 4.475,6.1075 4.287,6.2985 C4.099,6.4905 3.996,6.7485 4,7.0165 C4.072,11.5675 7.512,15.0005 12,15.0005 C12.552,15.0005 13,14.5525 13,14.0005 L13,13.0005 L17,13.0005 L17.001,17.0005 L12,17.0005 Z M17,11.0005 L13,11.0005 C11.923,11.0005 11.042,11.8555 11.001,12.9225 C8.459,12.5185 6.529,10.5825 6.092,7.9985 C7.152,7.9505 8,7.0735 8,6.0005 L8,2.0005 C8,0.8975 7.103,0.0005 6,0.0005 L2,0.0005 C0.897,0.0005 0,0.8975 0,2.0005 L0,7.0005 C0,13.6175 5.383,19.0005 12,19.0005 L17,19.0005 C18.103,19.0005 19,18.1035 19,17.0005 L19,13.0005 C19,11.8975 18.103,11.0005 17,11.0005 L17,11.0005 Z" id="Fill-347"></path>
            </g>
        </g>
    </g>
</svg>