<?xml version="1.0" encoding="UTF-8"?>
<svg width="20px" height="22px" viewBox="0 0 20 22" version="1.1" xmlns="http://www.w3.org/2000/svg" xmlns:xlink="http://www.w3.org/1999/xlink">
    <!-- Generator: Sketch 42 (36781) - http://www.bohemiancoding.com/sketch -->
    <title>Fill 252 + Fill 253</title>
    <desc>Created with Sketch.</desc>
    <defs></defs>
    <g id="Page-1" stroke="none" stroke-width="1" fill="none" fill-rule="evenodd">
        <g id="Line-Icons" transform="translate(-98.000000, -95.000000)" fill="#757575">
            <g id="Fill-252-+-Fill-253" transform="translate(98.000000, 95.000000)">
                <polygon id="Fill-252" points="9 4.415 9 13 11 13 11 4.415 13.293 6.707 14.707 5.293 10 0.586 5.293 5.293 6.707 6.707"></polygon>
                <path d="M18,20.0005 L2,20.0005 L2,16.0005 L5.586,16.0005 L7.586,18.0005 L12.414,18.0005 L14.414,16.0005 L18,16.0005 L18,20.0005 Z M13.586,14.0005 L11.586,16.0005 L8.414,16.0005 L6.414,14.0005 L0,14.0005 L0,22.0005 L20,22.0005 L20,14.0005 L13.586,14.0005 Z" id="Fill-253"></path>
            </g>
        </g>
    </g>
</svg>