<?xml version="1.0" encoding="UTF-8"?>
<svg width="16px" height="22px" viewBox="0 0 16 22" version="1.1" xmlns="http://www.w3.org/2000/svg" xmlns:xlink="http://www.w3.org/1999/xlink">
    <!-- Generator: Sketch 42 (36781) - http://www.bohemiancoding.com/sketch -->
    <title>Fill 715 + Fill 716</title>
    <desc>Created with Sketch.</desc>
    <defs></defs>
    <g id="Page-1" stroke="none" stroke-width="1" fill="none" fill-rule="evenodd">
        <g id="Line-Icons" transform="translate(-388.000000, -1152.000000)" fill="#767676">
            <g id="Fill-715-+-Fill-716" transform="translate(387.000000, 1152.000000)">
                <path d="M7.8184,2.3213 C7.9014,2.2903 8.1584,2.2183 8.7564,2.2183 C10.0794,2.2183 11.9514,2.5563 13.2244,2.8243 C12.0624,4.4343 10.4674,6.3133 9.4504,6.6933 C8.5654,7.0233 7.5674,6.7463 6.9384,6.0953 L10.3204,4.9613 L9.8444,3.5403 L6.3204,4.7203 C6.2274,3.6983 6.8124,2.6973 7.8184,2.3213 L7.8184,2.3213 Z M2.9394,7.4343 L4.9454,6.7623 C5.7234,8.0273 7.1154,8.8413 8.6344,8.8413 C9.1524,8.8413 9.6624,8.7483 10.1514,8.5673 C12.4884,7.6933 15.2324,3.4773 16.4714,1.5443 C15.4714,1.2923 11.4434,0.2183 8.7564,0.2183 C8.0684,0.2183 7.5324,0.2933 7.1184,0.4473 C5.0984,1.2023 3.9874,3.3123 4.4014,5.3633 L2.4634,6.0123 L2.9394,7.4343 Z" id="Fill-715"></path>
                <path d="M12.999,17 L14.999,17 L14.999,18 L12.999,18 L12.999,17 Z M6.999,17 L10.999,17 L10.999,18 L6.999,18 L6.999,17 Z M2.999,17 L4.999,17 L4.999,18 L2.999,18 L2.999,17 Z M5.565,12 L12.433,12 L14.233,15 L3.765,15 L5.565,12 Z M16.856,15.486 L13.856,10.486 C13.676,10.185 13.35,10 12.999,10 L4.999,10 C4.648,10 4.322,10.185 4.142,10.486 L1.142,15.486 C1.048,15.642 0.999,15.819 0.999,16 L0.999,19 C0.999,19.552 1.447,20 1.999,20 L2.999,20 L2.999,20.5 C2.999,21.328 3.672,22 4.499,22 C5.326,22 5.999,21.328 5.999,20.5 L5.999,20 L11.999,20 L11.999,20.5 C11.999,21.328 12.672,22 13.499,22 C14.326,22 14.999,21.328 14.999,20.5 L14.999,20 L15.999,20 C16.551,20 16.999,19.552 16.999,19 L16.999,16 C16.999,15.819 16.95,15.642 16.856,15.486 L16.856,15.486 Z" id="Fill-716"></path>
            </g>
        </g>
    </g>
</svg>