<?xml version="1.0" encoding="UTF-8"?>
<svg width="20px" height="20px" viewBox="0 0 20 20" version="1.1" xmlns="http://www.w3.org/2000/svg" xmlns:xlink="http://www.w3.org/1999/xlink">
    <!-- Generator: Sketch 42 (36781) - http://www.bohemiancoding.com/sketch -->
    <title>Fill 820</title>
    <desc>Created with Sketch.</desc>
    <defs></defs>
    <g id="Page-1" stroke="none" stroke-width="1" fill="none" fill-rule="evenodd">
        <g id="Line-Icons" transform="translate(-2.000000, -1441.000000)" fill="#767676">
            <g id="Fill-820" transform="translate(2.000000, 1441.000000)">
                <path d="M16.293,9.2935 C13.726,11.8605 10.274,12.8595 8.707,11.2935 C7.167,9.7535 8.064,6.3505 10.707,3.7075 C11.485,2.9295 12.478,2.5005 13.5,2.5005 C14.523,2.5005 15.515,2.9295 16.293,3.7075 C17.911,5.3255 17.911,7.6755 16.293,9.2935 L16.293,9.2935 Z M7.586,13.0005 L6.293,14.2935 C6.105,14.4805 6,14.7355 6,15.0005 L6,17.0005 C6,17.5515 5.551,18.0005 5,18.0005 C4.571,18.0005 4.211,17.7265 4.07,17.3445 L4.707,16.7075 L3.293,15.2935 L2.656,15.9315 C2.275,15.7895 2,15.4295 2,15.0005 C2,14.4495 2.449,14.0005 3,14.0005 L5,14.0005 C5.265,14.0005 5.52,13.8955 5.707,13.7075 L7,12.4145 L7.586,13.0005 Z M17.707,2.2935 C16.551,1.1375 15.057,0.5005 13.5,0.5005 C11.943,0.5005 10.449,1.1375 9.293,2.2935 C6.715,4.8715 5.568,8.0485 6.105,10.4815 L4.586,12.0005 L3,12.0005 C1.346,12.0005 1.42108547e-14,13.3465 1.42108547e-14,15.0005 C1.42108547e-14,16.3525 0.898,17.4975 2.129,17.8715 C2.503,19.1025 3.648,20.0005 5,20.0005 C6.654,20.0005 8,18.6545 8,17.0005 L8,15.4145 L9.521,13.8945 C9.911,13.9805 10.314,14.0405 10.745,14.0405 C13.017,14.0405 15.62,12.7945 17.707,10.7075 C20.106,8.3095 20.106,4.6915 17.707,2.2935 L17.707,2.2935 Z"></path>
            </g>
        </g>
    </g>
</svg>