<?xml version="1.0" encoding="UTF-8"?>
<svg width="17px" height="18px" viewBox="0 0 17 18" version="1.1" xmlns="http://www.w3.org/2000/svg" xmlns:xlink="http://www.w3.org/1999/xlink">
    <!-- Generator: Sketch 42 (36781) - http://www.bohemiancoding.com/sketch -->
    <title>Fill 479 + Fill 480</title>
    <desc>Created with Sketch.</desc>
    <defs></defs>
    <g id="Page-1" stroke="none" stroke-width="1" fill="none" fill-rule="evenodd">
        <g id="Line-Icons" transform="translate(-148.000000, -626.000000)" fill="#757575">
            <g id="Fill-479-+-Fill-480" transform="translate(148.000000, 626.000000)">
                <path d="M2,13.9556 L2.001,4.0456 L8.372,9.0006 L2,13.9556 Z M10.371,9.0006 C10.371,8.3796 10.09,7.8046 9.599,7.4226 L3.227,2.4666 C2.639,2.0086 1.789,1.9226 1.121,2.2496 C0.44,2.5826 0,3.2876 0,4.0456 L0,13.9556 C0,14.7136 0.44,15.4186 1.121,15.7526 C1.813,16.0906 2.627,16.0026 3.228,15.5356 L9.6,10.5786 C10.09,10.1966 10.371,9.6216 10.371,9.0006 L10.371,9.0006 Z" id="Fill-479"></path>
                <path d="M16.6245,8.2202 L6.6245,0.2202 L5.3755,1.7822 L14.3995,9.0002 L5.3755,16.2202 L6.6245,17.7822 L16.6245,9.7822 C16.8615,9.5932 17.0005,9.3042 17.0005,9.0002 C17.0005,8.6972 16.8615,8.4092 16.6245,8.2202" id="Fill-480"></path>
            </g>
        </g>
    </g>
</svg>