<?xml version="1.0" encoding="UTF-8"?>
<svg width="20px" height="20px" viewBox="0 0 20 20" version="1.1" xmlns="http://www.w3.org/2000/svg" xmlns:xlink="http://www.w3.org/1999/xlink">
    <!-- Generator: Sketch 42 (36781) - http://www.bohemiancoding.com/sketch -->
    <title>Fill 168</title>
    <desc>Created with Sketch.</desc>
    <defs></defs>
    <g id="Page-1" stroke="none" stroke-width="1" fill="none" fill-rule="evenodd">
        <g id="Line-Icons" transform="translate(-242.000000, -529.000000)" fill="#757575">
            <g id="Fill-168" transform="translate(242.000000, 529.000000)">
                <path d="M14,6.0005 L14,2.0005 L18,2.0005 L18.001,6.0005 L14,6.0005 Z M2,18.0005 L2,14.0005 L6,14.0005 L6.001,18.0005 L2,18.0005 Z M18,0.0005 L14,0.0005 C12.897,0.0005 12,0.8985 12,2.0005 L12,6.0005 C12,6.1785 12.031,6.3475 12.075,6.5115 L6.511,12.0755 C6.347,12.0315 6.178,12.0005 6,12.0005 L2,12.0005 C0.897,12.0005 0,12.8985 0,14.0005 L0,18.0005 C0,19.1035 0.897,20.0005 2,20.0005 L6,20.0005 C7.103,20.0005 8,19.1035 8,18.0005 L8,14.0005 C8,13.8235 7.969,13.6535 7.925,13.4895 L13.489,7.9255 C13.653,7.9695 13.822,8.0005 14,8.0005 L18,8.0005 C19.103,8.0005 20,7.1035 20,6.0005 L20,2.0005 C20,0.8985 19.103,0.0005 18,0.0005 L18,0.0005 Z"></path>
            </g>
        </g>
    </g>
</svg>