<?xml version="1.0" encoding="UTF-8"?>
<svg width="16px" height="21px" viewBox="0 0 16 21" version="1.1" xmlns="http://www.w3.org/2000/svg" xmlns:xlink="http://www.w3.org/1999/xlink">
    <!-- Generator: Sketch 42 (36781) - http://www.bohemiancoding.com/sketch -->
    <title>Fill 600 + Fill 601</title>
    <desc>Created with Sketch.</desc>
    <defs></defs>
    <g id="Page-1" stroke="none" stroke-width="1" fill="none" fill-rule="evenodd">
        <g id="Line-Icons" transform="translate(-436.000000, -961.000000)" fill="#767676">
            <g id="Fill-600-+-Fill-601" transform="translate(436.000000, 961.000000)">
                <path d="M8.0005,17.655 C5.8705,15.658 2.0005,11.339 2.0005,8 C2.0005,4.692 4.6915,2 8.0005,2 C11.3095,2 14.0005,4.692 14.0005,8 C14.0005,11.339 10.1305,15.658 8.0005,17.655 M8.0005,0 C3.5895,0 0.0005,3.589 0.0005,8 C0.0005,12.411 4.6445,17.441 8.0005,20.319 C11.3545,17.443 16.0005,12.412 16.0005,8 C16.0005,3.589 12.4115,0 8.0005,0" id="Fill-600"></path>
                <path d="M10.0005,9.0005 C9.4475,9.0005 9.0005,8.5535 9.0005,8.0005 C9.0005,7.4475 9.4475,7.0005 10.0005,7.0005 C10.5535,7.0005 11.0005,7.4475 11.0005,8.0005 C11.0005,8.5535 10.5535,9.0005 10.0005,9.0005 M6.0005,9.0005 C5.4475,9.0005 5.0005,8.5535 5.0005,8.0005 C5.0005,7.4475 5.4475,7.0005 6.0005,7.0005 C6.5535,7.0005 7.0005,7.4475 7.0005,8.0005 C7.0005,8.5535 6.5535,9.0005 6.0005,9.0005 M8.0005,4.0005 C5.7945,4.0005 4.0005,5.7945 4.0005,8.0005 L4.0005,10.0005 L5.0005,10.0005 L5.0005,11.0005 C5.0005,11.5535 5.4475,12.0005 6.0005,12.0005 L10.0005,12.0005 C10.5535,12.0005 11.0005,11.5535 11.0005,11.0005 L11.0005,10.0005 L12.0005,10.0005 L12.0005,8.0005 C12.0005,5.7945 10.2065,4.0005 8.0005,4.0005" id="Fill-601"></path>
            </g>
        </g>
    </g>
</svg>