<?xml version="1.0" encoding="UTF-8"?>
<svg width="23px" height="19px" viewBox="0 0 23 19" version="1.1" xmlns="http://www.w3.org/2000/svg" xmlns:xlink="http://www.w3.org/1999/xlink">
    <!-- Generator: Sketch 42 (36781) - http://www.bohemiancoding.com/sketch -->
    <title>Fill 300 + Fill 301 + Fill 302</title>
    <desc>Created with Sketch.</desc>
    <defs></defs>
    <g id="Page-1" stroke="none" stroke-width="1" fill="none" fill-rule="evenodd">
        <g id="Line-Icons" transform="translate(-288.000000, -148.000000)" fill="#757575">
            <g id="Fill-300-+-Fill-301-+-Fill-302" transform="translate(288.000000, 148.000000)">
                <path d="M8,5.0005 C6.897,5.0005 6,5.8965 6,7.0005 C6,8.1035 6.897,9.0005 8,9.0005 C9.103,9.0005 10,8.1035 10,7.0005 C10,5.8965 9.103,5.0005 8,5.0005 M8,11.0005 C5.794,11.0005 4,9.2065 4,7.0005 C4,4.7945 5.794,3.0005 8,3.0005 C10.206,3.0005 12,4.7945 12,7.0005 C12,9.2065 10.206,11.0005 8,11.0005" id="Fill-300"></path>
                <path d="M2.1587,17.0005 L13.8417,17.0005 C13.2437,15.1925 11.0077,14.0005 7.9997,14.0005 C4.9917,14.0005 2.7567,15.1925 2.1587,17.0005 L2.1587,17.0005 Z M15.9997,19.0005 L-0.0003,19.0005 L-0.0003,18.0005 C-0.0003,14.4675 3.2897,12.0005 7.9997,12.0005 C12.7107,12.0005 15.9997,14.4675 15.9997,18.0005 L15.9997,19.0005 Z" id="Fill-301"></path>
                <polygon id="Fill-302" points="17 7.4146 13.293 3.7066 14.707 2.2936 17 4.5866 21.293 0.2936 22.707 1.7066"></polygon>
            </g>
        </g>
    </g>
</svg>