<?xml version="1.0" encoding="UTF-8"?>
<svg width="22px" height="20px" viewBox="0 0 22 20" version="1.1" xmlns="http://www.w3.org/2000/svg" xmlns:xlink="http://www.w3.org/1999/xlink">
    <!-- Generator: Sketch 42 (36781) - http://www.bohemiancoding.com/sketch -->
    <title>Group</title>
    <desc>Created with Sketch.</desc>
    <defs></defs>
    <g id="Page-1" stroke="none" stroke-width="1" fill="none" fill-rule="evenodd">
        <g id="Line-Icons" transform="translate(-1.000000, -1250.000000)" fill="#767676">
            <g id="Group" transform="translate(1.000000, 1250.000000)">
                <path d="M7.001,15.0025 C7.553,15.0025 8.001,14.5545 8.001,14.0025 C8.001,13.4505 7.553,13.0025 7.001,13.0025 C6.449,13.0025 6.001,13.4505 6.001,14.0025 C6.001,14.5545 6.449,15.0025 7.001,15.0025" id="Fill-740"></path>
                <path d="M15.001,15.0025 C15.553,15.0025 16.001,14.5545 16.001,14.0025 C16.001,13.4505 15.553,13.0025 15.001,13.0025 C14.449,13.0025 14.001,13.4505 14.001,14.0025 C14.001,14.5545 14.449,15.0025 15.001,15.0025" id="Fill-741"></path>
                <polygon id="Fill-742" points="20.001 9.003 22.001 9.003 22.001 5.003 20.001 5.003"></polygon>
                <polygon id="Fill-743" points="0.001 9.003 2.001 9.003 2.001 5.003 0.001 5.003"></polygon>
                <path d="M5.001,2.003 L17.001,2.003 L17.001,4.003 L5.001,4.003 L5.001,2.003 Z M17.001,16.003 L5.001,16.003 L5.001,12.003 L17.001,12.003 L17.001,16.003 Z M5.001,6.003 L17.001,6.003 L17.001,10.003 L5.001,10.003 L5.001,6.003 Z M17.001,0.003 L5.001,0.003 C3.898,0.003 3.001,0.899 3.001,2.003 L3.001,18.003 C3.001,19.107 3.896,20.003 5.001,20.003 C6.105,20.003 7.001,19.107 7.001,18.003 L15.001,18.003 C15.001,19.107 15.896,20.003 17.001,20.003 C18.105,20.003 19.001,19.107 19.001,18.003 L19.001,2.003 C19.001,0.899 18.104,0.003 17.001,0.003 L17.001,0.003 Z" id="Fill-744"></path>
            </g>
        </g>
    </g>
</svg>