<?xml version="1.0" encoding="UTF-8"?>
<svg width="24px" height="20px" viewBox="0 0 24 20" version="1.1" xmlns="http://www.w3.org/2000/svg" xmlns:xlink="http://www.w3.org/1999/xlink">
    <!-- Generator: Sketch 42 (36781) - http://www.bohemiancoding.com/sketch -->
    <title>Group</title>
    <desc>Created with Sketch.</desc>
    <defs></defs>
    <g id="Page-1" stroke="none" stroke-width="1" fill="none" fill-rule="evenodd">
        <g id="Line-Icons" transform="translate(-144.000000, -769.000000)" fill="#757575">
            <g id="Group" transform="translate(144.000000, 769.000000)">
                <path d="M22,5.0005 L20,5.0005 L20,3.0005 C20,2.4485 20.449,2.0005 21,2.0005 C21.551,2.0005 22,2.4485 22,3.0005 L22,5.0005 Z M18,16.0005 C18,16.5525 17.551,17.0005 17,17.0005 C16.446,17.0005 16,16.4535 16,16.0005 C16,14.4585 14.542,13.0005 13,13.0005 L11,13.0005 L11,3.0005 C11,2.4485 11.449,2.0005 12,2.0005 L18.184,2.0005 C18.072,2.3155 18,2.6485 18,3.0005 L18,16.0005 Z M13,15.0005 C13.449,15.0005 14,15.5525 14,16.0005 C14,16.3485 14.077,16.6835 14.197,17.0005 L10.367,17.0005 C10.738,16.0005 11.486,15.0005 13,15.0005 L13,15.0005 Z M8.071,18.0005 L2.326,18.0005 C2.799,16.6785 3.7,15.0005 5,15.0005 L9.164,15.0005 C8.534,15.9315 8.203,17.0405 8.071,18.0005 L8.071,18.0005 Z M21,0.0005 L12,0.0005 C10.346,0.0005 9,1.3465 9,3.0005 L9,13.0005 L5,13.0005 C1.224,13.0005 0.067,18.5675 0.02,18.8045 C-0.04,19.0985 0.037,19.4025 0.227,19.6345 C0.417,19.8665 0.7,20.0005 1,20.0005 L9,20.0005 C9.552,20.0005 10,19.5525 10,19.0005 L17,19.0005 C18.654,19.0005 20,17.6545 20,16.0005 L20,7.0005 L23,7.0005 C23.552,7.0005 24,6.5525 24,6.0005 L24,3.0005 C24,1.3465 22.654,0.0005 21,0.0005 L21,0.0005 Z" id="Fill-537"></path>
                <polygon id="Fill-538" points="12 6 17 6 17 4 12 4"></polygon>
                <polygon id="Fill-539" points="12 9 17 9 17 7 12 7"></polygon>
                <polygon id="Fill-540" points="12 12 17 12 17 10 12 10"></polygon>
            </g>
        </g>
    </g>
</svg>