<?xml version="1.0" encoding="UTF-8"?>
<svg width="18px" height="20px" viewBox="0 0 18 20" version="1.1" xmlns="http://www.w3.org/2000/svg" xmlns:xlink="http://www.w3.org/1999/xlink">
    <!-- Generator: Sketch 42 (36781) - http://www.bohemiancoding.com/sketch -->
    <title>Group</title>
    <desc>Created with Sketch.</desc>
    <defs></defs>
    <g id="Page-1" stroke="none" stroke-width="1" fill="none" fill-rule="evenodd">
        <g id="Line-Icons" transform="translate(-435.000000, -1297.000000)" fill="#767676">
            <g id="Group" transform="translate(435.000000, 1297.000000)">
                <path d="M16.001,18.001 L2.001,18.001 L2.001,12.001 L3.001,12.001 L3.001,16.001 C3.001,16.553 3.449,17.001 4.001,17.001 L14.001,17.001 C14.553,17.001 15.001,16.553 15.001,16.001 L15.001,12.001 L16.001,12.001 L16.001,18.001 Z M5.001,12.001 L13.001,12.001 L13.001,15.001 L5.001,15.001 L5.001,12.001 Z M17.001,10.001 L1.001,10.001 C0.449,10.001 0.001,10.45 0.001,11.001 L0.001,19.001 C0.001,19.553 0.449,20.001 1.001,20.001 L17.001,20.001 C17.553,20.001 18.001,19.553 18.001,19.001 L18.001,11.001 C18.001,10.45 17.553,10.001 17.001,10.001 L17.001,10.001 Z" id="Fill-775"></path>
                <polygon id="Fill-776" points="10.001 0.001 8.001 0.001 8.001 3.001 10.001 3.001"></polygon>
                <polygon id="Fill-777" points="3.708 3.2944 1.708 1.2944 0.294 2.7074 2.294 4.7074"></polygon>
                <polygon id="Fill-778" points="17.708 2.7075 16.294 1.2945 14.294 3.2945 15.708 4.7075"></polygon>
                <path d="M1.001,9.0029 L3.001,9.0029 C3.001,8.4519 3.45,8.0029 4.001,8.0029 C4.297,8.0029 4.517,8.1389 4.648,8.2529 C4.893,8.4629 5.222,8.5429 5.535,8.4659 C5.848,8.3909 6.105,8.1709 6.227,7.8719 C6.69,6.7369 7.779,6.0029 9.001,6.0029 C10.223,6.0029 11.312,6.7369 11.775,7.8719 C11.897,8.1709 12.154,8.3909 12.467,8.4659 C12.78,8.5429 13.109,8.4629 13.353,8.2529 C13.485,8.1389 13.705,8.0029 14.001,8.0029 C14.552,8.0029 15.001,8.4519 15.001,9.0029 L17.001,9.0029 C17.001,7.3489 15.655,6.0029 14.001,6.0029 C13.694,6.0029 13.391,6.0519 13.101,6.1439 C12.18,4.8179 10.665,4.0029 9.001,4.0029 C7.337,4.0029 5.822,4.8179 4.901,6.1439 C4.611,6.0519 4.308,6.0029 4.001,6.0029 C2.347,6.0029 1.001,7.3489 1.001,9.0029" id="Fill-779"></path>
                <path d="M9.001,12.501 C8.449,12.501 8.001,12.95 8.001,13.501 C8.001,14.054 8.449,14.501 9.001,14.501 C9.553,14.501 10.001,14.054 10.001,13.501 C10.001,12.95 9.553,12.501 9.001,12.501" id="Fill-780"></path>
            </g>
        </g>
    </g>
</svg>