<?xml version="1.0" encoding="UTF-8"?>
<svg width="24px" height="20px" viewBox="0 0 24 20" version="1.1" xmlns="http://www.w3.org/2000/svg" xmlns:xlink="http://www.w3.org/1999/xlink">
    <!-- Generator: Sketch 42 (36781) - http://www.bohemiancoding.com/sketch -->
    <title>Group</title>
    <desc>Created with Sketch.</desc>
    <defs></defs>
    <g id="Page-1" stroke="none" stroke-width="1" fill="none" fill-rule="evenodd">
        <g id="Line-Icons" transform="translate(-48.000000, -1105.000000)" fill="#767676">
            <g id="Group" transform="translate(47.000000, 1105.000000)">
                <path d="M19.999,5.0005 C19.448,5.0005 18.999,4.5515 18.999,4.0005 C18.999,3.4495 19.448,3.0005 19.999,3.0005 C20.55,3.0005 20.999,3.4495 20.999,4.0005 C20.999,4.5515 20.55,5.0005 19.999,5.0005 M22.999,4.0005 C22.999,2.3455 21.653,1.0005 19.999,1.0005 C18.345,1.0005 16.999,2.3455 16.999,4.0005 C16.999,5.6545 18.345,7.0005 19.999,7.0005 C21.653,7.0005 22.999,5.6545 22.999,4.0005" id="Fill-656"></path>
                <path d="M22.999,13.0005 L21.999,13.0005 C21.447,13.0005 20.999,13.4485 20.999,14.0005 L20.999,18.0005 L18.999,18.0005 L18.999,14.0005 C18.999,13.4485 18.551,13.0005 17.999,13.0005 L16.999,13.0005 L16.999,12.0005 C16.999,10.3455 18.345,9.0005 19.999,9.0005 C21.653,9.0005 22.999,10.3455 22.999,12.0005 L22.999,13.0005 Z M19.999,7.0005 C17.242,7.0005 14.999,9.2435 14.999,12.0005 L14.999,14.0005 C14.999,14.5515 15.447,15.0005 15.999,15.0005 L16.999,15.0005 L16.999,19.0005 C16.999,19.5515 17.447,20.0005 17.999,20.0005 L21.999,20.0005 C22.551,20.0005 22.999,19.5515 22.999,19.0005 L22.999,15.0005 L23.999,15.0005 C24.551,15.0005 24.999,14.5515 24.999,14.0005 L24.999,12.0005 C24.999,9.2435 22.756,7.0005 19.999,7.0005 L19.999,7.0005 Z" id="Fill-657"></path>
                <polygon id="Fill-658" points="11.999 20 13.999 20 13.999 0 11.999 0"></polygon>
                <path d="M5.999,5.0005 C5.448,5.0005 4.999,4.5515 4.999,4.0005 C4.999,3.4495 5.448,3.0005 5.999,3.0005 C6.55,3.0005 6.999,3.4495 6.999,4.0005 C6.999,4.5515 6.55,5.0005 5.999,5.0005 M8.999,4.0005 C8.999,2.3455 7.653,1.0005 5.999,1.0005 C4.345,1.0005 2.999,2.3455 2.999,4.0005 C2.999,5.6545 4.345,7.0005 5.999,7.0005 C7.653,7.0005 8.999,5.6545 8.999,4.0005" id="Fill-659"></path>
                <path d="M7.998,15.0005 C7.264,15.0005 7.214,15.0005 6.266,18.0005 L5.732,18.0005 C4.822,15.1195 4.738,15.0005 4.081,15.0005 C4.003,15.0005 3.505,15.0195 3.275,15.0185 L3.518,14.0465 C3.971,12.2305 3.971,12.2305 4.239,11.2145 L4.504,10.1995 C4.643,9.5155 5.286,9.0005 5.999,9.0005 C6.712,9.0005 7.355,9.5155 7.506,10.2545 L7.759,11.2145 C8.027,12.2305 8.027,12.2305 8.48,14.0465 L8.723,15.0185 C8.494,15.0205 8.056,15.0005 7.998,15.0005 M9.454,9.8015 C9.124,8.1795 7.671,7.0005 5.999,7.0005 C4.327,7.0005 2.874,8.1795 2.557,9.7465 C1.905,12.2275 2.215,11.0125 1.029,15.7575 C0.955,16.0525 1.019,16.3655 1.204,16.6065 C1.389,16.8485 1.673,16.9935 1.978,17.0005 C1.978,17.0005 2.722,17.0155 3.31,17.0185 C3.501,17.5915 3.788,18.4825 4.045,19.3015 C4.176,19.7175 4.562,20.0005 4.999,20.0005 L6.999,20.0005 C7.436,20.0005 7.822,19.7175 7.953,19.3015 C8.21,18.4825 8.498,17.5915 8.689,17.0185 C9.276,17.0155 10.021,17.0005 10.021,17.0005 C10.325,16.9935 10.609,16.8485 10.794,16.6065 C10.978,16.3655 11.043,16.0525 10.969,15.7575 C9.84,11.2405 10.05,12.0515 9.454,9.8015" id="Fill-660"></path>
            </g>
        </g>
    </g>
</svg>