<?xml version="1.0" encoding="UTF-8"?>
<svg width="20px" height="21px" viewBox="0 0 20 21" version="1.1" xmlns="http://www.w3.org/2000/svg" xmlns:xlink="http://www.w3.org/1999/xlink">
    <!-- Generator: Sketch 42 (36781) - http://www.bohemiancoding.com/sketch -->
    <title>Group</title>
    <desc>Created with Sketch.</desc>
    <defs></defs>
    <g id="Page-1" stroke="none" stroke-width="1" fill="none" fill-rule="evenodd">
        <g id="Line-Icons" transform="translate(-194.000000, -1008.000000)" fill="#767676">
            <g id="Group" transform="translate(194.000000, 1008.000000)">
                <polygon id="Fill-615" points="7.001 8.002 9.001 8.002 9.001 6.002 7.001 6.002"></polygon>
                <polygon id="Fill-616" points="11.001 8.002 13.001 8.002 13.001 6.002 11.001 6.002"></polygon>
                <polygon id="Fill-617" points="7.001 12.002 9.001 12.002 9.001 10.002 7.001 10.002"></polygon>
                <polygon id="Fill-618" points="11.001 12.002 13.001 12.002 13.001 10.002 11.001 10.002"></polygon>
                <polygon id="Fill-619" points="3.001 16.002 5.001 16.002 5.001 14.002 3.001 14.002"></polygon>
                <polygon id="Fill-620" points="7.001 16.002 9.001 16.002 9.001 14.002 7.001 14.002"></polygon>
                <polygon id="Fill-621" points="11.001 16.002 13.001 16.002 13.001 14.002 11.001 14.002"></polygon>
                <polygon id="Fill-622" points="15.001 16.002 17.001 16.002 17.001 14.002 15.001 14.002"></polygon>
                <path d="M18.0015,19.0022 L12.0015,19.0022 L12.0015,17.0022 L8.0015,17.0022 L8.0015,19.0022 L2.0015,19.0022 L2.0015,13.0022 L5.0015,13.0022 C5.5535,13.0022 6.0015,12.5542 6.0015,12.0022 L6.0015,4.0022 L8.0015,4.0022 C8.5535,4.0022 9.0015,3.5542 9.0015,3.0022 L9.0015,2.0022 L11.0015,2.0022 L11.0015,3.0022 C11.0015,3.5542 11.4495,4.0022 12.0015,4.0022 L14.0015,4.0022 L14.0015,12.0022 C14.0015,12.5542 14.4495,13.0022 15.0015,13.0022 L18.0015,13.0022 L18.0015,19.0022 Z M19.0015,11.0022 L16.0015,11.0022 L16.0015,3.0022 C16.0015,2.4502 15.5535,2.0022 15.0015,2.0022 L13.0015,2.0022 L13.0015,1.0022 C13.0015,0.4502 12.5535,0.0022 12.0015,0.0022 L8.0015,0.0022 C7.4495,0.0022 7.0015,0.4502 7.0015,1.0022 L7.0015,2.0022 L5.0015,2.0022 C4.4495,2.0022 4.0015,2.4502 4.0015,3.0022 L4.0015,11.0022 L1.0015,11.0022 C0.4495,11.0022 0.0015,11.4502 0.0015,12.0022 L0.0015,20.0022 C0.0015,20.5542 0.4495,21.0022 1.0015,21.0022 L19.0015,21.0022 C19.5535,21.0022 20.0015,20.5542 20.0015,20.0022 L20.0015,12.0022 C20.0015,11.4502 19.5535,11.0022 19.0015,11.0022 L19.0015,11.0022 Z" id="Fill-623"></path>
            </g>
        </g>
    </g>
</svg>