<?xml version="1.0" encoding="UTF-8"?>
<svg width="21px" height="21px" viewBox="0 0 21 21" version="1.1" xmlns="http://www.w3.org/2000/svg" xmlns:xlink="http://www.w3.org/1999/xlink">
    <!-- Generator: Sketch 42 (36781) - http://www.bohemiancoding.com/sketch -->
    <title>Group</title>
    <desc>Created with Sketch.</desc>
    <defs></defs>
    <g id="Page-1" stroke="none" stroke-width="1" fill="none" fill-rule="evenodd">
        <g id="Line-Icons" transform="translate(-434.000000, -1153.000000)" fill="#767676">
            <g id="Group" transform="translate(433.000000, 1153.000000)">
                <path d="M12.8184,2.3213 C12.9014,2.2903 13.1584,2.2183 13.7564,2.2183 C15.0794,2.2183 16.9514,2.5563 18.2244,2.8243 C17.0624,4.4343 15.4674,6.3133 14.4504,6.6933 C13.5704,7.0213 12.5804,6.7483 11.9504,6.1053 L15.4014,4.9633 L14.9304,3.5383 L11.3214,4.7343 C11.2214,3.7073 11.8074,2.6993 12.8184,2.3213 L12.8184,2.3213 Z M7.9374,7.4353 L9.9494,6.7683 C10.7284,8.0313 12.1184,8.8413 13.6344,8.8413 C14.1524,8.8413 14.6624,8.7483 15.1514,8.5673 C17.4884,7.6933 20.2324,3.4773 21.4714,1.5443 C20.4714,1.2923 16.4434,0.2183 13.7564,0.2183 C13.0684,0.2183 12.5324,0.2933 12.1184,0.4473 C10.0964,1.2023 8.9854,3.3173 9.4034,5.3703 L7.4654,6.0113 L7.9374,7.4353 Z" id="Fill-689"></path>
                <path d="M18.999,19.0005 L2.999,19.0005 L2.999,7.4145 L3.999,8.4145 L3.999,12.0005 C3.999,12.5525 4.447,13.0005 4.999,13.0005 L18.999,13.0005 L18.999,19.0005 Z M19.999,11.0005 L5.999,11.0005 L5.999,8.0005 C5.999,7.7355 5.894,7.4815 5.706,7.2935 L2.706,4.2935 C2.42,4.0075 1.99,3.9215 1.616,4.0765 C1.243,4.2315 0.999,4.5965 0.999,5.0005 L0.999,20.0005 C0.999,20.5525 1.447,21.0005 1.999,21.0005 L19.999,21.0005 C20.551,21.0005 20.999,20.5525 20.999,20.0005 L20.999,12.0005 C20.999,11.4485 20.551,11.0005 19.999,11.0005 L19.999,11.0005 Z" id="Fill-690"></path>
                <polygon id="Fill-691" points="4.999 17 7.999 17 7.999 15 4.999 15"></polygon>
                <polygon id="Fill-692" points="12.999 15 9.999 15 9.999 17 12.999 17"></polygon>
                <polygon id="Fill-693" points="17.999 15 14.999 15 14.999 17 17.999 17"></polygon>
            </g>
        </g>
    </g>
</svg>