<?xml version="1.0" encoding="UTF-8"?>
<svg width="22px" height="16px" viewBox="0 0 22 16" version="1.1" xmlns="http://www.w3.org/2000/svg" xmlns:xlink="http://www.w3.org/1999/xlink">
    <!-- Generator: Sketch 42 (36781) - http://www.bohemiancoding.com/sketch -->
    <title>Group</title>
    <desc>Created with Sketch.</desc>
    <defs></defs>
    <g id="Page-1" stroke="none" stroke-width="1" fill="none" fill-rule="evenodd">
        <g id="Line-Icons" transform="translate(-289.000000, -1351.000000)" fill="#767676">
            <g id="Group" transform="translate(288.000000, 1351.000000)">
                <path d="M18.999,14.0005 L4.999,14.0005 C3.896,14.0005 2.999,13.1025 2.999,12.0005 C2.999,10.8975 3.896,10.0005 4.999,10.0005 L18.999,10.0005 C20.102,10.0005 20.999,10.8975 20.999,12.0005 C20.999,13.1025 20.102,14.0005 18.999,14.0005 L18.999,14.0005 Z M9.676,2.0005 L13.322,2.0005 L14.522,5.0005 L8.476,5.0005 L9.676,2.0005 Z M17.13,8.0005 L6.386,8.0005 L6.72,7.0005 L16.464,7.0005 L17.13,8.0005 Z M19.573,8.0585 L17.831,5.4455 C17.646,5.1675 17.334,5.0005 16.999,5.0005 L16.676,5.0005 L16.276,4.0005 L19.999,4.0005 L19.999,5.0005 L21.999,5.0005 L21.999,1.0005 L19.999,1.0005 L19.999,2.0005 L15.476,2.0005 L14.928,0.6285 C14.775,0.2495 14.408,0.0005 13.999,0.0005 L8.999,0.0005 C8.59,0.0005 8.223,0.2495 8.07,0.6285 L6.322,5.0005 L5.999,5.0005 C5.568,5.0005 5.186,5.2755 5.05,5.6845 L4.253,8.0755 C2.403,8.4275 0.999,10.0495 0.999,12.0005 C0.999,14.2055 2.793,16.0005 4.999,16.0005 L18.999,16.0005 C21.205,16.0005 22.999,14.2055 22.999,12.0005 C22.999,9.9905 21.505,8.3395 19.573,8.0585 L19.573,8.0585 Z" id="Fill-71"></path>
                <path d="M6.999,10.7505 C6.308,10.7505 5.749,11.3115 5.749,12.0005 C5.749,12.6905 6.308,13.2505 6.999,13.2505 C7.69,13.2505 8.249,12.6905 8.249,12.0005 C8.249,11.3115 7.69,10.7505 6.999,10.7505" id="Fill-72"></path>
                <path d="M11.999,10.7505 C11.308,10.7505 10.749,11.3115 10.749,12.0005 C10.749,12.6905 11.308,13.2505 11.999,13.2505 C12.69,13.2505 13.249,12.6905 13.249,12.0005 C13.249,11.3115 12.69,10.7505 11.999,10.7505" id="Fill-73"></path>
                <path d="M16.999,10.7505 C16.308,10.7505 15.749,11.3115 15.749,12.0005 C15.749,12.6905 16.308,13.2505 16.999,13.2505 C17.69,13.2505 18.249,12.6905 18.249,12.0005 C18.249,11.3115 17.69,10.7505 16.999,10.7505" id="Fill-74"></path>
            </g>
        </g>
    </g>
</svg>