<?xml version="1.0" encoding="UTF-8"?>
<svg width="20px" height="20px" viewBox="0 0 20 20" version="1.1" xmlns="http://www.w3.org/2000/svg" xmlns:xlink="http://www.w3.org/1999/xlink">
    <!-- Generator: Sketch 42 (36781) - http://www.bohemiancoding.com/sketch -->
    <title>Group</title>
    <desc>Created with Sketch.</desc>
    <defs></defs>
    <g id="Page-1" stroke="none" stroke-width="1" fill="none" fill-rule="evenodd">
        <g id="Line-Icons" transform="translate(-434.000000, -433.000000)" fill="#757575">
            <g id="Group" transform="translate(434.000000, 433.000000)">
                <path d="M2,12.0005 L2,8.0005 L17.998,8.0005 L17.997,12.0005 L2,12.0005 Z M18,2.0005 L17.999,6.0005 L2,6.0005 L2,2.0005 L18,2.0005 Z M18,0.0005 L2,0.0005 C0.897,0.0005 0,0.8975 0,2.0005 L0,12.0005 C0,13.1035 0.897,14.0005 2,14.0005 L9,14.0005 L9,18.0005 L4,18.0005 L4,20.0005 L16,20.0005 L16,18.0005 L11,18.0005 L11,14.0005 L18,14.0005 C19.103,14.0005 20,13.1035 20,12.0005 L20,2.0005 C20,0.8975 19.103,0.0005 18,0.0005 L18,0.0005 Z" id="Fill-423"></path>
                <polygon id="Fill-424" points="8 3 3 3 3 5 8 5"></polygon>
                <polygon id="Fill-425" points="3 11 8 11 8 9 3 9"></polygon>
                <path d="M18,18.0005 C17.448,18.0005 17,18.4485 17,19.0005 C17,19.5535 17.448,20.0005 18,20.0005 C18.552,20.0005 19,19.5535 19,19.0005 C19,18.4485 18.552,18.0005 18,18.0005" id="Fill-426"></path>
                <path d="M2,18.0005 C1.448,18.0005 1,18.4485 1,19.0005 C1,19.5535 1.448,20.0005 2,20.0005 C2.552,20.0005 3,19.5535 3,19.0005 C3,18.4485 2.552,18.0005 2,18.0005" id="Fill-427"></path>
                <path d="M13,5.0005 C13.552,5.0005 14,4.5535 14,4.0005 C14,3.4485 13.552,3.0005 13,3.0005 C12.448,3.0005 12,3.4485 12,4.0005 C12,4.5535 12.448,5.0005 13,5.0005" id="Fill-428"></path>
                <path d="M16,5.0005 C16.552,5.0005 17,4.5535 17,4.0005 C17,3.4485 16.552,3.0005 16,3.0005 C15.448,3.0005 15,3.4485 15,4.0005 C15,4.5535 15.448,5.0005 16,5.0005" id="Fill-429"></path>
                <path d="M13,9.0005 C12.448,9.0005 12,9.4485 12,10.0005 C12,10.5535 12.448,11.0005 13,11.0005 C13.552,11.0005 14,10.5535 14,10.0005 C14,9.4485 13.552,9.0005 13,9.0005" id="Fill-430"></path>
                <path d="M16,9.0005 C15.448,9.0005 15,9.4485 15,10.0005 C15,10.5535 15.448,11.0005 16,11.0005 C16.552,11.0005 17,10.5535 17,10.0005 C17,9.4485 16.552,9.0005 16,9.0005" id="Fill-431"></path>
            </g>
        </g>
    </g>
</svg>