<?xml version="1.0" encoding="UTF-8"?>
<svg width="20px" height="21px" viewBox="0 0 20 21" version="1.1" xmlns="http://www.w3.org/2000/svg" xmlns:xlink="http://www.w3.org/1999/xlink">
    <!-- Generator: Sketch 42 (36781) - http://www.bohemiancoding.com/sketch -->
    <title>Group</title>
    <desc>Created with Sketch.</desc>
    <defs></defs>
    <g id="Page-1" stroke="none" stroke-width="1" fill="none" fill-rule="evenodd">
        <g id="Line-Icons" transform="translate(-98.000000, -769.000000)" fill="#757575">
            <g id="Group" transform="translate(98.000000, 769.000000)">
                <path d="M18,19 L2,19 L2,17 L18,17 L18,19 Z M3.895,8 L4,8 L16.105,8 L16.883,15 L3.117,15 L3.895,8 Z M5,3.62 L5.553,3.895 C5.834,4.036 6.166,4.036 6.447,3.895 L7,3.62 L7,6 L5,6 L5,3.62 Z M12,2 L16,2 L16,3 L12,3 L12,2 Z M19,15 L18.895,15 L17.994,6.89 C17.937,6.383 17.51,6 17,6 L15,6 L15,5 L17,5 C17.552,5 18,4.553 18,4 L18,1 C18,0.449 17.552,0 17,0 L11,0 C10.448,0 10,0.449 10,1 L10,4 C10,4.553 10.448,5 11,5 L13,5 L13,6 L9,6 L9,2 C9,1.654 8.82,1.332 8.526,1.15 C8.23,0.967 7.863,0.951 7.553,1.107 L6,1.882 L4.447,1.107 C4.137,0.951 3.77,0.967 3.474,1.15 C3.18,1.332 3,1.654 3,2 L3,6 C2.49,6 2.062,6.383 2.006,6.89 L1.105,15 L1,15 C0.448,15 0,15.449 0,16 L0,20 C0,20.553 0.448,21 1,21 L19,21 C19.552,21 20,20.553 20,20 L20,16 C20,15.449 19.552,15 19,15 L19,15 Z" id="Fill-554"></path>
                <polygon id="Fill-555" points="5 11 9 11 9 9 5 9"></polygon>
                <path d="M11,9.0005 C10.448,9.0005 10,9.4485 10,10.0005 C10,10.5535 10.448,11.0005 11,11.0005 C11.552,11.0005 12,10.5535 12,10.0005 C12,9.4485 11.552,9.0005 11,9.0005" id="Fill-556"></path>
                <path d="M14,9.0005 C13.448,9.0005 13,9.4485 13,10.0005 C13,10.5535 13.448,11.0005 14,11.0005 C14.552,11.0005 15,10.5535 15,10.0005 C15,9.4485 14.552,9.0005 14,9.0005" id="Fill-557"></path>
                <path d="M11,12.0005 C10.448,12.0005 10,12.4485 10,13.0005 C10,13.5535 10.448,14.0005 11,14.0005 C11.552,14.0005 12,13.5535 12,13.0005 C12,12.4485 11.552,12.0005 11,12.0005" id="Fill-558"></path>
                <path d="M14,12.0005 C13.448,12.0005 13,12.4485 13,13.0005 C13,13.5535 13.448,14.0005 14,14.0005 C14.552,14.0005 15,13.5535 15,13.0005 C15,12.4485 14.552,12.0005 14,12.0005" id="Fill-559"></path>
            </g>
        </g>
    </g>
</svg>