<?xml version="1.0" encoding="UTF-8"?>
<svg width="24px" height="20px" viewBox="0 0 24 20" version="1.1" xmlns="http://www.w3.org/2000/svg" xmlns:xlink="http://www.w3.org/1999/xlink">
    <!-- Generator: Sketch 42 (36781) - http://www.bohemiancoding.com/sketch -->
    <title>Group</title>
    <desc>Created with Sketch.</desc>
    <defs></defs>
    <g id="Page-1" stroke="none" stroke-width="1" fill="none" fill-rule="evenodd">
        <g id="Line-Icons" transform="translate(-336.000000, -1154.000000)" fill="#767676">
            <g id="Group" transform="translate(335.000000, 1154.000000)">
                <polygon id="Fill-708" points="14 0 12 0 12 2 14 2"></polygon>
                <polygon id="Fill-709" points="18.6558 2.7583 17.2418 1.3443 15.8278 2.7583 17.2418 4.1723"></polygon>
                <polygon id="Fill-710" points="18 8 20 8 20 6 18 6"></polygon>
                <polygon id="Fill-711" points="10.1714 2.7583 8.7574 1.3443 7.3434 2.7583 8.7574 4.1723"></polygon>
                <polygon id="Fill-712" points="8 6 6 6 6 8 8 8"></polygon>
                <path d="M19.6929,18.0005 L17.4429,12.0005 L19.3809,12.0005 L22.3809,18.0005 L19.6929,18.0005 Z M6.6179,12.0005 L8.5569,12.0005 L6.3069,18.0005 L3.6179,18.0005 L6.6179,12.0005 Z M11.9999,18.0005 L8.4429,18.0005 L10.6929,12.0005 L11.9999,12.0005 L11.9999,18.0005 Z M13.9999,12.0005 L15.3069,12.0005 L17.5569,18.0005 L13.9999,18.0005 L13.9999,12.0005 Z M24.8939,18.5535 L20.8939,10.5535 C20.7249,10.2145 20.3779,10.0005 19.9999,10.0005 L5.9999,10.0005 C5.6209,10.0005 5.2749,10.2145 5.1049,10.5535 L1.1049,18.5535 C0.9499,18.8635 0.9669,19.2315 1.1489,19.5275 C1.3309,19.8215 1.6529,20.0005 1.9999,20.0005 L23.9999,20.0005 C24.3459,20.0005 24.6679,19.8215 24.8499,19.5275 C25.0319,19.2315 25.0489,18.8635 24.8939,18.5535 L24.8939,18.5535 Z" id="Fill-713"></path>
                <path d="M12.9995,5.0005 C14.1025,5.0005 14.9995,5.8975 14.9995,7.0005 L10.9995,7.0005 C10.9995,5.8975 11.8965,5.0005 12.9995,5.0005 M9.2405,8.3345 C9.3815,8.7335 9.7595,9.0005 10.1835,9.0005 L15.8155,9.0005 C16.2395,9.0005 16.6175,8.7335 16.7585,8.3345 C16.9205,7.8765 16.9995,7.4405 16.9995,7.0005 C16.9995,4.7945 15.2055,3.0005 12.9995,3.0005 C10.7935,3.0005 8.9995,4.7945 8.9995,7.0005 C8.9995,7.4405 9.0785,7.8765 9.2405,8.3345" id="Fill-714"></path>
            </g>
        </g>
    </g>
</svg>