<?xml version="1.0" encoding="UTF-8"?>
<svg width="21px" height="23px" viewBox="0 0 21 23" version="1.1" xmlns="http://www.w3.org/2000/svg" xmlns:xlink="http://www.w3.org/1999/xlink">
    <!-- Generator: Sketch 42 (36781) - http://www.bohemiancoding.com/sketch -->
    <title>Group</title>
    <desc>Created with Sketch.</desc>
    <defs></defs>
    <g id="Page-1" stroke="none" stroke-width="1" fill="none" fill-rule="evenodd">
        <g id="Line-Icons" transform="translate(-290.000000, -288.000000)" fill="#757575">
            <g id="Group" transform="translate(290.000000, 288.000000)">
                <path d="M2,19 L14,19 L14,21 L2,21 L2,19 Z M14,17 L2,17 L2,7 L10,7 L10,5 L2,5 L2,3 L10,3 L10,1 L2,1 C0.897,1 0,1.897 0,3 L0,21 C0,22.103 0.897,23 2,23 L14,23 C15.103,23 16,22.103 16,21 L16,8 L14,8 L14,17 Z" id="Fill-375"></path>
                <path d="M5,16.0005 L11,16.0005 C11,14.1595 9.841,13.0005 8,13.0005 C6.159,13.0005 5,14.1595 5,16.0005" id="Fill-376"></path>
                <path d="M10,10.0005 C10,8.8965 9.104,8.0005 8,8.0005 C6.896,8.0005 6,8.8965 6,10.0005 C6,11.1045 6.896,12.0005 8,12.0005 C9.104,12.0005 10,11.1045 10,10.0005" id="Fill-377"></path>
                <path d="M18,2.0005 L18,1.0005 C18,0.4475 17.552,0.0005 17,0.0005 L13,0.0005 C12.448,0.0005 12,0.4475 12,1.0005 L12,5.0005 C12,5.5535 12.448,6.0005 13,6.0005 L17,6.0005 C17.552,6.0005 18,5.5535 18,5.0005 L18,4.0005 L21,5.0005 L21,1.0005 L18,2.0005 Z" id="Fill-378"></path>
            </g>
        </g>
    </g>
</svg>