<?xml version="1.0" encoding="UTF-8"?>
<svg width="24px" height="15px" viewBox="0 0 24 15" version="1.1" xmlns="http://www.w3.org/2000/svg" xmlns:xlink="http://www.w3.org/1999/xlink">
    <!-- Generator: Sketch 42 (36781) - http://www.bohemiancoding.com/sketch -->
    <title>Group</title>
    <desc>Created with Sketch.</desc>
    <defs></defs>
    <g id="Page-1" stroke="none" stroke-width="1" fill="none" fill-rule="evenodd">
        <g id="Line-Icons" transform="translate(0.000000, -100.000000)" fill="#757575">
            <g id="Group" transform="translate(0.000000, 100.000000)">
                <path d="M2,2.0005 L2,13.0005 L22.002,13.0005 L22,2.0005 L2,2.0005 Z M22,15.0005 L2,15.0005 C0.897,15.0005 0,14.1035 0,13.0005 L0,2.0005 C0,0.8985 0.897,0.0005 2,0.0005 L22,0.0005 C23.103,0.0005 24,0.8985 24,2.0005 L24,13.0005 C24,14.1035 23.103,15.0005 22,15.0005 L22,15.0005 Z" id="Fill-238"></path>
                <polygon id="Fill-239" points="12 8 4 8 4 6 12 6"></polygon>
                <polygon id="Fill-240" points="12 11 4 11 4 9 12 9"></polygon>
                <polygon id="Fill-241" points="16 7 20 7 20 3 16 3"></polygon>
            </g>
        </g>
    </g>
</svg>