<?xml version="1.0" encoding="UTF-8"?>
<svg width="22px" height="24px" viewBox="0 0 22 24" version="1.1" xmlns="http://www.w3.org/2000/svg" xmlns:xlink="http://www.w3.org/1999/xlink">
    <!-- Generator: Sketch 42 (36781) - http://www.bohemiancoding.com/sketch -->
    <title>Group</title>
    <desc>Created with Sketch.</desc>
    <defs></defs>
    <g id="Page-1" stroke="none" stroke-width="1" fill="none" fill-rule="evenodd">
        <g id="Line-Icons" transform="translate(-97.000000, -1103.000000)" fill="#767676">
            <g id="Group" transform="translate(96.000000, 1103.000000)">
                <polygon id="Fill-661" points="5.999 4.4143 5.999 8.0003 7.999 8.0003 7.999 4.4143 9.292 5.7073 10.706 4.2933 6.999 0.5863 3.292 4.2933 4.706 5.7073"></polygon>
                <polygon id="Fill-662" points="20.7061 4.707 19.2921 3.293 17.9991 4.586 17.9991 1.001 15.9991 1.001 15.9991 4.586 14.7061 3.293 13.2921 4.707 16.9991 8.414"></polygon>
                <path d="M7.999,16.0005 C7.448,16.0005 6.999,15.5515 6.999,15.0005 C6.999,14.4495 7.448,14.0005 7.999,14.0005 C8.55,14.0005 8.999,14.4495 8.999,15.0005 C8.999,15.5515 8.55,16.0005 7.999,16.0005 M10.999,15.0005 C10.999,13.3455 9.653,12.0005 7.999,12.0005 C6.345,12.0005 4.999,13.3455 4.999,15.0005 C4.999,16.6545 6.345,18.0005 7.999,18.0005 C9.653,18.0005 10.999,16.6545 10.999,15.0005" id="Fill-663"></path>
                <path d="M4.999,21.0005 L6.999,21.0005 C6.999,20.4495 7.448,20.0005 7.999,20.0005 C8.55,20.0005 8.999,20.4495 8.999,21.0005 L10.999,21.0005 C10.999,19.3455 9.653,18.0005 7.999,18.0005 C6.345,18.0005 4.999,19.3455 4.999,21.0005" id="Fill-664"></path>
                <path d="M15.999,16.0005 C15.448,16.0005 14.999,15.5515 14.999,15.0005 C14.999,14.4495 15.448,14.0005 15.999,14.0005 C16.55,14.0005 16.999,14.4495 16.999,15.0005 C16.999,15.5515 16.55,16.0005 15.999,16.0005 M18.999,15.0005 C18.999,13.3455 17.653,12.0005 15.999,12.0005 C14.345,12.0005 12.999,13.3455 12.999,15.0005 C12.999,16.6545 14.345,18.0005 15.999,18.0005 C17.653,18.0005 18.999,16.6545 18.999,15.0005" id="Fill-665"></path>
                <path d="M12.999,21.0005 L14.999,21.0005 C14.999,20.4495 15.448,20.0005 15.999,20.0005 C16.55,20.0005 16.999,20.4495 16.999,21.0005 L18.999,21.0005 C18.999,19.3455 17.653,18.0005 15.999,18.0005 C14.345,18.0005 12.999,19.3455 12.999,21.0005" id="Fill-666"></path>
                <path d="M20.999,22 L2.999,22 L2.999,11 L20.999,11 L20.999,22 Z M21.999,9 L1.999,9 C1.447,9 0.999,9.448 0.999,10 L0.999,23 C0.999,23.552 1.447,24 1.999,24 L21.999,24 C22.551,24 22.999,23.552 22.999,23 L22.999,10 C22.999,9.448 22.551,9 21.999,9 L21.999,9 Z" id="Fill-667"></path>
            </g>
        </g>
    </g>
</svg>