<?xml version="1.0" encoding="UTF-8"?>
<svg width="24px" height="20px" viewBox="0 0 24 20" version="1.1" xmlns="http://www.w3.org/2000/svg" xmlns:xlink="http://www.w3.org/1999/xlink">
    <!-- Generator: Sketch 42 (36781) - http://www.bohemiancoding.com/sketch -->
    <title>Group</title>
    <desc>Created with Sketch.</desc>
    <defs></defs>
    <g id="Page-1" stroke="none" stroke-width="1" fill="none" fill-rule="evenodd">
        <g id="Line-Icons" transform="translate(-288.000000, -865.000000)" fill="#757575">
            <g id="Group" transform="translate(288.000000, 865.000000)">
                <path d="M19,4.0005 C18.449,4.0005 18,3.5515 18,3.0005 C18,2.4495 18.449,2.0005 19,2.0005 C19.551,2.0005 20,2.4495 20,3.0005 C20,3.5515 19.551,4.0005 19,4.0005 M22,3.0005 C22,1.3465 20.654,0.0005 19,0.0005 C17.346,0.0005 16,1.3465 16,3.0005 C16,4.6545 17.346,6.0005 19,6.0005 C20.654,6.0005 22,4.6545 22,3.0005" id="Fill-139"></path>
                <path d="M22,13.0005 L21,13.0005 C20.448,13.0005 20,13.4485 20,14.0005 L20,18.0005 L18,18.0005 L18,14.0005 C18,13.4485 17.552,13.0005 17,13.0005 L16,13.0005 L16,11.0005 C16,9.3465 17.346,8.0005 19,8.0005 C20.654,8.0005 22,9.3465 22,11.0005 L22,13.0005 Z M19,6.0005 C16.243,6.0005 14,8.2435 14,11.0005 L14,14.0005 C14,14.5525 14.448,15.0005 15,15.0005 L16,15.0005 L16,19.0005 C16,19.5525 16.448,20.0005 17,20.0005 L21,20.0005 C21.552,20.0005 22,19.5525 22,19.0005 L22,15.0005 L23,15.0005 C23.552,15.0005 24,14.5525 24,14.0005 L24,11.0005 C24,8.2435 21.757,6.0005 19,6.0005 L19,6.0005 Z" id="Fill-140"></path>
                <path d="M2,8 L5,8 L5,12 L2,12 L2,8 Z M6,14 C6.552,14 7,13.553 7,13 L7,7 C7,6.449 6.552,6 6,6 L1,6 C0.448,6 0,6.449 0,7 L0,13 C0,13.553 0.448,14 1,14 L6,14 Z" id="Fill-141"></path>
                <path d="M10,16.0005 C8.897,16.0005 8,16.8985 8,18.0005 C8,19.1035 8.897,20.0005 10,20.0005 C11.103,20.0005 12,19.1035 12,18.0005 C12,16.8985 11.103,16.0005 10,16.0005" id="Fill-142"></path>
                <path d="M9.0034,3.9175 L8.0804,15.0005 L1.0004,15.0005 L1.0004,17.0005 L7.1844,17.0005 C7.5984,15.8385 8.6984,15.0005 10.0004,15.0005 C10.0294,15.0005 10.0564,15.0085 10.0864,15.0095 L10.9204,5.0005 L13.0004,5.0005 L13.0004,3.0005 L10.0004,3.0005 C9.4804,3.0005 9.0474,3.3985 9.0034,3.9175" id="Fill-143"></path>
            </g>
        </g>
    </g>
</svg>