<?xml version="1.0" encoding="UTF-8"?>
<svg width="18px" height="22px" viewBox="0 0 18 22" version="1.1" xmlns="http://www.w3.org/2000/svg" xmlns:xlink="http://www.w3.org/1999/xlink">
    <!-- Generator: Sketch 42 (36781) - http://www.bohemiancoding.com/sketch -->
    <title>Group</title>
    <desc>Created with Sketch.</desc>
    <defs></defs>
    <g id="Page-1" stroke="none" stroke-width="1" fill="none" fill-rule="evenodd">
        <g id="Line-Icons" transform="translate(-435.000000, -1488.000000)" fill="#767676">
            <g id="Group" transform="translate(434.000000, 1488.000000)">
                <path d="M13.998,20.0005 L2.998,20.0005 L2.998,2.0005 L16.998,2.0005 L16.998,17.0005 C16.998,18.6545 15.652,20.0005 13.998,20.0005 M16.998,0.0005 L2.998,0.0005 C1.895,0.0005 0.998,0.8965 0.998,2.0005 L0.998,20.0005 C0.998,21.1025 1.895,22.0005 2.998,22.0005 L13.998,22.0005 C16.755,22.0005 18.998,19.7575 18.998,17.0005 L18.998,2.0005 C18.998,0.8965 18.101,0.0005 16.998,0.0005" id="Fill-853"></path>
                <polygon id="Fill-854" points="7.998 13.0005 5.998 13.0005 5.998 15.0005 3.998 15.0005 3.998 17.0005 5.998 17.0005 5.998 19.0005 7.998 19.0005 7.998 17.0005 9.998 17.0005 9.998 15.0005 7.998 15.0005"></polygon>
                <path d="M14.998,14.0005 C14.445,14.0005 13.998,14.4475 13.998,15.0005 C13.998,15.5525 14.445,16.0005 14.998,16.0005 C15.551,16.0005 15.998,15.5525 15.998,15.0005 C15.998,14.4475 15.551,14.0005 14.998,14.0005" id="Fill-855"></path>
                <path d="M12.998,16.0005 C12.445,16.0005 11.998,16.4475 11.998,17.0005 C11.998,17.5525 12.445,18.0005 12.998,18.0005 C13.551,18.0005 13.998,17.5525 13.998,17.0005 C13.998,16.4475 13.551,16.0005 12.998,16.0005" id="Fill-856"></path>
                <path d="M13.998,10.001 L5.998,10.001 L5.998,5.001 L13.998,5.001 L13.998,10.001 Z M14.998,3.001 L4.998,3.001 C4.446,3.001 3.998,3.449 3.998,4.001 L3.998,11.001 C3.998,11.552 4.446,12.001 4.998,12.001 L14.998,12.001 C15.55,12.001 15.998,11.552 15.998,11.001 L15.998,4.001 C15.998,3.449 15.55,3.001 14.998,3.001 L14.998,3.001 Z" id="Fill-857"></path>
            </g>
        </g>
    </g>
</svg>