<?xml version="1.0" encoding="UTF-8"?>
<svg width="24px" height="22px" viewBox="0 0 24 22" version="1.1" xmlns="http://www.w3.org/2000/svg" xmlns:xlink="http://www.w3.org/1999/xlink">
    <!-- Generator: Sketch 42 (36781) - http://www.bohemiancoding.com/sketch -->
    <title>Group</title>
    <desc>Created with Sketch.</desc>
    <defs></defs>
    <g id="Page-1" stroke="none" stroke-width="1" fill="none" fill-rule="evenodd">
        <g id="Line-Icons" transform="translate(-144.000000, -96.000000)" fill="#757575">
            <g id="Group" transform="translate(144.000000, 96.000000)">
                <path d="M12,10.1255 L16.338,7.5235 C15.983,7.2025 15.517,7.0005 15,7.0005 L9,7.0005 C8.483,7.0005 8.017,7.2025 7.662,7.5235 L12,10.1255 Z" id="Fill-233"></path>
                <path d="M12.3857,11.644 C12.2667,11.715 12.1337,11.75 11.9997,11.75 C11.8657,11.75 11.7327,11.715 11.6147,11.644 L7.0117,8.882 C7.0097,8.923 6.9997,8.96 6.9997,9 L6.9997,13 C6.9997,14.105 7.8957,15 8.9997,15 L14.9997,15 C16.1047,15 16.9997,14.105 16.9997,13 L16.9997,9 C16.9997,8.96 16.9907,8.923 16.9887,8.882 L12.3857,11.644 Z" id="Fill-234"></path>
                <path d="M20.7681,13.0005 C19.8551,17.0025 16.2741,20.0005 12.0001,20.0005 C7.9451,20.0005 4.5111,17.3045 3.3891,13.6115 L6.0001,11.0005 L0.0001,11.0005 L0.0001,17.0005 L1.8271,15.1735 C3.4741,19.1745 7.4121,22.0005 12.0001,22.0005 C17.3821,22.0005 21.8651,18.1125 22.8091,13.0005 L20.7681,13.0005 Z" id="Fill-235"></path>
                <path d="M22.1729,6.8276 C20.5259,2.8276 16.5879,0.0006 11.9999,0.0006 C6.6179,0.0006 2.1349,3.8886 1.1909,9.0006 L3.2319,9.0006 C4.1449,4.9976 7.7259,2.0006 11.9999,2.0006 C16.0549,2.0006 19.4889,4.6966 20.6109,8.3896 L17.9999,11.0006 L23.9999,11.0006 L23.9999,5.0006 L22.1729,6.8276 Z" id="Fill-236"></path>
            </g>
        </g>
    </g>
</svg>