<?xml version="1.0" encoding="UTF-8"?>
<svg width="21px" height="23px" viewBox="0 0 21 23" version="1.1" xmlns="http://www.w3.org/2000/svg" xmlns:xlink="http://www.w3.org/1999/xlink">
    <!-- Generator: Sketch 42 (36781) - http://www.bohemiancoding.com/sketch -->
    <title>Group</title>
    <desc>Created with Sketch.</desc>
    <defs></defs>
    <g id="Page-1" stroke="none" stroke-width="1" fill="none" fill-rule="evenodd">
        <g id="Line-Icons" transform="translate(-2.000000, -1199.000000)" fill="#767676">
            <g id="Group" transform="translate(1.000000, 1199.000000)">
                <path d="M13.9995,3.0005 C14.2555,3.0005 14.5005,3.1005 14.6885,3.2815 C14.9125,3.4975 15.2255,3.5955 15.5315,3.5495 C15.8385,3.5035 16.1075,3.3165 16.2575,3.0445 C16.6135,2.4005 17.2815,2.0005 17.9995,2.0005 C19.1025,2.0005 19.9995,2.8975 19.9995,4.0005 C19.9995,5.1035 19.1025,6.0005 17.9995,6.0005 C17.2815,6.0005 16.6135,5.6005 16.2575,4.9565 C16.0835,4.6415 15.7495,4.4405 15.3825,4.4405 C15.1255,4.4405 14.8765,4.5385 14.6885,4.7195 C14.5005,4.9005 14.2555,5.0005 13.9995,5.0005 C13.4485,5.0005 12.9995,4.5515 12.9995,4.0005 C12.9995,3.4495 13.4485,3.0005 13.9995,3.0005 M13.9995,7.0005 C14.3945,7.0005 14.7785,6.9235 15.1355,6.7755 C15.8795,7.5475 16.9095,8.0005 17.9995,8.0005 C20.2055,8.0005 21.9995,6.2065 21.9995,4.0005 C21.9995,1.7945 20.2055,0.0005 17.9995,0.0005 C16.9095,0.0005 15.8795,0.4535 15.1355,1.2255 C14.7785,1.0775 14.3945,1.0005 13.9995,1.0005 C12.3455,1.0005 10.9995,2.3465 10.9995,4.0005 C10.9995,5.6545 12.3455,7.0005 13.9995,7.0005" id="Fill-717"></path>
                <path d="M3.3867,21.0005 L6.7197,11.0005 L15.2787,11.0005 L18.6127,21.0005 L3.3867,21.0005 Z M16.9477,9.6845 C16.8117,9.2755 16.4307,9.0005 15.9997,9.0005 L5.9997,9.0005 C5.5687,9.0005 5.1867,9.2755 5.0507,9.6845 L1.0507,21.6845 C0.9487,21.9895 1.0007,22.3245 1.1887,22.5855 C1.3767,22.8465 1.6787,23.0005 1.9997,23.0005 L19.9997,23.0005 C20.3207,23.0005 20.6227,22.8465 20.8107,22.5855 C20.9987,22.3245 21.0497,21.9895 20.9477,21.6845 L16.9477,9.6845 Z" id="Fill-718"></path>
                <path d="M9.9995,16.0005 C9.9995,16.5515 10.4465,17.0005 10.9995,17.0005 C11.5525,17.0005 11.9995,16.5515 11.9995,16.0005 C11.9995,15.4455 11.5525,15.0005 10.9995,15.0005 C10.4465,15.0005 9.9995,15.4455 9.9995,16.0005" id="Fill-719"></path>
                <path d="M10.355,14.106 L9.709,12.213 C8.088,12.767 7,14.289 7,16.001 L9,16.001 C9,15.144 9.544,14.383 10.355,14.106" id="Fill-720"></path>
                <path d="M9.4907,17.314 L7.9827,18.628 C8.7427,19.5 9.8427,20 10.9997,20 C12.1407,20 13.2317,19.511 13.9907,18.658 L12.4967,17.328 C11.7307,18.188 10.2457,18.182 9.4907,17.314" id="Fill-721"></path>
                <path d="M12.3345,12.229 L11.6665,14.114 C12.4635,14.396 12.9995,15.155 12.9995,16 L14.9995,16 C14.9995,14.31 13.9285,12.794 12.3345,12.229" id="Fill-722"></path>
            </g>
        </g>
    </g>
</svg>