<?xml version="1.0" encoding="UTF-8"?>
<svg width="20px" height="20px" viewBox="0 0 20 20" version="1.1" xmlns="http://www.w3.org/2000/svg" xmlns:xlink="http://www.w3.org/1999/xlink">
    <!-- Generator: Sketch 42 (36781) - http://www.bohemiancoding.com/sketch -->
    <title>Group</title>
    <desc>Created with Sketch.</desc>
    <defs></defs>
    <g id="Page-1" stroke="none" stroke-width="1" fill="none" fill-rule="evenodd">
        <g id="Line-Icons" transform="translate(-146.000000, -721.000000)" fill="#757575">
            <g id="Group" transform="translate(146.000000, 721.000000)">
                <path d="M10,15.0005 C8.364,15.0005 6.906,14.0495 6.299,13.0005 L13.71,13.0005 C13.119,14.0525 11.684,15.0005 10,15.0005 M15,11.0005 L5,11.0005 C4.448,11.0005 4,11.4485 4,12.0005 C4,14.6175 6.86,17.0005 10,17.0005 C13.14,17.0005 16,14.6175 16,12.0005 C16,11.4485 15.552,11.0005 15,11.0005" id="Fill-144"></path>
                <path d="M10,18.0005 C5.589,18.0005 2,14.4115 2,10.0005 C2,5.5895 5.589,2.0005 10,2.0005 C14.411,2.0005 18,5.5895 18,10.0005 C18,14.4115 14.411,18.0005 10,18.0005 M10,0.0005 C4.486,0.0005 0,4.4865 0,10.0005 C0,15.5155 4.486,20.0005 10,20.0005 C15.514,20.0005 20,15.5155 20,10.0005 C20,4.4865 15.514,0.0005 10,0.0005" id="Fill-145"></path>
                <polygon id="Fill-146" points="8 5 6 5 6 9 8 9"></polygon>
                <polygon id="Fill-147" points="14 5 12 5 12 9 14 9"></polygon>
            </g>
        </g>
    </g>
</svg>