<?xml version="1.0" encoding="UTF-8"?>
<svg width="20px" height="21px" viewBox="0 0 20 21" version="1.1" xmlns="http://www.w3.org/2000/svg" xmlns:xlink="http://www.w3.org/1999/xlink">
    <!-- Generator: Sketch 42 (36781) - http://www.bohemiancoding.com/sketch -->
    <title>Group</title>
    <desc>Created with Sketch.</desc>
    <defs></defs>
    <g id="Page-1" stroke="none" stroke-width="1" fill="none" fill-rule="evenodd">
        <g id="Line-Icons" transform="translate(-98.000000, -1152.000000)" fill="#767676">
            <g id="Group" transform="translate(98.000000, 1152.000000)">
                <path d="M14,15.0005 C14,15.5535 14.447,16.0005 15,16.0005 C15.553,16.0005 16,15.5535 16,15.0005 C16,14.4475 15.553,14.0005 15,14.0005 C14.447,14.0005 14,14.4475 14,15.0005" id="Fill-701"></path>
                <path d="M13,16.5005 C12.447,16.5005 12,16.9475 12,17.5005 C12,18.0535 12.447,18.5005 13,18.5005 C13.553,18.5005 14,18.0535 14,17.5005 C14,16.9475 13.553,16.5005 13,16.5005" id="Fill-702"></path>
                <path d="M17,16.5005 C16.447,16.5005 16,16.9475 16,17.5005 C16,18.0535 16.447,18.5005 17,18.5005 C17.553,18.5005 18,18.0535 18,17.5005 C18,16.9475 17.553,16.5005 17,16.5005" id="Fill-703"></path>
                <path d="M15,19.0005 C14.447,19.0005 14,19.4475 14,20.0005 C14,20.5535 14.447,21.0005 15,21.0005 C15.553,21.0005 16,20.5535 16,20.0005 C16,19.4475 15.553,19.0005 15,19.0005" id="Fill-704"></path>
                <path d="M11,19.0005 C10.447,19.0005 10,19.4475 10,20.0005 C10,20.5535 10.447,21.0005 11,21.0005 C11.553,21.0005 12,20.5535 12,20.0005 C12,19.4475 11.553,19.0005 11,19.0005" id="Fill-705"></path>
                <path d="M19,19.0005 C18.447,19.0005 18,19.4475 18,20.0005 C18,20.5535 18.447,21.0005 19,21.0005 C19.553,21.0005 20,20.5535 20,20.0005 C20,19.4475 19.553,19.0005 19,19.0005" id="Fill-706"></path>
                <path d="M2,8.0005 L2,6.0005 L15,6.0005 L15,11.0005 L14,11.0005 L14,9.0005 C14,8.4485 13.552,8.0005 13,8.0005 L2,8.0005 Z M12,12.0005 C12,12.5525 12.448,13.0005 13,13.0005 L16,13.0005 C16.552,13.0005 17,12.5525 17,12.0005 L17,6.0005 C17,4.8975 16.103,4.0005 15,4.0005 L9,4.0005 L9,2.0005 L12,2.0005 L12,0.0005 L4,0.0005 L4,2.0005 L7,2.0005 L7,4.0005 L1,4.0005 C0.448,4.0005 0,4.4485 0,5.0005 L0,9.0005 C0,9.5525 0.448,10.0005 1,10.0005 L12,10.0005 L12,12.0005 Z" id="Fill-707"></path>
            </g>
        </g>
    </g>
</svg>