<?xml version="1.0" encoding="UTF-8"?>
<svg width="24px" height="23px" viewBox="0 0 24 23" version="1.1" xmlns="http://www.w3.org/2000/svg" xmlns:xlink="http://www.w3.org/1999/xlink">
    <!-- Generator: Sketch 42 (36781) - http://www.bohemiancoding.com/sketch -->
    <title>Group</title>
    <desc>Created with Sketch.</desc>
    <defs></defs>
    <g id="Page-1" stroke="none" stroke-width="1" fill="none" fill-rule="evenodd">
        <g id="Line-Icons" transform="translate(-288.000000, -1488.000000)" fill="#767676">
            <g id="Group" transform="translate(287.000000, 1488.000000)">
                <path d="M10.999,8.0005 C10.999,6.8965 11.896,6.0005 12.999,6.0005 C14.102,6.0005 14.999,6.8965 14.999,8.0005 C14.999,9.1025 14.102,10.0005 12.999,10.0005 C11.896,10.0005 10.999,9.1025 10.999,8.0005 M16.999,8.0005 C16.999,5.7945 15.205,4.0005 12.999,4.0005 C10.793,4.0005 8.999,5.7945 8.999,8.0005 C8.999,10.2065 10.793,12.0005 12.999,12.0005 C15.205,12.0005 16.999,10.2065 16.999,8.0005" id="Fill-844"></path>
                <path d="M4.999,8.001 L5.999,8.001 L5.999,10.001 L4.999,10.001 L4.999,8.001 Z M21,10.001 L19.999,10.001 L19.999,8.001 L20.999,8.001 L21,10.001 Z M4.999,12.001 L7.999,12.001 L7.999,7.001 C7.999,4.244 10.242,2.001 12.999,2.001 C15.756,2.001 17.999,4.244 17.999,7.001 L17.999,12.001 L20.999,12.001 C22.102,12.001 22.999,11.103 22.999,10.001 L22.999,8.001 C22.999,6.897 22.102,6.001 20.999,6.001 L19.919,6.001 C19.432,2.614 16.519,0.001 12.999,0.001 C9.479,0.001 6.566,2.614 6.079,6.001 L4.999,6.001 C3.896,6.001 2.999,6.897 2.999,8.001 L2.999,10.001 C2.999,11.103 3.896,12.001 4.999,12.001 L4.999,12.001 Z" id="Fill-845"></path>
                <path d="M7.3491,17.0005 L9.5501,17.0005 C10.2431,15.8095 11.5241,15.0005 12.9991,15.0005 C14.4741,15.0005 15.7551,15.8095 16.4481,17.0005 L18.6491,17.0005 C17.8231,14.6735 15.6051,13.0005 12.9991,13.0005 C10.3931,13.0005 8.1751,14.6735 7.3491,17.0005" id="Fill-846"></path>
                <path d="M15.999,20.001 L21.999,20.001 L21.999,21.001 L15.999,21.001 L15.999,20.001 Z M3.999,20.001 L9.999,20.001 L9.999,21.001 L3.999,21.001 L3.999,20.001 Z M23.999,21.001 L23.999,19.001 C23.999,18.449 23.551,18.001 22.999,18.001 L14.999,18.001 C14.447,18.001 13.999,18.449 13.999,19.001 L13.999,21.001 L11.999,21.001 L11.999,19.001 C11.999,18.449 11.551,18.001 10.999,18.001 L2.999,18.001 C2.447,18.001 1.999,18.449 1.999,19.001 L1.999,21.001 L0.999,21.001 L0.999,23.001 L24.999,23.001 L24.999,21.001 L23.999,21.001 Z" id="Fill-847"></path>
            </g>
        </g>
    </g>
</svg>