<?xml version="1.0" encoding="UTF-8"?>
<svg width="22px" height="24px" viewBox="0 0 22 24" version="1.1" xmlns="http://www.w3.org/2000/svg" xmlns:xlink="http://www.w3.org/1999/xlink">
    <!-- Generator: Sketch 42 (36781) - http://www.bohemiancoding.com/sketch -->
    <title>Group</title>
    <desc>Created with Sketch.</desc>
    <defs></defs>
    <g id="Page-1" stroke="none" stroke-width="1" fill="none" fill-rule="evenodd">
        <g id="Line-Icons" transform="translate(-145.000000, -1583.000000)" fill="#757575">
            <g id="Group" transform="translate(145.000000, 1583.000000)">
                <path d="M2,9.0005 L2,2.0005 L6,2.0005 L6,4.0005 L8.001,4.0005 L8.001,9.0005 L2,9.0005 Z M8,0.0005 L2,0.0005 C0.897,0.0005 0,0.8985 0,2.0005 L0,9.0005 C0,10.1025 0.897,11.0005 2,11.0005 L8,11.0005 C9.103,11.0005 10,10.1025 10,9.0005 L10,2.0005 C10,0.8985 9.103,0.0005 8,0.0005 L8,0.0005 Z" id="Fill-46"></path>
                <path d="M14,9.0005 L14,2.0005 L18,2.0005 L18,4.0005 L20.001,4.0005 L20.001,9.0005 L14,9.0005 Z M20,0.0005 L14,0.0005 C12.897,0.0005 12,0.8985 12,2.0005 L12,9.0005 C12,10.1025 12.897,11.0005 14,11.0005 L20,11.0005 C21.103,11.0005 22,10.1025 22,9.0005 L22,2.0005 C22,0.8985 21.103,0.0005 20,0.0005 L20,0.0005 Z" id="Fill-47"></path>
                <path d="M2,22.0005 L2,15.0005 L6,15.0005 L6,17.0005 L8.001,17.0005 L8.001,22.0005 L2,22.0005 Z M8,13.0005 L2,13.0005 C0.897,13.0005 0,13.8985 0,15.0005 L0,22.0005 C0,23.1025 0.897,24.0005 2,24.0005 L8,24.0005 C9.103,24.0005 10,23.1025 10,22.0005 L10,15.0005 C10,13.8985 9.103,13.0005 8,13.0005 L8,13.0005 Z" id="Fill-48"></path>
                <path d="M14,22.0005 L14,15.0005 L18,15.0005 L18,17.0005 L20.001,17.0005 L20.001,22.0005 L14,22.0005 Z M20,13.0005 L14,13.0005 C12.897,13.0005 12,13.8985 12,15.0005 L12,22.0005 C12,23.1025 12.897,24.0005 14,24.0005 L20,24.0005 C21.103,24.0005 22,23.1025 22,22.0005 L22,15.0005 C22,13.8985 21.103,13.0005 20,13.0005 L20,13.0005 Z" id="Fill-49"></path>
            </g>
        </g>
    </g>
</svg>