<?xml version="1.0" encoding="UTF-8"?>
<svg width="18px" height="19px" viewBox="0 0 18 19" version="1.1" xmlns="http://www.w3.org/2000/svg" xmlns:xlink="http://www.w3.org/1999/xlink">
    <!-- Generator: Sketch 42 (36781) - http://www.bohemiancoding.com/sketch -->
    <title>Group</title>
    <desc>Created with Sketch.</desc>
    <defs></defs>
    <g id="Page-1" stroke="none" stroke-width="1" fill="none" fill-rule="evenodd">
        <g id="Line-Icons" transform="translate(-51.000000, -2.000000)" fill="#757575">
            <g id="Group" transform="translate(51.000000, 2.000000)">
                <path d="M4,7.0005 L14,7.0005 L14.002,17.0005 L4,17.0005 L4,7.0005 Z M2,17.0005 C2,18.1035 2.897,19.0005 4,19.0005 L14,19.0005 C15.103,19.0005 16,18.1035 16,17.0005 L16,5.0005 L2,5.0005 L2,17.0005 Z" id="Fill-258"></path>
                <polygon id="Fill-259" points="12 2.0005 12 0.0005 6 0.0005 6 2.0005 0 2.0005 0 4.0005 18 4.0005 18 2.0005"></polygon>
                <polygon id="Fill-260" points="6 15 8 15 8 9 6 9"></polygon>
                <polygon id="Fill-261" points="10 15 12 15 12 9 10 9"></polygon>
            </g>
        </g>
    </g>
</svg>