<?xml version="1.0" encoding="UTF-8"?>
<svg width="20px" height="21px" viewBox="0 0 20 21" version="1.1" xmlns="http://www.w3.org/2000/svg" xmlns:xlink="http://www.w3.org/1999/xlink">
    <!-- Generator: Sketch 42 (36781) - http://www.bohemiancoding.com/sketch -->
    <title>Group</title>
    <desc>Created with Sketch.</desc>
    <defs></defs>
    <g id="Page-1" stroke="none" stroke-width="1" fill="none" fill-rule="evenodd">
        <g id="Line-Icons" transform="translate(-386.000000, -386.000000)" fill="#757575">
            <g id="Group" transform="translate(386.000000, 386.000000)">
                <path d="M6.0098,19.0005 L14.0098,19.0005 C14.0098,17.2625 12.3278,16.0005 10.0108,16.0005 C7.6928,16.0005 6.0098,17.2625 6.0098,19.0005 L6.0098,19.0005 Z M16.0098,21.0005 L4.0098,21.0005 L4.0098,19.0005 C4.0098,16.1505 6.5898,14.0005 10.0108,14.0005 C13.4308,14.0005 16.0098,16.1505 16.0098,19.0005 L16.0098,21.0005 Z" id="Fill-193"></path>
                <path d="M6.4771,12.6802 C5.1031,10.9152 5.2071,8.3662 6.8271,6.7442 C7.6781,5.8942 8.8081,5.4262 10.0101,5.4262 C11.2121,5.4262 12.3421,5.8942 13.1921,6.7442 C14.8121,8.3662 14.9161,10.9152 13.5431,12.6802 C14.1891,12.9452 14.7821,13.2802 15.3101,13.6792 C17.1061,11.1432 16.8761,7.6012 14.6061,5.3302 C13.3791,4.1022 11.7471,3.4262 10.0101,3.4262 C8.2731,3.4262 6.6411,4.1022 5.4131,5.3302 C3.1441,7.6012 2.9141,11.1432 4.7101,13.6792 C5.2381,13.2802 5.8311,12.9452 6.4771,12.6802" id="Fill-194"></path>
                <path d="M3.5806,14.7456 C1.2696,11.6156 1.5216,7.1756 4.3536,4.3436 C7.4726,1.2246 12.5476,1.2246 15.6666,4.3436 C18.4986,7.1756 18.7506,11.6166 16.4396,14.7456 C16.9036,15.2906 17.2736,15.9026 17.5386,16.5646 C20.9626,12.6416 20.8176,6.6646 17.0806,2.9286 C13.1826,-0.9694 6.8376,-0.9694 2.9396,2.9286 C-0.7964,6.6646 -0.9424,12.6416 2.4806,16.5636 C2.7456,15.9006 3.1176,15.2906 3.5806,14.7456" id="Fill-195"></path>
                <path d="M10.0098,9.0005 C9.4588,9.0005 9.0098,9.4495 9.0098,10.0005 C9.0098,10.5515 9.4588,11.0005 10.0098,11.0005 C10.5608,11.0005 11.0098,10.5515 11.0098,10.0005 C11.0098,9.4495 10.5608,9.0005 10.0098,9.0005 M10.0098,13.0005 C8.3558,13.0005 7.0098,11.6545 7.0098,10.0005 C7.0098,8.3465 8.3558,7.0005 10.0098,7.0005 C11.6638,7.0005 13.0098,8.3465 13.0098,10.0005 C13.0098,11.6545 11.6638,13.0005 10.0098,13.0005" id="Fill-196"></path>
            </g>
        </g>
    </g>
</svg>