<?xml version="1.0" encoding="UTF-8"?>
<svg width="20px" height="20px" viewBox="0 0 20 20" version="1.1" xmlns="http://www.w3.org/2000/svg" xmlns:xlink="http://www.w3.org/1999/xlink">
    <!-- Generator: Sketch 42 (36781) - http://www.bohemiancoding.com/sketch -->
    <title>Group</title>
    <desc>Created with Sketch.</desc>
    <defs></defs>
    <g id="Page-1" stroke="none" stroke-width="1" fill="none" fill-rule="evenodd">
        <g id="Line-Icons" transform="translate(-338.000000, -721.000000)" fill="#757575">
            <g id="Group" transform="translate(338.000000, 721.000000)">
                <path d="M13.5996,5.0005 L12.2006,5.0005 L12.2006,5.7355 C11.4026,5.8985 10.7996,6.6045 10.7996,7.4515 C10.7996,8.4155 11.5846,9.2005 12.5496,9.2005 L13.2496,9.2005 C13.4426,9.2005 13.5996,9.3585 13.5996,9.5505 C13.5996,9.7435 13.4426,9.9005 13.2496,9.9005 L10.7996,9.9005 L10.7996,11.3005 L12.2006,11.3005 L12.2006,12.0005 L13.5996,12.0005 L13.5996,11.2655 C14.3976,11.1035 14.9996,10.3965 14.9996,9.5505 C14.9996,8.5855 14.2146,7.8005 13.2496,7.8005 L12.5496,7.8005 C12.3576,7.8005 12.2006,7.6435 12.2006,7.4515 C12.2006,7.2575 12.3576,7.1005 12.5496,7.1005 L14.9996,7.1005 L14.9996,5.7005 L13.5996,5.7005 L13.5996,5.0005 Z" id="Fill-160"></path>
                <path d="M9.2002,9.5503 C9.2002,8.5853 8.4152,7.8003 7.4502,7.8003 L6.7502,7.8003 C6.5562,7.8003 6.4002,7.6433 6.4002,7.4513 C6.4002,7.2573 6.5562,7.1003 6.7502,7.1003 L9.2002,7.1003 L9.2002,5.7003 L7.8002,5.7003 L7.8002,5.0003 L6.4002,5.0003 L6.4002,5.7363 C5.6022,5.8993 5.0002,6.6053 5.0002,7.4513 C5.0002,8.4153 5.7852,9.2003 6.7502,9.2003 L7.4502,9.2003 C7.6422,9.2003 7.8002,9.3583 7.8002,9.5503 C7.8002,9.7433 7.6422,9.9013 7.4502,9.9013 L5.0002,9.9013 L5.0002,11.3003 L6.4002,11.3003 L6.4002,12.0003 L7.8002,12.0003 L7.8002,11.2653 C8.5972,11.1033 9.2002,10.3963 9.2002,9.5503" id="Fill-161"></path>
                <path d="M10,18.0005 C5.589,18.0005 2,14.4115 2,10.0005 C2,5.5895 5.589,2.0005 10,2.0005 C14.411,2.0005 18,5.5895 18,10.0005 C18,14.4115 14.411,18.0005 10,18.0005 M10,0.0005 C4.486,0.0005 0,4.4865 0,10.0005 C0,15.5155 4.486,20.0005 10,20.0005 C15.514,20.0005 20,15.5155 20,10.0005 C20,4.4865 15.514,0.0005 10,0.0005" id="Fill-162"></path>
                <polygon id="Fill-163" points="8 15 12 15 12 13 8 13"></polygon>
            </g>
        </g>
    </g>
</svg>