<?xml version="1.0" encoding="UTF-8"?>
<svg width="24px" height="24px" viewBox="0 0 24 24" version="1.1" xmlns="http://www.w3.org/2000/svg" xmlns:xlink="http://www.w3.org/1999/xlink">
    <!-- Generator: Sketch 42 (36781) - http://www.bohemiancoding.com/sketch -->
    <title>Group</title>
    <desc>Created with Sketch.</desc>
    <defs></defs>
    <g id="Page-1" stroke="none" stroke-width="1" fill="none" fill-rule="evenodd">
        <g id="Line-Icons" transform="translate(-240.000000, -815.000000)" fill="#757575">
            <g id="Group" transform="translate(240.000000, 815.000000)">
                <path d="M11.9971,22.001 L2.0001,22.001 L2.0001,7.001 L12.0001,7.001 L11.9971,22.001 Z M4.6831,2.95 C4.9361,3.034 5.2101,3.014 5.4471,2.895 L7.0001,2.12 L8.5531,2.895 C8.7901,3.014 9.0641,3.034 9.3161,2.95 L11.0001,2.388 L11.0001,5.001 L3.0001,5.001 L3.0001,2.388 L4.6831,2.95 Z M13.0001,5.279 L13.0001,1.001 C13.0001,0.68 12.8461,0.378 12.5841,0.19 C12.3231,0.001 11.9881,-0.048 11.6831,0.053 L9.0771,0.921 L7.4471,0.106 C7.1661,-0.034 6.8341,-0.034 6.5531,0.106 L4.9231,0.921 L2.3161,0.053 C2.0101,-0.048 1.6761,0.001 1.4151,0.19 C1.1541,0.378 1.0001,0.68 1.0001,1.001 L1.0001,5.279 C0.4051,5.627 0.0001,6.264 0.0001,7.001 L0.0001,22.001 C0.0001,23.104 0.8971,24.001 2.0001,24.001 L12.0001,24.001 C13.1031,24.001 14.0001,23.104 14.0001,22.001 L14.0001,7.001 C14.0001,6.264 13.5951,5.627 13.0001,5.279 L13.0001,5.279 Z" id="Fill-98"></path>
                <polygon id="Fill-99" points="11 8.001 3 8.001 3 12.001 11 12.001"></polygon>
                <path d="M4,15.001 C4.552,15.001 5,14.553 5,14.001 C5,13.449 4.552,13.001 4,13.001 C3.448,13.001 3,13.449 3,14.001 C3,14.553 3.448,15.001 4,15.001" id="Fill-100"></path>
                <path d="M10,13.001 C9.448,13.001 9,13.449 9,14.001 C9,14.553 9.448,15.001 10,15.001 C10.552,15.001 11,14.553 11,14.001 C11,13.449 10.552,13.001 10,13.001" id="Fill-101"></path>
                <path d="M7,13.001 C6.448,13.001 6,13.449 6,14.001 C6,14.553 6.448,15.001 7,15.001 C7.552,15.001 8,14.553 8,14.001 C8,13.449 7.552,13.001 7,13.001" id="Fill-102"></path>
                <path d="M4,18.001 C4.552,18.001 5,17.553 5,17.001 C5,16.449 4.552,16.001 4,16.001 C3.448,16.001 3,16.449 3,17.001 C3,17.553 3.448,18.001 4,18.001" id="Fill-103"></path>
                <path d="M10,16.001 C9.448,16.001 9,16.449 9,17.001 C9,17.553 9.448,18.001 10,18.001 C10.552,18.001 11,17.553 11,17.001 C11,16.449 10.552,16.001 10,16.001" id="Fill-104"></path>
                <path d="M7,16.001 C6.448,16.001 6,16.449 6,17.001 C6,17.553 6.448,18.001 7,18.001 C7.552,18.001 8,17.553 8,17.001 C8,16.449 7.552,16.001 7,16.001" id="Fill-105"></path>
                <path d="M4,21.001 C4.552,21.001 5,20.553 5,20.001 C5,19.449 4.552,19.001 4,19.001 C3.448,19.001 3,19.449 3,20.001 C3,20.553 3.448,21.001 4,21.001" id="Fill-106"></path>
                <path d="M10,19.001 C9.448,19.001 9,19.449 9,20.001 C9,20.553 9.448,21.001 10,21.001 C10.552,21.001 11,20.553 11,20.001 C11,19.449 10.552,19.001 10,19.001" id="Fill-107"></path>
                <path d="M7,19.001 C6.448,19.001 6,19.449 6,20.001 C6,20.553 6.448,21.001 7,21.001 C7.552,21.001 8,20.553 8,20.001 C8,19.449 7.552,19.001 7,19.001" id="Fill-108"></path>
                <path d="M22,18.001 L20,18.001 L20,10.001 L22,10.001 L22,18.001 Z M17,10.001 L18,10.001 L18,18.001 L17,18.001 L17,10.001 Z M23,8.001 L16,8.001 C15.448,8.001 15,8.449 15,9.001 L15,19.001 C15,19.553 15.448,20.001 16,20.001 L23,20.001 C23.552,20.001 24,19.553 24,19.001 L24,9.001 C24,8.449 23.552,8.001 23,8.001 L23,8.001 Z" id="Fill-109"></path>
            </g>
        </g>
    </g>
</svg>