<?xml version="1.0" encoding="UTF-8"?>
<svg width="20px" height="20px" viewBox="0 0 20 20" version="1.1" xmlns="http://www.w3.org/2000/svg" xmlns:xlink="http://www.w3.org/1999/xlink">
    <!-- Generator: Sketch 42 (36781) - http://www.bohemiancoding.com/sketch -->
    <title>Group</title>
    <desc>Created with Sketch.</desc>
    <defs></defs>
    <g id="Page-1" stroke="none" stroke-width="1" fill="none" fill-rule="evenodd">
        <g id="Line-Icons" transform="translate(-338.000000, -1297.000000)" fill="#767676">
            <g id="Group" transform="translate(338.000000, 1296.000000)">
                <path d="M4.7207,11.9961 L7.2607,4.3751 L8.9197,7.1391 L7.5317,11.9961 L9.6117,11.9961 L10.9617,7.2701 C11.0377,7.0051 10.9997,6.7191 10.8577,6.4811 L7.8577,1.4811 C7.6557,1.1461 7.2757,0.9611 6.8907,1.0021 C6.5027,1.0451 6.1747,1.3101 6.0517,1.6801 L2.5307,12.2421 C2.9987,12.0971 3.4857,11.9961 3.9997,11.9961 L4.7207,11.9961 Z" id="Fill-770"></path>
                <path d="M17,3.9961 C15.346,3.9961 14,5.3421 14,6.9961 L14,11.9961 L16,11.9961 L16,9.9961 L17,9.9961 L17,8.0011 L16,8.0011 L16,6.9961 C16,6.4451 16.449,5.9961 17,5.9961 C17.551,5.9961 18,6.4451 18,6.9961 L18,12.4191 C18.801,12.7711 19.483,13.3321 20,14.0271 L20,6.9961 C20,5.3421 18.654,3.9961 17,3.9961" id="Fill-771"></path>
                <path d="M16,19.001 L4,19.001 C2.897,19.001 2,18.103 2,16.998 C2,15.895 2.897,14.998 4,14.998 L16,14.998 C17.103,14.998 18,15.895 18,16.998 C18,18.103 17.103,19.001 16,19.001 M16,13.001 L4,13.001 C1.794,13.001 0,14.793 0,16.998 C0,19.207 1.794,21.001 4,21.001 L16,21.001 C18.206,21.001 20,19.207 20,16.998 C20,14.793 18.206,13.001 16,13.001" id="Fill-772"></path>
                <path d="M5,15.9961 C4.448,15.9961 4,16.4441 4,16.9961 C4,17.5481 4.448,17.9961 5,17.9961 C5.552,17.9961 6,17.5481 6,16.9961 C6,16.4441 5.552,15.9961 5,15.9961" id="Fill-773"></path>
                <path d="M15,15.9961 C14.448,15.9961 14,16.4441 14,16.9961 C14,17.5481 14.448,17.9961 15,17.9961 C15.552,17.9961 16,17.5481 16,16.9961 C16,16.4441 15.552,15.9961 15,15.9961" id="Fill-774"></path>
            </g>
        </g>
    </g>
</svg>