<?xml version="1.0" encoding="UTF-8"?>
<svg width="19px" height="24px" viewBox="0 0 19 24" version="1.1" xmlns="http://www.w3.org/2000/svg" xmlns:xlink="http://www.w3.org/1999/xlink">
    <!-- Generator: Sketch 42 (36781) - http://www.bohemiancoding.com/sketch -->
    <title>Group</title>
    <desc>Created with Sketch.</desc>
    <defs></defs>
    <g id="Page-1" stroke="none" stroke-width="1" fill="none" fill-rule="evenodd">
        <g id="Line-Icons" transform="translate(-147.000000, -287.000000)" fill="#757575">
            <g id="Group" transform="translate(147.000000, 287.000000)">
                <polygon id="Fill-368" points="14.0068 11.0024 17.0068 14.0024 17.0068 19.0024 19.0068 24.0024 14.0068 24.0024 14.0068 20.0024 11.0068 17.0024 12.0068 16.0024 14.0068 17.0024"></polygon>
                <path d="M11.0068,23.0024 L5.0068,23.0024 C3.9038,23.0024 3.0068,22.1054 3.0068,21.0024 L3.0068,11.0024 C3.0068,9.8994 3.9038,9.0024 5.0068,9.0024 L11.0068,9.0024 C12.1098,9.0024 13.0068,9.8994 13.0068,11.0024 L13.0068,15.0044 L11.0068,15.0044 L11.0068,11.0024 L5.0068,11.0024 L5.0068,21.0024 L11.0068,21.0024 L11.0068,20.0064 L13.0068,20.0064 L13.0068,21.0024 C13.0068,22.1054 12.1098,23.0024 11.0068,23.0024" id="Fill-369"></path>
                <path d="M1.8887,4.8521 L0.3597,3.5631 C2.2667,1.2991 5.0567,9.99999997e-05 8.0127,9.99999997e-05 C10.9627,9.99999997e-05 13.7467,1.2931 15.6527,3.5471 L14.1247,4.8381 C12.5997,3.0361 10.3727,2.0001 8.0127,2.0001 C5.6477,2.0001 3.4157,3.0401 1.8887,4.8521" id="Fill-370"></path>
                <path d="M11.2148,7.6025 C10.4508,6.5845 9.2838,6.0005 8.0128,6.0005 C6.7428,6.0005 5.5758,6.5835 4.8128,7.6025 L3.2128,6.3995 C4.3408,4.8975 6.1358,4.0005 8.0128,4.0005 C9.9198,4.0005 11.6698,4.8755 12.8148,6.4025 L11.2148,7.6025 Z" id="Fill-371"></path>
                <path d="M9.25,18.0024 C9.25,18.6924 8.69,19.2524 8,19.2524 C7.31,19.2524 6.75,18.6924 6.75,18.0024 C6.75,17.3124 7.31,16.7524 8,16.7524 C8.69,16.7524 9.25,17.3124 9.25,18.0024" id="Fill-372"></path>
                <path d="M9.25,14.0024 C9.25,14.6924 8.69,15.2524 8,15.2524 C7.31,15.2524 6.75,14.6924 6.75,14.0024 C6.75,13.3124 7.31,12.7524 8,12.7524 C8.69,12.7524 9.25,13.3124 9.25,14.0024" id="Fill-373"></path>
            </g>
        </g>
    </g>
</svg>