<?xml version="1.0" encoding="UTF-8"?>
<svg width="20px" height="20px" viewBox="0 0 20 20" version="1.1" xmlns="http://www.w3.org/2000/svg" xmlns:xlink="http://www.w3.org/1999/xlink">
    <!-- Generator: Sketch 42 (36781) - http://www.bohemiancoding.com/sketch -->
    <title>Group</title>
    <desc>Created with Sketch.</desc>
    <defs></defs>
    <g id="Page-1" stroke="none" stroke-width="1" fill="none" fill-rule="evenodd">
        <g id="Line-Icons" transform="translate(-194.000000, -1393.000000)" fill="#767676">
            <g id="Group" transform="translate(193.000000, 1393.000000)">
                <path d="M2.999,18.0005 L2.999,10.0005 L4.413,10.0005 L5.999,8.4155 L9.082,11.4975 L13.082,6.4975 L16.999,10.4155 L18.999,8.4155 L18.999,18.0005 L2.999,18.0005 Z M18.999,2.0005 L18.999,6.0005 L18.585,6.0005 L16.999,7.5865 L12.916,3.5035 L8.916,8.5035 L5.999,5.5865 L3.585,8.0005 L2.999,8.0005 L2.999,2.0005 L18.999,2.0005 Z M18.999,0.0005 L2.999,0.0005 C1.896,0.0005 0.999,0.8985 0.999,2.0005 L0.999,18.0005 C0.999,19.1035 1.896,20.0005 2.999,20.0005 L18.999,20.0005 C20.102,20.0005 20.999,19.1035 20.999,18.0005 L20.999,2.0005 C20.999,0.8985 20.102,0.0005 18.999,0.0005 L18.999,0.0005 Z" id="Fill-800"></path>
                <polygon id="Fill-801" points="3.999 16.999 5.999 16.999 5.999 14.001 3.999 14.001"></polygon>
                <polygon id="Fill-802" points="7.999 16.999 9.999 16.999 9.999 12.001 7.999 12.001"></polygon>
                <polygon id="Fill-803" points="11.999 16.999 13.999 16.999 13.999 14.001 11.999 14.001"></polygon>
                <polygon id="Fill-804" points="16 16.999 18 16.999 18 12.001 16 12.001"></polygon>
            </g>
        </g>
    </g>
</svg>