<?xml version="1.0" encoding="UTF-8"?>
<svg width="22px" height="22px" viewBox="0 0 22 22" version="1.1" xmlns="http://www.w3.org/2000/svg" xmlns:xlink="http://www.w3.org/1999/xlink">
    <!-- Generator: Sketch 42 (36781) - http://www.bohemiancoding.com/sketch -->
    <title>Group</title>
    <desc>Created with Sketch.</desc>
    <defs></defs>
    <g id="Page-1" stroke="none" stroke-width="1" fill="none" fill-rule="evenodd">
        <g id="Line-Icons" transform="translate(-1.000000, -432.000000)" fill="#757575">
            <g id="Group" transform="translate(1.000000, 432.000000)">
                <path d="M18,21.0005 C18,21.5535 18.448,22.0005 19,22.0005 C19.552,22.0005 20,21.5535 20,21.0005 C20,20.4485 19.552,20.0005 19,20.0005 C18.448,20.0005 18,20.4485 18,21.0005" id="Fill-208"></path>
                <path d="M2,21.0005 C2,21.5535 2.448,22.0005 3,22.0005 C3.552,22.0005 4,21.5535 4,21.0005 C4,20.4485 3.552,20.0005 3,20.0005 C2.448,20.0005 2,20.4485 2,21.0005" id="Fill-209"></path>
                <path d="M2.3877,15.0005 L3.7207,11.0005 L18.2797,11.0005 L19.6127,15.0005 L2.3877,15.0005 Z M17.9997,9.0005 L3.9997,9.0005 L3.9997,2.0005 L17.9997,2.0005 L17.9997,9.0005 Z M21.6327,14.7355 L19.9997,9.8385 L19.9997,1.0005 C19.9997,0.4485 19.5527,0.0005 18.9997,0.0005 L2.9997,0.0005 C2.4477,0.0005 1.9997,0.4485 1.9997,1.0005 L1.9997,9.8385 L0.3677,14.7345 C0.1817,15.2925 0.2577,15.8655 0.5757,16.3065 C0.8927,16.7485 1.4117,17.0005 1.9997,17.0005 L9.9997,17.0005 L9.9997,20.0005 L4.9997,20.0005 L4.9997,22.0005 L16.9997,22.0005 L16.9997,20.0005 L11.9997,20.0005 L11.9997,17.0005 L19.9997,17.0005 C20.5877,17.0005 21.1067,16.7485 21.4247,16.3065 C21.7427,15.8655 21.8187,15.2925 21.6327,14.7355 L21.6327,14.7355 Z" id="Fill-210"></path>
                <polygon id="Fill-211" points="9 14 13 14 13 12 9 12"></polygon>
            </g>
        </g>
    </g>
</svg>