<?xml version="1.0" encoding="UTF-8"?>
<svg width="19px" height="21px" viewBox="0 0 19 21" version="1.1" xmlns="http://www.w3.org/2000/svg" xmlns:xlink="http://www.w3.org/1999/xlink">
    <!-- Generator: Sketch 42 (36781) - http://www.bohemiancoding.com/sketch -->
    <title>Group</title>
    <desc>Created with Sketch.</desc>
    <defs></defs>
    <g id="Page-1" stroke="none" stroke-width="1" fill="none" fill-rule="evenodd">
        <g id="Line-Icons" transform="translate(-290.000000, -1296.000000)" fill="#767676">
            <g id="Group" transform="translate(289.000000, 1296.000000)">
                <path d="M7.292,10.707 L9.999,13.415 L9.999,19 L2.999,19 L2.999,13.415 L5.706,10.707 C5.894,10.52 5.999,10.266 5.999,10 L5.999,8 L6.999,8 L6.999,10 C6.999,10.266 7.105,10.52 7.292,10.707 L7.292,10.707 Z M5.534,5 L9.999,5 L9.999,6 L4.868,6 L5.534,5 Z M11.999,7 L11.999,4 C11.999,3.449 11.551,3 10.999,3 L4.999,3 C4.665,3 4.353,3.168 4.167,3.446 L2.167,6.446 C1.962,6.753 1.943,7.147 2.117,7.472 C2.292,7.797 2.63,8 2.999,8 L3.999,8 L3.999,9.586 L1.292,12.293 C1.105,12.481 0.999,12.735 0.999,13 L0.999,20 C0.999,20.552 1.447,21 1.999,21 L10.999,21 C11.551,21 11.999,20.552 11.999,20 L11.999,13 C11.999,12.735 11.894,12.481 11.706,12.293 L8.999,9.586 L8.999,8 L9.999,8 L9.999,9 C9.999,9.266 10.105,9.52 10.292,9.707 L13.292,12.707 L14.706,11.293 L11.999,8.586 L11.999,7 Z" id="Fill-781"></path>
                <path d="M13.999,4.0005 C13.447,4.0005 12.999,4.4485 12.999,5.0005 C12.999,5.5525 13.447,6.0005 13.999,6.0005 C14.551,6.0005 14.999,5.5525 14.999,5.0005 C14.999,4.4485 14.551,4.0005 13.999,4.0005" id="Fill-782"></path>
                <path d="M15.999,2.0005 C15.447,2.0005 14.999,2.4485 14.999,3.0005 C14.999,3.5525 15.447,4.0005 15.999,4.0005 C16.551,4.0005 16.999,3.5525 16.999,3.0005 C16.999,2.4485 16.551,2.0005 15.999,2.0005" id="Fill-783"></path>
                <path d="M18.999,2.0005 C19.551,2.0005 19.999,1.5525 19.999,1.0005 C19.999,0.4485 19.551,0.0005 18.999,0.0005 C18.447,0.0005 17.999,0.4485 17.999,1.0005 C17.999,1.5525 18.447,2.0005 18.999,2.0005" id="Fill-784"></path>
                <path d="M18.999,4.0005 C18.447,4.0005 17.999,4.4485 17.999,5.0005 C17.999,5.5525 18.447,6.0005 18.999,6.0005 C19.551,6.0005 19.999,5.5525 19.999,5.0005 C19.999,4.4485 19.551,4.0005 18.999,4.0005" id="Fill-785"></path>
                <path d="M18.999,8.0005 C18.447,8.0005 17.999,8.4485 17.999,9.0005 C17.999,9.5525 18.447,10.0005 18.999,10.0005 C19.551,10.0005 19.999,9.5525 19.999,9.0005 C19.999,8.4485 19.551,8.0005 18.999,8.0005" id="Fill-786"></path>
                <path d="M15.999,6.0005 C15.447,6.0005 14.999,6.4485 14.999,7.0005 C14.999,7.5525 15.447,8.0005 15.999,8.0005 C16.551,8.0005 16.999,7.5525 16.999,7.0005 C16.999,6.4485 16.551,6.0005 15.999,6.0005" id="Fill-787"></path>
            </g>
        </g>
    </g>
</svg>