<?xml version="1.0" encoding="UTF-8"?>
<svg width="24px" height="22px" viewBox="0 0 24 22" version="1.1" xmlns="http://www.w3.org/2000/svg" xmlns:xlink="http://www.w3.org/1999/xlink">
    <!-- Generator: Sketch 42 (36781) - http://www.bohemiancoding.com/sketch -->
    <title>Group</title>
    <desc>Created with Sketch.</desc>
    <defs></defs>
    <g id="Page-1" stroke="none" stroke-width="1" fill="none" fill-rule="evenodd">
        <g id="Line-Icons" transform="translate(-96.000000, -1537.000000)" fill="#767676">
            <g id="Group" transform="translate(96.000000, 1537.000000)">
                <path d="M13.5,0.0005 C12.672,0.0005 12,0.6725 12,1.5005 C12,0.6725 11.328,0.0005 10.5,0.0005 C9.672,0.0005 9,0.6725 9,1.5005 C9,3.0005 12,6.0005 12,6.0005 C12,6.0005 15,3.0005 15,1.5005 C15,0.6725 14.328,0.0005 13.5,0.0005" id="Fill-864"></path>
                <path d="M19,6.0005 C18.449,6.0005 18,5.5515 18,5.0005 C18,4.4495 18.449,4.0005 19,4.0005 C19.551,4.0005 20,4.4495 20,5.0005 C20,5.5515 19.551,6.0005 19,6.0005 M22,5.0005 C22,3.3465 20.654,2.0005 19,2.0005 C17.346,2.0005 16,3.3465 16,5.0005 C16,6.6545 17.346,8.0005 19,8.0005 C20.654,8.0005 22,6.6545 22,5.0005" id="Fill-865"></path>
                <path d="M22,15.0005 L21,15.0005 C20.448,15.0005 20,15.4485 20,16.0005 L20,20.0005 L18,20.0005 L18,16.0005 C18,15.4485 17.552,15.0005 17,15.0005 L16,15.0005 L16,13.0005 C16,11.3465 17.346,10.0005 19,10.0005 C20.654,10.0005 22,11.3465 22,13.0005 L22,15.0005 Z M19,8.0005 C16.243,8.0005 14,10.2435 14,13.0005 L14,16.0005 C14,16.5525 14.448,17.0005 15,17.0005 L16,17.0005 L16,21.0005 C16,21.5525 16.448,22.0005 17,22.0005 L21,22.0005 C21.552,22.0005 22,21.5525 22,21.0005 L22,17.0005 L23,17.0005 C23.552,17.0005 24,16.5525 24,16.0005 L24,13.0005 C24,10.2435 21.757,8.0005 19,8.0005 L19,8.0005 Z" id="Fill-866"></path>
                <path d="M5,7.0005 C4.449,7.0005 4,6.5515 4,6.0005 C4,5.4495 4.449,5.0005 5,5.0005 C5.551,5.0005 6,5.4495 6,6.0005 C6,6.5515 5.551,7.0005 5,7.0005 M8,6.0005 C8,4.3465 6.654,3.0005 5,3.0005 C3.346,3.0005 2,4.3465 2,6.0005 C2,7.6545 3.346,9.0005 5,9.0005 C6.654,9.0005 8,7.6545 8,6.0005" id="Fill-867"></path>
                <path d="M6.999,17.0005 C6.265,17.0005 6.216,17.0005 5.267,20.0005 L4.733,20.0005 C3.822,17.1205 3.738,17.0005 3.082,17.0005 C3.005,17.0015 2.506,17.0025 2.276,17.0005 C2.276,17.0005 2.913,14.4675 3.505,12.1995 C3.644,11.5165 4.287,11.0005 5,11.0005 C5.713,11.0005 6.356,11.5165 6.507,12.2545 C7.064,14.3685 7.724,17.0005 7.724,17.0005 C7.494,17.0025 7.058,17.0005 6.999,17.0005 M8.455,11.8015 C8.126,10.1795 6.672,9.0005 5,9.0005 C3.328,9.0005 1.875,10.1795 1.558,11.7465 C0.923,14.1605 1.196,13.0915 0.03,17.7575 C-0.044,18.0535 0.02,18.3655 0.205,18.6075 C0.39,18.8495 0.674,18.9935 0.979,19.0005 C0.979,19.0005 1.723,19.0165 2.31,19.0185 C2.502,19.5915 2.789,20.4835 3.046,21.3015 C3.177,21.7175 3.564,22.0005 4,22.0005 L6,22.0005 C6.437,22.0005 6.823,21.7175 6.954,21.3015 C7.211,20.4835 7.499,19.5915 7.69,19.0185 C8.277,19.0165 9.022,19.0005 9.022,19.0005 C9.326,18.9935 9.61,18.8495 9.795,18.6075 C9.98,18.3655 10.044,18.0535 9.97,17.7575 C8.84,13.2345 9.033,13.9845 8.455,11.8015" id="Fill-868"></path>
            </g>
        </g>
    </g>
</svg>