<?xml version="1.0" encoding="UTF-8"?>
<svg width="19px" height="22px" viewBox="0 0 19 22" version="1.1" xmlns="http://www.w3.org/2000/svg" xmlns:xlink="http://www.w3.org/1999/xlink">
    <!-- Generator: Sketch 42 (36781) - http://www.bohemiancoding.com/sketch -->
    <title>Group</title>
    <desc>Created with Sketch.</desc>
    <defs></defs>
    <g id="Page-1" stroke="none" stroke-width="1" fill="none" fill-rule="evenodd">
        <g id="Line-Icons" transform="translate(-194.000000, -1249.000000)" fill="#767676">
            <g id="Group" transform="translate(194.000000, 1249.000000)">
                <polygon id="Fill-749" points="16.001 6.0025 11.235 6.0025 9.902 4.0025 11.235 2.0025 13.001 2.0025 13.001 0.0025 7.001 0.0025 7.001 2.0025 9.433 2.0025 8.1 4.0025 9.433 6.0025 4.001 6.0025 4.001 8.0025 16.001 8.0025"></polygon>
                <path d="M17.001,15.003 L2.001,15.003 L2.001,11.003 L17.001,11.003 L17.001,15.003 Z M15.001,18.003 C15.001,18.554 14.552,19.003 14.001,19.003 C13.45,19.003 13.001,18.554 13.001,18.003 C13.001,17.452 13.45,17.003 14.001,17.003 C14.552,17.003 15.001,17.452 15.001,18.003 L15.001,18.003 Z M7.221,20.003 C7.7,19.47 8.001,18.774 8.001,18.003 C8.001,17.65 7.929,17.317 7.816,17.003 L11.186,17.003 C11.073,17.317 11.001,17.65 11.001,18.003 C11.001,18.774 11.302,19.47 11.781,20.003 L7.221,20.003 Z M6.001,18.003 C6.001,18.554 5.552,19.003 5.001,19.003 C4.45,19.003 4.001,18.554 4.001,18.003 C4.001,17.452 4.45,17.003 5.001,17.003 C5.552,17.003 6.001,17.452 6.001,18.003 L6.001,18.003 Z M19.001,16.003 L19.001,10.003 C19.001,9.45 18.553,9.003 18.001,9.003 L1.001,9.003 C0.449,9.003 0.001,9.45 0.001,10.003 L0.001,16.003 C0.001,16.555 0.449,17.003 1.001,17.003 L2.186,17.003 C2.073,17.317 2.001,17.65 2.001,18.003 C2.001,18.774 2.302,19.47 2.781,20.003 L0.001,20.003 L0.001,22.003 L19.001,22.003 L19.001,20.003 L16.221,20.003 C16.7,19.47 17.001,18.774 17.001,18.003 C17.001,17.65 16.929,17.317 16.816,17.003 L18.001,17.003 C18.553,17.003 19.001,16.555 19.001,16.003 L19.001,16.003 Z" id="Fill-750"></path>
                <polygon id="Fill-751" points="8.001 12.003 5.001 12.003 5.001 14.003 8.001 14.003"></polygon>
                <polygon id="Fill-752" points="14.001 12.003 11.001 12.003 11.001 14.003 14.001 14.003"></polygon>
            </g>
        </g>
    </g>
</svg>