<?xml version="1.0" encoding="UTF-8"?>
<svg width="20px" height="20px" viewBox="0 0 20 20" version="1.1" xmlns="http://www.w3.org/2000/svg" xmlns:xlink="http://www.w3.org/1999/xlink">
    <!-- Generator: Sketch 42 (36781) - http://www.bohemiancoding.com/sketch -->
    <title>Group</title>
    <desc>Created with Sketch.</desc>
    <defs></defs>
    <g id="Page-1" stroke="none" stroke-width="1" fill="none" fill-rule="evenodd">
        <g id="Line-Icons" transform="translate(-290.000000, -721.000000)" fill="#757575">
            <g id="Group" transform="translate(290.000000, 721.000000)">
                <path d="M10,18.0005 C7.469,18.0005 5.213,16.8155 3.746,14.9755 C3.831,14.9825 3.913,15.0005 4,15.0005 C5.654,15.0005 7,13.6545 7,12.0005 C7,10.3465 5.654,9.0005 4,9.0005 C3.234,9.0005 2.542,9.2975 2.012,9.7715 C2.135,5.4665 5.666,2.0005 10,2.0005 C14.334,2.0005 17.865,5.4665 17.988,9.7715 C17.458,9.2975 16.766,9.0005 16,9.0005 C14.346,9.0005 13,10.3465 13,12.0005 C13,13.6545 14.346,15.0005 16,15.0005 C16.087,15.0005 16.169,14.9825 16.254,14.9755 C14.787,16.8155 12.531,18.0005 10,18.0005 M3,12.0005 C3,11.4495 3.449,11.0005 4,11.0005 C4.551,11.0005 5,11.4495 5,12.0005 C5,12.5525 4.551,13.0005 4,13.0005 C3.449,13.0005 3,12.5525 3,12.0005 M16,13.0005 C15.449,13.0005 15,12.5525 15,12.0005 C15,11.4495 15.449,11.0005 16,11.0005 C16.551,11.0005 17,11.4495 17,12.0005 C17,12.5525 16.551,13.0005 16,13.0005 M10,0.0005 C4.486,0.0005 0,4.4865 0,10.0005 C0,15.5155 4.486,20.0005 10,20.0005 C15.514,20.0005 20,15.5155 20,10.0005 C20,4.4865 15.514,0.0005 10,0.0005" id="Fill-164"></path>
                <polygon id="Fill-165" points="9 6 5 6 5 8 9 8"></polygon>
                <polygon id="Fill-166" points="15 6 11 6 11 8 15 8"></polygon>
                <polygon id="Fill-167" points="8 16 12 16 12 14 8 14"></polygon>
            </g>
        </g>
    </g>
</svg>