<?xml version="1.0" encoding="UTF-8"?>
<svg width="20px" height="20px" viewBox="0 0 20 20" version="1.1" xmlns="http://www.w3.org/2000/svg" xmlns:xlink="http://www.w3.org/1999/xlink">
    <!-- Generator: Sketch 42 (36781) - http://www.bohemiancoding.com/sketch -->
    <title>Group</title>
    <desc>Created with Sketch.</desc>
    <defs></defs>
    <g id="Page-1" stroke="none" stroke-width="1" fill="none" fill-rule="evenodd">
        <g id="Line-Icons" transform="translate(-146.000000, -193.000000)" fill="#757575">
            <g id="Group" transform="translate(146.000000, 193.000000)">
                <path d="M2,2.0005 L2,14.0005 L6,14.0005 L6,16.0005 L8.667,14.0005 L18,14.0005 L18,2.0005 L2,2.0005 Z M4,20.0005 L4,16.0005 L2,16.0005 C0.897,16.0005 0,15.1035 0,14.0005 L0,2.0005 C0,0.8975 0.897,0.0005 2,0.0005 L18,0.0005 C19.103,0.0005 20,0.8975 20,2.0005 L20,14.0005 C20,15.1035 19.103,16.0005 18,16.0005 L9.333,16.0005 L4,20.0005 Z" id="Fill-317"></path>
                <path d="M5.4219,9.0005 C6.1939,10.7645 7.9499,12.0005 9.9999,12.0005 C12.0499,12.0005 13.8059,10.7645 14.5779,9.0005 L5.4219,9.0005 Z" id="Fill-318"></path>
                <path d="M8.25,5.2505 C8.25,5.9405 7.689,6.5005 7,6.5005 C6.311,6.5005 5.75,5.9405 5.75,5.2505 C5.75,4.5605 6.311,4.0005 7,4.0005 C7.689,4.0005 8.25,4.5605 8.25,5.2505" id="Fill-319"></path>
                <path d="M14.25,5.2505 C14.25,5.9405 13.689,6.5005 13,6.5005 C12.311,6.5005 11.75,5.9405 11.75,5.2505 C11.75,4.5605 12.311,4.0005 13,4.0005 C13.689,4.0005 14.25,4.5605 14.25,5.2505" id="Fill-320"></path>
            </g>
        </g>
    </g>
</svg>