<?xml version="1.0" encoding="UTF-8"?>
<svg width="24px" height="22px" viewBox="0 0 24 22" version="1.1" xmlns="http://www.w3.org/2000/svg" xmlns:xlink="http://www.w3.org/1999/xlink">
    <!-- Generator: Sketch 42 (36781) - http://www.bohemiancoding.com/sketch -->
    <title>Group</title>
    <desc>Created with Sketch.</desc>
    <defs></defs>
    <g id="Page-1" stroke="none" stroke-width="1" fill="none" fill-rule="evenodd">
        <g id="Line-Icons" transform="translate(-48.000000, -1200.000000)" fill="#767676">
            <g id="Group" transform="translate(48.000000, 1200.000000)">
                <path d="M15.001,15.0005 L8.999,15.0005 L8.999,8.0005 L9.999,8.0005 C10.552,8.0005 10.999,7.5525 10.999,7.0005 L10.999,6.0005 L12.999,6.0005 L12.999,7.0005 C12.999,7.5525 13.447,8.0005 13.999,8.0005 L14.999,8.0005 L15.001,15.0005 Z M13.999,4.0005 L9.999,4.0005 C9.447,4.0005 8.999,4.4485 8.999,5.0005 L8.999,6.0005 L7.999,6.0005 C7.447,6.0005 6.999,6.4485 6.999,7.0005 L6.999,15.0005 C6.999,16.1035 7.896,17.0005 8.999,17.0005 L14.999,17.0005 C16.103,17.0005 16.999,16.1035 16.999,15.0005 L16.999,7.0005 C16.999,6.4485 16.552,6.0005 15.999,6.0005 L14.999,6.0005 L14.999,5.0005 C14.999,4.4485 14.552,4.0005 13.999,4.0005 L13.999,4.0005 Z" id="Fill-694"></path>
                <polygon id="Fill-695" points="12.4995 9.0005 9.9995 12.0005 11.4995 12.0005 11.4995 14.0005 13.9995 11.0005 12.4995 11.0005"></polygon>
                <path d="M11.9995,20.0005 C7.9455,20.0005 4.5105,17.3045 3.3885,13.6115 L5.9995,11.0005 L-0.0005,11.0005 L-0.0005,17.0005 L1.8265,15.1735 C3.4745,19.1745 7.4115,22.0005 11.9995,22.0005 C17.3815,22.0005 21.8645,18.1125 22.8085,13.0005 L20.7675,13.0005 C19.8555,17.0025 16.2735,20.0005 11.9995,20.0005" id="Fill-696"></path>
                <path d="M22.1724,6.8276 C20.5244,2.8266 16.5874,0.0006 11.9994,0.0006 C6.6174,0.0006 2.1344,3.8886 1.1904,9.0006 L3.2314,9.0006 C4.1444,4.9986 7.7254,2.0006 11.9994,2.0006 C16.0544,2.0006 19.4884,4.6966 20.6104,8.3896 L17.9994,11.0006 L23.9994,11.0006 L23.9994,5.0006 L22.1724,6.8276 Z" id="Fill-697"></path>
            </g>
        </g>
    </g>
</svg>