<?xml version="1.0" encoding="UTF-8"?>
<svg width="18px" height="24px" viewBox="0 0 18 24" version="1.1" xmlns="http://www.w3.org/2000/svg" xmlns:xlink="http://www.w3.org/1999/xlink">
    <!-- Generator: Sketch 42 (36781) - http://www.bohemiancoding.com/sketch -->
    <title>Group</title>
    <desc>Created with Sketch.</desc>
    <defs></defs>
    <g id="Page-1" stroke="none" stroke-width="1" fill="none" fill-rule="evenodd">
        <g id="Line-Icons" transform="translate(-435.000000, -815.000000)" fill="#757575">
            <g id="Group" transform="translate(435.000000, 815.000000)">
                <path d="M3.5859,11.001 L6.4139,11.001 L4.4139,9.001 L10.9999,2.415 L14.5859,6.001 L9.5859,11.001 L12.4139,11.001 L16.7069,6.709 C17.0979,6.317 17.0979,5.685 16.7069,5.294 L11.7069,0.294 C11.3159,-0.097 10.6839,-0.097 10.2929,0.294 L2.2929,8.294 C1.9019,8.685 1.9019,9.317 2.2929,9.709 L3.5859,11.001 Z" id="Fill-88"></path>
                <path d="M16,22.001 L2,22.001 L2,14.001 L16,14.001 L16,22.001 Z M17,12.001 L1,12.001 C0.448,12.001 0,12.449 0,13.001 L0,23.001 C0,23.553 0.448,24.001 1,24.001 L17,24.001 C17.552,24.001 18,23.553 18,23.001 L18,13.001 C18,12.449 17.552,12.001 17,12.001 L17,12.001 Z" id="Fill-89"></path>
                <polygon id="Fill-90" points="8 21.001 10 21.001 10 19.001 12 19.001 12 17.001 10 17.001 10 15.001 8 15.001 8 17.001 6 17.001 6 19.001 8 19.001"></polygon>
                <path d="M9.5,6.001 C8.671,6.001 8,6.672 8,7.501 C8,8.33 8.671,9.001 9.5,9.001 C10.329,9.001 11,8.33 11,7.501 C11,6.672 10.329,6.001 9.5,6.001" id="Fill-91"></path>
            </g>
        </g>
    </g>
</svg>