<?xml version="1.0" encoding="UTF-8"?>
<svg width="24px" height="22px" viewBox="0 0 24 22" version="1.1" xmlns="http://www.w3.org/2000/svg" xmlns:xlink="http://www.w3.org/1999/xlink">
    <!-- Generator: Sketch 42 (36781) - http://www.bohemiancoding.com/sketch -->
    <title>Group</title>
    <desc>Created with Sketch.</desc>
    <defs></defs>
    <g id="Page-1" stroke="none" stroke-width="1" fill="none" fill-rule="evenodd">
        <g id="Line-Icons" transform="translate(-144.000000, -1104.000000)" fill="#767676">
            <g id="Group" transform="translate(144.000000, 1104.000000)">
                <path d="M13.0005,4.0022 C12.4475,4.0022 12.0005,4.4492 12.0005,5.0022 C12.0005,5.5552 12.4475,6.0022 13.0005,6.0022 C13.5535,6.0022 14.0005,5.5552 14.0005,5.0022 C14.0005,4.4492 13.5535,4.0022 13.0005,4.0022" id="Fill-675"></path>
                <path d="M11.0005,8.5022 C11.5535,8.5022 12.0005,8.0552 12.0005,7.5022 C12.0005,6.9492 11.5535,6.5022 11.0005,6.5022 C10.4475,6.5022 10.0005,6.9492 10.0005,7.5022 C10.0005,8.0552 10.4475,8.5022 11.0005,8.5022" id="Fill-676"></path>
                <path d="M15.0005,6.5022 C14.4475,6.5022 14.0005,6.9492 14.0005,7.5022 C14.0005,8.0552 14.4475,8.5022 15.0005,8.5022 C15.5535,8.5022 16.0005,8.0552 16.0005,7.5022 C16.0005,6.9492 15.5535,6.5022 15.0005,6.5022" id="Fill-677"></path>
                <path d="M13.0005,9.0022 C12.4475,9.0022 12.0005,9.4492 12.0005,10.0022 C12.0005,10.5552 12.4475,11.0022 13.0005,11.0022 C13.5535,11.0022 14.0005,10.5552 14.0005,10.0022 C14.0005,9.4492 13.5535,9.0022 13.0005,9.0022" id="Fill-678"></path>
                <path d="M9.0005,11.0022 C9.5535,11.0022 10.0005,10.5552 10.0005,10.0022 C10.0005,9.4492 9.5535,9.0022 9.0005,9.0022 C8.4475,9.0022 8.0005,9.4492 8.0005,10.0022 C8.0005,10.5552 8.4475,11.0022 9.0005,11.0022" id="Fill-679"></path>
                <path d="M17.0005,11.0022 C17.5535,11.0022 18.0005,10.5552 18.0005,10.0022 C18.0005,9.4492 17.5535,9.0022 17.0005,9.0022 C16.4475,9.0022 16.0005,9.4492 16.0005,10.0022 C16.0005,10.5552 16.4475,11.0022 17.0005,11.0022" id="Fill-680"></path>
                <path d="M20.0005,16.0022 C20.0005,17.1042 19.1035,18.0022 18.0005,18.0022 L6.0005,18.0022 C4.8975,18.0022 4.0005,17.1042 4.0005,16.0022 L4.0005,15.0022 L20.0005,15.0022 L20.0005,16.0022 Z M24.0005,13.0022 L22.0005,13.0022 L22.0005,3.0022 C22.0005,1.3482 20.6545,0.0022 19.0005,0.0022 L12.0005,0.0022 L12.0005,3.0022 L14.0005,3.0022 L14.0005,2.0022 L19.0005,2.0022 C19.5515,2.0022 20.0005,2.4512 20.0005,3.0022 L20.0005,13.0022 L0.0005,13.0022 L0.0005,15.0022 L2.0005,15.0022 L2.0005,16.0022 C2.0005,17.8922 3.3215,19.4712 5.0865,19.8872 L3.5005,22.0022 L6.0005,22.0022 L7.5005,20.0022 L16.5005,20.0022 L18.0005,22.0022 L20.5005,22.0022 L18.9145,19.8872 C20.6795,19.4712 22.0005,17.8922 22.0005,16.0022 L22.0005,15.0022 L24.0005,15.0022 L24.0005,13.0022 Z" id="Fill-681"></path>
            </g>
        </g>
    </g>
</svg>