<?xml version="1.0" encoding="UTF-8"?>
<svg width="20px" height="20px" viewBox="0 0 20 20" version="1.1" xmlns="http://www.w3.org/2000/svg" xmlns:xlink="http://www.w3.org/1999/xlink">
    <!-- Generator: Sketch 42 (36781) - http://www.bohemiancoding.com/sketch -->
    <title>Group</title>
    <desc>Created with Sketch.</desc>
    <defs></defs>
    <g id="Page-1" stroke="none" stroke-width="1" fill="none" fill-rule="evenodd">
        <g id="Line-Icons" transform="translate(-290.000000, -577.000000)" fill="#757575">
            <g id="Group" transform="translate(290.000000, 577.000000)">
                <path d="M10,13.0024 C8.343,13.0024 7,11.6594 7,10.0024 C7,8.3444 8.343,7.0024 10,7.0024 C11.657,7.0024 13,8.3444 13,10.0024 C13,11.6594 11.657,13.0024 10,13.0024 M14.899,11.0024 L18,11.0024 L18,9.0024 L14.899,9.0024 C14.501,7.0434 12.959,5.5004 11,5.1034 L11,2.0024 L9,2.0024 L9,5.1034 C7.041,5.5004 5.499,7.0434 5.101,9.0024 L2,9.0024 L2,11.0024 L5.101,11.0024 C5.499,12.9604 7.041,14.5034 9,14.9014 L9,18.0024 L11,18.0024 L11,14.9014 C12.959,14.5034 14.501,12.9604 14.899,11.0024" id="Fill-456"></path>
                <path d="M18,18.0024 L14,18.0024 L14,20.0024 L18,20.0024 C19.103,20.0024 20,19.1044 20,18.0024 L20,14.0024 L18,14.0024 L18,18.0024 Z" id="Fill-457"></path>
                <path d="M18,0.0024 L14,0.0024 L14,2.0024 L18,2.0024 L18,6.0024 L20,6.0024 L20,2.0024 C20,0.8994 19.103,0.0024 18,0.0024" id="Fill-458"></path>
                <path d="M2,2.0024 L6,2.0024 L6,0.0024 L2,0.0024 C0.897,0.0024 0,0.8994 0,2.0024 L0,6.0024 L2,6.0024 L2,2.0024 Z" id="Fill-459"></path>
                <path d="M2,14.0024 L0,14.0024 L0,18.0024 C0,19.1044 0.897,20.0024 2,20.0024 L6,20.0024 L6,18.0024 L2,18.0024 L2,14.0024 Z" id="Fill-460"></path>
            </g>
        </g>
    </g>
</svg>