<?xml version="1.0" encoding="UTF-8"?>
<svg width="21px" height="20px" viewBox="0 0 21 20" version="1.1" xmlns="http://www.w3.org/2000/svg" xmlns:xlink="http://www.w3.org/1999/xlink">
    <!-- Generator: Sketch 42 (36781) - http://www.bohemiancoding.com/sketch -->
    <title>Group</title>
    <desc>Created with Sketch.</desc>
    <defs></defs>
    <g id="Page-1" stroke="none" stroke-width="1" fill="none" fill-rule="evenodd">
        <g id="Line-Icons" transform="translate(-2.000000, -529.000000)" fill="#757575">
            <g id="Group" transform="translate(2.000000, 529.000000)">
                <path d="M19.6411,4.98 C19.6251,4.446 19.4031,3.95 19.0161,3.584 L16.7111,1.404 C15.9401,0.674 14.6101,0.713 13.8841,1.482 L11.0001,4.531 L11.0001,7.442 L15.3361,2.857 L17.6421,5.038 L11.0001,12.06 L11.0001,14.97 L19.0931,6.413 C19.4601,6.027 19.6551,5.518 19.6411,4.98" id="Fill-183"></path>
                <path d="M2,18.0005 L2,2.0005 L8,2.0005 L8.001,18.0005 L2,18.0005 Z M8,0.0005 L2,0.0005 C0.897,0.0005 0,0.8985 0,2.0005 L0,18.0005 C0,19.1035 0.897,20.0005 2,20.0005 L8,20.0005 C9.103,20.0005 10,19.1035 10,18.0005 L10,2.0005 C10,0.8985 9.103,0.0005 8,0.0005 L8,0.0005 Z" id="Fill-184"></path>
                <polygon id="Fill-185" points="3 8 7 8 7 4 3 4"></polygon>
                <polygon id="Fill-186" points="3 14 7 14 7 10 3 10"></polygon>
                <path d="M5,15.0005 C4.447,15.0005 4,15.4485 4,16.0005 C4,16.5525 4.447,17.0005 5,17.0005 C5.553,17.0005 6,16.5525 6,16.0005 C6,15.4485 5.553,15.0005 5,15.0005" id="Fill-187"></path>
                <path d="M20.8931,15.9478 L20.5311,12.7958 C20.4701,12.2738 20.2001,11.7868 19.7881,11.4568 C19.3691,11.1248 18.8481,10.9748 18.3151,11.0378 L15.9701,11.3068 L16.1981,13.2948 L18.5431,13.0238 L18.9061,16.1768 L11.0001,17.0848 L11.0001,19.0978 L19.1341,18.1628 C19.6641,18.1028 20.1401,17.8388 20.4731,17.4208 C20.8051,17.0018 20.9541,16.4778 20.8931,15.9478" id="Fill-188"></path>
            </g>
        </g>
    </g>
</svg>