<?xml version="1.0" encoding="UTF-8"?>
<svg width="20px" height="20px" viewBox="0 0 20 20" version="1.1" xmlns="http://www.w3.org/2000/svg" xmlns:xlink="http://www.w3.org/1999/xlink">
    <!-- Generator: Sketch 42 (36781) - http://www.bohemiancoding.com/sketch -->
    <title>Group</title>
    <desc>Created with Sketch.</desc>
    <defs></defs>
    <g id="Page-1" stroke="none" stroke-width="1" fill="none" fill-rule="evenodd">
        <g id="Line-Icons" transform="translate(-194.000000, -721.000000)" fill="#757575">
            <g id="Group" transform="translate(194.000000, 721.000000)">
                <path d="M7,7.5005 C7.138,7.5005 7.25,7.6125 7.25,7.7505 C7.25,8.0265 6.75,8.0265 6.75,7.7505 C6.75,7.6125 6.862,7.5005 7,7.5005 M7,9.5005 C7.965,9.5005 8.75,8.7155 8.75,7.7505 C8.75,6.7855 7.965,6.0005 7,6.0005 C6.035,6.0005 5.25,6.7855 5.25,7.7505 C5.25,8.7155 6.035,9.5005 7,9.5005" id="Fill-148"></path>
                <path d="M10,18.0005 C5.589,18.0005 2,14.4115 2,10.0005 C2,5.5895 5.589,2.0005 10,2.0005 C14.411,2.0005 18,5.5895 18,10.0005 C18,14.4115 14.411,18.0005 10,18.0005 M10,0.0005 C4.486,0.0005 0,4.4865 0,10.0005 C0,15.5155 4.486,20.0005 10,20.0005 C15.514,20.0005 20,15.5155 20,10.0005 C20,4.4865 15.514,0.0005 10,0.0005" id="Fill-149"></path>
                <path d="M10,14.0005 C8.732,14.0005 7.566,13.4185 6.801,12.4025 L5.203,13.6065 C6.35,15.1285 8.098,16.0005 10,16.0005 C11.905,16.0005 13.655,15.1265 14.8,13.6015 L13.2,12.3995 C12.436,13.4175 11.27,14.0005 10,14.0005" id="Fill-150"></path>
                <polygon id="Fill-151" points="11 9 15 9 15 7 11 7"></polygon>
            </g>
        </g>
    </g>
</svg>