<?xml version="1.0" encoding="UTF-8"?>
<svg width="20px" height="21px" viewBox="0 0 20 21" version="1.1" xmlns="http://www.w3.org/2000/svg" xmlns:xlink="http://www.w3.org/1999/xlink">
    <!-- Generator: Sketch 42 (36781) - http://www.bohemiancoding.com/sketch -->
    <title>Group</title>
    <desc>Created with Sketch.</desc>
    <defs></defs>
    <g id="Page-1" stroke="none" stroke-width="1" fill="none" fill-rule="evenodd">
        <g id="Line-Icons" transform="translate(-98.000000, -1056.000000)" fill="#767676">
            <g id="Group" transform="translate(98.000000, 1056.000000)">
                <path d="M18,19.0005 L13.001,19.0005 L13,17.9995 C12.999,17.7345 12.894,17.4805 12.706,17.2925 L10.705,15.2925 C10.517,15.1055 10.263,15.0005 9.998,15.0005 L9.998,15.0005 C9.732,15.0005 9.478,15.1055 9.29,15.2935 L7.292,17.2935 C7.105,17.4815 7,17.7355 7,18.0005 L7,19.0005 L2,19.0005 L2,14.0005 L18,14.0005 L18,19.0005 Z M9,10.0005 L11,10.0005 L11,12.0005 L9,12.0005 L9,10.0005 Z M10,2.2445 C11.395,3.3355 13,4.9835 13,6.0005 C13,6.4945 13,8.0005 10,8.0005 C7,8.0005 7,6.4945 7,6.0005 C7,4.9835 8.605,3.3355 10,2.2445 L10,2.2445 Z M19,12.0005 L13,12.0005 L13,9.3685 C14.283,8.7065 15,7.5465 15,6.0005 C15,3.4005 11.311,0.6965 10.572,0.1805 C10.229,-0.0595 9.771,-0.0595 9.428,0.1805 C8.689,0.6965 5,3.4005 5,6.0005 C5,7.5465 5.717,8.7065 7,9.3685 L7,12.0005 L1,12.0005 C0.448,12.0005 0,12.4485 0,13.0005 L0,20.0005 C0,20.5515 0.448,21.0005 1,21.0005 L8,21.0005 C8.552,21.0005 9,20.5515 9,20.0005 L9,18.4145 L9.999,17.4145 L11.001,18.4155 L11.002,20.0005 C11.002,20.5525 11.45,21.0005 12.002,21.0005 L19,21.0005 C19.552,21.0005 20,20.5515 20,20.0005 L20,13.0005 C20,12.4485 19.552,12.0005 19,12.0005 L19,12.0005 Z" id="Fill-639"></path>
                <polygon id="Fill-640" points="16 15 14 15 14 17 16 17"></polygon>
                <polygon id="Fill-641" points="4 17 6 17 6 15 4 15"></polygon>
                <polygon id="Fill-642" points="3 8 1 8 1 11 3 11"></polygon>
                <polygon id="Fill-643" points="19 8 17 8 17 11 19 11"></polygon>
            </g>
        </g>
    </g>
</svg>