<?xml version="1.0" encoding="UTF-8"?>
<svg width="20px" height="20px" viewBox="0 0 20 20" version="1.1" xmlns="http://www.w3.org/2000/svg" xmlns:xlink="http://www.w3.org/1999/xlink">
    <!-- Generator: Sketch 42 (36781) - http://www.bohemiancoding.com/sketch -->
    <title>Group</title>
    <desc>Created with Sketch.</desc>
    <defs></defs>
    <g id="Page-1" stroke="none" stroke-width="1" fill="none" fill-rule="evenodd">
        <g id="Line-Icons" transform="translate(-386.000000, -721.000000)" fill="#757575">
            <g id="Group" transform="translate(386.000000, 721.000000)">
                <path d="M10,18.0005 C5.589,18.0005 2,14.4115 2,10.0005 C2,5.5895 5.589,2.0005 10,2.0005 C14.411,2.0005 18,5.5895 18,10.0005 C18,14.4115 14.411,18.0005 10,18.0005 M10,0.0005 C4.486,0.0005 0,4.4865 0,10.0005 C0,15.5155 4.486,20.0005 10,20.0005 C15.514,20.0005 20,15.5155 20,10.0005 C20,4.4865 15.514,0.0005 10,0.0005" id="Fill-152"></path>
                <polygon id="Fill-153" points="8 5 6 5 6 8 8 8"></polygon>
                <polygon id="Fill-154" points="14 5 12 5 12 8 14 8"></polygon>
                <polygon id="Fill-155" points="13.1274 10.7144 10.0004 12.7994 6.8724 10.7144 4.2934 13.2934 5.7074 14.7074 7.1274 13.2874 10.0004 15.2024 12.8724 13.2874 14.2934 14.7074 15.7074 13.2934"></polygon>
            </g>
        </g>
    </g>
</svg>