<?xml version="1.0" encoding="UTF-8"?>
<svg width="22px" height="22px" viewBox="0 0 22 22" version="1.1" xmlns="http://www.w3.org/2000/svg" xmlns:xlink="http://www.w3.org/1999/xlink">
    <!-- Generator: Sketch 42 (36781) - http://www.bohemiancoding.com/sketch -->
    <title>Group</title>
    <desc>Created with Sketch.</desc>
    <defs></defs>
    <g id="Page-1" stroke="none" stroke-width="1" fill="none" fill-rule="evenodd">
        <g id="Line-Icons" transform="translate(-145.000000, -1008.000000)" fill="#767676">
            <g id="Group" transform="translate(145.000000, 1008.000000)">
                <path d="M20.001,19.0039 L2.001,19.0039 L2.001,15.0039 L6.001,15.0039 C6.553,15.0039 7.001,14.5559 7.001,14.0039 L7.001,11.0039 L15.001,11.0039 L15.001,14.0039 C15.001,14.5559 15.449,15.0039 16.001,15.0039 L20.001,15.0039 L20.001,19.0039 Z M7.001,8.0039 C7.001,5.7989 8.795,4.0039 11.001,4.0039 C13.206,4.0039 15.001,5.7989 15.001,8.0039 L15.001,9.0039 L7.001,9.0039 L7.001,8.0039 Z M21.001,13.0039 L17.001,13.0039 L17.001,8.0039 C17.001,5.0379 14.834,2.5729 12.001,2.0939 L12.001,0.0039 L10.001,0.0039 L10.001,2.0939 C7.168,2.5729 5.001,5.0379 5.001,8.0039 L5.001,13.0039 L1.001,13.0039 C0.449,13.0039 0.001,13.4519 0.001,14.0039 L0.001,20.0039 C0.001,20.5559 0.449,21.0039 1.001,21.0039 L21.001,21.0039 C21.553,21.0039 22.001,20.5559 22.001,20.0039 L22.001,14.0039 C22.001,13.4519 21.553,13.0039 21.001,13.0039 L21.001,13.0039 Z" id="Fill-624"></path>
                <polygon id="Fill-625" points="8.001 15.004 10.001 15.004 10.001 13.004 8.001 13.004"></polygon>
                <polygon id="Fill-626" points="12.001 15.004 14.001 15.004 14.001 13.004 12.001 13.004"></polygon>
                <polygon id="Fill-627" points="4.001 18.004 6.001 18.004 6.001 16.004 4.001 16.004"></polygon>
                <polygon id="Fill-628" points="8.001 18.004 10.001 18.004 10.001 16.004 8.001 16.004"></polygon>
                <polygon id="Fill-629" points="12.001 18.004 14.001 18.004 14.001 16.004 12.001 16.004"></polygon>
                <polygon id="Fill-630" points="16.001 18.004 18.001 18.004 18.001 16.004 16.001 16.004"></polygon>
            </g>
        </g>
    </g>
</svg>