<?xml version="1.0" encoding="UTF-8"?>
<svg width="20px" height="24px" viewBox="0 0 20 24" version="1.1" xmlns="http://www.w3.org/2000/svg" xmlns:xlink="http://www.w3.org/1999/xlink">
    <!-- Generator: Sketch 42 (36781) - http://www.bohemiancoding.com/sketch -->
    <title>Group</title>
    <desc>Created with Sketch.</desc>
    <defs></defs>
    <g id="Page-1" stroke="none" stroke-width="1" fill="none" fill-rule="evenodd">
        <g id="Line-Icons" transform="translate(-434.000000, -1391.000000)" fill="#757575">
            <g id="Group" transform="translate(434.000000, 1391.000000)">
                <path d="M17,19.0005 L3,19.0005 C2.448,19.0005 2,18.5515 2,18.0005 C2,17.4495 2.448,17.0005 3,17.0005 L11.586,17.0005 L13.293,18.7075 C13.488,18.9025 13.744,19.0005 14,19.0005 C14.256,19.0005 14.512,18.9025 14.707,18.7075 L16.414,17.0005 L17,17.0005 C17.552,17.0005 18,17.4495 18,18.0005 C18,18.5515 17.552,19.0005 17,19.0005 L17,19.0005 Z M4,21.0005 L16,21.0005 L16,22.0005 L4,22.0005 L4,21.0005 Z M4,9.0005 L16,9.0005 C17.271,9.0005 18,9.5475 18,10.5005 C18,11.3455 16.925,12.0005 16,12.0005 C15.527,12.0005 15.092,11.7775 14.802,11.3895 C14.613,11.1365 14.316,10.9865 14,10.9865 C13.685,10.9865 13.387,11.1365 13.198,11.3895 C13,11.6565 12.14,12.0005 11.5,12.0005 C11.098,12.0005 10.79,11.8325 10.603,11.6905 C10.246,11.4215 9.754,11.4215 9.397,11.6905 C9.21,11.8325 8.902,12.0005 8.5,12.0005 C7.86,12.0005 7.001,11.6565 6.802,11.3895 C6.425,10.8835 5.575,10.8835 5.198,11.3895 C4.909,11.7775 4.473,12.0005 4,12.0005 C3.075,12.0005 2,11.3455 2,10.5005 C2,9.5475 2.728,9.0005 4,9.0005 L4,9.0005 Z M10,2.0005 C12.968,2.0005 15.44,4.1665 15.916,7.0005 L4.084,7.0005 C4.56,4.1665 7.032,2.0005 10,2.0005 L10,2.0005 Z M18,14.0005 C18,14.5515 17.552,15.0005 17,15.0005 L3,15.0005 C2.448,15.0005 2,14.5515 2,14.0005 C2,13.8385 2.041,13.6855 2.111,13.5465 C2.704,13.8325 3.356,14.0005 4,14.0005 C4.755,14.0005 5.469,13.7615 6.059,13.3265 C6.805,13.7685 7.755,14.0005 8.5,14.0005 C9.022,14.0005 9.531,13.8835 10,13.6565 C10.469,13.8835 10.978,14.0005 11.5,14.0005 C12.245,14.0005 13.195,13.7685 13.941,13.3265 C14.531,13.7615 15.246,14.0005 16,14.0005 C16.644,14.0005 17.295,13.8325 17.887,13.5465 C17.958,13.6855 18,13.8385 18,14.0005 L18,14.0005 Z M19.419,12.2695 C19.772,11.7635 20,11.1725 20,10.5005 C20,9.2505 19.35,8.0025 17.969,7.3925 C17.656,3.2655 14.206,0.0005 10,0.0005 C5.794,0.0005 2.344,3.2655 2.031,7.3925 C0.65,8.0025 0,9.2505 0,10.5005 C0,11.1705 0.228,11.7595 0.579,12.2655 C0.22,12.7665 0,13.3595 0,14.0005 C0,14.7715 0.301,15.4685 0.78,16.0005 C0.301,16.5325 0,17.2295 0,18.0005 C0,19.3025 0.839,20.4015 2,20.8155 L2,22.0005 C2,23.1035 2.897,24.0005 4,24.0005 L16,24.0005 C17.103,24.0005 18,23.1035 18,22.0005 L18,20.8155 C19.162,20.4015 20,19.3025 20,18.0005 C20,17.2295 19.699,16.5325 19.22,16.0005 C19.699,15.4685 20,14.7715 20,14.0005 C20,13.3685 19.777,12.7725 19.419,12.2695 L19.419,12.2695 Z" id="Fill-903"></path>
                <path d="M7.25,4.5005 C6.836,4.5005 6.5,4.8365 6.5,5.2505 C6.5,5.6645 6.836,6.0005 7.25,6.0005 C7.664,6.0005 8,5.6645 8,5.2505 C8,4.8365 7.664,4.5005 7.25,4.5005" id="Fill-904"></path>
                <path d="M12.75,4.5005 C12.336,4.5005 12,4.8365 12,5.2505 C12,5.6645 12.336,6.0005 12.75,6.0005 C13.164,6.0005 13.5,5.6645 13.5,5.2505 C13.5,4.8365 13.164,4.5005 12.75,4.5005" id="Fill-905"></path>
                <path d="M10,3.0005 C9.586,3.0005 9.25,3.3365 9.25,3.7505 C9.25,4.1645 9.586,4.5005 10,4.5005 C10.414,4.5005 10.75,4.1645 10.75,3.7505 C10.75,3.3365 10.414,3.0005 10,3.0005" id="Fill-906"></path>
            </g>
        </g>
    </g>
</svg>