<?xml version="1.0" encoding="UTF-8"?>
<svg width="20px" height="18px" viewBox="0 0 20 18" version="1.1" xmlns="http://www.w3.org/2000/svg" xmlns:xlink="http://www.w3.org/1999/xlink">
    <!-- Generator: Sketch 42 (36781) - http://www.bohemiancoding.com/sketch -->
    <title>Group</title>
    <desc>Created with Sketch.</desc>
    <defs></defs>
    <g id="Page-1" stroke="none" stroke-width="1" fill="none" fill-rule="evenodd">
        <g id="Line-Icons" transform="translate(-386.000000, -98.000000)" fill="#757575">
            <g id="Group" transform="translate(386.000000, 98.000000)">
                <path d="M3,14.0005 C3,12.1595 4.159,11.0005 6,11.0005 C7.841,11.0005 9,12.1595 9,14.0005 L3,14.0005 Z" id="Fill-218"></path>
                <path d="M8,8.0005 C8,9.1045 7.104,10.0005 6,10.0005 C4.896,10.0005 4,9.1045 4,8.0005 C4,6.8965 4.896,6.0005 6,6.0005 C7.104,6.0005 8,6.8965 8,8.0005" id="Fill-219"></path>
                <polygon id="Fill-220" points="17 10 11 10 11 8 17 8"></polygon>
                <polygon id="Fill-221" points="17 14 11 14 11 12 17 12"></polygon>
                <path d="M2,16.0005 L2,4.0005 L7.185,4.0005 C7.599,5.1625 8.698,6.0005 10,6.0005 C11.302,6.0005 12.401,5.1625 12.815,4.0005 L18,4.0005 L18.001,16.0005 L2,16.0005 Z M10,2.0005 C10.551,2.0005 11,2.4495 11,3.0005 C11,3.5515 10.551,4.0005 10,4.0005 C9.449,4.0005 9,3.5515 9,3.0005 C9,2.4495 9.449,2.0005 10,2.0005 L10,2.0005 Z M18,2.0005 L12.815,2.0005 C12.401,0.8385 11.302,0.0005 10,0.0005 C8.698,0.0005 7.599,0.8385 7.185,2.0005 L2,2.0005 C0.897,2.0005 0,2.8965 0,4.0005 L0,16.0005 C0,17.1035 0.897,18.0005 2,18.0005 L18,18.0005 C19.103,18.0005 20,17.1035 20,16.0005 L20,4.0005 C20,2.8965 19.103,2.0005 18,2.0005 L18,2.0005 Z" id="Fill-222"></path>
            </g>
        </g>
    </g>
</svg>