<?xml version="1.0" encoding="UTF-8"?>
<svg width="16px" height="20px" viewBox="0 0 16 20" version="1.1" xmlns="http://www.w3.org/2000/svg" xmlns:xlink="http://www.w3.org/1999/xlink">
    <!-- Generator: Sketch 42 (36781) - http://www.bohemiancoding.com/sketch -->
    <title>Group</title>
    <desc>Created with Sketch.</desc>
    <defs></defs>
    <g id="Page-1" stroke="none" stroke-width="1" fill="none" fill-rule="evenodd">
        <g id="Line-Icons" transform="translate(-388.000000, -1633.000000)" fill="#757575">
            <g id="Group" transform="translate(388.000000, 1633.000000)">
                <path d="M2,18.0005 L2,2.0005 L8,2.0005 L8,4.0005 L10,4.0005 L10,2.0005 L14,2.0005 L14.001,18.0005 L2,18.0005 Z M14,0.0005 L2,0.0005 C0.897,0.0005 0,0.8965 0,2.0005 L0,18.0005 C0,19.1025 0.897,20.0005 2,20.0005 L14,20.0005 C15.103,20.0005 16,19.1025 16,18.0005 L16,2.0005 C16,0.8965 15.103,0.0005 14,0.0005 L14,0.0005 Z" id="Fill-895"></path>
                <polygon id="Fill-896" points="12 4.001 10 4.001 10 6.001 12 6.001"></polygon>
                <polygon id="Fill-897" points="8 8.001 10 8.001 10 6.001 8 6.001"></polygon>
                <polygon id="Fill-898" points="12 8.001 10 8.001 10 10.001 12 10.001"></polygon>
                <polygon id="Fill-899" points="8 12.001 10 12.001 10 10.001 8 10.001"></polygon>
            </g>
        </g>
    </g>
</svg>