<?xml version="1.0" encoding="UTF-8"?>
<svg width="20px" height="17px" viewBox="0 0 20 17" version="1.1" xmlns="http://www.w3.org/2000/svg" xmlns:xlink="http://www.w3.org/1999/xlink">
    <!-- Generator: Sketch 42 (36781) - http://www.bohemiancoding.com/sketch -->
    <title>Group</title>
    <desc>Created with Sketch.</desc>
    <defs></defs>
    <g id="Page-1" stroke="none" stroke-width="1" fill="none" fill-rule="evenodd">
        <g id="Line-Icons" transform="translate(-50.000000, -1251.000000)" fill="#767676">
            <g id="Group" transform="translate(50.000000, 1251.000000)">
                <path d="M3.0015,6.0044 L10.0015,6.0044 C10.5535,6.0044 11.0015,5.5574 11.0015,5.0044 C11.0015,4.4514 10.5535,4.0044 10.0015,4.0044 L3.0015,4.0044 C2.4495,4.0044 2.0015,4.4514 2.0015,5.0044 C2.0015,5.5574 2.4495,6.0044 3.0015,6.0044" id="Fill-736"></path>
                <path d="M15.0015,15.0044 L14.1855,15.0044 C14.5985,16.1674 15.6975,17.0044 17.0015,17.0044 C18.6585,17.0044 20.0015,15.6604 20.0015,14.0044 C20.0015,13.0854 19.5795,12.2744 18.9285,11.7234 C18.5885,13.5854 16.9605,15.0044 15.0015,15.0044" id="Fill-737"></path>
                <path d="M2.0015,12.0044 C2.0015,10.3504 3.3475,9.0044 5.0015,9.0044 L8.0015,9.0044 L8.0015,12.0044 L2.0015,12.0044 Z M18.0015,6.6714 L18.0015,3.0044 C18.0015,1.3504 16.6555,0.0044 15.0015,0.0044 L13.0015,0.0044 L13.0015,2.0044 L15.0015,2.0044 C15.5525,2.0044 16.0015,2.4534 16.0015,3.0044 L16.0015,11.0044 C16.0015,11.5554 15.5525,12.0044 15.0015,12.0044 L10.0015,12.0044 L10.0015,8.0044 C10.0015,7.4524 9.5535,7.0044 9.0015,7.0044 L5.0015,7.0044 C2.2445,7.0044 0.0015,9.2474 0.0015,12.0044 L0.0015,14.0044 L15.0015,14.0044 C16.6555,14.0044 18.0015,12.6584 18.0015,11.0044 L18.0015,9.3374 L20.0015,10.0044 L20.0015,6.0044 L18.0015,6.6714 Z" id="Fill-738"></path>
                <path d="M5.0015,17.0044 C6.3055,17.0044 7.4045,16.1674 7.8175,15.0044 L2.1855,15.0044 C2.5985,16.1674 3.6975,17.0044 5.0015,17.0044" id="Fill-739"></path>
            </g>
        </g>
    </g>
</svg>