<?xml version="1.0" encoding="UTF-8"?>
<svg width="18px" height="24px" viewBox="0 0 18 24" version="1.1" xmlns="http://www.w3.org/2000/svg" xmlns:xlink="http://www.w3.org/1999/xlink">
    <!-- Generator: Sketch 42 (36781) - http://www.bohemiancoding.com/sketch -->
    <title>Group</title>
    <desc>Created with Sketch.</desc>
    <defs></defs>
    <g id="Page-1" stroke="none" stroke-width="1" fill="none" fill-rule="evenodd">
        <g id="Line-Icons" transform="translate(-291.000000, -431.000000)" fill="#757575">
            <g id="Group" transform="translate(291.000000, 431.000000)">
                <path d="M6,4.0005 C6.305,4.0005 6.611,4.0785 6.909,4.2325 C7.153,4.3585 7.438,4.3795 7.695,4.2905 C7.954,4.1995 8.165,4.0085 8.278,3.7595 C8.765,2.6905 9.834,2.0005 11,2.0005 C12.654,2.0005 14,3.3465 14,5.0005 C14,6.6545 12.654,8.0005 11,8.0005 L6,8.0005 C4.897,8.0005 4,7.1035 4,6.0005 C4,4.8975 4.897,4.0005 6,4.0005 M6,10.0005 L11,10.0005 C13.757,10.0005 16,7.7575 16,5.0005 C16,2.2435 13.757,0.0005 11,0.0005 C9.369,0.0005 7.853,0.8075 6.927,2.1145 C6.623,2.0385 6.313,2.0005 6,2.0005 C3.794,2.0005 2,3.7945 2,6.0005 C2,8.2065 3.794,10.0005 6,10.0005" id="Fill-405"></path>
                <path d="M2,22.0005 L2,19.0005 L15.998,19.0005 L15.997,22.0005 L2,22.0005 Z M16,14.0005 L15.999,17.0005 L2,17.0005 L2,14.0005 L16,14.0005 Z M16,12.0005 L2,12.0005 C0.897,12.0005 0,12.8975 0,14.0005 L0,22.0005 C0,23.1035 0.897,24.0005 2,24.0005 L16,24.0005 C17.103,24.0005 18,23.1035 18,22.0005 L18,14.0005 C18,12.8975 17.103,12.0005 16,12.0005 L16,12.0005 Z" id="Fill-406"></path>
                <path d="M10.5,19.5005 C9.948,19.5005 9.5,19.9485 9.5,20.5005 C9.5,21.0535 9.948,21.5005 10.5,21.5005 C11.052,21.5005 11.5,21.0535 11.5,20.5005 C11.5,19.9485 11.052,19.5005 10.5,19.5005" id="Fill-407"></path>
                <path d="M13.5,19.5005 C12.948,19.5005 12.5,19.9485 12.5,20.5005 C12.5,21.0535 12.948,21.5005 13.5,21.5005 C14.052,21.5005 14.5,21.0535 14.5,20.5005 C14.5,19.9485 14.052,19.5005 13.5,19.5005" id="Fill-408"></path>
                <path d="M10.5,16.5005 C11.052,16.5005 11.5,16.0535 11.5,15.5005 C11.5,14.9485 11.052,14.5005 10.5,14.5005 C9.948,14.5005 9.5,14.9485 9.5,15.5005 C9.5,16.0535 9.948,16.5005 10.5,16.5005" id="Fill-409"></path>
                <path d="M13.5,16.5005 C14.052,16.5005 14.5,16.0535 14.5,15.5005 C14.5,14.9485 14.052,14.5005 13.5,14.5005 C12.948,14.5005 12.5,14.9485 12.5,15.5005 C12.5,16.0535 12.948,16.5005 13.5,16.5005" id="Fill-410"></path>
            </g>
        </g>
    </g>
</svg>