<?xml version="1.0" encoding="UTF-8"?>
<svg width="20px" height="22px" viewBox="0 0 20 22" version="1.1" xmlns="http://www.w3.org/2000/svg" xmlns:xlink="http://www.w3.org/1999/xlink">
    <!-- Generator: Sketch 42 (36781) - http://www.bohemiancoding.com/sketch -->
    <title>Group</title>
    <desc>Created with Sketch.</desc>
    <defs></defs>
    <g id="Page-1" stroke="none" stroke-width="1" fill="none" fill-rule="evenodd">
        <g id="Line-Icons" transform="translate(-242.000000, -1584.000000)" fill="#757575">
            <g id="Group" transform="translate(242.000000, 1584.000000)">
                <polygon id="Fill-60" points="18 1.0005 18 3.5865 14.707 0.2935 13.293 1.7065 16.586 5.0005 14 5.0005 14 7.0005 20 7.0005 20 1.0005"></polygon>
                <polygon id="Fill-61" points="6 17.0005 6 15.0005 0 15.0005 0 21.0005 2 21.0005 2 18.4145 5.293 21.7065 6.707 20.2935 3.414 17.0005"></polygon>
                <path d="M10,19.0005 L10,10.0005 L17,10.0005 L17.001,19.0005 L10,19.0005 Z M17,8.0005 L10,8.0005 C8.897,8.0005 8,8.8985 8,10.0005 L8,19.0005 C8,20.1025 8.897,21.0005 10,21.0005 L17,21.0005 C18.103,21.0005 19,20.1025 19,19.0005 L19,10.0005 C19,8.8985 18.103,8.0005 17,8.0005 L17,8.0005 Z" id="Fill-62"></path>
                <path d="M3,3.0005 L10,3.0005 L10,7.0005 L12,7.0005 L12,3.0005 C12,1.8985 11.103,1.0005 10,1.0005 L3,1.0005 C1.897,1.0005 1,1.8985 1,3.0005 L1,12.0005 C1,13.1025 1.897,14.0005 3,14.0005 L7,14.0005 L7,12.0005 L3,12.0005 L3,3.0005 Z" id="Fill-63"></path>
            </g>
        </g>
    </g>
</svg>