<?xml version="1.0" encoding="UTF-8"?>
<svg width="18px" height="22px" viewBox="0 0 18 22" version="1.1" xmlns="http://www.w3.org/2000/svg" xmlns:xlink="http://www.w3.org/1999/xlink">
    <!-- Generator: Sketch 42 (36781) - http://www.bohemiancoding.com/sketch -->
    <title>Group</title>
    <desc>Created with Sketch.</desc>
    <defs></defs>
    <g id="Page-1" stroke="none" stroke-width="1" fill="none" fill-rule="evenodd">
        <g id="Line-Icons" transform="translate(-147.000000, -576.000000)" fill="#757575">
            <g id="Group" transform="translate(147.000000, 576.000000)">
                <path d="M16,20.001 L2,20.001 L2,16.001 L16,16.001 L16,20.001 Z M7,5.001 L7,2.001 L10,2.001 L10.001,5.001 L10,5.001 L7,5.001 Z M16,5.001 L12,5.001 L12,2.001 C12,0.899 11.103,0.001 10,0.001 L7,0.001 C5.897,0.001 5,0.899 5,2.001 L5,5.001 C5,6.104 5.897,7.001 7,7.001 L16,7.001 L16,14.001 L1,14.001 C0.448,14.001 0,14.449 0,15.001 L0,21.001 C0,21.553 0.448,22.001 1,22.001 L17,22.001 C17.552,22.001 18,21.553 18,21.001 L18,7.001 C18,5.899 17.103,5.001 16,5.001 L16,5.001 Z" id="Fill-449"></path>
                <path d="M10,19.0015 C10.552,19.0015 11,18.5545 11,18.0015 C11,17.4495 10.552,17.0015 10,17.0015 C9.448,17.0015 9,17.4495 9,18.0015 C9,18.5545 9.448,19.0015 10,19.0015" id="Fill-450"></path>
                <path d="M14,19.0015 C14.552,19.0015 15,18.5545 15,18.0015 C15,17.4495 14.552,17.0015 14,17.0015 C13.448,17.0015 13,17.4495 13,18.0015 C13,18.5545 13.448,19.0015 14,19.0015" id="Fill-451"></path>
                <polygon id="Fill-452" points="7 13.001 9 13.001 9 9.001 7 9.001"></polygon>
                <polygon id="Fill-453" points="11.9429 8.1543 10.0569 8.8213 11.3899 12.5913 13.2759 11.9253"></polygon>
                <polygon id="Fill-454" points="5.9429 8.8208 4.0569 8.1538 2.7239 11.9248 4.6099 12.5918"></polygon>
            </g>
        </g>
    </g>
</svg>