<?xml version="1.0" encoding="UTF-8"?>
<svg width="20px" height="23px" viewBox="0 0 20 23" version="1.1" xmlns="http://www.w3.org/2000/svg" xmlns:xlink="http://www.w3.org/1999/xlink">
    <!-- Generator: Sketch 42 (36781) - http://www.bohemiancoding.com/sketch -->
    <title>Group</title>
    <desc>Created with Sketch.</desc>
    <defs></defs>
    <g id="Page-1" stroke="none" stroke-width="1" fill="none" fill-rule="evenodd">
        <g id="Line-Icons" transform="translate(-242.000000, -1200.000000)" fill="#767676">
            <g id="Group" transform="translate(241.000000, 1200.000000)">
                <path d="M13.9985,21.0005 C11.2415,21.0005 8.9985,18.7575 8.9985,16.0005 C8.9985,13.2435 11.2415,11.0005 13.9985,11.0005 C16.7555,11.0005 18.9985,13.2435 18.9985,16.0005 C18.9985,18.7575 16.7555,21.0005 13.9985,21.0005 L13.9985,21.0005 Z M6.9105,21.0005 L5.0835,21.0005 C4.5505,20.7025 2.9985,18.4435 2.9985,15.0005 C2.9985,13.0705 3.4945,11.9655 4.0185,10.7945 C4.3935,9.9565 4.7785,9.0985 4.9305,8.0005 L7.0665,8.0005 C7.2185,9.0985 7.6035,9.9575 7.9785,10.7945 C8.1245,11.1195 8.2685,11.4595 8.4045,11.8105 C7.5255,12.9805 6.9985,14.4285 6.9985,16.0005 C6.9985,17.2985 7.3595,18.5095 7.9775,19.5525 C7.5005,20.5055 7.0625,20.9075 6.9105,21.0005 L6.9105,21.0005 Z M4.9985,3.0005 C4.9985,2.4495 5.4475,2.0005 5.9985,2.0005 C6.5495,2.0005 6.9985,2.4495 6.9985,3.0005 L6.9985,6.0005 L4.9985,6.0005 L4.9985,3.0005 Z M13.9985,9.0005 C12.4875,9.0005 11.0915,9.4855 9.9465,10.3035 C9.4075,9.0885 8.9985,8.2715 8.9985,7.0005 L8.9985,6.0005 L8.9985,3.0005 C8.9985,1.3465 7.6525,0.0005 5.9985,0.0005 C4.3445,0.0005 2.9985,1.3465 2.9985,3.0005 L2.9985,6.0005 L2.9985,7.0005 C2.9985,8.1795 2.6435,8.9725 2.1935,9.9765 C1.6335,11.2265 0.9985,12.6435 0.9985,15.0005 C0.9985,19.3095 3.1975,23.0005 4.9985,23.0005 L6.9985,23.0005 C7.9865,23.0005 8.7935,22.0715 9.3365,21.2075 C10.5755,22.3175 12.2065,23.0005 13.9985,23.0005 C17.8585,23.0005 20.9985,19.8605 20.9985,16.0005 C20.9985,12.1405 17.8585,9.0005 13.9985,9.0005 L13.9985,9.0005 Z" id="Fill-725"></path>
                <path d="M13.9985,15.0005 C13.4455,15.0005 12.9985,15.4475 12.9985,16.0005 C12.9985,16.5535 13.4455,17.0005 13.9985,17.0005 C14.5515,17.0005 14.9985,16.5535 14.9985,16.0005 C14.9985,15.4475 14.5515,15.0005 13.9985,15.0005" id="Fill-726"></path>
                <path d="M15.9985,13.0005 C15.4455,13.0005 14.9985,13.4475 14.9985,14.0005 C14.9985,14.5535 15.4455,15.0005 15.9985,15.0005 C16.5515,15.0005 16.9985,14.5535 16.9985,14.0005 C16.9985,13.4475 16.5515,13.0005 15.9985,13.0005" id="Fill-727"></path>
                <path d="M11.9985,13.0005 C11.4455,13.0005 10.9985,13.4475 10.9985,14.0005 C10.9985,14.5535 11.4455,15.0005 11.9985,15.0005 C12.5515,15.0005 12.9985,14.5535 12.9985,14.0005 C12.9985,13.4475 12.5515,13.0005 11.9985,13.0005" id="Fill-728"></path>
            </g>
        </g>
    </g>
</svg>