<?xml version="1.0" encoding="UTF-8"?>
<svg width="18px" height="19px" viewBox="0 0 18 19" version="1.1" xmlns="http://www.w3.org/2000/svg" xmlns:xlink="http://www.w3.org/1999/xlink">
    <!-- Generator: Sketch 42 (36781) - http://www.bohemiancoding.com/sketch -->
    <title>ic_location_city</title>
    <desc>Created with Sketch.</desc>
    <defs></defs>
    <g id="Page-1" stroke="none" stroke-width="1" fill="none" fill-rule="evenodd">
        <g id="Social" transform="translate(-243.000000, -50.000000)">
            <g id="ic_location_city" transform="translate(240.000000, 48.000000)">
                <g id="Icon-24px">
                    <path d="M15,11 L15,5 L12,2 L9,5 L9,7 L3,7 L3,21 L21,21 L21,11 L15,11 L15,11 Z M7,19 L5,19 L5,17 L7,17 L7,19 L7,19 Z M7,15 L5,15 L5,13 L7,13 L7,15 L7,15 Z M7,11 L5,11 L5,9 L7,9 L7,11 L7,11 Z M13,19 L11,19 L11,17 L13,17 L13,19 L13,19 Z M13,15 L11,15 L11,13 L13,13 L13,15 L13,15 Z M13,11 L11,11 L11,9 L13,9 L13,11 L13,11 Z M13,7 L11,7 L11,5 L13,5 L13,7 L13,7 Z M19,19 L17,19 L17,17 L19,17 L19,19 L19,19 Z M19,15 L17,15 L17,13 L19,13 L19,15 L19,15 Z" id="Shape" fill="#000000"></path>
                    <polygon id="Shape" points="0 0 24 0 24 24 0 24"></polygon>
                </g>
            </g>
        </g>
    </g>
</svg>