<?xml version="1.0" encoding="UTF-8"?>
<svg width="18px" height="18px" viewBox="0 0 18 18" version="1.1" xmlns="http://www.w3.org/2000/svg" xmlns:xlink="http://www.w3.org/1999/xlink">
    <!-- Generator: Sketch 42 (36781) - http://www.bohemiancoding.com/sketch -->
    <title>ic_poll</title>
    <desc>Created with Sketch.</desc>
    <defs></defs>
    <g id="Page-1" stroke="none" stroke-width="1" fill="none" fill-rule="evenodd">
        <g id="Social" transform="translate(-147.000000, -147.000000)">
            <g id="ic_poll" transform="translate(144.000000, 144.000000)">
                <g id="Icon-24px">
                    <path d="M19,3 L5,3 C3.9,3 3,3.9 3,5 L3,19 C3,20.1 3.9,21 5,21 L19,21 C20.1,21 21,20.1 21,19 L21,5 C21,3.9 20.1,3 19,3 L19,3 Z M9,17 L7,17 L7,10 L9,10 L9,17 L9,17 Z M13,17 L11,17 L11,7 L13,7 L13,17 L13,17 Z M17,17 L15,17 L15,13 L17,13 L17,17 L17,17 Z" id="Shape" fill="#000000"></path>
                    <polygon id="Shape" points="0 0 24 0 24 24 0 24"></polygon>
                </g>
            </g>
        </g>
    </g>
</svg>