<?xml version="1.0" encoding="UTF-8"?>
<svg width="20px" height="18px" viewBox="0 0 20 18" version="1.1" xmlns="http://www.w3.org/2000/svg" xmlns:xlink="http://www.w3.org/1999/xlink">
    <!-- Generator: Sketch 42 (36781) - http://www.bohemiancoding.com/sketch -->
    <title>ic_party_mode</title>
    <desc>Created with Sketch.</desc>
    <defs></defs>
    <g id="Page-1" stroke="none" stroke-width="1" fill="none" fill-rule="evenodd">
        <g id="Social" transform="translate(-242.000000, -98.000000)">
            <g id="ic_party_mode" transform="translate(240.000000, 96.000000)">
                <g id="Icon-24px">
                    <polygon id="Shape" points="0 0 24 0 24 24 0 24"></polygon>
                    <path d="M20,4 L16.83,4 L15,2 L9,2 L7.17,4 L4,4 C2.9,4 2,4.9 2,6 L2,18 C2,19.1 2.9,20 4,20 L20,20 C21.1,20 22,19.1 22,18 L22,6 C22,4.9 21.1,4 20,4 L20,4 Z M12,7 C13.63,7 15.06,7.79 15.98,9 L12,9 C10.34,9 9,10.34 9,12 C9,12.35 9.07,12.69 9.18,13 L7.1,13 C7.04,12.68 7,12.34 7,12 C7,9.24 9.24,7 12,7 L12,7 Z M12,17 C10.37,17 8.94,16.21 8.02,15 L12,15 C13.66,15 15,13.66 15,12 C15,11.65 14.93,11.31 14.82,11 L16.9,11 C16.97,11.32 17,11.66 17,12 C17,14.76 14.76,17 12,17 L12,17 Z" id="Shape" fill="#000000"></path>
                </g>
            </g>
        </g>
    </g>
</svg>