<?xml version="1.0" encoding="UTF-8"?>
<svg width="18px" height="18px" viewBox="0 0 18 18" version="1.1" xmlns="http://www.w3.org/2000/svg" xmlns:xlink="http://www.w3.org/1999/xlink">
    <!-- Generator: Sketch 42 (36781) - http://www.bohemiancoding.com/sketch -->
    <title>ic_pages</title>
    <desc>Created with Sketch.</desc>
    <defs></defs>
    <g id="Page-1" stroke="none" stroke-width="1" fill="none" fill-rule="evenodd">
        <g id="Social" transform="translate(-195.000000, -99.000000)">
            <g id="ic_pages" transform="translate(192.000000, 96.000000)">
                <g id="Icon-24px">
                    <polygon id="Shape" points="0 0 24 0 24 24 0 24"></polygon>
                    <path d="M3,5 L3,11 L8,11 L7,7 L11,8 L11,3 L5,3 C3.9,3 3,3.9 3,5 L3,5 Z M8,13 L3,13 L3,19 C3,20.1 3.9,21 5,21 L11,21 L11,16 L7,17 L8,13 L8,13 Z M17,17 L13,16 L13,21 L19,21 C20.1,21 21,20.1 21,19 L21,13 L16,13 L17,17 L17,17 Z M19,3 L13,3 L13,8 L17,7 L16,11 L21,11 L21,5 C21,3.9 20.1,3 19,3 L19,3 Z" id="Shape" fill="#000000"></path>
                </g>
            </g>
        </g>
    </g>
</svg>