<svg xmlns="http://www.w3.org/2000/svg" width="24" height="24" viewBox="0 0 24 24"><g stroke="#000" stroke-linejoin="round" stroke-miterlimit="10" fill="none"><path d="M18.5 8.5c0 1.104-.896 2-2 2h-8c-1.105 0-2-.896-2-2v-5h12v5zM8.5 13.5h8v10h-8z"/><circle cx="4.5" cy="18.5" r="2"/><path stroke-linecap="round" d="M10.5 19.5l1-3h2l1 3"/><path d="M8.5 5v4M10.5 5v4M12.5 5v4M14.5 5v4M16.5 5v4M9.5 10.5v3M15.5 10.5v3"/><path d="M18.5 17.5h3v2h-3zM16.5 14.5h4c1.65 0 3 1.35 3 3v2c0 1.65-1.35 3-3 3h-4M8.5 22.5h-5c-1.65 0-3-1.35-3-3v-2c0-1.65 1.35-3 3-3h5"/></g></svg>