<svg xmlns="http://www.w3.org/2000/svg" width="24" height="24" viewBox="0 0 24 24"><g stroke="#000" stroke-linecap="round" stroke-linejoin="round" stroke-miterlimit="10" fill="none"><circle cx="20.5" cy="21.5" r="2"/><path d="M4.5 23.5v-17c0-.553.448-1 1-1 .553 0 1 .447 1 1v17h-2z"/><circle cx="13.5" cy="20.5" r="3"/><path d="M19 11l-1 4M12.5 13l1 1M13 13.5l-4.5 4.5M21.5 15h-5.5l-2.5 2.5M6.5 23.5h-6M4.5 18.5h-3M22.422 22h1.078v-5.5l-2-1.5v-5.5c0-1.104-.896-2-2-2h-2c-4.971 0-9 4.029-9 9v5.5h2.406M16.094 22h2.484"/></g></svg>