<svg xmlns="http://www.w3.org/2000/svg" width="24" height="24" viewBox="0 0 24 24"><g><circle stroke="#000" stroke-linecap="round" stroke-linejoin="round" stroke-miterlimit="10" cx="16.5" cy="6.561" r="5" fill="none"/><path d="M23.5 5.561c-.278 0-.5.225-.5.5 0 .276.222.5.5.5.275 0 .5-.224.5-.5s-.225-.5-.5-.5z"/><path stroke="#000" stroke-linecap="round" stroke-linejoin="round" stroke-miterlimit="10" fill="none" d="M23.5 23.5v-16"/><path stroke="#000" stroke-linecap="round" stroke-linejoin="round" stroke-miterlimit="10" d="M16.688 21.516c-1.412 0-2.559-1.146-2.559-2.56 0-2.644-3.108-3.212-4.479-1.729-1.368-1.482-4.479-.914-4.479 1.729 0 1.414-1.146 2.56-2.559 2.56-.881 0-1.654-.443-2.114-1.12 1.921 4.314 7.298 3.515 9.151.665 1.853 2.85 7.23 3.649 9.153-.665-.459.676-1.233 1.12-2.114 1.12zM19.5 6.561c0 1.658-1.345 3-3 3" fill="none"/></g></svg>