<svg xmlns="http://www.w3.org/2000/svg" width="24" height="24" viewBox="0 0 24 24"><g stroke="#000" stroke-linecap="round" stroke-linejoin="round" stroke-miterlimit="10" fill="none"><path d="M16.5 23v-5c2.762 0 5-2.238 5-5v-2.5c0-5.246-4.253-9.5-9.5-9.5-5.246 0-9.5 4.254-9.5 9.5v2.5c0 2.762 2.238 5 5 5v5M10.5 18v5M13.5 18v5"/><circle cx="16.5" cy="13" r="3"/><circle cx="7.5" cy="13" r="3"/><path d="M6.441 5c0 2.734-1.637 4-3.441 4h-.375M17.559 5c0 2.734 1.637 4 3.441 4h.359"/><path d="M11.5 16l.5-1 .5 1z"/></g></svg>