<svg xmlns="http://www.w3.org/2000/svg" width="24" height="24" viewBox="0 0 24 24"><g stroke="#000" stroke-linejoin="round" stroke-miterlimit="10" fill="none"><circle cx="12" cy="12" r="2"/><circle cx="12" cy="12" r="8.5"/><path d="M20.971 17.436c.963-1.586 1.529-3.444 1.529-5.436s-.566-3.849-1.529-5.436l1.797-1.797c.977-.977.977-2.559 0-3.535s-2.559-.977-3.535 0l-1.797 1.797c-1.588-.963-3.444-1.529-5.436-1.529s-3.85.566-5.436 1.529l-1.796-1.797c-.977-.977-2.559-.977-3.535 0s-.977 2.559 0 3.535l1.797 1.797c-.966 1.587-1.53 3.444-1.53 5.436s.564 3.85 1.529 5.436l-1.797 1.797c-.977.977-.977 2.559 0 3.535s2.559.977 3.535 0l1.797-1.797c1.586.963 3.444 1.529 5.436 1.529s3.848-.566 5.436-1.529l1.797 1.797c.977.977 2.559.977 3.535 0s.977-2.559 0-3.535l-1.797-1.797zM3.5 3c0 .276-.225.5-.5.5-.277 0-.5-.224-.5-.5s.223-.5.5-.5c.275 0 .5.224.5.5zM21.5 3c0 .276-.225.5-.5.5-.277 0-.5-.224-.5-.5s.223-.5.5-.5c.275 0 .5.224.5.5zM21.5 21c0 .276-.225.5-.5.5-.277 0-.5-.224-.5-.5s.223-.5.5-.5c.275 0 .5.224.5.5zM3.5 21c0 .276-.225.5-.5.5-.277 0-.5-.224-.5-.5s.223-.5.5-.5c.275 0 .5.224.5.5z"/></g></svg>