<svg xmlns="http://www.w3.org/2000/svg" width="24" height="24" viewBox="0 0 24 24"><g stroke="#000" stroke-linejoin="round" stroke-miterlimit="10" fill="none"><path stroke-linecap="round" d="M17.99 18.5c.943-1.254 1.51-2.81 1.51-4.5 0-4.142-3.357-7.5-7.5-7.5-4.142 0-7.5 3.358-7.5 7.5 0 1.69.566 3.246 1.511 4.5h11.979zM4.5 14c-1.657 0-3-1.343-3-3v-1.5c0-.552-.447-1-1-1M19.291 15.744c.37.164.778.256 1.209.256 1.658 0 3-1.343 3-3 0-1.656-1.342-3-3-3-.683 0-1.31.229-1.813.615"/><path d="M6 9.5h12"/><circle stroke-linecap="round" cx="12" cy="5" r="1.5"/></g></svg>