<?xml version="1.0" encoding="UTF-8"?>
<svg width="24px" height="24px" viewBox="0 0 24 24" version="1.1" xmlns="http://www.w3.org/2000/svg" xmlns:xlink="http://www.w3.org/1999/xlink">
    <!-- Generator: Sketch 42 (36781) - http://www.bohemiancoding.com/sketch -->
    <title>ic_brightness_high</title>
    <desc>Created with Sketch.</desc>
    <defs></defs>
    <g id="Page-1" stroke="none" stroke-width="1" fill="none" fill-rule="evenodd">
        <g id="Device" transform="translate(-384.000000, -96.000000)">
            <g id="ic_brightness_high" transform="translate(384.000000, 96.000000)">
                <g id="Icon-24px">
                    <polygon id="Shape" points="0 0 24 0 24 24 0 24"></polygon>
                    <path d="M20,8.69 L20,4 L15.31,4 L12,0.69 L8.69,4 L4,4 L4,8.69 L0.69,12 L4,15.31 L4,20 L8.69,20 L12,23.31 L15.31,20 L20,20 L20,15.31 L23.31,12 L20,8.69 L20,8.69 Z M12,18 C8.69,18 6,15.31 6,12 C6,8.69 8.69,6 12,6 C15.31,6 18,8.69 18,12 C18,15.31 15.31,18 12,18 L12,18 Z M12,8 C9.79,8 8,9.79 8,12 C8,14.21 9.79,16 12,16 C14.21,16 16,14.21 16,12 C16,9.79 14.21,8 12,8 L12,8 Z" id="Shape" fill="#000000"></path>
                </g>
            </g>
        </g>
    </g>
</svg>