<?xml version="1.0" encoding="UTF-8"?>
<svg width="24px" height="24px" viewBox="0 0 24 24" version="1.1" xmlns="http://www.w3.org/2000/svg" xmlns:xlink="http://www.w3.org/1999/xlink">
    <!-- Generator: Sketch 42 (36781) - http://www.bohemiancoding.com/sketch -->
    <title>ic_brightness_auto</title>
    <desc>Created with Sketch.</desc>
    <defs></defs>
    <g id="Page-1" stroke="none" stroke-width="1" fill="none" fill-rule="evenodd">
        <g id="Device" transform="translate(-336.000000, -96.000000)">
            <g id="ic_brightness_auto" transform="translate(336.000000, 96.000000)">
                <g id="Icon-24px">
                    <polygon id="Shape" points="0 0 24 0 24 24 0 24"></polygon>
                    <path d="M10.85,12.65 L13.15,12.65 L12,9 L10.85,12.65 L10.85,12.65 Z M20,8.69 L20,4 L15.31,4 L12,0.69 L8.69,4 L4,4 L4,8.69 L0.69,12 L4,15.31 L4,20 L8.69,20 L12,23.31 L15.31,20 L20,20 L20,15.31 L23.31,12 L20,8.69 L20,8.69 Z M14.3,16 L13.6,14 L10.4,14 L9.7,16 L7.8,16 L11,7 L13,7 L16.2,16 L14.3,16 L14.3,16 Z" id="Shape" fill="#000000"></path>
                </g>
            </g>
        </g>
    </g>
</svg>