<?xml version="1.0" encoding="UTF-8"?>
<svg width="13px" height="20px" viewBox="0 0 13 20" version="1.1" xmlns="http://www.w3.org/2000/svg" xmlns:xlink="http://www.w3.org/1999/xlink">
    <!-- Generator: Sketch 42 (36781) - http://www.bohemiancoding.com/sketch -->
    <title>ic_bluetooth</title>
    <desc>Created with Sketch.</desc>
    <defs></defs>
    <g id="Page-1" stroke="none" stroke-width="1" fill="none" fill-rule="evenodd">
        <g id="Device" transform="translate(-149.000000, -98.000000)">
            <g id="ic_bluetooth" transform="translate(144.000000, 96.000000)">
                <g id="Icon-24px">
                    <polygon id="Shape" points="0 0 24 0 24 24 0 24"></polygon>
                    <path d="M17.71,7.71 L12,2 L11,2 L11,9.59 L6.41,5 L5,6.41 L10.59,12 L5,17.59 L6.41,19 L11,14.41 L11,22 L12,22 L17.71,16.29 L13.41,12 L17.71,7.71 L17.71,7.71 Z M13,5.83 L14.88,7.71 L13,9.59 L13,5.83 L13,5.83 Z M14.88,16.29 L13,18.17 L13,14.41 L14.88,16.29 L14.88,16.29 Z" id="Shape" fill="#000000"></path>
                </g>
            </g>
        </g>
    </g>
</svg>