<?xml version="1.0" encoding="UTF-8"?>
<svg width="16px" height="20px" viewBox="0 0 16 20" version="1.1" xmlns="http://www.w3.org/2000/svg" xmlns:xlink="http://www.w3.org/1999/xlink">
    <!-- Generator: Sketch 42 (36781) - http://www.bohemiancoding.com/sketch -->
    <title>ic_bluetooth_disabled</title>
    <desc>Created with Sketch.</desc>
    <defs></defs>
    <g id="Page-1" stroke="none" stroke-width="1" fill="none" fill-rule="evenodd">
        <g id="Device" transform="translate(-244.000000, -98.000000)">
            <g id="ic_bluetooth_disabled" transform="translate(240.000000, 96.000000)">
                <g id="Icon-24px">
                    <polygon id="Shape" points="0 0 24 0 24 24 0 24"></polygon>
                    <path d="M13,5.83 L14.88,7.71 L13.28,9.31 L14.69,10.72 L17.71,7.7 L12,2 L11,2 L11,7.03 L13,9.03 L13,5.83 L13,5.83 Z M5.41,4 L4,5.41 L10.59,12 L5,17.59 L6.41,19 L11,14.41 L11,22 L12,22 L16.29,17.71 L18.59,20 L20,18.59 L5.41,4 L5.41,4 Z M13,18.17 L13,14.41 L14.88,16.29 L13,18.17 L13,18.17 Z" id="Shape" fill="#000000"></path>
                </g>
            </g>
        </g>
    </g>
</svg>