<?xml version="1.0" encoding="UTF-8"?>
<svg width="10px" height="20px" viewBox="0 0 10 20" version="1.1" xmlns="http://www.w3.org/2000/svg" xmlns:xlink="http://www.w3.org/1999/xlink">
    <!-- Generator: Sketch 42 (36781) - http://www.bohemiancoding.com/sketch -->
    <title>ic_battery_unknown</title>
    <desc>Created with Sketch.</desc>
    <defs></defs>
    <g id="Page-1" stroke="none" stroke-width="1" fill="none" fill-rule="evenodd">
        <g id="Device" transform="translate(-103.000000, -98.000000)">
            <g id="ic_battery_unknown" transform="translate(96.000000, 96.000000)">
                <g id="Icon-24px">
                    <polygon id="Shape" points="0 0 24 0 24 24 0 24"></polygon>
                    <path d="M15.67,4 L14,4 L14,2 L10,2 L10,4 L8.33,4 C7.6,4 7,4.6 7,5.33 L7,20.66 C7,21.4 7.6,22 8.33,22 L15.66,22 C16.4,22 17,21.4 17,20.67 L17,5.33 C17,4.6 16.4,4 15.67,4 L15.67,4 Z M12.95,17.95 L11.05,17.95 L11.05,16.05 L12.95,16.05 L12.95,17.95 L12.95,17.95 Z M13.63,13.4 C13.63,13.4 12.8,14.55 12.8,15 L11.2,15 C11.2,14.17 11.66,13.48 12.13,13 L13.06,12.06 C13.3004893,11.8195107 13.4616437,11.4917531 13.4939988,11.1332581 C13.4979691,11.0892668 13.5,11.0448126 13.5,11 C13.5,10.17 12.83,9.5 12,9.5 C11.17,9.5 10.5,10.17 10.5,11 L9,11 C9,9.34 10.34,8 12,8 C13.66,8 15,9.34 15,11 C15,11.66 14.3,12.69 14.3,12.69 C14.3,12.69 13.63,13.4 13.63,13.4 Z" id="Shape" fill="#000000"></path>
                </g>
            </g>
        </g>
    </g>
</svg>