<?xml version="1.0" encoding="UTF-8"?>
<svg width="18px" height="20px" viewBox="0 0 18 20" version="1.1" xmlns="http://www.w3.org/2000/svg" xmlns:xlink="http://www.w3.org/1999/xlink">
    <!-- Generator: Sketch 42 (36781) - http://www.bohemiancoding.com/sketch -->
    <title>ic_graphic_eq</title>
    <desc>Created with Sketch.</desc>
    <defs></defs>
    <g id="Page-1" stroke="none" stroke-width="1" fill="none" fill-rule="evenodd">
        <g id="Device" transform="translate(-435.000000, -146.000000)">
            <g id="ic_graphic_eq" transform="translate(432.000000, 144.000000)">
                <g id="Icon-24px">
                    <polygon id="Shape" points="0 0 24 0 24 24 0 24"></polygon>
                    <path d="M7,18 L9,18 L9,6 L7,6 L7,18 L7,18 Z M11,22 L13,22 L13,2 L11,2 L11,22 L11,22 Z M3,14 L5,14 L5,10 L3,10 L3,14 L3,14 Z M15,18 L17,18 L17,6 L15,6 L15,18 L15,18 Z M19,10 L19,14 L21,14 L21,10 L19,10 L19,10 Z" id="Shape" fill="#000000"></path>
                </g>
            </g>
        </g>
    </g>
</svg>