<?xml version="1.0" encoding="UTF-8"?>
<svg width="22px" height="22px" viewBox="0 0 22 22" version="1.1" xmlns="http://www.w3.org/2000/svg" xmlns:xlink="http://www.w3.org/1999/xlink">
    <!-- Generator: Sketch 42 (36781) - http://www.bohemiancoding.com/sketch -->
    <title>ic_gps_off</title>
    <desc>Created with Sketch.</desc>
    <defs></defs>
    <g id="Page-1" stroke="none" stroke-width="1" fill="none" fill-rule="evenodd">
        <g id="Device" transform="translate(-385.000000, -145.000000)">
            <g id="ic_gps_off" transform="translate(384.000000, 144.000000)">
                <g id="Icon-24px">
                    <polygon id="Shape" points="0 0 24 0 24 24 0 24"></polygon>
                    <path d="M20.94,11 C20.48,6.83 17.17,3.52 13,3.06 L13,1 L11,1 L11,3.06 C9.87,3.18 8.81,3.52 7.84,4.03 L9.34,5.53 C10.16,5.19 11.06,5 12,5 C15.87,5 19,8.13 19,12 C19,12.94 18.81,13.84 18.48,14.65 L19.98,16.15 C20.48,15.19 20.82,14.13 20.95,13 L23,13 L23,11 L20.94,11 L20.94,11 Z M3,4.27 L5.04,6.31 C3.97,7.62 3.25,9.23 3.06,11 L1,11 L1,13 L3.06,13 C3.52,17.17 6.83,20.48 11,20.94 L11,23 L13,23 L13,20.94 C14.77,20.74 16.38,20.03 17.69,18.96 L19.73,21 L21,19.73 L4.27,3 L3,4.27 L3,4.27 Z M16.27,17.54 C15.09,18.45 13.61,19 12,19 C8.13,19 5,15.87 5,12 C5,10.39 5.55,8.91 6.46,7.73 L16.27,17.54 L16.27,17.54 Z" id="Shape" fill="#000000"></path>
                </g>
            </g>
        </g>
    </g>
</svg>