<?xml version="1.0" encoding="UTF-8"?>
<svg width="24px" height="19px" viewBox="0 0 24 19" version="1.1" xmlns="http://www.w3.org/2000/svg" xmlns:xlink="http://www.w3.org/1999/xlink">
    <!-- Generator: Sketch 42 (36781) - http://www.bohemiancoding.com/sketch -->
    <title>ic_network_wifi</title>
    <desc>Created with Sketch.</desc>
    <defs></defs>
    <g id="Page-1" stroke="none" stroke-width="1" fill="none" fill-rule="evenodd">
        <g id="Device" transform="translate(-192.000000, -195.000000)">
            <g id="ic_network_wifi" transform="translate(192.000000, 192.000000)">
                <g id="Icon-24px">
                    <path d="M12.01,21.49 L23.64,7 C23.19,6.66 18.71,3 12,3 C5.28,3 0.81,6.66 0.36,7 L11.99,21.49 L12,21.5 L12.01,21.49 L12.01,21.49 Z" id="Shape" fill-opacity="0.3" fill="#000000"></path>
                    <polygon id="Shape" points="0 0 24 0 24 24 0 24"></polygon>
                    <path d="M3.53,10.95 L11.99,21.49 L12,21.5 L12.01,21.49 L20.47,10.95 C20.04,10.62 16.81,8 12,8 C7.19,8 3.96,10.62 3.53,10.95 L3.53,10.95 Z" id="Shape" fill="#000000"></path>
                </g>
            </g>
        </g>
    </g>
</svg>