<?xml version="1.0" encoding="UTF-8"?>
<svg width="23px" height="23px" viewBox="0 0 23 23" version="1.1" xmlns="http://www.w3.org/2000/svg" xmlns:xlink="http://www.w3.org/1999/xlink">
    <!-- Generator: Sketch 42 (36781) - http://www.bohemiancoding.com/sketch -->
    <title>ic_screen_lock_rotation</title>
    <desc>Created with Sketch.</desc>
    <defs></defs>
    <g id="Page-1" stroke="none" stroke-width="1" fill="none" fill-rule="evenodd">
        <g id="Device" transform="translate(-385.000000, -192.000000)">
            <g id="ic_screen_lock_rotation" transform="translate(384.000000, 192.000000)">
                <g id="Icon-24px">
                    <path d="M23.25,12.77 L20.68,10.2 L19.27,11.61 L21.49,13.83 L15.83,19.49 L4.51,8.17 L10.17,2.51 L12.27,4.61 L13.68,3.2 L11.23,0.75 C10.64,0.16 9.69,0.16 9.11,0.75 L2.75,7.11 C2.16,7.7 2.16,8.65 2.75,9.23 L14.77,21.25 C15.36,21.84 16.31,21.84 16.89,21.25 L23.25,14.89 C23.84,14.3 23.84,13.35 23.25,12.77 L23.25,12.77 Z M8.47,20.48 C5.2,18.94 2.86,15.76 2.5,12 L1,12 C1.51,18.16 6.66,23 12.95,23 L13.61,22.97 L9.8,19.15 L8.47,20.48 L8.47,20.48 Z M16,9 L21,9 C21.55,9 22,8.55 22,8 L22,4 C22,3.45 21.55,3 21,3 L21,2.5 C21,1.12 19.88,0 18.5,0 C17.12,0 16,1.12 16,2.5 L16,3 C15.45,3 15,3.45 15,4 L15,8 C15,8.55 15.45,9 16,9 L16,9 Z M16.8,2.5 C16.8,1.56 17.56,0.8 18.5,0.8 C19.44,0.8 20.2,1.56 20.2,2.5 L20.2,3 L16.8,3 L16.8,2.5 L16.8,2.5 Z" id="Shape" fill="#000000"></path>
                    <polygon id="Shape" points="0 0 24 0 24 24 0 24"></polygon>
                </g>
            </g>
        </g>
    </g>
</svg>