<?xml version="1.0" encoding="UTF-8"?>
<svg width="20px" height="20px" viewBox="0 0 20 20" version="1.1" xmlns="http://www.w3.org/2000/svg" xmlns:xlink="http://www.w3.org/1999/xlink">
    <!-- Generator: Sketch 42 (36781) - http://www.bohemiancoding.com/sketch -->
    <title>ic_signal_cellular_no_sim</title>
    <desc>Created with Sketch.</desc>
    <defs></defs>
    <g id="Page-1" stroke="none" stroke-width="1" fill="none" fill-rule="evenodd">
        <g id="Device" transform="translate(-242.000000, -243.000000)">
            <g id="ic_signal_cellular_no_sim" transform="translate(240.000000, 240.000000)">
                <g id="Icon-24px">
                    <polygon id="Shape" points="0 0 24 0 24 24 0 24"></polygon>
                    <path d="M18.99,5 C18.99,3.9 18.1,3 17,3 L10,3 L7.66,5.34 L19,16.68 L18.99,5 L18.99,5 Z M3.65,3.88 L2.38,5.15 L5,7.77 L5,19 C5,20.1 5.9,21 7,21 L17.01,21 C17.36,21 17.68,20.9 17.97,20.74 L19.85,22.62 L21.12,21.35 L3.65,3.88 L3.65,3.88 Z" id="Shape" fill="#000000"></path>
                </g>
            </g>
        </g>
    </g>
</svg>