<?xml version="1.0" encoding="UTF-8"?>
<svg width="24px" height="21px" viewBox="0 0 24 21" version="1.1" xmlns="http://www.w3.org/2000/svg" xmlns:xlink="http://www.w3.org/1999/xlink">
    <!-- Generator: Sketch 42 (36781) - http://www.bohemiancoding.com/sketch -->
    <title>ic_signal_wifi_off</title>
    <desc>Created with Sketch.</desc>
    <defs></defs>
    <g id="Page-1" stroke="none" stroke-width="1" fill="none" fill-rule="evenodd">
        <g id="Device" transform="translate(-48.000000, -289.000000)">
            <g id="ic_signal_wifi_off" transform="translate(48.000000, 288.000000)">
                <g id="Icon-24px">
                    <polygon id="Shape" points="0 0 24 0 24 24 0 24"></polygon>
                    <path d="M23.64,7 C23.19,6.66 18.71,3 12,3 C10.5,3 9.11,3.19 7.85,3.48 L18.18,13.8 L23.64,7 L23.64,7 Z M17.04,15.22 L3.27,1.44 L2,2.72 L4.05,4.78 C1.91,5.76 0.59,6.82 0.36,7 L11.99,21.49 L12,21.5 L12.01,21.49 L15.91,16.63 L19.23,19.95 L20.5,18.68 L17.04,15.22 L17.04,15.22 Z" id="Shape" fill="#000000"></path>
                </g>
            </g>
        </g>
    </g>
</svg>