<?xml version="1.0" encoding="UTF-8"?>
<svg width="20px" height="16px" viewBox="0 0 20 16" version="1.1" xmlns="http://www.w3.org/2000/svg" xmlns:xlink="http://www.w3.org/1999/xlink">
    <!-- Generator: Sketch 42 (36781) - http://www.bohemiancoding.com/sketch -->
    <title>ic_storage</title>
    <desc>Created with Sketch.</desc>
    <defs></defs>
    <g id="Page-1" stroke="none" stroke-width="1" fill="none" fill-rule="evenodd">
        <g id="Device" transform="translate(-98.000000, -292.000000)">
            <g id="ic_storage" transform="translate(96.000000, 288.000000)">
                <g id="Icon-24px">
                    <polygon id="Shape" points="0 0 24 0 24 24 0 24"></polygon>
                    <path d="M2,20 L22,20 L22,16 L2,16 L2,20 L2,20 Z M4,17 L6,17 L6,19 L4,19 L4,17 L4,17 Z M2,4 L2,8 L22,8 L22,4 L2,4 L2,4 Z M6,7 L4,7 L4,5 L6,5 L6,7 L6,7 Z M2,14 L22,14 L22,10 L2,10 L2,14 L2,14 Z M4,11 L6,11 L6,13 L4,13 L4,11 L4,11 Z" id="Shape" fill="#000000"></path>
                </g>
            </g>
        </g>
    </g>
</svg>