<?xml version="1.0" encoding="UTF-8"?>
<svg width="20px" height="20px" viewBox="0 0 20 20" version="1.1" xmlns="http://www.w3.org/2000/svg" xmlns:xlink="http://www.w3.org/1999/xlink">
    <!-- Generator: Sketch 42 (36781) - http://www.bohemiancoding.com/sketch -->
    <title>ic_widgets</title>
    <desc>Created with Sketch.</desc>
    <defs></defs>
    <g id="Page-1" stroke="none" stroke-width="1" fill="none" fill-rule="evenodd">
        <g id="Device" transform="translate(-243.000000, -289.000000)">
            <g id="ic_widgets" transform="translate(240.000000, 288.000000)">
                <g id="Icon-24px">
                    <path d="M13,13 L13,21 L21,21 L21,13 L13,13 L13,13 Z M3,21 L11,21 L11,13 L3,13 L3,21 L3,21 Z M3,3 L3,11 L11,11 L11,3 L3,3 L3,3 Z M16.66,1.69 L11,7.34 L16.66,13 L22.32,7.34 L16.66,1.69 L16.66,1.69 Z" id="Shape" fill="#000000"></path>
                    <polygon id="Shape" points="0 0 24 0 24 24 0 24"></polygon>
                </g>
            </g>
        </g>
    </g>
</svg>