<?xml version="1.0" encoding="UTF-8"?>
<svg width="20px" height="18px" viewBox="0 0 20 18" version="1.1" xmlns="http://www.w3.org/2000/svg" xmlns:xlink="http://www.w3.org/1999/xlink">
    <!-- Generator: Sketch 42 (36781) - http://www.bohemiancoding.com/sketch -->
    <title>ic_developer_board</title>
    <desc>Created with Sketch.</desc>
    <defs></defs>
    <g id="Page-1" stroke="none" stroke-width="1" fill="none" fill-rule="evenodd">
        <g id="Hardware" transform="translate(-290.000000, -51.000000)">
            <g id="ic_developer_board" transform="translate(288.000000, 48.000000)">
                <g id="Icon-24px">
                    <path d="M22,9 L22,7 L20,7 L20,5 C20,3.9 19.1,3 18,3 L4,3 C2.9,3 2,3.9 2,5 L2,19 C2,20.1 2.9,21 4,21 L18,21 C19.1,21 20,20.1 20,19 L20,17 L22,17 L22,15 L20,15 L20,13 L22,13 L22,11 L20,11 L20,9 L22,9 L22,9 Z M18,19 L4,19 L4,5 L18,5 L18,19 L18,19 Z M6,13 L11,13 L11,17 L6,17 L6,13 Z M12,7 L16,7 L16,10 L12,10 L12,7 Z M6,7 L11,7 L11,12 L6,12 L6,7 Z M12,11 L16,11 L16,17 L12,17 L12,11 Z" id="Shape" fill="#000000"></path>
                    <path d="M0,0 L24,0 L24,24 L0,24 L0,0 Z M0,0 L24,0 L24,24 L0,24 L0,0 Z" id="Shape"></path>
                </g>
            </g>
        </g>
    </g>
</svg>