<?xml version="1.0" encoding="UTF-8"?>
<svg width="20px" height="20px" viewBox="0 0 20 20" version="1.1" xmlns="http://www.w3.org/2000/svg" xmlns:xlink="http://www.w3.org/1999/xlink">
    <!-- Generator: Sketch 42 (36781) - http://www.bohemiancoding.com/sketch -->
    <title>ic_gamepad</title>
    <desc>Created with Sketch.</desc>
    <defs></defs>
    <g id="Page-1" stroke="none" stroke-width="1" fill="none" fill-rule="evenodd">
        <g id="Hardware" transform="translate(-50.000000, -98.000000)">
            <g id="ic_gamepad" transform="translate(48.000000, 96.000000)">
                <g id="Icon-24px">
                    <polygon id="Shape" points="0 0 24 0 24 24 0 24"></polygon>
                    <path d="M15,7.5 L15,2 L9,2 L9,7.5 L12,10.5 L15,7.5 L15,7.5 Z M7.5,9 L2,9 L2,15 L7.5,15 L10.5,12 L7.5,9 L7.5,9 Z M9,16.5 L9,22 L15,22 L15,16.5 L12,13.5 L9,16.5 L9,16.5 Z M16.5,9 L13.5,12 L16.5,15 L22,15 L22,9 L16.5,9 L16.5,9 Z" id="Shape" fill="#000000"></path>
                </g>
            </g>
        </g>
    </g>
</svg>