<?xml version="1.0" encoding="UTF-8"?>
<svg width="18px" height="22px" viewBox="0 0 18 22" version="1.1" xmlns="http://www.w3.org/2000/svg" xmlns:xlink="http://www.w3.org/1999/xlink">
    <!-- Generator: Sketch 42 (36781) - http://www.bohemiancoding.com/sketch -->
    <title>ic_headset_mic</title>
    <desc>Created with Sketch.</desc>
    <defs></defs>
    <g id="Page-1" stroke="none" stroke-width="1" fill="none" fill-rule="evenodd">
        <g id="Hardware" transform="translate(-99.000000, -97.000000)">
            <g id="ic_headset_mic" transform="translate(96.000000, 96.000000)">
                <g id="Icon-24px">
                    <polygon id="Shape" opacity="0.1" points="0 0 24 0 24 24 0 24"></polygon>
                    <path d="M12,1 C7.03,1 3,5.03 3,10 L3,17 C3,18.66 4.34,20 6,20 L9,20 L9,12 L5,12 L5,10 C5,6.13 8.13,3 12,3 C15.87,3 19,6.13 19,10 L19,12 L15,12 L15,20 L19,20 L19,21 L12,21 L12,23 L18,23 C19.66,23 21,21.66 21,20 L21,10 C21,5.03 16.97,1 12,1 L12,1 Z" id="Shape" fill="#000000"></path>
                </g>
            </g>
        </g>
    </g>
</svg>