<?xml version="1.0" encoding="UTF-8"?>
<svg width="20px" height="20px" viewBox="0 0 20 20" version="1.1" xmlns="http://www.w3.org/2000/svg" xmlns:xlink="http://www.w3.org/1999/xlink">
    <!-- Generator: Sketch 42 (36781) - http://www.bohemiancoding.com/sketch -->
    <title>ic_keyboard_hide</title>
    <desc>Created with Sketch.</desc>
    <defs></defs>
    <g id="Page-1" stroke="none" stroke-width="1" fill="none" fill-rule="evenodd">
        <g id="Hardware" transform="translate(-98.000000, -147.000000)">
            <g id="ic_keyboard_hide" transform="translate(96.000000, 144.000000)">
                <g id="Icon-24px">
                    <polygon id="Shape" points="0 0 24 0 24 24 0 24"></polygon>
                    <path d="M20,3 L4,3 C2.9,3 2.01,3.9 2.01,5 L2,15 C2,16.1 2.9,17 4,17 L20,17 C21.1,17 22,16.1 22,15 L22,5 C22,3.9 21.1,3 20,3 L20,3 Z M11,6 L13,6 L13,8 L11,8 L11,6 L11,6 Z M11,9 L13,9 L13,11 L11,11 L11,9 L11,9 Z M8,6 L10,6 L10,8 L8,8 L8,6 L8,6 Z M8,9 L10,9 L10,11 L8,11 L8,9 L8,9 Z M7,11 L5,11 L5,9 L7,9 L7,11 L7,11 Z M7,8 L5,8 L5,6 L7,6 L7,8 L7,8 Z M16,15 L8,15 L8,13 L16,13 L16,15 L16,15 Z M16,11 L14,11 L14,9 L16,9 L16,11 L16,11 Z M16,8 L14,8 L14,6 L16,6 L16,8 L16,8 Z M19,11 L17,11 L17,9 L19,9 L19,11 L19,11 Z M19,8 L17,8 L17,6 L19,6 L19,8 L19,8 Z M12,23 L16,19 L8,19 L12,23 L12,23 Z" id="Shape" fill="#000000"></path>
                </g>
            </g>
        </g>
    </g>
</svg>