<?xml version="1.0" encoding="UTF-8"?>
<svg width="24px" height="22px" viewBox="0 0 24 22" version="1.1" xmlns="http://www.w3.org/2000/svg" xmlns:xlink="http://www.w3.org/1999/xlink">
    <!-- Generator: Sketch 42 (36781) - http://www.bohemiancoding.com/sketch -->
    <title>ic_phonelink_off</title>
    <desc>Created with Sketch.</desc>
    <defs></defs>
    <g id="Page-1" stroke="none" stroke-width="1" fill="none" fill-rule="evenodd">
        <g id="Hardware" transform="translate(-288.000000, -193.000000)">
            <g id="ic_phonelink_off" transform="translate(288.000000, 192.000000)">
                <g id="Icon-24px">
                    <path d="M0,0 L24,0 L24,24 L0,24 L0,0 Z M0,0 L24,0 L24,24 L0,24 L0,0 Z" id="Shape"></path>
                    <path d="M22,6 L22,4 L6.82,4 L8.82,6 L22,6 L22,6 Z M1.92,1.65 L0.65,2.92 L2.47,4.74 C2.18,5.08 2,5.52 2,6 L2,17 L0,17 L0,20 L17.73,20 L20.08,22.35 L21.35,21.08 L3.89,3.62 L1.92,1.65 L1.92,1.65 Z M4,6.27 L14.73,17 L4,17 L4,6.27 L4,6.27 Z M23,8 L17,8 C16.45,8 16,8.45 16,9 L16,13.18 L18,15.18 L18,10 L22,10 L22,17 L19.82,17 L22.82,20 L23,20 C23.55,20 24,19.55 24,19 L24,9 C24,8.45 23.55,8 23,8 L23,8 Z" id="Shape" fill="#000000"></path>
                </g>
            </g>
        </g>
    </g>
</svg>