<?xml version="1.0" encoding="UTF-8"?>
<svg width="16px" height="22px" viewBox="0 0 16 22" version="1.1" xmlns="http://www.w3.org/2000/svg" xmlns:xlink="http://www.w3.org/1999/xlink">
    <!-- Generator: Sketch 42 (36781) - http://www.bohemiancoding.com/sketch -->
    <title>ic_speaker_group</title>
    <desc>Created with Sketch.</desc>
    <defs></defs>
    <g id="Page-1" stroke="none" stroke-width="1" fill="none" fill-rule="evenodd">
        <g id="Hardware" transform="translate(-196.000000, -241.000000)">
            <g id="ic_speaker_group" transform="translate(192.000000, 240.000000)">
                <g id="Icon-24px">
                    <path d="M18.2,1 L9.8,1 C8.81,1 8,1.81 8,2.8 L8,17.2 C8,18.19 8.81,18.99 9.8,18.99 L18.2,19 C19.19,19 20,18.19 20,17.2 L20,2.8 C20,1.81 19.19,1 18.2,1 L18.2,1 Z M14,3 C15.1,3 16,3.89 16,5 C16,6.11 15.1,7 14,7 C12.9,7 12,6.11 12,5 C12,3.89 12.9,3 14,3 L14,3 Z M14,16.5 C11.79,16.5 10,14.71 10,12.5 C10,10.29 11.79,8.5 14,8.5 C16.21,8.5 18,10.29 18,12.5 C18,14.71 16.21,16.5 14,16.5 L14,16.5 Z" id="Shape" fill="#000000"></path>
                    <circle id="Oval" fill="#000000" cx="14" cy="12.5" r="2.5"></circle>
                    <path d="M6,5 L4,5 L4,21 C4,22.1 4.89,23 6,23 L16,23 L16,21 L6,21 L6,5 L6,5 Z" id="Shape" fill="#000000"></path>
                    <polygon id="Shape" points="0 0 24 0 24 24 0 24"></polygon>
                </g>
            </g>
        </g>
    </g>
</svg>