<?xml version="1.0" encoding="UTF-8"?>
<svg width="16px" height="20px" viewBox="0 0 16 20" version="1.1" xmlns="http://www.w3.org/2000/svg" xmlns:xlink="http://www.w3.org/1999/xlink">
    <!-- Generator: Sketch 42 (36781) - http://www.bohemiancoding.com/sketch -->
    <title>ic_sim_card</title>
    <desc>Created with Sketch.</desc>
    <defs></defs>
    <g id="Page-1" stroke="none" stroke-width="1" fill="none" fill-rule="evenodd">
        <g id="Hardware" transform="translate(-100.000000, -242.000000)">
            <g id="ic_sim_card" transform="translate(96.000000, 240.000000)">
                <g id="Icon-24px">
                    <path d="M19.99,4 C19.99,2.9 19.1,2 18,2 L10,2 L4,8 L4,20 C4,21.1 4.9,22 6,22 L18.01,22 C19.11,22 20,21.1 20,20 L19.99,4 L19.99,4 Z M9,19 L7,19 L7,17 L9,17 L9,19 L9,19 Z M17,19 L15,19 L15,17 L17,17 L17,19 L17,19 Z M9,15 L7,15 L7,11 L9,11 L9,15 L9,15 Z M13,19 L11,19 L11,15 L13,15 L13,19 L13,19 Z M13,13 L11,13 L11,11 L13,11 L13,13 L13,13 Z M17,15 L15,15 L15,11 L17,11 L17,15 L17,15 Z" id="Shape" fill="#000000"></path>
                    <polygon id="Shape" points="0 0 24 0 24 24 0 24"></polygon>
                </g>
            </g>
        </g>
    </g>
</svg>