<?xml version="1.0" encoding="UTF-8"?>
<svg width="18px" height="15px" viewBox="0 0 18 15" version="1.1" xmlns="http://www.w3.org/2000/svg" xmlns:xlink="http://www.w3.org/1999/xlink">
    <!-- Generator: Sketch 42 (36781) - http://www.bohemiancoding.com/sketch -->
    <title>ic_scanner</title>
    <desc>Created with Sketch.</desc>
    <defs></defs>
    <g id="Page-1" stroke="none" stroke-width="1" fill="none" fill-rule="evenodd">
        <g id="Hardware" transform="translate(-435.000000, -197.000000)">
            <g id="ic_scanner" transform="translate(432.000000, 192.000000)">
                <g id="Icon-24px">
                    <path d="M19.8,10.7 L4.2,5 L3.5,6.9 L17.6,12 L5,12 C3.9,12 3,12.9 3,14 L3,18 C3,19.1 3.9,20 5,20 L19,20 C20.1,20 21,19.1 21,18 L21,12.5 C21,11.7 20.5,10.9 19.8,10.7 L19.8,10.7 Z M7,17 L5,17 L5,15 L7,15 L7,17 L7,17 Z M19,17 L9,17 L9,15 L19,15 L19,17 L19,17 Z" id="Shape" fill="#000000"></path>
                    <polygon id="Shape" points="0 0 24 0 24 24 0 24"></polygon>
                </g>
            </g>
        </g>
    </g>
</svg>