<?xml version="1.0" encoding="UTF-8"?>
<svg width="22px" height="22px" viewBox="0 0 22 22" version="1.1" xmlns="http://www.w3.org/2000/svg" xmlns:xlink="http://www.w3.org/1999/xlink">
    <!-- Generator: Sketch 42 (36781) - http://www.bohemiancoding.com/sketch -->
    <title>ic_toys</title>
    <desc>Created with Sketch.</desc>
    <defs></defs>
    <g id="Page-1" stroke="none" stroke-width="1" fill="none" fill-rule="evenodd">
        <g id="Hardware" transform="translate(-433.000000, -241.000000)">
            <g id="ic_toys" transform="translate(432.000000, 240.000000)">
                <g id="Icon-24px">
                    <path d="M12,12 C12,9 14.5,6.5 17.5,6.5 C20.5,6.5 23,9 23,12 L12,12 L12,12 Z M12,12 C12,15 9.5,17.5 6.5,17.5 C3.5,17.5 1,15 1,12 L12,12 L12,12 Z M12,12 C9,12 6.5,9.5 6.5,6.5 C6.5,3.5 9,1 12,1 L12,12 L12,12 Z M12,12 C15,12 17.5,14.5 17.5,17.5 C17.5,20.5 15,23 12,23 L12,12 L12,12 Z" id="Shape" fill="#000000"></path>
                    <polygon id="Shape" points="0 0 24 0 24 24 0 24"></polygon>
                </g>
            </g>
        </g>
    </g>
</svg>