<?xml version="1.0" encoding="UTF-8"?>
<svg width="18px" height="24px" viewBox="0 0 18 24" version="1.1" xmlns="http://www.w3.org/2000/svg" xmlns:xlink="http://www.w3.org/1999/xlink">
    <!-- Generator: Sketch 42 (36781) - http://www.bohemiancoding.com/sketch -->
    <title>ic_tablet_android</title>
    <desc>Created with Sketch.</desc>
    <defs>
        <polygon id="path-1" points="0 0 24 0 24 24 0 24"></polygon>
    </defs>
    <g id="Page-1" stroke="none" stroke-width="1" fill="none" fill-rule="evenodd">
        <g id="Hardware" transform="translate(-339.000000, -240.000000)">
            <g id="ic_tablet_android" transform="translate(336.000000, 240.000000)">
                <g id="Icon-24px">
                    <mask id="mask-2" fill="white">
                        <use xlink:href="#path-1"></use>
                    </mask>
                    <g id="a"></g>
                    <path d="M18,0 L6,0 C4.34,0 3,1.34 3,3 L3,21 C3,22.66 4.34,24 6,24 L18,24 C19.66,24 21,22.66 21,21 L21,3 C21,1.34 19.66,0 18,0 L18,0 Z M14,22 L10,22 L10,21 L14,21 L14,22 L14,22 Z M19.25,19 L4.75,19 L4.75,3 L19.25,3 L19.25,19 L19.25,19 Z" id="Shape" fill="#000000" mask="url(#mask-2)"></path>
                </g>
            </g>
        </g>
    </g>
</svg>