<?xml version="1.0" encoding="UTF-8"?>
<svg width="22px" height="18px" viewBox="0 0 22 18" version="1.1" xmlns="http://www.w3.org/2000/svg" xmlns:xlink="http://www.w3.org/1999/xlink">
    <!-- Generator: Sketch 42 (36781) - http://www.bohemiancoding.com/sketch -->
    <title>ic_child_care</title>
    <desc>Created with Sketch.</desc>
    <defs></defs>
    <g id="Page-1" stroke="none" stroke-width="1" fill="none" fill-rule="evenodd">
        <g id="Places" transform="translate(-337.000000, -51.000000)">
            <g id="ic_child_care" transform="translate(336.000000, 48.000000)">
                <g id="Icon-24px">
                    <polygon id="Shape" points="0 0 24 0 24 24 0 24"></polygon>
                    <circle id="Oval" fill="#000000" cx="14.5" cy="10.5" r="1.25"></circle>
                    <circle id="Oval" fill="#000000" cx="9.5" cy="10.5" r="1.25"></circle>
                    <path d="M22.94,12.66 C22.98,12.45 23,12.23 23,12 C23,11.77 22.98,11.55 22.94,11.34 C22.69,9.83 21.58,8.6 20.13,8.17 C19.6,7.05 18.85,6.07 17.94,5.26 C16.36,3.85 14.28,3 12,3 C9.72,3 7.64,3.85 6.06,5.26 C5.14,6.07 4.39,7.06 3.87,8.17 C2.42,8.6 1.31,9.82 1.06,11.34 C1.02,11.55 1,11.77 1,12 C1,12.23 1.02,12.45 1.06,12.66 C1.31,14.17 2.42,15.4 3.87,15.83 C4.39,16.94 5.14,17.92 6.04,18.72 C7.62,20.14 9.71,21 12,21 C14.29,21 16.38,20.14 17.97,18.72 C18.87,17.92 19.62,16.93 20.14,15.83 C21.58,15.4 22.69,14.18 22.94,12.66 L22.94,12.66 Z M19,14 C18.9,14 18.81,13.98 18.71,13.97 C18.51,14.64 18.22,15.26 17.85,15.83 C16.6,17.74 14.45,19 12,19 C9.55,19 7.4,17.74 6.15,15.83 C5.78,15.26 5.49,14.64 5.29,13.97 C5.19,13.98 5.1,14 5,14 C3.9,14 3,13.1 3,12 C3,10.9 3.9,10 5,10 C5.1,10 5.19,10.02 5.29,10.03 C5.49,9.36 5.78,8.74 6.15,8.17 C7.4,6.26 9.55,5 12,5 C14.45,5 16.6,6.26 17.85,8.17 C18.22,8.74 18.51,9.36 18.71,10.03 C18.81,10.02 18.9,10 19,10 C20.1,10 21,10.9 21,12 C21,13.1 20.1,14 19,14 L19,14 Z M7.5,14 C8.26,15.77 9.99,17 12,17 C14.01,17 15.74,15.77 16.5,14 L7.5,14 L7.5,14 Z" id="Shape" fill="#000000"></path>
                </g>
            </g>
        </g>
    </g>
</svg>