<?xml version="1.0" encoding="UTF-8"?>
<svg width="20px" height="20px" viewBox="0 0 20 20" version="1.1" xmlns="http://www.w3.org/2000/svg" xmlns:xlink="http://www.w3.org/1999/xlink">
    <!-- Generator: Sketch 42 (36781) - http://www.bohemiancoding.com/sketch -->
    <title>ic_fitness_center</title>
    <desc>Created with Sketch.</desc>
    <defs></defs>
    <g id="Page-1" stroke="none" stroke-width="1" fill="none" fill-rule="evenodd">
        <g id="Places" transform="translate(-434.000000, -50.000000)">
            <g id="ic_fitness_center" transform="translate(432.000000, 48.000000)">
                <g id="Icon-24px">
                    <polygon id="Shape" points="0 0 24 0 24 24 0 24"></polygon>
                    <polygon id="Shape" fill="#000000" points="20.57 14.86 22 13.43 20.57 12 17 15.57 8.43 7 12 3.43 10.57 2 9.14 3.43 7.71 2 5.57 4.14 4.14 2.71 2.71 4.14 4.14 5.57 2 7.71 3.43 9.14 2 10.57 3.43 12 7 8.43 15.57 17 12 20.57 13.43 22 14.86 20.57 16.29 22 18.43 19.86 19.86 21.29 21.29 19.86 19.86 18.43 22 16.29"></polygon>
                </g>
            </g>
        </g>
    </g>
</svg>