<?xml version="1.0" encoding="UTF-8"?>
<svg width="20px" height="14px" viewBox="0 0 20 14" version="1.1" xmlns="http://www.w3.org/2000/svg" xmlns:xlink="http://www.w3.org/1999/xlink">
    <!-- Generator: Sketch 42 (36781) - http://www.bohemiancoding.com/sketch -->
    <title>ic_room_service</title>
    <desc>Created with Sketch.</desc>
    <defs></defs>
    <g id="Page-1" stroke="none" stroke-width="1" fill="none" fill-rule="evenodd">
        <g id="Places" transform="translate(-290.000000, -101.000000)">
            <g id="ic_room_service" transform="translate(288.000000, 96.000000)">
                <g id="Icon-24px">
                    <polygon id="Shape" points="0 0 24 0 24 24 0 24"></polygon>
                    <path d="M2,17 L22,17 L22,19 L2,19 L2,17 Z M13.84,7.79 C13.94,7.55 14,7.28 14,7 C14,5.9 13.1,5 12,5 C10.9,5 10,5.9 10,7 C10,7.28 10.06,7.55 10.16,7.79 C6.25,8.6 3.27,11.93 3,16 L21,16 C20.73,11.93 17.75,8.6 13.84,7.79 L13.84,7.79 Z" id="Shape" fill="#000000"></path>
                </g>
            </g>
        </g>
    </g>
</svg>