<?xml version="1.0" encoding="UTF-8"?>
<svg width="14px" height="14px" viewBox="0 0 14 14" version="1.1" xmlns="http://www.w3.org/2000/svg" xmlns:xlink="http://www.w3.org/1999/xlink">
    <!-- Generator: Sketch 42 (36781) - http://www.bohemiancoding.com/sketch -->
    <title>ic_fullscreen_exit</title>
    <desc>Created with Sketch.</desc>
    <defs></defs>
    <g id="Page-1" stroke="none" stroke-width="1" fill="none" fill-rule="evenodd">
        <g id="Navigation" transform="translate(-389.000000, -101.000000)">
            <g id="ic_fullscreen_exit" transform="translate(384.000000, 96.000000)">
                <g id="Icon-24px">
                    <polygon id="Shape" points="0 0 24 0 24 24 0 24"></polygon>
                    <path d="M5,16 L8,16 L8,19 L10,19 L10,14 L5,14 L5,16 L5,16 Z M8,8 L5,8 L5,10 L10,10 L10,5 L8,5 L8,8 L8,8 Z M14,19 L16,19 L16,16 L19,16 L19,14 L14,14 L14,19 L14,19 Z M16,8 L16,5 L14,5 L14,10 L19,10 L19,8 L16,8 L16,8 Z" id="Shape" fill="#000000"></path>
                </g>
            </g>
        </g>
    </g>
</svg>