<?xml version="1.0" encoding="UTF-8"?>
<svg width="24px" height="18px" viewBox="0 0 24 18" version="1.1" xmlns="http://www.w3.org/2000/svg" xmlns:xlink="http://www.w3.org/1999/xlink">
    <!-- Generator: Sketch 42 (36781) - http://www.bohemiancoding.com/sketch -->
    <title>ic_backspace</title>
    <desc>Created with Sketch.</desc>
    <defs></defs>
    <g id="Page-1" stroke="none" stroke-width="1" fill="none" fill-rule="evenodd">
        <g id="Content" transform="translate(-288.000000, -51.000000)">
            <g id="ic_backspace" transform="translate(288.000000, 48.000000)">
                <g id="Icon-24px">
                    <polygon id="Shape" points="0 0 24 0 24 24 0 24"></polygon>
                    <path d="M22,3 L7,3 C6.31,3 5.77,3.35 5.41,3.88 L0,12 L5.41,20.11 C5.77,20.64 6.31,21 7,21 L22,21 C23.1,21 24,20.1 24,19 L24,5 C24,3.9 23.1,3 22,3 L22,3 Z M19,15.59 L17.59,17 L14,13.41 L10.41,17 L9,15.59 L12.59,12 L9,8.41 L10.41,7 L14,10.59 L17.59,7 L19,8.41 L15.41,12 L19,15.59 L19,15.59 Z" id="Shape" fill="#000000"></path>
                </g>
            </g>
        </g>
    </g>
</svg>