<?xml version="1.0" encoding="UTF-8"?>
<svg width="20px" height="19px" viewBox="0 0 20 19" version="1.1" xmlns="http://www.w3.org/2000/svg" xmlns:xlink="http://www.w3.org/1999/xlink">
    <!-- Generator: Sketch 42 (36781) - http://www.bohemiancoding.com/sketch -->
    <title>ic_drafts</title>
    <desc>Created with Sketch.</desc>
    <defs></defs>
    <g id="Page-1" stroke="none" stroke-width="1" fill="none" fill-rule="evenodd">
        <g id="Content" transform="translate(-194.000000, -97.000000)">
            <g id="ic_drafts" transform="translate(192.000000, 96.000000)">
                <g id="Icon-24px">
                    <path d="M21.99,8 C21.99,7.28 21.62,6.65 21.05,6.3 L12,1 L2.95,6.3 C2.38,6.65 2,7.28 2,8 L2,18 C2,19.1 2.9,20 4,20 L20,20 C21.1,20 22,19.1 22,18 L21.99,8 L21.99,8 Z M12,13 L3.74,7.84 L12,3 L20.26,7.84 L12,13 L12,13 Z" id="Shape" fill="#000000"></path>
                    <polygon id="Shape" points="0 0 24 0 24 24 0 24"></polygon>
                </g>
            </g>
        </g>
    </g>
</svg>