<?xml version="1.0" encoding="UTF-8"?>
<svg width="20px" height="20px" viewBox="0 0 20 20" version="1.1" xmlns="http://www.w3.org/2000/svg" xmlns:xlink="http://www.w3.org/1999/xlink">
    <!-- Generator: Sketch 42 (36781) - http://www.bohemiancoding.com/sketch -->
    <title>ic_font_download</title>
    <desc>Created with Sketch.</desc>
    <defs></defs>
    <g id="Page-1" stroke="none" stroke-width="1" fill="none" fill-rule="evenodd">
        <g id="Content" transform="translate(-338.000000, -98.000000)">
            <g id="ic_font_download" transform="translate(336.000000, 96.000000)">
                <g id="Icon-24px">
                    <polygon id="Shape" points="0 0 24 0 24 24 0 24"></polygon>
                    <path d="M9.93,13.5 L14.07,13.5 L12,7.98 L9.93,13.5 Z M20,2 L4,2 C2.9,2 2,2.9 2,4 L2,20 C2,21.1 2.9,22 4,22 L20,22 C21.1,22 22,21.1 22,20 L22,4 C22,2.9 21.1,2 20,2 L20,2 Z M15.95,18.5 L14.81,15.5 L9.17,15.5 L8.05,18.5 L5.96,18.5 L11.07,5.5 L12.93,5.5 L18.04,18.5 L15.95,18.5 L15.95,18.5 Z" id="Shape" fill="#000000"></path>
                </g>
            </g>
        </g>
    </g>
</svg>