<?xml version="1.0" encoding="UTF-8"?>
<svg width="18px" height="18px" viewBox="0 0 18 18" version="1.1" xmlns="http://www.w3.org/2000/svg" xmlns:xlink="http://www.w3.org/1999/xlink">
    <!-- Generator: Sketch 42 (36781) - http://www.bohemiancoding.com/sketch -->
    <title>ic_unarchive</title>
    <desc>Created with Sketch.</desc>
    <defs>
        <polygon id="path-1" points="0 0 24 0 24 24 0 24"></polygon>
    </defs>
    <g id="Page-1" stroke="none" stroke-width="1" fill="none" fill-rule="evenodd">
        <g id="Content" transform="translate(-51.000000, -243.000000)">
            <g id="ic_unarchive" transform="translate(48.000000, 240.000000)">
                <g id="Icon-24px">
                    <mask id="mask-2" fill="white">
                        <use xlink:href="#path-1"></use>
                    </mask>
                    <g id="a"></g>
                    <path d="M20.55,5.22 L19.16,3.54 C18.88,3.21 18.47,3 18,3 L6,3 C5.53,3 5.12,3.21 4.85,3.55 L3.46,5.22 C3.17,5.57 3,6.01 3,6.5 L3,19 C3,20.1 3.89,21 5,21 L19,21 C20.1,21 21,20.1 21,19 L21,6.5 C21,6.01 20.83,5.57 20.55,5.22 L20.55,5.22 Z M12,9.5 L17.5,15 L14,15 L14,17 L10,17 L10,15 L6.5,15 L12,9.5 L12,9.5 Z M5.12,5 L5.94,4 L17.94,4 L18.87,5 L5.12,5 L5.12,5 Z" id="Shape" fill="#000000" mask="url(#mask-2)"></path>
                </g>
            </g>
        </g>
    </g>
</svg>