<?xml version="1.0" encoding="UTF-8"?>
<svg width="22px" height="14px" viewBox="0 0 22 14" version="1.1" xmlns="http://www.w3.org/2000/svg" xmlns:xlink="http://www.w3.org/1999/xlink">
    <!-- Generator: Sketch 42 (36781) - http://www.bohemiancoding.com/sketch -->
    <title>ic_weekend</title>
    <desc>Created with Sketch.</desc>
    <defs>
        <polygon id="path-1" points="0 0 24 0 24 24 0 24"></polygon>
    </defs>
    <g id="Page-1" stroke="none" stroke-width="1" fill="none" fill-rule="evenodd">
        <g id="Content" transform="translate(-145.000000, -245.000000)">
            <g id="ic_weekend" transform="translate(144.000000, 240.000000)">
                <g id="Icon-24px">
                    <mask id="mask-2" fill="white">
                        <use xlink:href="#path-1"></use>
                    </mask>
                    <g id="a"></g>
                    <path d="M21,10 C19.9,10 19,10.9 19,12 L19,15 L5,15 L5,12 C5,10.9 4.1,10 3,10 C1.9,10 1,10.9 1,12 L1,17 C1,18.1 1.9,19 3,19 L21,19 C22.1,19 23,18.1 23,17 L23,12 C23,10.9 22.1,10 21,10 L21,10 Z M18,5 L6,5 C4.9,5 4,5.9 4,7 L4,9.15 C5.16,9.56 6,10.66 6,11.97 L6,14 L18,14 L18,11.97 C18,10.67 18.84,9.57 20,9.15 L20,7 C20,5.9 19.1,5 18,5 L18,5 Z" id="Shape" fill="#010101" mask="url(#mask-2)"></path>
                </g>
            </g>
        </g>
    </g>
</svg>