<?xml version="1.0" encoding="UTF-8"?>
<svg width="22px" height="15px" viewBox="0 0 22 15" version="1.1" xmlns="http://www.w3.org/2000/svg" xmlns:xlink="http://www.w3.org/1999/xlink">
    <!-- Generator: Sketch 42 (36781) - http://www.bohemiancoding.com/sketch -->
    <title>ic_airline_seat_flat_angled</title>
    <desc>Created with Sketch.</desc>
    <defs></defs>
    <g id="Page-1" stroke="none" stroke-width="1" fill="none" fill-rule="evenodd">
        <g id="Notification" transform="translate(-145.000000, -52.000000)">
            <g id="ic_airline_seat_flat_angled" transform="translate(144.000000, 48.000000)">
                <g id="Icon-24px">
                    <path d="M22.25,14.29 L21.56,16.18 L9.2,11.71 L11.28,6.05 L19.84,9.14 C21.94,9.9 23.02,12.2 22.25,14.29 L22.25,14.29 Z M1.5,12.14 L8,14.48 L8,19 L16,19 L16,17.37 L20.52,19 L21.21,17.11 L2.19,10.25 L1.5,12.14 L1.5,12.14 Z M7.3,10.2 C8.79,9.48 9.42,7.69 8.71,6.2 C7.99,4.71 6.2,4.08 4.7,4.8 C3.21,5.51 2.58,7.3 3.3,8.8 C4.01,10.29 5.8,10.92 7.3,10.2 L7.3,10.2 Z" id="Shape" fill="#000000"></path>
                    <polygon id="Shape" points="0 0 24 0 24 24 0 24"></polygon>
                </g>
            </g>
        </g>
    </g>
</svg>