<?xml version="1.0" encoding="UTF-8"?>
<svg width="22px" height="10px" viewBox="0 0 22 10" version="1.1" xmlns="http://www.w3.org/2000/svg" xmlns:xlink="http://www.w3.org/1999/xlink">
    <!-- Generator: Sketch 42 (36781) - http://www.bohemiancoding.com/sketch -->
    <title>ic_airline_seat_individual_suite</title>
    <desc>Created with Sketch.</desc>
    <defs></defs>
    <g id="Page-1" stroke="none" stroke-width="1" fill="none" fill-rule="evenodd">
        <g id="Notification" transform="translate(-193.000000, -55.000000)">
            <g id="ic_airline_seat_individual_suite" transform="translate(192.000000, 48.000000)">
                <g id="Icon-24px">
                    <polygon id="Shape" points="0 0 24 0 24 24 0 24"></polygon>
                    <path d="M7,13 C8.65,13 10,11.65 10,10 C10,8.35 8.65,7 7,7 C5.35,7 4,8.35 4,10 C4,11.65 5.35,13 7,13 L7,13 Z M19,7 L11,7 L11,14 L3,14 L3,7 L1,7 L1,17 L23,17 L23,11 C23,8.79 21.21,7 19,7 L19,7 Z" id="Shape" fill="#000000"></path>
                </g>
            </g>
        </g>
    </g>
</svg>