<?xml version="1.0" encoding="UTF-8"?>
<svg width="20px" height="16px" viewBox="0 0 20 16" version="1.1" xmlns="http://www.w3.org/2000/svg" xmlns:xlink="http://www.w3.org/1999/xlink">
    <!-- Generator: Sketch 42 (36781) - http://www.bohemiancoding.com/sketch -->
    <title>ic_disc_full</title>
    <desc>Created with Sketch.</desc>
    <defs></defs>
    <g id="Page-1" stroke="none" stroke-width="1" fill="none" fill-rule="evenodd">
        <g id="Notification" transform="translate(-146.000000, -100.000000)">
            <g id="ic_disc_full" transform="translate(144.000000, 96.000000)">
                <g id="Icon-24px">
                    <polygon id="Shape" points="0 0 24 0 24 24 0 24"></polygon>
                    <path d="M20,16 L22,16 L22,14 L20,14 L20,16 L20,16 Z M20,7 L20,12 L22,12 L22,7 L20,7 L20,7 Z M10,4 C5.58,4 2,7.58 2,12 C2,16.42 5.58,20 10,20 C14.42,20 18,16.42 18,12 C18,7.58 14.42,4 10,4 L10,4 Z M10,14 C8.9,14 8,13.1 8,12 C8,10.9 8.9,10 10,10 C11.1,10 12,10.9 12,12 C12,13.1 11.1,14 10,14 L10,14 Z" id="Shape" fill="#000000"></path>
                </g>
            </g>
        </g>
    </g>
</svg>