<?xml version="1.0" encoding="UTF-8"?>
<svg width="20px" height="20px" viewBox="0 0 20 20" version="1.1" xmlns="http://www.w3.org/2000/svg" xmlns:xlink="http://www.w3.org/1999/xlink">
    <!-- Generator: Sketch 42 (36781) - http://www.bohemiancoding.com/sketch -->
    <title>ic_mms</title>
    <desc>Created with Sketch.</desc>
    <defs></defs>
    <g id="Page-1" stroke="none" stroke-width="1" fill="none" fill-rule="evenodd">
        <g id="Notification" transform="translate(-194.000000, -146.000000)">
            <g id="ic_mms" transform="translate(192.000000, 144.000000)">
                <g id="Icon-24px">
                    <path d="M20,2 L4,2 C2.9,2 2.01,2.9 2.01,4 L2,22 L6,18 L20,18 C21.1,18 22,17.1 22,16 L22,4 C22,2.9 21.1,2 20,2 L20,2 Z M5,14 L8.5,9.5 L11,12.51 L14.5,8 L19,14 L5,14 L5,14 Z" id="Shape" fill="#000000"></path>
                    <polygon id="Shape" points="0 0 24 0 24 24 0 24"></polygon>
                </g>
            </g>
        </g>
    </g>
</svg>