<?xml version="1.0" encoding="UTF-8"?>
<svg width="22px" height="21px" viewBox="0 0 22 21" version="1.1" xmlns="http://www.w3.org/2000/svg" xmlns:xlink="http://www.w3.org/1999/xlink">
    <!-- Generator: Sketch 42 (36781) - http://www.bohemiancoding.com/sketch -->
    <title>ic_network_locked</title>
    <desc>Created with Sketch.</desc>
    <defs></defs>
    <g id="Page-1" stroke="none" stroke-width="1" fill="none" fill-rule="evenodd">
        <g id="Notification" transform="translate(-337.000000, -145.000000)">
            <g id="ic_network_locked" transform="translate(336.000000, 144.000000)">
                <g id="Icon-24px">
                    <path d="M0,0 L24,0 L24,24 L0,24 L0,0 Z M0,0 L24,0 L24,24 L0,24 L0,0 Z" id="Shape"></path>
                    <path d="M19.5,10 C19.67,10 19.83,10.03 20,10.05 L20,1 L1,20 L14,20 L14,17 C14,16.11 14.39,15.32 15,14.77 L15,14.5 C15,12.02 17.02,10 19.5,10 L19.5,10 Z M22,16 L22,14.5 C22,13.12 20.88,12 19.5,12 C18.12,12 17,13.12 17,14.5 L17,16 C16.45,16 16,16.45 16,17 L16,21 C16,21.55 16.45,22 17,22 L22,22 C22.55,22 23,21.55 23,21 L23,17 C23,16.45 22.55,16 22,16 L22,16 Z M21,16 L18,16 L18,14.5 C18,13.67 18.67,13 19.5,13 C20.33,13 21,13.67 21,14.5 L21,16 L21,16 Z" id="Shape" fill="#000000"></path>
                </g>
            </g>
        </g>
    </g>
</svg>