<?xml version="1.0" encoding="UTF-8"?>
<svg width="18px" height="22px" viewBox="0 0 18 22" version="1.1" xmlns="http://www.w3.org/2000/svg" xmlns:xlink="http://www.w3.org/1999/xlink">
    <!-- Generator: Sketch 42 (36781) - http://www.bohemiancoding.com/sketch -->
    <title>ic_no_encryption</title>
    <desc>Created with Sketch.</desc>
    <defs></defs>
    <g id="Page-1" stroke="none" stroke-width="1" fill="none" fill-rule="evenodd">
        <g id="Notification" transform="translate(-387.000000, -145.000000)">
            <g id="ic_no_encryption" transform="translate(384.000000, 144.000000)">
                <g id="Icon-24px">
                    <path d="M0,0 L24,0 L24,24 L0,24 L0,0 Z M0,0 L24,0 L24,24 L0,24 L0,0 Z M0,0 L24,0 L24,24 L0,24 L0,0 L0,0 Z M0,0 L24,0 L24,24 L0,24 L0,0 L0,0 Z" id="Shape"></path>
                    <path d="M21,21.78 L4.22,5 L3,6.22 L5.04,8.26 C4.42,8.6 4,9.25 4,10 L4,20 C4,21.1 4.9,22 6,22 L18,22 C18.23,22 18.45,21.95 18.66,21.88 L19.78,23 L21,21.78 L21,21.78 Z M8.9,6 C8.9,4.29 10.29,2.9 12,2.9 C13.71,2.9 15.1,4.29 15.1,6 L15.1,8 L9.66,8 L20,18.34 L20,10 C20,8.9 19.1,8 18,8 L17,8 L17,6 C17,3.24 14.76,1 12,1 C9.44,1 7.36,2.93 7.06,5.4 L8.9,7.24 L8.9,6 L8.9,6 Z" id="Shape" fill="#000000"></path>
                </g>
            </g>
        </g>
    </g>
</svg>