<?xml version="1.0" encoding="UTF-8"?>
<svg width="12px" height="18px" viewBox="0 0 12 18" version="1.1" xmlns="http://www.w3.org/2000/svg" xmlns:xlink="http://www.w3.org/1999/xlink">
    <!-- Generator: Sketch 42 (36781) - http://www.bohemiancoding.com/sketch -->
    <title>ic_power</title>
    <desc>Created with Sketch.</desc>
    <defs></defs>
    <g id="Page-1" stroke="none" stroke-width="1" fill="none" fill-rule="evenodd">
        <g id="Notification" transform="translate(-390.000000, -195.000000)">
            <g id="ic_power" transform="translate(384.000000, 192.000000)">
                <g id="Icon-24px">
                    <path d="M16.01,7 L16,3 L14,3 L14,7 L10,7 L10,3 L8,3 L8,7 L7.99,7 C7,6.99 6,7.99 6,8.99 L6,14.48 L9.5,18 L9.5,21 L14.5,21 L14.5,18 L18,14.49 L18,8.99 C18,7.99 17,6.99 16.01,7 L16.01,7 Z" id="Shape" fill="#000000"></path>
                    <polygon id="Shape" points="0 0 24 0 24 24 0 24"></polygon>
                </g>
            </g>
        </g>
    </g>
</svg>