<?xml version="1.0" encoding="UTF-8"?>
<svg width="18px" height="20px" viewBox="0 0 18 20" version="1.1" xmlns="http://www.w3.org/2000/svg" xmlns:xlink="http://www.w3.org/1999/xlink">
    <!-- Generator: Sketch 42 (36781) - http://www.bohemiancoding.com/sketch -->
    <title>ic_phone_locked</title>
    <desc>Created with Sketch.</desc>
    <defs></defs>
    <g id="Page-1" stroke="none" stroke-width="1" fill="none" fill-rule="evenodd">
        <g id="Notification" transform="translate(-243.000000, -193.000000)">
            <g id="ic_phone_locked" transform="translate(240.000000, 192.000000)">
                <g id="Icon-24px">
                    <polygon id="Shape" points="0 0 24 0 24 24 0 24"></polygon>
                    <path d="M20,15.5 C18.75,15.5 17.55,15.3 16.43,14.93 C16.08,14.82 15.69,14.9 15.41,15.17 L13.21,17.37 C10.38,15.93 8.06,13.62 6.62,10.78 L8.82,8.57 C9.1,8.31 9.18,7.92 9.07,7.57 C8.7,6.45 8.5,5.25 8.5,4 C8.5,3.45 8.05,3 7.5,3 L4,3 C3.45,3 3,3.45 3,4 C3,13.39 10.61,21 20,21 C20.55,21 21,20.55 21,20 L21,16.5 C21,15.95 20.55,15.5 20,15.5 L20,15.5 Z M20,4 L20,3.5 C20,2.12 18.88,1 17.5,1 C16.12,1 15,2.12 15,3.5 L15,4 C14.45,4 14,4.45 14,5 L14,9 C14,9.55 14.45,10 15,10 L20,10 C20.55,10 21,9.55 21,9 L21,5 C21,4.45 20.55,4 20,4 L20,4 Z M19.2,4 L15.8,4 L15.8,3.5 C15.8,2.56 16.56,1.8 17.5,1.8 C18.44,1.8 19.2,2.56 19.2,3.5 L19.2,4 L19.2,4 Z" id="Shape" fill="#000000"></path>
                </g>
            </g>
        </g>
    </g>
</svg>