<?xml version="1.0" encoding="UTF-8"?>
<svg width="18px" height="16px" viewBox="0 0 18 16" version="1.1" xmlns="http://www.w3.org/2000/svg" xmlns:xlink="http://www.w3.org/1999/xlink">
    <!-- Generator: Sketch 42 (36781) - http://www.bohemiancoding.com/sketch -->
    <title>ic_time_to_leave</title>
    <desc>Created with Sketch.</desc>
    <defs></defs>
    <g id="Page-1" stroke="none" stroke-width="1" fill="none" fill-rule="evenodd">
        <g id="Notification" transform="translate(-435.000000, -244.000000)">
            <g id="ic_time_to_leave" transform="translate(432.000000, 240.000000)">
                <g id="Icon-24px">
                    <path d="M18.92,5.01 C18.72,4.42 18.16,4 17.5,4 L6.5,4 C5.84,4 5.29,4.42 5.08,5.01 L3,11 L3,19 C3,19.55 3.45,20 4,20 L5,20 C5.55,20 6,19.55 6,19 L6,18 L18,18 L18,19 C18,19.55 18.45,20 19,20 L20,20 C20.55,20 21,19.55 21,19 L21,11 L18.92,5.01 L18.92,5.01 Z M6.5,15 C5.67,15 5,14.33 5,13.5 C5,12.67 5.67,12 6.5,12 C7.33,12 8,12.67 8,13.5 C8,14.33 7.33,15 6.5,15 L6.5,15 Z M17.5,15 C16.67,15 16,14.33 16,13.5 C16,12.67 16.67,12 17.5,12 C18.33,12 19,12.67 19,13.5 C19,14.33 18.33,15 17.5,15 L17.5,15 Z M5,10 L6.5,5.5 L17.5,5.5 L19,10 L5,10 L5,10 Z" id="Shape" fill="#000000"></path>
                    <polygon id="Shape" points="0 0 24 0 24 24 0 24"></polygon>
                </g>
            </g>
        </g>
    </g>
</svg>