<?xml version="1.0" encoding="UTF-8"?>
<svg width="22px" height="16px" viewBox="0 0 22 16" version="1.1" xmlns="http://www.w3.org/2000/svg" xmlns:xlink="http://www.w3.org/1999/xlink">
    <!-- Generator: Sketch 42 (36781) - http://www.bohemiancoding.com/sketch -->
    <title>ic_wifi</title>
    <desc>Created with Sketch.</desc>
    <defs></defs>
    <g id="Page-1" stroke="none" stroke-width="1" fill="none" fill-rule="evenodd">
        <g id="Notification" transform="translate(-241.000000, -292.000000)">
            <g id="ic_wifi" transform="translate(240.000000, 288.000000)">
                <g id="Icon-24px">
                    <polygon id="Shape" points="0 0 24 0 24 24 0 24"></polygon>
                    <path d="M1,9 L3,11 C7.97,6.03 16.03,6.03 21,11 L23,9 C16.93,2.93 7.08,2.93 1,9 L1,9 Z M9,17 L12,20 L15,17 C13.35,15.34 10.66,15.34 9,17 L9,17 Z M5,13 L7,15 C9.76,12.24 14.24,12.24 17,15 L19,13 C15.14,9.14 8.87,9.14 5,13 L5,13 Z" id="Shape" fill="#000000"></path>
                </g>
            </g>
        </g>
    </g>
</svg>