<?xml version="1.0" encoding="UTF-8"?>
<svg width="20px" height="10px" viewBox="0 0 20 10" version="1.1" xmlns="http://www.w3.org/2000/svg" xmlns:xlink="http://www.w3.org/1999/xlink">
    <!-- Generator: Sketch 42 (36781) - http://www.bohemiancoding.com/sketch -->
    <title>ic_art_track</title>
    <desc>Created with Sketch.</desc>
    <defs></defs>
    <g id="Page-1" stroke="none" stroke-width="1" fill="none" fill-rule="evenodd">
        <g id="AV" transform="translate(-194.000000, -55.000000)">
            <g id="ic_art_track" transform="translate(192.000000, 48.000000)">
                <g id="Icon-24px">
                    <polygon id="Shape" points="0 0 24 0 24 24 0 24"></polygon>
                    <path d="M22,13 L14,13 L14,11 L22,11 L22,13 L22,13 Z M22,7 L14,7 L14,9 L22,9 L22,7 L22,7 Z M14,17 L22,17 L22,15 L14,15 L14,17 L14,17 Z M12,9 L12,15 C12,16.1 11.1,17 10,17 L4,17 C2.9,17 2,16.1 2,15 L2,9 C2,7.9 2.9,7 4,7 L10,7 C11.1,7 12,7.9 12,9 L12,9 Z M10.5,15 L8.25,12 L6.5,14.26 L5.25,12.75 L3.5,15 L10.5,15 L10.5,15 Z" id="Shape" fill="#010101"></path>
                </g>
            </g>
        </g>
    </g>
</svg>