<?xml version="1.0" encoding="UTF-8"?>
<svg width="20px" height="20px" viewBox="0 0 20 20" version="1.1" xmlns="http://www.w3.org/2000/svg" xmlns:xlink="http://www.w3.org/1999/xlink">
    <!-- Generator: Sketch 42 (36781) - http://www.bohemiancoding.com/sketch -->
    <title>ic_album</title>
    <desc>Created with Sketch.</desc>
    <defs></defs>
    <g id="Page-1" stroke="none" stroke-width="1" fill="none" fill-rule="evenodd">
        <g id="AV" transform="translate(-146.000000, -50.000000)">
            <g id="ic_album" transform="translate(144.000000, 48.000000)">
                <g id="Icon-24px">
                    <polygon id="Shape" points="0 0 24 0 24 24 0 24"></polygon>
                    <path d="M12,2 C6.48,2 2,6.48 2,12 C2,17.52 6.48,22 12,22 C17.52,22 22,17.52 22,12 C22,6.48 17.52,2 12,2 L12,2 Z M12,16.5 C9.51,16.5 7.5,14.49 7.5,12 C7.5,9.51 9.51,7.5 12,7.5 C14.49,7.5 16.5,9.51 16.5,12 C16.5,14.49 14.49,16.5 12,16.5 L12,16.5 Z M12,11 C11.45,11 11,11.45 11,12 C11,12.55 11.45,13 12,13 C12.55,13 13,12.55 13,12 C13,11.45 12.55,11 12,11 L12,11 Z" id="Shape" fill="#000000"></path>
                </g>
            </g>
        </g>
    </g>
</svg>