<?xml version="1.0" encoding="UTF-8"?>
<svg width="18px" height="16px" viewBox="0 0 18 16" version="1.1" xmlns="http://www.w3.org/2000/svg" xmlns:xlink="http://www.w3.org/1999/xlink">
    <!-- Generator: Sketch 42 (36781) - http://www.bohemiancoding.com/sketch -->
    <title>ic_closed_caption</title>
    <desc>Created with Sketch.</desc>
    <defs></defs>
    <g id="Page-1" stroke="none" stroke-width="1" fill="none" fill-rule="evenodd">
        <g id="AV" transform="translate(-291.000000, -52.000000)">
            <g id="ic_closed_caption" transform="translate(288.000000, 48.000000)">
                <g id="Icon-24px">
                    <polygon id="Shape" points="0 0 24 0 24 24 0 24"></polygon>
                    <path d="M19,4 L5,4 C3.89,4 3,4.9 3,6 L3,18 C3,19.1 3.89,20 5,20 L19,20 C20.1,20 21,19.1 21,18 L21,6 C21,4.9 20.1,4 19,4 L19,4 Z M11,11 L9.5,11 L9.5,10.5 L7.5,10.5 L7.5,13.5 L9.5,13.5 L9.5,13 L11,13 L11,14 C11,14.55 10.55,15 10,15 L7,15 C6.45,15 6,14.55 6,14 L6,10 C6,9.45 6.45,9 7,9 L10,9 C10.55,9 11,9.45 11,10 L11,11 L11,11 Z M18,11 L16.5,11 L16.5,10.5 L14.5,10.5 L14.5,13.5 L16.5,13.5 L16.5,13 L18,13 L18,14 C18,14.55 17.55,15 17,15 L14,15 C13.45,15 13,14.55 13,14 L13,10 C13,9.45 13.45,9 14,9 L17,9 C17.55,9 18,9.45 18,10 L18,11 L18,11 Z" id="Shape" fill="#000000"></path>
                </g>
            </g>
        </g>
    </g>
</svg>