<?xml version="1.0" encoding="UTF-8"?>
<svg width="16px" height="20px" viewBox="0 0 16 20" version="1.1" xmlns="http://www.w3.org/2000/svg" xmlns:xlink="http://www.w3.org/1999/xlink">
    <!-- Generator: Sketch 42 (36781) - http://www.bohemiancoding.com/sketch -->
    <title>ic_forward_30</title>
    <desc>Created with Sketch.</desc>
    <defs>
        <polygon id="path-1" points="24 24 0 24 0 0 24 0"></polygon>
    </defs>
    <g id="Page-1" stroke="none" stroke-width="1" fill="none" fill-rule="evenodd">
        <g id="AV" transform="translate(-388.000000, -97.000000)">
            <g id="ic_forward_30" transform="translate(384.000000, 96.000000)">
                <g id="Icon-24px">
                    <mask id="mask-2" fill="white">
                        <use xlink:href="#path-1"></use>
                    </mask>
                    <g id="a"></g>
                    <path d="M4,13 C4,17.4 7.6,21 12,21 C16.4,21 20,17.4 20,13 L18,13 C18,16.3 15.3,19 12,19 C8.7,19 6,16.3 6,13 C6,9.7 8.7,7 12,7 L12,11 L17,6 L12,1 L12,5 C7.6,5 4,8.6 4,13 L4,13 Z M9.65136719,13.4921875 L10.1025391,13.4921875 C10.3173839,13.4921875 10.476562,13.4384771 10.5800781,13.3310547 C10.6835943,13.2236323 10.7353516,13.0810556 10.7353516,12.9033203 C10.7353516,12.7314445 10.6840825,12.5976567 10.581543,12.5019531 C10.4790034,12.4062495 10.3378915,12.3583984 10.1582031,12.3583984 C9.99609294,12.3583984 9.86035211,12.4028316 9.75097656,12.4916992 C9.64160102,12.5805669 9.58691406,12.6962883 9.58691406,12.8388672 L8.74023438,12.8388672 C8.74023438,12.6162098 8.80029237,12.4165048 8.92041016,12.2397461 C9.04052794,12.0629874 9.20849501,11.9248052 9.42431641,11.8251953 C9.6401378,11.7255854 9.87792839,11.6757812 10.1376953,11.6757812 C10.5888694,11.6757812 10.9423815,11.7836903 11.1982422,11.9995117 C11.4541028,12.2153331 11.5820312,12.5126934 11.5820312,12.8916016 C11.5820312,13.086915 11.5224615,13.2666007 11.4033203,13.4306641 C11.2841791,13.5947274 11.1279307,13.7207027 10.9345703,13.8085938 C11.1748059,13.8945317 11.3540033,14.0234366 11.472168,14.1953125 C11.5903326,14.3671884 11.6494141,14.5703113 11.6494141,14.8046875 C11.6494141,15.1835956 11.5112319,15.4873035 11.2348633,15.7158203 C10.9584947,15.9443371 10.5927757,16.0585938 10.1376953,16.0585938 C9.71191193,16.0585938 9.36377088,15.9462902 9.09326172,15.7216797 C8.82275255,15.4970692 8.6875,15.2001972 8.6875,14.8310547 L9.53417969,14.8310547 C9.53417969,14.9912117 9.59423768,15.1220698 9.71435547,15.2236328 C9.83447326,15.3251958 9.982421,15.3759766 10.1582031,15.3759766 C10.359376,15.3759766 10.5170893,15.3227544 10.6313477,15.2163086 C10.745606,15.1098627 10.8027344,14.9687509 10.8027344,14.7929688 C10.8027344,14.3671854 10.5683617,14.1542969 10.0996094,14.1542969 L9.65136719,14.1542969 L9.65136719,13.4921875 Z M15.1035156,14.2363281 C15.1035156,14.8261748 14.9814465,15.2773422 14.7373047,15.5898438 C14.4931628,15.9023453 14.1357445,16.0585938 13.6650391,16.0585938 C13.200193,16.0585938 12.8447278,15.905275 12.5986328,15.5986328 C12.3525378,15.2919907 12.2265625,14.8525419 12.2207031,14.2802734 L12.2207031,13.4951172 C12.2207031,12.8994111 12.344237,12.4472672 12.5913086,12.1386719 C12.8383801,11.8300766 13.1943336,11.6757812 13.6591797,11.6757812 C14.1240258,11.6757812 14.479491,11.8286118 14.7255859,12.1342773 C14.9716809,12.4399429 15.0976562,12.8789034 15.1035156,13.4511719 L15.1035156,14.2363281 Z M14.2568359,13.375 C14.2568359,13.0214826 14.2084966,12.764161 14.1118164,12.6030273 C14.0151362,12.4418937 13.8642588,12.3613281 13.6591797,12.3613281 C13.4599599,12.3613281 13.3129888,12.4379875 13.2182617,12.5913086 C13.1235347,12.7446297 13.0732422,12.9843734 13.0673828,13.3105469 L13.0673828,14.3476562 C13.0673828,14.6953142 13.1147456,14.9536124 13.2094727,15.1225586 C13.3041997,15.2915048 13.4560536,15.3759766 13.6650391,15.3759766 C13.8720713,15.3759766 14.0214839,15.2949227 14.1132812,15.1328125 C14.2050786,14.9707023 14.2529297,14.7226579 14.2568359,14.3886719 L14.2568359,13.375 Z" id="Shape" fill="#000000" mask="url(#mask-2)"></path>
                </g>
            </g>
        </g>
    </g>
</svg>