<?xml version="1.0" encoding="UTF-8"?>
<svg width="16px" height="20px" viewBox="0 0 16 20" version="1.1" xmlns="http://www.w3.org/2000/svg" xmlns:xlink="http://www.w3.org/1999/xlink">
    <!-- Generator: Sketch 42 (36781) - http://www.bohemiancoding.com/sketch -->
    <title>ic_forward_5</title>
    <desc>Created with Sketch.</desc>
    <defs>
        <polygon id="path-1" points="24 24 0 24 0 0 24 0"></polygon>
    </defs>
    <g id="Page-1" stroke="none" stroke-width="1" fill="none" fill-rule="evenodd">
        <g id="AV" transform="translate(-436.000000, -97.000000)">
            <g id="ic_forward_5" transform="translate(432.000000, 96.000000)">
                <g id="Icon-24px">
                    <mask id="mask-2" fill="white">
                        <use xlink:href="#path-1"></use>
                    </mask>
                    <g id="a"></g>
                    <path d="M4,13 C4,17.4 7.6,21 12,21 C16.4,21 20,17.4 20,13 L18,13 C18,16.3 15.3,19 12,19 C8.7,19 6,16.3 6,13 C6,9.7 8.7,7 12,7 L12,11 L17,6 L12,1 L12,5 C7.6,5 4,8.6 4,13 L4,13 Z M10.4160156,13.9023438 L10.6621094,11.734375 L13.0527344,11.734375 L13.0527344,12.4404297 L11.3564453,12.4404297 L11.2509766,13.3574219 C11.4521494,13.2499995 11.6660145,13.1962891 11.8925781,13.1962891 C12.2988302,13.1962891 12.6171863,13.3222644 12.8476562,13.5742188 C13.0781262,13.8261731 13.1933594,14.1787087 13.1933594,14.6318359 C13.1933594,14.9072279 13.1352545,15.1538075 13.019043,15.371582 C12.9028315,15.5893566 12.7363292,15.7583002 12.5195312,15.878418 C12.3027333,15.9985358 12.0468765,16.0585938 11.7519531,16.0585938 C11.4941393,16.0585938 11.2548839,16.0063482 11.0341797,15.9018555 C10.8134755,15.7973628 10.6391608,15.6503916 10.5112305,15.4609375 C10.3833001,15.2714834 10.3154297,15.0556653 10.3076172,14.8134766 L11.1455078,14.8134766 C11.163086,14.9912118 11.2250971,15.129394 11.331543,15.2280273 C11.4379888,15.3266606 11.5771476,15.3759766 11.7490234,15.3759766 C11.9404306,15.3759766 12.0878901,15.3071296 12.1914062,15.1694336 C12.2949224,15.0317376 12.3466797,14.8369153 12.3466797,14.5849609 C12.3466797,14.3427722 12.28711,14.1572272 12.1679688,14.0283203 C12.0488275,13.8994134 11.8798839,13.8349609 11.6611328,13.8349609 C11.4599599,13.8349609 11.2968756,13.8876948 11.171875,13.9931641 L11.0898438,14.0693359 L10.4160156,13.9023438 Z" id="Shape" fill="#000000" mask="url(#mask-2)"></path>
                </g>
            </g>
        </g>
    </g>
</svg>