<?xml version="1.0" encoding="UTF-8"?>
<svg width="18px" height="16px" viewBox="0 0 18 16" version="1.1" xmlns="http://www.w3.org/2000/svg" xmlns:xlink="http://www.w3.org/1999/xlink">
    <!-- Generator: Sketch 42 (36781) - http://www.bohemiancoding.com/sketch -->
    <title>ic_high_quality</title>
    <desc>Created with Sketch.</desc>
    <defs></defs>
    <g id="Page-1" stroke="none" stroke-width="1" fill="none" fill-rule="evenodd">
        <g id="AV" transform="translate(-195.000000, -148.000000)">
            <g id="ic_high_quality" transform="translate(192.000000, 144.000000)">
                <g id="Icon-24px">
                    <polygon id="Shape" points="0 0 24 0 24 24 0 24"></polygon>
                    <path d="M19,4 L5,4 C3.89,4 3,4.9 3,6 L3,18 C3,19.1 3.89,20 5,20 L19,20 C20.1,20 21,19.1 21,18 L21,6 C21,4.9 20.1,4 19,4 L19,4 Z M11,15 L9.5,15 L9.5,13 L7.5,13 L7.5,15 L6,15 L6,9 L7.5,9 L7.5,11.5 L9.5,11.5 L9.5,9 L11,9 L11,15 L11,15 Z M18,14 C18,14.55 17.55,15 17,15 L16.25,15 L16.25,16.5 L14.75,16.5 L14.75,15 L14,15 C13.45,15 13,14.55 13,14 L13,10 C13,9.45 13.45,9 14,9 L17,9 C17.55,9 18,9.45 18,10 L18,14 L18,14 Z M14.5,13.5 L16.5,13.5 L16.5,10.5 L14.5,10.5 L14.5,13.5 L14.5,13.5 Z" id="Shape" fill="#000000"></path>
                </g>
            </g>
        </g>
    </g>
</svg>