<?xml version="1.0" encoding="UTF-8"?>
<svg width="20px" height="14px" viewBox="0 0 20 14" version="1.1" xmlns="http://www.w3.org/2000/svg" xmlns:xlink="http://www.w3.org/1999/xlink">
    <!-- Generator: Sketch 42 (36781) - http://www.bohemiancoding.com/sketch -->
    <title>ic_playlist_play</title>
    <desc>Created with Sketch.</desc>
    <defs></defs>
    <g id="Page-1" stroke="none" stroke-width="1" fill="none" fill-rule="evenodd">
        <g id="AV" transform="translate(-290.000000, -245.000000)">
            <g id="ic_playlist_play" transform="translate(288.000000, 240.000000)">
                <g id="Icon-24px">
                    <polygon id="Shape" points="0 0 24 0 24 24 0 24"></polygon>
                    <path d="M19,9 L2,9 L2,11 L19,11 L19,9 L19,9 Z M19,5 L2,5 L2,7 L19,7 L19,5 L19,5 Z M2,15 L15,15 L15,13 L2,13 L2,15 L2,15 Z M17,13 L17,19 L22,16 L17,13 L17,13 Z" id="Shape" fill="#000000"></path>
                </g>
            </g>
        </g>
    </g>
</svg>