<?xml version="1.0" encoding="UTF-8"?>
<svg width="20px" height="21px" viewBox="0 0 20 21" version="1.1" xmlns="http://www.w3.org/2000/svg" xmlns:xlink="http://www.w3.org/1999/xlink">
    <!-- Generator: Sketch 42 (36781) - http://www.bohemiancoding.com/sketch -->
    <title>ic_radio</title>
    <desc>Created with Sketch.</desc>
    <defs></defs>
    <g id="Page-1" stroke="none" stroke-width="1" fill="none" fill-rule="evenodd">
        <g id="AV" transform="translate(-50.000000, -289.000000)">
            <g id="ic_radio" transform="translate(48.000000, 288.000000)">
                <g id="Icon-24px">
                    <path d="M3.24,6.15 C2.51,6.43 2,7.17 2,8 L2,20 C2,21.1 2.89,22 4,22 L20,22 C21.11,22 22,21.1 22,20 L22,8 C22,6.89 21.11,6 20,6 L8.3,6 L16.56,2.66 L15.88,1 L3.24,6.15 L3.24,6.15 Z M7,20 C5.34,20 4,18.66 4,17 C4,15.34 5.34,14 7,14 C8.66,14 10,15.34 10,17 C10,18.66 8.66,20 7,20 L7,20 Z M20,12 L18,12 L18,10 L16,10 L16,12 L4,12 L4,8 L20,8 L20,12 L20,12 Z" id="Shape" fill="#000000"></path>
                    <polygon id="Shape" points="0 0 24 0 24 24 0 24"></polygon>
                </g>
            </g>
        </g>
    </g>
</svg>