<?xml version="1.0" encoding="UTF-8"?>
<svg width="16px" height="20px" viewBox="0 0 16 20" version="1.1" xmlns="http://www.w3.org/2000/svg" xmlns:xlink="http://www.w3.org/1999/xlink">
    <!-- Generator: Sketch 42 (36781) - http://www.bohemiancoding.com/sketch -->
    <title>ic_replay</title>
    <desc>Created with Sketch.</desc>
    <defs></defs>
    <g id="Page-1" stroke="none" stroke-width="1" fill="none" fill-rule="evenodd">
        <g id="AV" transform="translate(-292.000000, -289.000000)">
            <g id="ic_replay" transform="translate(288.000000, 288.000000)">
                <g id="Icon-24px">
                    <polygon id="Shape" points="0 0 24 0 24 24 0 24"></polygon>
                    <path d="M12,5 L12,1 L7,6 L12,11 L12,7 C15.31,7 18,9.69 18,13 C18,16.31 15.31,19 12,19 C8.69,19 6,16.31 6,13 L4,13 C4,17.42 7.58,21 12,21 C16.42,21 20,17.42 20,13 C20,8.58 16.42,5 12,5 L12,5 Z" id="Shape" fill="#000000"></path>
                </g>
            </g>
        </g>
    </g>
</svg>