<?xml version="1.0" encoding="UTF-8"?>
<svg width="22px" height="14px" viewBox="0 0 22 14" version="1.1" xmlns="http://www.w3.org/2000/svg" xmlns:xlink="http://www.w3.org/1999/xlink">
    <!-- Generator: Sketch 42 (36781) - http://www.bohemiancoding.com/sketch -->
    <title>ic_recent_actors</title>
    <desc>Created with Sketch.</desc>
    <defs></defs>
    <g id="Page-1" stroke="none" stroke-width="1" fill="none" fill-rule="evenodd">
        <g id="AV" transform="translate(-97.000000, -293.000000)">
            <g id="ic_recent_actors" transform="translate(96.000000, 288.000000)">
                <g id="Icon-24px">
                    <polygon id="Shape" points="0 0 24 0 24 24 0 24"></polygon>
                    <path d="M21,5 L21,19 L23,19 L23,5 L21,5 L21,5 Z M17,19 L19,19 L19,5 L17,5 L17,19 L17,19 Z M14,5 L2,5 C1.45,5 1,5.45 1,6 L1,18 C1,18.55 1.45,19 2,19 L14,19 C14.55,19 15,18.55 15,18 L15,6 C15,5.45 14.55,5 14,5 L14,5 Z M8,7.75 C9.24,7.75 10.25,8.76 10.25,10 C10.25,11.24 9.24,12.25 8,12.25 C6.76,12.25 5.75,11.24 5.75,10 C5.75,8.76 6.76,7.75 8,7.75 L8,7.75 Z M12.5,17 L3.5,17 L3.5,16.25 C3.5,14.75 6.5,14 8,14 C9.5,14 12.5,14.75 12.5,16.25 L12.5,17 L12.5,17 Z" id="Shape" fill="#000000"></path>
                </g>
            </g>
        </g>
    </g>
</svg>