<?xml version="1.0" encoding="UTF-8"?>
<svg width="20px" height="20px" viewBox="0 0 20 20" version="1.1" xmlns="http://www.w3.org/2000/svg" xmlns:xlink="http://www.w3.org/1999/xlink">
    <!-- Generator: Sketch 42 (36781) - http://www.bohemiancoding.com/sketch -->
    <title>ic_subscriptions</title>
    <desc>Created with Sketch.</desc>
    <defs></defs>
    <g id="Page-1" stroke="none" stroke-width="1" fill="none" fill-rule="evenodd">
        <g id="AV" transform="translate(-386.000000, -338.000000)">
            <g id="ic_subscriptions" transform="translate(384.000000, 336.000000)">
                <g id="Icon-24px">
                    <path d="M20,8 L4,8 L4,6 L20,6 L20,8 L20,8 Z M18,2 L6,2 L6,4 L18,4 L18,2 L18,2 Z M22,12 L22,20 C22,21.1 21.1,22 20,22 L4,22 C2.9,22 2,21.1 2,20 L2,12 C2,10.9 2.9,10 4,10 L20,10 C21.1,10 22,10.9 22,12 L22,12 Z M16,16 L10,12.73 L10,19.26 L16,16 L16,16 Z" id="Shape" fill="#000000"></path>
                    <polygon id="Shape" points="0 0 24 0 24 24 0 24"></polygon>
                </g>
            </g>
        </g>
    </g>
</svg>