<?xml version="1.0" encoding="UTF-8"?>
<svg width="16px" height="16px" viewBox="0 0 16 16" version="1.1" xmlns="http://www.w3.org/2000/svg" xmlns:xlink="http://www.w3.org/1999/xlink">
    <!-- Generator: Sketch 42 (36781) - http://www.bohemiancoding.com/sketch -->
    <title>ic_shuffle</title>
    <desc>Created with Sketch.</desc>
    <defs></defs>
    <g id="Page-1" stroke="none" stroke-width="1" fill="none" fill-rule="evenodd">
        <g id="AV" transform="translate(-52.000000, -340.000000)">
            <g id="ic_shuffle" transform="translate(48.000000, 336.000000)">
                <g id="Icon-24px">
                    <polygon id="Shape" points="0 0 24 0 24 24 0 24"></polygon>
                    <path d="M10.59,9.17 L5.41,4 L4,5.41 L9.17,10.58 L10.59,9.17 L10.59,9.17 Z M14.5,4 L16.54,6.04 L4,18.59 L5.41,20 L17.96,7.46 L20,9.5 L20,4 L14.5,4 L14.5,4 Z M14.83,13.41 L13.42,14.82 L16.55,17.95 L14.5,20 L20,20 L20,14.5 L17.96,16.54 L14.83,13.41 L14.83,13.41 Z" id="Shape" fill="#000000"></path>
                </g>
            </g>
        </g>
    </g>
</svg>