<?xml version="1.0" encoding="UTF-8"?>
<svg width="20px" height="24px" viewBox="0 0 20 24" version="1.1" xmlns="http://www.w3.org/2000/svg" xmlns:xlink="http://www.w3.org/1999/xlink">
    <!-- Generator: Sketch 42 (36781) - http://www.bohemiancoding.com/sketch -->
    <title>Fill 871 + Fill 872 + Fill 873</title>
    <desc>Created with Sketch.</desc>
    <defs></defs>
    <g id="Page-1" stroke="none" stroke-width="1" fill="none" fill-rule="evenodd">
        <g id="Solid-Icons" transform="translate(-2.000000, -1584.000000)" fill="#757575">
            <g id="Fill-871-+-Fill-872-+-Fill-873" transform="translate(2.000000, 1584.000000)">
                <path d="M14,6.0005 L14,1.0005 L19,6.0005 L14,6.0005 Z M15.414,0.0005 L8,0.0005 C6.897,0.0005 6,0.8985 6,2.0005 L6,16.0005 C6,17.1025 6.897,18.0005 8,18.0005 L18,18.0005 C19.103,18.0005 20,17.1025 20,16.0005 L20,4.5865 L15.414,0.0005 Z" id="Fill-871"></path>
                <path d="M5,3.0005 L3,3.0005 L3,19.0005 C3,20.1025 3.897,21.0005 5,21.0005 L17,21.0005 L17,19.0005 L5,19.0005 L5,3.0005 Z" id="Fill-872"></path>
                <path d="M2,6.0005 L0,6.0005 L0,22.0005 C0,23.1025 0.897,24.0005 2,24.0005 L14,24.0005 L14,22.0005 L2,22.0005 L2,6.0005 Z" id="Fill-873"></path>
            </g>
        </g>
    </g>
</svg>