<?xml version="1.0" encoding="UTF-8"?>
<svg width="20px" height="21px" viewBox="0 0 20 21" version="1.1" xmlns="http://www.w3.org/2000/svg" xmlns:xlink="http://www.w3.org/1999/xlink">
    <!-- Generator: Sketch 42 (36781) - http://www.bohemiancoding.com/sketch -->
    <title>Fill 703 + Fill 704</title>
    <desc>Created with Sketch.</desc>
    <defs></defs>
    <g id="Page-1" stroke="none" stroke-width="1" fill="none" fill-rule="evenodd">
        <g id="Solid-Icons" transform="translate(-386.000000, -1250.000000)" fill="#767676">
            <g id="Fill-703-+-Fill-704" transform="translate(386.000000, 1250.000000)">
                <path d="M10,8.0025 C8.896,8.0025 8,8.8985 8,10.0025 C8,11.1065 8.896,12.0025 10,12.0025 C11.104,12.0025 12,11.1065 12,10.0025 C12,8.8985 11.104,8.0025 10,8.0025" id="Fill-703"></path>
                <path d="M10,14.0025 C7.791,14.0025 6,12.2115 6,10.0025 C6,7.7935 7.791,6.0025 10,6.0025 C12.209,6.0025 14,7.7935 14,10.0025 C14,12.2115 12.209,14.0025 10,14.0025 M19.414,3.4165 C20.195,2.6355 20.195,1.3695 19.414,0.5885 C18.633,-0.1925 17.367,-0.1925 16.586,0.5885 C16.064,1.1105 15.899,1.8485 16.075,2.5135 L15.042,3.5465 C13.603,2.5725 11.868,2.0025 10,2.0025 C8.132,2.0025 6.397,2.5725 4.958,3.5465 L3.925,2.5135 C4.101,1.8485 3.936,1.1105 3.414,0.5885 C2.633,-0.1925 1.367,-0.1925 0.586,0.5885 C-0.195,1.3695 -0.195,2.6355 0.586,3.4165 C1.108,3.9385 1.845,4.1025 2.511,3.9275 L3.439,4.8555 C1.931,6.4655 1,8.6225 1,11.0025 L1,18.0025 C1,19.6585 2.343,21.0025 4,21.0025 C5.657,21.0025 7,19.6585 7,18.0025 C7,19.6585 8.343,21.0025 10,21.0025 C11.657,21.0025 13,19.6585 13,18.0025 C13,19.6585 14.343,21.0025 16,21.0025 C17.657,21.0025 19,19.6585 19,18.0025 L19,11.0025 C19,8.6225 18.069,6.4655 16.561,4.8555 L17.489,3.9275 C18.155,4.1025 18.892,3.9385 19.414,3.4165" id="Fill-704"></path>
            </g>
        </g>
    </g>
</svg>