<?xml version="1.0" encoding="UTF-8"?>
<svg width="20px" height="20px" viewBox="0 0 20 20" version="1.1" xmlns="http://www.w3.org/2000/svg" xmlns:xlink="http://www.w3.org/1999/xlink">
    <!-- Generator: Sketch 42 (36781) - http://www.bohemiancoding.com/sketch -->
    <title>Fill 811 + Fill 812</title>
    <desc>Created with Sketch.</desc>
    <defs></defs>
    <g id="Page-1" stroke="none" stroke-width="1" fill="none" fill-rule="evenodd">
        <g id="Solid-Icons" transform="translate(-338.000000, -1442.000000)" fill="#767676">
            <g id="Fill-811-+-Fill-812" transform="translate(338.000000, 1442.000000)">
                <path d="M19.001,0.0015 L0.001,0.0015 L0.001,2.0015 L6.001,2.0015 L6.001,4.0015 C6.001,5.1045 6.898,6.0015 8.001,6.0015 L18.001,6.0015 C19.104,6.0015 20.001,5.1045 20.001,4.0015 L20.001,1.0015 C20.001,0.4495 19.553,0.0015 19.001,0.0015" id="Fill-811"></path>
                <path d="M13.001,18.0015 C11.347,18.0015 10.001,16.6555 10.001,15.0015 C10.001,14.1985 10.93,12.8035 12.001,11.5295 L12.001,15.0015 C12.001,15.3705 12.204,15.7095 12.529,15.8835 C12.853,16.0575 13.248,16.0375 13.556,15.8335 L15.802,14.3365 C15.914,14.5365 16.001,14.7685 16.001,15.0015 C16.001,16.6555 14.655,18.0015 13.001,18.0015 M16.652,12.2425 C16.311,11.9515 15.819,11.9225 15.446,12.1695 L14.001,13.1335 L14.001,9.0015 C14.001,8.6025 13.763,8.2405 13.396,8.0835 C13.029,7.9255 12.603,8.0015 12.313,8.2755 C11.593,8.9585 8.001,12.4895 8.001,15.0015 C8.001,17.7585 10.244,20.0015 13.001,20.0015 C15.758,20.0015 18.001,17.7585 18.001,15.0015 C18.001,13.4455 16.79,12.3615 16.652,12.2425" id="Fill-812"></path>
            </g>
        </g>
    </g>
</svg>