<?xml version="1.0" encoding="UTF-8"?>
<svg width="19px" height="18px" viewBox="0 0 19 18" version="1.1" xmlns="http://www.w3.org/2000/svg" xmlns:xlink="http://www.w3.org/1999/xlink">
    <!-- Generator: Sketch 42 (36781) - http://www.bohemiancoding.com/sketch -->
    <title>Fill 339 + Fill 340</title>
    <desc>Created with Sketch.</desc>
    <defs></defs>
    <g id="Page-1" stroke="none" stroke-width="1" fill="none" fill-rule="evenodd">
        <g id="Solid-Icons" transform="translate(-291.000000, -627.000000)" fill="#767676">
            <g id="Fill-339-+-Fill-340" transform="translate(291.000000, 627.000000)">
                <path d="M18,0.0034 L15,0.0034 C14.45,0.0034 14,0.4534 14,1.0034 L14,17.0034 C14,17.5534 14.45,18.0034 15,18.0034 L18,18.0034 C18.55,18.0034 19,17.5534 19,17.0034 L19,1.0034 C19,0.4534 18.55,0.0034 18,0.0034" id="Fill-339"></path>
                <path d="M0.7998,0.603 C0.3598,0.273 -0.0002,0.454 -0.0002,1.003 L-0.0002,17.003 C-0.0002,17.553 0.3598,17.733 0.7998,17.404 L11.1998,9.603 C11.6398,9.273 11.6398,8.733 11.1998,8.404 L0.7998,0.603 Z" id="Fill-340"></path>
            </g>
        </g>
    </g>
</svg>