<?xml version="1.0" encoding="UTF-8"?>
<svg width="16px" height="20px" viewBox="0 0 16 20" version="1.1" xmlns="http://www.w3.org/2000/svg" xmlns:xlink="http://www.w3.org/1999/xlink">
    <!-- Generator: Sketch 42 (36781) - http://www.bohemiancoding.com/sketch -->
    <title>Fill 806 + Fill 807 + Fill 808</title>
    <desc>Created with Sketch.</desc>
    <defs></defs>
    <g id="Page-1" stroke="none" stroke-width="1" fill="none" fill-rule="evenodd">
        <g id="Solid-Icons" transform="translate(-244.000000, -1442.000000)" fill="#767676">
            <g id="Fill-806-+-Fill-807-+-Fill-808" transform="translate(243.000000, 1442.000000)">
                <path d="M13.999,3.0005 L12.72,3.0005 L11.948,0.6845 C11.811,0.2755 11.43,0.0005 10.999,0.0005 L2.999,0.0005 C2.568,0.0005 2.186,0.2755 2.05,0.6845 L1.05,3.6845 C0.995,3.8485 0.984,4.0255 1.019,4.1965 L2.779,13.0005 L4.819,13.0005 L3.219,5.0005 L10.779,5.0005 L9.179,13.0005 L11.219,13.0005 L12.819,5.0005 L13.999,5.0005 C14.55,5.0005 14.999,5.4495 14.999,6.0005 L14.999,13.0005 L16.999,13.0005 L16.999,6.0005 C16.999,4.3455 15.653,3.0005 13.999,3.0005" id="Fill-806"></path>
                <path d="M6.999,18.2505 C6.309,18.2505 5.749,17.6905 5.749,17.0005 C5.749,16.3105 6.309,15.7505 6.999,15.7505 C7.69,15.7505 8.249,16.3105 8.249,17.0005 C8.249,17.6905 7.69,18.2505 6.999,18.2505 L6.999,18.2505 Z M11.413,14.0005 L2.585,14.0005 L1.292,15.2925 C1.104,15.4805 0.999,15.7345 0.999,16.0005 L0.999,19.0005 C0.999,19.5525 1.447,20.0005 1.999,20.0005 L11.999,20.0005 C12.551,20.0005 12.999,19.5525 12.999,19.0005 L12.999,16.0005 C12.999,15.7345 12.894,15.4805 12.706,15.2925 L11.413,14.0005 Z" id="Fill-807"></path>
                <polygon id="Fill-808" points="5.999 13.001 7.999 13.001 7.999 9.001 5.999 9.001"></polygon>
            </g>
        </g>
    </g>
</svg>