<?xml version="1.0" encoding="UTF-8"?>
<svg width="16px" height="20px" viewBox="0 0 16 20" version="1.1" xmlns="http://www.w3.org/2000/svg" xmlns:xlink="http://www.w3.org/1999/xlink">
    <!-- Generator: Sketch 42 (36781) - http://www.bohemiancoding.com/sketch -->
    <title>Fill 750 + Fill 751 + Fill 752</title>
    <desc>Created with Sketch.</desc>
    <defs></defs>
    <g id="Page-1" stroke="none" stroke-width="1" fill="none" fill-rule="evenodd">
        <g id="Solid-Icons" transform="translate(-148.000000, -1346.000000)" fill="#767676">
            <g id="Fill-750-+-Fill-751-+-Fill-752" transform="translate(148.000000, 1346.000000)">
                <path d="M13.001,2.855 C13.577,3.826 13.992,4.696 14.001,5.001 C14.001,5.553 13.552,6.001 13.001,6.001 C12.45,6.001 12.001,5.553 12.001,5.002 C12.01,4.697 12.425,3.826 13.001,2.855 M13.001,8.001 C14.655,8.001 16.001,6.655 16.001,5.001 C16.001,3.726 14.478,1.382 13.824,0.433 C13.45,-0.108 12.552,-0.108 12.178,0.433 C11.523,1.382 10.001,3.726 10.001,5.001 C10.001,6.655 11.347,8.001 13.001,8.001" id="Fill-750"></path>
                <path d="M6.001,11.001 L16.001,11.001 L16.001,9.001 L7.001,9.001 L7.001,0.001 L2.001,0.001 C0.898,0.001 0.001,0.899 0.001,2.001 L0.001,7.001 C0.001,8.103 0.898,9.001 2.001,9.001 L6.001,9.001 L6.001,11.001 Z" id="Fill-751"></path>
                <path d="M6.001,12.001 L6.001,18.001 C6.001,19.103 6.898,20.001 8.001,20.001 L14.001,20.001 C15.104,20.001 16.001,19.103 16.001,18.001 L16.001,12.001 L6.001,12.001 Z" id="Fill-752"></path>
            </g>
        </g>
    </g>
</svg>