<?xml version="1.0" encoding="UTF-8"?>
<svg width="20px" height="24px" viewBox="0 0 20 24" version="1.1" xmlns="http://www.w3.org/2000/svg" xmlns:xlink="http://www.w3.org/1999/xlink">
    <!-- Generator: Sketch 42 (36781) - http://www.bohemiancoding.com/sketch -->
    <title>Fill 714 + Fill 715 + Fill 716</title>
    <desc>Created with Sketch.</desc>
    <defs></defs>
    <g id="Page-1" stroke="none" stroke-width="1" fill="none" fill-rule="evenodd">
        <g id="Solid-Icons" transform="translate(-98.000000, -1296.000000)" fill="#767676">
            <g id="Fill-714-+-Fill-715-+-Fill-716" transform="translate(98.000000, 1296.000000)">
                <path d="M10,9.001 C10,9.553 10.448,10.001 11,10.001 L16,10.001 C16.552,10.001 17,9.553 17,9.001 L17,1.001 C17,0.45 16.552,0.001 16,0.001 L11,0.001 C10.448,0.001 10,0.45 10,1.001 L10,4.001 L0,4.001 L0,6.001 L10,6.001 L10,9.001 Z" id="Fill-714"></path>
                <path d="M7,12.001 L1,12.001 C0.631,12.001 0.292,12.204 0.118,12.529 C-0.056,12.854 -0.037,13.248 0.168,13.556 L2.168,16.556 C2.321,16.786 2.563,16.942 2.835,16.987 L7,17.682 L7,12.001 Z" id="Fill-715"></path>
                <path d="M19.3716,15.9297 C19.7506,15.7777 19.9996,15.4097 19.9996,15.0007 L19.9996,12.0007 C19.9996,11.4497 19.5526,11.0007 18.9996,11.0007 L8.9996,11.0007 C8.4476,11.0007 7.9996,11.4497 7.9996,12.0007 L7.9996,18.3837 L4.5526,20.1067 C4.2136,20.2757 3.9996,20.6217 3.9996,21.0007 L3.9996,23.0007 C3.9996,23.5537 4.4476,24.0007 4.9996,24.0007 L18.9996,24.0007 C19.5526,24.0007 19.9996,23.5537 19.9996,23.0007 L19.9996,21.0007 C19.9996,20.5917 19.7506,20.2247 19.3716,20.0727 L14.9996,18.3247 L14.9996,17.6777 L19.3716,15.9297 Z" id="Fill-716"></path>
            </g>
        </g>
    </g>
</svg>