<?xml version="1.0" encoding="UTF-8"?>
<svg width="20px" height="19px" viewBox="0 0 20 19" version="1.1" xmlns="http://www.w3.org/2000/svg" xmlns:xlink="http://www.w3.org/1999/xlink">
    <!-- Generator: Sketch 42 (36781) - http://www.bohemiancoding.com/sketch -->
    <title>Fill 404</title>
    <desc>Created with Sketch.</desc>
    <defs></defs>
    <g id="Page-1" stroke="none" stroke-width="1" fill="none" fill-rule="evenodd">
        <g id="Solid-Icons" transform="translate(-2.000000, -819.000000)" fill="#767676">
            <g id="Fill-404" transform="translate(2.000000, 819.000000)">
                <path d="M12.9995,9.0005 L9.4995,9.0005 C9.2235,9.0005 8.9995,9.2255 8.9995,9.5005 C8.9995,9.7765 9.2235,10.0005 9.4995,10.0005 L10.4995,10.0005 C11.8775,10.0005 12.9995,11.1225 12.9995,12.5005 C12.9995,13.7085 12.1395,14.7185 10.9995,14.9505 L10.9995,16.0005 L8.9995,16.0005 L8.9995,15.0005 L6.9995,15.0005 L6.9995,13.0005 L10.4995,13.0005 C10.7755,13.0005 10.9995,12.7765 10.9995,12.5005 C10.9995,12.2255 10.7755,12.0005 10.4995,12.0005 L9.4995,12.0005 C8.1215,12.0005 6.9995,10.8785 6.9995,9.5005 C6.9995,8.2935 7.8595,7.2835 8.9995,7.0515 L8.9995,6.0005 L10.9995,6.0005 L10.9995,7.0005 L12.9995,7.0005 L12.9995,9.0005 Z M8.0005,2.0005 L12.0005,2.0005 L12.0005,3.0005 L8.0005,3.0005 L8.0005,2.0005 Z M18.0005,3.0005 L18.0005,2.0005 L16.0005,2.0005 L16.0005,3.0005 L14.0005,3.0005 L14.0005,1.0005 C14.0005,0.4485 13.5525,0.0005 13.0005,0.0005 L7.0005,0.0005 C6.4475,0.0005 6.0005,0.4485 6.0005,1.0005 L6.0005,3.0005 L4.0005,3.0005 L4.0005,2.0005 L2.0005,2.0005 L2.0005,3.0005 C0.8975,3.0005 0.0005,3.8975 0.0005,5.0005 L0.0005,17.0005 C0.0005,18.1045 0.8975,19.0005 2.0005,19.0005 L18.0005,19.0005 C19.1035,19.0005 20.0005,18.1045 20.0005,17.0005 L20.0005,5.0005 C20.0005,3.8975 19.1035,3.0005 18.0005,3.0005 L18.0005,3.0005 Z"></path>
            </g>
        </g>
    </g>
</svg>