<?xml version="1.0" encoding="UTF-8"?>
<svg width="24px" height="12px" viewBox="0 0 24 12" version="1.1" xmlns="http://www.w3.org/2000/svg" xmlns:xlink="http://www.w3.org/1999/xlink">
    <!-- Generator: Sketch 42 (36781) - http://www.bohemiancoding.com/sketch -->
    <title>Fill 663 + Fill 664 + Fill 665</title>
    <desc>Created with Sketch.</desc>
    <defs></defs>
    <g id="Page-1" stroke="none" stroke-width="1" fill="none" fill-rule="evenodd">
        <g id="Solid-Icons" transform="translate(-96.000000, -1205.000000)" fill="#767676">
            <g id="Fill-663-+-Fill-664-+-Fill-665" transform="translate(95.000000, 1205.000000)">
                <path d="M19.998,0.0005 L17.998,0.0005 C16.894,0.0005 15.998,0.8965 15.998,2.0005 L15.998,5.0005 L9.998,5.0005 L9.998,2.0005 C9.998,0.8965 9.102,0.0005 7.998,0.0005 L5.998,0.0005 C4.894,0.0005 3.998,0.8965 3.998,2.0005 L3.998,10.0005 C3.998,11.1055 4.894,12.0005 5.998,12.0005 L7.998,12.0005 C9.102,12.0005 9.998,11.1055 9.998,10.0005 L9.998,7.0005 L15.998,7.0005 L15.998,10.0005 C15.998,11.1055 16.894,12.0005 17.998,12.0005 L19.998,12.0005 C21.102,12.0005 21.998,11.1055 21.998,10.0005 L21.998,2.0005 C21.998,0.8965 21.102,0.0005 19.998,0.0005" id="Fill-663"></path>
                <polygon id="Fill-664" points="22.998 8 24.998 8 24.998 4 22.998 4"></polygon>
                <polygon id="Fill-665" points="0.998 8 2.998 8 2.998 4 0.998 4"></polygon>
            </g>
        </g>
    </g>
</svg>