<?xml version="1.0" encoding="UTF-8"?>
<svg width="20px" height="20px" viewBox="0 0 20 20" version="1.1" xmlns="http://www.w3.org/2000/svg" xmlns:xlink="http://www.w3.org/1999/xlink">
    <!-- Generator: Sketch 42 (36781) - http://www.bohemiancoding.com/sketch -->
    <title>Fill 792 + Fill 793 + Fill 794</title>
    <desc>Created with Sketch.</desc>
    <defs></defs>
    <g id="Page-1" stroke="none" stroke-width="1" fill="none" fill-rule="evenodd">
        <g id="Solid-Icons" transform="translate(-50.000000, -1442.000000)" fill="#767676">
            <g id="Fill-792-+-Fill-793-+-Fill-794" transform="translate(50.000000, 1442.000000)">
                <path d="M14,12.0005 L10,12.0005 C9.511,12.0005 9.094,12.3545 9.014,12.8355 C9.005,12.8875 8.067,18.0005 5,18.0005 C3.712,18.0005 2,17.5865 2,14.0005 L2,8.0005 C2,4.0195 4.019,2.0005 8,2.0005 L14,2.0005 C16.206,2.0005 18,3.7945 18,6.0005 C18,11.2735 16.078,12.0005 14,12.0005 M14,0.0005 L8,0.0005 C2.916,0.0005 0,2.9165 0,8.0005 L0,14.0005 C0,19.2215 3.133,20.0005 5,20.0005 C8.821,20.0005 10.325,15.8315 10.801,14.0005 L14,14.0005 C20,14.0005 20,7.9795 20,6.0005 C20,2.6915 17.309,0.0005 14,0.0005" id="Fill-792"></path>
                <path d="M5,13.0005 C3.896,13.0005 3,13.8955 3,15.0005 C3,16.1045 3.896,17.0005 5,17.0005 C6.105,17.0005 7,16.1045 7,15.0005 C7,13.8955 6.105,13.0005 5,13.0005" id="Fill-793"></path>
                <path d="M14,3.0005 L8,3.0005 C5.515,3.0005 3,4.3745 3,7.0005 C3,10.3185 4.009,12.0005 6,12.0005 C7.913,12.0005 9.678,10.6335 10.393,10.0005 L14,10.0005 C17,10.0005 17,6.9895 17,6.0005 C17,4.3465 15.654,3.0005 14,3.0005" id="Fill-794"></path>
            </g>
        </g>
    </g>
</svg>