<?xml version="1.0" encoding="UTF-8"?>
<svg width="18px" height="22px" viewBox="0 0 18 22" version="1.1" xmlns="http://www.w3.org/2000/svg" xmlns:xlink="http://www.w3.org/1999/xlink">
    <!-- Generator: Sketch 42 (36781) - http://www.bohemiancoding.com/sketch -->
    <title>Fill 869 + Fill 870</title>
    <desc>Created with Sketch.</desc>
    <defs></defs>
    <g id="Page-1" stroke="none" stroke-width="1" fill="none" fill-rule="evenodd">
        <g id="Solid-Icons" transform="translate(-435.000000, -1537.000000)" fill="#757575">
            <g id="Fill-869-+-Fill-870" transform="translate(435.000000, 1537.000000)">
                <path d="M12,6.0005 L12,1.0005 L17,6.0005 L12,6.0005 Z M13.414,0.0005 L6,0.0005 C4.897,0.0005 4,0.8985 4,2.0005 L4,16.0005 C4,17.1025 4.897,18.0005 6,18.0005 L16,18.0005 C17.103,18.0005 18,17.1025 18,16.0005 L18,4.5865 L13.414,0.0005 Z" id="Fill-869"></path>
                <path d="M2,4.0005 L0,4.0005 L0,20.0005 C0,21.1025 0.897,22.0005 2,22.0005 L14,22.0005 L14,20.0005 L2,20.0005 L2,4.0005 Z" id="Fill-870"></path>
            </g>
        </g>
    </g>
</svg>