<?xml version="1.0" encoding="UTF-8"?>
<svg width="24px" height="18px" viewBox="0 0 24 18" version="1.1" xmlns="http://www.w3.org/2000/svg" xmlns:xlink="http://www.w3.org/1999/xlink">
    <!-- Generator: Sketch 42 (36781) - http://www.bohemiancoding.com/sketch -->
    <title>Fill 126 + Fill 127</title>
    <desc>Created with Sketch.</desc>
    <defs></defs>
    <g id="Page-1" stroke="none" stroke-width="1" fill="none" fill-rule="evenodd">
        <g id="Solid-Icons" transform="translate(-48.000000, -243.000000)" fill="#757575">
            <g id="Fill-126-+-Fill-127" transform="translate(48.000000, 243.000000)">
                <path d="M22,0.0005 L2,0.0005 C1.448,0.0005 1,0.4485 1,1.0005 L1,11.0005 L9,11.0005 C9.53,11.0005 10.039,11.2115 10.414,11.5865 L10.829,12.0005 L13.171,12.0005 L13.586,11.5865 C13.961,11.2115 14.47,11.0005 15,11.0005 L23,11.0005 L23,1.0005 C23,0.4485 22.552,0.0005 22,0.0005" id="Fill-126"></path>
                <path d="M23.2427,12.0005 L14.9997,12.0005 C14.7347,12.0005 14.4807,12.1065 14.2927,12.2935 L13.5857,13.0005 L10.4137,13.0005 L9.7067,12.2935 C9.5197,12.1065 9.2647,12.0005 8.9997,12.0005 L0.7577,12.0195 C0.2217,12.1525 -0.1043,12.7075 0.0297,13.2435 L0.7877,16.2745 C1.0347,17.2585 1.9857,18.0005 2.9997,18.0005 L20.9997,18.0005 C22.0147,18.0005 22.9667,17.2575 23.2127,16.2735 L23.9697,13.2435 C24.1037,12.7075 23.7787,12.1345 23.2427,12.0005" id="Fill-127"></path>
            </g>
        </g>
    </g>
</svg>