<?xml version="1.0" encoding="UTF-8"?>
<svg width="22px" height="22px" viewBox="0 0 22 22" version="1.1" xmlns="http://www.w3.org/2000/svg" xmlns:xlink="http://www.w3.org/1999/xlink">
    <!-- Generator: Sketch 42 (36781) - http://www.bohemiancoding.com/sketch -->
    <title>Fill 216</title>
    <desc>Created with Sketch.</desc>
    <defs></defs>
    <g id="Page-1" stroke="none" stroke-width="1" fill="none" fill-rule="evenodd">
        <g id="Solid-Icons" transform="translate(-49.000000, -337.000000)" fill="#757575">
            <g id="Fill-216" transform="translate(49.000000, 337.000000)">
                <path d="M14,13.4146 L12.586,12.0006 L14.586,10.0006 L9,10.0006 C7.897,10.0006 7,10.8986 7,12.0006 C7,13.1026 7.897,14.0006 9,14.0006 L10,14.0006 L10,16.0006 L9,16.0006 C6.794,16.0006 5,14.2066 5,12.0006 C5,9.7946 6.794,8.0006 9,8.0006 L14.586,8.0006 L12.586,6.0006 L14,4.5866 L18.414,9.0006 L14,13.4146 Z M11,0.0006 C4.935,0.0006 0,4.9356 0,11.0006 C0,17.0666 4.935,22.0006 11,22.0006 C17.065,22.0006 22,17.0666 22,11.0006 C22,4.9356 17.065,0.0006 11,0.0006 L11,0.0006 Z"></path>
            </g>
        </g>
    </g>
</svg>