<?xml version="1.0" encoding="UTF-8"?>
<svg width="20px" height="18px" viewBox="0 0 20 18" version="1.1" xmlns="http://www.w3.org/2000/svg" xmlns:xlink="http://www.w3.org/1999/xlink">
    <!-- Generator: Sketch 42 (36781) - http://www.bohemiancoding.com/sketch -->
    <title>Fill 410</title>
    <desc>Created with Sketch.</desc>
    <defs></defs>
    <g id="Page-1" stroke="none" stroke-width="1" fill="none" fill-rule="evenodd">
        <g id="Solid-Icons" transform="translate(-194.000000, -771.000000)" fill="#767676">
            <g id="Fill-410" transform="translate(194.000000, 771.000000)">
                <path d="M15,15 L13,15 L13,10 L15,10 L15,15 Z M11,15 L9,15 L9,10 L11,10 L11,15 Z M7,15 L5,15 L5,10 L7,10 L7,15 Z M16.58,7 L12.868,0.504 L11.132,1.496 L14.277,7 L5.723,7 L8.868,1.496 L7.132,0.504 L3.42,7 L0,7 L0,9 L1.198,9 L3.024,17.217 C3.126,17.675 3.531,18 4,18 L16,18 C16.469,18 16.875,17.675 16.976,17.217 L18.802,9 L20,9 L20,7 L16.58,7 Z"></path>
            </g>
        </g>
    </g>
</svg>