<?xml version="1.0" encoding="UTF-8"?>
<svg width="24px" height="18px" viewBox="0 0 24 18" version="1.1" xmlns="http://www.w3.org/2000/svg" xmlns:xlink="http://www.w3.org/1999/xlink">
    <!-- Generator: Sketch 42 (36781) - http://www.bohemiancoding.com/sketch -->
    <title>Fill 428</title>
    <desc>Created with Sketch.</desc>
    <defs></defs>
    <g id="Page-1" stroke="none" stroke-width="1" fill="none" fill-rule="evenodd">
        <g id="Solid-Icons" transform="translate(-336.000000, -819.000000)" fill="#B4B4B4">
            <g id="Fill-428" transform="translate(336.000000, 819.000000)">
                <path d="M4,14 L2,14 L2,8 L4,8 L4,14 Z M22,0 L10,0 C8.897,0 8,0.897 8,2 L8,3 L10,3 L10,2 L22,2 L22,4 L15,4 L15,6 L21.999,6 L21.997,12 L10,12 L10,11 L8,11 L8,12 C8,13.104 8.897,14 10,14 L16.382,14 L15.658,15.449 C15.488,15.79 15.146,16 14.764,16 L8.414,16 L6,13.586 L6,8.415 L8.414,6 L12,6 L12,7 C12,7.552 11.551,8 11,8 L9,8 L9,10 L11,10 C12.654,10 14,8.655 14,7 L14,5 C14,4.449 13.552,4 13,4 L8,4 C7.735,4 7.48,4.105 7.293,4.294 L5.46,6.127 C5.32,6.053 5.169,6 5,6 L1,6 C0.448,6 0,6.449 0,7 L0,15 C0,15.553 0.448,16 1,16 L5,16 C5.169,16 5.32,15.949 5.46,15.875 L7.293,17.708 C7.48,17.894 7.735,18 8,18 L14.764,18 C15.908,18 16.936,17.366 17.447,16.342 L18.618,14 L22,14 C23.103,14 24,13.104 24,12 L24,2 C24,0.897 23.103,0 22,0 L22,0 Z"></path>
            </g>
        </g>
    </g>
</svg>