<?xml version="1.0" encoding="UTF-8"?>
<svg width="20px" height="24px" viewBox="0 0 20 24" version="1.1" xmlns="http://www.w3.org/2000/svg" xmlns:xlink="http://www.w3.org/1999/xlink">
    <!-- Generator: Sketch 42 (36781) - http://www.bohemiancoding.com/sketch -->
    <title>Fill 769 + Fill 770 + Fill 771</title>
    <desc>Created with Sketch.</desc>
    <defs></defs>
    <g id="Page-1" stroke="none" stroke-width="1" fill="none" fill-rule="evenodd">
        <g id="Solid-Icons" transform="translate(-98.000000, -1392.000000)" fill="#767676">
            <g id="Fill-769-+-Fill-770-+-Fill-771" transform="translate(97.000000, 1392.000000)">
                <polygon id="Fill-769" points="11.999 18.0005 11.999 15.0005 14.999 15.0005 14.999 13.0005 11.999 13.0005 11.999 10.0005 9.999 10.0005 9.999 13.0005 6.999 13.0005 6.999 15.0005 9.999 15.0005 9.999 18.0005"></polygon>
                <path d="M18.999,3.0005 L16.999,3.0005 L16.999,6.0005 L17.999,6.0005 L17.999,21.0005 L3.999,21.0005 L3.999,6.0005 L4.999,6.0005 L4.999,3.0005 L2.999,3.0005 C1.896,3.0005 0.999,3.8985 0.999,5.0005 L0.999,22.0005 C0.999,23.1035 1.896,24.0005 2.999,24.0005 L18.999,24.0005 C20.102,24.0005 20.999,23.1035 20.999,22.0005 L20.999,5.0005 C20.999,3.8985 20.102,3.0005 18.999,3.0005" id="Fill-770"></path>
                <path d="M6.999,7.0005 L14.999,7.0005 C15.551,7.0005 15.999,6.5525 15.999,6.0005 L15.999,3.0005 C15.999,2.4485 15.551,2.0005 14.999,2.0005 L13.828,2.0005 C13.415,0.8365 12.303,0.0005 10.999,0.0005 C9.695,0.0005 8.583,0.8365 8.17,2.0005 L6.999,2.0005 C6.447,2.0005 5.999,2.4485 5.999,3.0005 L5.999,6.0005 C5.999,6.5525 6.447,7.0005 6.999,7.0005" id="Fill-771"></path>
            </g>
        </g>
    </g>
</svg>