<?xml version="1.0" encoding="UTF-8"?>
<svg width="20px" height="21px" viewBox="0 0 20 21" version="1.1" xmlns="http://www.w3.org/2000/svg" xmlns:xlink="http://www.w3.org/1999/xlink">
    <!-- Generator: Sketch 42 (36781) - http://www.bohemiancoding.com/sketch -->
    <title>Fill 591 + Fill 592</title>
    <desc>Created with Sketch.</desc>
    <defs></defs>
    <g id="Page-1" stroke="none" stroke-width="1" fill="none" fill-rule="evenodd">
        <g id="Solid-Icons" transform="translate(-435.000000, -1058.000000)" fill="#767676">
            <g id="Fill-591-+-Fill-592" transform="translate(435.000000, 1058.000000)">
                <path d="M17.0005,17.0015 C17.0005,18.1065 16.1055,19.0015 15.0005,19.0015 C13.8965,19.0015 13.0005,18.1065 13.0005,17.0015 L13.0005,14.0015 C13.0005,12.8965 13.8965,12.0015 15.0005,12.0015 C16.1055,12.0015 17.0005,12.8965 17.0005,14.0015 L17.0005,17.0015 Z M18.4725,1.0015 L17.7435,6.1065 L16.2575,5.8945 L16.9575,1.0015 L13.0435,1.0015 L13.7435,5.8945 L12.2575,6.1065 L11.5285,1.0015 L10.0005,1.0015 L11.7395,17.9965 C11.8865,19.6885 13.3025,21.0015 15.0005,21.0015 C16.6965,21.0015 18.1115,19.6805 18.2595,17.9885 L20.0005,1.0015 L18.4725,1.0015 Z" id="Fill-591"></path>
                <path d="M7.0005,7.0015 C7.0005,8.1065 6.1055,9.0015 5.0005,9.0015 C3.8965,9.0015 3.0005,8.1065 3.0005,7.0015 L3.0005,4.0015 C3.0005,2.8965 3.8965,2.0015 5.0005,2.0015 C6.1055,2.0015 7.0005,2.8965 7.0005,4.0015 L7.0005,7.0015 Z M5.0005,0.0015 C3.3025,0.0015 1.8865,1.3145 1.7395,3.0065 L0.0005,20.0015 L1.5285,20.0015 L2.2575,14.8945 L3.7435,15.1065 L3.0435,20.0015 L6.9575,20.0015 L6.2575,15.1065 L7.7435,14.8945 L8.4725,20.0015 L10.0005,20.0015 L8.2595,3.0145 C8.1115,1.3225 6.6965,0.0015 5.0005,0.0015 L5.0005,0.0015 Z" id="Fill-592"></path>
            </g>
        </g>
    </g>
</svg>