<?xml version="1.0" encoding="UTF-8"?>
<svg width="24px" height="24px" viewBox="0 0 24 24" version="1.1" xmlns="http://www.w3.org/2000/svg" xmlns:xlink="http://www.w3.org/1999/xlink">
    <!-- Generator: Sketch 42 (36781) - http://www.bohemiancoding.com/sketch -->
    <title>Fill 419 + Fill 420 + Fill 421</title>
    <desc>Created with Sketch.</desc>
    <defs></defs>
    <g id="Page-1" stroke="none" stroke-width="1" fill="none" fill-rule="evenodd">
        <g id="Solid-Icons" transform="translate(-384.000000, -768.000000)" fill="#767676">
            <g id="Fill-419-+-Fill-420-+-Fill-421" transform="translate(384.000000, 768.000000)">
                <polygon id="Fill-419" points="20 9.0005 20 7.0005 16.58 7.0005 12.868 0.5035 11.132 1.4965 14.277 7.0005 5.724 7.0005 8.868 1.4965 7.132 0.5035 3.42 7.0005 0 7.0005 0 9.0005"></polygon>
                <path d="M17.6562,14.1572 L18.5802,10.0002 L1.4212,10.0002 L3.0242,17.2172 C3.1262,17.6752 3.5312,18.0002 4.0002,18.0002 L13.3482,18.0002 C14.0272,16.0842 15.6472,14.6172 17.6562,14.1572" id="Fill-420"></path>
                <polygon id="Fill-421" points="22.293 16.2935 18 20.5865 15.707 18.2935 14.293 19.7065 18 23.4145 23.707 17.7065"></polygon>
            </g>
        </g>
    </g>
</svg>