<?xml version="1.0" encoding="UTF-8"?>
<svg width="24px" height="24px" viewBox="0 0 24 24" version="1.1" xmlns="http://www.w3.org/2000/svg" xmlns:xlink="http://www.w3.org/1999/xlink">
    <!-- Generator: Sketch 42 (36781) - http://www.bohemiancoding.com/sketch -->
    <title>Fill 490 + Fill 491 + Fill 492</title>
    <desc>Created with Sketch.</desc>
    <defs></defs>
    <g id="Page-1" stroke="none" stroke-width="1" fill="none" fill-rule="evenodd">
        <g id="Solid-Icons" transform="translate(-96.000000, -912.000000)" fill="#767676">
            <g id="Fill-490-+-Fill-491-+-Fill-492" transform="translate(96.000000, 912.000000)">
                <path d="M11,11.0049 L12.5,11.0049 C12.776,11.0049 13,10.7809 13,10.5049 C13,10.2279 12.776,10.0049 12.5,10.0049 L11,10.0049 L11,11.0049 Z" id="Fill-490"></path>
                <path d="M18.3174,15.0049 C18.7504,14.0939 19.0004,13.0799 19.0004,12.0049 C19.0004,10.9299 18.7504,9.9149 18.3174,9.0049 L21.5394,9.0049 C21.8374,9.9519 22.0004,10.9589 22.0004,12.0049 C22.0004,13.0489 21.8374,14.0569 21.5384,15.0049 L18.3174,15.0049 Z M14.9834,21.5489 L17.5804,17.0049 L20.6464,17.0049 C19.4024,19.1489 17.3904,20.7949 14.9834,21.5489 L14.9834,21.5489 Z M12.4324,21.9809 C12.2884,21.9879 12.1464,22.0039 12.0004,22.0039 C11.8544,22.0039 11.7124,21.9879 11.5684,21.9809 L9.6254,18.5819 C10.3674,18.8509 11.1654,19.0049 12.0004,19.0049 C12.8354,19.0049 13.6324,18.8509 14.3754,18.5819 L12.4324,21.9809 Z M3.3534,17.0049 L6.4204,17.0049 L9.0164,21.5489 C6.6094,20.7949 4.5984,19.1489 3.3534,17.0049 L3.3534,17.0049 Z M2.0004,12.0049 C2.0004,10.9589 2.1624,9.9519 2.4614,9.0049 L5.6824,9.0049 C5.2494,9.9149 5.0004,10.9299 5.0004,12.0049 C5.0004,13.0799 5.2494,14.0939 5.6824,15.0049 L2.4614,15.0049 C2.1624,14.0569 2.0004,13.0489 2.0004,12.0049 L2.0004,12.0049 Z M9.0174,2.4589 L6.4204,7.0049 L3.3534,7.0049 C4.5974,4.8599 6.6094,3.2129 9.0174,2.4589 L9.0174,2.4589 Z M11.5684,2.0279 C11.7124,2.0209 11.8544,2.0049 12.0004,2.0049 C12.1464,2.0049 12.2884,2.0209 12.4324,2.0279 L14.3754,5.4259 C13.6324,5.1579 12.8354,5.0049 12.0004,5.0049 C11.1644,5.0049 10.3674,5.1579 9.6244,5.4259 L11.5684,2.0279 Z M15.0004,13.5049 C15.0004,14.7119 14.1394,15.7219 13.0004,15.9539 L13.0004,17.0049 L11.0004,17.0049 L11.0004,16.0049 L9.0004,16.0049 L9.0004,8.0049 L11.0004,8.0049 L11.0004,7.0049 L13.0004,7.0049 L13.0004,8.0559 C14.1394,8.2879 15.0004,9.2979 15.0004,10.5049 C15.0004,11.0689 14.8044,11.5849 14.4874,12.0049 C14.8044,12.4239 15.0004,12.9389 15.0004,13.5049 L15.0004,13.5049 Z M20.6474,7.0049 L17.5804,7.0049 L14.9824,2.4589 C17.3904,3.2129 19.4024,4.8599 20.6474,7.0049 L20.6474,7.0049 Z M12.0004,0.0049 C5.3834,0.0049 0.0004,5.3879 0.0004,12.0049 C0.0004,18.6209 5.3834,24.0039 12.0004,24.0039 C18.6164,24.0039 24.0004,18.6209 24.0004,12.0049 C24.0004,5.3879 18.6164,0.0049 12.0004,0.0049 L12.0004,0.0049 Z" id="Fill-491"></path>
                <path d="M12.5,13.0049 L11,13.0049 L11,14.0049 L12.5,14.0049 C12.776,14.0049 13,13.7809 13,13.5049 C13,13.2279 12.776,13.0049 12.5,13.0049" id="Fill-492"></path>
            </g>
        </g>
    </g>
</svg>