<?xml version="1.0" encoding="UTF-8"?>
<svg width="20px" height="20px" viewBox="0 0 20 20" version="1.1" xmlns="http://www.w3.org/2000/svg" xmlns:xlink="http://www.w3.org/1999/xlink">
    <!-- Generator: Sketch 42 (36781) - http://www.bohemiancoding.com/sketch -->
    <title>Fill 725 + Fill 726 + Fill 727</title>
    <desc>Created with Sketch.</desc>
    <defs></defs>
    <g id="Page-1" stroke="none" stroke-width="1" fill="none" fill-rule="evenodd">
        <g id="Solid-Icons" transform="translate(-338.000000, -1298.000000)" fill="#767676">
            <g id="Fill-725-+-Fill-726-+-Fill-727" transform="translate(338.000000, 1298.000000)">
                <path d="M4.7207,11.001 L7.2607,3.38 L8.9197,6.144 L7.5317,11.001 L9.6117,11.001 L10.9617,6.275 C11.0377,6.01 10.9997,5.724 10.8577,5.487 L7.8577,0.487 C7.6557,0.151 7.2757,-0.037 6.8907,0.007 C6.5027,0.05 6.1747,0.314 6.0517,0.685 L2.5307,11.247 C2.9977,11.102 3.4857,11.001 3.9997,11.001 L4.7207,11.001 Z" id="Fill-725"></path>
                <path d="M17,3.001 C15.346,3.001 14,4.347 14,6.001 L14,11.001 L16,11.001 L16,9.001 L17,9.001 L17,7.001 L16,7.001 L16,6.001 C16,5.45 16.449,5.001 17,5.001 C17.551,5.001 18,5.45 18,6.001 L18,11.425 C18.801,11.777 19.483,12.339 20,13.033 L20,6.001 C20,4.347 18.654,3.001 17,3.001" id="Fill-726"></path>
                <path d="M16,17.001 C15.448,17.001 15,16.554 15,16.001 C15,15.45 15.448,15.001 16,15.001 C16.552,15.001 17,15.45 17,16.001 C17,16.554 16.552,17.001 16,17.001 M4,17.001 C3.448,17.001 3,16.554 3,16.001 C3,15.45 3.448,15.001 4,15.001 C4.552,15.001 5,15.45 5,16.001 C5,16.554 4.552,17.001 4,17.001 M16,12.001 L4,12.001 C1.794,12.001 0,13.795 0,16.001 C0,18.207 1.794,20.001 4,20.001 L16,20.001 C18.206,20.001 20,18.207 20,16.001 C20,13.795 18.206,12.001 16,12.001" id="Fill-727"></path>
            </g>
        </g>
    </g>
</svg>