<?xml version="1.0" encoding="UTF-8"?>
<svg width="20px" height="19px" viewBox="0 0 20 19" version="1.1" xmlns="http://www.w3.org/2000/svg" xmlns:xlink="http://www.w3.org/1999/xlink">
    <!-- Generator: Sketch 42 (36781) - http://www.bohemiancoding.com/sketch -->
    <title>Fill 746 + Fill 747</title>
    <desc>Created with Sketch.</desc>
    <defs></defs>
    <g id="Page-1" stroke="none" stroke-width="1" fill="none" fill-rule="evenodd">
        <g id="Solid-Icons" transform="translate(-50.000000, -1347.000000)" fill="#767676">
            <g id="Fill-746-+-Fill-747" transform="translate(50.000000, 1347.000000)">
                <path d="M18.001,17.001 L18.001,10.001 C18.001,7.534 16.728,5.317 14.684,4.056 C14.669,4.783 14.472,5.474 14.133,6.098 C15.298,7.029 16.001,8.447 16.001,10.001 L16.001,17.001 L12.001,17.001 L12.001,19.001 L20.001,19.001 L20.001,17.001 L18.001,17.001 Z" id="Fill-746"></path>
                <path d="M12.2993,6.811 L12.6663,6.439 C13.3293,5.777 13.6933,4.897 13.6933,3.962 C13.6933,3.027 13.3293,2.148 12.6683,1.487 C12.0413,0.861 11.1393,0.501 10.1943,0.501 C9.2483,0.501 8.3463,0.861 7.7183,1.487 L7.3483,1.857 C4.8963,1.419 2.8343,2.132 1.3543,3.609 L0.6473,4.314 C0.4533,4.51 0.4523,4.828 0.6463,5.021 L9.1323,13.509 C9.3193,13.695 9.6543,13.695 9.8393,13.509 L10.5483,12.801 C11.9973,11.35 12.7443,9.31 12.2993,6.811" id="Fill-747"></path>
            </g>
        </g>
    </g>
</svg>