<?xml version="1.0" encoding="UTF-8"?>
<svg width="22px" height="22px" viewBox="0 0 22 22" version="1.1" xmlns="http://www.w3.org/2000/svg" xmlns:xlink="http://www.w3.org/1999/xlink">
    <!-- Generator: Sketch 42 (36781) - http://www.bohemiancoding.com/sketch -->
    <title>Fill 535 + Fill 536</title>
    <desc>Created with Sketch.</desc>
    <defs></defs>
    <g id="Page-1" stroke="none" stroke-width="1" fill="none" fill-rule="evenodd">
        <g id="Solid-Icons" transform="translate(-145.000000, -1009.000000)" fill="#767676">
            <g id="Fill-535-+-Fill-536" transform="translate(145.000000, 1009.000000)">
                <path d="M12.002,2.0942 L12.002,0.0052 L10.002,0.0052 L10.002,2.0942 C7.165,2.5712 5.002,5.0322 5.002,8.0052 L17.002,8.0052 C17.002,5.0322 14.838,2.5712 12.002,2.0942" id="Fill-535"></path>
                <path d="M20.002,19.005 L18.002,19.005 L18.002,17.005 L20.002,17.005 L20.002,19.005 Z M16.002,14.005 L14.002,14.005 L14.002,12.005 L16.002,12.005 L16.002,14.005 Z M16.002,19.005 L14.002,19.005 L14.002,17.005 L16.002,17.005 L16.002,19.005 Z M12.002,14.005 L10.002,14.005 L10.002,12.005 L12.002,12.005 L12.002,14.005 Z M12.002,19.005 L10.002,19.005 L10.002,17.005 L12.002,17.005 L12.002,19.005 Z M8.002,14.005 L6.002,14.005 L6.002,12.005 L8.002,12.005 L8.002,14.005 Z M8.002,19.005 L6.002,19.005 L6.002,17.005 L8.002,17.005 L8.002,19.005 Z M4.002,19.005 L2.002,19.005 L2.002,17.005 L4.002,17.005 L4.002,19.005 Z M21.002,15.005 L18.002,15.005 L18.002,11.005 C18.002,10.453 17.554,10.005 17.002,10.005 L5.002,10.005 C4.45,10.005 4.002,10.453 4.002,11.005 L4.002,15.005 L1.002,15.005 C0.45,15.005 0.002,15.453 0.002,16.005 L0.002,20.005 C0.002,20.557 0.45,21.005 1.002,21.005 L21.002,21.005 C21.554,21.005 22.002,20.557 22.002,20.005 L22.002,16.005 C22.002,15.453 21.554,15.005 21.002,15.005 L21.002,15.005 Z" id="Fill-536"></path>
            </g>
        </g>
    </g>
</svg>