<?xml version="1.0" encoding="UTF-8"?>
<svg width="20px" height="20px" viewBox="0 0 20 20" version="1.1" xmlns="http://www.w3.org/2000/svg" xmlns:xlink="http://www.w3.org/1999/xlink">
    <!-- Generator: Sketch 42 (36781) - http://www.bohemiancoding.com/sketch -->
    <title>Fill 221</title>
    <desc>Created with Sketch.</desc>
    <defs></defs>
    <g id="Page-1" stroke="none" stroke-width="1" fill="none" fill-rule="evenodd">
        <g id="Solid-Icons" transform="translate(-338.000000, -434.000000)" fill="#B4B4B4">
            <g id="Fill-221" transform="translate(338.000000, 434.000000)">
                <path d="M10,0.0005 C7.285,0.0005 4.78,1.0895 2.938,2.9385 L1,1.0005 L1,7.0005 L7,7.0005 L4.351,4.3515 C5.824,2.8715 7.828,2.0005 10,2.0005 C14.411,2.0005 18,5.5895 18,10.0005 C18,14.4115 14.411,18.0005 10,18.0005 C5.589,18.0005 2,14.4115 2,10.0005 L0,10.0005 C0,15.5155 4.486,20.0005 10,20.0005 C15.514,20.0005 20,15.5155 20,10.0005 C20,4.4865 15.514,0.0005 10,0.0005"></path>
            </g>
        </g>
    </g>
</svg>