<?xml version="1.0" encoding="UTF-8"?>
<svg width="16px" height="20px" viewBox="0 0 16 20" version="1.1" xmlns="http://www.w3.org/2000/svg" xmlns:xlink="http://www.w3.org/1999/xlink">
    <!-- Generator: Sketch 42 (36781) - http://www.bohemiancoding.com/sketch -->
    <title>Fill 521</title>
    <desc>Created with Sketch.</desc>
    <defs></defs>
    <g id="Page-1" stroke="none" stroke-width="1" fill="none" fill-rule="evenodd">
        <g id="Solid-Icons" transform="translate(-196.000000, -962.000000)" fill="#767676">
            <g id="Fill-521" transform="translate(196.000000, 962.000000)">
                <path d="M13.001,9.0022 L9.001,9.0022 L9.001,13.0022 L7.001,13.0022 L7.001,9.0022 L3.001,9.0022 L3.001,7.0022 L7.001,7.0022 L7.001,3.0022 L9.001,3.0022 L9.001,7.0022 L13.001,7.0022 L13.001,9.0022 Z M8.001,0.0022 C3.583,0.0022 0.001,3.5842 0.001,8.0022 C0.001,12.4192 8.001,20.0022 8.001,20.0022 C8.001,20.0022 16.001,12.4192 16.001,8.0022 C16.001,3.5842 12.419,0.0022 8.001,0.0022 L8.001,0.0022 Z"></path>
            </g>
        </g>
    </g>
</svg>