<?xml version="1.0" encoding="UTF-8"?>
<svg width="22px" height="22px" viewBox="0 0 22 22" version="1.1" xmlns="http://www.w3.org/2000/svg" xmlns:xlink="http://www.w3.org/1999/xlink">
    <!-- Generator: Sketch 42 (36781) - http://www.bohemiancoding.com/sketch -->
    <title>Fill 297</title>
    <desc>Created with Sketch.</desc>
    <defs></defs>
    <g id="Page-1" stroke="none" stroke-width="1" fill="none" fill-rule="evenodd">
        <g id="Solid-Icons" transform="translate(-1.000000, -577.000000)" fill="#767676">
            <g id="Fill-297" transform="translate(1.000000, 577.000000)">
                <path d="M6,14.0005 L8.065,10.6875 L9.338,12.7295 L12.273,8.0215 L16,14.0005 L6,14.0005 Z M19,16.0005 L19,6.0005 C19,4.8985 18.103,4.0005 17,4.0005 L5,4.0005 L5,0.0005 L3,0.0005 L3,4.0005 L0,4.0005 L0,6.0005 L3,6.0005 L3,16.0005 C3,17.1035 3.897,18.0005 5,18.0005 L17,18.0005 L17,22.0005 L19,22.0005 L19,18.0005 L22,18.0005 L22,16.0005 L19,16.0005 Z"></path>
            </g>
        </g>
    </g>
</svg>