<?xml version="1.0" encoding="UTF-8"?>
<svg width="20px" height="20px" viewBox="0 0 20 20" version="1.1" xmlns="http://www.w3.org/2000/svg" xmlns:xlink="http://www.w3.org/1999/xlink">
    <!-- Generator: Sketch 42 (36781) - http://www.bohemiancoding.com/sketch -->
    <title>Fill 84</title>
    <desc>Created with Sketch.</desc>
    <defs></defs>
    <g id="Page-1" stroke="none" stroke-width="1" fill="none" fill-rule="evenodd">
        <g id="Solid-Icons" transform="translate(-146.000000, -146.000000)" fill="#757575">
            <g id="Fill-84" transform="translate(146.000000, 146.000000)">
                <path d="M4.9492,12.0005 C4.9492,10.1595 6.1082,9.0005 7.9492,9.0005 C9.7902,9.0005 10.9492,10.1595 10.9492,12.0005 L4.9492,12.0005 Z M7.9492,4.0005 C9.0532,4.0005 9.9492,4.8965 9.9492,6.0005 C9.9492,7.1045 9.0532,8.0005 7.9492,8.0005 C6.8442,8.0005 5.9492,7.1045 5.9492,6.0005 C5.9492,4.8965 6.8442,4.0005 7.9492,4.0005 L7.9492,4.0005 Z M19.4142,16.5865 L14.8872,12.0595 C15.6072,10.8415 16.0002,9.4525 16.0002,8.0005 C16.0002,5.8635 15.1672,3.8545 13.6562,2.3445 C12.1452,0.8335 10.1362,0.0005 8.0002,0.0005 C5.8632,0.0005 3.8542,0.8335 2.3442,2.3435 C0.8322,3.8545 0.0002,5.8635 0.0002,8.0005 C0.0002,10.1375 0.8322,12.1465 2.3442,13.6565 C3.8542,15.1685 5.8632,16.0005 8.0002,16.0005 C9.4522,16.0005 10.8412,15.6075 12.0582,14.8875 L16.5862,19.4145 C16.9642,19.7925 17.4662,20.0005 18.0002,20.0005 C18.5342,20.0005 19.0362,19.7925 19.4142,19.4145 C20.1942,18.6355 20.1942,17.3665 19.4142,16.5865 L19.4142,16.5865 Z"></path>
            </g>
        </g>
    </g>
</svg>