<?xml version="1.0" encoding="UTF-8"?>
<svg width="18px" height="22px" viewBox="0 0 18 22" version="1.1" xmlns="http://www.w3.org/2000/svg" xmlns:xlink="http://www.w3.org/1999/xlink">
    <!-- Generator: Sketch 42 (36781) - http://www.bohemiancoding.com/sketch -->
    <title>Fill 842</title>
    <desc>Created with Sketch.</desc>
    <defs></defs>
    <g id="Page-1" stroke="none" stroke-width="1" fill="none" fill-rule="evenodd">
        <g id="Solid-Icons" transform="translate(-435.000000, -1489.000000)" fill="#767676">
            <g id="Fill-842" transform="translate(434.000000, 1489.000000)">
                <path d="M15.998,11.0005 C15.998,11.5525 15.55,12.0005 14.998,12.0005 L4.998,12.0005 C4.446,12.0005 3.998,11.5525 3.998,11.0005 L3.998,4.0005 C3.998,3.4485 4.446,3.0005 4.998,3.0005 L14.998,3.0005 C15.55,3.0005 15.998,3.4485 15.998,4.0005 L15.998,11.0005 Z M14.998,17.0005 C14.445,17.0005 13.998,16.5525 13.998,16.0005 C13.998,15.4475 14.445,15.0005 14.998,15.0005 C15.551,15.0005 15.998,15.4475 15.998,16.0005 C15.998,16.5525 15.551,17.0005 14.998,17.0005 L14.998,17.0005 Z M12.998,19.0005 C12.445,19.0005 11.998,18.5525 11.998,18.0005 C11.998,17.4475 12.445,17.0005 12.998,17.0005 C13.551,17.0005 13.998,17.4475 13.998,18.0005 C13.998,18.5525 13.551,19.0005 12.998,19.0005 L12.998,19.0005 Z M8.998,18.0005 L6.998,18.0005 L6.998,20.0005 L4.998,20.0005 L4.998,18.0005 L2.998,18.0005 L2.998,16.0005 L4.998,16.0005 L4.998,14.0005 L6.998,14.0005 L6.998,16.0005 L8.998,16.0005 L8.998,18.0005 Z M16.998,0.0005 L2.998,0.0005 C1.895,0.0005 0.998,0.8965 0.998,2.0005 L0.998,20.0005 C0.998,21.1025 1.895,22.0005 2.998,22.0005 L13.998,22.0005 C16.755,22.0005 18.998,19.7575 18.998,17.0005 L18.998,2.0005 C18.998,0.8965 18.101,0.0005 16.998,0.0005 L16.998,0.0005 Z"></path>
            </g>
        </g>
    </g>
</svg>