<?xml version="1.0" encoding="UTF-8"?>
<svg width="18px" height="23px" viewBox="0 0 18 23" version="1.1" xmlns="http://www.w3.org/2000/svg" xmlns:xlink="http://www.w3.org/1999/xlink">
    <!-- Generator: Sketch 42 (36781) - http://www.bohemiancoding.com/sketch -->
    <title>Fill 547 + Fill 548 + Fill 549</title>
    <desc>Created with Sketch.</desc>
    <defs></defs>
    <g id="Page-1" stroke="none" stroke-width="1" fill="none" fill-rule="evenodd">
        <g id="Solid-Icons" transform="translate(-147.000000, -1057.000000)" fill="#767676">
            <g id="Fill-547-+-Fill-548-+-Fill-549" transform="translate(147.000000, 1057.000000)">
                <path d="M16.9868,21.4678 C16.0578,19.9948 15.2488,18.4988 14.5238,17.0008 L17.0008,17.0008 L17.0008,15.0008 L1.0008,15.0008 L1.0008,17.0008 L3.4778,17.0008 C2.7528,18.4988 1.9428,19.9948 1.0138,21.4678 C0.8198,21.7758 0.8078,22.1658 0.9838,22.4838 C1.1598,22.8028 1.4948,23.0008 1.8588,23.0008 L5.0008,23.0008 C5.0008,20.7918 5.7918,19.0008 8.0008,19.0008 L10.0008,19.0008 C12.2098,19.0008 13.0008,20.7918 13.0008,23.0008 L16.1418,23.0008 C16.5068,23.0008 16.8408,22.8028 17.0168,22.4838 C17.1928,22.1658 17.1808,21.7758 16.9868,21.4678" id="Fill-547"></path>
                <path d="M10.0005,4.001 L10.0005,2.001 L9.0005,0.001 L8.0005,2.001 L8.0005,4.001 C7.6975,5.258 7.3315,6.609 6.9175,8.001 L11.0825,8.001 C10.6685,6.609 10.3035,5.258 10.0005,4.001" id="Fill-548"></path>
                <path d="M7.2505,14.001 L8.0005,11.001 L10.0005,11.001 L10.7505,14.001 L13.1805,14.001 C12.7635,12.987 12.3965,11.989 12.0525,11.001 L13.0005,11.001 L13.0005,9.001 L5.0005,9.001 L5.0005,11.001 L5.9485,11.001 C5.6045,11.989 5.2375,12.987 4.8205,14.001 L7.2505,14.001 Z" id="Fill-549"></path>
            </g>
        </g>
    </g>
</svg>