<?xml version="1.0" encoding="UTF-8"?>
<svg width="20px" height="20px" viewBox="0 0 20 20" version="1.1" xmlns="http://www.w3.org/2000/svg" xmlns:xlink="http://www.w3.org/1999/xlink">
    <!-- Generator: Sketch 42 (36781) - http://www.bohemiancoding.com/sketch -->
    <title>Fill 918 + Fill 919 + Fill 920</title>
    <desc>Created with Sketch.</desc>
    <defs></defs>
    <g id="Page-1" stroke="none" stroke-width="1" fill="none" fill-rule="evenodd">
        <g id="Solid-Icons" transform="translate(-194.000000, -1058.000000)" fill="#767676">
            <g id="Fill-918-+-Fill-919-+-Fill-920" transform="translate(194.000000, 1058.000000)">
                <path d="M2,3.5005 C2,2.6725 2.672,2.0005 3.5,2.0005 C4.328,2.0005 5,2.6725 5,3.5005 L5,5.0005 L7,5.0005 L7,3.5005 C7,2.6725 7.672,2.0005 8.5,2.0005 C9.328,2.0005 10,2.6725 10,3.5005 L10,5.0005 L12,5.0005 L12,1.0005 C12,0.4485 11.552,0.0005 11,0.0005 L1,0.0005 C0.448,0.0005 0,0.4485 0,1.0005 L0,5.0005 L2,5.0005 L2,3.5005 Z" id="Fill-918"></path>
                <path d="M2,10.5005 C2,9.6725 2.672,9.0005 3.5,9.0005 C4.328,9.0005 5,9.6725 5,10.5005 L5,12.0005 L7,12.0005 L7,10.5005 C7,9.6725 7.672,9.0005 8.5,9.0005 C9.328,9.0005 10,9.6725 10,10.5005 L10,12.0005 L12,12.0005 L12,10.5005 C12,9.6725 12.672,9.0005 13.5,9.0005 C14.328,9.0005 15,9.6725 15,10.5005 L15,12.0005 L17,12.0005 L17,8.0005 C17,7.4485 16.552,7.0005 16,7.0005 L1,7.0005 C0.448,7.0005 0,7.4485 0,8.0005 L0,12.0005 L2,12.0005 L2,10.5005 Z" id="Fill-919"></path>
                <path d="M19,14.0005 L1,14.0005 C0.448,14.0005 0,14.4485 0,15.0005 L0,19.0005 C0,19.5525 0.448,20.0005 1,20.0005 L2,20.0005 L2,18.5005 C2,17.6725 2.672,17.0005 3.5,17.0005 C4.328,17.0005 5,17.6725 5,18.5005 L5,20.0005 L7,20.0005 L7,18.5005 C7,17.6725 7.672,17.0005 8.5,17.0005 C9.328,17.0005 10,17.6725 10,18.5005 L10,20.0005 L12,20.0005 L12,18.5005 C12,17.6725 12.672,17.0005 13.5,17.0005 C14.328,17.0005 15,17.6725 15,18.5005 L15,20.0005 L19,20.0005 C19.552,20.0005 20,19.5525 20,19.0005 L20,15.0005 C20,14.4485 19.552,14.0005 19,14.0005" id="Fill-920"></path>
            </g>
        </g>
    </g>
</svg>