<?xml version="1.0" encoding="UTF-8"?>
<svg width="19px" height="18px" viewBox="0 0 19 18" version="1.1" xmlns="http://www.w3.org/2000/svg" xmlns:xlink="http://www.w3.org/1999/xlink">
    <!-- Generator: Sketch 42 (36781) - http://www.bohemiancoding.com/sketch -->
    <title>Fill 908 + Fill 909 + Fill 910</title>
    <desc>Created with Sketch.</desc>
    <defs></defs>
    <g id="Page-1" stroke="none" stroke-width="1" fill="none" fill-rule="evenodd">
        <g id="Solid-Icons" transform="translate(-339.000000, -1347.000000)" fill="#767676">
            <g id="Fill-908-+-Fill-909-+-Fill-910" transform="translate(338.000000, 1347.000000)">
                <path d="M15.999,6.8296 L15.999,9.0006 L16.999,9.0006 C17.551,9.0006 17.999,8.5526 17.999,8.0006 L17.999,5.0006 C17.999,4.9496 17.978,4.9066 17.97,4.8576 L15.999,6.8296 Z" id="Fill-908"></path>
                <path d="M19.9229,0.6182 C19.7679,0.2442 19.4029,0.0002 18.9989,0.0002 L8.9989,0.0002 L8.9989,4.0002 L7.9989,4.0002 L7.9989,0.0002 L5.9989,0.0002 L5.9989,5.0002 L4.9989,5.0002 L4.9989,0.1022 C2.7199,0.5662 0.9989,2.5862 0.9989,5.0002 C0.9989,7.7582 3.2419,10.0002 5.9989,10.0002 L13.9989,10.0002 C14.5509,10.0002 14.9989,9.5522 14.9989,9.0002 L14.9989,6.4152 L19.7059,1.7072 C19.9919,1.4222 20.0779,0.9922 19.9229,0.6182" id="Fill-909"></path>
                <path d="M7.999,12.2461 L2.999,13.6751 L2.999,11.0001 L0.999,11.0001 L0.999,18.0001 L2.999,18.0001 L2.999,15.7551 L9.274,13.9621 C9.703,13.8391 9.999,13.4471 9.999,13.0001 L9.999,11.0001 L7.999,11.0001 L7.999,12.2461 Z" id="Fill-910"></path>
            </g>
        </g>
    </g>
</svg>