<?xml version="1.0" encoding="UTF-8"?>
<svg width="20px" height="20px" viewBox="0 0 20 20" version="1.1" xmlns="http://www.w3.org/2000/svg" xmlns:xlink="http://www.w3.org/1999/xlink">
    <!-- Generator: Sketch 42 (36781) - http://www.bohemiancoding.com/sketch -->
    <title>Fill 389</title>
    <desc>Created with Sketch.</desc>
    <defs></defs>
    <g id="Page-1" stroke="none" stroke-width="1" fill="none" fill-rule="evenodd">
        <g id="Solid-Icons" transform="translate(-242.000000, -722.000000)" fill="#767676">
            <g id="Fill-389" transform="translate(242.000000, 722.000000)">
                <path d="M15,15.003 L5,15.003 L5,13.003 L15,13.003 L15,15.003 Z M6,5.003 L8,5.003 L8,9.003 L6,9.003 L6,5.003 Z M12,5.003 L14,5.003 L14,9.003 L12,9.003 L12,5.003 Z M10,0.003 C4.478,0.003 0,4.479 0,10.003 C0,15.524 4.478,20.003 10,20.003 C15.522,20.003 20,15.524 20,10.003 C20,4.479 15.522,0.003 10,0.003 L10,0.003 Z"></path>
            </g>
        </g>
    </g>
</svg>