<?xml version="1.0" encoding="UTF-8"?>
<svg width="17px" height="12px" viewBox="0 0 17 12" version="1.1" xmlns="http://www.w3.org/2000/svg" xmlns:xlink="http://www.w3.org/1999/xlink">
    <!-- Generator: Sketch 42 (36781) - http://www.bohemiancoding.com/sketch -->
    <title>Fill 157</title>
    <desc>Created with Sketch.</desc>
    <defs></defs>
    <g id="Page-1" stroke="none" stroke-width="1" fill="none" fill-rule="evenodd">
        <g id="Solid-Icons" transform="translate(-244.000000, -294.000000)" fill="#757575">
            <g id="Fill-157" transform="translate(244.000000, 294.000000)">
                <path d="M16.5259,2.1504 C16.2309,1.9674 15.8619,1.9514 15.5529,2.1064 L12.9999,3.3824 L12.9999,2.0004 C12.9999,0.8974 12.1029,0.0004 10.9999,0.0004 L1.9999,0.0004 C0.8969,0.0004 -0.0001,0.8974 -0.0001,2.0004 L-0.0001,10.0004 C-0.0001,11.1034 0.8969,12.0004 1.9999,12.0004 L10.9999,12.0004 C12.1029,12.0004 12.9999,11.1034 12.9999,10.0004 L12.9999,8.6194 L15.5529,9.8954 C15.6939,9.9654 15.8469,10.0004 15.9999,10.0004 C16.1829,10.0004 16.3649,9.9504 16.5259,9.8514 C16.8199,9.6694 16.9999,9.3474 16.9999,9.0004 L16.9999,3.0004 C16.9999,2.6534 16.8199,2.3324 16.5259,2.1504"></path>
            </g>
        </g>
    </g>
</svg>