<?xml version="1.0" encoding="UTF-8"?>
<svg width="20px" height="19px" viewBox="0 0 20 19" version="1.1" xmlns="http://www.w3.org/2000/svg" xmlns:xlink="http://www.w3.org/1999/xlink">
    <!-- Generator: Sketch 42 (36781) - http://www.bohemiancoding.com/sketch -->
    <title>Fill 318 + Fill 319</title>
    <desc>Created with Sketch.</desc>
    <defs></defs>
    <g id="Page-1" stroke="none" stroke-width="1" fill="none" fill-rule="evenodd">
        <g id="Solid-Icons" transform="translate(-194.000000, -579.000000)" fill="#767676">
            <g id="Fill-318-+-Fill-319" transform="translate(194.000000, 579.000000)">
                <path d="M10,6.0044 C7.794,6.0044 6,7.7984 6,10.0044 C6,12.2104 7.794,14.0044 10,14.0044 C12.206,14.0044 14,12.2104 14,10.0044 C14,7.7984 12.206,6.0044 10,6.0044" id="Fill-318"></path>
                <path d="M10,16.0044 C6.691,16.0044 4,13.3134 4,10.0044 C4,6.6954 6.691,4.0044 10,4.0044 C13.309,4.0044 16,6.6954 16,10.0044 C16,13.3134 13.309,16.0044 10,16.0044 M18,3.0044 L16.07,3.0044 C15.402,3.0044 14.777,2.6704 14.406,2.1134 L13.594,0.8944 C13.223,0.3384 12.598,0.0044 11.93,0.0044 L8.07,0.0044 C7.402,0.0044 6.777,0.3384 6.406,0.8944 L5.594,2.1134 C5.223,2.6704 4.598,3.0044 3.93,3.0044 L2,3.0044 C0.895,3.0044 0,3.9004 0,5.0044 L0,16.0044 C0,17.1084 0.895,18.0044 2,18.0044 L18,18.0044 C19.104,18.0044 20,17.1084 20,16.0044 L20,5.0044 C20,3.9004 19.104,3.0044 18,3.0044" id="Fill-319"></path>
            </g>
        </g>
    </g>
</svg>