<?xml version="1.0" encoding="UTF-8"?>
<svg width="22px" height="17px" viewBox="0 0 22 17" version="1.1" xmlns="http://www.w3.org/2000/svg" xmlns:xlink="http://www.w3.org/1999/xlink">
    <!-- Generator: Sketch 42 (36781) - http://www.bohemiancoding.com/sketch -->
    <title>Fill 563 + Fill 564</title>
    <desc>Created with Sketch.</desc>
    <defs></defs>
    <g id="Page-1" stroke="none" stroke-width="1" fill="none" fill-rule="evenodd">
        <g id="Solid-Icons" transform="translate(-241.000000, -1013.000000)" fill="#767676">
            <g id="Fill-563-+-Fill-564" transform="translate(241.000000, 1013.000000)">
                <path d="M7.0029,6.0022 L6.6389,8.0022 L15.3669,8.0022 L15.0029,6.0022 C16.1069,6.0022 17.0029,5.1072 17.0029,4.0022 L17.0029,0.0022 L15.0029,0.0022 L15.0029,2.0022 L12.0029,2.0022 L12.0029,0.0022 L10.0029,0.0022 L10.0029,2.0022 L7.0029,2.0022 L7.0029,0.0022 L5.0029,0.0022 L5.0029,4.0022 C5.0029,5.1072 5.8989,6.0022 7.0029,6.0022" id="Fill-563"></path>
                <path d="M0.0029,9.0022 L0.0029,12.0022 L1.0029,12.0022 L1.0029,16.0022 C1.0029,16.5552 1.4509,17.0022 2.0029,17.0022 L9.0029,17.0022 L9.0029,15.0022 C9.0029,13.8992 9.8989,13.0022 11.0029,13.0022 C12.1069,13.0022 13.0029,13.8992 13.0029,15.0022 L13.0029,17.0022 L20.0029,17.0022 C20.5549,17.0022 21.0029,16.5552 21.0029,16.0022 L21.0029,12.0022 L22.0029,12.0022 L22.0029,9.0022 L0.0029,9.0022 Z" id="Fill-564"></path>
            </g>
        </g>
    </g>
</svg>