<?xml version="1.0" encoding="UTF-8"?>
<svg width="20px" height="20px" viewBox="0 0 20 20" version="1.1" xmlns="http://www.w3.org/2000/svg" xmlns:xlink="http://www.w3.org/1999/xlink">
    <!-- Generator: Sketch 42 (36781) - http://www.bohemiancoding.com/sketch -->
    <title>Fill 168 + Fill 169 + Fill 170</title>
    <desc>Created with Sketch.</desc>
    <defs></defs>
    <g id="Page-1" stroke="none" stroke-width="1" fill="none" fill-rule="evenodd">
        <g id="Solid-Icons" transform="translate(-290.000000, -338.000000)" fill="#757575">
            <g id="Fill-168-+-Fill-169-+-Fill-170" transform="translate(290.000000, 338.000000)">
                <path d="M1,11.9995 L1,17.9995 C1,19.1025 1.897,19.9995 3,19.9995 L9,19.9995 L9,11.9995 L1,11.9995 Z" id="Fill-168"></path>
                <path d="M11,11.9995 L11,19.9995 L17,19.9995 C18.103,19.9995 19,19.1025 19,17.9995 L19,11.9995 L11,11.9995 Z" id="Fill-169"></path>
                <path d="M12.1743,4.8252 C12.3583,3.9422 12.7023,2.8832 13.2923,2.2932 C13.4813,2.1042 13.7333,2.0002 14.0003,2.0002 C14.2673,2.0002 14.5183,2.1042 14.7063,2.2912 C15.0963,2.6822 15.0963,3.3172 14.7063,3.7072 C14.1163,4.2992 13.0573,4.6422 12.1743,4.8252 M5.2933,3.7072 C4.9033,3.3172 4.9033,2.6822 5.2933,2.2922 C5.4813,2.1042 5.7323,2.0002 5.9993,2.0002 C6.2673,2.0002 6.5183,2.1042 6.7073,2.2922 C7.2973,2.8822 7.6413,3.9412 7.8253,4.8232 C6.9453,4.6392 5.8793,4.2932 5.2933,3.7072 M18.0003,5.9992 L14.8853,5.9992 C15.3373,5.7642 15.7643,5.4782 16.1213,5.1212 C17.2903,3.9522 17.2903,2.0492 16.1203,0.8772 C14.9873,-0.2538 13.0133,-0.2548 11.8793,0.8782 C10.2423,2.5152 10.0213,5.5962 10.0013,5.9422 C10.0003,5.9622 10.0103,5.9802 10.0103,5.9992 L9.9893,5.9992 C9.9893,5.9802 9.9993,5.9622 9.9983,5.9422 C9.9783,5.5962 9.7573,2.5152 8.1203,0.8772 C6.9873,-0.2538 5.0123,-0.2538 3.8783,0.8792 C2.7093,2.0492 2.7093,3.9512 3.8783,5.1212 C4.2353,5.4782 4.6633,5.7642 5.1143,5.9992 L2.0003,5.9992 C0.8973,5.9992 0.0003,6.8962 0.0003,7.9992 L0.0003,10.9992 L9.0003,10.9992 L9.0003,6.9992 L11.0003,6.9992 L11.0003,10.9992 L20.0003,10.9992 L20.0003,7.9992 C20.0003,6.8962 19.1033,5.9992 18.0003,5.9992" id="Fill-170"></path>
            </g>
        </g>
    </g>
</svg>