<?xml version="1.0" encoding="UTF-8"?>
<svg width="18px" height="19px" viewBox="0 0 18 19" version="1.1" xmlns="http://www.w3.org/2000/svg" xmlns:xlink="http://www.w3.org/1999/xlink">
    <!-- Generator: Sketch 42 (36781) - http://www.bohemiancoding.com/sketch -->
    <title>Fill 19 + Fill 21</title>
    <desc>Created with Sketch.</desc>
    <defs></defs>
    <g id="Page-1" stroke="none" stroke-width="1" fill="none" fill-rule="evenodd">
        <g id="Solid-Icons" transform="translate(-51.000000, -3.000000)" fill="#757575">
            <g id="Fill-19-+-Fill-21" transform="translate(51.000000, 3.000000)">
                <polygon id="Fill-19" points="12 2.0005 12 0.0005 6 0.0005 6 2.0005 0 2.0005 0 4.0005 18 4.0005 18 2.0005"></polygon>
                <path d="M12,15 L10,15 L10,9 L12,9 L12,15 Z M8,15 L6,15 L6,9 L8,9 L8,15 Z M2,5 L2,17 C2,18.103 2.897,19 4,19 L14,19 C15.103,19 16,18.103 16,17 L16,5 L2,5 Z" id="Fill-21"></path>
            </g>
        </g>
    </g>
</svg>