<?xml version="1.0" encoding="UTF-8"?>
<svg width="24px" height="24px" viewBox="0 0 24 24" version="1.1" xmlns="http://www.w3.org/2000/svg" xmlns:xlink="http://www.w3.org/1999/xlink">
    <!-- Generator: Sketch 42 (36781) - http://www.bohemiancoding.com/sketch -->
    <title>Fill 118 + Fill 119</title>
    <desc>Created with Sketch.</desc>
    <defs></defs>
    <g id="Page-1" stroke="none" stroke-width="1" fill="none" fill-rule="evenodd">
        <g id="Solid-Icons" transform="translate(-192.000000, -192.000000)" fill="#757575">
            <g id="Fill-118-+-Fill-119" transform="translate(192.000000, 192.000000)">
                <path d="M15,7.0005 L2,7.0005 C0.897,7.0005 0,7.8975 0,9.0005 L0,18.0005 C0,19.1035 0.897,20.0005 2,20.0005 L3,20.0005 L3,24.0005 L8.333,20.0005 L15,20.0005 C16.103,20.0005 17,19.1035 17,18.0005 L17,9.0005 C17,7.8975 16.103,7.0005 15,7.0005" id="Fill-118"></path>
                <polygon id="Fill-119" points="21 3.0005 21 0.0005 19 0.0005 19 3.0005 16 3.0005 16 5.0005 19 5.0005 19 8.0005 21 8.0005 21 5.0005 24 5.0005 24 3.0005"></polygon>
            </g>
        </g>
    </g>
</svg>