<?xml version="1.0" encoding="UTF-8"?>
<svg width="17px" height="22px" viewBox="0 0 17 22" version="1.1" xmlns="http://www.w3.org/2000/svg" xmlns:xlink="http://www.w3.org/1999/xlink">
    <!-- Generator: Sketch 42 (36781) - http://www.bohemiancoding.com/sketch -->
    <title>Fill 633 + Fill 634</title>
    <desc>Created with Sketch.</desc>
    <defs></defs>
    <g id="Page-1" stroke="none" stroke-width="1" fill="none" fill-rule="evenodd">
        <g id="Solid-Icons" transform="translate(-388.000000, -1153.000000)" fill="#767676">
            <g id="Fill-633-+-Fill-634" transform="translate(387.000000, 1153.000000)">
                <path d="M9.7568,1.9683 C11.2358,1.9683 13.3798,2.3823 14.6468,2.6593 C13.5818,4.1713 11.7678,6.4673 10.5378,6.9273 C9.4778,7.3223 8.2778,6.9213 7.6008,6.0693 L11.2608,4.7033 L10.7368,3.2983 L7.0688,4.6663 C6.9938,3.4473 7.7818,1.9683 9.7568,1.9683 L9.7568,1.9683 Z M3.9638,7.4253 L6.1448,6.6113 C7.1508,8.2713 9.1948,9.0303 11.0628,8.3323 C13.3138,7.4913 16.1908,3.0793 16.5108,2.5793 L17.0738,1.7023 L16.0628,1.4473 C15.9048,1.4073 12.1518,0.4683 9.7568,0.4683 C6.7278,0.4683 5.2308,2.9913 5.6178,5.2073 L3.4388,6.0203 L3.9638,7.4253 Z" id="Fill-633"></path>
                <path d="M14.999,18 L11.999,18 L11.999,16 L14.999,16 L14.999,18 Z M3.999,14 L4.999,12 L12.999,12 L13.999,14 L3.999,14 Z M5.999,18 L2.999,18 L2.999,16 L5.999,16 L5.999,18 Z M14.274,10.553 C14.105,10.215 13.759,10 13.38,10 L4.617,10 C4.238,10 3.892,10.215 3.723,10.553 L1.104,15.79 C1.035,15.928 0.999,16.082 0.999,16.237 L0.999,19 C0.999,19.553 1.447,20 1.999,20 L2.999,20 L2.999,20.5 C2.999,21.329 3.671,22 4.499,22 C5.327,22 5.999,21.329 5.999,20.5 L5.999,20 L11.999,20 L11.999,20.5 C11.999,21.329 12.671,22 13.499,22 C14.327,22 14.999,21.329 14.999,20.5 L14.999,20 L15.999,20 C16.551,20 16.999,19.553 16.999,19 L16.999,16.237 C16.999,16.082 16.963,15.928 16.894,15.79 L14.274,10.553 Z" id="Fill-634"></path>
            </g>
        </g>
    </g>
</svg>