<?xml version="1.0" encoding="UTF-8"?>
<svg width="20px" height="15px" viewBox="0 0 20 15" version="1.1" xmlns="http://www.w3.org/2000/svg" xmlns:xlink="http://www.w3.org/1999/xlink">
    <!-- Generator: Sketch 42 (36781) - http://www.bohemiancoding.com/sketch -->
    <title>Fill 755 + Fill 756 + Fill 757</title>
    <desc>Created with Sketch.</desc>
    <defs></defs>
    <g id="Page-1" stroke="none" stroke-width="1" fill="none" fill-rule="evenodd">
        <g id="Solid-Icons" transform="translate(-290.000000, -1353.000000)" fill="#767676">
            <g id="Fill-755-+-Fill-756-+-Fill-757" transform="translate(289.000000, 1353.000000)">
                <path d="M16.8936,5.5523 C16.7246,5.2143 16.3776,5.0003 15.9986,5.0003 L4.9986,5.0003 C4.5396,5.0003 4.1406,5.3123 4.0286,5.7583 L3.4686,8.0003 L18.1176,8.0003 L16.8936,5.5523 Z" id="Fill-755"></path>
                <path d="M15.999,13.2505 C15.308,13.2505 14.749,12.6905 14.749,12.0005 C14.749,11.3115 15.308,10.7505 15.999,10.7505 C16.69,10.7505 17.249,11.3115 17.249,12.0005 C17.249,12.6905 16.69,13.2505 15.999,13.2505 M10.999,13.2505 C10.308,13.2505 9.749,12.6905 9.749,12.0005 C9.749,11.3115 10.308,10.7505 10.999,10.7505 C11.69,10.7505 12.249,11.3115 12.249,12.0005 C12.249,12.6905 11.69,13.2505 10.999,13.2505 M5.999,13.2505 C5.308,13.2505 4.749,12.6905 4.749,12.0005 C4.749,11.3115 5.308,10.7505 5.999,10.7505 C6.69,10.7505 7.249,11.3115 7.249,12.0005 C7.249,12.6905 6.69,13.2505 5.999,13.2505 M17.999,9.0005 L3.999,9.0005 C2.342,9.0005 0.999,10.3435 0.999,12.0005 C0.999,13.6575 2.342,15.0005 3.999,15.0005 L17.999,15.0005 C19.656,15.0005 20.999,13.6575 20.999,12.0005 C20.999,10.3435 19.656,9.0005 17.999,9.0005" id="Fill-756"></path>
                <path d="M18.999,0.0005 L18.999,1.0005 L14.076,1.0005 L13.928,0.6285 C13.775,0.2495 13.408,0.0005 12.999,0.0005 L7.999,0.0005 C7.59,0.0005 7.223,0.2495 7.07,0.6285 L5.722,4.0005 L15.276,4.0005 L14.877,3.0005 L18.999,3.0005 L18.999,4.0005 L20.999,4.0005 L20.999,0.0005 L18.999,0.0005 Z" id="Fill-757"></path>
            </g>
        </g>
    </g>
</svg>