<?xml version="1.0" encoding="UTF-8"?>
<svg width="20px" height="20px" viewBox="0 0 20 20" version="1.1" xmlns="http://www.w3.org/2000/svg" xmlns:xlink="http://www.w3.org/1999/xlink">
    <!-- Generator: Sketch 42 (36781) - http://www.bohemiancoding.com/sketch -->
    <title>Fill 393</title>
    <desc>Created with Sketch.</desc>
    <defs></defs>
    <g id="Page-1" stroke="none" stroke-width="1" fill="none" fill-rule="evenodd">
        <g id="Solid-Icons" transform="translate(-290.000000, -722.000000)" fill="#767676">
            <g id="Fill-393" transform="translate(290.000000, 722.000000)">
                <path d="M16,14.0054 C14.895,14.0054 14,13.1114 14,12.0054 C14,10.9004 14.895,10.0054 16,10.0054 C17.105,10.0054 18,10.9004 18,12.0054 C18,13.1114 17.105,14.0054 16,14.0054 L16,14.0054 Z M12,16.0054 L8,16.0054 L8,14.0054 L12,14.0054 L12,16.0054 Z M4,14.0054 C2.895,14.0054 2,13.1114 2,12.0054 C2,10.9004 2.895,10.0054 4,10.0054 C5.105,10.0054 6,10.9004 6,12.0054 C6,13.1114 5.105,14.0054 4,14.0054 L4,14.0054 Z M4,6.0054 L8,6.0054 L8,8.0054 L4,8.0054 L4,6.0054 Z M12,6.0054 L16,6.0054 L16,8.0054 L12,8.0054 L12,6.0054 Z M10,0.0054 C4.486,0.0054 0,4.4914 0,10.0054 C0,15.5204 4.486,20.0054 10,20.0054 C15.514,20.0054 20,15.5204 20,10.0054 C20,4.4914 15.514,0.0054 10,0.0054 L10,0.0054 Z"></path>
            </g>
        </g>
    </g>
</svg>