<?xml version="1.0" encoding="UTF-8"?>
<svg width="20px" height="17px" viewBox="0 0 20 17" version="1.1" xmlns="http://www.w3.org/2000/svg" xmlns:xlink="http://www.w3.org/1999/xlink">
    <!-- Generator: Sketch 42 (36781) - http://www.bohemiancoding.com/sketch -->
    <title>Fill 478 + Fill 479</title>
    <desc>Created with Sketch.</desc>
    <defs></defs>
    <g id="Page-1" stroke="none" stroke-width="1" fill="none" fill-rule="evenodd">
        <g id="Solid-Icons" transform="translate(-386.000000, -868.000000)" fill="#767676">
            <g id="Fill-478-+-Fill-479" transform="translate(386.000000, 868.000000)">
                <path d="M10,6.0005 C4.486,6.0005 0,10.4865 0,16.0005 C0,16.5525 0.448,17.0005 1,17.0005 L19,17.0005 C19.552,17.0005 20,16.5525 20,16.0005 C20,10.4865 15.514,6.0005 10,6.0005" id="Fill-478"></path>
                <path d="M10,5.0005 C13.109,5.0005 16.091,6.3365 18.181,8.6675 L19.67,7.3325 C17.969,5.4355 15.762,4.1135 13.354,3.4645 C13.749,3.0975 14,2.5805 14,2.0005 C14,0.8955 13.104,0.0005 12,0.0005 C10.896,0.0005 10,0.8955 10,2.0005 C10,2.3725 10.108,2.7175 10.286,3.0155 C10.19,3.0135 10.096,3.0005 10,3.0005 C9.904,3.0005 9.81,3.0135 9.714,3.0155 C9.892,2.7175 10,2.3725 10,2.0005 C10,0.8955 9.104,0.0005 8,0.0005 C6.896,0.0005 6,0.8955 6,2.0005 C6,2.5805 6.251,3.0975 6.646,3.4645 C4.238,4.1135 2.031,5.4355 0.33,7.3325 L1.819,8.6675 C3.909,6.3365 6.891,5.0005 10,5.0005" id="Fill-479"></path>
            </g>
        </g>
    </g>
</svg>