<?xml version="1.0" encoding="UTF-8"?>
<svg width="20px" height="20px" viewBox="0 0 20 20" version="1.1" xmlns="http://www.w3.org/2000/svg" xmlns:xlink="http://www.w3.org/1999/xlink">
    <!-- Generator: Sketch 42 (36781) - http://www.bohemiancoding.com/sketch -->
    <title>Fill 288 + Fill 289 + Fill 290</title>
    <desc>Created with Sketch.</desc>
    <defs></defs>
    <g id="Page-1" stroke="none" stroke-width="1" fill="none" fill-rule="evenodd">
        <g id="Solid-Icons" transform="translate(-242.000000, -530.000000)" fill="#767676">
            <g id="Fill-288-+-Fill-289-+-Fill-290" transform="translate(242.000000, 530.000000)">
                <path d="M6,12.0005 L2,12.0005 C0.897,12.0005 0,12.8985 0,14.0005 L0,18.0005 C0,19.1035 0.897,20.0005 2,20.0005 L6,20.0005 C7.103,20.0005 8,19.1035 8,18.0005 L8,14.0005 C8,12.8985 7.103,12.0005 6,12.0005" id="Fill-288"></path>
                <path d="M18,0.0005 L14,0.0005 C12.897,0.0005 12,0.8985 12,2.0005 L12,6.0005 C12,7.1035 12.897,8.0005 14,8.0005 L18,8.0005 C19.103,8.0005 20,7.1035 20,6.0005 L20,2.0005 C20,0.8985 19.103,0.0005 18,0.0005" id="Fill-289"></path>
                <polygon id="Fill-290" points="7.793 10.7935 9.207 12.2075 12.207 9.2075 10.793 7.7935"></polygon>
            </g>
        </g>
    </g>
</svg>