<?xml version="1.0" encoding="UTF-8"?>
<svg width="20px" height="16px" viewBox="0 0 20 16" version="1.1" xmlns="http://www.w3.org/2000/svg" xmlns:xlink="http://www.w3.org/1999/xlink">
    <!-- Generator: Sketch 42 (36781) - http://www.bohemiancoding.com/sketch -->
    <title>Fill 753 + Fill 754</title>
    <desc>Created with Sketch.</desc>
    <defs></defs>
    <g id="Page-1" stroke="none" stroke-width="1" fill="none" fill-rule="evenodd">
        <g id="Solid-Icons" transform="translate(-194.000000, -1348.000000)" fill="#767676">
            <g id="Fill-753-+-Fill-754" transform="translate(194.000000, 1348.000000)">
                <path d="M0,7.0005 L0,8.0005 C0,8.3795 0.214,8.7265 0.553,8.8955 L1.892,9.5655 L1.014,14.8365 C0.965,15.1265 1.047,15.4225 1.237,15.6475 C1.427,15.8715 1.706,16.0005 2,16.0005 L8,16.0005 L8,14.0005 L7.181,14.0005 L7.847,10.0005 L9,10.0005 L9,12.0005 L11,12.0005 L11,10.0005 L18,10.0005 C18.552,10.0005 19,9.5525 19,9.0005 L19,7.0005 L0,7.0005 Z" id="Fill-753"></path>
                <path d="M11,4 L5,4 L5,2 L11,2 L11,4 Z M19,3 L19,0 L17,0 L17,1 L5,1 L5,0 L3,0 L3,1 C1.346,1 0,2.346 0,4 L0,6 L19,6 L19,5 L20,5 L20,3 L19,3 Z" id="Fill-754"></path>
            </g>
        </g>
    </g>
</svg>