<?xml version="1.0" encoding="UTF-8"?>
<svg width="22px" height="18px" viewBox="0 0 22 18" version="1.1" xmlns="http://www.w3.org/2000/svg" xmlns:xlink="http://www.w3.org/1999/xlink">
    <!-- Generator: Sketch 42 (36781) - http://www.bohemiancoding.com/sketch -->
    <title>Fill 396 + Fill 397 + Fill 398</title>
    <desc>Created with Sketch.</desc>
    <defs></defs>
    <g id="Page-1" stroke="none" stroke-width="1" fill="none" fill-rule="evenodd">
        <g id="Solid-Icons" transform="translate(-49.000000, -770.000000)" fill="#767676">
            <g id="Fill-396-+-Fill-397-+-Fill-398" transform="translate(49.000000, 770.000000)">
                <path d="M21.4473,5.1109 L11.4473,0.1109 C11.1663,-0.0301 10.8343,-0.0301 10.5523,0.1109 L0.5523,5.1109 C0.3503,5.2119 0.1973,5.3849 0.1073,5.5739 C0.0463,5.6949 0.0003,5.9029 0.0003,6.0049 L0.0003,11.7699 C0.0003,12.3219 0.4473,12.7699 1.0003,12.7699 C1.5523,12.7699 2.0003,12.3219 2.0003,11.7699 L2.0003,7.1729 L11.0143,10.9279 L21.3713,6.9339 C21.7363,6.7879 21.9833,6.4409 21.9993,6.0469 C22.0153,5.6529 21.7993,5.2869 21.4473,5.1109" id="Fill-396"></path>
                <path d="M11,13.0054 C10.869,13.0054 10.738,12.9794 10.615,12.9284 L4,10.1724 L4,13.1864 C4,13.5644 4.214,13.9114 4.553,14.0804 C6.268,14.9384 8.035,15.9994 11,15.9994 C13.963,15.9994 15.735,14.9364 17.447,14.0804 C17.786,13.9114 18,13.5644 18,13.1864 L18,10.3844 L11.359,12.9394 C11.243,12.9834 11.122,13.0054 11,13.0054" id="Fill-397"></path>
                <path d="M1,14.0054 C0.448,14.0054 0,14.4534 0,15.0054 L0,17.0054 C0,17.5574 0.448,18.0054 1,18.0054 C1.552,18.0054 2,17.5574 2,17.0054 L2,15.0054 C2,14.4534 1.552,14.0054 1,14.0054" id="Fill-398"></path>
            </g>
        </g>
    </g>
</svg>