<?xml version="1.0" encoding="UTF-8"?>
<svg width="20px" height="20px" viewBox="0 0 20 20" version="1.1" xmlns="http://www.w3.org/2000/svg" xmlns:xlink="http://www.w3.org/1999/xlink">
    <!-- Generator: Sketch 42 (36781) - http://www.bohemiancoding.com/sketch -->
    <title>Fill 259</title>
    <desc>Created with Sketch.</desc>
    <defs></defs>
    <g id="Page-1" stroke="none" stroke-width="1" fill="none" fill-rule="evenodd">
        <g id="Solid-Icons" transform="translate(-290.000000, -482.000000)" fill="#757575">
            <g id="Fill-259" transform="translate(290.000000, 482.000000)">
                <path d="M15,11.0005 L11,11.0005 L11,15.0005 L9,15.0005 L9,11.0005 L5,11.0005 L5,9.0005 L9,9.0005 L9,5.0005 L11,5.0005 L11,9.0005 L15,9.0005 L15,11.0005 Z M10,0.0005 C4.486,0.0005 0,4.4865 0,10.0005 C0,15.5155 4.486,20.0005 10,20.0005 C15.514,20.0005 20,15.5155 20,10.0005 C20,4.4865 15.514,0.0005 10,0.0005 L10,0.0005 Z"></path>
            </g>
        </g>
    </g>
</svg>