<?xml version="1.0" encoding="UTF-8"?>
<svg width="16px" height="21px" viewBox="0 0 16 21" version="1.1" xmlns="http://www.w3.org/2000/svg" xmlns:xlink="http://www.w3.org/1999/xlink">
    <!-- Generator: Sketch 42 (36781) - http://www.bohemiancoding.com/sketch -->
    <title>Fill 108 + Fill 109</title>
    <desc>Created with Sketch.</desc>
    <defs></defs>
    <g id="Page-1" stroke="none" stroke-width="1" fill="none" fill-rule="evenodd">
        <g id="Solid-Icons" transform="translate(-52.000000, -195.000000)" fill="#757575">
            <g id="Fill-108-+-Fill-109" transform="translate(52.000000, 195.000000)">
                <path d="M11.5347,13.5513 L11.0257,13.3793 L7.9997,15.7333 L4.9737,13.3793 L4.4657,13.5513 C1.6697,14.4923 -0.0003,16.5293 -0.0003,19.0003 L-0.0003,21.0003 L15.9997,21.0003 L15.9997,19.0003 C15.9997,16.5293 14.3307,14.4923 11.5347,13.5513" id="Fill-108"></path>
                <path d="M8,10.0005 C6.721,10.0005 5.635,9.1925 5.204,8.0635 C5.25,8.0335 5.301,8.0115 5.347,7.9805 C6.652,7.1025 7.713,5.7085 8,4.0005 C8.285,5.6975 9.339,7.0965 10.653,7.9805 C10.699,8.0115 10.75,8.0335 10.796,8.0635 C10.366,9.1925 9.279,10.0005 8,10.0005 M1,8.0005 L1,10.0005 L4,10.0005 C4.912,11.2265 6.359,12.0005 8,12.0005 C9.641,12.0005 11.088,11.2265 12,10.0005 L15,10.0005 L15,8.0005 C15,-1.9995 1,-1.9995 1,8.0005" id="Fill-109"></path>
            </g>
        </g>
    </g>
</svg>