<?xml version="1.0" encoding="UTF-8"?>
<svg width="16px" height="21px" viewBox="0 0 16 21" version="1.1" xmlns="http://www.w3.org/2000/svg" xmlns:xlink="http://www.w3.org/1999/xlink">
    <!-- Generator: Sketch 42 (36781) - http://www.bohemiancoding.com/sketch -->
    <title>Fill 694 + Fill 695</title>
    <desc>Created with Sketch.</desc>
    <defs></defs>
    <g id="Page-1" stroke="none" stroke-width="1" fill="none" fill-rule="evenodd">
        <g id="Solid-Icons" transform="translate(-244.000000, -1250.000000)" fill="#767676">
            <g id="Fill-694-+-Fill-695" transform="translate(244.000000, 1250.000000)">
                <path d="M8.001,11.0044 C6.897,11.0044 6.001,11.9004 6.001,13.0044 L6.001,19.0044 C6.001,20.1084 6.897,21.0044 8.001,21.0044 C9.105,21.0044 10.001,20.1084 10.001,19.0044 L10.001,13.0044 C10.001,11.9004 9.105,11.0044 8.001,11.0044" id="Fill-694"></path>
                <path d="M8.001,2.0044 C8.829,2.0044 9.501,2.6764 9.501,3.5044 C9.501,4.3334 8.829,5.0044 8.001,5.0044 C7.173,5.0044 6.501,4.3334 6.501,3.5044 C6.501,2.6764 7.173,2.0044 8.001,2.0044 M11.595,4.0044 L16.001,4.0044 L16.001,2.0044 L12.001,2.0044 C12.001,1.0044 10.001,0.0044 8.001,0.0044 C6.001,0.0044 4.001,1.0044 4.001,2.0044 L0.001,2.0044 L0.001,4.0044 L4.407,4.0044 C4.716,4.8504 5.22,5.7204 5.972,6.3054 C3.096,7.1754 1.001,9.8444 1.001,13.0044 L1.001,17.0044 C1.001,17.5564 1.449,18.0044 2.001,18.0044 L5.001,18.0044 L5.001,12.0044 C5.001,10.9004 5.897,10.0044 7.001,10.0044 L9.001,10.0044 C10.105,10.0044 11.001,10.9004 11.001,12.0044 L11.001,18.0044 L14.001,18.0044 C14.553,18.0044 15.001,17.5564 15.001,17.0044 L15.001,13.0044 C15.001,9.8444 12.906,7.1754 10.03,6.3054 C10.782,5.7204 11.286,4.8504 11.595,4.0044" id="Fill-695"></path>
            </g>
        </g>
    </g>
</svg>