<?xml version="1.0" encoding="UTF-8"?>
<svg width="18px" height="20px" viewBox="0 0 18 20" version="1.1" xmlns="http://www.w3.org/2000/svg" xmlns:xlink="http://www.w3.org/1999/xlink">
    <!-- Generator: Sketch 42 (36781) - http://www.bohemiancoding.com/sketch -->
    <title>Fill 621 + Fill 622 + Fill 623</title>
    <desc>Created with Sketch.</desc>
    <defs></defs>
    <g id="Page-1" stroke="none" stroke-width="1" fill="none" fill-rule="evenodd">
        <g id="Solid-Icons" transform="translate(-243.000000, -1155.000000)" fill="#767676">
            <g id="Fill-621-+-Fill-622-+-Fill-623" transform="translate(243.000000, 1155.000000)">
                <path d="M6.0991,7.6978 C6.9761,6.6878 6.8681,5.1588 5.8581,4.2818 C4.8491,3.4058 0.6161,2.9368 0.6161,2.9368 C0.6161,2.9368 1.4661,6.8798 2.6851,7.9378 C3.6951,8.8138 5.2231,8.7058 6.0991,7.6978" id="Fill-621"></path>
                <path d="M9.9995,9.0711 C9.9995,8.7481 10.1015,8.3771 10.2845,7.9971 C11.6635,8.8921 13.5245,8.7221 14.7155,7.4981 C16.0705,6.1081 17.1025,0.0051 17.1025,0.0051 C17.1025,0.0051 11.3105,0.9121 9.6755,2.5921 C8.6755,3.6191 8.4355,5.0991 8.9345,6.3501 C8.3045,7.2701 7.9995,8.2461 7.9995,9.0711 L7.9995,12.0001 L9.9995,12.0001 L9.9995,9.0711 Z" id="Fill-622"></path>
                <path d="M14.6738,13.0005 L3.3248,13.0005 C3.0108,13.0005 2.7158,13.1485 2.5268,13.3985 C2.3378,13.6485 2.2778,13.9735 2.3638,14.2755 L3.7928,19.2755 C3.9148,19.7045 4.3068,20.0005 4.7538,20.0005 L13.2448,20.0005 C13.6918,20.0005 14.0838,19.7045 14.2068,19.2755 L15.6358,14.2755 C15.7218,13.9735 15.6608,13.6485 15.4718,13.3985 C15.2828,13.1485 14.9878,13.0005 14.6738,13.0005" id="Fill-623"></path>
            </g>
        </g>
    </g>
</svg>