<?xml version="1.0" encoding="UTF-8"?>
<svg width="20px" height="20px" viewBox="0 0 20 20" version="1.1" xmlns="http://www.w3.org/2000/svg" xmlns:xlink="http://www.w3.org/1999/xlink">
    <!-- Generator: Sketch 42 (36781) - http://www.bohemiancoding.com/sketch -->
    <title>Fill 813 + Fill 814</title>
    <desc>Created with Sketch.</desc>
    <defs></defs>
    <g id="Page-1" stroke="none" stroke-width="1" fill="none" fill-rule="evenodd">
        <g id="Solid-Icons" transform="translate(-386.000000, -1442.000000)" fill="#767676">
            <g id="Fill-813-+-Fill-814" transform="translate(386.000000, 1442.000000)">
                <path d="M13.001,4.0025 L7.001,4.0025 C6.449,4.0025 6.001,3.5555 6.001,3.0025 C6.001,2.4505 6.449,2.0025 7.001,2.0025 L13.001,2.0025 C13.553,2.0025 14.001,2.4505 14.001,3.0025 C14.001,3.5555 13.553,4.0025 13.001,4.0025 M10.001,0.0025 C7.655,0.0025 0.001,0.2195 0.001,3.0025 C0.001,5.7865 7.655,6.0025 10.001,6.0025 C12.347,6.0025 20.001,5.7865 20.001,3.0025 C20.001,0.2195 12.347,0.0025 10.001,0.0025" id="Fill-813"></path>
                <path d="M15.001,12.6226 C13.532,13.1966 11.769,13.4886 10.001,13.4886 C8.233,13.4886 6.47,13.1966 5.001,12.6226 L5.001,10.4316 C7.632,11.8446 12.37,11.8456 15.001,10.4336 L15.001,12.6226 Z M3.001,7.0586 L3.001,17.0026 C3.001,17.2676 3.106,17.5216 3.294,17.7096 C4.83,19.2456 7.415,20.0136 10.001,20.0136 C12.587,20.0136 15.173,19.2456 16.708,17.7096 C16.896,17.5216 17.001,17.2676 17.001,17.0026 L17.001,7.0586 C15.029,7.6496 12.617,8.0026 10.001,8.0026 C7.386,8.0026 4.973,7.6496 3.001,7.0586 L3.001,7.0586 Z" id="Fill-814"></path>
            </g>
        </g>
    </g>
</svg>