<?xml version="1.0" encoding="UTF-8"?>
<svg width="20px" height="19px" viewBox="0 0 20 19" version="1.1" xmlns="http://www.w3.org/2000/svg" xmlns:xlink="http://www.w3.org/1999/xlink">
    <!-- Generator: Sketch 42 (36781) - http://www.bohemiancoding.com/sketch -->
    <title>Fill 561 + Fill 562</title>
    <desc>Created with Sketch.</desc>
    <defs></defs>
    <g id="Page-1" stroke="none" stroke-width="1" fill="none" fill-rule="evenodd">
        <g id="Solid-Icons" transform="translate(-338.000000, -1010.000000)" fill="#767676">
            <g id="Fill-561-+-Fill-562" transform="translate(338.000000, 1010.000000)">
                <path d="M2.0029,7.0039 L18.0029,7.0039 C18.5549,7.0039 19.0029,6.5569 19.0029,6.0039 L19.0029,4.6539 C19.0029,4.2589 18.7709,3.9009 18.4089,3.7399 L10.4089,0.1849 C10.1499,0.0699 9.8559,0.0699 9.5969,0.1849 L1.5969,3.7399 C1.2359,3.9009 1.0029,4.2589 1.0029,4.6539 L1.0029,6.0039 C1.0029,6.5569 1.4509,7.0039 2.0029,7.0039" id="Fill-561"></path>
                <path d="M19.5645,16.6882 L19.2305,15.6882 C19.0945,15.2792 18.7125,15.0042 18.2825,15.0042 L17.0025,15.0042 L17.0025,8.0042 L15.0025,8.0042 L15.0025,15.0042 L13.0025,15.0042 L13.0025,8.0042 L11.0025,8.0042 L11.0025,15.0042 L9.0025,15.0042 L9.0025,8.0042 L7.0025,8.0042 L7.0025,15.0042 L5.0025,15.0042 L5.0025,8.0042 L3.0025,8.0042 L3.0025,15.0042 L1.7235,15.0042 C1.2935,15.0042 0.9115,15.2792 0.7745,15.6882 L0.4415,16.6882 C0.3395,16.9932 0.3915,17.3282 0.5795,17.5892 C0.7675,17.8502 1.0685,18.0042 1.3905,18.0042 L18.6155,18.0042 C18.9365,18.0042 19.2385,17.8502 19.4265,17.5892 C19.6145,17.3282 19.6655,16.9932 19.5645,16.6882" id="Fill-562"></path>
            </g>
        </g>
    </g>
</svg>