<?xml version="1.0" encoding="UTF-8"?>
<svg width="20px" height="21px" viewBox="0 0 20 21" version="1.1" xmlns="http://www.w3.org/2000/svg" xmlns:xlink="http://www.w3.org/1999/xlink">
    <!-- Generator: Sketch 42 (36781) - http://www.bohemiancoding.com/sketch -->
    <title>Fill 606</title>
    <desc>Created with Sketch.</desc>
    <defs></defs>
    <g id="Page-1" stroke="none" stroke-width="1" fill="none" fill-rule="evenodd">
        <g id="Solid-Icons" transform="translate(-2.000000, -1105.000000)" fill="#767676">
            <g id="Fill-606" transform="translate(2.000000, 1105.000000)">
                <path d="M19.8472,19.4702 L10.9032,6.4392 L13.8572,1.5152 L12.1422,0.4862 L9.9992,4.0562 L7.8572,0.4862 L6.1422,1.5152 L9.0962,6.4382 L0.1512,19.4702 C-0.0408,19.7792 -0.0508,20.1672 0.1252,20.4852 C0.3012,20.8032 0.6362,21.0002 0.9992,21.0002 L6.9992,21.0002 L6.9992,19.0002 C6.9992,17.3442 8.3432,16.0002 9.9992,16.0002 C11.6562,16.0002 12.9992,17.3442 12.9992,19.0002 L12.9992,21.0002 L18.9992,21.0002 C19.3632,21.0002 19.6982,20.8032 19.8742,20.4852 C20.0502,20.1672 20.0402,19.7792 19.8472,19.4702"></path>
            </g>
        </g>
    </g>
</svg>