<?xml version="1.0" encoding="UTF-8"?>
<svg width="20px" height="20px" viewBox="0 0 20 20" version="1.1" xmlns="http://www.w3.org/2000/svg" xmlns:xlink="http://www.w3.org/1999/xlink">
    <!-- Generator: Sketch 42 (36781) - http://www.bohemiancoding.com/sketch -->
    <title>Fill 388</title>
    <desc>Created with Sketch.</desc>
    <defs></defs>
    <g id="Page-1" stroke="none" stroke-width="1" fill="none" fill-rule="evenodd">
        <g id="Solid-Icons" transform="translate(-146.000000, -722.000000)" fill="#767676">
            <g id="Fill-388" transform="translate(146.000000, 722.000000)">
                <path d="M16,12.0025 C16,14.6195 13.14,17.0025 10,17.0025 C6.86,17.0025 4,14.6195 4,12.0025 L4,11.0025 L16,11.0025 L16,12.0025 Z M6,4.0025 L8,4.0025 L8,8.0025 L6,8.0025 L6,4.0025 Z M12,4.0025 L14,4.0025 L14,8.0025 L12,8.0025 L12,4.0025 Z M10,0.0025 C4.477,0.0025 0,4.4795 0,10.0025 C0,15.5235 4.477,20.0025 10,20.0025 C15.523,20.0025 20,15.5235 20,10.0025 C20,4.4795 15.523,0.0025 10,0.0025 L10,0.0025 Z"></path>
            </g>
        </g>
    </g>
</svg>