<?xml version="1.0" encoding="UTF-8"?>
<svg width="20px" height="20px" viewBox="0 0 20 20" version="1.1" xmlns="http://www.w3.org/2000/svg" xmlns:xlink="http://www.w3.org/1999/xlink">
    <!-- Generator: Sketch 42 (36781) - http://www.bohemiancoding.com/sketch -->
    <title>Fill 391</title>
    <desc>Created with Sketch.</desc>
    <defs></defs>
    <g id="Page-1" stroke="none" stroke-width="1" fill="none" fill-rule="evenodd">
        <g id="Solid-Icons" transform="translate(-338.000000, -722.000000)" fill="#767676">
            <g id="Fill-391" transform="translate(338.000000, 722.000000)">
                <path d="M17,7.0025 L13.5,7.0025 C13.224,7.0025 13,7.2265 13,7.5025 C13,7.7785 13.224,8.0025 13.5,8.0025 L14.5,8.0025 C15.878,8.0025 17,9.1235 17,10.5025 C17,11.7085 16.14,12.7195 15,12.9515 L15,14.0025 L13,14.0025 L13,13.0025 L11,13.0025 L11,11.0025 L14.5,11.0025 C14.776,11.0025 15,10.7785 15,10.5025 C15,10.2265 14.776,10.0025 14.5,10.0025 L13.5,10.0025 C12.122,10.0025 11,8.8805 11,7.5025 C11,6.2945 11.86,5.2855 13,5.0535 L13,4.0025 L15,4.0025 L15,5.0025 L17,5.0025 L17,7.0025 Z M12,17.0025 L8,17.0025 L8,15.0025 L12,15.0025 L12,17.0025 Z M7,14.0025 L5,14.0025 L5,13.0025 L3,13.0025 L3,11.0025 L6.5,11.0025 C6.776,11.0025 7,10.7785 7,10.5025 C7,10.2265 6.776,10.0025 6.5,10.0025 L5.5,10.0025 C4.122,10.0025 3,8.8805 3,7.5025 C3,6.2945 3.86,5.2855 5,5.0535 L5,4.0025 L7,4.0025 L7,5.0025 L9,5.0025 L9,7.0025 L5.5,7.0025 C5.224,7.0025 5,7.2265 5,7.5025 C5,7.7785 5.224,8.0025 5.5,8.0025 L6.5,8.0025 C7.878,8.0025 9,9.1235 9,10.5025 C9,11.7085 8.14,12.7195 7,12.9515 L7,14.0025 Z M10,0.0025 C4.478,0.0025 0,4.4795 0,10.0025 C0,15.5235 4.478,20.0025 10,20.0025 C15.522,20.0025 20,15.5235 20,10.0025 C20,4.4795 15.522,0.0025 10,0.0025 L10,0.0025 Z"></path>
            </g>
        </g>
    </g>
</svg>