<?xml version="1.0" encoding="UTF-8"?>
<svg width="17px" height="20px" viewBox="0 0 17 20" version="1.1" xmlns="http://www.w3.org/2000/svg" xmlns:xlink="http://www.w3.org/1999/xlink">
    <!-- Generator: Sketch 42 (36781) - http://www.bohemiancoding.com/sketch -->
    <title>Fill 136 + Fill 137</title>
    <desc>Created with Sketch.</desc>
    <defs></defs>
    <g id="Page-1" stroke="none" stroke-width="1" fill="none" fill-rule="evenodd">
        <g id="Solid-Icons" transform="translate(-292.000000, -242.000000)" fill="#757575">
            <g id="Fill-136-+-Fill-137" transform="translate(292.000000, 242.000000)">
                <path d="M11.4404,15.6196 L10.0374,14.5926 L10.0374,16.0006 L2.0374,16.0006 L2.0374,4.0006 L10.0374,4.0006 L10.0374,6.3566 L12.0374,3.6256 L12.0374,2.0006 C12.0374,0.8956 11.1414,0.0006 10.0374,0.0006 L2.0374,0.0006 C0.9324,0.0006 0.0374,0.8956 0.0374,2.0006 L0.0374,18.0006 C0.0374,19.1046 0.9324,20.0006 2.0374,20.0006 L10.0374,20.0006 C11.1414,20.0006 12.0374,19.1046 12.0374,18.0006 L12.0374,14.8046 L11.4404,15.6196 Z" id="Fill-136"></path>
                <polygon id="Fill-137" points="10.2437 13.2612 5.2727 9.5322 6.7727 7.5322 9.8017 9.8042 15.0447 3.2212 16.9997 4.7792"></polygon>
            </g>
        </g>
    </g>
</svg>