<?xml version="1.0" encoding="UTF-8"?>
<svg width="14px" height="20px" viewBox="0 0 14 20" version="1.1" xmlns="http://www.w3.org/2000/svg" xmlns:xlink="http://www.w3.org/1999/xlink">
    <!-- Generator: Sketch 42 (36781) - http://www.bohemiancoding.com/sketch -->
    <title>Fill 613 + Fill 614 + Fill 615</title>
    <desc>Created with Sketch.</desc>
    <defs></defs>
    <g id="Page-1" stroke="none" stroke-width="1" fill="none" fill-rule="evenodd">
        <g id="Solid-Icons" transform="translate(-55.000000, -1154.000000)" fill="#767676">
            <g id="Fill-613-+-Fill-614-+-Fill-615" transform="translate(55.000000, 1154.000000)">
                <polygon id="Fill-613" points="5.004 0 0.004 0 0.004 4 5.004 4"></polygon>
                <polygon id="Fill-614" points="0.004 20 5.004 20 5.004 15 0.004 15"></polygon>
                <path d="M8.9355,11.2285 C8.5575,11.2665 8.1955,11.3305 7.8465,11.4065 C8.5025,10.9785 9.1855,10.4565 9.8225,9.8195 C12.1655,7.4755 13.0035,4.5145 13.0035,4.5145 C13.0035,4.5145 10.0435,5.3545 7.7005,7.6975 C6.3315,9.0665 5.4785,10.6435 5.0035,11.7195 L5.0035,6.0005 L0.0035,6.0005 L0.0035,13.0005 L4.2175,13.0005 C4.6745,13.1815 6.7725,13.9415 9.1835,13.6985 C11.9125,13.4245 13.9995,11.9665 13.9995,11.9665 C13.9995,11.9665 11.6645,10.9545 8.9355,11.2285" id="Fill-615"></path>
            </g>
        </g>
    </g>
</svg>