<?xml version="1.0" encoding="UTF-8"?>
<svg width="16px" height="24px" viewBox="0 0 16 24" version="1.1" xmlns="http://www.w3.org/2000/svg" xmlns:xlink="http://www.w3.org/1999/xlink">
    <!-- Generator: Sketch 42 (36781) - http://www.bohemiancoding.com/sketch -->
    <title>Fill 105 + Fill 106 + Fill 107</title>
    <desc>Created with Sketch.</desc>
    <defs></defs>
    <g id="Page-1" stroke="none" stroke-width="1" fill="none" fill-rule="evenodd">
        <g id="Solid-Icons" transform="translate(-4.000000, -192.000000)" fill="#757575">
            <g id="Fill-105-+-Fill-106-+-Fill-107" transform="translate(4.000000, 192.000000)">
                <path d="M8,13.0005 C6.346,13.0005 5,11.6545 5,10.0005 L11,10.0005 C11,11.6545 9.654,13.0005 8,13.0005 M14,2.0005 C14,0.8965 13.105,0.0005 12,0.0005 C10.896,0.0005 10,0.8965 10,2.0005 C10,0.8965 9.105,0.0005 8,0.0005 C6.896,0.0005 6,0.8965 6,2.0005 C6,0.8965 5.105,0.0005 4,0.0005 C2.896,0.0005 2,0.8965 2,2.0005 C2,2.1575 2.023,2.3095 2.057,2.4565 L3,10.0005 C3,12.7575 5.243,15.0005 8,15.0005 C10.757,15.0005 13,12.7575 13,10.0005 L13.943,2.4565 C13.978,2.3095 14,2.1575 14,2.0005" id="Fill-105"></path>
                <path d="M4,16.7056 C1.532,17.6796 0,19.5916 0,22.0006 L0,24.0006 L4,24.0006 L4,16.7056 Z" id="Fill-106"></path>
                <path d="M8,20.0005 C7.448,20.0005 7,19.5535 7,19.0005 C7,18.4485 7.448,18.0005 8,18.0005 C8.552,18.0005 9,18.4485 9,19.0005 C9,19.5535 8.552,20.0005 8,20.0005 M8,16.0005 C6.915,16.0005 5.911,16.1365 5,16.3815 L5,24.0005 L16,24.0005 L16,22.0005 C16,18.4675 12.71,16.0005 8,16.0005" id="Fill-107"></path>
            </g>
        </g>
    </g>
</svg>