<?xml version="1.0" encoding="UTF-8"?>
<svg width="16px" height="20px" viewBox="0 0 16 20" version="1.1" xmlns="http://www.w3.org/2000/svg" xmlns:xlink="http://www.w3.org/1999/xlink">
    <!-- Generator: Sketch 42 (36781) - http://www.bohemiancoding.com/sketch -->
    <title>Fill 532</title>
    <desc>Created with Sketch.</desc>
    <defs></defs>
    <g id="Page-1" stroke="none" stroke-width="1" fill="none" fill-rule="evenodd">
        <g id="Solid-Icons" transform="translate(-292.000000, -962.000000)" fill="#767676">
            <g id="Fill-532" transform="translate(292.000000, 962.000000)">
                <path d="M12.2427,10.8298 L10.8277,12.2438 L7.9997,9.4168 L5.1727,12.2438 L3.7577,10.8298 L6.5857,8.0018 L3.7577,5.1738 L5.1727,3.7598 L7.9997,6.5878 L10.8277,3.7598 L12.2427,5.1738 L9.4147,8.0018 L12.2427,10.8298 Z M8.0007,0.0018 C3.5827,0.0018 0.0007,3.5838 0.0007,8.0018 C0.0007,12.4198 8.0007,20.0018 8.0007,20.0018 C8.0007,20.0018 16.0007,12.4198 16.0007,8.0018 C16.0007,3.5838 12.4187,0.0018 8.0007,0.0018 L8.0007,0.0018 Z"></path>
            </g>
        </g>
    </g>
</svg>