<?xml version="1.0" encoding="UTF-8"?>
<svg width="21px" height="18px" viewBox="0 0 21 18" version="1.1" xmlns="http://www.w3.org/2000/svg" xmlns:xlink="http://www.w3.org/1999/xlink">
    <!-- Generator: Sketch 42 (36781) - http://www.bohemiancoding.com/sketch -->
    <title>Fill 353</title>
    <desc>Created with Sketch.</desc>
    <defs></defs>
    <g id="Page-1" stroke="none" stroke-width="1" fill="none" fill-rule="evenodd">
        <g id="Solid-Icons" transform="translate(-1.000000, -627.000000)" fill="#767676">
            <g id="Fill-353" transform="translate(1.000000, 627.000000)">
                <path d="M19,4.003 L17,4.003 L17,2.003 L19,2.003 L19,4.003 Z M19,16.003 L17,16.003 L17,14.003 L19,14.003 L19,16.003 Z M14,4.003 L12,4.003 L12,2.003 L14,2.003 L14,4.003 Z M8,12.003 L8,6.003 L14,9.003 L8,12.003 Z M14,16.003 L12,16.003 L12,14.003 L14,14.003 L14,16.003 Z M9,16.003 L7,16.003 L7,14.003 L9,14.003 L9,16.003 Z M4,4.003 L2,4.003 L2,2.003 L4,2.003 L4,4.003 Z M4,16.003 L2,16.003 L2,14.003 L4,14.003 L4,16.003 Z M7,2.003 L9,2.003 L9,4.003 L7,4.003 L7,2.003 Z M19,0.003 L2,0.003 C0.896,0.003 0,0.899 0,2.003 L0,16.003 C0,17.108 0.896,18.003 2,18.003 L19,18.003 C20.105,18.003 21,17.108 21,16.003 L21,2.003 C21,0.899 20.105,0.003 19,0.003 L19,0.003 Z"></path>
            </g>
        </g>
    </g>
</svg>