<?xml version="1.0" encoding="UTF-8"?>
<svg width="18px" height="18px" viewBox="0 0 18 18" version="1.1" xmlns="http://www.w3.org/2000/svg" xmlns:xlink="http://www.w3.org/1999/xlink">
    <!-- Generator: Sketch 42 (36781) - http://www.bohemiancoding.com/sketch -->
    <title>Fill 214</title>
    <desc>Created with Sketch.</desc>
    <defs></defs>
    <g id="Page-1" stroke="none" stroke-width="1" fill="none" fill-rule="evenodd">
        <g id="Solid-Icons" transform="translate(-243.000000, -339.000000)" fill="#757575">
            <g id="Fill-214" transform="translate(243.000000, 339.000000)">
                <path d="M16,4.0005 L13,4.0005 L13,2.0005 L15,2.0005 C15.551,2.0005 16,2.4485 16,3.0005 L16,4.0005 Z M14,15.0005 L12,15.0005 L12,9.6195 L10.553,10.3425 L9.658,8.5535 L12.553,7.1065 C12.862,6.9515 13.231,6.9675 13.526,7.1505 C13.82,7.3325 14,7.6535 14,8.0005 L14,15.0005 Z M9,12.0005 L7,12.0005 L7,14.0005 L5,14.0005 L5,12.0005 L3,12.0005 L3,10.0005 L5,10.0005 L5,8.0005 L7,8.0005 L7,10.0005 L9,10.0005 L9,12.0005 Z M2,3.0005 C2,2.4485 2.449,2.0005 3,2.0005 L5,2.0005 L5,4.0005 L2,4.0005 L2,3.0005 Z M7,2.0005 L11,2.0005 L11,4.0005 L7,4.0005 L7,2.0005 Z M15,0.0005 L3,0.0005 C1.346,0.0005 0,1.3465 0,3.0005 L0,16.0005 C0,17.1035 0.897,18.0005 2,18.0005 L16,18.0005 C17.103,18.0005 18,17.1035 18,16.0005 L18,3.0005 C18,1.3465 16.654,0.0005 15,0.0005 L15,0.0005 Z"></path>
            </g>
        </g>
    </g>
</svg>