<?xml version="1.0" encoding="UTF-8"?>
<svg width="20px" height="17px" viewBox="0 0 20 17" version="1.1" xmlns="http://www.w3.org/2000/svg" xmlns:xlink="http://www.w3.org/1999/xlink">
    <!-- Generator: Sketch 42 (36781) - http://www.bohemiancoding.com/sketch -->
    <title>Fill 874</title>
    <desc>Created with Sketch.</desc>
    <defs></defs>
    <g id="Page-1" stroke="none" stroke-width="1" fill="none" fill-rule="evenodd">
        <g id="Solid-Icons" transform="translate(-290.000000, -1588.000000)" fill="#757575">
            <g id="Fill-874" transform="translate(290.000000, 1588.000000)">
                <path d="M14,11.0005 L11,11.0005 L11,14.0005 L9,14.0005 L9,11.0005 L6,11.0005 L6,9.0005 L9,9.0005 L9,6.0005 L11,6.0005 L11,9.0005 L14,9.0005 L14,11.0005 Z M18,3.0005 L10,3.0005 L8.553,1.1065 C8.214,0.4285 7.522,0.0005 6.764,0.0005 L1,0.0005 C0.447,0.0005 0,0.4475 0,1.0005 L0,15.0005 C0,16.1045 0.896,17.0005 2,17.0005 L18,17.0005 C19.104,17.0005 20,16.1045 20,15.0005 L20,5.0005 C20,3.8955 19.104,3.0005 18,3.0005 L18,3.0005 Z"></path>
            </g>
        </g>
    </g>
</svg>