<?xml version="1.0" encoding="UTF-8"?>
<svg width="22px" height="20px" viewBox="0 0 22 20" version="1.1" xmlns="http://www.w3.org/2000/svg" xmlns:xlink="http://www.w3.org/1999/xlink">
    <!-- Generator: Sketch 42 (36781) - http://www.bohemiancoding.com/sketch -->
    <title>Fill 687 + Fill 688 + Fill 689</title>
    <desc>Created with Sketch.</desc>
    <defs></defs>
    <g id="Page-1" stroke="none" stroke-width="1" fill="none" fill-rule="evenodd">
        <g id="Solid-Icons" transform="translate(-1.000000, -1251.000000)" fill="#767676">
            <g id="Fill-687-+-Fill-688-+-Fill-689" transform="translate(1.000000, 1251.000000)">
                <path d="M14.001,14.5044 C14.001,13.6764 14.673,13.0044 15.501,13.0044 C16.329,13.0044 17.001,13.6764 17.001,14.5044 C17.001,15.3324 16.329,16.0044 15.501,16.0044 C14.673,16.0044 14.001,15.3324 14.001,14.5044 L14.001,14.5044 Z M6.501,16.0044 C5.673,16.0044 5.001,15.3324 5.001,14.5044 C5.001,13.6764 5.673,13.0044 6.501,13.0044 C7.329,13.0044 8.001,13.6764 8.001,14.5044 C8.001,15.3324 7.329,16.0044 6.501,16.0044 L6.501,16.0044 Z M5.001,4.0044 L17.001,4.0044 L17.001,11.0044 L5.001,11.0044 L5.001,4.0044 Z M17.001,0.0044 L5.001,0.0044 C3.896,0.0044 3.001,0.9004 3.001,2.0044 L3.001,18.0044 C3.001,19.1084 3.896,20.0044 5.001,20.0044 C6.105,20.0044 7.001,19.1084 7.001,18.0044 L15.001,18.0044 C15.001,19.1084 15.896,20.0044 17.001,20.0044 C18.105,20.0044 19.001,19.1084 19.001,18.0044 L19.001,2.0044 C19.001,0.9004 18.105,0.0044 17.001,0.0044 L17.001,0.0044 Z" id="Fill-687"></path>
                <polygon id="Fill-688" points="20.001 9.004 22.001 9.004 22.001 5.004 20.001 5.004"></polygon>
                <polygon id="Fill-689" points="0.001 9.004 2.001 9.004 2.001 5.004 0.001 5.004"></polygon>
            </g>
        </g>
    </g>
</svg>