<?xml version="1.0" encoding="UTF-8"?>
<svg width="24px" height="19px" viewBox="0 0 24 19" version="1.1" xmlns="http://www.w3.org/2000/svg" xmlns:xlink="http://www.w3.org/1999/xlink">
    <!-- Generator: Sketch 42 (36781) - http://www.bohemiancoding.com/sketch -->
    <title>Fill 401 + Fill 402 + Fill 403</title>
    <desc>Created with Sketch.</desc>
    <defs></defs>
    <g id="Page-1" stroke="none" stroke-width="1" fill="none" fill-rule="evenodd">
        <g id="Solid-Icons" transform="translate(-96.000000, -819.000000)" fill="#767676">
            <g id="Fill-401-+-Fill-402-+-Fill-403" transform="translate(96.000000, 819.000000)">
                <path d="M9.8569,3.002 L12.1429,3.002 L11.2859,6.002 L8.9999,6.002 L9.8569,3.002 Z M6.9999,9.002 L16.9999,9.002 C17.3139,9.002 17.6099,8.855 17.7979,8.604 C17.9869,8.354 18.0479,8.029 17.9609,7.728 L15.9609,0.728 C15.8389,0.299 15.4459,0.002 14.9999,0.002 L8.9999,0.002 C8.5539,0.002 8.1609,0.299 8.0389,0.728 L6.0389,7.728 C5.9519,8.029 6.0129,8.354 6.2019,8.604 C6.3909,8.855 6.6859,9.002 6.9999,9.002 L6.9999,9.002 Z" id="Fill-401"></path>
                <path d="M6.1431,16.002 L3.8571,16.002 L4.7141,13.002 L7.0001,13.002 L6.1431,16.002 Z M9.9611,10.728 C9.8391,10.299 9.4461,10.002 9.0001,10.002 L3.0001,10.002 C2.5541,10.002 2.1611,10.299 2.0391,10.728 L0.0391,17.728 C-0.0479,18.029 0.0131,18.354 0.2021,18.604 C0.3901,18.855 0.6861,19.002 1.0001,19.002 L11.0001,19.002 C11.3141,19.002 11.6091,18.855 11.7981,18.604 C11.9871,18.354 12.0481,18.029 11.9611,17.728 L9.9611,10.728 Z" id="Fill-402"></path>
                <path d="M18.2856,16.002 L15.9996,16.002 L16.8566,13.002 L19.1426,13.002 L18.2856,16.002 Z M23.9616,17.728 L21.9616,10.728 C21.8386,10.299 21.4466,10.002 20.9996,10.002 L14.9996,10.002 C14.5536,10.002 14.1616,10.299 14.0386,10.728 L12.0386,17.728 C11.9526,18.029 12.0126,18.354 12.2016,18.604 C12.3906,18.855 12.6856,19.002 12.9996,19.002 L22.9996,19.002 C23.3136,19.002 23.6096,18.855 23.7986,18.604 C23.9876,18.354 24.0476,18.029 23.9616,17.728 L23.9616,17.728 Z" id="Fill-403"></path>
            </g>
        </g>
    </g>
</svg>