<?xml version="1.0" encoding="UTF-8"?>
<svg width="24px" height="24px" viewBox="0 0 24 24" version="1.1" xmlns="http://www.w3.org/2000/svg" xmlns:xlink="http://www.w3.org/1999/xlink">
    <!-- Generator: Sketch 42 (36781) - http://www.bohemiancoding.com/sketch -->
    <title>Fill 74 + Fill 75 + Fill 76</title>
    <desc>Created with Sketch.</desc>
    <defs></defs>
    <g id="Page-1" stroke="none" stroke-width="1" fill="none" fill-rule="evenodd">
        <g id="Solid-Icons" transform="translate(-336.000000, -96.000000)" fill="#757575">
            <g id="Fill-74-+-Fill-75-+-Fill-76" transform="translate(336.000000, 95.000000)">
                <path d="M15.7705,14.6792 L8.5815,19.8142 C8.4075,19.9382 8.2035,20.0002 7.9995,20.0002 C7.7965,20.0002 7.5925,19.9382 7.4185,19.8142 L0.0545,14.5542 C0.0215,14.6982 -0.0005,14.8472 -0.0005,15.0002 L-0.0005,23.0002 C-0.0005,24.1032 0.8965,25.0002 1.9995,25.0002 L13.9995,25.0002 C15.1025,25.0002 15.9995,24.1032 15.9995,23.0002 L15.9995,15.0002 C15.9995,14.9082 15.9845,14.8202 15.9725,14.7312 C15.9055,14.7152 15.8365,14.6982 15.7705,14.6792" id="Fill-74"></path>
                <path d="M8,17.771 L13.67,13.721 C13.335,13.504 13.019,13.263 12.721,13 L2,13 C1.806,13 1.622,13.038 1.445,13.088 L8,17.771 Z" id="Fill-75"></path>
                <path d="M21,7.9854 L17,7.9854 L17,2.9854 L19,2.9854 L19,5.9854 L21,5.9854 L21,7.9854 Z M18,0.9854 C14.691,0.9854 12,3.6774 12,6.9854 C12,10.2924 14.691,12.9854 18,12.9854 C21.309,12.9854 24,10.2924 24,6.9854 C24,3.6774 21.309,0.9854 18,0.9854 L18,0.9854 Z" id="Fill-76"></path>
            </g>
        </g>
    </g>
</svg>