<?xml version="1.0" encoding="UTF-8"?>
<svg width="20px" height="20px" viewBox="0 0 20 20" version="1.1" xmlns="http://www.w3.org/2000/svg" xmlns:xlink="http://www.w3.org/1999/xlink">
    <!-- Generator: Sketch 42 (36781) - http://www.bohemiancoding.com/sketch -->
    <title>Fill 480 + Fill 481</title>
    <desc>Created with Sketch.</desc>
    <defs></defs>
    <g id="Page-1" stroke="none" stroke-width="1" fill="none" fill-rule="evenodd">
        <g id="Solid-Icons" transform="translate(-434.000000, -866.000000)" fill="#B4B4B4">
            <g id="Fill-480-+-Fill-481" transform="translate(434.000000, 866.000000)">
                <path d="M2.0859,3.0005 C2.5619,2.5955 4.2159,2.0005 5.9999,2.0005 C7.7839,2.0005 9.4379,2.5955 9.9139,3.0005 L11.9999,3.0005 C11.9999,0.7575 7.8789,0.0005 5.9999,0.0005 C4.1209,0.0005 -0.0001,0.7575 -0.0001,3.0005 L-0.0001,15.0005 C-0.0001,17.2455 4.1209,18.0005 5.9999,18.0005 C6.2869,18.0005 6.6309,17.9795 6.9999,17.9425 L6.9999,15.9345 C6.6749,15.9745 6.3419,16.0005 5.9999,16.0005 C4.0839,16.0005 2.3179,15.3165 1.9999,14.9145 L1.9999,14.2215 C3.3199,14.7765 4.9859,15.0005 5.9999,15.0005 C6.2879,15.0005 6.6309,14.9795 6.9999,14.9425 L6.9999,12.9345 C6.6749,12.9745 6.3419,13.0005 5.9999,13.0005 C4.0639,13.0005 2.2909,12.3035 1.9999,11.9025 L1.9999,11.2215 C3.3199,11.7765 4.9859,12.0005 5.9999,12.0005 C6.2879,12.0005 6.6309,11.9795 6.9999,11.9425 L6.9999,9.9345 C6.6749,9.9745 6.3419,10.0005 5.9999,10.0005 C4.0639,10.0005 2.2909,9.3035 1.9999,8.9025 L1.9999,8.2215 C3.3199,8.7765 4.9859,9.0005 5.9999,9.0005 C6.2879,9.0005 6.6309,8.9795 6.9999,8.9425 L6.9999,6.9345 C6.6749,6.9745 6.3419,7.0005 5.9999,7.0005 C4.0639,7.0005 2.2909,6.3035 1.9999,5.9025 L1.9999,5.2215 C3.3199,5.7765 4.9859,6.0005 5.9999,6.0005 C6.2879,6.0005 6.6309,5.9795 6.9999,5.9425 L6.9999,3.9355 C6.6749,3.9745 6.3419,4.0005 5.9999,4.0005 C4.2159,4.0005 2.5619,3.4075 2.0859,3.0005" id="Fill-480"></path>
                <path d="M14,18.0005 C12.084,18.0005 10.318,17.3165 10,16.9145 L10,16.2215 C11.32,16.7765 12.985,17.0005 14,17.0005 C15.015,17.0005 16.68,16.7765 18,16.2215 L18,16.9145 C17.682,17.3165 15.916,18.0005 14,18.0005 L14,18.0005 Z M14,7.0005 C15.784,7.0005 17.438,7.5955 17.914,8.0005 C17.438,8.4075 15.784,9.0005 14,9.0005 C12.216,9.0005 10.562,8.4075 10.086,8.0005 C10.562,7.5955 12.216,7.0005 14,7.0005 L14,7.0005 Z M18,13.9025 C17.71,14.3035 15.936,15.0005 14,15.0005 C12.064,15.0005 10.29,14.3035 10,13.9025 L10,13.2215 C11.32,13.7765 12.985,14.0005 14,14.0005 C15.015,14.0005 16.68,13.7765 18,13.2215 L18,13.9025 Z M18,10.9025 C17.71,11.3035 15.936,12.0005 14,12.0005 C12.064,12.0005 10.29,11.3035 10,10.9025 L10,10.2215 C11.32,10.7765 12.985,11.0005 14,11.0005 C15.015,11.0005 16.68,10.7765 18,10.2215 L18,10.9025 Z M14,5.0005 C12.121,5.0005 8,5.7575 8,8.0005 L8,17.0005 C8,19.2455 12.121,20.0005 14,20.0005 C15.879,20.0005 20,19.2455 20,17.0005 L20,8.0005 C20,5.7575 15.879,5.0005 14,5.0005 L14,5.0005 Z" id="Fill-481"></path>
            </g>
        </g>
    </g>
</svg>