<?xml version="1.0" encoding="UTF-8"?>
<svg width="20px" height="21px" viewBox="0 0 20 21" version="1.1" xmlns="http://www.w3.org/2000/svg" xmlns:xlink="http://www.w3.org/1999/xlink">
    <!-- Generator: Sketch 42 (36781) - http://www.bohemiancoding.com/sketch -->
    <title>Fill 538 + Fill 539 + Fill 540</title>
    <desc>Created with Sketch.</desc>
    <defs></defs>
    <g id="Page-1" stroke="none" stroke-width="1" fill="none" fill-rule="evenodd">
        <g id="Solid-Icons" transform="translate(-290.000000, -1010.000000)" fill="#B4B4B4">
            <g id="Fill-538-+-Fill-539-+-Fill-540" transform="translate(290.000000, 1010.000000)">
                <path d="M16.0024,6.0034 C14.8974,6.0034 14.0024,5.1074 14.0024,4.0034 C14.0024,2.8994 14.8974,2.0034 16.0024,2.0034 C17.1064,2.0034 18.0024,2.8994 18.0024,4.0034 C18.0024,5.1074 17.1064,6.0034 16.0024,6.0034 M6.0024,4.0034 C6.0024,5.1074 5.1064,6.0034 4.0024,6.0034 C2.8974,6.0034 2.0024,5.1074 2.0024,4.0034 C2.0024,2.8994 2.8974,2.0034 4.0024,2.0034 C5.1064,2.0034 6.0024,2.8994 6.0024,4.0034 M16.0024,0.0034 L4.0024,0.0034 C1.7934,0.0034 0.0024,1.7954 0.0024,4.0034 C0.0024,6.2124 1.7934,8.0034 4.0024,8.0034 C6.2114,8.0034 8.0024,6.2124 8.0024,4.0034 C8.0024,3.2714 7.7914,2.5934 7.4474,2.0034 L12.5574,2.0034 C12.2134,2.5934 12.0024,3.2714 12.0024,4.0034 C12.0024,6.2124 13.7934,8.0034 16.0024,8.0034 C18.2114,8.0034 20.0024,6.2124 20.0024,4.0034 C20.0024,1.7954 18.2114,0.0034 16.0024,0.0034" id="Fill-538"></path>
                <polygon id="Fill-539" points="6.0024 20.0034 8.0024 20.0034 8.0024 13.0034 9.0024 13.0034 9.0024 20.0034 11.0024 20.0034 11.0024 13.0034 12.0024 13.0034 12.0024 20.0034 14.0024 20.0034 14.0024 11.0034 6.0024 11.0034"></polygon>
                <polygon id="Fill-540" points="6.002 10.003 14.002 10.003 14.002 8.003 6.002 8.003"></polygon>
            </g>
        </g>
    </g>
</svg>