<?xml version="1.0" encoding="UTF-8"?>
<svg width="20px" height="18px" viewBox="0 0 20 18" version="1.1" xmlns="http://www.w3.org/2000/svg" xmlns:xlink="http://www.w3.org/1999/xlink">
    <!-- Generator: Sketch 42 (36781) - http://www.bohemiancoding.com/sketch -->
    <title>Fill 728 + Fill 729</title>
    <desc>Created with Sketch.</desc>
    <defs></defs>
    <g id="Page-1" stroke="none" stroke-width="1" fill="none" fill-rule="evenodd">
        <g id="Solid-Icons" transform="translate(-386.000000, -1299.000000)" fill="#B4B4B4">
            <g id="Fill-728-+-Fill-729" transform="translate(386.000000, 1299.000000)">
                <path d="M16.168,11.5557 L17.131,13.0007 L12,13.0007 L12,5.0007 L17.131,5.0007 L16.168,6.4467 C15.903,6.8437 15.956,7.3707 16.293,7.7077 L17.586,9.0007 L16.293,10.2947 C15.956,10.6307 15.903,11.1597 16.168,11.5557 L16.168,11.5557 Z M6,16.0007 C3.71,16.0007 2,14.9457 2,14.0007 L2,7.0007 C3.055,7.6237 4.448,8.0007 6,8.0007 C7.552,8.0007 8.945,7.6237 10,7.0007 L10,14.0007 C10,14.9457 8.29,16.0007 6,16.0007 L6,16.0007 Z M6,2.0007 C8.29,2.0007 10,3.0567 10,4.0007 C10,4.9457 8.29,6.0007 6,6.0007 C3.71,6.0007 2,4.9457 2,4.0007 C2,3.0567 3.71,2.0007 6,2.0007 L6,2.0007 Z M18.287,11.1287 L19.707,9.7077 C20.098,9.3177 20.098,8.6847 19.707,8.2947 L18.287,6.8737 L19.832,4.5557 C20.037,4.2487 20.056,3.8537 19.882,3.5297 C19.707,3.2037 19.369,3.0007 19,3.0007 L11.81,3.0007 C11.16,1.2587 8.843,0.0007 6,0.0007 C2.636,0.0007 0,1.7577 0,4.0007 L0,14.0007 C0,16.2447 2.636,18.0007 6,18.0007 C8.843,18.0007 11.16,16.7437 11.81,15.0007 L19,15.0007 C19.369,15.0007 19.707,14.7987 19.882,14.4727 C20.056,14.1467 20.037,13.7527 19.832,13.4467 L18.287,11.1287 Z" id="Fill-728"></path>
                <path d="M6,5.001 C6.552,5.001 7,4.554 7,4.001 C7,3.45 6.552,3.001 6,3.001 C5.448,3.001 5,3.45 5,4.001 C5,4.554 5.448,5.001 6,5.001" id="Fill-729"></path>
            </g>
        </g>
    </g>
</svg>