<?xml version="1.0" encoding="UTF-8"?>
<svg width="20px" height="20px" viewBox="0 0 20 20" version="1.1" xmlns="http://www.w3.org/2000/svg" xmlns:xlink="http://www.w3.org/1999/xlink">
    <!-- Generator: Sketch 42 (36781) - http://www.bohemiancoding.com/sketch -->
    <title>Fill 534</title>
    <desc>Created with Sketch.</desc>
    <defs></defs>
    <g id="Page-1" stroke="none" stroke-width="1" fill="none" fill-rule="evenodd">
        <g id="Solid-Icons" transform="translate(-50.000000, -1010.000000)" fill="#767676">
            <g id="Fill-534" transform="translate(49.000000, 1010.000000)">
                <path d="M17.004,15.001 L14.004,15.001 L14.004,12.001 L17.004,12.001 L17.004,15.001 Z M8.004,15.001 L5.004,15.001 L5.004,12.001 L8.004,12.001 L8.004,15.001 Z M20.957,9.158 C20.949,9.126 19.292,4.168 19.281,4.138 L18.997,3.001 L17.004,3.001 L17.004,0.001 L14.004,0.001 L14.004,3.001 L8.004,3.001 L8.004,0.001 L5.004,0.001 L5.004,3.001 L2.997,3.001 L2.713,4.138 L1.042,9.138 C0.923,9.619 1.036,10.059 1.292,10.395 C1.647,10.864 2.416,11.001 3.004,11.001 L3.004,20.001 L9.004,20.001 L9.004,16.001 L13.004,16.001 L13.004,20.001 L19.004,20.001 L19.004,11.001 C19.755,11.001 20.385,10.912 20.779,10.28 C20.988,9.945 21.053,9.541 20.957,9.158 L20.957,9.158 Z"></path>
            </g>
        </g>
    </g>
</svg>