<?xml version="1.0" encoding="UTF-8"?>
<svg width="17px" height="24px" viewBox="0 0 17 24" version="1.1" xmlns="http://www.w3.org/2000/svg" xmlns:xlink="http://www.w3.org/1999/xlink">
    <!-- Generator: Sketch 42 (36781) - http://www.bohemiancoding.com/sketch -->
    <title>Fill 748 + Fill 749</title>
    <desc>Created with Sketch.</desc>
    <defs></defs>
    <g id="Page-1" stroke="none" stroke-width="1" fill="none" fill-rule="evenodd">
        <g id="Solid-Icons" transform="translate(-100.000000, -1344.000000)" fill="#767676">
            <g id="Fill-748-+-Fill-749" transform="translate(100.000000, 1344.000000)">
                <polygon id="Fill-748" points="10.708 16.2944 9.294 17.7084 15.294 23.7084 16.708 22.2944"></polygon>
                <path d="M7.6328,13.4898 C7.1628,13.1808 6.6038,13.0008 6.0008,13.0008 C5.4058,13.0008 4.8538,13.1798 4.3858,13.4808 C4.1528,13.3298 3.9328,13.1598 3.7488,12.9498 C3.5358,12.7018 3.3078,12.3438 3.1578,11.8958 C3.9668,11.3348 4.9448,11.0008 6.0008,11.0008 C7.0578,11.0008 8.0358,11.3348 8.8438,11.8958 C8.6078,12.6318 8.2138,13.0898 7.6328,13.4898 M12.0008,11.0008 C12.0008,8.7628 10.0548,5.7788 9.8328,5.4458 C9.6668,5.1968 9.3978,5.0358 9.0998,5.0068 C8.7978,4.9778 8.5058,5.0828 8.2938,5.2948 L7.0008,6.5868 L7.0008,1.0008 C7.0008,0.5798 6.7378,0.2038 6.3408,0.0608 C5.9468,-0.0812 5.5028,0.0378 5.2328,0.3608 C5.0188,0.6178 0.0008,6.6878 0.0008,11.0008 C0.0008,12.4238 0.5278,13.8138 1.4828,14.9148 C2.6328,16.2408 4.2798,17.0008 6.0008,17.0008 C7.2728,17.0008 8.4988,16.5928 9.5458,15.8208 C11.1058,14.6718 12.0008,12.9148 12.0008,11.0008" id="Fill-749"></path>
            </g>
        </g>
    </g>
</svg>