<?xml version="1.0" encoding="UTF-8"?>
<svg width="18px" height="20px" viewBox="0 0 18 20" version="1.1" xmlns="http://www.w3.org/2000/svg" xmlns:xlink="http://www.w3.org/1999/xlink">
    <!-- Generator: Sketch 42 (36781) - http://www.bohemiancoding.com/sketch -->
    <title>Fill 927 + Fill 928</title>
    <desc>Created with Sketch.</desc>
    <defs></defs>
    <g id="Page-1" stroke="none" stroke-width="1" fill="none" fill-rule="evenodd">
        <g id="Solid-Icons" transform="translate(-291.000000, -1106.000000)" fill="#757575">
            <g id="Fill-927-+-Fill-928" transform="translate(291.000000, 1106.000000)">
                <polygon id="Fill-927" points="11 7 0 7 0 9 11 9"></polygon>
                <path d="M15,2.0005 C15.828,2.0005 16.5,2.6715 16.5,3.5005 C16.5,4.3285 15.828,5.0005 15,5.0005 C14.172,5.0005 13.5,4.3285 13.5,3.5005 C13.5,2.6715 14.172,2.0005 15,2.0005 M16,0.0005 L14,0.0005 C12.896,0.0005 12,0.8965 12,2.0005 L12,10.0005 L0,10.0005 C0,12.7625 2.239,15.0005 5,15.0005 L8.5,15.0005 L8.11,18.9005 C8.082,19.1825 8.174,19.4625 8.363,19.6715 C8.553,19.8815 8.822,20.0005 9.105,20.0005 L17,20.0005 C17.552,20.0005 18,19.5535 18,19.0005 L18,2.0005 C18,0.8965 17.104,0.0005 16,0.0005" id="Fill-928"></path>
            </g>
        </g>
    </g>
</svg>