<?xml version="1.0" encoding="UTF-8"?>
<svg width="14px" height="20px" viewBox="0 0 14 20" version="1.1" xmlns="http://www.w3.org/2000/svg" xmlns:xlink="http://www.w3.org/1999/xlink">
    <!-- Generator: Sketch 42 (36781) - http://www.bohemiancoding.com/sketch -->
    <title>Fill 173</title>
    <desc>Created with Sketch.</desc>
    <defs></defs>
    <g id="Page-1" stroke="none" stroke-width="1" fill="none" fill-rule="evenodd">
        <g id="Solid-Icons" transform="translate(-390.000000, -338.000000)" fill="#757575">
            <g id="Fill-173" transform="translate(390.000000, 338.000000)">
                <path d="M6,11.7686 L2.116,7.8846 L3.884,6.1166 L6,8.2326 L10.116,4.1166 L11.884,5.8846 L6,11.7686 Z M12,0.0006 L2,0.0006 C0.897,0.0006 0,0.8986 0,2.0006 L0,19.0006 C0,19.3696 0.203,19.7086 0.528,19.8826 C0.852,20.0556 1.247,20.0366 1.555,19.8316 L7,16.2026 L12.445,19.8316 C12.613,19.9436 12.806,20.0006 13,20.0006 C13.162,20.0006 13.324,19.9616 13.472,19.8826 C13.797,19.7086 14,19.3696 14,19.0006 L14,2.0006 C14,0.8986 13.103,0.0006 12,0.0006 L12,0.0006 Z"></path>
            </g>
        </g>
    </g>
</svg>