<?xml version="1.0" encoding="UTF-8"?>
<svg width="24px" height="20px" viewBox="0 0 24 20" version="1.1" xmlns="http://www.w3.org/2000/svg" xmlns:xlink="http://www.w3.org/1999/xlink">
    <!-- Generator: Sketch 42 (36781) - http://www.bohemiancoding.com/sketch -->
    <title>Fill 783 + Fill 784 + Fill 785</title>
    <desc>Created with Sketch.</desc>
    <defs></defs>
    <g id="Page-1" stroke="none" stroke-width="1" fill="none" fill-rule="evenodd">
        <g id="Solid-Icons" transform="translate(-384.000000, -1394.000000)" fill="#767676">
            <g id="Fill-783-+-Fill-784-+-Fill-785" transform="translate(383.000000, 1393.000000)">
                <path d="M21.999,12.9995 L21.999,6.2425 C22.486,7.8425 22.907,10.0505 22.986,12.9995 L21.999,12.9995 Z M21.706,1.2925 C21.419,1.0065 20.99,0.9205 20.616,1.0755 C20.243,1.2305 19.999,1.5955 19.999,1.9995 L19.999,20.9995 L21.999,20.9995 L21.999,14.9995 L23.999,14.9995 C24.551,14.9995 24.999,14.5515 24.999,13.9995 C24.999,4.6925 21.841,1.4275 21.706,1.2925 L21.706,1.2925 Z" id="Fill-783"></path>
                <path d="M8.999,4.9995 L8.999,0.9995 L6.999,0.9995 L6.999,4.9995 C6.999,5.7365 6.594,6.3745 5.999,6.7225 L5.999,0.9995 L3.999,0.9995 L3.999,6.7225 C3.404,6.3745 2.999,5.7365 2.999,4.9995 L2.999,0.9995 L0.999,0.9995 L0.999,4.9995 C0.999,6.8575 2.279,8.4095 3.999,8.8575 L3.999,20.9995 L5.999,20.9995 L5.999,8.8575 C7.719,8.4095 8.999,6.8575 8.999,4.9995" id="Fill-784"></path>
                <path d="M12.999,16.9995 C12.999,16.9995 9.999,14.9995 9.999,13.4995 C9.999,12.6715 10.671,11.9995 11.499,11.9995 C12.327,11.9995 12.999,12.6715 12.999,13.4995 C12.999,12.6715 13.671,11.9995 14.499,11.9995 C15.327,11.9995 15.999,12.6715 15.999,13.4995 C15.999,14.9995 12.999,16.9995 12.999,16.9995 M12.999,7.9995 C9.69,7.9995 6.999,10.6905 6.999,13.9995 C6.999,17.3085 9.69,19.9995 12.999,19.9995 C16.308,19.9995 18.999,17.3085 18.999,13.9995 C18.999,10.6905 16.308,7.9995 12.999,7.9995" id="Fill-785"></path>
            </g>
        </g>
    </g>
</svg>