<?xml version="1.0" encoding="UTF-8"?>
<svg width="16px" height="19px" viewBox="0 0 16 19" version="1.1" xmlns="http://www.w3.org/2000/svg" xmlns:xlink="http://www.w3.org/1999/xlink">
    <!-- Generator: Sketch 42 (36781) - http://www.bohemiancoding.com/sketch -->
    <title>Fill 700</title>
    <desc>Created with Sketch.</desc>
    <defs></defs>
    <g id="Page-1" stroke="none" stroke-width="1" fill="none" fill-rule="evenodd">
        <g id="Solid-Icons" transform="translate(-292.000000, -1251.000000)" fill="#767676">
            <g id="Fill-700" transform="translate(292.000000, 1251.000000)">
                <path d="M9.062,11.9146 C9.062,11.9146 8.08,7.0026 13.974,7.0026 C13.974,7.0026 14.466,11.9146 9.062,11.9146 M6.939,11.9146 C1.535,11.9146 2.027,7.0026 2.027,7.0026 C7.921,7.0026 6.939,11.9146 6.939,11.9146 M8,0.0026 C3.582,0.0026 0,3.5846 0,8.0026 C0,16.0026 8,19.0026 8,19.0026 C8,19.0026 16,16.0026 16,8.0026 C16,3.5846 12.419,0.0026 8,0.0026"></path>
            </g>
        </g>
    </g>
</svg>