<?xml version="1.0" encoding="UTF-8"?>
<svg width="16px" height="20px" viewBox="0 0 16 20" version="1.1" xmlns="http://www.w3.org/2000/svg" xmlns:xlink="http://www.w3.org/1999/xlink">
    <!-- Generator: Sketch 42 (36781) - http://www.bohemiancoding.com/sketch -->
    <title>Fill 894</title>
    <desc>Created with Sketch.</desc>
    <defs></defs>
    <g id="Page-1" stroke="none" stroke-width="1" fill="none" fill-rule="evenodd">
        <g id="Solid-Icons" transform="translate(-100.000000, -1634.000000)" fill="#757575">
            <g id="Fill-894" transform="translate(100.000000, 1634.000000)">
                <path d="M7,9.4155 L3.293,5.7075 L4.707,4.2935 L7,6.5865 L11.293,2.2935 L12.707,3.7075 L7,9.4155 Z M7,17.4155 L3.293,13.7075 L4.707,12.2935 L7,14.5865 L11.293,10.2935 L12.707,11.7075 L7,17.4155 Z M14,0.0005 L2,0.0005 C0.895,0.0005 0,0.8955 0,2.0005 L0,18.0005 C0,19.1045 0.895,20.0005 2,20.0005 L14,20.0005 C15.105,20.0005 16,19.1045 16,18.0005 L16,2.0005 C16,0.8955 15.105,0.0005 14,0.0005 L14,0.0005 Z"></path>
            </g>
        </g>
    </g>
</svg>