<?xml version="1.0" encoding="UTF-8"?>
<svg width="20px" height="23px" viewBox="0 0 20 23" version="1.1" xmlns="http://www.w3.org/2000/svg" xmlns:xlink="http://www.w3.org/1999/xlink">
    <!-- Generator: Sketch 42 (36781) - http://www.bohemiancoding.com/sketch -->
    <title>Fill 550 + Fill 551 + Fill 552</title>
    <desc>Created with Sketch.</desc>
    <defs></defs>
    <g id="Page-1" stroke="none" stroke-width="1" fill="none" fill-rule="evenodd">
        <g id="Solid-Icons" transform="translate(-242.000000, -1057.000000)" fill="#767676">
            <g id="Fill-550-+-Fill-551-+-Fill-552" transform="translate(242.000000, 1057.000000)">
                <path d="M12.001,2.197 C12.001,1.092 11.105,0.197 10.001,0.197 C8.897,0.197 8.001,1.092 8.001,2.197 L8.001,4.197 L12.001,4.197 L12.001,2.197 Z" id="Fill-550"></path>
                <path d="M7.001,11.1362 L12.94,5.1972 L1.001,5.1972 C0.449,5.1972 0.001,5.6442 0.001,6.1972 C0.001,6.7492 0.449,7.1972 1.001,7.1972 L2.501,7.1972 L2.725,7.6442 C2.894,7.9832 3.24,8.1972 3.619,8.1972 L7.001,8.1972 L7.001,11.1362 Z" id="Fill-551"></path>
                <path d="M19.001,5.197 L15.061,5.197 L7.001,13.257 L7.001,19.197 L5.334,19.197 C4.904,19.197 4.522,19.472 4.386,19.881 L4.052,20.881 C3.951,21.186 4.002,21.521 4.19,21.782 C4.378,22.042 4.68,22.197 5.001,22.197 L15.001,22.197 C15.322,22.197 15.624,22.042 15.812,21.782 C16,21.521 16.051,21.186 15.95,20.881 L15.616,19.881 C15.48,19.472 15.098,19.197 14.668,19.197 L13.001,19.197 L13.001,8.197 L16.383,8.197 C16.762,8.197 17.108,7.983 17.277,7.644 L17.501,7.197 L19.001,7.197 C19.553,7.197 20.001,6.749 20.001,6.197 C20.001,5.644 19.553,5.197 19.001,5.197" id="Fill-552"></path>
            </g>
        </g>
    </g>
</svg>