<?xml version="1.0" encoding="UTF-8"?>
<svg width="20px" height="20px" viewBox="0 0 20 20" version="1.1" xmlns="http://www.w3.org/2000/svg" xmlns:xlink="http://www.w3.org/1999/xlink">
    <!-- Generator: Sketch 42 (36781) - http://www.bohemiancoding.com/sketch -->
    <title>Fill 262</title>
    <desc>Created with Sketch.</desc>
    <defs></defs>
    <g id="Page-1" stroke="none" stroke-width="1" fill="none" fill-rule="evenodd">
        <g id="Solid-Icons" transform="translate(-434.000000, -482.000000)" fill="#757575">
            <g id="Fill-262" transform="translate(434.000000, 482.000000)">
                <path d="M19,13.0005 L17,13.0005 L17,12.0005 C17,10.3465 15.654,9.0005 14,9.0005 L11,9.0005 L11,7.0005 L13,7.0005 C13.552,7.0005 14,6.5525 14,6.0005 L14,1.0005 C14,0.4485 13.552,0.0005 13,0.0005 L7,0.0005 C6.448,0.0005 6,0.4485 6,1.0005 L6,6.0005 C6,6.5525 6.448,7.0005 7,7.0005 L9,7.0005 L9,9.0005 L6,9.0005 C4.346,9.0005 3,10.3465 3,12.0005 L3,13.0005 L1,13.0005 C0.448,13.0005 0,13.4485 0,14.0005 L0,19.0005 C0,19.5525 0.448,20.0005 1,20.0005 L7,20.0005 C7.552,20.0005 8,19.5525 8,19.0005 L8,14.0005 C8,13.4485 7.552,13.0005 7,13.0005 L5,13.0005 L5,12.0005 C5,11.4495 5.449,11.0005 6,11.0005 L14,11.0005 C14.551,11.0005 15,11.4495 15,12.0005 L15,13.0005 L13,13.0005 C12.448,13.0005 12,13.4485 12,14.0005 L12,19.0005 C12,19.5525 12.448,20.0005 13,20.0005 L19,20.0005 C19.552,20.0005 20,19.5525 20,19.0005 L20,14.0005 C20,13.4485 19.552,13.0005 19,13.0005"></path>
            </g>
        </g>
    </g>
</svg>