<?xml version="1.0" encoding="UTF-8"?>
<svg width="18px" height="21px" viewBox="0 0 18 21" version="1.1" xmlns="http://www.w3.org/2000/svg" xmlns:xlink="http://www.w3.org/1999/xlink">
    <!-- Generator: Sketch 42 (36781) - http://www.bohemiancoding.com/sketch -->
    <title>Fill 901 + Fill 902</title>
    <desc>Created with Sketch.</desc>
    <defs></defs>
    <g id="Page-1" stroke="none" stroke-width="1" fill="none" fill-rule="evenodd">
        <g id="Solid-Icons" transform="translate(-243.000000, -1634.000000)" fill="#757575">
            <g id="Fill-901-+-Fill-902" transform="translate(243.000000, 1634.000000)">
                <path d="M13,2.0005 L11,2.0005 C11,0.8955 10.104,0.0005 9,0.0005 C7.896,0.0005 7,0.8955 7,2.0005 L5,2.0005 L5,5.0005 L13,5.0005 L13,2.0005 Z" id="Fill-901"></path>
                <path d="M12.5352,15.5869 L11.1212,17.0009 L9.0002,14.8789 L6.8792,17.0009 L5.4652,15.5869 L7.5862,13.4649 L5.4652,11.3439 L6.8792,9.9299 L9.0002,12.0509 L11.1212,9.9299 L12.5352,11.3439 L10.4142,13.4649 L12.5352,15.5869 Z M16.0002,3.0009 L15.0002,3.0009 L15.0002,6.0009 L3.0002,6.0009 L3.0002,3.0009 L2.0002,3.0009 C0.8952,3.0009 0.0002,3.8959 0.0002,5.0009 L0.0002,19.0009 C0.0002,20.1049 0.8952,21.0009 2.0002,21.0009 L16.0002,21.0009 C17.1042,21.0009 18.0002,20.1049 18.0002,19.0009 L18.0002,5.0009 C18.0002,3.8959 17.1042,3.0009 16.0002,3.0009 L16.0002,3.0009 Z" id="Fill-902"></path>
            </g>
        </g>
    </g>
</svg>