<?xml version="1.0" encoding="UTF-8"?>
<svg width="18px" height="21px" viewBox="0 0 18 21" version="1.1" xmlns="http://www.w3.org/2000/svg" xmlns:xlink="http://www.w3.org/1999/xlink">
    <!-- Generator: Sketch 42 (36781) - http://www.bohemiancoding.com/sketch -->
    <title>Fill 743 + Fill 744 + Fill 745</title>
    <desc>Created with Sketch.</desc>
    <defs></defs>
    <g id="Page-1" stroke="none" stroke-width="1" fill="none" fill-rule="evenodd">
        <g id="Solid-Icons" transform="translate(-3.000000, -1346.000000)" fill="#767676">
            <g id="Fill-743-+-Fill-744-+-Fill-745" transform="translate(3.000000, 1346.000000)">
                <polygon id="Fill-743" points="12.001 16.001 14.001 16.001 14.001 13.001 12.001 13.001"></polygon>
                <path d="M11.001,1.0015 L10.001,1.0015 L10.001,0.0015 L8.001,0.0015 L8.001,1.0015 L7.001,1.0015 C3.141,1.0015 0.001,4.1425 0.001,8.0015 L0.001,11.0015 C0.001,11.4055 0.245,11.7705 0.618,11.9255 C0.992,12.0795 1.422,11.9945 1.708,11.7085 L3.001,10.4155 L4.294,11.7085 C4.685,12.0995 5.317,12.0995 5.708,11.7085 L7.001,10.4155 L8.294,11.7085 C8.685,12.0995 9.317,12.0995 9.708,11.7085 L11.001,10.4155 L12.294,11.7085 C12.685,12.0995 13.317,12.0995 13.708,11.7085 L15.001,10.4155 L16.294,11.7085 C16.485,11.8995 16.741,12.0015 17.001,12.0015 C17.13,12.0015 17.26,11.9765 17.384,11.9255 C17.757,11.7705 18.001,11.4055 18.001,11.0015 L18.001,8.0015 C18.001,4.1425 14.861,1.0015 11.001,1.0015" id="Fill-744"></path>
                <polygon id="Fill-745" points="10.001 13.0015 8.001 13.0015 8.001 18.0015 6.001 18.0015 6.001 20.0015 12.001 20.0015 12.001 18.0015 10.001 18.0015"></polygon>
            </g>
        </g>
    </g>
</svg>