<?xml version="1.0" encoding="UTF-8"?>
<svg width="19px" height="18px" viewBox="0 0 19 18" version="1.1" xmlns="http://www.w3.org/2000/svg" xmlns:xlink="http://www.w3.org/1999/xlink">
    <!-- Generator: Sketch 42 (36781) - http://www.bohemiancoding.com/sketch -->
    <title>Fill 815</title>
    <desc>Created with Sketch.</desc>
    <defs></defs>
    <g id="Page-1" stroke="none" stroke-width="1" fill="none" fill-rule="evenodd">
        <g id="Solid-Icons" transform="translate(-2.000000, -1491.000000)" fill="#767676">
            <g id="Fill-815" transform="translate(1.000000, 1491.000000)">
                <path d="M10.999,4.9107 L10.999,9.0007 L9.999,9.0007 L9.999,4.9107 L8.368,3.0467 L9.413,2.0007 L11.585,2.0007 L12.63,3.0467 L10.999,4.9107 Z M19.599,5.2007 L15.599,2.2007 C15.426,2.0707 15.215,2.0007 14.999,2.0007 L14.413,2.0007 L12.706,0.2937 C12.519,0.1057 12.264,0.0007 11.999,0.0007 L8.999,0.0007 C8.734,0.0007 8.479,0.1057 8.292,0.2937 L6.585,2.0007 L5.999,2.0007 C5.783,2.0007 5.572,2.0707 5.399,2.2007 L1.399,5.2007 C0.975,5.5187 0.873,6.1137 1.167,6.5557 L3.167,9.5557 C3.447,9.9747 3.995,10.1197 4.446,9.8947 L4.999,9.6187 L4.999,17.0007 C4.999,17.5527 5.447,18.0007 5.999,18.0007 L14.999,18.0007 C15.551,18.0007 15.999,17.5527 15.999,17.0007 L15.999,9.6187 L16.552,9.8947 C17.003,10.1197 17.552,9.9747 17.831,9.5557 L19.831,6.5557 C20.125,6.1137 20.023,5.5187 19.599,5.2007 L19.599,5.2007 Z"></path>
            </g>
        </g>
    </g>
</svg>