<?xml version="1.0" encoding="UTF-8"?>
<svg width="21px" height="22px" viewBox="0 0 21 22" version="1.1" xmlns="http://www.w3.org/2000/svg" xmlns:xlink="http://www.w3.org/1999/xlink">
    <!-- Generator: Sketch 42 (36781) - http://www.bohemiancoding.com/sketch -->
    <title>Fill 637 + Fill 638</title>
    <desc>Created with Sketch.</desc>
    <defs></defs>
    <g id="Page-1" stroke="none" stroke-width="1" fill="none" fill-rule="evenodd">
        <g id="Solid-Icons" transform="translate(-2.000000, -1201.000000)" fill="#767676">
            <g id="Fill-637-+-Fill-638" transform="translate(2.000000, 1201.000000)">
                <path d="M18.9995,1.0005 C18.4615,1.0005 17.9755,1.2155 17.6165,1.5615 C17.1055,0.6355 16.1315,0.0005 14.9995,0.0005 C13.8675,0.0005 12.8935,0.6355 12.3825,1.5615 C12.0235,1.2155 11.5375,1.0005 10.9995,1.0005 C9.8955,1.0005 8.9995,1.8965 8.9995,3.0005 C8.9995,4.1055 9.8955,5.0005 10.9995,5.0005 C11.5375,5.0005 12.0235,4.7855 12.3825,4.4405 C12.8935,5.3665 13.8675,6.0005 14.9995,6.0005 C16.1315,6.0005 17.1055,5.3665 17.6165,4.4405 C17.9755,4.7855 18.4615,5.0005 18.9995,5.0005 C20.1045,5.0005 20.9995,4.1055 20.9995,3.0005 C20.9995,1.8965 20.1045,1.0005 18.9995,1.0005" id="Fill-637"></path>
                <path d="M12.3696,15.0005 C12.3696,14.0505 11.8196,13.2405 11.0186,12.8405 L12.1896,10.5105 C13.8496,11.3205 14.9996,13.0295 14.9996,15.0005 L12.3696,15.0005 Z M9.9996,20.0005 C8.8596,20.0005 7.8086,19.6205 6.9696,18.9715 L8.5496,16.8705 C8.9596,17.1805 9.4496,17.3705 9.9996,17.3705 C10.5496,17.3705 11.0396,17.1805 11.4496,16.8705 L13.0296,18.9805 C12.1896,19.6205 11.1396,20.0005 9.9996,20.0005 L9.9996,20.0005 Z M7.7096,10.5505 L8.8596,12.8405 C8.0696,13.2405 7.5186,14.0505 7.5186,15.0005 L4.9996,15.0005 C4.9996,13.0705 6.0996,11.3915 7.7096,10.5505 L7.7096,10.5505 Z M9.9996,14.0005 C10.5526,14.0005 10.9996,14.4455 10.9996,15.0005 C10.9996,15.5515 10.5526,16.0005 9.9996,16.0005 C9.4466,16.0005 8.9996,15.5515 8.9996,15.0005 C8.9996,14.4455 9.4466,14.0005 9.9996,14.0005 L9.9996,14.0005 Z M15.2366,8.6645 C15.0946,8.2665 14.7176,8.0005 14.2946,8.0005 L5.7046,8.0005 C5.2816,8.0005 4.9046,8.2665 4.7626,8.6645 L0.4766,20.6645 C0.3676,20.9705 0.4136,21.3115 0.6016,21.5765 C0.7886,21.8425 1.0936,22.0005 1.4186,22.0005 L18.5806,22.0005 C18.9056,22.0005 19.2106,21.8425 19.3976,21.5765 C19.5856,21.3115 19.6316,20.9705 19.5216,20.6645 L15.2366,8.6645 Z" id="Fill-638"></path>
            </g>
        </g>
    </g>
</svg>