<?xml version="1.0" encoding="UTF-8"?>
<svg width="24px" height="20px" viewBox="0 0 24 20" version="1.1" xmlns="http://www.w3.org/2000/svg" xmlns:xlink="http://www.w3.org/1999/xlink">
    <!-- Generator: Sketch 42 (36781) - http://www.bohemiancoding.com/sketch -->
    <title>Fill 125</title>
    <desc>Created with Sketch.</desc>
    <defs></defs>
    <g id="Page-1" stroke="none" stroke-width="1" fill="none" fill-rule="evenodd">
        <g id="Solid-Icons" transform="translate(-384.000000, -194.000000)" fill="#757575">
            <g id="Fill-125" transform="translate(384.000000, 194.000000)">
                <path d="M18,10.0005 C17.448,10.0005 17,9.5535 17,9.0005 C17,8.4485 17.448,8.0005 18,8.0005 C18.552,8.0005 19,8.4485 19,9.0005 C19,9.5535 18.552,10.0005 18,10.0005 L18,10.0005 Z M18,14.0005 C17.448,14.0005 17,13.5535 17,13.0005 C17,12.4485 17.448,12.0005 18,12.0005 C18.552,12.0005 19,12.4485 19,13.0005 C19,13.5535 18.552,14.0005 18,14.0005 L18,14.0005 Z M15,10.0005 C14.448,10.0005 14,9.5535 14,9.0005 C14,8.4485 14.448,8.0005 15,8.0005 C15.552,8.0005 16,8.4485 16,9.0005 C16,9.5535 15.552,10.0005 15,10.0005 L15,10.0005 Z M15,14.0005 C14.448,14.0005 14,13.5535 14,13.0005 C14,12.4485 14.448,12.0005 15,12.0005 C15.552,12.0005 16,12.4485 16,13.0005 C16,13.5535 15.552,14.0005 15,14.0005 L15,14.0005 Z M16,18.0005 L8,18.0005 L8,16.0005 L16,16.0005 L16,18.0005 Z M6,10.0005 C5.448,10.0005 5,9.5535 5,9.0005 C5,8.4485 5.448,8.0005 6,8.0005 C6.552,8.0005 7,8.4485 7,9.0005 C7,9.5535 6.552,10.0005 6,10.0005 L6,10.0005 Z M6,14.0005 C5.448,14.0005 5,13.5535 5,13.0005 C5,12.4485 5.448,12.0005 6,12.0005 C6.552,12.0005 7,12.4485 7,13.0005 C7,13.5535 6.552,14.0005 6,14.0005 L6,14.0005 Z M9,12.0005 C9.552,12.0005 10,12.4485 10,13.0005 C10,13.5535 9.552,14.0005 9,14.0005 C8.448,14.0005 8,13.5535 8,13.0005 C8,12.4485 8.448,12.0005 9,12.0005 L9,12.0005 Z M9,8.0005 C9.552,8.0005 10,8.4485 10,9.0005 C10,9.5535 9.552,10.0005 9,10.0005 C8.448,10.0005 8,9.5535 8,9.0005 C8,8.4485 8.448,8.0005 9,8.0005 L9,8.0005 Z M12,12.0005 C12.552,12.0005 13,12.4485 13,13.0005 C13,13.5535 12.552,14.0005 12,14.0005 C11.448,14.0005 11,13.5535 11,13.0005 C11,12.4485 11.448,12.0005 12,12.0005 L12,12.0005 Z M12,8.0005 C12.552,8.0005 13,8.4485 13,9.0005 C13,9.5535 12.552,10.0005 12,10.0005 C11.448,10.0005 11,9.5535 11,9.0005 C11,8.4485 11.448,8.0005 12,8.0005 L12,8.0005 Z M22,6.0005 L13,6.0005 L13,5.0005 C13,4.4495 13.449,4.0005 14,4.0005 L15,4.0005 C16.654,4.0005 18,2.6545 18,1.0005 L18,0.0005 L16,0.0005 L16,1.0005 C16,1.5515 15.551,2.0005 15,2.0005 L14,2.0005 C12.346,2.0005 11,3.3465 11,5.0005 L11,6.0005 L2,6.0005 C0.897,6.0005 0,6.8975 0,8.0005 L0,18.0005 C0,19.1035 0.897,20.0005 2,20.0005 L22,20.0005 C23.103,20.0005 24,19.1035 24,18.0005 L24,8.0005 C24,6.8975 23.103,6.0005 22,6.0005 L22,6.0005 Z"></path>
            </g>
        </g>
    </g>
</svg>