<?xml version="1.0" encoding="UTF-8"?>
<svg width="16px" height="21px" viewBox="0 0 16 21" version="1.1" xmlns="http://www.w3.org/2000/svg" xmlns:xlink="http://www.w3.org/1999/xlink">
    <!-- Generator: Sketch 42 (36781) - http://www.bohemiancoding.com/sketch -->
    <title>Fill 681 + Fill 682</title>
    <desc>Created with Sketch.</desc>
    <defs></defs>
    <g id="Page-1" stroke="none" stroke-width="1" fill="none" fill-rule="evenodd">
        <g id="Solid-Icons" transform="translate(-340.000000, -1202.000000)" fill="#767676">
            <g id="Fill-681-+-Fill-682" transform="translate(339.000000, 1202.000000)">
                <path d="M16.998,7.5005 C16.998,4.1665 14.676,1.3445 11.466,0.3685 C12.312,2.1535 12.748,4.8335 12.748,7.5005 C12.748,8.7395 12.65,9.9785 12.464,11.1315 L9.602,18.0005 L8.394,18.0005 L5.532,11.1315 C5.346,9.9785 5.248,8.7395 5.248,7.5005 C5.248,4.8335 5.685,2.1535 6.53,0.3685 C3.32,1.3445 0.998,4.1665 0.998,7.5005 C0.998,10.3185 2.667,12.7565 5.118,14.0375 L6.769,18.0005 L5.998,18.0005 L6.998,21.0005 L10.998,21.0005 L11.998,18.0005 L11.228,18.0005 L12.878,14.0375 C15.33,12.7565 16.998,10.3185 16.998,7.5005" id="Fill-681"></path>
                <path d="M8.998,15.0005 C9.159,15.0005 9.316,14.9865 9.475,14.9785 C10.255,14.1745 11.248,11.6005 11.248,7.5005 C11.248,3.4005 10.255,0.8265 9.475,0.0235 C9.316,0.0145 9.159,0.0005 8.998,0.0005 C8.837,0.0005 8.68,0.0145 8.521,0.0235 C7.741,0.8265 6.748,3.4005 6.748,7.5005 C6.748,11.6005 7.741,14.1745 8.521,14.9785 C8.68,14.9865 8.837,15.0005 8.998,15.0005" id="Fill-682"></path>
            </g>
        </g>
    </g>
</svg>