<?xml version="1.0" encoding="UTF-8"?>
<svg width="20px" height="19px" viewBox="0 0 20 19" version="1.1" xmlns="http://www.w3.org/2000/svg" xmlns:xlink="http://www.w3.org/1999/xlink">
    <!-- Generator: Sketch 42 (36781) - http://www.bohemiancoding.com/sketch -->
    <title>Fill 777</title>
    <desc>Created with Sketch.</desc>
    <defs></defs>
    <g id="Page-1" stroke="none" stroke-width="1" fill="none" fill-rule="evenodd">
        <g id="Solid-Icons" transform="translate(-290.000000, -1394.000000)" fill="#767676">
            <g id="Fill-777" transform="translate(289.000000, 1394.000000)">
                <path d="M14.5386,8.9995 C15.0386,9.6955 15.3396,10.8035 15.4476,11.9995 L4.0736,11.9995 C4.3826,11.1835 4.7596,10.6525 4.7986,10.6005 C5.0976,10.2015 5.0586,9.6445 4.7056,9.2925 L4.4126,8.9995 L14.5386,8.9995 Z M20.9986,10.9995 C20.9986,6.6355 18.7996,4.3865 18.7056,4.2925 C18.5186,4.1045 18.2646,3.9995 17.9986,3.9995 L15.4126,3.9995 L17.7056,1.7065 L16.2916,0.2925 L12.5846,3.9995 L2.9986,3.9995 L2.9986,5.9995 L17.5336,5.9995 C18.0086,6.6365 18.9986,8.2885 18.9986,10.9995 C18.9986,12.0355 18.2886,12.9955 17.4816,13.7415 C17.6276,11.2545 17.0376,8.6245 15.7056,7.2925 C15.5186,7.1045 15.2646,6.9995 14.9986,6.9995 L1.9986,6.9995 C1.5946,6.9995 1.2296,7.2435 1.0756,7.6165 C0.9206,7.9905 1.0056,8.4205 1.2916,8.7065 L2.7236,10.1395 C1.6776,12.0215 0.8266,15.4355 3.1996,18.6005 C3.3876,18.8525 3.6846,18.9995 3.9986,18.9995 L14.9986,18.9995 C15.2646,18.9995 15.5186,18.8945 15.7056,18.7065 C16.2266,18.1855 16.6276,17.4605 16.9216,16.6305 C18.0926,15.9355 20.9986,13.9185 20.9986,10.9995 L20.9986,10.9995 Z"></path>
            </g>
        </g>
    </g>
</svg>