<?xml version="1.0" encoding="UTF-8"?>
<svg width="20px" height="15px" viewBox="0 0 20 15" version="1.1" xmlns="http://www.w3.org/2000/svg" xmlns:xlink="http://www.w3.org/1999/xlink">
    <!-- Generator: Sketch 42 (36781) - http://www.bohemiancoding.com/sketch -->
    <title>Fill 330</title>
    <desc>Created with Sketch.</desc>
    <defs></defs>
    <g id="Page-1" stroke="none" stroke-width="1" fill="none" fill-rule="evenodd">
        <g id="Solid-Icons" transform="translate(-338.000000, -581.000000)" fill="#767676">
            <g id="Fill-330" transform="translate(338.000000, 581.000000)">
                <path d="M7,11.0054 C7,9.3484 8.343,8.0054 10,8.0054 C11.657,8.0054 13,9.3484 13,11.0054 L7,11.0054 Z M10,3.0054 C11.104,3.0054 12,3.9014 12,5.0054 C12,6.1104 11.104,7.0054 10,7.0054 C8.896,7.0054 8,6.1104 8,5.0054 C8,3.9014 8.896,3.0054 10,3.0054 L10,3.0054 Z M18,0.0054 L2,0.0054 C0.896,0.0054 0,0.9014 0,2.0054 L0,12.0054 C0,13.1104 0.896,14.0054 2,14.0054 L18,14.0054 C19.104,14.0054 20,13.1104 20,12.0054 L20,2.0054 C20,0.9014 19.104,0.0054 18,0.0054 L18,0.0054 Z"></path>
            </g>
        </g>
    </g>
</svg>