<?xml version="1.0" encoding="UTF-8"?>
<svg width="20px" height="23px" viewBox="0 0 20 23" version="1.1" xmlns="http://www.w3.org/2000/svg" xmlns:xlink="http://www.w3.org/1999/xlink">
    <!-- Generator: Sketch 42 (36781) - http://www.bohemiancoding.com/sketch -->
    <title>Fill 572 + Fill 573 + Fill 574</title>
    <desc>Created with Sketch.</desc>
    <defs></defs>
    <g id="Page-1" stroke="none" stroke-width="1" fill="none" fill-rule="evenodd">
        <g id="Solid-Icons" transform="translate(-98.000000, -1104.000000)" fill="#767676">
            <g id="Fill-572-+-Fill-573-+-Fill-574" transform="translate(97.000000, 1104.000000)">
                <polygon id="Fill-572" points="3.999 4.4143 3.999 8.0003 5.999 8.0003 5.999 4.4143 7.292 5.7073 8.706 4.2933 4.999 0.5863 1.292 4.2933 2.706 5.7073"></polygon>
                <polygon id="Fill-573" points="19.7061 4.707 18.2921 3.293 16.9991 4.586 16.9991 1.001 14.9991 1.001 14.9991 4.586 13.7061 3.293 12.2921 4.707 15.9991 8.414"></polygon>
                <path d="M11.999,21.0005 C11.999,19.3435 13.342,18.0005 14.999,18.0005 L15.999,18.0005 C17.656,18.0005 18.999,19.3435 18.999,21.0005 L11.999,21.0005 Z M2.999,21.0005 C2.999,19.3435 4.342,18.0005 5.999,18.0005 L6.999,18.0005 C8.656,18.0005 9.999,19.3435 9.999,21.0005 L2.999,21.0005 Z M6.499,13.0005 C7.6,13.0005 8.499,13.9015 8.499,15.0005 C8.499,16.0985 7.6,17.0005 6.499,17.0005 C5.398,17.0005 4.499,16.0985 4.499,15.0005 C4.499,13.9015 5.398,13.0005 6.499,13.0005 L6.499,13.0005 Z M15.499,13.0005 C16.6,13.0005 17.499,13.9015 17.499,15.0005 C17.499,16.0985 16.6,17.0005 15.499,17.0005 C14.398,17.0005 13.499,16.0985 13.499,15.0005 C13.499,13.9015 14.398,13.0005 15.499,13.0005 L15.499,13.0005 Z M18.999,10.0005 L2.999,10.0005 C1.895,10.0005 0.999,10.8955 0.999,12.0005 L0.999,21.0005 C0.999,22.1045 1.895,23.0005 2.999,23.0005 L18.999,23.0005 C20.104,23.0005 20.999,22.1045 20.999,21.0005 L20.999,12.0005 C20.999,10.8955 20.104,10.0005 18.999,10.0005 L18.999,10.0005 Z" id="Fill-574"></path>
            </g>
        </g>
    </g>
</svg>