<?xml version="1.0" encoding="UTF-8"?>
<svg width="16px" height="20px" viewBox="0 0 16 20" version="1.1" xmlns="http://www.w3.org/2000/svg" xmlns:xlink="http://www.w3.org/1999/xlink">
    <!-- Generator: Sketch 42 (36781) - http://www.bohemiancoding.com/sketch -->
    <title>Fill 519</title>
    <desc>Created with Sketch.</desc>
    <defs></defs>
    <g id="Page-1" stroke="none" stroke-width="1" fill="none" fill-rule="evenodd">
        <g id="Solid-Icons" transform="translate(-340.000000, -962.000000)" fill="#767676">
            <g id="Fill-519" transform="translate(340.000000, 962.000000)">
                <path d="M9.0005,12.8042 L9.0005,14.0012 L7.0005,14.0012 L7.0005,12.8042 C5.8625,12.3712 5.0005,11.2512 5.0005,10.0012 L7.0005,10.0012 C7.0005,10.4962 7.5055,11.0012 8.0005,11.0012 C8.4955,11.0012 9.0005,10.4962 9.0005,10.0012 C9.0005,9.8002 8.4385,9.6422 7.7575,9.4722 C6.7265,9.2142 5.0005,8.7822 5.0005,7.0012 C5.0005,5.7512 5.8625,4.6322 7.0005,4.1992 L7.0005,3.0012 L9.0005,3.0012 L9.0005,4.1992 C10.1375,4.6322 10.9975,5.7522 10.9975,7.0012 L8.9975,7.0012 C8.9975,6.5062 8.4945,6.0012 8.0005,6.0012 C7.5055,6.0012 7.0005,6.5062 7.0005,7.0012 C7.0005,7.2042 7.5635,7.3622 8.2435,7.5312 C9.2745,7.7892 11.0005,8.2212 11.0005,10.0012 C11.0005,11.2512 10.1395,12.3712 9.0005,12.8042 M8.0005,0.0012 C3.5825,0.0012 0.0005,3.5832 0.0005,8.0012 C0.0005,12.4192 8.0005,20.0012 8.0005,20.0012 C8.0005,20.0012 16.0005,12.4192 16.0005,8.0012 C16.0005,3.5832 12.4185,0.0012 8.0005,0.0012"></path>
            </g>
        </g>
    </g>
</svg>