<?xml version="1.0" encoding="UTF-8"?>
<svg width="18px" height="18px" viewBox="0 0 18 18" version="1.1" xmlns="http://www.w3.org/2000/svg" xmlns:xlink="http://www.w3.org/1999/xlink">
    <!-- Generator: Sketch 42 (36781) - http://www.bohemiancoding.com/sketch -->
    <title>Fill 39 + Fill 40</title>
    <desc>Created with Sketch.</desc>
    <defs></defs>
    <g id="Page-1" stroke="none" stroke-width="1" fill="none" fill-rule="evenodd">
        <g id="Solid-Icons" transform="translate(-195.000000, -51.000000)" fill="#757575">
            <g id="Fill-39-+-Fill-40" transform="translate(195.000000, 51.000000)">
                <path d="M9,6.6001 C7.674,6.6001 6.6,7.6751 6.6,9.0001 C6.6,10.3261 7.674,11.4011 9,11.4011 C10.326,11.4011 11.4,10.3261 11.4,9.0001 C11.4,7.6751 10.326,6.6001 9,6.6001" id="Fill-39"></path>
                <path d="M15,10.0913 L13.21,10.0913 C13.112,10.4653 12.966,10.8163 12.779,11.1443 L13.909,12.2743 L12.273,13.9093 L11.143,12.7793 C10.815,12.9673 10.465,13.1123 10.09,13.2093 L10.09,15.0003 L7.909,15.0003 L7.909,13.2093 C7.535,13.1123 7.185,12.9673 6.857,12.7793 L5.727,13.9093 L4.09,12.2743 L5.221,11.1443 C5.034,10.8163 4.888,10.4653 4.79,10.0913 L3,10.0913 L3,7.9093 L4.79,7.9093 C4.888,7.5353 5.034,7.1863 5.221,6.8573 L4.09,5.7273 L5.727,4.0913 L6.857,5.2213 C7.185,5.0333 7.535,4.8883 7.909,4.7913 L7.909,3.0003 L10.09,3.0003 L10.09,4.7913 C10.465,4.8883 10.815,5.0333 11.143,5.2213 L12.273,4.0913 L13.909,5.7273 L12.779,6.8573 C12.966,7.1863 13.112,7.5353 13.21,7.9093 L15,7.9093 L15,10.0913 Z M16,0.0003 L2,0.0003 C0.895,0.0003 0,0.8963 0,2.0003 L0,16.0003 C0,17.1053 0.895,18.0003 2,18.0003 L16,18.0003 C17.104,18.0003 18,17.1053 18,16.0003 L18,2.0003 C18,0.8963 17.104,0.0003 16,0.0003 L16,0.0003 Z" id="Fill-40"></path>
            </g>
        </g>
    </g>
</svg>