<?xml version="1.0" encoding="UTF-8"?>
<svg width="22px" height="23px" viewBox="0 0 22 23" version="1.1" xmlns="http://www.w3.org/2000/svg" xmlns:xlink="http://www.w3.org/1999/xlink">
    <!-- Generator: Sketch 42 (36781) - http://www.bohemiancoding.com/sketch -->
    <title>Fill 924 + Fill 925 + Fill 926</title>
    <desc>Created with Sketch.</desc>
    <defs></defs>
    <g id="Page-1" stroke="none" stroke-width="1" fill="none" fill-rule="evenodd">
        <g id="Solid-Icons" transform="translate(-432.000000, -1105.000000)" fill="#757575">
            <g id="Fill-924-+-Fill-925-+-Fill-926" transform="translate(432.000000, 1105.000000)">
                <path d="M22,8.5005 C22,10.9865 19.985,13.0005 17.5,13.0005 C15.015,13.0005 13,10.9865 13,8.5005 C13,6.0145 17.5,0.0005 17.5,0.0005 C17.5,0.0005 22,6.0145 22,8.5005" id="Fill-924"></path>
                <path d="M19,17.0005 L10.414,17.0005 L10.707,16.7075 C11.098,16.3165 11.098,15.6845 10.707,15.2935 L9.707,14.2935 C9.424,14.0105 9,13.9245 8.628,14.0715 L5,15.5235 L5,22.0005 L16,22.0005 C16.265,22.0005 16.52,21.8955 16.707,21.7075 L19.707,18.7075 C19.993,18.4215 20.079,17.9915 19.924,17.6175 C19.769,17.2445 19.404,17.0005 19,17.0005" id="Fill-925"></path>
                <path d="M3,14.0005 L1,14.0005 C0.448,14.0005 0,14.4475 0,15.0005 L0,22.0005 C0,22.5535 0.448,23.0005 1,23.0005 L3,23.0005 C3.552,23.0005 4,22.5535 4,22.0005 L4,15.0005 C4,14.4475 3.552,14.0005 3,14.0005" id="Fill-926"></path>
            </g>
        </g>
    </g>
</svg>