<?xml version="1.0" encoding="UTF-8"?>
<svg width="18px" height="18px" viewBox="0 0 18 18" version="1.1" xmlns="http://www.w3.org/2000/svg" xmlns:xlink="http://www.w3.org/1999/xlink">
    <!-- Generator: Sketch 42 (36781) - http://www.bohemiancoding.com/sketch -->
    <title>Fill 204</title>
    <desc>Created with Sketch.</desc>
    <defs></defs>
    <g id="Page-1" stroke="none" stroke-width="1" fill="none" fill-rule="evenodd">
        <g id="Solid-Icons" transform="translate(-195.000000, -435.000000)" fill="#757575">
            <g id="Fill-204" transform="translate(195.000000, 435.000000)">
                <path d="M12.293,9.707 L10,7.415 L10,14 L8,14 L8,7.415 L5.707,9.707 L4.293,8.293 L9,3.586 L13.707,8.293 L12.293,9.707 Z M16,-2.27373675e-13 L2,-2.27373675e-13 C0.897,-2.27373675e-13 0,0.897 0,2 L0,16 C0,17.103 0.897,18 2,18 L16,18 C17.103,18 18,17.103 18,16 L18,2 C18,0.897 17.103,-2.27373675e-13 16,-2.27373675e-13 L16,-2.27373675e-13 Z"></path>
            </g>
        </g>
    </g>
</svg>