<?xml version="1.0" encoding="UTF-8"?>
<svg width="19px" height="18px" viewBox="0 0 19 18" version="1.1" xmlns="http://www.w3.org/2000/svg" xmlns:xlink="http://www.w3.org/1999/xlink">
    <!-- Generator: Sketch 42 (36781) - http://www.bohemiancoding.com/sketch -->
    <title>Fill 341 + Fill 342</title>
    <desc>Created with Sketch.</desc>
    <defs></defs>
    <g id="Page-1" stroke="none" stroke-width="1" fill="none" fill-rule="evenodd">
        <g id="Solid-Icons" transform="translate(-242.000000, -627.000000)" fill="#767676">
            <g id="Fill-341-+-Fill-342" transform="translate(242.000000, 627.000000)">
                <path d="M4,0.0034 L1,0.0034 C0.45,0.0034 0,0.4534 0,1.0034 L0,17.0034 C0,17.5534 0.45,18.0034 1,18.0034 L4,18.0034 C4.55,18.0034 5,17.5534 5,17.0034 L5,1.0034 C5,0.4534 4.55,0.0034 4,0.0034" id="Fill-341"></path>
                <path d="M18.2002,0.603 L7.8002,8.404 C7.3602,8.733 7.3602,9.273 7.8002,9.603 L18.2002,17.404 C18.6402,17.733 19.0002,17.553 19.0002,17.003 L19.0002,1.003 C19.0002,0.454 18.6402,0.273 18.2002,0.603" id="Fill-342"></path>
            </g>
        </g>
    </g>
</svg>