<?xml version="1.0" encoding="UTF-8"?>
<svg width="21px" height="20px" viewBox="0 0 21 20" version="1.1" xmlns="http://www.w3.org/2000/svg" xmlns:xlink="http://www.w3.org/1999/xlink">
    <!-- Generator: Sketch 42 (36781) - http://www.bohemiancoding.com/sketch -->
    <title>Fill 266 + Fill 267</title>
    <desc>Created with Sketch.</desc>
    <defs></defs>
    <g id="Page-1" stroke="none" stroke-width="1" fill="none" fill-rule="evenodd">
        <g id="Solid-Icons" transform="translate(-97.000000, -531.000000)" fill="#767676">
            <g id="Fill-266-+-Fill-267" transform="translate(97.000000, 531.000000)">
                <path d="M19.2593,0.8799 C18.0873,-0.2931 16.1893,-0.2931 15.0173,0.8799 L6.2633,9.6329 C7.3753,9.5589 8.5103,9.9299 9.3603,10.7789 C10.2093,11.6289 10.5803,12.7649 10.5053,13.8769 L19.2593,5.1219 C19.8213,4.5589 20.1383,3.7969 20.1383,3.0009 C20.1383,2.2039 19.8213,1.4419 19.2593,0.8799" id="Fill-266"></path>
                <path d="M2.7388,12.1934 C-0.0442,14.9764 3.1198,16.4054 -0.0002,19.5264 C-0.0002,19.5264 5.1628,20.1834 7.9448,17.4004 C9.3838,15.9624 9.3838,13.6314 7.9448,12.1934 C6.5068,10.7564 4.1758,10.7564 2.7388,12.1934" id="Fill-267"></path>
            </g>
        </g>
    </g>
</svg>