<?xml version="1.0" encoding="UTF-8"?>
<svg width="10px" height="19px" viewBox="0 0 10 19" version="1.1" xmlns="http://www.w3.org/2000/svg" xmlns:xlink="http://www.w3.org/1999/xlink">
    <!-- Generator: Sketch 42 (36781) - http://www.bohemiancoding.com/sketch -->
    <title>Fill 85 + Fill 86</title>
    <desc>Created with Sketch.</desc>
    <defs></defs>
    <g id="Page-1" stroke="none" stroke-width="1" fill="none" fill-rule="evenodd">
        <g id="Solid-Icons" transform="translate(-7.000000, -147.000000)" fill="#757575">
            <g id="Fill-85-+-Fill-86" transform="translate(7.000000, 147.000000)">
                <path d="M8,3.0005 C8,1.3465 6.654,0.0005 5,0.0005 C3.346,0.0005 2,1.3465 2,3.0005 C2,4.6545 3.346,6.0005 5,6.0005 C6.654,6.0005 8,4.6545 8,3.0005" id="Fill-85"></path>
                <path d="M9.9702,14.7578 L8.4542,8.8018 C8.1252,7.1788 6.6722,6.0008 5.0002,6.0008 C3.3272,6.0008 1.8742,7.1788 1.5582,8.7468 L0.0302,14.7578 C-0.0438,15.0528 0.0202,15.3658 0.2052,15.6078 C0.3892,15.8498 0.6742,15.9938 0.9782,16.0008 C0.9782,16.0008 1.7232,16.0158 2.3102,16.0188 C2.5022,16.5918 2.7882,17.4838 3.0462,18.3008 C3.1772,18.7168 3.5632,19.0008 4.0002,19.0008 L6.0002,19.0008 C6.4362,19.0008 6.8232,18.7168 6.9532,18.3008 C7.2112,17.4838 7.4982,16.5918 7.6902,16.0188 C8.2772,16.0158 9.0212,16.0008 9.0212,16.0008 C9.3252,15.9938 9.6102,15.8498 9.7952,15.6078 C9.9792,15.3658 10.0442,15.0528 9.9702,14.7578" id="Fill-86"></path>
            </g>
        </g>
    </g>
</svg>