<?xml version="1.0" encoding="UTF-8"?>
<svg width="16px" height="20px" viewBox="0 0 16 20" version="1.1" xmlns="http://www.w3.org/2000/svg" xmlns:xlink="http://www.w3.org/1999/xlink">
    <!-- Generator: Sketch 42 (36781) - http://www.bohemiancoding.com/sketch -->
    <title>Fill 516 + Fill 517 + Fill 518</title>
    <desc>Created with Sketch.</desc>
    <defs></defs>
    <g id="Page-1" stroke="none" stroke-width="1" fill="none" fill-rule="evenodd">
        <g id="Solid-Icons" transform="translate(-436.000000, -962.000000)" fill="#767676">
            <g id="Fill-516-+-Fill-517-+-Fill-518" transform="translate(436.000000, 962.000000)">
                <path d="M6.0005,6.0005 C5.4475,6.0005 5.0005,6.4475 5.0005,7.0005 C5.0005,7.5535 5.4475,8.0005 6.0005,8.0005 C6.5535,8.0005 7.0005,7.5535 7.0005,7.0005 C7.0005,6.4475 6.5535,6.0005 6.0005,6.0005" id="Fill-516"></path>
                <path d="M10.0005,6.0005 C9.4475,6.0005 9.0005,6.4475 9.0005,7.0005 C9.0005,7.5535 9.4475,8.0005 10.0005,8.0005 C10.5535,8.0005 11.0005,7.5535 11.0005,7.0005 C11.0005,6.4475 10.5535,6.0005 10.0005,6.0005" id="Fill-517"></path>
                <path d="M13.0005,10.0005 L11.0005,10.0005 L11.0005,12.0005 C11.0005,12.5535 10.5535,13.0005 10.0005,13.0005 L10.0005,11.0005 L9.0005,11.0005 L9.0005,13.0005 L7.0005,13.0005 L7.0005,11.0005 L6.0005,11.0005 L6.0005,13.0005 C5.4475,13.0005 5.0005,12.5535 5.0005,12.0005 L5.0005,10.0005 L3.0005,10.0005 L3.0005,8.0005 C3.0005,5.2395 5.2385,3.0005 8.0005,3.0005 C10.7625,3.0005 13.0005,5.2395 13.0005,8.0005 L13.0005,10.0005 Z M8.0005,0.0005 C3.5825,0.0005 0.0005,3.5825 0.0005,8.0005 C0.0005,12.4185 8.0005,20.0005 8.0005,20.0005 C8.0005,20.0005 16.0005,12.4185 16.0005,8.0005 C16.0005,3.5825 12.4185,0.0005 8.0005,0.0005 L8.0005,0.0005 Z" id="Fill-518"></path>
            </g>
        </g>
    </g>
</svg>