<?xml version="1.0" encoding="UTF-8"?>
<svg width="16px" height="20px" viewBox="0 0 16 20" version="1.1" xmlns="http://www.w3.org/2000/svg" xmlns:xlink="http://www.w3.org/1999/xlink">
    <!-- Generator: Sketch 42 (36781) - http://www.bohemiancoding.com/sketch -->
    <title>Fill 706</title>
    <desc>Created with Sketch.</desc>
    <defs></defs>
    <g id="Page-1" stroke="none" stroke-width="1" fill="none" fill-rule="evenodd">
        <g id="Solid-Icons" transform="translate(-52.000000, -1298.000000)" fill="#767676">
            <g id="Fill-706" transform="translate(52.000000, 1298.000000)">
                <path d="M8.001,11.0025 C10.001,11.0025 12.001,12.0025 12.001,13.0025 C12.001,13.0025 10.001,14.0025 8.001,14.0025 C6.001,14.0025 4.001,13.0025 4.001,13.0025 C4.001,12.0025 6.001,11.0025 8.001,11.0025 M16.001,11.0025 C16.001,6.5725 12.642,0.0025 8.001,0.0025 C3.36,0.0025 0.001,6.5725 0.001,11.0025 C0.001,15.1715 1.858,16.8075 7.001,16.9845 L7.001,18.0025 L4.001,18.0025 L4.001,20.0025 L12.001,20.0025 L12.001,18.0025 L9.001,18.0025 L9.001,16.9845 C14.144,16.8075 16.001,15.1715 16.001,11.0025"></path>
            </g>
        </g>
    </g>
</svg>