<?xml version="1.0" encoding="UTF-8"?>
<svg width="22px" height="20px" viewBox="0 0 22 20" version="1.1" xmlns="http://www.w3.org/2000/svg" xmlns:xlink="http://www.w3.org/1999/xlink">
    <!-- Generator: Sketch 42 (36781) - http://www.bohemiancoding.com/sketch -->
    <title>Fill 619 + Fill 620</title>
    <desc>Created with Sketch.</desc>
    <defs></defs>
    <g id="Page-1" stroke="none" stroke-width="1" fill="none" fill-rule="evenodd">
        <g id="Solid-Icons" transform="translate(-145.000000, -1154.000000)" fill="#767676">
            <g id="Fill-619-+-Fill-620" transform="translate(145.000000, 1154.000000)">
                <path d="M19.7197,15.4109 C17.1397,17.0899 14.1107,18.0009 10.9997,18.0009 C7.8897,18.0009 4.8607,17.0899 2.2807,15.4109 L0.8397,16.8499 C3.8207,18.8909 7.3697,20.0009 10.9997,20.0009 C14.6297,20.0009 18.1797,18.8909 21.1607,16.8499 L19.7197,15.4109 Z" id="Fill-619"></path>
                <path d="M11,12.2505 C12.241,12.2505 13.25,11.2415 13.25,10.0005 L14.75,10.0005 C14.75,12.0695 13.068,13.7505 11,13.7505 L11,12.2505 Z M11,16.0005 C14.093,16.0005 16.6,13.4945 16.6,10.4005 C16.6,6.4005 11,0.0005 11,0.0005 C11,0.0005 5.4,6.4005 5.4,10.4005 C5.4,13.4945 7.907,16.0005 11,16.0005 L11,16.0005 Z" id="Fill-620"></path>
            </g>
        </g>
    </g>
</svg>