<?xml version="1.0" encoding="UTF-8"?>
<svg width="20px" height="20px" viewBox="0 0 20 20" version="1.1" xmlns="http://www.w3.org/2000/svg" xmlns:xlink="http://www.w3.org/1999/xlink">
    <!-- Generator: Sketch 42 (36781) - http://www.bohemiancoding.com/sketch -->
    <title>Fill 791</title>
    <desc>Created with Sketch.</desc>
    <defs></defs>
    <g id="Page-1" stroke="none" stroke-width="1" fill="none" fill-rule="evenodd">
        <g id="Solid-Icons" transform="translate(-2.000000, -1442.000000)" fill="#767676">
            <g id="Fill-791" transform="translate(2.000000, 1442.000000)">
                <path d="M7.5859,13.0005 L6.2929,14.2935 C6.1059,14.4805 5.9999,14.7355 5.9999,15.0005 L5.9999,17.0005 C5.9999,17.5515 5.5509,18.0005 4.9999,18.0005 C4.5709,18.0005 4.2109,17.7265 4.0699,17.3445 L4.7069,16.7075 L3.2929,15.2935 L2.6559,15.9315 C2.2749,15.7895 1.9999,15.4295 1.9999,15.0005 C1.9999,14.4495 2.4489,14.0005 2.9999,14.0005 L4.9999,14.0005 C5.2649,14.0005 5.5199,13.8955 5.7069,13.7075 L6.9999,12.4145 L7.5859,13.0005 Z M17.7069,2.2935 C15.3139,-0.1005 11.6809,-0.0945 9.2929,2.2935 C6.7149,4.8715 5.5679,8.0485 6.1049,10.4815 L4.5859,12.0005 L2.9999,12.0005 C1.3459,12.0005 -0.0001,13.3465 -0.0001,15.0005 C-0.0001,16.3525 0.8979,17.4975 2.1289,17.8715 C2.5029,19.1025 3.6479,20.0005 4.9999,20.0005 C6.6539,20.0005 7.9999,18.6545 7.9999,17.0005 L7.9999,15.4145 L9.5209,13.8945 C12.4119,14.5425 15.5959,12.8185 17.7069,10.7075 C20.1059,8.3095 20.1059,4.6915 17.7069,2.2935 L17.7069,2.2935 Z"></path>
            </g>
        </g>
    </g>
</svg>