<?xml version="1.0" encoding="UTF-8"?>
<svg width="14px" height="20px" viewBox="0 0 14 20" version="1.1" xmlns="http://www.w3.org/2000/svg" xmlns:xlink="http://www.w3.org/1999/xlink">
    <!-- Generator: Sketch 42 (36781) - http://www.bohemiancoding.com/sketch -->
    <title>Fill 185</title>
    <desc>Created with Sketch.</desc>
    <defs></defs>
    <g id="Page-1" stroke="none" stroke-width="1" fill="none" fill-rule="evenodd">
        <g id="Solid-Icons" transform="translate(-197.000000, -386.000000)" fill="#757575">
            <g id="Fill-185" transform="translate(197.000000, 386.000000)">
                <path d="M9.9995,9.0005 L3.9995,9.0005 L3.9995,5.0005 C3.9995,3.3465 5.3455,2.0005 6.9995,2.0005 C8.6535,2.0005 9.9995,3.3465 9.9995,5.0005 L9.9995,9.0005 Z M6.9995,16.0005 C6.1715,16.0005 5.4995,15.3285 5.4995,14.5005 C5.4995,13.6725 6.1715,13.0005 6.9995,13.0005 C7.8275,13.0005 8.4995,13.6725 8.4995,14.5005 C8.4995,15.3285 7.8275,16.0005 6.9995,16.0005 L6.9995,16.0005 Z M11.9995,9.0005 L11.9995,5.0005 C11.9995,2.2435 9.7565,0.0005 6.9995,0.0005 C4.2425,0.0005 1.9995,2.2435 1.9995,5.0005 L1.9995,9.0005 C0.8965,9.0005 -0.0005,9.8965 -0.0005,11.0005 L-0.0005,18.0005 C-0.0005,19.1035 0.8965,20.0005 1.9995,20.0005 L11.9995,20.0005 C13.1025,20.0005 13.9995,19.1035 13.9995,18.0005 L13.9995,11.0005 C13.9995,9.8965 13.1025,9.0005 11.9995,9.0005 L11.9995,9.0005 Z"></path>
            </g>
        </g>
    </g>
</svg>