<?xml version="1.0" encoding="UTF-8"?>
<svg width="10px" height="20px" viewBox="0 0 10 20" version="1.1" xmlns="http://www.w3.org/2000/svg" xmlns:xlink="http://www.w3.org/1999/xlink">
    <!-- Generator: Sketch 42 (36781) - http://www.bohemiancoding.com/sketch -->
    <title>Fill 79 + Fill 80</title>
    <desc>Created with Sketch.</desc>
    <defs></defs>
    <g id="Page-1" stroke="none" stroke-width="1" fill="none" fill-rule="evenodd">
        <g id="Solid-Icons" transform="translate(-55.000000, -146.000000)" fill="#757575">
            <g id="Fill-79-+-Fill-80" transform="translate(55.000000, 146.000000)">
                <path d="M8,3.0005 C8,1.3465 6.654,0.0005 5,0.0005 C3.346,0.0005 2,1.3465 2,3.0005 C2,4.6545 3.346,6.0005 5,6.0005 C6.654,6.0005 8,4.6545 8,3.0005" id="Fill-79"></path>
                <path d="M5,6.0005 C2.243,6.0005 0,8.2435 0,11.0005 L0,14.0005 C0,14.5525 0.448,15.0005 1,15.0005 L2,15.0005 L2,19.0005 C2,19.5525 2.448,20.0005 3,20.0005 L7,20.0005 C7.552,20.0005 8,19.5525 8,19.0005 L8,15.0005 L9,15.0005 C9.552,15.0005 10,14.5525 10,14.0005 L10,11.0005 C10,8.2435 7.757,6.0005 5,6.0005" id="Fill-80"></path>
            </g>
        </g>
    </g>
</svg>