<?xml version="1.0" encoding="UTF-8"?>
<svg width="18px" height="24px" viewBox="0 0 18 24" version="1.1" xmlns="http://www.w3.org/2000/svg" xmlns:xlink="http://www.w3.org/1999/xlink">
    <!-- Generator: Sketch 42 (36781) - http://www.bohemiancoding.com/sketch -->
    <title>Fill 843</title>
    <desc>Created with Sketch.</desc>
    <defs></defs>
    <g id="Page-1" stroke="none" stroke-width="1" fill="none" fill-rule="evenodd">
        <g id="Solid-Icons" transform="translate(-387.000000, -1488.000000)" fill="#767676">
            <g id="Fill-843" transform="translate(386.000000, 1488.000000)">
                <path d="M12.999,13.0005 L9.999,13.0005 L9.999,9.0005 L11.999,9.0005 L11.999,11.0005 L12.999,11.0005 L12.999,13.0005 Z M7.999,13.0005 L4.999,13.0005 L4.999,9.0005 L6.999,9.0005 L6.999,11.0005 L7.999,11.0005 L7.999,13.0005 Z M9.999,0.0005 C5.037,0.0005 0.999,4.0385 0.999,9.0005 L0.999,23.0005 C0.999,23.4045 1.243,23.7695 1.616,23.9245 C1.991,24.0785 2.42,23.9935 2.706,23.7075 L5.999,20.4145 L9.292,23.7075 C9.683,24.0985 10.315,24.0985 10.706,23.7075 L13.999,20.4145 L17.292,23.7075 C17.483,23.8985 17.739,24.0005 17.999,24.0005 C18.128,24.0005 18.258,23.9765 18.382,23.9245 C18.755,23.7695 18.999,23.4045 18.999,23.0005 L18.999,9.0005 C18.999,4.0385 14.961,0.0005 9.999,0.0005 L9.999,0.0005 Z"></path>
            </g>
        </g>
    </g>
</svg>