<?xml version="1.0" encoding="UTF-8"?>
<svg width="14px" height="22px" viewBox="0 0 14 22" version="1.1" xmlns="http://www.w3.org/2000/svg" xmlns:xlink="http://www.w3.org/1999/xlink">
    <!-- Generator: Sketch 42 (36781) - http://www.bohemiancoding.com/sketch -->
    <title>Fill 171 + Fill 172</title>
    <desc>Created with Sketch.</desc>
    <defs></defs>
    <g id="Page-1" stroke="none" stroke-width="1" fill="none" fill-rule="evenodd">
        <g id="Solid-Icons" transform="translate(-341.000000, -337.000000)" fill="#757575">
            <g id="Fill-171-+-Fill-172" transform="translate(341.000000, 337.000000)">
                <path d="M2.7192,12.0005 L4.7812,12.0005 L2.2812,2.0005 L5.1432,2.0005 L6.0002,8.0005 L8.0002,8.0005 L8.8572,2.0005 L11.7192,2.0005 L9.2192,12.0005 L11.2812,12.0005 L13.9702,1.2435 C14.0452,0.9445 13.9772,0.6275 13.7882,0.3855 C13.5982,0.1425 13.3082,0.0005 13.0002,0.0005 L1.0002,0.0005 C0.6922,0.0005 0.4012,0.1425 0.2122,0.3855 C0.0222,0.6275 -0.0448,0.9445 0.0302,1.2435 L2.7192,12.0005 Z" id="Fill-171"></path>
                <polygon id="Fill-172" points="7 10.0005 8.714 14.2865 13 14.2865 9.292 17.4165 11.285 22.0005 7 19.1655 2.714 22.0005 4.708 17.4165 1 14.2865 5.285 14.2865"></polygon>
            </g>
        </g>
    </g>
</svg>