<?xml version="1.0" encoding="UTF-8"?>
<svg width="20px" height="17px" viewBox="0 0 20 17" version="1.1" xmlns="http://www.w3.org/2000/svg" xmlns:xlink="http://www.w3.org/1999/xlink">
    <!-- Generator: Sketch 42 (36781) - http://www.bohemiancoding.com/sketch -->
    <title>Fill 876</title>
    <desc>Created with Sketch.</desc>
    <defs></defs>
    <g id="Page-1" stroke="none" stroke-width="1" fill="none" fill-rule="evenodd">
        <g id="Solid-Icons" transform="translate(-338.000000, -1588.000000)" fill="#757575">
            <g id="Fill-876" transform="translate(338.000000, 1588.000000)">
                <path d="M14,11.001 L6,11.001 L6,9.001 L14,9.001 L14,11.001 Z M18,3.001 L10,3.001 L8.553,1.106 C8.214,0.428 7.522,0.001 6.764,0.001 L1,0.001 C0.447,0.001 0,0.448 0,1.001 L0,15.001 C0,16.105 0.896,17.001 2,17.001 L18,17.001 C19.104,17.001 20,16.105 20,15.001 L20,5.001 C20,3.896 19.104,3.001 18,3.001 L18,3.001 Z"></path>
            </g>
        </g>
    </g>
</svg>