<?xml version="1.0" encoding="UTF-8"?>
<svg width="19px" height="15px" viewBox="0 0 19 15" version="1.1" xmlns="http://www.w3.org/2000/svg" xmlns:xlink="http://www.w3.org/1999/xlink">
    <!-- Generator: Sketch 42 (36781) - http://www.bohemiancoding.com/sketch -->
    <title>Fill 691 + Fill 692 + Fill 693</title>
    <desc>Created with Sketch.</desc>
    <defs></defs>
    <g id="Page-1" stroke="none" stroke-width="1" fill="none" fill-rule="evenodd">
        <g id="Solid-Icons" transform="translate(-147.000000, -1255.000000)" fill="#767676">
            <g id="Fill-691-+-Fill-692-+-Fill-693" transform="translate(147.000000, 1255.000000)">
                <path d="M14.0005,11.0044 C12.8955,11.0044 12.0005,11.9004 12.0005,13.0044 C12.0005,14.1084 12.8955,15.0044 14.0005,15.0044 C15.1045,15.0044 16.0005,14.1084 16.0005,13.0044 C16.0005,11.9004 15.1045,11.0044 14.0005,11.0044" id="Fill-691"></path>
                <path d="M5.0005,11.0044 C3.8955,11.0044 3.0005,11.9004 3.0005,13.0044 C3.0005,14.1084 3.8955,15.0044 5.0005,15.0044 C6.1045,15.0044 7.0005,14.1084 7.0005,13.0044 C7.0005,11.9004 6.1045,11.0044 5.0005,11.0044" id="Fill-692"></path>
                <path d="M5.0903,7.0044 C5.5683,4.1674 8.0283,2.0044 11.0003,2.0044 C13.9733,2.0044 16.4333,4.1674 16.9103,7.0044 L5.0903,7.0044 Z M16.9633,3.2394 C15.7083,1.2774 13.5183,0.0044 11.0663,0.0044 C11.0553,0.0044 11.0443,0.0064 11.0333,0.0064 C11.0233,0.0064 11.0113,0.0044 11.0003,0.0044 C6.9793,0.0044 3.6603,2.9754 3.0953,6.8394 L3.0003,7.0044 L2.0003,7.0044 C0.8963,7.0044 0.0003,7.9004 0.0003,9.0044 L0.0003,12.0044 C0.0003,12.5564 0.4483,13.0044 1.0003,13.0044 L2.0003,13.0044 C2.0003,11.3484 3.3443,10.0044 5.0003,10.0044 C6.6563,10.0044 8.0003,11.3484 8.0003,13.0044 L11.0003,13.0044 C11.0003,11.3484 12.3443,10.0044 14.0003,10.0044 C15.6563,10.0044 17.0003,11.3484 17.0003,13.0044 L18.0003,13.0044 C18.5523,13.0044 19.0003,12.5564 19.0003,12.0044 L19.0003,9.0044 C19.0003,6.9594 18.2263,4.8844 16.9633,3.2394 L16.9633,3.2394 Z" id="Fill-693"></path>
            </g>
        </g>
    </g>
</svg>