<?xml version="1.0" encoding="UTF-8"?>
<svg width="24px" height="20px" viewBox="0 0 24 20" version="1.1" xmlns="http://www.w3.org/2000/svg" xmlns:xlink="http://www.w3.org/1999/xlink">
    <!-- Generator: Sketch 42 (36781) - http://www.bohemiancoding.com/sketch -->
    <title>Fill 425</title>
    <desc>Created with Sketch.</desc>
    <defs></defs>
    <g id="Page-1" stroke="none" stroke-width="1" fill="none" fill-rule="evenodd">
        <g id="Solid-Icons" transform="translate(-144.000000, -770.000000)" fill="#767676">
            <g id="Fill-425" transform="translate(144.000000, 770.000000)">
                <path d="M22,5.0005 L20,5.0005 L20,3.0005 C20,2.4485 20.449,2.0005 21,2.0005 C21.551,2.0005 22,2.4485 22,3.0005 L22,5.0005 Z M18,5.0005 L11,5.0005 L11,3.0005 L18,3.0005 L18,5.0005 Z M18,8.0005 L11,8.0005 L11,6.0005 L18,6.0005 L18,8.0005 Z M18,11.0005 L11,11.0005 L11,9.0005 L18,9.0005 L18,11.0005 Z M10.367,17.0005 C10.738,16.0005 11.486,15.0005 13,15.0005 C13.449,15.0005 14,15.5525 14,16.0005 C14,16.3485 14.077,16.6835 14.197,17.0005 L10.367,17.0005 Z M21,0.0005 L12,0.0005 C10.346,0.0005 9,1.3465 9,3.0005 L9,12.0005 L14,12.0005 C16,12.0005 17,14.0005 17,15.0005 L17,17.0005 C16.446,17.0005 16,16.4535 16,16.0005 C16,14.4585 14.542,13.0005 13,13.0005 L5,13.0005 C1.224,13.0005 0.067,18.5675 0.02,18.8045 C-0.04,19.0985 0.037,19.4025 0.227,19.6345 C0.417,19.8665 0.7,20.0005 1,20.0005 L9,20.0005 C9.552,20.0005 10,19.5525 10,19.0005 L17,19.0005 C18.654,19.0005 20,17.6545 20,16.0005 L20,7.0005 L23,7.0005 C23.552,7.0005 24,6.5525 24,6.0005 L24,3.0005 C24,1.3465 22.654,0.0005 21,0.0005 L21,0.0005 Z"></path>
            </g>
        </g>
    </g>
</svg>