<?xml version="1.0" encoding="UTF-8"?>
<svg width="20px" height="20px" viewBox="0 0 20 20" version="1.1" xmlns="http://www.w3.org/2000/svg" xmlns:xlink="http://www.w3.org/1999/xlink">
    <!-- Generator: Sketch 42 (36781) - http://www.bohemiancoding.com/sketch -->
    <title>Fill 565 + Fill 566</title>
    <desc>Created with Sketch.</desc>
    <defs></defs>
    <g id="Page-1" stroke="none" stroke-width="1" fill="none" fill-rule="evenodd">
        <g id="Solid-Icons" transform="translate(-386.000000, -1010.000000)" fill="#767676">
            <g id="Fill-565-+-Fill-566" transform="translate(386.000000, 1010.000000)">
                <path d="M1.001,15.0022 L1.001,17.0022 L3.001,17.0022 L3.001,19.0022 C3.001,19.5542 3.449,20.0022 4.001,20.0022 L16.001,20.0022 C16.553,20.0022 17.001,19.5542 17.001,19.0022 L17.001,17.0022 L19.001,17.0022 L19.001,15.0022 L1.001,15.0022 Z" id="Fill-565"></path>
                <path d="M19.0923,3.4878 L17.2923,0.4878 C17.1113,0.1868 16.7863,0.0018 16.4343,0.0018 L3.5673,0.0018 C3.2163,0.0018 2.8903,0.1868 2.7103,0.4878 L0.9093,3.4878 C0.7243,3.7968 0.7193,4.1818 0.8973,4.4948 C1.0743,4.8088 1.4063,5.0018 1.7673,5.0018 L3.0013,5.0018 L3.0013,14.0018 L5.0013,14.0018 L5.0013,5.0018 L9.0013,5.0018 L9.0013,8.0018 L8.2203,8.0018 C7.9213,8.0018 7.6373,8.1358 7.4473,8.3678 C7.2573,8.5998 7.1813,8.9048 7.2403,9.1988 L7.8403,12.1988 C7.9333,12.6668 8.3443,13.0018 8.8213,13.0018 L11.1813,13.0018 C11.6573,13.0018 12.0683,12.6668 12.1613,12.1988 L12.7613,9.1988 C12.8203,8.9048 12.7443,8.5998 12.5543,8.3678 C12.3643,8.1358 12.0813,8.0018 11.7813,8.0018 L11.0013,8.0018 L11.0013,5.0018 L15.0013,5.0018 L15.0013,14.0018 L17.0013,14.0018 L17.0013,5.0018 L18.2353,5.0018 C18.5953,5.0018 18.9273,4.8088 19.1053,4.4948 C19.2823,4.1818 19.2783,3.7968 19.0923,3.4878" id="Fill-566"></path>
            </g>
        </g>
    </g>
</svg>