<?xml version="1.0" encoding="UTF-8"?>
<svg width="22px" height="21px" viewBox="0 0 22 21" version="1.1" xmlns="http://www.w3.org/2000/svg" xmlns:xlink="http://www.w3.org/1999/xlink">
    <!-- Generator: Sketch 42 (36781) - http://www.bohemiancoding.com/sketch -->
    <title>Fill 51</title>
    <desc>Created with Sketch.</desc>
    <defs></defs>
    <g id="Page-1" stroke="none" stroke-width="1" fill="none" fill-rule="evenodd">
        <g id="Solid-Icons" transform="translate(-337.000000, -49.000000)" fill="#757575">
            <g id="Fill-51" transform="translate(337.000000, 49.000000)">
                <path d="M19,12 L15,12 L15,8 L19,8 L19,12 Z M13,12 L9,12 L9,8 L13,8 L13,12 Z M13,18 L9,18 L9,14 L13,14 L13,18 Z M7,12 L3,12 L3,8 L7,8 L7,12 Z M7,18 L3,18 L3,14 L7,14 L7,18 Z M20,2 L18,2 L18,0 L16,0 L16,5 L14,5 L14,2 L8,2 L8,0 L6,0 L6,5 L4,5 L4,2 L2,2 C0.897,2 0,2.898 0,4 L0,19 C0,20.103 0.897,21 2,21 L20,21 C21.103,21 22,20.103 22,19 L22,4 C22,2.898 21.103,2 20,2 L20,2 Z"></path>
            </g>
        </g>
    </g>
</svg>