<?xml version="1.0" encoding="UTF-8"?>
<svg width="22px" height="18px" viewBox="0 0 22 18" version="1.1" xmlns="http://www.w3.org/2000/svg" xmlns:xlink="http://www.w3.org/1999/xlink">
    <!-- Generator: Sketch 42 (36781) - http://www.bohemiancoding.com/sketch -->
    <title>Fill 558 + Fill 559 + Fill 560</title>
    <desc>Created with Sketch.</desc>
    <defs></defs>
    <g id="Page-1" stroke="none" stroke-width="1" fill="none" fill-rule="evenodd">
        <g id="Solid-Icons" transform="translate(-97.000000, -1012.000000)" fill="#767676">
            <g id="Fill-558-+-Fill-559-+-Fill-560" transform="translate(97.000000, 1012.000000)">
                <path d="M21.48,5.7178 L11.48,0.2628 C11.182,0.0998 10.82,0.0998 10.522,0.2628 L0.522,5.7178 C0.201,5.8918 0.001,6.2288 0.001,6.5948 L0.001,8.0018 C0.001,8.5538 0.449,9.0018 1.001,9.0018 L2.001,9.0018 L2.001,17.0018 C2.001,17.5538 2.449,18.0018 3.001,18.0018 L5.001,18.0018 L5.001,10.0018 L17.001,10.0018 L17.001,18.0018 L19.001,18.0018 C19.553,18.0018 20.001,17.5538 20.001,17.0018 L20.001,9.0018 L21.001,9.0018 C21.553,9.0018 22.001,8.5538 22.001,8.0018 L22.001,6.5948 C22.001,6.2288 21.801,5.8918 21.48,5.7178" id="Fill-558"></path>
                <polygon id="Fill-559" points="7.001 14.002 15.001 14.002 15.001 12.002 7.001 12.002"></polygon>
                <polygon id="Fill-560" points="7.001 18.002 15.001 18.002 15.001 16.002 7.001 16.002"></polygon>
            </g>
        </g>
    </g>
</svg>