<?xml version="1.0" encoding="UTF-8"?>
<svg width="20px" height="20px" viewBox="0 0 20 20" version="1.1" xmlns="http://www.w3.org/2000/svg" xmlns:xlink="http://www.w3.org/1999/xlink">
    <!-- Generator: Sketch 42 (36781) - http://www.bohemiancoding.com/sketch -->
    <title>Fill 386 + Fill 387</title>
    <desc>Created with Sketch.</desc>
    <defs></defs>
    <g id="Page-1" stroke="none" stroke-width="1" fill="none" fill-rule="evenodd">
        <g id="Solid-Icons" transform="translate(-2.000000, -722.000000)" fill="#767676">
            <g id="Fill-386-+-Fill-387" transform="translate(2.000000, 722.000000)">
                <path d="M12.0039,17.5025 C12.0039,17.7785 11.7799,18.0025 11.5039,18.0025 C11.2279,18.0025 11.0039,17.7785 11.0039,17.5025 L11.0039,13.0025 L9.0039,13.0025 L9.0039,17.5025 C9.0039,18.8815 10.1259,20.0025 11.5039,20.0025 C12.8819,20.0025 14.0039,18.8815 14.0039,17.5025 L14.0039,17.0025 L12.0039,17.0025 L12.0039,17.5025 Z" id="Fill-386"></path>
                <path d="M11.0029,2.0532 L11.0039,1.0022 C11.0039,0.4492 10.5559,0.0022 10.0039,0.0022 C9.4509,0.0022 9.0039,0.4492 9.0039,1.0022 L9.0029,2.0532 C3.9779,2.5522 0.0499,6.7732 0.0079,11.9192 C1.3349,10.7312 3.0819,10.0022 5.0039,10.0022 C6.9289,10.0022 8.6789,10.7342 10.0069,11.9262 C11.3339,10.7362 13.0799,10.0022 15.0039,10.0022 C16.9259,10.0022 18.6719,10.7312 19.9999,11.9192 C19.9579,6.7722 16.0279,2.5512 11.0029,2.0532" id="Fill-387"></path>
            </g>
        </g>
    </g>
</svg>