<?xml version="1.0" encoding="UTF-8"?>
<svg width="19px" height="18px" viewBox="0 0 19 18" version="1.1" xmlns="http://www.w3.org/2000/svg" xmlns:xlink="http://www.w3.org/1999/xlink">
    <!-- Generator: Sketch 42 (36781) - http://www.bohemiancoding.com/sketch -->
    <title>Fill 362 + Fill 363 + Fill 364</title>
    <desc>Created with Sketch.</desc>
    <defs></defs>
    <g id="Page-1" stroke="none" stroke-width="1" fill="none" fill-rule="evenodd">
        <g id="Solid-Icons" transform="translate(-242.000000, -675.000000)" fill="#767676">
            <g id="Fill-362-+-Fill-363-+-Fill-364" transform="translate(242.000000, 675.000000)">
                <path d="M9.3828,0.0791 C9.0088,-0.0749 8.5788,0.0101 8.2928,0.2961 L3.9998,5.0031 L0.9998,5.0031 C0.4498,5.0031 -0.0002,5.4541 -0.0002,6.0031 L-0.0002,12.0031 C-0.0002,12.5531 0.4498,13.0031 0.9998,13.0031 L3.9998,13.0031 L8.2928,17.7101 C8.5788,17.9961 9.0088,18.0821 9.3828,17.9271 C9.7568,17.7731 9.9998,17.4081 9.9998,17.0031 L9.9998,1.0031 C9.9998,0.5991 9.7568,0.2331 9.3828,0.0791" id="Fill-362"></path>
                <path d="M12,2.0029 L12,4.0029 C14.757,4.0029 17,6.2469 17,9.0029 C17,11.7599 14.757,14.0029 12,14.0029 L12,16.0029 C15.86,16.0029 19,12.8639 19,9.0029 C19,5.1429 15.86,2.0029 12,2.0029" id="Fill-363"></path>
                <path d="M15,9.0029 C15,7.3499 13.654,6.0029 12,6.0029 L12,8.0029 C12.551,8.0029 13,8.4519 13,9.0029 C13,9.5539 12.551,10.0029 12,10.0029 L12,12.0029 C13.654,12.0029 15,10.6579 15,9.0029" id="Fill-364"></path>
            </g>
        </g>
    </g>
</svg>