<?xml version="1.0" encoding="UTF-8"?>
<svg width="20px" height="20px" viewBox="0 0 20 20" version="1.1" xmlns="http://www.w3.org/2000/svg" xmlns:xlink="http://www.w3.org/1999/xlink">
    <!-- Generator: Sketch 42 (36781) - http://www.bohemiancoding.com/sketch -->
    <title>Fill 390</title>
    <desc>Created with Sketch.</desc>
    <defs></defs>
    <g id="Page-1" stroke="none" stroke-width="1" fill="none" fill-rule="evenodd">
        <g id="Solid-Icons" transform="translate(-194.000000, -722.000000)" fill="#767676">
            <g id="Fill-390" transform="translate(194.000000, 722.000000)">
                <path d="M16,8.003 L12,8.003 L12,6.003 L16,6.003 L16,8.003 Z M10,17.003 C7.609,17.003 5.412,15.87 4,14.045 L5.559,12.488 C6.555,13.922 8.195,14.833 10,14.833 C11.809,14.833 13.447,13.921 14.443,12.483 L16,14.041 C14.59,15.868 12.395,17.003 10,17.003 L10,17.003 Z M7,5.003 C8.105,5.003 9,5.898 9,7.003 C9,8.107 8.105,9.003 7,9.003 C5.895,9.003 5,8.107 5,7.003 C5,5.898 5.895,5.003 7,5.003 L7,5.003 Z M10,0.003 C4.477,0.003 0,4.479 0,10.003 C0,15.524 4.477,20.003 10,20.003 C15.522,20.003 20,15.524 20,10.003 C20,4.479 15.522,0.003 10,0.003 L10,0.003 Z"></path>
            </g>
        </g>
    </g>
</svg>