<?xml version="1.0" encoding="UTF-8"?>
<svg width="20px" height="18px" viewBox="0 0 20 18" version="1.1" xmlns="http://www.w3.org/2000/svg" xmlns:xlink="http://www.w3.org/1999/xlink">
    <!-- Generator: Sketch 42 (36781) - http://www.bohemiancoding.com/sketch -->
    <title>Fill 533</title>
    <desc>Created with Sketch.</desc>
    <defs></defs>
    <g id="Page-1" stroke="none" stroke-width="1" fill="none" fill-rule="evenodd">
        <g id="Solid-Icons" transform="translate(-2.000000, -1012.000000)" fill="#767676">
            <g id="Fill-533" transform="translate(2.000000, 1012.000000)">
                <path d="M16.001,14.001 L11.001,14.001 L11.001,11.001 L16.001,11.001 L16.001,14.001 Z M19.708,9.294 L18.001,7.587 L18.001,3.001 L15.001,3.001 L15.001,4.587 L10.708,0.294 C10.317,-0.097 9.684,-0.097 9.294,0.294 L0.294,9.294 C0.007,9.58 -0.079,10.01 0.077,10.384 C0.231,10.758 0.596,11.001 1.001,11.001 L2.001,11.001 L2.001,18.001 L5.001,18.001 L5.001,13.001 L8.001,13.001 L8.001,18.001 L18.001,18.001 L18.001,11.001 L19.001,11.001 C19.405,11.001 19.77,10.758 19.924,10.384 C20.08,10.01 19.994,9.58 19.708,9.294 L19.708,9.294 Z"></path>
            </g>
        </g>
    </g>
</svg>