<?xml version="1.0" encoding="UTF-8"?>
<svg width="18px" height="20px" viewBox="0 0 18 20" version="1.1" xmlns="http://www.w3.org/2000/svg" xmlns:xlink="http://www.w3.org/1999/xlink">
    <!-- Generator: Sketch 42 (36781) - http://www.bohemiancoding.com/sketch -->
    <title>Fill 356 + Fill 357 + Fill 358</title>
    <desc>Created with Sketch.</desc>
    <defs></defs>
    <g id="Page-1" stroke="none" stroke-width="1" fill="none" fill-rule="evenodd">
        <g id="Solid-Icons" transform="translate(-99.000000, -674.000000)" fill="#767676">
            <g id="Fill-356-+-Fill-357-+-Fill-358" transform="translate(99.000000, 674.000000)">
                <path d="M16,6.0034 L15.92,6.0034 C15.433,2.6164 12.52,0.0034 9,0.0034 C5.48,0.0034 2.567,2.6164 2.08,6.0034 L2,6.0034 C0.895,6.0034 0,6.8994 0,8.0034 L0,10.0034 C0,11.1074 0.895,12.0034 2,12.0034 L4,12.0034 L4,7.0034 C4,4.2464 6.243,2.0034 9,2.0034 C11.757,2.0034 14,4.2464 14,7.0034 L14,12.0034 L16,12.0034 C17.105,12.0034 18,11.1074 18,10.0034 L18,8.0034 C18,6.8994 17.105,6.0034 16,6.0034" id="Fill-356"></path>
                <path d="M13,8.0034 C13,5.7974 11.206,4.0034 9,4.0034 C6.794,4.0034 5,5.7974 5,8.0034 C5,10.2084 6.794,12.0034 9,12.0034 C11.206,12.0034 13,10.2084 13,8.0034" id="Fill-357"></path>
                <path d="M9,13.0034 C4.29,13.0034 1,15.4704 1,19.0034 L1,20.0034 L17,20.0034 L17,19.0034 C17,15.4704 13.71,13.0034 9,13.0034" id="Fill-358"></path>
            </g>
        </g>
    </g>
</svg>