<?xml version="1.0" encoding="UTF-8"?>
<svg width="17px" height="22px" viewBox="0 0 17 22" version="1.1" xmlns="http://www.w3.org/2000/svg" xmlns:xlink="http://www.w3.org/1999/xlink">
    <!-- Generator: Sketch 42 (36781) - http://www.bohemiancoding.com/sketch -->
    <title>Fill 316 + Fill 317</title>
    <desc>Created with Sketch.</desc>
    <defs></defs>
    <g id="Page-1" stroke="none" stroke-width="1" fill="none" fill-rule="evenodd">
        <g id="Solid-Icons" transform="translate(-99.000000, -577.000000)" fill="#767676">
            <g id="Fill-316-+-Fill-317" transform="translate(99.000000, 577.000000)">
                <path d="M7,5.8164 L7,9.0004 C7,9.5534 7.447,10.0004 8,10.0004 C8.553,10.0004 9,9.5534 9,9.0004 L9,5.8164 C10.163,5.4034 11.001,4.3054 11,2.9994 C11,1.3424 9.657,0.0004 8,0.0004 C6.343,0.0004 5.001,1.3424 5.001,2.9994 C5,4.3054 5.838,5.4034 7,5.8164" id="Fill-316"></path>
                <path d="M13,21.0005 L13,18.0005 L16,18.0005 L13,21.0005 Z M11,19.0005 L3,19.0005 L3,17.0005 L11,17.0005 L11,19.0005 Z M3,13.0005 L13,13.0005 L13,15.0005 L3,15.0005 L3,13.0005 Z M16,7.0005 L11,7.0005 L11,11.0005 L5,11.0005 L5,7.0005 L1,7.0005 C0.448,7.0005 0,7.4495 0,8.0005 L0,21.0005 C0,21.5535 0.448,22.0005 1,22.0005 L14,22.0005 C14.265,22.0005 14.52,21.8955 14.707,21.7085 L16.707,19.7085 C16.895,19.5205 17,19.2655 17,19.0005 L17,8.0005 C17,7.4495 16.552,7.0005 16,7.0005 L16,7.0005 Z" id="Fill-317"></path>
            </g>
        </g>
    </g>
</svg>