<?xml version="1.0" encoding="UTF-8"?>
<svg width="20px" height="24px" viewBox="0 0 20 24" version="1.1" xmlns="http://www.w3.org/2000/svg" xmlns:xlink="http://www.w3.org/1999/xlink">
    <!-- Generator: Sketch 42 (36781) - http://www.bohemiancoding.com/sketch -->
    <title>Fill 394 + Fill 395</title>
    <desc>Created with Sketch.</desc>
    <defs></defs>
    <g id="Page-1" stroke="none" stroke-width="1" fill="none" fill-rule="evenodd">
        <g id="Solid-Icons" transform="translate(-2.000000, -769.000000)" fill="#767676">
            <g id="Fill-394-+-Fill-395" transform="translate(1.000000, 769.000000)">
                <path d="M6,4.0054 L16,4.0054 C16.552,4.0054 17,3.5574 17,3.0054 L17,1.0054 C17,0.4534 16.552,0.0054 16,0.0054 L6,0.0054 C5.448,0.0054 5,0.4534 5,1.0054 L5,3.0054 C5,3.5574 5.448,4.0054 6,4.0054" id="Fill-394"></path>
                <path d="M20.4106,18.2236 L14.9996,11.6466 L14.9996,5.0056 L12.9996,5.0056 L12.9996,6.0056 L10.9996,6.0056 L10.9996,8.0056 L12.9996,8.0056 L12.9996,9.0056 L9.9996,9.0056 L9.9996,11.0056 L12.9996,11.0056 L12.9996,12.0056 C12.9996,12.2376 13.0806,12.4626 13.2276,12.6406 L15.9986,16.0056 L6.0036,16.0056 L8.7716,12.6406 C8.9196,12.4626 8.9996,12.2376 8.9996,12.0056 L8.9996,5.0056 L6.9996,5.0056 L6.9996,11.6466 L1.5416,18.2856 C0.8986,19.2056 0.8206,20.3946 1.3386,21.3916 C1.8576,22.3876 2.8766,23.0056 3.9996,23.0056 L17.9996,23.0056 C19.1226,23.0056 20.1426,22.3876 20.6616,21.3906 C21.1796,20.3946 21.1016,19.2056 20.4106,18.2236" id="Fill-395"></path>
            </g>
        </g>
    </g>
</svg>