<?xml version="1.0" encoding="UTF-8"?>
<svg width="18px" height="24px" viewBox="0 0 18 24" version="1.1" xmlns="http://www.w3.org/2000/svg" xmlns:xlink="http://www.w3.org/1999/xlink">
    <!-- Generator: Sketch 42 (36781) - http://www.bohemiancoding.com/sketch -->
    <title>Fill 218 + Fill 219 + Fill 220</title>
    <desc>Created with Sketch.</desc>
    <defs></defs>
    <g id="Page-1" stroke="none" stroke-width="1" fill="none" fill-rule="evenodd">
        <g id="Solid-Icons" transform="translate(-291.000000, -432.000000)" fill="#757575">
            <g id="Fill-218-+-Fill-219-+-Fill-220" transform="translate(291.000000, 432.000000)">
                <path d="M10.5,13.5005 C11.052,13.5005 11.5,13.9485 11.5,14.5005 C11.5,15.0535 11.052,15.5005 10.5,15.5005 C9.948,15.5005 9.5,15.0535 9.5,14.5005 C9.5,13.9485 9.948,13.5005 10.5,13.5005 L10.5,13.5005 Z M13.5,13.5005 C14.052,13.5005 14.5,13.9485 14.5,14.5005 C14.5,15.0535 14.052,15.5005 13.5,15.5005 C12.948,15.5005 12.5,15.0535 12.5,14.5005 C12.5,13.9485 12.948,13.5005 13.5,13.5005 L13.5,13.5005 Z M18,17.0005 L18,14.0005 C18,12.8975 17.103,12.0005 16,12.0005 L2,12.0005 C0.897,12.0005 0,12.8975 0,14.0005 L0,17.0005 L18,17.0005 Z" id="Fill-218"></path>
                <path d="M13.5,22.5005 C12.948,22.5005 12.5,22.0535 12.5,21.5005 C12.5,20.9485 12.948,20.5005 13.5,20.5005 C14.052,20.5005 14.5,20.9485 14.5,21.5005 C14.5,22.0535 14.052,22.5005 13.5,22.5005 L13.5,22.5005 Z M10.5,22.5005 C9.948,22.5005 9.5,22.0535 9.5,21.5005 C9.5,20.9485 9.948,20.5005 10.5,20.5005 C11.052,20.5005 11.5,20.9485 11.5,21.5005 C11.5,22.0535 11.052,22.5005 10.5,22.5005 L10.5,22.5005 Z M18,19.0005 L0,19.0005 L0,22.0005 C0,23.1035 0.897,24.0005 2,24.0005 L16,24.0005 C17.103,24.0005 18,23.1035 18,22.0005 L18,19.0005 Z" id="Fill-219"></path>
                <path d="M11.1001,0.0005 C9.4661,0.0005 8.0081,0.8165 7.1141,2.1065 C8.2291,2.4715 9.0621,3.5975 9.2711,4.0865 C9.2571,4.0975 8.4521,4.6795 8.4221,4.7005 C7.3741,3.1825 6.4751,2.8575 5.5001,2.8575 C3.5701,2.8575 2.0001,4.4605 2.0001,6.4295 C2.0001,8.3985 3.5701,10.0005 5.5001,10.0005 L11.1001,10.0005 C13.8021,10.0005 16.0001,7.7575 16.0001,5.0005 C16.0001,2.2435 13.8021,0.0005 11.1001,0.0005" id="Fill-220"></path>
            </g>
        </g>
    </g>
</svg>