<?xml version="1.0" encoding="UTF-8"?>
<svg width="17px" height="19px" viewBox="0 0 17 19" version="1.1" xmlns="http://www.w3.org/2000/svg" xmlns:xlink="http://www.w3.org/1999/xlink">
    <!-- Generator: Sketch 42 (36781) - http://www.bohemiancoding.com/sketch -->
    <title>Fill 359</title>
    <desc>Created with Sketch.</desc>
    <defs></defs>
    <g id="Page-1" stroke="none" stroke-width="1" fill="none" fill-rule="evenodd">
        <g id="Solid-Icons" transform="translate(-195.000000, -675.000000)" fill="#767676">
            <g id="Fill-359" transform="translate(195.000000, 675.000000)">
                <path d="M16.3955,0.2993 C16.0155,0.0163 15.5235,-0.0687 15.0695,0.0653 L5.0695,3.0653 C4.4345,3.2563 3.9995,3.8413 3.9995,4.5033 L3.9995,12.0543 C3.8355,12.0293 3.6715,12.0033 3.4995,12.0033 C1.5665,12.0033 -0.0005,13.5713 -0.0005,15.5033 C-0.0005,17.4343 1.5665,19.0033 3.4995,19.0033 C5.4335,19.0033 6.9995,17.4343 6.9995,15.5033 L6.9995,5.6183 L13.9995,3.5183 L13.9995,10.0543 C13.8355,10.0293 13.6715,10.0033 13.4995,10.0033 C11.5665,10.0033 9.9995,11.5713 9.9995,13.5033 C9.9995,15.4343 11.5665,17.0033 13.4995,17.0033 C15.4335,17.0033 16.9995,15.4343 16.9995,13.5033 L16.9995,1.5033 C16.9995,1.0283 16.7755,0.5823 16.3955,0.2993"></path>
            </g>
        </g>
    </g>
</svg>