<?xml version="1.0" encoding="UTF-8"?>
<svg width="14px" height="20px" viewBox="0 0 14 20" version="1.1" xmlns="http://www.w3.org/2000/svg" xmlns:xlink="http://www.w3.org/1999/xlink">
    <!-- Generator: Sketch 42 (36781) - http://www.bohemiancoding.com/sketch -->
    <title>Fill 144</title>
    <desc>Created with Sketch.</desc>
    <defs></defs>
    <g id="Page-1" stroke="none" stroke-width="1" fill="none" fill-rule="evenodd">
        <g id="Solid-Icons" transform="translate(-53.000000, -290.000000)" fill="#757575">
            <g id="Fill-144" transform="translate(53.000000, 290.000000)">
                <path d="M6,17.0005 L6,12.0005 L3,12.0005 L8,5.0005 L8,10.0005 L11,10.0005 L6,17.0005 Z M13,3.0005 L11,3.0005 L11,1.0005 C11,0.4485 10.552,0.0005 10,0.0005 L4,0.0005 C3.448,0.0005 3,0.4485 3,1.0005 L3,3.0005 L1,3.0005 C0.448,3.0005 0,3.4485 0,4.0005 L0,18.0005 C0,19.1035 0.897,20.0005 2,20.0005 L12,20.0005 C13.103,20.0005 14,19.1035 14,18.0005 L14,4.0005 C14,3.4485 13.552,3.0005 13,3.0005 L13,3.0005 Z"></path>
            </g>
        </g>
    </g>
</svg>