<?xml version="1.0" encoding="UTF-8"?>
<svg width="14px" height="20px" viewBox="0 0 14 20" version="1.1" xmlns="http://www.w3.org/2000/svg" xmlns:xlink="http://www.w3.org/1999/xlink">
    <!-- Generator: Sketch 42 (36781) - http://www.bohemiancoding.com/sketch -->
    <title>Fill 186</title>
    <desc>Created with Sketch.</desc>
    <defs></defs>
    <g id="Page-1" stroke="none" stroke-width="1" fill="none" fill-rule="evenodd">
        <g id="Solid-Icons" transform="translate(-245.000000, -386.000000)" fill="#757575">
            <g id="Fill-186" transform="translate(245.000000, 386.000000)">
                <path d="M7,16.0005 C6.172,16.0005 5.5,15.3285 5.5,14.5005 C5.5,13.6725 6.172,13.0005 7,13.0005 C7.828,13.0005 8.5,13.6725 8.5,14.5005 C8.5,15.3285 7.828,16.0005 7,16.0005 M12,9.0005 L4,9.0005 L4,5.0005 C4,3.3465 5.346,2.0005 7,2.0005 C8.654,2.0005 10,3.3465 10,5.0005 L10,6.0005 L12,6.0005 L12,5.0005 C12,2.2435 9.757,0.0005 7,0.0005 C4.243,0.0005 2,2.2435 2,5.0005 L2,9.0005 C0.897,9.0005 0,9.8965 0,11.0005 L0,18.0005 C0,19.1035 0.897,20.0005 2,20.0005 L12,20.0005 C13.103,20.0005 14,19.1035 14,18.0005 L14,11.0005 C14,9.8965 13.103,9.0005 12,9.0005"></path>
            </g>
        </g>
    </g>
</svg>