<?xml version="1.0" encoding="UTF-8"?>
<svg width="24px" height="24px" viewBox="0 0 24 24" version="1.1" xmlns="http://www.w3.org/2000/svg" xmlns:xlink="http://www.w3.org/1999/xlink">
    <!-- Generator: Sketch 42 (36781) - http://www.bohemiancoding.com/sketch -->
    <title>Fill 846 + Fill 847</title>
    <desc>Created with Sketch.</desc>
    <defs></defs>
    <g id="Page-1" stroke="none" stroke-width="1" fill="none" fill-rule="evenodd">
        <g id="Solid-Icons" transform="translate(-48.000000, -1536.000000)" fill="#767676">
            <g id="Fill-846-+-Fill-847" transform="translate(47.000000, 1536.000000)">
                <path d="M14.999,8.0015 C13.999,8.0015 12.999,9.0005 12.999,10.0005 C12.999,9.0005 11.999,8.0015 10.999,8.0015 C8.999,8.0015 7.999,9.3455 7.999,11.0005 C7.999,14.0005 12.999,17.0005 12.999,17.0005 C12.999,17.0005 17.999,14.0005 17.999,11.0005 C17.999,9.3455 16.999,8.0015 14.999,8.0015" id="Fill-846"></path>
                <path d="M13.999,19.9312 L13.999,19.0002 L11.999,19.0002 L11.999,19.9312 C8.388,19.4782 5.522,16.6132 5.068,13.0002 L5.999,13.0002 L5.999,11.0002 L5.068,11.0002 C5.522,7.3892 8.388,4.5242 11.999,4.0712 L11.999,5.0002 L13.999,5.0002 L13.999,4.0712 C17.61,4.5242 20.476,7.3892 20.93,11.0002 L19.999,11.0002 L19.999,13.0002 L20.93,13.0002 C20.476,16.6132 17.611,19.4782 13.999,19.9312 L13.999,19.9312 Z M24.999,11.0002 L22.948,11.0002 C22.478,6.2842 18.716,2.5232 13.999,2.0522 L13.999,0.0002 L11.999,0.0002 L11.999,2.0522 C7.282,2.5232 3.52,6.2842 3.05,11.0002 L0.999,11.0002 L0.999,13.0002 L3.05,13.0002 C3.52,17.7182 7.282,21.4792 11.999,21.9502 L11.999,24.0002 L13.999,24.0002 L13.999,21.9502 C18.716,21.4792 22.478,17.7182 22.948,13.0002 L24.999,13.0002 L24.999,11.0002 Z" id="Fill-847"></path>
            </g>
        </g>
    </g>
</svg>