<?xml version="1.0" encoding="UTF-8"?>
<svg width="24px" height="22px" viewBox="0 0 24 22" version="1.1" xmlns="http://www.w3.org/2000/svg" xmlns:xlink="http://www.w3.org/1999/xlink">
    <!-- Generator: Sketch 42 (36781) - http://www.bohemiancoding.com/sketch -->
    <title>Fill 649 + Fill 650 + Fill 651</title>
    <desc>Created with Sketch.</desc>
    <defs></defs>
    <g id="Page-1" stroke="none" stroke-width="1" fill="none" fill-rule="evenodd">
        <g id="Solid-Icons" transform="translate(-48.000000, -1201.000000)" fill="#767676">
            <g id="Fill-649-+-Fill-650-+-Fill-651" transform="translate(48.000000, 1201.000000)">
                <path d="M14.4995,11.0005 L10.9995,15.0005 L10.9995,12.0005 L9.4995,12.0005 L12.9995,8.0005 L12.9995,11.0005 L14.4995,11.0005 Z M12.9995,4.0005 L10.9995,4.0005 C10.4475,4.0005 9.9995,4.4485 9.9995,5.0005 L9.9995,6.0005 L8.9995,6.0005 C8.4475,6.0005 7.9995,6.4485 7.9995,7.0005 L7.9995,15.0005 C7.9995,16.1035 8.8965,17.0005 9.9995,17.0005 L13.9995,17.0005 C15.1025,17.0005 15.9995,16.1035 15.9995,15.0005 L15.9995,7.0005 C15.9995,6.4485 15.5515,6.0005 14.9995,6.0005 L13.9995,6.0005 L13.9995,5.0005 C13.9995,4.4485 13.5515,4.0005 12.9995,4.0005 L12.9995,4.0005 Z" id="Fill-649"></path>
                <path d="M11.9995,20.0005 C7.9455,20.0005 4.5105,17.3045 3.3885,13.6115 L5.9995,11.0005 L-0.0005,11.0005 L-0.0005,17.0005 L1.8265,15.1735 C3.4745,19.1745 7.4115,22.0005 11.9995,22.0005 C17.3815,22.0005 21.8645,18.1125 22.8085,13.0005 L20.7675,13.0005 C19.8555,17.0025 16.2735,20.0005 11.9995,20.0005" id="Fill-650"></path>
                <path d="M22.1724,6.8276 C20.5244,2.8266 16.5874,0.0006 11.9994,0.0006 C6.6174,0.0006 2.1344,3.8886 1.1904,9.0006 L3.2314,9.0006 C4.1444,4.9986 7.7254,2.0006 11.9994,2.0006 C16.0544,2.0006 19.4884,4.6966 20.6104,8.3896 L17.9994,11.0006 L23.9994,11.0006 L23.9994,5.0006 L22.1724,6.8276 Z" id="Fill-651"></path>
            </g>
        </g>
    </g>
</svg>