<?xml version="1.0" encoding="UTF-8"?>
<svg width="20px" height="20px" viewBox="0 0 20 20" version="1.1" xmlns="http://www.w3.org/2000/svg" xmlns:xlink="http://www.w3.org/1999/xlink">
    <!-- Generator: Sketch 42 (36781) - http://www.bohemiancoding.com/sketch -->
    <title>Fill 845</title>
    <desc>Created with Sketch.</desc>
    <defs></defs>
    <g id="Page-1" stroke="none" stroke-width="1" fill="none" fill-rule="evenodd">
        <g id="Solid-Icons" transform="translate(-2.000000, -1538.000000)" fill="#B4B4B4">
            <g id="Fill-845" transform="translate(2.000000, 1538.000000)">
                <path d="M19.707,9.2935 L16.707,6.2935 L15.293,7.7075 L16.586,9.0005 L3.414,9.0005 L8.378,4.0365 C10.382,4.2195 12.061,5.8115 12.708,8.0005 L14.77,8.0005 C13.989,4.5555 11.255,2.0005 8,2.0005 C6.897,2.0005 6,1.1025 6,0.0005 L4,0.0005 C4,1.5115 4.853,2.8135 6.092,3.4945 L0.293,9.2935 C-0.098,9.6845 -0.098,10.3165 0.293,10.7075 L6.092,16.5075 C4.853,17.1865 4,18.4895 4,20.0005 L6,20.0005 C6,18.8975 6.897,18.0005 8,18.0005 C11.255,18.0005 13.989,15.4455 14.77,12.0005 L12.708,12.0005 C12.061,14.1885 10.382,15.7815 8.378,15.9645 L3.414,11.0005 L16.586,11.0005 L15.293,12.2935 L16.707,13.7075 L19.707,10.7075 C20.098,10.3165 20.098,9.6845 19.707,9.2935"></path>
            </g>
        </g>
    </g>
</svg>