<?xml version="1.0" encoding="UTF-8"?>
<svg width="20px" height="20px" viewBox="0 0 20 20" version="1.1" xmlns="http://www.w3.org/2000/svg" xmlns:xlink="http://www.w3.org/1999/xlink">
    <!-- Generator: Sketch 42 (36781) - http://www.bohemiancoding.com/sketch -->
    <title>Fill 111</title>
    <desc>Created with Sketch.</desc>
    <defs></defs>
    <g id="Page-1" stroke="none" stroke-width="1" fill="none" fill-rule="evenodd">
        <g id="Solid-Icons" transform="translate(-146.000000, -194.000000)" fill="#757575">
            <g id="Fill-111" transform="translate(146.000000, 194.000000)">
                <path d="M10,12.0005 C7.95,12.0005 6.194,10.7645 5.422,9.0005 L14.578,9.0005 C13.806,10.7645 12.05,12.0005 10,12.0005 M7,3.7505 C7.689,3.7505 8.25,4.3105 8.25,5.0005 C8.25,5.6905 7.689,6.2505 7,6.2505 C6.311,6.2505 5.75,5.6905 5.75,5.0005 C5.75,4.3105 6.311,3.7505 7,3.7505 M13,3.7505 C13.689,3.7505 14.25,4.3105 14.25,5.0005 C14.25,5.6905 13.689,6.2505 13,6.2505 C12.311,6.2505 11.75,5.6905 11.75,5.0005 C11.75,4.3105 12.311,3.7505 13,3.7505 M18,0.0005 L2,0.0005 C0.895,0.0005 0,0.8965 0,2.0005 L0,14.0005 C0,15.1045 0.895,16.0005 2,16.0005 L3,16.0005 L3,20.0005 L7,16.0005 L18,16.0005 C19.105,16.0005 20,15.1045 20,14.0005 L20,2.0005 C20,0.8965 19.105,0.0005 18,0.0005"></path>
            </g>
        </g>
    </g>
</svg>