<?xml version="1.0" encoding="UTF-8"?>
<svg width="20px" height="21px" viewBox="0 0 20 21" version="1.1" xmlns="http://www.w3.org/2000/svg" xmlns:xlink="http://www.w3.org/1999/xlink">
    <!-- Generator: Sketch 42 (36781) - http://www.bohemiancoding.com/sketch -->
    <title>Fill 332 + Fill 333</title>
    <desc>Created with Sketch.</desc>
    <defs></defs>
    <g id="Page-1" stroke="none" stroke-width="1" fill="none" fill-rule="evenodd">
        <g id="Solid-Icons" transform="translate(-290.000000, -578.000000)" fill="#767676">
            <g id="Fill-332-+-Fill-333" transform="translate(290.000000, 578.000000)">
                <path d="M10,8.0039 C8.897,8.0039 8,8.9009 8,10.0039 C8,11.1069 8.897,12.0039 10,12.0039 C11.103,12.0039 12,11.1069 12,10.0039 C12,8.9009 11.103,8.0039 10,8.0039" id="Fill-332"></path>
                <path d="M18,8.0039 L16,8.0039 L16,4.0039 L12,4.0039 L12,2.0039 L16,2.0039 C17.103,2.0039 18,2.9009 18,4.0039 L18,8.0039 Z M18,16.0039 C18,17.1069 17.103,18.0039 16,18.0039 L12,18.0039 L12,16.0039 L16,16.0039 L16,12.0039 L18,12.0039 L18,16.0039 Z M11,16.0039 L9,16.0039 L9,13.8619 C7.601,13.4979 6.506,12.4029 6.142,11.0039 L4,11.0039 L4,9.0039 L6.142,9.0039 C6.506,7.6049 7.601,6.5099 9,6.1459 L9,4.0039 L11,4.0039 L11,6.1459 C12.399,6.5099 13.494,7.6049 13.858,9.0039 L16,9.0039 L16,11.0039 L13.858,11.0039 C13.494,12.4029 12.399,13.4979 11,13.8619 L11,16.0039 Z M8,18.0039 L4,18.0039 C2.897,18.0039 2,17.1069 2,16.0039 L2,12.0039 L4,12.0039 L4,16.0039 L8,16.0039 L8,18.0039 Z M2,4.0039 C2,2.9009 2.897,2.0039 4,2.0039 L8,2.0039 L8,4.0039 L4,4.0039 L4,8.0039 L2,8.0039 L2,4.0039 Z M18,0.0039 L2,0.0039 C0.896,0.0039 0,0.8999 0,2.0039 L0,18.0039 C0,19.1079 0.896,20.0039 2,20.0039 L18,20.0039 C19.104,20.0039 20,19.1079 20,18.0039 L20,2.0039 C20,0.8999 19.104,0.0039 18,0.0039 L18,0.0039 Z" id="Fill-333"></path>
            </g>
        </g>
    </g>
</svg>