<?xml version="1.0" encoding="UTF-8"?>
<svg width="20px" height="17px" viewBox="0 0 20 17" version="1.1" xmlns="http://www.w3.org/2000/svg" xmlns:xlink="http://www.w3.org/1999/xlink">
    <!-- Generator: Sketch 42 (36781) - http://www.bohemiancoding.com/sketch -->
    <title>Fill 875</title>
    <desc>Created with Sketch.</desc>
    <defs></defs>
    <g id="Page-1" stroke="none" stroke-width="1" fill="none" fill-rule="evenodd">
        <g id="Solid-Icons" transform="translate(-386.000000, -1588.000000)" fill="#757575">
            <g id="Fill-875" transform="translate(386.000000, 1588.000000)">
                <path d="M13.5352,12.1216 L12.1212,13.5356 L10.0002,11.4146 L7.8792,13.5356 L6.4652,12.1216 L8.5862,10.0006 L6.4652,7.8796 L7.8792,6.4656 L10.0002,8.5866 L12.1212,6.4656 L13.5352,7.8796 L11.4142,10.0006 L13.5352,12.1216 Z M18.0002,3.0006 L10.0002,3.0006 L8.5532,1.1066 C8.2142,0.4286 7.5212,0.0006 6.7642,0.0006 L1.0002,0.0006 C0.4472,0.0006 0.0002,0.4476 0.0002,1.0006 L0.0002,15.0006 C0.0002,16.1046 0.8952,17.0006 2.0002,17.0006 L18.0002,17.0006 C19.1042,17.0006 20.0002,16.1046 20.0002,15.0006 L20.0002,5.0006 C20.0002,3.8956 19.1042,3.0006 18.0002,3.0006 L18.0002,3.0006 Z"></path>
            </g>
        </g>
    </g>
</svg>