<?xml version="1.0" encoding="UTF-8"?>
<svg width="20px" height="19px" viewBox="0 0 20 19" version="1.1" xmlns="http://www.w3.org/2000/svg" xmlns:xlink="http://www.w3.org/1999/xlink">
    <!-- Generator: Sketch 42 (36781) - http://www.bohemiancoding.com/sketch -->
    <title>Fill 555 + Fill 556 + Fill 557</title>
    <desc>Created with Sketch.</desc>
    <defs></defs>
    <g id="Page-1" stroke="none" stroke-width="1" fill="none" fill-rule="evenodd">
        <g id="Solid-Icons" transform="translate(-98.000000, -1059.000000)" fill="#767676">
            <g id="Fill-555-+-Fill-556-+-Fill-557" transform="translate(98.000000, 1059.000000)">
                <path d="M18.001,9.5005 C19.105,9.5005 20.001,8.6045 20.001,7.5005 C20.001,6.3965 18.001,4.5005 18.001,4.5005 C18.001,4.5005 16.001,6.3965 16.001,7.5005 C16.001,8.6045 16.896,9.5005 18.001,9.5005" id="Fill-555"></path>
                <path d="M2.001,9.5005 C3.105,9.5005 4.001,8.6045 4.001,7.5005 C4.001,6.3965 2.001,4.5005 2.001,4.5005 C2.001,4.5005 0.001,6.3965 0.001,7.5005 C0.001,8.6045 0.896,9.5005 2.001,9.5005" id="Fill-556"></path>
                <path d="M15.001,15.0005 C15.001,14.4485 15.449,14.0005 16.001,14.0005 C16.553,14.0005 17.001,14.4485 17.001,15.0005 L17.001,17.0005 L15.001,17.0005 L15.001,15.0005 Z M5.001,17.0005 L3.001,17.0005 L3.001,15.0005 C3.001,14.4485 3.449,14.0005 4.001,14.0005 C4.553,14.0005 5.001,14.4485 5.001,15.0005 L5.001,17.0005 Z M13.001,7.1855 C13.616,6.7085 14.001,6.0075 14.001,5.0005 C14.001,2.7915 10.001,0.0005 10.001,0.0005 C10.001,0.0005 6.001,2.7915 6.001,5.0005 C6.001,6.0075 6.386,6.7085 7.001,7.1855 L7.001,10.0005 L0.001,10.0005 L0.001,19.0005 L8.001,19.0005 L8.001,16.0005 L10.001,14.0005 L12.001,16.0005 L12.001,19.0005 L20.001,19.0005 L20.001,10.0005 L13.001,10.0005 L13.001,7.1855 Z" id="Fill-557"></path>
            </g>
        </g>
    </g>
</svg>