<?xml version="1.0" encoding="UTF-8"?>
<svg width="18px" height="21px" viewBox="0 0 18 21" version="1.1" xmlns="http://www.w3.org/2000/svg" xmlns:xlink="http://www.w3.org/1999/xlink">
    <!-- Generator: Sketch 42 (36781) - http://www.bohemiancoding.com/sketch -->
    <title>Fill 371 + Fill 372</title>
    <desc>Created with Sketch.</desc>
    <defs></defs>
    <g id="Page-1" stroke="none" stroke-width="1" fill="none" fill-rule="evenodd">
        <g id="Solid-Icons" transform="translate(-147.000000, -673.000000)" fill="#767676">
            <g id="Fill-371-+-Fill-372" transform="translate(147.000000, 673.000000)">
                <polygon id="Fill-371" points="12 14.003 2 14.003 2 16.003 12 16.003"></polygon>
                <path d="M17.4629,10.1597 L11.5369,0.8467 C11.2409,0.3837 10.7589,0.3837 10.4629,0.8467 L4.5369,10.1597 C4.2409,10.6227 4.4429,11.0777 4.9859,11.1667 L15.0139,12.8397 C15.5569,12.9287 15.9999,13.4537 15.9999,14.0037 L15.9999,17.0037 L-0.0001,17.0037 L-0.0001,21.0037 L1.9999,21.0037 L1.9999,20.0037 L11.9999,20.0037 L11.9999,21.0037 L13.9999,21.0037 L13.9999,19.0037 L16.9999,19.0037 C17.5499,19.0037 17.9999,18.5527 17.9999,18.0037 L17.9999,12.0037 C17.9999,11.4537 17.7589,10.6227 17.4629,10.1597" id="Fill-372"></path>
            </g>
        </g>
    </g>
</svg>