<?xml version="1.0" encoding="UTF-8"?>
<svg width="18px" height="20px" viewBox="0 0 18 20" version="1.1" xmlns="http://www.w3.org/2000/svg" xmlns:xlink="http://www.w3.org/1999/xlink">
    <!-- Generator: Sketch 42 (36781) - http://www.bohemiancoding.com/sketch -->
    <title>Fill 77</title>
    <desc>Created with Sketch.</desc>
    <defs></defs>
    <g id="Page-1" stroke="none" stroke-width="1" fill="none" fill-rule="evenodd">
        <g id="Solid-Icons" transform="translate(-100.000000, -146.000000)" fill="#757575">
            <g id="Fill-77" transform="translate(100.000000, 146.000000)">
                <path d="M8,11.9888 C8,11.9888 4,9.0808 4,6.9258 C4,4.8788 7.111,3.9888 8,6.6768 C8.889,3.9888 12,4.8788 12,6.9258 C12,9.0808 8,11.9888 8,11.9888 M16.561,9.0208 C15.546,4.5868 14.498,0.0008 8,0.0008 C3.589,0.0008 0,3.5898 0,8.0008 L0,20.0008 L12,20.0008 L12,17.0008 L13,17.0008 C14.103,17.0008 15,16.1028 15,15.0008 L15,12.0008 L17.281,12.0008 C17.281,12.0008 16.691,9.5918 16.561,9.0208"></path>
            </g>
        </g>
    </g>
</svg>