<?xml version="1.0" encoding="UTF-8"?>
<svg width="16px" height="20px" viewBox="0 0 16 20" version="1.1" xmlns="http://www.w3.org/2000/svg" xmlns:xlink="http://www.w3.org/1999/xlink">
    <!-- Generator: Sketch 42 (36781) - http://www.bohemiancoding.com/sketch -->
    <title>Fill 907</title>
    <desc>Created with Sketch.</desc>
    <defs></defs>
    <g id="Page-1" stroke="none" stroke-width="1" fill="none" fill-rule="evenodd">
        <g id="Solid-Icons" transform="translate(-388.000000, -1634.000000)" fill="#757575">
            <g id="Fill-907" transform="translate(388.000000, 1634.000000)">
                <path d="M12,6.0005 L10,6.0005 L10,8.0005 L12,8.0005 L12,10.0005 L10,10.0005 L10,12.0005 L8,12.0005 L8,10.0005 L10,10.0005 L10,8.0005 L8,8.0005 L8,6.0005 L10,6.0005 L10,4.0005 L8,4.0005 L8,2.0005 L10,2.0005 L10,4.0005 L12,4.0005 L12,6.0005 Z M14,0.0005 L2,0.0005 C0.896,0.0005 0,0.8955 0,2.0005 L0,18.0005 C0,19.1045 0.896,20.0005 2,20.0005 L14,20.0005 C15.104,20.0005 16,19.1045 16,18.0005 L16,2.0005 C16,0.8955 15.104,0.0005 14,0.0005 L14,0.0005 Z"></path>
            </g>
        </g>
    </g>
</svg>