<?xml version="1.0" encoding="UTF-8"?>
<svg width="20px" height="20px" viewBox="0 0 20 20" version="1.1" xmlns="http://www.w3.org/2000/svg" xmlns:xlink="http://www.w3.org/1999/xlink">
    <!-- Generator: Sketch 42 (36781) - http://www.bohemiancoding.com/sketch -->
    <title>Fill 392</title>
    <desc>Created with Sketch.</desc>
    <defs></defs>
    <g id="Page-1" stroke="none" stroke-width="1" fill="none" fill-rule="evenodd">
        <g id="Solid-Icons" transform="translate(-386.000000, -722.000000)" fill="#767676">
            <g id="Fill-392" transform="translate(386.000000, 722.000000)">
                <path d="M13,15.0025 L12,13.5025 L11,15.0025 L9,15.0025 L8,13.5025 L7,15.0025 L5,15.0025 L7,12.0025 L9,12.0025 L10,13.5025 L11,12.0025 L13,12.0025 L15,15.0025 L13,15.0025 Z M6,5.0025 L8,5.0025 L8,9.0025 L6,9.0025 L6,5.0025 Z M12,5.0025 L14,5.0025 L14,9.0025 L12,9.0025 L12,5.0025 Z M10,0.0025 C4.478,0.0025 0,4.4795 0,10.0025 C0,15.5235 4.478,20.0025 10,20.0025 C15.522,20.0025 20,15.5235 20,10.0025 C20,4.4795 15.522,0.0025 10,0.0025 L10,0.0025 Z"></path>
            </g>
        </g>
    </g>
</svg>