<?xml version="1.0" encoding="UTF-8"?>
<svg width="23px" height="16px" viewBox="0 0 23 16" version="1.1" xmlns="http://www.w3.org/2000/svg" xmlns:xlink="http://www.w3.org/1999/xlink">
    <!-- Generator: Sketch 42 (36781) - http://www.bohemiancoding.com/sketch -->
    <title>Fill 707 + Fill 708 + Fill 709</title>
    <desc>Created with Sketch.</desc>
    <defs></defs>
    <g id="Page-1" stroke="none" stroke-width="1" fill="none" fill-rule="evenodd">
        <g id="Solid-Icons" transform="translate(-1.000000, -1300.000000)" fill="#767676">
            <g id="Fill-707-+-Fill-708-+-Fill-709" transform="translate(1.000000, 1300.000000)">
                <path d="M19.501,5.5025 C17.571,5.5025 16.001,7.0725 16.001,9.0025 L7.001,9.0025 C7.001,7.0725 5.431,5.5025 3.501,5.5025 C1.571,5.5025 0.001,7.0725 0.001,9.0025 L0.001,13.0025 C0.001,14.1045 0.898,15.0025 2.001,15.0025 L2.001,16.0025 L4.001,16.0025 L4.001,15.0025 L19.001,15.0025 L19.001,16.0025 L21.001,16.0025 L21.001,15.0025 C22.104,15.0025 23.001,14.1045 23.001,13.0025 L23.001,9.0025 C23.001,7.0725 21.431,5.5025 19.501,5.5025" id="Fill-707"></path>
                <path d="M19.501,4.5025 C19.656,4.5025 19.804,4.5325 19.955,4.5475 C19.722,2.0065 17.603,0.0025 15.001,0.0025 L12.001,0.0025 L12.001,8.0025 L15.113,8.0025 C15.569,5.9995 17.363,4.5025 19.501,4.5025" id="Fill-708"></path>
                <path d="M7.8896,8.0025 L11.0006,8.0025 L11.0006,0.0025 L8.0006,0.0025 C5.3996,0.0025 3.2806,2.0065 3.0466,4.5475 C3.1986,4.5325 3.3456,4.5025 3.5006,4.5025 C5.6386,4.5025 7.4336,5.9995 7.8896,8.0025" id="Fill-709"></path>
            </g>
        </g>
    </g>
</svg>