<?xml version="1.0" encoding="UTF-8"?>
<svg width="18px" height="22px" viewBox="0 0 18 22" version="1.1" xmlns="http://www.w3.org/2000/svg" xmlns:xlink="http://www.w3.org/1999/xlink">
    <!-- Generator: Sketch 42 (36781) - http://www.bohemiancoding.com/sketch -->
    <title>Fill 892</title>
    <desc>Created with Sketch.</desc>
    <defs></defs>
    <g id="Page-1" stroke="none" stroke-width="1" fill="none" fill-rule="evenodd">
        <g id="Solid-Icons" transform="translate(-51.000000, -1633.000000)" fill="#757575">
            <g id="Fill-892" transform="translate(51.000000, 1633.000000)">
                <path d="M12,6.0005 L12,1.0005 L17,6.0005 L12,6.0005 Z M9,13.0005 L9,8.0005 C11.762,8.0005 14,10.2385 14,13.0005 L9,13.0005 Z M8.5,18.0005 C6.015,18.0005 4,15.9865 4,13.5005 C4,11.5445 5.256,9.8955 7,9.2755 L7,15.0005 L12.725,15.0005 C12.105,16.7445 10.456,18.0005 8.5,18.0005 L8.5,18.0005 Z M13.414,0.0005 L2,0.0005 C0.897,0.0005 0,0.8985 0,2.0005 L0,20.0005 C0,21.1025 0.897,22.0005 2,22.0005 L16,22.0005 C17.103,22.0005 18,21.1025 18,20.0005 L18,4.5865 L13.414,0.0005 Z"></path>
            </g>
        </g>
    </g>
</svg>