<?xml version="1.0" encoding="UTF-8"?>
<svg width="21px" height="21px" viewBox="0 0 21 21" version="1.1" xmlns="http://www.w3.org/2000/svg" xmlns:xlink="http://www.w3.org/1999/xlink">
    <!-- Generator: Sketch 42 (36781) - http://www.bohemiancoding.com/sketch -->
    <title>Fill 635 + Fill 636</title>
    <desc>Created with Sketch.</desc>
    <defs></defs>
    <g id="Page-1" stroke="none" stroke-width="1" fill="none" fill-rule="evenodd">
        <g id="Solid-Icons" transform="translate(-434.000000, -1154.000000)" fill="#767676">
            <g id="Fill-635-+-Fill-636" transform="translate(433.000000, 1154.000000)">
                <path d="M13.7568,1.9683 C15.2358,1.9683 17.3798,2.3823 18.6468,2.6593 C17.5818,4.1713 15.7678,6.4673 14.5378,6.9273 C13.4778,7.3223 12.2778,6.9213 11.6008,6.0693 L15.2608,4.7033 L14.7368,3.2983 L11.0688,4.6663 C10.9938,3.4473 11.7818,1.9683 13.7568,1.9683 L13.7568,1.9683 Z M7.9638,7.4253 L10.1448,6.6113 C11.1508,8.2713 13.1948,9.0303 15.0628,8.3323 C17.2548,7.5133 19.8948,3.5413 21.0738,1.7023 C19.0408,1.1903 15.9688,0.4683 13.7568,0.4683 C10.7278,0.4683 9.2308,2.9913 9.6178,5.2073 L7.4388,6.0203 L7.9638,7.4253 Z" id="Fill-635"></path>
                <path d="M18.999,15 L15.999,15 L15.999,13 L18.999,13 L18.999,15 Z M18.999,19 L15.999,19 L15.999,17 L18.999,17 L18.999,19 Z M13.999,15 L10.999,15 L10.999,13 L13.999,13 L13.999,15 Z M13.999,19 L10.999,19 L10.999,17 L13.999,17 L13.999,19 Z M8.999,15 L5.999,15 L5.999,13 L8.999,13 L8.999,15 Z M8.999,19 L5.999,19 L5.999,17 L8.999,17 L8.999,19 Z M19.999,11 L4.999,11 L4.999,7.5 C4.999,7.186 4.851,6.889 4.599,6.701 L2.599,5.201 C2.296,4.973 1.891,4.937 1.552,5.106 C1.213,5.275 0.999,5.622 0.999,6 L0.999,20 C0.999,20.553 1.447,21 1.999,21 L19.999,21 C20.551,21 20.999,20.553 20.999,20 L20.999,12 C20.999,11.448 20.551,11 19.999,11 L19.999,11 Z" id="Fill-636"></path>
            </g>
        </g>
    </g>
</svg>