<?xml version="1.0" encoding="UTF-8"?>
<svg width="24px" height="25px" viewBox="0 0 24 25" version="1.1" xmlns="http://www.w3.org/2000/svg" xmlns:xlink="http://www.w3.org/1999/xlink">
    <!-- Generator: Sketch 42 (36781) - http://www.bohemiancoding.com/sketch -->
    <title>Fill 413 + Fill 414 + Fill 415</title>
    <desc>Created with Sketch.</desc>
    <defs></defs>
    <g id="Page-1" stroke="none" stroke-width="1" fill="none" fill-rule="evenodd">
        <g id="Solid-Icons" transform="translate(-288.000000, -768.000000)" fill="#767676">
            <g id="Fill-413-+-Fill-414-+-Fill-415" transform="translate(288.000000, 768.000000)">
                <polygon id="Fill-413" points="21 19.0005 21 16.0005 19 16.0005 19 19.0005 16 19.0005 16 21.0005 19 21.0005 19 24.0005 21 24.0005 21 21.0005 24 21.0005 24 19.0005"></polygon>
                <polygon id="Fill-414" points="20 9.0005 20 7.0005 16.58 7.0005 12.868 0.5035 11.132 1.4965 14.277 7.0005 5.723 7.0005 8.868 1.4965 7.132 0.5035 3.42 7.0005 0 7.0005 0 9.0005"></polygon>
                <path d="M18.5796,10.0005 L1.4206,10.0005 L3.0236,17.2175 C3.1256,17.6755 3.5316,18.0005 3.9996,18.0005 L14.3486,18.0005 C14.9006,16.4415 16.0746,15.1795 17.5766,14.5155 L18.5796,10.0005 Z" id="Fill-415"></path>
            </g>
        </g>
    </g>
</svg>