<?xml version="1.0" encoding="UTF-8"?>
<svg width="16px" height="20px" viewBox="0 0 16 20" version="1.1" xmlns="http://www.w3.org/2000/svg" xmlns:xlink="http://www.w3.org/1999/xlink">
    <!-- Generator: Sketch 42 (36781) - http://www.bohemiancoding.com/sketch -->
    <title>Fill 497 + Fill 498</title>
    <desc>Created with Sketch.</desc>
    <defs></defs>
    <g id="Page-1" stroke="none" stroke-width="1" fill="none" fill-rule="evenodd">
        <g id="Solid-Icons" transform="translate(-340.000000, -914.000000)" fill="#767676">
            <g id="Fill-497-+-Fill-498" transform="translate(340.000000, 914.000000)">
                <path d="M15,8.0005 L1,8.0005 C0.448,8.0005 0,8.4485 0,9.0005 L0,16.0005 L2,16.0005 L2,10.0005 L3,10.0005 L3,16.0005 C3,16.5525 3.448,17.0005 4,17.0005 L5,17.0005 L5,20.0005 L7,20.0005 L7,17.0005 L9,17.0005 L9,20.0005 L11,20.0005 L11,17.0005 L12,17.0005 C12.552,17.0005 13,16.5525 13,16.0005 L13,10.0005 L14,10.0005 L14,16.0005 L16,16.0005 L16,9.0005 C16,8.4485 15.552,8.0005 15,8.0005" id="Fill-497"></path>
                <path d="M3,6.0005 C3,6.5525 3.448,7.0005 4,7.0005 L12,7.0005 C12.552,7.0005 13,6.5525 13,6.0005 C13,4.9835 12.691,4.0385 12.167,3.2485 L13.707,1.7085 L12.293,0.2935 L10.753,1.8335 C9.962,1.3105 9.018,1.0005 8,1.0005 C6.982,1.0005 6.038,1.3105 5.247,1.8335 L3.707,0.2935 L2.293,1.7085 L3.833,3.2485 C3.309,4.0385 3,4.9835 3,6.0005" id="Fill-498"></path>
            </g>
        </g>
    </g>
</svg>