<?xml version="1.0" encoding="UTF-8"?>
<svg width="22px" height="21px" viewBox="0 0 22 21" version="1.1" xmlns="http://www.w3.org/2000/svg" xmlns:xlink="http://www.w3.org/1999/xlink">
    <!-- Generator: Sketch 42 (36781) - http://www.bohemiancoding.com/sketch -->
    <title>Fill 775 + Fill 776</title>
    <desc>Created with Sketch.</desc>
    <defs></defs>
    <g id="Page-1" stroke="none" stroke-width="1" fill="none" fill-rule="evenodd">
        <g id="Solid-Icons" transform="translate(-49.000000, -1394.000000)" fill="#767676">
            <g id="Fill-775-+-Fill-776" transform="translate(48.000000, 1394.000000)">
                <path d="M18.999,11.0005 L15.999,11.0005 L15.999,14.0005 L11.999,14.0005 L11.999,11.0005 L8.999,11.0005 L8.999,7.0005 L11.999,7.0005 L11.999,4.0005 L15.999,4.0005 L15.999,7.0005 L18.999,7.0005 L18.999,11.0005 Z M20.999,0.0005 L6.999,0.0005 C5.896,0.0005 4.999,0.8985 4.999,2.0005 L4.999,16.0005 C4.999,17.1035 5.896,18.0005 6.999,18.0005 L20.999,18.0005 C22.102,18.0005 22.999,17.1035 22.999,16.0005 L22.999,2.0005 C22.999,0.8985 22.102,0.0005 20.999,0.0005 L20.999,0.0005 Z" id="Fill-775"></path>
                <polygon id="Fill-776" points="2.999 1 0.999 1 0.999 21 2.999 21"></polygon>
            </g>
        </g>
    </g>
</svg>