<?xml version="1.0" encoding="UTF-8"?>
<svg width="18px" height="20px" viewBox="0 0 18 20" version="1.1" xmlns="http://www.w3.org/2000/svg" xmlns:xlink="http://www.w3.org/1999/xlink">
    <!-- Generator: Sketch 42 (36781) - http://www.bohemiancoding.com/sketch -->
    <title>Fill 844</title>
    <desc>Created with Sketch.</desc>
    <defs></defs>
    <g id="Page-1" stroke="none" stroke-width="1" fill="none" fill-rule="evenodd">
        <g id="Solid-Icons" transform="translate(-339.000000, -1490.000000)" fill="#767676">
            <g id="Fill-844" transform="translate(338.000000, 1490.000000)">
                <path d="M9.499,6.9985 C8.671,6.9985 7.999,6.3265 7.999,5.4985 C7.999,4.6705 8.671,3.9985 9.499,3.9985 C10.327,3.9985 10.999,4.6705 10.999,5.4985 C10.999,6.3265 10.327,6.9985 9.499,6.9985 L9.499,6.9985 Z M12.413,10.0005 L18.055,4.3585 C18.445,3.9695 18.445,3.3355 18.055,2.9455 C16.159,1.0465 13.653,0.0005 10.999,0.0005 C5.485,0.0005 0.999,4.4855 0.999,10.0005 C0.999,15.5155 5.485,20.0005 10.999,20.0005 C13.653,20.0005 16.159,18.9545 18.055,17.0555 C18.445,16.6655 18.445,16.0325 18.055,15.6425 L12.413,10.0005 Z"></path>
            </g>
        </g>
    </g>
</svg>