<?xml version="1.0" encoding="UTF-8"?>
<svg width="22px" height="18px" viewBox="0 0 22 18" version="1.1" xmlns="http://www.w3.org/2000/svg" xmlns:xlink="http://www.w3.org/1999/xlink">
    <!-- Generator: Sketch 42 (36781) - http://www.bohemiancoding.com/sketch -->
    <title>Fill 354 + Fill 355</title>
    <desc>Created with Sketch.</desc>
    <defs></defs>
    <g id="Page-1" stroke="none" stroke-width="1" fill="none" fill-rule="evenodd">
        <g id="Solid-Icons" transform="translate(-49.000000, -627.000000)" fill="#767676">
            <g id="Fill-354-+-Fill-355" transform="translate(49.000000, 627.000000)">
                <path d="M11,16.0034 C7.14,16.0034 4,12.8634 4,9.0034 C4,5.1444 7.14,2.0034 11,2.0034 C14.86,2.0034 18,5.1444 18,9.0034 C18,12.8634 14.86,16.0034 11,16.0034 M20,0.0034 L2,0.0034 C0.896,0.0034 0,0.8994 0,2.0034 L0,16.0034 C0,17.1074 0.896,18.0034 2,18.0034 L20,18.0034 C21.105,18.0034 22,17.1074 22,16.0034 L22,2.0034 C22,0.8994 21.105,0.0034 20,0.0034" id="Fill-354"></path>
                <path d="M9,12.0034 L9,6.0034 L14,9.0034 L9,12.0034 Z M11,4.0034 C8.243,4.0034 6,6.2464 6,9.0034 C6,11.7614 8.243,14.0034 11,14.0034 C13.757,14.0034 16,11.7614 16,9.0034 C16,6.2464 13.757,4.0034 11,4.0034 L11,4.0034 Z" id="Fill-355"></path>
            </g>
        </g>
    </g>
</svg>