<?xml version="1.0" encoding="UTF-8"?>
<svg width="20px" height="20px" viewBox="0 0 20 20" version="1.1" xmlns="http://www.w3.org/2000/svg" xmlns:xlink="http://www.w3.org/1999/xlink">
    <!-- Generator: Sketch 42 (36781) - http://www.bohemiancoding.com/sketch -->
    <title>Fill 537</title>
    <desc>Created with Sketch.</desc>
    <defs></defs>
    <g id="Page-1" stroke="none" stroke-width="1" fill="none" fill-rule="evenodd">
        <g id="Solid-Icons" transform="translate(-194.000000, -1010.000000)" fill="#767676">
            <g id="Fill-537" transform="translate(194.000000, 1010.000000)">
                <path d="M18.002,14.002 L16.002,14.002 L16.002,12.002 L18.002,12.002 L18.002,14.002 Z M18.002,18.002 L16.002,18.002 L16.002,16.002 L18.002,16.002 L18.002,18.002 Z M13.002,6.002 L11.002,6.002 L11.002,4.002 L13.002,4.002 L13.002,6.002 Z M13.002,10.002 L11.002,10.002 L11.002,8.002 L13.002,8.002 L13.002,10.002 Z M13.002,14.002 L11.002,14.002 L11.002,12.002 L13.002,12.002 L13.002,14.002 Z M9.002,6.002 L7.002,6.002 L7.002,4.002 L9.002,4.002 L9.002,6.002 Z M9.002,10.002 L7.002,10.002 L7.002,8.002 L9.002,8.002 L9.002,10.002 Z M9.002,14.002 L7.002,14.002 L7.002,12.002 L9.002,12.002 L9.002,14.002 Z M4.002,14.002 L2.002,14.002 L2.002,12.002 L4.002,12.002 L4.002,14.002 Z M4.002,18.002 L2.002,18.002 L2.002,16.002 L4.002,16.002 L4.002,18.002 Z M19.002,10.002 L15.002,10.002 L15.002,3.002 C15.002,2.451 14.555,2.002 14.002,2.002 L13.002,2.002 L13.002,1.002 C13.002,0.451 12.555,0.002 12.002,0.002 L8.002,0.002 C7.45,0.002 7.002,0.451 7.002,1.002 L7.002,2.002 L6.002,2.002 C5.45,2.002 5.002,2.451 5.002,3.002 L5.002,10.002 L1.002,10.002 C0.45,10.002 0.002,10.451 0.002,11.002 L0.002,19.002 C0.002,19.555 0.45,20.002 1.002,20.002 L8.002,20.002 L8.002,16.002 L12.002,16.002 L12.002,20.002 L19.002,20.002 C19.555,20.002 20.002,19.555 20.002,19.002 L20.002,11.002 C20.002,10.451 19.555,10.002 19.002,10.002 L19.002,10.002 Z"></path>
            </g>
        </g>
    </g>
</svg>