<?xml version="1.0" encoding="UTF-8"?>
<svg width="24px" height="24px" viewBox="0 0 24 24" version="1.1" xmlns="http://www.w3.org/2000/svg" xmlns:xlink="http://www.w3.org/1999/xlink">
    <!-- Generator: Sketch 42 (36781) - http://www.bohemiancoding.com/sketch -->
    <title>Fill 25</title>
    <desc>Created with Sketch.</desc>
    <defs></defs>
    <g id="Page-1" stroke="none" stroke-width="1" fill="none" fill-rule="evenodd">
        <g id="Solid-Icons" transform="translate(-144.000000, 0.000000)" fill="#757575">
            <g id="Fill-25" transform="translate(144.000000, 0.000000)">
                <path d="M19,21.0005 C17.895,21.0005 17,20.1045 17,19.0005 C17,17.8965 17.895,17.0005 19,17.0005 C20.105,17.0005 21,17.8965 21,19.0005 C21,20.1045 20.105,21.0005 19,21.0005 M5,21.0005 C3.895,21.0005 3,20.1045 3,19.0005 C3,17.8965 3.895,17.0005 5,17.0005 C6.105,17.0005 7,17.8965 7,19.0005 C7,20.1045 6.105,21.0005 5,21.0005 M19,14.0005 C17.659,14.0005 16.409,14.5355 15.489,15.4575 L14.527,13.9785 L15.519,12.3885 C17.027,9.9695 18.911,6.9485 20.993,3.6225 L21.515,2.7905 L18.177,0.6175 L12,10.0955 L5.823,0.6175 L2.485,2.7905 L3.007,3.6225 C5.089,6.9485 6.973,9.9695 8.481,12.3885 L9.473,13.9785 L8.511,15.4575 C7.591,14.5355 6.341,14.0005 5,14.0005 C2.243,14.0005 0,16.2435 0,19.0005 C0,21.7575 2.243,24.0005 5,24.0005 C7.666,24.0005 8.874,22.8185 12,17.9795 C15.126,22.8185 16.334,24.0005 19,24.0005 C21.757,24.0005 24,21.7575 24,19.0005 C24,16.2435 21.757,14.0005 19,14.0005"></path>
            </g>
        </g>
    </g>
</svg>