<?xml version="1.0" encoding="UTF-8"?>
<svg width="18px" height="21px" viewBox="0 0 18 21" version="1.1" xmlns="http://www.w3.org/2000/svg" xmlns:xlink="http://www.w3.org/1999/xlink">
    <!-- Generator: Sketch 42 (36781) - http://www.bohemiancoding.com/sketch -->
    <title>Fill 896</title>
    <desc>Created with Sketch.</desc>
    <defs></defs>
    <g id="Page-1" stroke="none" stroke-width="1" fill="none" fill-rule="evenodd">
        <g id="Solid-Icons" transform="translate(-339.000000, -1634.000000)" fill="#757575">
            <g id="Fill-896" transform="translate(339.000000, 1634.000000)">
                <path d="M14,13.001 L4,13.001 L4,11.001 L14,11.001 L14,13.001 Z M14,17.001 L4,17.001 L4,15.001 L14,15.001 L14,17.001 Z M4,7.001 L12,7.001 L12,9.001 L4,9.001 L4,7.001 Z M15,0.001 L15,3.001 L13,3.001 L13,0.001 L10,0.001 L10,3.001 L8,3.001 L8,0.001 L5,0.001 L5,3.001 L3,3.001 L3,0.001 L0,0.001 L0,20.001 L18,20.001 L18,0.001 L15,0.001 Z"></path>
            </g>
        </g>
    </g>
</svg>