<?xml version="1.0" encoding="UTF-8"?>
<svg width="20px" height="24px" viewBox="0 0 20 24" version="1.1" xmlns="http://www.w3.org/2000/svg" xmlns:xlink="http://www.w3.org/1999/xlink">
    <!-- Generator: Sketch 42 (36781) - http://www.bohemiancoding.com/sketch -->
    <title>Fill 526 + Fill 527 + Fill 528</title>
    <desc>Created with Sketch.</desc>
    <defs></defs>
    <g id="Page-1" stroke="none" stroke-width="1" fill="none" fill-rule="evenodd">
        <g id="Solid-Icons" transform="translate(-50.000000, -960.000000)" fill="#767676">
            <g id="Fill-526-+-Fill-527-+-Fill-528" transform="translate(50.000000, 960.000000)">
                <path d="M10.001,6.0022 C11.655,6.0022 13.001,4.6562 13.001,3.0022 C13.001,1.3482 11.655,0.0032 10.001,0.0032 C8.347,0.0032 7.001,1.3482 7.001,3.0022 C7.001,4.6562 8.347,6.0022 10.001,6.0022" id="Fill-526"></path>
                <path d="M6.001,15.0022 L7.001,15.0022 L7.001,19.0022 C7.001,19.5552 7.449,20.0022 8.001,20.0022 L12.001,20.0022 C12.553,20.0022 13.001,19.5552 13.001,19.0022 L13.001,15.0022 L14.001,15.0022 C14.553,15.0022 15.001,14.5552 15.001,14.0022 L15.001,12.0022 C15.001,9.2462 12.758,7.0022 10.001,7.0022 C7.244,7.0022 5.001,9.2462 5.001,12.0022 L5.001,14.0022 C5.001,14.5552 5.449,15.0022 6.001,15.0022" id="Fill-527"></path>
                <path d="M16.3408,16.8262 L15.7628,18.7402 C17.6118,19.2992 18.0008,19.9062 18.0008,20.0022 C18.0008,20.5162 15.2508,22.0022 10.0008,22.0022 C4.7518,22.0022 2.0008,20.5162 2.0008,20.0022 C2.0008,19.9012 2.4178,19.2642 4.3968,18.6932 L3.8418,16.7712 C0.6678,17.6882 0.0008,19.0342 0.0008,20.0022 C0.0008,22.7502 5.1848,24.0022 10.0008,24.0022 C14.8178,24.0022 20.0008,22.7502 20.0008,20.0022 C20.0008,19.0582 19.3658,17.7392 16.3408,16.8262" id="Fill-528"></path>
            </g>
        </g>
    </g>
</svg>