<?xml version="1.0" encoding="UTF-8"?>
<svg width="20px" height="21px" viewBox="0 0 20 21" version="1.1" xmlns="http://www.w3.org/2000/svg" xmlns:xlink="http://www.w3.org/1999/xlink">
    <!-- Generator: Sketch 42 (36781) - http://www.bohemiancoding.com/sketch -->
    <title>Fill 666 + Fill 667 + Fill 668</title>
    <desc>Created with Sketch.</desc>
    <defs></defs>
    <g id="Page-1" stroke="none" stroke-width="1" fill="none" fill-rule="evenodd">
        <g id="Solid-Icons" transform="translate(-242.000000, -1203.000000)" fill="#767676">
            <g id="Fill-666-+-Fill-667-+-Fill-668" transform="translate(241.000000, 1202.000000)">
                <path d="M6.9966,2.9985 C6.9966,1.8945 6.1006,0.9985 4.9966,0.9985 C3.8916,0.9985 2.9966,1.8945 2.9966,2.9985 L2.9966,5.9985 L6.9966,5.9985 L6.9966,2.9985 Z" id="Fill-666"></path>
                <path d="M6.9966,6.9985 L2.9966,6.9985 C2.9966,9.9985 0.9966,10.9985 0.9966,14.9985 C0.9966,18.9985 2.9966,21.9985 3.9966,21.9985 L5.9966,21.9985 C6.5206,21.9985 7.3186,21.1685 7.9606,19.8075 C7.3456,18.6755 6.9966,17.3775 6.9966,15.9985 C6.9966,14.3385 7.5026,12.7955 8.3696,11.5175 C7.7836,9.9755 6.9966,8.8805 6.9966,6.9985" id="Fill-667"></path>
                <path d="M16.9966,13.9985 C16.4436,13.9985 15.9966,13.5515 15.9966,12.9985 C15.9966,12.4455 16.4436,11.9985 16.9966,11.9985 C17.5496,11.9985 17.9966,12.4455 17.9966,12.9985 C17.9966,13.5515 17.5496,13.9985 16.9966,13.9985 M14.9966,16.9985 C14.4436,16.9985 13.9966,16.5515 13.9966,15.9985 C13.9966,15.4455 14.4436,14.9985 14.9966,14.9985 C15.5496,14.9985 15.9966,15.4455 15.9966,15.9985 C15.9966,16.5515 15.5496,16.9985 14.9966,16.9985 M12.9966,13.9985 C12.4436,13.9985 11.9966,13.5515 11.9966,12.9985 C11.9966,12.4455 12.4436,11.9985 12.9966,11.9985 C13.5496,11.9985 13.9966,12.4455 13.9966,12.9985 C13.9966,13.5515 13.5496,13.9985 12.9966,13.9985 M14.9966,9.9985 C11.6826,9.9985 8.9966,12.6855 8.9966,15.9985 C8.9966,19.3125 11.6826,21.9985 14.9966,21.9985 C18.3096,21.9985 20.9966,19.3125 20.9966,15.9985 C20.9966,12.6855 18.3096,9.9985 14.9966,9.9985" id="Fill-668"></path>
            </g>
        </g>
    </g>
</svg>