<?xml version="1.0" encoding="UTF-8"?>
<svg width="18px" height="24px" viewBox="0 0 18 24" version="1.1" xmlns="http://www.w3.org/2000/svg" xmlns:xlink="http://www.w3.org/1999/xlink">
    <!-- Generator: Sketch 42 (36781) - http://www.bohemiancoding.com/sketch -->
    <title>Fill 809 + Fill 810</title>
    <desc>Created with Sketch.</desc>
    <defs></defs>
    <g id="Page-1" stroke="none" stroke-width="1" fill="none" fill-rule="evenodd">
        <g id="Solid-Icons" transform="translate(-291.000000, -1440.000000)" fill="#767676">
            <g id="Fill-809-+-Fill-810" transform="translate(290.000000, 1440.000000)">
                <path d="M7.999,6.0005 L7.999,10.0005 L6.999,10.0005 C6.448,10.0005 5.999,9.5515 5.999,9.0005 L5.999,6.0005 L7.999,6.0005 Z M14.999,10.0005 L13.999,10.0005 L13.999,6.0005 L15.999,6.0005 L15.999,9.0005 C15.999,9.5515 15.55,10.0005 14.999,10.0005 L14.999,10.0005 Z M9.999,6.0005 L11.999,6.0005 L11.999,10.0005 L9.999,10.0005 L9.999,6.0005 Z M3.999,9.0005 C3.999,10.6545 5.345,12.0005 6.999,12.0005 L14.999,12.0005 C16.653,12.0005 17.999,10.6545 17.999,9.0005 L17.999,5.0005 C17.999,4.4485 17.551,4.0005 16.999,4.0005 L5.999,4.0005 L5.999,1.0005 C5.999,0.4485 5.551,0.0005 4.999,0.0005 L0.999,0.0005 L0.999,2.0005 L3.999,2.0005 L3.999,9.0005 Z" id="Fill-809"></path>
                <path d="M13.999,17.001 L7.999,17.001 L7.999,15.001 L13.999,15.001 L13.999,17.001 Z M17.999,13.001 L3.999,13.001 C3.447,13.001 2.999,13.449 2.999,14.001 L2.999,21.001 C2.999,22.655 4.345,24.001 5.999,24.001 L15.999,24.001 C17.653,24.001 18.999,22.655 18.999,21.001 L18.999,14.001 C18.999,13.449 18.551,13.001 17.999,13.001 L17.999,13.001 Z" id="Fill-810"></path>
            </g>
        </g>
    </g>
</svg>