<?xml version="1.0" encoding="UTF-8"?>
<svg width="24px" height="24px" viewBox="0 0 24 24" version="1.1" xmlns="http://www.w3.org/2000/svg" xmlns:xlink="http://www.w3.org/1999/xlink">
    <!-- Generator: Sketch 42 (36781) - http://www.bohemiancoding.com/sketch -->
    <title>Fill 434 + Fill 435 + Fill 436</title>
    <desc>Created with Sketch.</desc>
    <defs></defs>
    <g id="Page-1" stroke="none" stroke-width="1" fill="none" fill-rule="evenodd">
        <g id="Solid-Icons" transform="translate(-288.000000, -816.000000)" fill="#B4B4B4">
            <g id="Fill-434-+-Fill-435-+-Fill-436" transform="translate(288.000000, 816.000000)">
                <path d="M4,20 L2,20 L2,14 L4,14 L4,20 Z M19,18 C19,18.552 18.551,19 18,19 L13,19 L13,21 L17,21 C17,21.552 16.551,22 16,22 L8.414,22 L6,19.586 L6,14.415 L8.414,12 L12,12 L12,13 C12,13.552 11.551,14 11,14 L9,14 L9,16 L11,16 C12.654,16 14,14.655 14,13 L14,11 C14,10.449 13.552,10 13,10 L8,10 C7.735,10 7.48,10.105 7.293,10.294 L5.46,12.127 C5.32,12.053 5.169,12 5,12 L1,12 C0.448,12 0,12.449 0,13 L0,21 C0,21.553 0.448,22 1,22 L5,22 C5.169,22 5.32,21.949 5.46,21.875 L7.293,23.708 C7.48,23.894 7.735,24 8,24 L16,24 C17.654,24 19,22.655 19,21 L19,20.817 C20.162,20.403 21,19.303 21,18 L21,17 L19,17 L19,18 Z" id="Fill-434"></path>
                <path d="M15,3.0005 L15,4.0515 C13.86,4.2835 13,5.2935 13,6.5005 C13,7.8785 14.122,9.0005 15.5,9.0005 L16.5,9.0005 C16.776,9.0005 17,9.2245 17,9.5005 C17,9.7765 16.776,10.0005 16.5,10.0005 L15,10.0005 L15,13.0005 L17,13.0005 L17,11.9505 C18.14,11.7175 19,10.7085 19,9.5005 C19,8.1225 17.878,7.0005 16.5,7.0005 L15.5,7.0005 C15.224,7.0005 15,6.7765 15,6.5005 C15,6.2245 15.224,6.0005 15.5,6.0005 L19,6.0005 L19,4.0005 L17,4.0005 L17,3.0005 L15,3.0005 Z" id="Fill-435"></path>
                <path d="M16,0.0005 C11.589,0.0005 8,3.5905 8,8.0005 C8,8.3395 8.028,8.6715 8.069,9.0005 L10.09,9.0005 C10.035,8.6755 10,8.3415 10,8.0005 C10,4.6925 12.691,2.0005 16,2.0005 C19.309,2.0005 22,4.6925 22,8.0005 C22,11.3105 19.309,14.0005 16,14.0005 C15.659,14.0005 15.326,13.9655 15,13.9105 L15,15.9325 C15.328,15.9725 15.661,16.0005 16,16.0005 C20.411,16.0005 24,12.4115 24,8.0005 C24,3.5905 20.411,0.0005 16,0.0005" id="Fill-436"></path>
            </g>
        </g>
    </g>
</svg>