<?xml version="1.0" encoding="UTF-8"?>
<svg width="16px" height="20px" viewBox="0 0 16 20" version="1.1" xmlns="http://www.w3.org/2000/svg" xmlns:xlink="http://www.w3.org/1999/xlink">
    <!-- Generator: Sketch 42 (36781) - http://www.bohemiancoding.com/sketch -->
    <title>Fill 820</title>
    <desc>Created with Sketch.</desc>
    <defs></defs>
    <g id="Page-1" stroke="none" stroke-width="1" fill="none" fill-rule="evenodd">
        <g id="Solid-Icons" transform="translate(-100.000000, -1490.000000)" fill="#767676">
            <g id="Fill-820" transform="translate(99.000000, 1490.000000)">
                <path d="M14.999,14.0005 C14.999,13.3375 15.346,12.8355 15.784,12.2015 C16.326,11.4185 16.999,10.4445 16.999,9.0005 C16.999,7.7575 15.996,5.6725 13.999,5.1335 L13.999,0.0005 L11.999,0.0005 L11.999,5.7065 C11.723,6.0845 10.867,7.0005 8.999,7.0005 C7.122,7.0005 6.267,6.0765 5.999,5.7085 L5.999,0.0005 L3.999,0.0005 L3.999,5.1335 C2.002,5.6725 0.999,7.7575 0.999,9.0005 C0.999,10.4445 1.672,11.4185 2.214,12.2015 C2.652,12.8355 2.999,13.3375 2.999,14.0005 C2.999,14.1885 2.892,14.4815 2.756,14.8525 C2.455,15.6775 1.999,16.9215 1.999,19.0005 C1.999,19.5525 2.447,20.0005 2.999,20.0005 L14.999,20.0005 C15.551,20.0005 15.999,19.5525 15.999,19.0005 C15.999,16.9215 15.544,15.6775 15.242,14.8525 C15.106,14.4815 14.999,14.1885 14.999,14.0005"></path>
            </g>
        </g>
    </g>
</svg>