<?xml version="1.0" encoding="UTF-8"?>
<svg width="20px" height="20px" viewBox="0 0 20 20" version="1.1" xmlns="http://www.w3.org/2000/svg" xmlns:xlink="http://www.w3.org/1999/xlink">
    <!-- Generator: Sketch 42 (36781) - http://www.bohemiancoding.com/sketch -->
    <title>Fill 132 + Fill 133</title>
    <desc>Created with Sketch.</desc>
    <defs></defs>
    <g id="Page-1" stroke="none" stroke-width="1" fill="none" fill-rule="evenodd">
        <g id="Solid-Icons" transform="translate(-194.000000, -242.000000)" fill="#757575">
            <g id="Fill-132-+-Fill-133" transform="translate(194.000000, 242.000000)">
                <polygon id="Fill-132" points="19.707 1.707 18.293 0.293 12 6.586 12 2 10 2 10 10 18 10 18 8 13.414 8"></polygon>
                <path d="M16,14.0005 L12,14.0005 C11.447,14.0005 11,14.4475 11,15.0005 L11,16.0005 C7,16.0005 4.062,12.9385 4,9.0005 L5,9.0005 C5.553,9.0005 6,8.5535 6,8.0005 L6,4.0005 C6,3.4475 5.553,3.0005 5,3.0005 L1,3.0005 C0.447,3.0005 0,3.4475 0,4.0005 L0,9.0005 C0,15.0755 4.925,20.0005 11,20.0005 L16,20.0005 C16.553,20.0005 17,19.5535 17,19.0005 L17,15.0005 C17,14.4475 16.553,14.0005 16,14.0005" id="Fill-133"></path>
            </g>
        </g>
    </g>
</svg>