<?xml version="1.0" encoding="UTF-8"?>
<svg width="12px" height="20px" viewBox="0 0 12 20" version="1.1" xmlns="http://www.w3.org/2000/svg" xmlns:xlink="http://www.w3.org/1999/xlink">
    <!-- Generator: Sketch 42 (36781) - http://www.bohemiancoding.com/sketch -->
    <title>Fill 522 + Fill 523</title>
    <desc>Created with Sketch.</desc>
    <defs></defs>
    <g id="Page-1" stroke="none" stroke-width="1" fill="none" fill-rule="evenodd">
        <g id="Solid-Icons" transform="translate(-150.000000, -963.000000)" fill="#767676">
            <g id="Fill-522-+-Fill-523" transform="translate(150.000000, 963.000000)">
                <path d="M3.5005,6.0022 C3.5005,4.6222 4.6205,3.5022 6.0005,3.5022 C7.3805,3.5022 8.5005,4.6222 8.5005,6.0022 C8.5005,7.3822 7.3805,8.5022 6.0005,8.5022 C4.6205,8.5022 3.5005,7.3822 3.5005,6.0022 M12.0005,6.0022 C12.0005,2.6882 9.3135,0.0022 6.0005,0.0022 C2.6865,0.0022 0.0005,2.6882 0.0005,6.0022 C0.0005,10.0022 6.0005,17.0022 6.0005,17.0022 C6.0005,17.0022 12.0005,10.0022 12.0005,6.0022" id="Fill-522"></path>
                <polygon id="Fill-523" points="2.001 20.002 10.001 20.002 10.001 18.002 2.001 18.002"></polygon>
            </g>
        </g>
    </g>
</svg>