<?xml version="1.0" encoding="UTF-8"?>
<svg width="20px" height="19px" viewBox="0 0 20 19" version="1.1" xmlns="http://www.w3.org/2000/svg" xmlns:xlink="http://www.w3.org/1999/xlink">
    <!-- Generator: Sketch 42 (36781) - http://www.bohemiancoding.com/sketch -->
    <title>Fill 690</title>
    <desc>Created with Sketch.</desc>
    <defs></defs>
    <g id="Page-1" stroke="none" stroke-width="1" fill="none" fill-rule="evenodd">
        <g id="Solid-Icons" transform="translate(-98.000000, -1251.000000)" fill="#767676">
            <g id="Fill-690" transform="translate(98.000000, 1251.000000)">
                <path d="M17.001,15.0044 C16.449,15.0044 16.001,14.5564 16.001,14.0044 C16.001,13.4524 16.449,13.0044 17.001,13.0044 C17.553,13.0044 18.001,13.4524 18.001,14.0044 C18.001,14.5564 17.553,15.0044 17.001,15.0044 L17.001,15.0044 Z M6.001,5.0044 L14.001,5.0044 L14.001,7.0044 L6.001,7.0044 L6.001,5.0044 Z M13.001,15.0044 L11.001,15.0044 L11.001,10.0044 L13.001,10.0044 L13.001,15.0044 Z M9.001,15.0044 L7.001,15.0044 L7.001,10.0044 L9.001,10.0044 L9.001,15.0044 Z M4.001,14.0044 C4.001,14.5564 3.553,15.0044 3.001,15.0044 C2.449,15.0044 2.001,14.5564 2.001,14.0044 C2.001,13.4524 2.449,13.0044 3.001,13.0044 C3.553,13.0044 4.001,13.4524 4.001,14.0044 L4.001,14.0044 Z M19.001,10.2814 L19.001,6.0044 L17.001,6.0044 L17.001,10.0044 L16.001,10.0044 L16.001,4.0044 C16.001,2.9004 15.105,2.0044 14.001,2.0044 L13.001,2.0044 L13.001,0.0044 L7.001,0.0044 L7.001,2.0044 L6.001,2.0044 C4.896,2.0044 4.001,2.9004 4.001,4.0044 L4.001,10.0044 L3.001,10.0044 L3.001,6.0044 L1.001,6.0044 L1.001,10.2814 C0.406,10.6284 0.001,11.2664 0.001,12.0044 L0.001,17.0044 L2.001,17.0044 C2.001,18.1084 2.896,19.0044 4.001,19.0044 C5.105,19.0044 6.001,18.1084 6.001,17.0044 L14.001,17.0044 C14.001,18.1084 14.896,19.0044 16.001,19.0044 C17.105,19.0044 18.001,18.1084 18.001,17.0044 L20.001,17.0044 L20.001,12.0044 C20.001,11.2664 19.596,10.6284 19.001,10.2814 L19.001,10.2814 Z"></path>
            </g>
        </g>
    </g>
</svg>