<?xml version="1.0" encoding="UTF-8"?>
<svg width="13px" height="18px" viewBox="0 0 13 18" version="1.1" xmlns="http://www.w3.org/2000/svg" xmlns:xlink="http://www.w3.org/1999/xlink">
    <!-- Generator: Sketch 42 (36781) - http://www.bohemiancoding.com/sketch -->
    <title>Fill 347 + Fill 348</title>
    <desc>Created with Sketch.</desc>
    <defs></defs>
    <g id="Page-1" stroke="none" stroke-width="1" fill="none" fill-rule="evenodd">
        <g id="Solid-Icons" transform="translate(-389.000000, -627.000000)" fill="#767676">
            <g id="Fill-347-+-Fill-348" transform="translate(389.000000, 627.000000)">
                <path d="M4,0.0034 L1,0.0034 C0.45,0.0034 0,0.4534 0,1.0034 L0,17.0034 C0,17.5534 0.45,18.0034 1,18.0034 L4,18.0034 C4.55,18.0034 5,17.5534 5,17.0034 L5,1.0034 C5,0.4534 4.55,0.0034 4,0.0034" id="Fill-347"></path>
                <path d="M12,0.0034 L9,0.0034 C8.45,0.0034 8,0.4534 8,1.0034 L8,17.0034 C8,17.5534 8.45,18.0034 9,18.0034 L12,18.0034 C12.55,18.0034 13,17.5534 13,17.0034 L13,1.0034 C13,0.4534 12.55,0.0034 12,0.0034" id="Fill-348"></path>
            </g>
        </g>
    </g>
</svg>