<?xml version="1.0" encoding="UTF-8"?>
<svg width="22px" height="18px" viewBox="0 0 22 18" version="1.1" xmlns="http://www.w3.org/2000/svg" xmlns:xlink="http://www.w3.org/1999/xlink">
    <!-- Generator: Sketch 42 (36781) - http://www.bohemiancoding.com/sketch -->
    <title>Fill 696 + Fill 697</title>
    <desc>Created with Sketch.</desc>
    <defs></defs>
    <g id="Page-1" stroke="none" stroke-width="1" fill="none" fill-rule="evenodd">
        <g id="Solid-Icons" transform="translate(-385.000000, -1204.000000)" fill="#767676">
            <g id="Fill-696-+-Fill-697" transform="translate(384.000000, 1204.000000)">
                <polygon id="Fill-696" points="15.998 0 3.998 0 3.998 2 15.998 2"></polygon>
                <path d="M10.998,16 L6.998,16 L6.998,14 L10.998,14 L10.998,16 Z M4.998,9 C4.998,7.896 5.894,7 6.998,7 C8.103,7 8.998,7.896 8.998,9 C8.998,10.105 8.103,11 6.998,11 C5.894,11 4.998,10.105 4.998,9 L4.998,9 Z M20.999,3 L20.999,5 L10.999,5 L10.998,5 L10.998,3 L8.998,3 L8.998,5 L6.498,5 C3.867,5 1.764,7.258 2.02,9.942 C2.186,11.696 3.407,13.1 4.998,13.694 L4.998,16 L3.998,16 C3.447,16 2.998,15.552 2.998,15 L2.998,14 L0.998,14 L0.998,15 C0.998,16.655 2.344,18 3.998,18 L15.998,18 L15.998,16 L12.998,16 L12.998,13.446 C14.189,12.753 14.998,11.477 14.998,10 L14.998,9.335 L22.163,8.14 C22.645,8.06 22.999,7.642 22.999,7.153 L22.999,3 L20.999,3 Z" id="Fill-697"></path>
            </g>
        </g>
    </g>
</svg>