<?xml version="1.0" encoding="UTF-8"?>
<svg width="24px" height="16px" viewBox="0 0 24 16" version="1.1" xmlns="http://www.w3.org/2000/svg" xmlns:xlink="http://www.w3.org/1999/xlink">
    <!-- Generator: Sketch 42 (36781) - http://www.bohemiancoding.com/sketch -->
    <title>Fill 482 + Fill 483 + Fill 484</title>
    <desc>Created with Sketch.</desc>
    <defs></defs>
    <g id="Page-1" stroke="none" stroke-width="1" fill="none" fill-rule="evenodd">
        <g id="Solid-Icons" transform="translate(0.000000, -916.000000)" fill="#767676">
            <g id="Fill-482-+-Fill-483-+-Fill-484" transform="translate(0.000000, 916.000000)">
                <path d="M15,7.0034 L16.5,7.0034 C16.776,7.0034 17,6.7794 17,6.5034 C17,6.2284 16.776,6.0034 16.5,6.0034 L15,6.0034 L15,7.0034 Z" id="Fill-482"></path>
                <path d="M16.5,9.0034 L15,9.0034 L15,10.0034 L16.5,10.0034 C16.776,10.0034 17,9.7794 17,9.5034 C17,9.2284 16.776,9.0034 16.5,9.0034" id="Fill-483"></path>
                <path d="M19,9.5034 C19,10.7104 18.14,11.7204 17,11.9524 L17,13.0034 L15,13.0034 L15,12.0034 L13,12.0034 L13,4.0034 L15,4.0034 L15,3.0034 L17,3.0034 L17,4.0544 C18.14,4.2864 19,5.2964 19,6.5034 C19,7.0694 18.805,7.5854 18.487,8.0034 C18.805,8.4224 19,8.9384 19,9.5034 M16,0.0034 C12.835,0.0034 10.011,1.8704 8.73,4.6794 C7.884,4.2384 6.949,4.0034 6,4.0034 C2.691,4.0034 0,6.6954 0,10.0034 C0,13.3124 2.691,16.0034 6,16.0034 L16,16.0034 C20.411,16.0034 24,12.4144 24,8.0034 C24,3.5924 20.411,0.0034 16,0.0034" id="Fill-484"></path>
            </g>
        </g>
    </g>
</svg>