<?xml version="1.0" encoding="UTF-8"?>
<svg width="22px" height="22px" viewBox="0 0 22 22" version="1.1" xmlns="http://www.w3.org/2000/svg" xmlns:xlink="http://www.w3.org/1999/xlink">
    <!-- Generator: Sketch 42 (36781) - http://www.bohemiancoding.com/sketch -->
    <title>Fill 55</title>
    <desc>Created with Sketch.</desc>
    <defs></defs>
    <g id="Page-1" stroke="none" stroke-width="1" fill="none" fill-rule="evenodd">
        <g id="Solid-Icons" transform="translate(-433.000000, -49.000000)" fill="#757575">
            <g id="Fill-55" transform="translate(433.000000, 49.000000)">
                <path d="M10.9995,13.1006 C9.8425,13.1006 8.9005,12.1586 8.9005,11.0006 C8.9005,9.8436 9.8425,8.9006 10.9995,8.9006 C12.1575,8.9006 13.0995,9.8436 13.0995,11.0006 C13.0995,12.1586 12.1575,13.1006 10.9995,13.1006 M10.9995,0.5006 C5.2105,0.5006 0.4995,5.2106 0.4995,11.0006 C0.4995,16.7906 5.2105,21.5006 10.9995,21.5006 C13.1405,21.5006 15.1925,20.8686 16.9355,19.6716 L15.2375,17.1986 C13.9975,18.0506 12.5315,18.5006 10.9995,18.5006 C6.8645,18.5006 3.4995,15.1366 3.4995,11.0006 C3.4995,6.8656 6.8645,3.5006 10.9995,3.5006 C15.1355,3.5006 18.4995,6.8656 18.4995,11.0006 L18.4995,11.7836 C18.4995,12.4246 18.3565,13.5006 17.3995,13.5006 L17.0005,13.5006 C16.7085,13.4896 16.1195,12.9186 16.1005,12.6316 L16.1005,11.0006 L16.0995,11.0006 C16.0995,8.1876 13.8115,5.9006 10.9995,5.9006 C8.1875,5.9006 5.9005,8.1876 5.9005,11.0006 C5.9005,13.8126 8.1875,16.1006 10.9995,16.1006 C12.1705,16.1006 13.2385,15.6866 14.1005,15.0206 C14.8525,15.8876 15.9255,16.5006 16.9995,16.5006 L17.3995,16.5006 C19.8135,16.5006 21.4995,14.5606 21.4995,11.7836 L21.4995,11.0006 C21.4995,5.2106 16.7895,0.5006 10.9995,0.5006"></path>
            </g>
        </g>
    </g>
</svg>