<?xml version="1.0" encoding="UTF-8"?>
<svg width="20px" height="20px" viewBox="0 0 20 20" version="1.1" xmlns="http://www.w3.org/2000/svg" xmlns:xlink="http://www.w3.org/1999/xlink">
    <!-- Generator: Sketch 42 (36781) - http://www.bohemiancoding.com/sketch -->
    <title>Fill 261</title>
    <desc>Created with Sketch.</desc>
    <defs></defs>
    <g id="Page-1" stroke="none" stroke-width="1" fill="none" fill-rule="evenodd">
        <g id="Solid-Icons" transform="translate(-386.000000, -482.000000)" fill="#757575">
            <g id="Fill-261" transform="translate(386.000000, 482.000000)">
                <path d="M14.707,13.2935 L13.293,14.7075 L10,11.4145 L6.707,14.7075 L5.293,13.2935 L8.586,10.0005 L5.293,6.7075 L6.707,5.2935 L10,8.5865 L13.293,5.2935 L14.707,6.7075 L11.414,10.0005 L14.707,13.2935 Z M10,0.0005 C4.486,0.0005 0,4.4865 0,10.0005 C0,15.5155 4.486,20.0005 10,20.0005 C15.514,20.0005 20,15.5155 20,10.0005 C20,4.4865 15.514,0.0005 10,0.0005 L10,0.0005 Z"></path>
            </g>
        </g>
    </g>
</svg>