<?xml version="1.0" encoding="UTF-8"?>
<svg width="18px" height="21px" viewBox="0 0 18 21" version="1.1" xmlns="http://www.w3.org/2000/svg" xmlns:xlink="http://www.w3.org/1999/xlink">
    <!-- Generator: Sketch 42 (36781) - http://www.bohemiancoding.com/sketch -->
    <title>Fill 553 + Fill 554</title>
    <desc>Created with Sketch.</desc>
    <defs></defs>
    <g id="Page-1" stroke="none" stroke-width="1" fill="none" fill-rule="evenodd">
        <g id="Solid-Icons" transform="translate(-435.000000, -1011.000000)" fill="#767676">
            <g id="Fill-553-+-Fill-554" transform="translate(435.000000, 1011.000000)">
                <path d="M13.1099,13.7805 C12.9889,13.3485 12.5959,13.0495 12.1479,13.0495 L5.8569,13.0495 C5.4099,13.0495 5.0159,13.3485 4.8949,13.7805 C4.4589,15.3385 2.7669,17.0485 1.3069,18.2875 C0.9879,18.5585 0.8719,19.0005 1.0169,19.3945 C1.1609,19.7885 1.5359,20.0495 1.9549,20.0495 L16.0499,20.0495 C16.4689,20.0495 16.8439,19.7885 16.9889,19.3945 C17.1329,19.0005 17.0169,18.5595 16.6979,18.2875 C15.2379,17.0485 13.5469,15.3385 13.1099,13.7805" id="Fill-553"></path>
                <path d="M15.0024,3.0034 L13.2294,3.0034 C12.6044,1.2444 10.9174,0.0034 9.0024,0.0034 C7.0874,0.0034 5.4004,1.2444 4.7754,3.0034 L3.0024,3.0034 C1.3484,3.0034 0.0024,4.3494 0.0024,6.0034 C0.0024,7.6584 1.3484,9.0034 3.0024,9.0034 L7.0024,9.0034 L7.0024,12.0034 L11.0024,12.0034 L11.0024,9.0034 L15.0024,9.0034 C16.6564,9.0034 18.0024,7.6584 18.0024,6.0034 C18.0024,4.3494 16.6564,3.0034 15.0024,3.0034" id="Fill-554"></path>
            </g>
        </g>
    </g>
</svg>