<?xml version="1.0" encoding="UTF-8"?>
<svg width="14px" height="20px" viewBox="0 0 14 20" version="1.1" xmlns="http://www.w3.org/2000/svg" xmlns:xlink="http://www.w3.org/1999/xlink">
    <!-- Generator: Sketch 42 (36781) - http://www.bohemiancoding.com/sketch -->
    <title>Fill 624 + Fill 625</title>
    <desc>Created with Sketch.</desc>
    <defs></defs>
    <g id="Page-1" stroke="none" stroke-width="1" fill="none" fill-rule="evenodd">
        <g id="Solid-Icons" transform="translate(-293.000000, -1155.000000)" fill="#767676">
            <g id="Fill-624-+-Fill-625" transform="translate(293.000000, 1155.000000)">
                <path d="M13.4722,13.3989 C13.2832,13.1479 12.9882,13.0009 12.6742,13.0009 L1.3252,13.0009 C1.0112,13.0009 0.7162,13.1479 0.5272,13.3989 C0.3382,13.6489 0.2772,13.9729 0.3642,14.2749 L1.7922,19.2749 C1.9152,19.7049 2.3072,20.0009 2.7542,20.0009 L11.2452,20.0009 C11.6922,20.0009 12.0842,19.7049 12.2062,19.2749 L13.6352,14.2749 C13.7222,13.9729 13.6612,13.6489 13.4722,13.3989" id="Fill-624"></path>
                <path d="M6.9995,3.0005 C8.1035,3.0005 8.9995,3.8965 8.9995,5.0005 C8.9995,6.1045 8.1035,7.0005 6.9995,7.0005 C5.8945,7.0005 4.9995,6.1045 4.9995,5.0005 C4.9995,3.8965 5.8945,3.0005 6.9995,3.0005 M4.1775,5.9825 C4.1965,6.0395 4.2085,6.1005 4.2305,6.1555 C3.5085,6.4555 2.9995,7.1685 2.9995,8.0005 C2.9995,9.1045 3.8945,10.0005 4.9995,10.0005 C5.3655,10.0005 5.7045,9.8955 5.9995,9.7235 L5.9995,12.0005 L7.9995,12.0005 L7.9995,9.7235 C8.2945,9.8955 8.6335,10.0005 8.9995,10.0005 C10.1035,10.0005 10.9995,9.1045 10.9995,8.0005 C10.9995,7.1685 10.4905,6.4555 9.7685,6.1555 C9.7905,6.1005 9.8015,6.0395 9.8215,5.9825 C11.0875,6.0875 11.9995,5.1015 11.9995,4.0005 C11.9995,2.8965 11.1035,2.0005 9.9995,2.0005 C9.6215,2.0005 9.2715,2.1115 8.9705,2.2935 C9.1535,1.0135 8.1645,0.0005 6.9995,0.0005 C5.8405,0.0005 4.8445,1.0065 5.0285,2.2935 C4.7275,2.1115 4.3775,2.0005 3.9995,2.0005 C2.8945,2.0005 1.9995,2.8965 1.9995,4.0005 C1.9995,5.0985 2.9085,6.0875 4.1775,5.9825" id="Fill-625"></path>
            </g>
        </g>
    </g>
</svg>