<?xml version="1.0" encoding="UTF-8"?>
<svg width="20px" height="20px" viewBox="0 0 20 20" version="1.1" xmlns="http://www.w3.org/2000/svg" xmlns:xlink="http://www.w3.org/1999/xlink">
    <!-- Generator: Sketch 42 (36781) - http://www.bohemiancoding.com/sketch -->
    <title>Fill 529 + Fill 530</title>
    <desc>Created with Sketch.</desc>
    <defs></defs>
    <g id="Page-1" stroke="none" stroke-width="1" fill="none" fill-rule="evenodd">
        <g id="Solid-Icons" transform="translate(-2.000000, -961.000000)" fill="#767676">
            <g id="Fill-529-+-Fill-530" transform="translate(2.000000, 961.000000)">
                <path d="M10.0015,6.5029 C10.8305,6.5029 11.5015,5.8329 11.5015,5.0029 C11.5015,4.1739 10.8305,3.5029 10.0015,3.5029 C9.1725,3.5029 8.5015,4.1739 8.5015,5.0029 C8.5015,5.8329 9.1725,6.5029 10.0015,6.5029" id="Fill-529"></path>
                <path d="M10.0015,2.0029 C11.6585,2.0029 13.0015,3.3459 13.0015,5.0029 C13.0015,6.4719 10.5565,12.6489 10.0015,14.0029 C9.4435,12.6329 7.0015,6.4769 7.0015,5.0029 C7.0015,3.3459 8.3445,2.0029 10.0015,2.0029 M19.8985,17.3699 L17.4575,12.3699 C17.1855,11.5539 16.4205,11.0029 15.5605,11.0029 L13.2165,11.0029 C14.1515,8.6289 15.0015,6.1559 15.0015,5.0029 C15.0015,2.2459 12.7585,0.0029 10.0015,0.0029 C7.2445,0.0029 5.0015,2.2459 5.0015,5.0029 C5.0015,6.1559 5.8515,8.6289 6.7865,11.0029 L4.4425,11.0029 C3.5825,11.0029 2.8175,11.5539 2.5455,12.3699 L0.1045,17.3699 C-0.0995,17.9809 0.0025,18.6509 0.3785,19.1729 C0.7545,19.6939 1.3585,20.0029 2.0015,20.0029 L18.0015,20.0029 C18.6445,20.0029 19.2485,19.6939 19.6245,19.1729 C20.0005,18.6509 20.1025,17.9809 19.8985,17.3699" id="Fill-530"></path>
            </g>
        </g>
    </g>
</svg>