<?xml version="1.0" encoding="UTF-8"?>
<svg width="22px" height="20px" viewBox="0 0 22 20" version="1.1" xmlns="http://www.w3.org/2000/svg" xmlns:xlink="http://www.w3.org/1999/xlink">
    <!-- Generator: Sketch 42 (36781) - http://www.bohemiancoding.com/sketch -->
    <title>Fill 87 + Fill 88 + Fill 89</title>
    <desc>Created with Sketch.</desc>
    <defs></defs>
    <g id="Page-1" stroke="none" stroke-width="1" fill="none" fill-rule="evenodd">
        <g id="Solid-Icons" transform="translate(-192.000000, -148.000000)" fill="#757575">
            <g id="Fill-87-+-Fill-88-+-Fill-89" transform="translate(192.000000, 148.000000)">
                <path d="M8,12.0005 C10.206,12.0005 12,10.2065 12,8.0005 C12,5.7945 10.206,4.0005 8,4.0005 C5.794,4.0005 4,5.7945 4,8.0005 C4,10.2065 5.794,12.0005 8,12.0005" id="Fill-87"></path>
                <path d="M8,13.0005 C3.29,13.0005 0,15.4675 0,19.0005 L0,20.0005 L16,20.0005 L16,19.0005 C16,15.4675 12.71,13.0005 8,13.0005" id="Fill-88"></path>
                <polygon id="Fill-89" points="22 3.0005 19 3.0005 19 0.0005 17 0.0005 17 3.0005 14 3.0005 14 5.0005 17 5.0005 17 8.0005 19 8.0005 19 5.0005 22 5.0005"></polygon>
            </g>
        </g>
    </g>
</svg>