<?xml version="1.0" encoding="UTF-8"?>
<svg width="18px" height="18px" viewBox="0 0 18 18" version="1.1" xmlns="http://www.w3.org/2000/svg" xmlns:xlink="http://www.w3.org/1999/xlink">
    <!-- Generator: Sketch 42 (36781) - http://www.bohemiancoding.com/sketch -->
    <title>Fill 701 + Fill 702</title>
    <desc>Created with Sketch.</desc>
    <defs></defs>
    <g id="Page-1" stroke="none" stroke-width="1" fill="none" fill-rule="evenodd">
        <g id="Solid-Icons" transform="translate(-339.000000, -1251.000000)" fill="#767676">
            <g id="Fill-701-+-Fill-702" transform="translate(339.000000, 1251.000000)">
                <path d="M17.3081,0.6948 C17.0771,0.4648 16.6531,0.1888 15.9451,0.1888 C15.2261,0.1888 14.2861,0.4978 13.2121,1.0488 C13.7231,1.3198 14.2141,1.6418 14.6761,2.0188 C14.9761,1.8958 16.0191,1.5258 16.2471,1.7558 C17.4671,2.9698 11.8131,9.3108 10.5931,10.5328 C8.9731,12.1528 4.3141,16.3168 2.0541,16.3168 C1.3901,16.3168 1.7601,15.2858 2.0091,14.6708 C1.6341,14.2098 1.3111,13.7188 1.0411,13.2088 C-0.7179,16.6258 0.6151,17.8168 2.0541,17.8168 C3.2151,17.8168 4.9521,17.0248 6.9081,15.6718 C7.5691,15.8818 8.2691,16.0028 9.0001,16.0028 C12.8661,16.0028 16.0001,12.8688 16.0001,9.0028 C16.0001,8.2738 15.8791,7.5758 15.6711,6.9158 C16.8181,5.2628 18.7311,2.1168 17.3081,0.6948" id="Fill-701"></path>
                <path d="M9.5322,9.4722 C11.3422,7.6612 12.9152,5.7332 13.9572,4.0612 C12.6902,2.7892 10.9372,2.0022 9.0002,2.0022 C5.1342,2.0022 2.0002,5.1362 2.0002,9.0022 C2.0002,10.9322 2.7812,12.6792 4.0442,13.9462 C5.7352,12.9022 7.6952,11.3082 9.5322,9.4722" id="Fill-702"></path>
            </g>
        </g>
    </g>
</svg>