<?xml version="1.0" encoding="UTF-8"?>
<svg width="20px" height="21px" viewBox="0 0 20 21" version="1.1" xmlns="http://www.w3.org/2000/svg" xmlns:xlink="http://www.w3.org/1999/xlink">
    <!-- Generator: Sketch 42 (36781) - http://www.bohemiancoding.com/sketch -->
    <title>Fill 411 + Fill 412</title>
    <desc>Created with Sketch.</desc>
    <defs></defs>
    <g id="Page-1" stroke="none" stroke-width="1" fill="none" fill-rule="evenodd">
        <g id="Solid-Icons" transform="translate(-98.000000, -770.000000)" fill="#767676">
            <g id="Fill-411-+-Fill-412" transform="translate(98.000000, 770.000000)">
                <path d="M14,10.0005 C13.448,10.0005 13,9.5535 13,9.0005 C13,8.4485 13.448,8.0005 14,8.0005 C14.552,8.0005 15,8.4485 15,9.0005 C15,9.5535 14.552,10.0005 14,10.0005 L14,10.0005 Z M14,13.0005 C13.448,13.0005 13,12.5535 13,12.0005 C13,11.4485 13.448,11.0005 14,11.0005 C14.552,11.0005 15,11.4485 15,12.0005 C15,12.5535 14.552,13.0005 14,13.0005 L14,13.0005 Z M11,10.0005 C10.448,10.0005 10,9.5535 10,9.0005 C10,8.4485 10.448,8.0005 11,8.0005 C11.552,8.0005 12,8.4485 12,9.0005 C12,9.5535 11.552,10.0005 11,10.0005 L11,10.0005 Z M11,13.0005 C10.448,13.0005 10,12.5535 10,12.0005 C10,11.4485 10.448,11.0005 11,11.0005 C11.552,11.0005 12,11.4485 12,12.0005 C12,12.5535 11.552,13.0005 11,13.0005 L11,13.0005 Z M12,2.0005 L16,2.0005 L16,3.0005 L12,3.0005 L12,2.0005 Z M8,10.0005 L4,10.0005 L4,8.0005 L8,8.0005 L8,10.0005 Z M5,3.6195 L5.553,3.8955 C5.834,4.0355 6.166,4.0355 6.447,3.8955 L7,3.6195 L7,6.0005 L5,6.0005 L5,3.6195 Z M17.994,6.8905 C17.938,6.3835 17.51,6.0005 17,6.0005 L15,6.0005 L15,5.0005 L17,5.0005 C17.552,5.0005 18,4.5525 18,4.0005 L18,1.0005 C18,0.4485 17.552,0.0005 17,0.0005 L11,0.0005 C10.448,0.0005 10,0.4485 10,1.0005 L10,4.0005 C10,4.5525 10.448,5.0005 11,5.0005 L13,5.0005 L13,6.0005 L9,6.0005 L9,2.0005 C9,1.6535 8.82,1.3315 8.526,1.1505 C8.231,0.9675 7.862,0.9515 7.553,1.1065 L6,1.8825 L4.447,1.1065 C4.138,0.9515 3.769,0.9675 3.474,1.1505 C3.18,1.3315 3,1.6535 3,2.0005 L3,6.0005 C2.49,6.0005 2.062,6.3835 2.006,6.8905 L1.204,15.0005 L18.796,15.0005 L17.994,6.8905 Z" id="Fill-411"></path>
                <path d="M19,16.0005 L1,16.0005 C0.448,16.0005 0,16.4485 0,17.0005 L0,20.0005 C0,20.5525 0.448,21.0005 1,21.0005 L19,21.0005 C19.552,21.0005 20,20.5525 20,20.0005 L20,17.0005 C20,16.4485 19.552,16.0005 19,16.0005" id="Fill-412"></path>
            </g>
        </g>
    </g>
</svg>