<?xml version="1.0" encoding="UTF-8"?>
<svg width="22px" height="20px" viewBox="0 0 22 20" version="1.1" xmlns="http://www.w3.org/2000/svg" xmlns:xlink="http://www.w3.org/1999/xlink">
    <!-- Generator: Sketch 42 (36781) - http://www.bohemiancoding.com/sketch -->
    <title>Fill 772 + Fill 773 + Fill 774</title>
    <desc>Created with Sketch.</desc>
    <defs></defs>
    <g id="Page-1" stroke="none" stroke-width="1" fill="none" fill-rule="evenodd">
        <g id="Solid-Icons" transform="translate(-433.000000, -1346.000000)" fill="#767676">
            <g id="Fill-772-+-Fill-773-+-Fill-774" transform="translate(433.000000, 1346.000000)">
                <path d="M1.7573,8.0005 L5.0003,4.7575 L7.7513,7.5095 L12.2203,1.9225 L16.8323,8.8405 L18.0923,8.0005 L20.7123,8.0005 C20.8853,7.3325 21.0003,6.6635 21.0003,6.0005 C21.0003,2.4675 18.5323,0.0005 15.0003,0.0005 C13.4053,0.0005 11.9293,0.8375 11.0003,2.0805 C10.0713,0.8375 8.5943,0.0005 7.0003,0.0005 C3.4673,0.0005 1.0003,2.4675 1.0003,6.0005 C1.0003,6.6635 1.1153,7.3325 1.2883,8.0005 L1.7573,8.0005 Z" id="Fill-772"></path>
                <path d="M8.2485,16.4922 L4.9995,13.2442 L4.4205,13.8222 C7.0125,17.1312 10.1625,19.6162 10.3865,19.7892 C10.5665,19.9302 10.7835,20.0002 10.9995,20.0002 C11.2165,20.0002 11.4335,19.9302 11.6135,19.7892 C11.7625,19.6742 13.2145,18.5292 14.9305,16.8042 L11.7795,12.0782 L8.2485,16.4922 Z" id="Fill-773"></path>
                <polygon id="Fill-774" points="18.6973 10.0005 16.2773 11.6135 12.0733 5.3085 7.9173 10.5035 5.0003 7.5865 2.5863 10.0005 0.0003 10.0005 0.0003 12.0005 3.4143 12.0005 5.0003 10.4155 8.0833 13.4975 11.9263 8.6935 15.7223 14.3875 19.3023 12.0005 22.0003 12.0005 22.0003 10.0005"></polygon>
            </g>
        </g>
    </g>
</svg>