<?xml version="1.0" encoding="UTF-8"?>
<svg width="22px" height="22px" viewBox="0 0 22 22" version="1.1" xmlns="http://www.w3.org/2000/svg" xmlns:xlink="http://www.w3.org/1999/xlink">
    <!-- Generator: Sketch 42 (36781) - http://www.bohemiancoding.com/sketch -->
    <title>Fill 215</title>
    <desc>Created with Sketch.</desc>
    <defs></defs>
    <g id="Page-1" stroke="none" stroke-width="1" fill="none" fill-rule="evenodd">
        <g id="Solid-Icons" transform="translate(-1.000000, -337.000000)" fill="#757575">
            <g id="Fill-215" transform="translate(1.000000, 337.000000)">
                <path d="M13,16.0005 L12,16.0005 L12,14.0005 L13,14.0005 C14.103,14.0005 15,13.1035 15,12.0005 C15,10.8985 14.103,10.0005 13,10.0005 L7.414,10.0005 L9.414,12.0005 L8,13.4145 L3.586,9.0005 L8,4.5865 L9.414,6.0005 L7.414,8.0005 L13,8.0005 C15.206,8.0005 17,9.7945 17,12.0005 C17,14.2065 15.206,16.0005 13,16.0005 M11,0.0005 C4.935,0.0005 0,4.9355 0,11.0005 C0,17.0665 4.935,22.0005 11,22.0005 C17.065,22.0005 22,17.0665 22,11.0005 C22,4.9355 17.065,0.0005 11,0.0005"></path>
            </g>
        </g>
    </g>
</svg>