<?xml version="1.0" encoding="UTF-8"?>
<svg width="18px" height="18px" viewBox="0 0 18 18" version="1.1" xmlns="http://www.w3.org/2000/svg" xmlns:xlink="http://www.w3.org/1999/xlink">
    <!-- Generator: Sketch 42 (36781) - http://www.bohemiancoding.com/sketch -->
    <title>Fill 128 + Fill 129</title>
    <desc>Created with Sketch.</desc>
    <defs></defs>
    <g id="Page-1" stroke="none" stroke-width="1" fill="none" fill-rule="evenodd">
        <g id="Solid-Icons" transform="translate(-146.000000, -244.000000)" fill="#757575">
            <g id="Fill-128-+-Fill-129" transform="translate(146.000000, 244.000000)">
                <polygon id="Fill-128" points="10 0.0005 10 2.0005 14.586 2.0005 8.293 8.2935 9.707 9.7075 16 3.4145 16 8.0005 18 8.0005 18 0.0005"></polygon>
                <path d="M16,12.0005 L12,12.0005 C11.447,12.0005 11,12.4475 11,13.0005 L11,14.0005 C7,14.0005 4.062,10.9385 4,7.0005 L5,7.0005 C5.553,7.0005 6,6.5535 6,6.0005 L6,2.0005 C6,1.4475 5.553,1.0005 5,1.0005 L1,1.0005 C0.447,1.0005 0,1.4475 0,2.0005 L0,7.0005 C0,13.0755 4.925,18.0005 11,18.0005 L16,18.0005 C16.553,18.0005 17,17.5535 17,17.0005 L17,13.0005 C17,12.4475 16.553,12.0005 16,12.0005" id="Fill-129"></path>
            </g>
        </g>
    </g>
</svg>