<?xml version="1.0" encoding="UTF-8"?>
<svg width="23px" height="19px" viewBox="0 0 23 19" version="1.1" xmlns="http://www.w3.org/2000/svg" xmlns:xlink="http://www.w3.org/1999/xlink">
    <!-- Generator: Sketch 42 (36781) - http://www.bohemiancoding.com/sketch -->
    <title>Fill 93 + Fill 94 + Fill 95</title>
    <desc>Created with Sketch.</desc>
    <defs></defs>
    <g id="Page-1" stroke="none" stroke-width="1" fill="none" fill-rule="evenodd">
        <g id="Solid-Icons" transform="translate(-288.000000, -149.000000)" fill="#757575">
            <g id="Fill-93-+-Fill-94-+-Fill-95" transform="translate(288.000000, 149.000000)">
                <path d="M8,11.0005 C10.206,11.0005 12,9.2065 12,7.0005 C12,4.7945 10.206,3.0005 8,3.0005 C5.794,3.0005 4,4.7945 4,7.0005 C4,9.2065 5.794,11.0005 8,11.0005" id="Fill-93"></path>
                <path d="M8,12.0005 C3.29,12.0005 0,14.4675 0,18.0005 L0,19.0005 L16,19.0005 L16,18.0005 C16,14.4675 12.71,12.0005 8,12.0005" id="Fill-94"></path>
                <polygon id="Fill-95" points="17 7.4146 13.293 3.7066 14.707 2.2936 17 4.5866 21.293 0.2936 22.707 1.7066"></polygon>
            </g>
        </g>
    </g>
</svg>