<?xml version="1.0" encoding="UTF-8"?>
<svg width="14px" height="21px" viewBox="0 0 14 21" version="1.1" xmlns="http://www.w3.org/2000/svg" xmlns:xlink="http://www.w3.org/1999/xlink">
    <!-- Generator: Sketch 42 (36781) - http://www.bohemiancoding.com/sketch -->
    <title>Fill 331</title>
    <desc>Created with Sketch.</desc>
    <defs></defs>
    <g id="Page-1" stroke="none" stroke-width="1" fill="none" fill-rule="evenodd">
        <g id="Solid-Icons" transform="translate(-389.000000, -578.000000)" fill="#767676">
            <g id="Fill-331" transform="translate(389.000000, 578.000000)">
                <path d="M4,14.0054 C4,12.3484 5.343,11.0054 7,11.0054 C8.657,11.0054 10,12.3484 10,14.0054 L4,14.0054 Z M7,6.0054 C8.104,6.0054 9,6.9014 9,8.0054 C9,9.1104 8.104,10.0054 7,10.0054 C5.896,10.0054 5,9.1104 5,8.0054 C5,6.9014 5.896,6.0054 7,6.0054 L7,6.0054 Z M12,0.0054 L2,0.0054 C0.896,0.0054 0,0.9014 0,2.0054 L0,18.0054 C0,19.1104 0.896,20.0054 2,20.0054 L12,20.0054 C13.104,20.0054 14,19.1104 14,18.0054 L14,2.0054 C14,0.9014 13.104,0.0054 12,0.0054 L12,0.0054 Z"></path>
            </g>
        </g>
    </g>
</svg>