<?xml version="1.0" encoding="UTF-8"?>
<svg width="24px" height="20px" viewBox="0 0 24 20" version="1.1" xmlns="http://www.w3.org/2000/svg" xmlns:xlink="http://www.w3.org/1999/xlink">
    <!-- Generator: Sketch 42 (36781) - http://www.bohemiancoding.com/sketch -->
    <title>Fill 429 + Fill 430</title>
    <desc>Created with Sketch.</desc>
    <defs></defs>
    <g id="Page-1" stroke="none" stroke-width="1" fill="none" fill-rule="evenodd">
        <g id="Solid-Icons" transform="translate(-384.000000, -817.000000)" fill="#B4B4B4">
            <g id="Fill-429-+-Fill-430" transform="translate(384.000000, 817.000000)">
                <path d="M16,13.0005 C17.104,13.0005 18,12.1045 18,11.0005 C18,9.8965 17.104,9.0005 16,9.0005 C14.896,9.0005 14,9.8965 14,11.0005 C14,12.1045 14.896,13.0005 16,13.0005" id="Fill-429"></path>
                <path d="M4,16 L2,16 L2,10 L4,10 L4,16 Z M23,5 L21.566,5 L18.857,0.485 C18.714,0.247 18.478,0.078 18.204,0.021 C17.933,-0.035 17.647,0.025 17.419,0.186 L10.68,5 L14.121,5 L17.7,2.445 L19.234,5 L15,5 L15,7 L22,7 L22,15 L10,15 L10,13 L8,13 L8,16 C8,16.553 8.448,17 9,17 L15.882,17 L15.658,17.449 C15.488,17.79 15.146,18 14.765,18 L8.414,18 L6,15.586 L6,10.415 L8.414,8 L12,8 L12,9 C12,9.552 11.552,10 11,10 L9,10 L9,12 L11,12 C12.654,12 14,10.655 14,9 L14,7 C14,6.449 13.553,6 13,6 L8,6 C7.735,6 7.48,6.105 7.293,6.294 L5.46,8.127 C5.32,8.053 5.169,8 5,8 L1,8 C0.448,8 0,8.449 0,9 L0,17 C0,17.553 0.448,18 1,18 L5,18 C5.169,18 5.32,17.949 5.46,17.875 L7.293,19.708 C7.48,19.894 7.735,20 8,20 L14.765,20 C15.908,20 16.936,19.366 17.447,18.342 L18.118,17 L23,17 C23.553,17 24,16.553 24,16 L24,6 C24,5.449 23.553,5 23,5 L23,5 Z" id="Fill-430"></path>
            </g>
        </g>
    </g>
</svg>