<?xml version="1.0" encoding="UTF-8"?>
<svg width="22px" height="22px" viewBox="0 0 22 22" version="1.1" xmlns="http://www.w3.org/2000/svg" xmlns:xlink="http://www.w3.org/1999/xlink">
    <!-- Generator: Sketch 42 (36781) - http://www.bohemiancoding.com/sketch -->
    <title>Fill 130 + Fill 131</title>
    <desc>Created with Sketch.</desc>
    <defs></defs>
    <g id="Page-1" stroke="none" stroke-width="1" fill="none" fill-rule="evenodd">
        <g id="Solid-Icons" transform="translate(-97.000000, -241.000000)" fill="#757575">
            <g id="Fill-130-+-Fill-131" transform="translate(97.000000, 241.000000)">
                <path d="M20.8994,5.7583 L18.0714,2.9293 C14.1724,-0.9707 7.8284,-0.9707 3.9284,2.9293 L1.1004,5.7583 C0.7224,6.1363 0.5144,6.6383 0.5144,7.1733 C0.5144,7.7063 0.7224,8.2083 1.1004,8.5863 L3.2214,10.7073 C3.5994,11.0853 4.1014,11.2933 4.6354,11.2933 C5.1704,11.2933 5.6724,11.0853 6.0494,10.7073 L8.1724,8.5863 C8.5494,8.2083 8.7574,7.7063 8.7574,7.1733 C8.7574,6.6383 8.5494,6.1363 8.1724,5.7583 L6.0984,3.6863 C8.9734,1.4523 13.0264,1.4523 15.9014,3.6863 L13.8274,5.7593 C13.0494,6.5383 13.0494,7.8063 13.8284,8.5863 L15.9494,10.7073 C16.3274,11.0853 16.8294,11.2933 17.3634,11.2933 C17.8984,11.2933 18.4004,11.0853 18.7784,10.7073 L20.8994,8.5863 C21.6794,7.8073 21.6794,6.5383 20.8994,5.7583" id="Fill-130"></path>
                <path d="M11,20.0005 C9.343,20.0005 8,18.6575 8,17.0005 C8,15.3435 9.343,14.0005 11,14.0005 C12.657,14.0005 14,15.3435 14,17.0005 C14,18.6575 12.657,20.0005 11,20.0005 M14,12.0805 L14,10.0005 L12,10.0005 L12,12.0005 L10,12.0005 L10,10.0005 L8,10.0005 L8,12.0805 C4.613,12.5675 2,15.4805 2,19.0005 L2,22.0005 L20,22.0005 L20,19.0005 C20,15.4805 17.387,12.5675 14,12.0805" id="Fill-131"></path>
            </g>
        </g>
    </g>
</svg>