<?xml version="1.0" encoding="UTF-8"?>
<svg width="20px" height="20px" viewBox="0 0 20 20" version="1.1" xmlns="http://www.w3.org/2000/svg" xmlns:xlink="http://www.w3.org/1999/xlink">
    <!-- Generator: Sketch 42 (36781) - http://www.bohemiancoding.com/sketch -->
    <title>Fill 222 + Fill 223 + Fill 224</title>
    <desc>Created with Sketch.</desc>
    <defs></defs>
    <g id="Page-1" stroke="none" stroke-width="1" fill="none" fill-rule="evenodd">
        <g id="Solid-Icons" transform="translate(-386.000000, -434.000000)" fill="#B4B4B4">
            <g id="Fill-222-+-Fill-223-+-Fill-224" transform="translate(386.000000, 434.000000)">
                <path d="M4.3506,4.3511 C5.8236,2.8721 7.8276,2.0001 9.9996,2.0001 C14.4116,2.0001 17.9996,5.5891 17.9996,10.0001 L19.9996,10.0001 C19.9996,4.4861 15.5146,9.99999997e-05 9.9996,9.99999997e-05 C7.2846,9.99999997e-05 4.7796,1.0891 2.9376,2.9381 L0.9996,1.0001 L0.9996,7.0001 L6.9996,7.0001 L4.3506,4.3511 Z" id="Fill-222"></path>
                <path d="M15.6494,15.6504 C14.1764,17.1294 12.1724,18.0004 10.0004,18.0004 C5.5884,18.0004 2.0004,14.4114 2.0004,10.0004 L0.0004,10.0004 C0.0004,15.5154 4.4854,20.0004 10.0004,20.0004 C12.7154,20.0004 15.2204,18.9114 17.0624,17.0624 L19.0004,19.0004 L19.0004,13.0004 L13.0004,13.0004 L15.6494,15.6504 Z" id="Fill-223"></path>
                <path d="M8,10.0005 C8,11.1045 8.895,12.0005 10,12.0005 C11.103,12.0005 12,11.1045 12,10.0005 C12,8.8965 11.103,8.0005 10,8.0005 C8.895,8.0005 8,8.8965 8,10.0005" id="Fill-224"></path>
            </g>
        </g>
    </g>
</svg>