<?xml version="1.0" encoding="UTF-8"?>
<svg width="20px" height="20px" viewBox="0 0 20 20" version="1.1" xmlns="http://www.w3.org/2000/svg" xmlns:xlink="http://www.w3.org/1999/xlink">
    <!-- Generator: Sketch 42 (36781) - http://www.bohemiancoding.com/sketch -->
    <title>Fill 476 + Fill 477</title>
    <desc>Created with Sketch.</desc>
    <defs></defs>
    <g id="Page-1" stroke="none" stroke-width="1" fill="none" fill-rule="evenodd">
        <g id="Solid-Icons" transform="translate(-338.000000, -866.000000)" fill="#767676">
            <g id="Fill-476-+-Fill-477" transform="translate(338.000000, 866.000000)">
                <path d="M18,14.0005 L11.415,14.0005 L9.415,12.0005 L11.415,10.0005 L18,10.0005 L18,14.0005 Z M12.517,2.2705 L13.382,4.0005 L8.193,4.0005 L12.517,2.2705 Z M19,8.0005 L18,8.0005 L18,6.0005 C18,4.8985 17.103,4.0005 16,4.0005 L15.618,4.0005 L13.895,0.5535 C13.662,0.0885 13.113,-0.1195 12.628,0.0715 L2.807,4.0005 L2,4.0005 C0.897,4.0005 0,4.8985 0,6.0005 L0,18.0005 C0,19.1035 0.897,20.0005 2,20.0005 L16,20.0005 C17.103,20.0005 18,19.1035 18,18.0005 L18,16.0005 L19,16.0005 C19.552,16.0005 20,15.5525 20,15.0005 L20,9.0005 C20,8.4485 19.552,8.0005 19,8.0005 L19,8.0005 Z" id="Fill-476"></path>
                <path d="M13,13.0005 C13.552,13.0005 14,12.5535 14,12.0005 C14,11.4485 13.552,11.0005 13,11.0005 C12.448,11.0005 12,11.4485 12,12.0005 C12,12.5535 12.448,13.0005 13,13.0005" id="Fill-477"></path>
            </g>
        </g>
    </g>
</svg>