<?xml version="1.0" encoding="UTF-8"?>
<svg width="20px" height="20px" viewBox="0 0 20 20" version="1.1" xmlns="http://www.w3.org/2000/svg" xmlns:xlink="http://www.w3.org/1999/xlink">
    <!-- Generator: Sketch 42 (36781) - http://www.bohemiancoding.com/sketch -->
    <title>Fill 717 + Fill 718</title>
    <desc>Created with Sketch.</desc>
    <defs></defs>
    <g id="Page-1" stroke="none" stroke-width="1" fill="none" fill-rule="evenodd">
        <g id="Solid-Icons" transform="translate(-194.000000, -1298.000000)" fill="#767676">
            <g id="Fill-717-+-Fill-718" transform="translate(194.000000, 1298.000000)">
                <path d="M17.001,9.0025 L14.001,9.0025 L14.001,11.0025 L17.001,11.0025 C17.552,11.0025 18.001,11.4505 18.001,12.0025 C18.001,12.5545 17.552,13.0025 17.001,13.0025 L4.001,13.0025 C2.347,13.0025 1.001,14.3485 1.001,16.0025 C1.001,17.6565 2.347,19.0025 4.001,19.0025 L13.001,19.0025 L13.001,20.0025 L15.001,20.0025 L15.001,18.0025 C15.001,17.4505 14.553,17.0025 14.001,17.0025 L4.001,17.0025 C3.45,17.0025 3.001,16.5545 3.001,16.0025 C3.001,15.4505 3.45,15.0025 4.001,15.0025 L17.001,15.0025 C18.655,15.0025 20.001,13.6565 20.001,12.0025 C20.001,10.3485 18.655,9.0025 17.001,9.0025" id="Fill-717"></path>
                <path d="M3.001,7.003 L9.001,7.003 L9.001,9.003 L3.001,9.003 L3.001,7.003 Z M12.001,12.003 C12.553,12.003 13.001,11.554 13.001,11.003 L13.001,7.003 C13.001,3.142 9.861,0.003 6.001,0.003 L2.001,0.003 C0.898,0.003 0.001,0.9 0.001,2.003 L0.001,11.003 C0.001,11.554 0.449,12.003 1.001,12.003 L12.001,12.003 Z" id="Fill-718"></path>
            </g>
        </g>
    </g>
</svg>