<?xml version="1.0" encoding="UTF-8"?>
<svg width="20px" height="17px" viewBox="0 0 20 17" version="1.1" xmlns="http://www.w3.org/2000/svg" xmlns:xlink="http://www.w3.org/1999/xlink">
    <!-- Generator: Sketch 42 (36781) - http://www.bohemiancoding.com/sketch -->
    <title>Fill 877</title>
    <desc>Created with Sketch.</desc>
    <defs></defs>
    <g id="Page-1" stroke="none" stroke-width="1" fill="none" fill-rule="evenodd">
        <g id="Solid-Icons" transform="translate(-434.000000, -1588.000000)" fill="#757575">
            <g id="Fill-877" transform="translate(434.000000, 1588.000000)">
                <path d="M9,13.4146 L5.293,9.7066 L6.707,8.2936 L9,10.5866 L13.293,6.2936 L14.707,7.7066 L9,13.4146 Z M18,3.0006 L10,3.0006 L8.553,1.1066 C8.214,0.4286 7.522,0.0006 6.764,0.0006 L1,0.0006 C0.447,0.0006 0,0.4476 0,1.0006 L0,15.0006 C0,16.1046 0.896,17.0006 2,17.0006 L18,17.0006 C19.104,17.0006 20,16.1046 20,15.0006 L20,5.0006 C20,3.8956 19.104,3.0006 18,3.0006 L18,3.0006 Z"></path>
            </g>
        </g>
    </g>
</svg>