<?xml version="1.0" encoding="UTF-8"?>
<svg width="20px" height="18px" viewBox="0 0 20 18" version="1.1" xmlns="http://www.w3.org/2000/svg" xmlns:xlink="http://www.w3.org/1999/xlink">
    <!-- Generator: Sketch 42 (36781) - http://www.bohemiancoding.com/sketch -->
    <title>Fill 778 + Fill 779</title>
    <desc>Created with Sketch.</desc>
    <defs></defs>
    <g id="Page-1" stroke="none" stroke-width="1" fill="none" fill-rule="evenodd">
        <g id="Solid-Icons" transform="translate(-242.000000, -1395.000000)" fill="#767676">
            <g id="Fill-778-+-Fill-779" transform="translate(241.000000, 1395.000000)">
                <polygon id="Fill-778" points="3.999 10.9995 5.999 10.9995 5.999 11.9995 7.999 11.9995 7.999 10.9995 8.999 10.9995 8.999 7.9995 0.999 7.9995 0.999 9.9995 3.999 9.9995"></polygon>
                <path d="M18.999,3 L14.999,3 L14.999,2 L18.999,2 L18.999,3 Z M18.999,5 L14.999,5 L14.999,4 L18.999,4 L18.999,5 Z M18.999,16 L15.999,16 L15.999,11 C15.999,9.895 16.895,9 17.999,9 L18.999,9 L18.999,16 Z M7.499,5 C6.671,5 5.999,4.328 5.999,3.5 C5.999,2.671 6.671,2 7.499,2 C8.327,2 8.999,2.671 8.999,3.5 C8.999,4.328 8.327,5 7.499,5 L7.499,5 Z M19.999,0 L4.999,0 C4.447,0 3.999,0.448 3.999,1 L3.999,6 C3.999,6.551 4.447,7 4.999,7 L9.999,7 L9.999,16 L0.999,16 L0.999,18 L20.999,18 L20.999,1 C20.999,0.448 20.551,0 19.999,0 L19.999,0 Z" id="Fill-779"></path>
            </g>
        </g>
    </g>
</svg>