<?xml version="1.0" encoding="UTF-8"?>
<svg width="17px" height="20px" viewBox="0 0 17 20" version="1.1" xmlns="http://www.w3.org/2000/svg" xmlns:xlink="http://www.w3.org/1999/xlink">
    <!-- Generator: Sketch 42 (36781) - http://www.bohemiancoding.com/sketch -->
    <title>Fill 804 + Fill 805</title>
    <desc>Created with Sketch.</desc>
    <defs></defs>
    <g id="Page-1" stroke="none" stroke-width="1" fill="none" fill-rule="evenodd">
        <g id="Solid-Icons" transform="translate(-195.000000, -1442.000000)" fill="#767676">
            <g id="Fill-804-+-Fill-805" transform="translate(194.000000, 1442.000000)">
                <path d="M3.999,17.0005 L3.999,19.0005 C3.999,19.5525 4.447,20.0005 4.999,20.0005 L13.999,20.0005 C14.551,20.0005 14.999,19.5525 14.999,19.0005 L14.999,17.0005 L3.999,17.0005 Z" id="Fill-804"></path>
                <path d="M14.999,2.0005 C14.435,2.0005 13.923,2.1145 13.446,2.3515 C12.63,0.8245 11.265,0.0005 9.499,0.0005 C7.733,0.0005 6.368,0.8245 5.553,2.3505 C5.132,2.1445 4.621,2.0005 3.999,2.0005 C2.457,2.0005 0.999,3.4585 0.999,5.0005 C0.999,6.8605 2.276,8.4285 3.999,8.8745 L3.999,16.0005 L5.999,16.0005 L5.999,13.0005 L6.999,13.0005 L6.999,16.0005 L8.999,16.0005 L8.999,11.0005 L9.999,11.0005 L9.999,16.0005 L11.999,16.0005 L11.999,13.0005 L12.999,13.0005 L12.999,16.0005 L14.999,16.0005 L14.999,8.8745 C16.722,8.4285 17.999,6.8605 17.999,5.0005 C17.999,3.4585 16.541,2.0005 14.999,2.0005" id="Fill-805"></path>
            </g>
        </g>
    </g>
</svg>