<?xml version="1.0" encoding="UTF-8"?>
<svg width="18px" height="24px" viewBox="0 0 18 24" version="1.1" xmlns="http://www.w3.org/2000/svg" xmlns:xlink="http://www.w3.org/1999/xlink">
    <!-- Generator: Sketch 42 (36781) - http://www.bohemiancoding.com/sketch -->
    <title>Fill 208 + Fill 209</title>
    <desc>Created with Sketch.</desc>
    <defs></defs>
    <g id="Page-1" stroke="none" stroke-width="1" fill="none" fill-rule="evenodd">
        <g id="Solid-Icons" transform="translate(-51.000000, -432.000000)" fill="#757575">
            <g id="Fill-208-+-Fill-209" transform="translate(51.000000, 432.000000)">
                <path d="M16,8.0005 L15,8.0005 L15,10.0005 L16,10.0005 L16,16.0005 L2,16.0005 L2,10.0005 L3,10.0005 L3,8.0005 L2,8.0005 C0.897,8.0005 0,8.8975 0,10.0005 L0,19.0005 C0,20.1035 0.897,21.0005 2,21.0005 L8,21.0005 L8,22.0005 L5,22.0005 L5,24.0005 L13,24.0005 L13,22.0005 L10,22.0005 L10,21.0005 L16,21.0005 C17.103,21.0005 18,20.1035 18,19.0005 L18,10.0005 C18,8.8975 17.103,8.0005 16,8.0005" id="Fill-208"></path>
                <polygon id="Fill-209" points="13.707 7.707 12.293 6.293 10 8.586 10 -2.27373675e-13 8 -2.27373675e-13 8 8.586 5.707 6.293 4.293 7.707 9 12.415"></polygon>
            </g>
        </g>
    </g>
</svg>