<?xml version="1.0" encoding="UTF-8"?>
<svg width="16px" height="21px" viewBox="0 0 16 21" version="1.1" xmlns="http://www.w3.org/2000/svg" xmlns:xlink="http://www.w3.org/1999/xlink">
    <!-- Generator: Sketch 42 (36781) - http://www.bohemiancoding.com/sketch -->
    <title>Fill 103 + Fill 104</title>
    <desc>Created with Sketch.</desc>
    <defs></defs>
    <g id="Page-1" stroke="none" stroke-width="1" fill="none" fill-rule="evenodd">
        <g id="Solid-Icons" transform="translate(-436.000000, -147.000000)" fill="#757575">
            <g id="Fill-103-+-Fill-104" transform="translate(436.000000, 147.000000)">
                <path d="M8,10.0005 C6.346,10.0005 5,8.6545 5,7.0005 C5,6.9145 5.019,6.8235 5.026,6.7355 C5.903,6.9035 6.917,7.0005 8,7.0005 C9.083,7.0005 10.097,6.9035 10.974,6.7355 C10.981,6.8235 11,6.9145 11,7.0005 C11,8.6545 9.654,10.0005 8,10.0005 L8,10.0005 Z M6,2.0005 L10,2.0005 L10,4.0005 L8,5.0005 L6,4.0005 L6,2.0005 Z M8,0.0005 L1,2.0005 L2,4.0005 L2,5.0005 C2,5.4245 2.398,5.8165 3.072,6.1405 C3.028,6.4285 3,6.7175 3,7.0005 C3,9.7575 5.243,12.0005 8,12.0005 C10.757,12.0005 13,9.7575 13,7.0005 C13,6.7175 12.972,6.4285 12.928,6.1405 C13.602,5.8165 14,5.4245 14,5.0005 L14,4.0005 L15,2.0005 L8,0.0005 Z" id="Fill-103"></path>
                <path d="M8,17.0005 C7.447,17.0005 7,16.5535 7,16.0005 C7,15.4475 7.447,15.0005 8,15.0005 C8.553,15.0005 9,15.4475 9,16.0005 C9,16.5535 8.553,17.0005 8,17.0005 M8,20.0005 C7.447,20.0005 7,19.5535 7,19.0005 C7,18.4475 7.447,18.0005 8,18.0005 C8.553,18.0005 9,18.4475 9,19.0005 C9,19.5535 8.553,20.0005 8,20.0005 M8,13.0005 C3.29,13.0005 0,15.4675 0,19.0005 L0,21.0005 L16,21.0005 L16,19.0005 C16,15.4675 12.71,13.0005 8,13.0005" id="Fill-104"></path>
            </g>
        </g>
    </g>
</svg>