<?xml version="1.0" encoding="UTF-8"?>
<svg width="20px" height="20px" viewBox="0 0 20 20" version="1.1" xmlns="http://www.w3.org/2000/svg" xmlns:xlink="http://www.w3.org/1999/xlink">
    <!-- Generator: Sketch 42 (36781) - http://www.bohemiancoding.com/sketch -->
    <title>Fill 53 + Fill 54</title>
    <desc>Created with Sketch.</desc>
    <defs></defs>
    <g id="Page-1" stroke="none" stroke-width="1" fill="none" fill-rule="evenodd">
        <g id="Solid-Icons" transform="translate(-386.000000, -50.000000)" fill="#757575">
            <g id="Fill-53-+-Fill-54" transform="translate(386.000000, 50.000000)">
                <path d="M19,9.0005 C19.488,9.0005 19.905,8.6485 19.986,8.1675 C20.067,7.6865 19.788,7.2165 19.327,7.0565 L1.327,0.9005 C0.93,0.7635 0.488,0.8905 0.224,1.2165 C-0.041,1.5415 -0.074,1.9995 0.143,2.3595 L3.836,8.5155 C4.017,8.8155 4.342,9.0005 4.693,9.0005 L19,9.0005 Z" id="Fill-53"></path>
                <path d="M4.6934,11.0005 C4.3414,11.0005 4.0164,11.1865 3.8364,11.4855 L0.1424,17.6425 C-0.0746,18.0015 -0.0406,18.4605 0.2234,18.7865 C0.4884,19.1115 0.9294,19.2375 1.3274,19.1005 L19.3274,12.9455 C19.7884,12.7865 20.0674,12.3155 19.9864,11.8345 C19.9054,11.3525 19.4884,11.0005 19.0004,11.0005 L4.6934,11.0005 Z" id="Fill-54"></path>
            </g>
        </g>
    </g>
</svg>