<?xml version="1.0" encoding="UTF-8"?>
<svg width="20px" height="20px" viewBox="0 0 20 20" version="1.1" xmlns="http://www.w3.org/2000/svg" xmlns:xlink="http://www.w3.org/1999/xlink">
    <!-- Generator: Sketch 42 (36781) - http://www.bohemiancoding.com/sketch -->
    <title>Fill 50</title>
    <desc>Created with Sketch.</desc>
    <defs></defs>
    <g id="Page-1" stroke="none" stroke-width="1" fill="none" fill-rule="evenodd">
        <g id="Solid-Icons" transform="translate(-242.000000, -50.000000)" fill="#757575">
            <g id="Fill-50" transform="translate(242.000000, 50.000000)">
                <path d="M11.3784,10.6504 L12.0004,15.0004 L8.0004,15.0004 L8.6214,10.6504 C7.6624,10.1494 7.0004,9.1574 7.0004,8.0004 C7.0004,6.3444 8.3434,5.0004 10.0004,5.0004 C11.6564,5.0004 13.0004,6.3444 13.0004,8.0004 C13.0004,9.1574 12.3384,10.1494 11.3784,10.6504 M10.0004,0.0004 C4.4764,0.0004 0.0004,4.4784 0.0004,10.0004 C0.0004,15.5234 4.4764,20.0004 10.0004,20.0004 C15.5224,20.0004 20.0004,15.5234 20.0004,10.0004 C20.0004,4.4784 15.5224,0.0004 10.0004,0.0004"></path>
            </g>
        </g>
    </g>
</svg>