<?xml version="1.0" encoding="UTF-8"?>
<svg width="21px" height="21px" viewBox="0 0 21 21" version="1.1" xmlns="http://www.w3.org/2000/svg" xmlns:xlink="http://www.w3.org/1999/xlink">
    <!-- Generator: Sketch 42 (36781) - http://www.bohemiancoding.com/sketch -->
    <title>Fill 134 + Fill 135</title>
    <desc>Created with Sketch.</desc>
    <defs></defs>
    <g id="Page-1" stroke="none" stroke-width="1" fill="none" fill-rule="evenodd">
        <g id="Solid-Icons" transform="translate(-242.000000, -242.000000)" fill="#757575">
            <g id="Fill-134-+-Fill-135" transform="translate(242.000000, 242.000000)">
                <path d="M6,10.7812 L6,4.0002 L12.78,4.0002 L15.743,1.0372 C15.402,0.4232 14.753,0.0002 14,0.0002 L6,0.0002 C4.896,0.0002 4,0.8962 4,2.0002 L4,12.7812 L6,10.7812 Z" id="Fill-134"></path>
                <path d="M14,16.0005 L6.438,16.0005 L14,8.4385 L14,16.0005 Z M19.293,0.3165 L0.822,18.7875 L2.236,20.2015 L4.04,18.3985 C4.225,19.3125 5.032,20.0005 6,20.0005 L14,20.0005 C15.104,20.0005 16,19.1045 16,18.0005 L16,6.4375 L20.707,1.7305 L19.293,0.3165 Z" id="Fill-135"></path>
            </g>
        </g>
    </g>
</svg>