<?xml version="1.0" encoding="UTF-8"?>
<svg width="20px" height="20px" viewBox="0 0 20 20" version="1.1" xmlns="http://www.w3.org/2000/svg" xmlns:xlink="http://www.w3.org/1999/xlink">
    <!-- Generator: Sketch 42 (36781) - http://www.bohemiancoding.com/sketch -->
    <title>Fill 187 + Fill 188 + Fill 189</title>
    <desc>Created with Sketch.</desc>
    <defs></defs>
    <g id="Page-1" stroke="none" stroke-width="1" fill="none" fill-rule="evenodd">
        <g id="Solid-Icons" transform="translate(-338.000000, -386.000000)" fill="#757575">
            <g id="Fill-187-+-Fill-188-+-Fill-189" transform="translate(338.000000, 386.000000)">
                <path d="M19.707,11.6064 L8.393,0.2934 C8.002,-0.0976 7.369,-0.0976 6.978,0.2934 C5.278,1.9934 4.342,4.2524 4.342,6.6564 C4.342,9.0604 5.278,11.3204 6.978,13.0204 C8.679,14.7204 10.939,15.6564 13.343,15.6564 C15.747,15.6564 18.007,14.7204 19.707,13.0204 C19.894,12.8324 20,12.5784 20,12.3134 C20,12.0474 19.894,11.7934 19.707,11.6064" id="Fill-187"></path>
                <path d="M15.6445,5.645 L16.3935,4.896 C16.5855,4.958 16.7875,5 16.9995,5 C18.1035,5 18.9995,4.104 18.9995,3 C18.9995,1.896 18.1035,1 16.9995,1 C15.8945,1 14.9995,1.896 14.9995,3 C14.9995,3.143 15.0165,3.282 15.0445,3.416 L14.2305,4.231 L15.6445,5.645 Z" id="Fill-188"></path>
                <path d="M4.707,12.2935 C4.479,12.0665 4.156,11.9625 3.84,12.0135 C3.522,12.0645 3.25,12.2665 3.105,12.5535 L0.105,18.5535 C-0.049,18.8635 -0.033,19.2315 0.149,19.5265 C0.332,19.8205 0.653,20.0005 1,20.0005 L10,20.0005 C10.404,20.0005 10.769,19.7575 10.924,19.3835 C11.079,19.0095 10.993,18.5795 10.707,18.2935 L4.707,12.2935 Z" id="Fill-189"></path>
            </g>
        </g>
    </g>
</svg>