<?xml version="1.0" encoding="UTF-8"?>
<svg width="18px" height="18px" viewBox="0 0 18 18" version="1.1" xmlns="http://www.w3.org/2000/svg" xmlns:xlink="http://www.w3.org/1999/xlink">
    <!-- Generator: Sketch 42 (36781) - http://www.bohemiancoding.com/sketch -->
    <title>Fill 205</title>
    <desc>Created with Sketch.</desc>
    <defs></defs>
    <g id="Page-1" stroke="none" stroke-width="1" fill="none" fill-rule="evenodd">
        <g id="Solid-Icons" transform="translate(-147.000000, -435.000000)" fill="#757575">
            <g id="Fill-205" transform="translate(147.000000, 435.000000)">
                <path d="M9,14.4146 L4.293,9.7066 L5.707,8.2936 L8,10.5866 L8,4.0006 L10,4.0006 L10,10.5866 L12.293,8.2936 L13.707,9.7066 L9,14.4146 Z M16,0.0006 L2,0.0006 C0.897,0.0006 0,0.8976 0,2.0006 L0,16.0006 C0,17.1026 0.897,18.0006 2,18.0006 L16,18.0006 C17.103,18.0006 18,17.1026 18,16.0006 L18,2.0006 C18,0.8976 17.103,0.0006 16,0.0006 L16,0.0006 Z"></path>
            </g>
        </g>
    </g>
</svg>