<?xml version="1.0" encoding="UTF-8"?>
<svg width="20px" height="19px" viewBox="0 0 20 19" version="1.1" xmlns="http://www.w3.org/2000/svg" xmlns:xlink="http://www.w3.org/1999/xlink">
    <!-- Generator: Sketch 42 (36781) - http://www.bohemiancoding.com/sketch -->
    <title>Fill 698 + Fill 699</title>
    <desc>Created with Sketch.</desc>
    <defs></defs>
    <g id="Page-1" stroke="none" stroke-width="1" fill="none" fill-rule="evenodd">
        <g id="Solid-Icons" transform="translate(-434.000000, -1202.000000)" fill="#767676">
            <g id="Fill-698-+-Fill-699" transform="translate(433.000000, 1202.000000)">
                <polygon id="Fill-698" points="13.998 0 7.998 0 7.998 2 13.998 2"></polygon>
                <path d="M10.998,10.0005 C10.17,10.0005 9.498,9.3295 9.498,8.5005 C9.498,7.6725 10.17,7.0005 10.998,7.0005 C11.827,7.0005 12.498,7.6725 12.498,8.5005 C12.498,9.3295 11.827,10.0005 10.998,10.0005 M20.816,6.8125 C20.548,6.3125 20.028,6.0005 19.461,6.0005 L12.998,6.0005 L12.998,5.0005 C12.998,3.8965 12.102,3.0005 10.998,3.0005 C9.893,3.0005 8.998,3.8965 8.998,5.0005 L8.998,6.0005 L2.534,6.0005 C1.967,6.0005 1.447,6.3125 1.179,6.8125 C0.912,7.3115 0.941,7.9175 1.255,8.3895 C1.519,8.7835 1.914,9.0725 2.371,9.2025 L8.998,11.6335 L8.998,15.0005 L6.998,15.0005 C5.894,15.0005 4.998,15.8965 4.998,17.0005 L4.998,19.0005 L16.998,19.0005 L16.998,17.0005 C16.998,15.8965 16.103,15.0005 14.998,15.0005 L12.998,15.0005 L12.998,11.6335 L19.625,9.2025 C20.082,9.0725 20.476,8.7835 20.74,8.3895 C21.054,7.9175 21.084,7.3115 20.816,6.8125" id="Fill-699"></path>
            </g>
        </g>
    </g>
</svg>