<?xml version="1.0" encoding="UTF-8"?>
<svg width="23px" height="24px" viewBox="0 0 23 24" version="1.1" xmlns="http://www.w3.org/2000/svg" xmlns:xlink="http://www.w3.org/1999/xlink">
    <!-- Generator: Sketch 42 (36781) - http://www.bohemiancoding.com/sketch -->
    <title>Fill 880 + Fill 881 + Fill 882</title>
    <desc>Created with Sketch.</desc>
    <defs></defs>
    <g id="Page-1" stroke="none" stroke-width="1" fill="none" fill-rule="evenodd">
        <g id="Solid-Icons" transform="translate(-192.000000, -1584.000000)" fill="#757575">
            <g id="Fill-880-+-Fill-881-+-Fill-882" transform="translate(192.000000, 1584.000000)">
                <path d="M19,18.0005 L10.414,18.0005 L10.707,17.7065 C11.098,17.3165 11.098,16.6845 10.707,16.2935 L9.707,15.2935 C9.424,15.0105 9,14.9235 8.628,15.0715 L5,16.5225 L5,23.0005 L16,23.0005 C16.265,23.0005 16.52,22.8945 16.707,22.7065 L19.707,19.7065 C19.993,19.4215 20.079,18.9915 19.924,18.6175 C19.769,18.2445 19.404,18.0005 19,18.0005" id="Fill-880"></path>
                <path d="M3,15.0005 L1,15.0005 C0.448,15.0005 0,15.4485 0,16.0005 L0,23.0005 C0,23.5525 0.448,24.0005 1,24.0005 L3,24.0005 C3.552,24.0005 4,23.5525 4,23.0005 L4,16.0005 C4,15.4485 3.552,15.0005 3,15.0005" id="Fill-881"></path>
                <path d="M20,7.001 L14,7.001 L14,6.001 L20,6.001 L20,7.001 Z M20,10.001 L14,10.001 L14,9.001 L20,9.001 L20,10.001 Z M14,3.001 L18,3.001 L18,4.001 L14,4.001 L14,3.001 Z M21,0.001 L14,0.001 C12.897,0.001 12,0.899 12,2.001 L12,11.001 C12,12.103 12.897,13.001 14,13.001 L21,13.001 C22.103,13.001 23,12.103 23,11.001 L23,2.001 C23,0.899 22.103,0.001 21,0.001 L21,0.001 Z" id="Fill-882"></path>
            </g>
        </g>
    </g>
</svg>