<?xml version="1.0" encoding="UTF-8"?>
<svg width="24px" height="24px" viewBox="0 0 24 24" version="1.1" xmlns="http://www.w3.org/2000/svg" xmlns:xlink="http://www.w3.org/1999/xlink">
    <!-- Generator: Sketch 42 (36781) - http://www.bohemiancoding.com/sketch -->
    <title>Fill 456 + Fill 457 + Fill 458</title>
    <desc>Created with Sketch.</desc>
    <defs></defs>
    <g id="Page-1" stroke="none" stroke-width="1" fill="none" fill-rule="evenodd">
        <g id="Solid-Icons" transform="translate(-48.000000, -864.000000)" fill="#767676">
            <g id="Fill-456-+-Fill-457-+-Fill-458" transform="translate(48.000000, 864.000000)">
                <path d="M22,0.0015 L18,0.0015 L18,6.0015 L15,4.0015 L12,6.0015 L12,0.0015 L8,0.0015 C6.897,0.0015 6,0.8985 6,2.0015 L6,14.0015 L10,13.0015 L13,16.0015 L22,16.0015 C23.103,16.0015 24,15.1035 24,14.0015 L24,2.0015 C24,0.8985 23.103,0.0015 22,0.0015" id="Fill-456"></path>
                <path d="M19,18.0015 L10.414,18.0015 L10.707,17.7085 C11.098,17.3185 11.098,16.6855 10.707,16.2945 L9.707,15.2945 C9.424,15.0115 9,14.9255 8.628,15.0725 L5,16.5235 L5,23.0015 L16,23.0015 C16.265,23.0015 16.52,22.8955 16.707,22.7085 L19.707,19.7085 C19.993,19.4225 20.079,18.9925 19.924,18.6195 C19.769,18.2455 19.404,18.0015 19,18.0015" id="Fill-457"></path>
                <path d="M3,15.0015 L1,15.0015 C0.448,15.0015 0,15.4495 0,16.0015 L0,23.0015 C0,23.5535 0.448,24.0015 1,24.0015 L3,24.0015 C3.552,24.0015 4,23.5535 4,23.0015 L4,16.0015 C4,15.4495 3.552,15.0015 3,15.0015" id="Fill-458"></path>
            </g>
        </g>
    </g>
</svg>