<?xml version="1.0" encoding="UTF-8"?>
<svg width="20px" height="20px" viewBox="0 0 20 20" version="1.1" xmlns="http://www.w3.org/2000/svg" xmlns:xlink="http://www.w3.org/1999/xlink">
    <!-- Generator: Sketch 42 (36781) - http://www.bohemiancoding.com/sketch -->
    <title>Fill 300 + Fill 301</title>
    <desc>Created with Sketch.</desc>
    <defs></defs>
    <g id="Page-1" stroke="none" stroke-width="1" fill="none" fill-rule="evenodd">
        <g id="Solid-Icons" transform="translate(-386.000000, -530.000000)" fill="#767676">
            <g id="Fill-300-+-Fill-301" transform="translate(386.000000, 530.000000)">
                <path d="M18,6.0005 L8,6.0005 C6.896,6.0005 6,6.8965 6,8.0005 L6,18.0005 C6,19.1045 6.896,20.0005 8,20.0005 L18,20.0005 C19.104,20.0005 20,19.1045 20,18.0005 L20,8.0005 C20,6.8965 19.104,6.0005 18,6.0005" id="Fill-300"></path>
                <path d="M2,2.0005 L12,2.0005 L12,5.0005 L14,5.0005 L14,2.0005 C14,0.8985 13.103,0.0005 12,0.0005 L2,0.0005 C0.897,0.0005 0,0.8985 0,2.0005 L0,12.0005 C0,13.1035 0.897,14.0005 2,14.0005 L5,14.0005 L5,12.0005 L2,12.0005 L2,2.0005 Z" id="Fill-301"></path>
            </g>
        </g>
    </g>
</svg>