<?xml version="1.0" encoding="UTF-8"?>
<svg width="18px" height="21px" viewBox="0 0 18 21" version="1.1" xmlns="http://www.w3.org/2000/svg" xmlns:xlink="http://www.w3.org/1999/xlink">
    <!-- Generator: Sketch 42 (36781) - http://www.bohemiancoding.com/sketch -->
    <title>Group</title>
    <desc>Created with Sketch.</desc>
    <defs></defs>
    <g id="Page-1" stroke="none" stroke-width="1" fill="none" fill-rule="evenodd">
        <g id="Solid-Icons" transform="translate(-291.000000, -1297.000000)" fill="#767676">
            <g id="Group" transform="translate(290.000000, 1297.000000)">
                <path d="M12.999,4.0005 C12.447,4.0005 11.999,4.4485 11.999,5.0005 C11.999,5.5525 12.447,6.0005 12.999,6.0005 C13.551,6.0005 13.999,5.5525 13.999,5.0005 C13.999,4.4485 13.551,4.0005 12.999,4.0005" id="Fill-735"></path>
                <path d="M14.999,2.0005 C14.447,2.0005 13.999,2.4485 13.999,3.0005 C13.999,3.5525 14.447,4.0005 14.999,4.0005 C15.551,4.0005 15.999,3.5525 15.999,3.0005 C15.999,2.4485 15.551,2.0005 14.999,2.0005" id="Fill-736"></path>
                <path d="M17.999,2.0005 C18.551,2.0005 18.999,1.5525 18.999,1.0005 C18.999,0.4485 18.551,0.0005 17.999,0.0005 C17.447,0.0005 16.999,0.4485 16.999,1.0005 C16.999,1.5525 17.447,2.0005 17.999,2.0005" id="Fill-737"></path>
                <path d="M17.999,4.0005 C17.447,4.0005 16.999,4.4485 16.999,5.0005 C16.999,5.5525 17.447,6.0005 17.999,6.0005 C18.551,6.0005 18.999,5.5525 18.999,5.0005 C18.999,4.4485 18.551,4.0005 17.999,4.0005" id="Fill-738"></path>
                <path d="M17.999,8.0005 C17.447,8.0005 16.999,8.4485 16.999,9.0005 C16.999,9.5525 17.447,10.0005 17.999,10.0005 C18.551,10.0005 18.999,9.5525 18.999,9.0005 C18.999,8.4485 18.551,8.0005 17.999,8.0005" id="Fill-739"></path>
                <path d="M14.999,6.0005 C14.447,6.0005 13.999,6.4485 13.999,7.0005 C13.999,7.5525 14.447,8.0005 14.999,8.0005 C15.551,8.0005 15.999,7.5525 15.999,7.0005 C15.999,6.4485 15.551,6.0005 14.999,6.0005" id="Fill-740"></path>
                <path d="M10.999,4.0005 C10.999,3.4485 10.551,3.0005 9.999,3.0005 L4.999,3.0005 C4.665,3.0005 4.353,3.1675 4.167,3.4455 L2.167,6.4455 C1.962,6.7525 1.943,7.1475 2.117,7.4725 C2.292,7.7975 2.63,8.0005 2.999,8.0005 L3,8.0005 L8.999,8.0005 L9,8.0005 L9,9.0005 L8.999,9.0005 C8.999,9.2665 9.104,9.5205 9.292,9.7075 L12.292,12.7075 L13.706,11.2935 L10.999,8.5865 L10.999,4.0005 Z" id="Fill-741"></path>
                <path d="M7.999,9.5864 L7.999,9.0004 L3.999,9.0004 L3.999,9.5864 L1.292,12.2934 C1.104,12.4814 0.999,12.7354 0.999,13.0004 L0.999,20.0004 C0.999,20.5524 1.447,21.0004 1.999,21.0004 L9.999,21.0004 C10.551,21.0004 10.999,20.5524 10.999,20.0004 L10.999,13.0004 C10.999,12.7354 10.894,12.4814 10.706,12.2934 L7.999,9.5864 Z" id="Fill-742"></path>
            </g>
        </g>
    </g>
</svg>