<?xml version="1.0" encoding="UTF-8"?>
<svg width="18px" height="20px" viewBox="0 0 18 20" version="1.1" xmlns="http://www.w3.org/2000/svg" xmlns:xlink="http://www.w3.org/1999/xlink">
    <!-- Generator: Sketch 42 (36781) - http://www.bohemiancoding.com/sketch -->
    <title>Group</title>
    <desc>Created with Sketch.</desc>
    <defs></defs>
    <g id="Page-1" stroke="none" stroke-width="1" fill="none" fill-rule="evenodd">
        <g id="Solid-Icons" transform="translate(-3.000000, -482.000000)" fill="#757575">
            <g id="Group" transform="translate(3.000000, 482.000000)">
                <path d="M9,7.0005 C4.825,7.0005 1.809,6.1575 0,4.9695 L0,7.0005 C0,7.7695 2.216,10.0005 9,10.0005 C15.784,10.0005 18,7.7695 18,7.0005 L18,4.9695 C16.191,6.1575 13.175,7.0005 9,7.0005" id="Fill-225"></path>
                <path d="M9,15.0005 C15.784,15.0005 18,12.7695 18,12.0005 L18,9.9695 C16.191,11.1575 13.175,12.0005 9,12.0005 C4.825,12.0005 1.809,11.1575 0,9.9695 L0,12.0005 C0,12.7695 2.216,15.0005 9,15.0005" id="Fill-226"></path>
                <path d="M9,5.0005 C14.195,5.0005 16.705,3.6945 17.599,2.7355 C16.404,0.9365 12.687,0.0005 9,0.0005 C5.313,0.0005 1.596,0.9365 0.401,2.7355 C1.295,3.6945 3.805,5.0005 9,5.0005" id="Fill-227"></path>
                <path d="M9,17.0005 C4.825,17.0005 1.809,16.1575 0,14.9695 L0,16.0005 C0,18.6265 4.527,20.0005 9,20.0005 C13.473,20.0005 18,18.6265 18,16.0005 L18,14.9695 C16.191,16.1575 13.175,17.0005 9,17.0005" id="Fill-228"></path>
            </g>
        </g>
    </g>
</svg>