<?xml version="1.0" encoding="UTF-8"?>
<svg width="19px" height="24px" viewBox="0 0 19 24" version="1.1" xmlns="http://www.w3.org/2000/svg" xmlns:xlink="http://www.w3.org/1999/xlink">
    <!-- Generator: Sketch 42 (36781) - http://www.bohemiancoding.com/sketch -->
    <title>Group</title>
    <desc>Created with Sketch.</desc>
    <defs></defs>
    <g id="Page-1" stroke="none" stroke-width="1" fill="none" fill-rule="evenodd">
        <g id="Solid-Icons" transform="translate(-147.000000, -288.000000)" fill="#757575">
            <g id="Group" transform="translate(147.000000, 288.000000)">
                <path d="M1.8818,4.8521 L0.3528,3.5631 C2.2598,1.2991 5.0498,9.99999997e-05 8.0058,9.99999997e-05 C10.9558,9.99999997e-05 13.7398,1.2931 15.6458,3.5471 L14.1178,4.8381 C12.5938,3.0361 10.3658,2.0001 8.0058,2.0001 C5.6408,2.0001 3.4088,3.0401 1.8818,4.8521" id="Fill-149"></path>
                <path d="M11.208,7.6025 C10.444,6.5845 9.277,6.0005 8.006,6.0005 C6.736,6.0005 5.569,6.5835 4.806,7.6025 L3.206,6.3995 C4.335,4.8975 6.128,4.0005 8.006,4.0005 C9.913,4.0005 11.663,4.8755 12.808,6.4025 L11.208,7.6025 Z" id="Fill-150"></path>
                <path d="M7.9932,15.2524 C7.3032,15.2524 6.7432,14.6924 6.7432,14.0024 C6.7432,13.3124 7.3032,12.7524 7.9932,12.7524 C8.6832,12.7524 9.2432,13.3124 9.2432,14.0024 C9.2432,14.6924 8.6832,15.2524 7.9932,15.2524 L7.9932,15.2524 Z M7.9932,19.2524 C7.3032,19.2524 6.7432,18.6924 6.7432,18.0024 C6.7432,17.3124 7.3032,16.7524 7.9932,16.7524 C8.6832,16.7524 9.2432,17.3124 9.2432,18.0024 C9.2432,18.6924 8.6832,19.2524 7.9932,19.2524 L7.9932,19.2524 Z M12.9932,20.4164 L9.5792,17.0024 L11.7962,14.7854 L12.9932,15.3844 L12.9932,10.9354 C12.9562,9.8634 12.0802,9.0024 11.0002,9.0024 L5.0002,9.0024 C3.8972,9.0024 3.0002,9.8994 3.0002,11.0024 L3.0002,21.0024 C3.0002,22.1054 3.8972,23.0024 5.0002,23.0024 L11.0002,23.0024 C12.0802,23.0024 12.9562,22.1414 12.9932,21.0694 L12.9932,20.4164 Z" id="Fill-151"></path>
                <polygon id="Fill-152" points="13.9932 11.0024 16.9932 14.0024 16.9932 19.0024 18.9932 24.0024 13.9932 24.0024 13.9932 20.0024 10.9932 17.0024 11.9932 16.0024 13.9932 17.0024"></polygon>
            </g>
        </g>
    </g>
</svg>