<?xml version="1.0" encoding="UTF-8"?>
<svg width="22px" height="24px" viewBox="0 0 22 24" version="1.1" xmlns="http://www.w3.org/2000/svg" xmlns:xlink="http://www.w3.org/1999/xlink">
    <!-- Generator: Sketch 42 (36781) - http://www.bohemiancoding.com/sketch -->
    <title>Group</title>
    <desc>Created with Sketch.</desc>
    <defs></defs>
    <g id="Page-1" stroke="none" stroke-width="1" fill="none" fill-rule="evenodd">
        <g id="Solid-Icons" transform="translate(-145.000000, -1584.000000)" fill="#757575">
            <g id="Group" transform="translate(145.000000, 1584.000000)">
                <path d="M8,8.001 L2,8.001 L2,7.001 L8,7.001 L8,8.001 Z M2,4.001 L6,4.001 L6,5.001 L2,5.001 L2,4.001 Z M8,0.001 L2,0.001 C0.897,0.001 0,0.899 0,2.001 L0,9.001 C0,10.103 0.897,11.001 2,11.001 L8,11.001 C9.103,11.001 10,10.103 10,9.001 L10,2.001 C10,0.899 9.103,0.001 8,0.001 L8,0.001 Z" id="Fill-887"></path>
                <path d="M20,8.001 L14,8.001 L14,7.001 L20,7.001 L20,8.001 Z M14,4.001 L18,4.001 L18,5.001 L14,5.001 L14,4.001 Z M20,0.001 L14,0.001 C12.897,0.001 12,0.899 12,2.001 L12,9.001 C12,10.103 12.897,11.001 14,11.001 L20,11.001 C21.103,11.001 22,10.103 22,9.001 L22,2.001 C22,0.899 21.103,0.001 20,0.001 L20,0.001 Z" id="Fill-888"></path>
                <path d="M8,21.001 L2,21.001 L2,20.001 L8,20.001 L8,21.001 Z M2,17.001 L6,17.001 L6,18.001 L2,18.001 L2,17.001 Z M8,13.001 L2,13.001 C0.897,13.001 0,13.899 0,15.001 L0,22.001 C0,23.103 0.897,24.001 2,24.001 L8,24.001 C9.103,24.001 10,23.103 10,22.001 L10,15.001 C10,13.899 9.103,13.001 8,13.001 L8,13.001 Z" id="Fill-889"></path>
                <path d="M20,21.001 L14,21.001 L14,20.001 L20,20.001 L20,21.001 Z M14,17.001 L18,17.001 L18,18.001 L14,18.001 L14,17.001 Z M20,13.001 L14,13.001 C12.897,13.001 12,13.899 12,15.001 L12,22.001 C12,23.103 12.897,24.001 14,24.001 L20,24.001 C21.103,24.001 22,23.103 22,22.001 L22,15.001 C22,13.899 21.103,13.001 20,13.001 L20,13.001 Z" id="Fill-890"></path>
            </g>
        </g>
    </g>
</svg>