<?xml version="1.0" encoding="UTF-8"?>
<svg width="22px" height="20px" viewBox="0 0 22 20" version="1.1" xmlns="http://www.w3.org/2000/svg" xmlns:xlink="http://www.w3.org/1999/xlink">
    <!-- Generator: Sketch 42 (36781) - http://www.bohemiancoding.com/sketch -->
    <title>Group</title>
    <desc>Created with Sketch.</desc>
    <defs></defs>
    <g id="Page-1" stroke="none" stroke-width="1" fill="none" fill-rule="evenodd">
        <g id="Solid-Icons" transform="translate(-432.000000, -386.000000)" fill="#757575">
            <g id="Group" transform="translate(432.000000, 386.000000)">
                <polygon id="Fill-196" points="7 12 11 12 11 8 7 8"></polygon>
                <path d="M5,8.0005 L0.202,8.0005 C0.07,8.6465 0,9.3155 0,10.0005 C0,10.6865 0.07,11.3545 0.202,12.0005 L5,12.0005 L5,8.0005 Z" id="Fill-197"></path>
                <path d="M7,6.0005 L11,6.0005 L11,0.0005 L10,0.0005 C8.955,0.0005 7.948,0.1635 7,0.4615 L7,6.0005 Z" id="Fill-198"></path>
                <path d="M7,14.0005 L7,19.5405 C7.948,19.8385 8.955,20.0005 10,20.0005 L11,20.0005 L11,14.0005 L7,14.0005 Z" id="Fill-199"></path>
                <path d="M5,6.0005 L5,1.3535 C3.165,2.4185 1.698,4.0445 0.841,6.0005 L5,6.0005 Z" id="Fill-200"></path>
                <path d="M5,14.0005 L0.841,14.0005 C1.698,15.9575 3.165,17.5825 5,18.6465 L5,14.0005 Z" id="Fill-201"></path>
                <path d="M20,3.0005 C20,1.3465 18.654,0.0005 17,0.0005 C15.346,0.0005 14,1.3465 14,3.0005 C14,4.6545 15.346,6.0005 17,6.0005 C18.654,6.0005 20,4.6545 20,3.0005" id="Fill-202"></path>
                <path d="M17,6.0005 C14.243,6.0005 12,8.2435 12,11.0005 L12,14.0005 C12,14.5525 12.448,15.0005 13,15.0005 L14,15.0005 L14,19.0005 C14,19.5525 14.448,20.0005 15,20.0005 L19,20.0005 C19.552,20.0005 20,19.5525 20,19.0005 L20,15.0005 L21,15.0005 C21.552,15.0005 22,14.5525 22,14.0005 L22,11.0005 C22,8.2435 19.757,6.0005 17,6.0005" id="Fill-203"></path>
            </g>
        </g>
    </g>
</svg>