<?xml version="1.0" encoding="UTF-8"?>
<svg width="17px" height="24px" viewBox="0 0 17 24" version="1.1" xmlns="http://www.w3.org/2000/svg" xmlns:xlink="http://www.w3.org/1999/xlink">
    <!-- Generator: Sketch 42 (36781) - http://www.bohemiancoding.com/sketch -->
    <title>Group</title>
    <desc>Created with Sketch.</desc>
    <defs></defs>
    <g id="Page-1" stroke="none" stroke-width="1" fill="none" fill-rule="evenodd">
        <g id="Solid-Icons" transform="translate(-436.000000, -1633.000000)" fill="#757575">
            <g id="Group" transform="translate(436.000000, 1633.000000)">
                <polygon id="Fill-903" points="11 9.001 15 9.001 15 7.001 11 7.001"></polygon>
                <polygon id="Fill-904" points="11 13.001 15 13.001 15 11.001 11 11.001"></polygon>
                <polygon id="Fill-905" points="8 5.0005 15 5.0005 15 3.0005 6 3.0005 6 2.0005 7 2.0005 7 0.0005 3 0.0005 3 2.0005 4 2.0005 4 3.0005 0 3.0005 0 7.0005 8 7.0005"></polygon>
                <polygon id="Fill-906" points="15 21.0005 15 15.0005 8 15.0005 8 13.0005 0 13.0005 0 17.0005 4 17.0005 4 19.0005 3 19.0005 3 21.0005 7 21.0005 7 19.0005 6 19.0005 6 17.0005 11 17.0005 11 21.0005 9 21.0005 9 23.0005 17 23.0005 17 21.0005"></polygon>
            </g>
        </g>
    </g>
</svg>