<?xml version="1.0" encoding="UTF-8"?>
<svg width="20px" height="18px" viewBox="0 0 20 18" version="1.1" xmlns="http://www.w3.org/2000/svg" xmlns:xlink="http://www.w3.org/1999/xlink">
    <!-- Generator: Sketch 42 (36781) - http://www.bohemiancoding.com/sketch -->
    <title>Group</title>
    <desc>Created with Sketch.</desc>
    <defs></defs>
    <g id="Page-1" stroke="none" stroke-width="1" fill="none" fill-rule="evenodd">
        <g id="Solid-Icons" transform="translate(-50.000000, -51.000000)" fill="#757575">
            <g id="Group" transform="translate(50.000000, 51.000000)">
                <path d="M12.5,3.0005 C12.5,2.6555 12.547,2.3235 12.621,2.0005 L0,2.0005 L0,4.0005 L12.621,4.0005 C12.547,3.6775 12.5,3.3455 12.5,3.0005" id="Fill-43"></path>
                <path d="M12.5,15.0005 C12.5,14.6555 12.547,14.3235 12.621,14.0005 L0,14.0005 L0,16.0005 L12.621,16.0005 C12.547,15.6775 12.5,15.3455 12.5,15.0005" id="Fill-44"></path>
                <path d="M2.5,9.0005 C2.5,8.6555 2.547,8.3235 2.621,8.0005 L0,8.0005 L0,10.0005 L2.621,10.0005 C2.547,9.6775 2.5,9.3455 2.5,9.0005" id="Fill-45"></path>
                <path d="M11.3789,8.0005 C11.4529,8.3235 11.4999,8.6555 11.4999,9.0005 C11.4999,9.3455 11.4529,9.6775 11.3789,10.0005 L19.9999,10.0005 L19.9999,8.0005 L11.3789,8.0005 Z" id="Fill-46"></path>
                <path d="M17,0.0005 C15.346,0.0005 14,1.3465 14,3.0005 C14,4.6545 15.346,6.0005 17,6.0005 C18.654,6.0005 20,4.6545 20,3.0005 C20,1.3465 18.654,0.0005 17,0.0005" id="Fill-47"></path>
                <path d="M7,6.0005 C5.346,6.0005 4,7.3465 4,9.0005 C4,10.6545 5.346,12.0005 7,12.0005 C8.654,12.0005 10,10.6545 10,9.0005 C10,7.3465 8.654,6.0005 7,6.0005" id="Fill-48"></path>
                <path d="M17,12.0005 C15.346,12.0005 14,13.3465 14,15.0005 C14,16.6545 15.346,18.0005 17,18.0005 C18.654,18.0005 20,16.6545 20,15.0005 C20,13.3465 18.654,12.0005 17,12.0005" id="Fill-49"></path>
            </g>
        </g>
    </g>
</svg>