<?xml version="1.0" encoding="UTF-8"?>
<svg width="20px" height="22px" viewBox="0 0 20 22" version="1.1" xmlns="http://www.w3.org/2000/svg" xmlns:xlink="http://www.w3.org/1999/xlink">
    <!-- Generator: Sketch 42 (36781) - http://www.bohemiancoding.com/sketch -->
    <title>Group</title>
    <desc>Created with Sketch.</desc>
    <defs></defs>
    <g id="Page-1" stroke="none" stroke-width="1" fill="none" fill-rule="evenodd">
        <g id="Solid-Icons" transform="translate(-290.000000, -1490.000000)" fill="#767676">
            <g id="Group" transform="translate(289.000000, 1490.000000)">
                <path d="M14.499,7.5005 C14.499,5.5705 12.929,4.0005 10.999,4.0005 C9.069,4.0005 7.499,5.5705 7.499,7.5005 C7.499,9.4305 9.069,11.0005 10.999,11.0005 C12.929,11.0005 14.499,9.4305 14.499,7.5005" id="Fill-836"></path>
                <path d="M3.999,11.0005 L5.999,11.0005 L5.999,7.0005 C5.999,4.2435 8.242,2.0005 10.999,2.0005 C13.756,2.0005 15.999,4.2435 15.999,7.0005 L15.999,11.0005 L17.999,11.0005 C19.656,11.0005 20.999,9.6565 20.999,8.0005 C20.999,6.3435 19.656,5.0005 17.999,5.0005 L17.704,5.0005 C16.841,2.1125 14.164,0.0005 10.999,0.0005 C7.835,0.0005 5.157,2.1125 4.294,5.0005 L3.999,5.0005 C2.342,5.0005 0.999,6.3435 0.999,8.0005 C0.999,9.6565 2.342,11.0005 3.999,11.0005" id="Fill-837"></path>
                <path d="M10.999,12.0005 C8.784,12.0005 6.85,13.2105 5.811,15.0005 L16.187,15.0005 C15.148,13.2105 13.214,12.0005 10.999,12.0005" id="Fill-838"></path>
                <polygon id="Fill-839" points="0.999 22.001 20.999 22.001 20.999 19.001 0.999 19.001"></polygon>
                <path d="M2.999,16.0005 C2.447,16.0005 1.999,16.4485 1.999,17.0005 L1.999,18.0005 L9.999,18.0005 L9.999,17.0005 C9.999,16.4485 9.551,16.0005 8.999,16.0005 L2.999,16.0005 Z" id="Fill-840"></path>
                <path d="M19.999,17.0005 C19.999,16.4485 19.551,16.0005 18.999,16.0005 L12.999,16.0005 C12.447,16.0005 11.999,16.4485 11.999,17.0005 L11.999,18.0005 L19.999,18.0005 L19.999,17.0005 Z" id="Fill-841"></path>
            </g>
        </g>
    </g>
</svg>