<?xml version="1.0" encoding="UTF-8"?>
<svg width="15px" height="22px" viewBox="0 0 15 22" version="1.1" xmlns="http://www.w3.org/2000/svg" xmlns:xlink="http://www.w3.org/1999/xlink">
    <!-- Generator: Sketch 42 (36781) - http://www.bohemiancoding.com/sketch -->
    <title>Group</title>
    <desc>Created with Sketch.</desc>
    <defs></defs>
    <g id="Page-1" stroke="none" stroke-width="1" fill="none" fill-rule="evenodd">
        <g id="Solid-Icons" transform="translate(-148.000000, -530.000000)" fill="#767676">
            <g id="Group" transform="translate(148.000000, 530.000000)">
                <polygon id="Fill-308" points="2 21.0005 4 18.0005 0 18.0005"></polygon>
                <polygon id="Fill-309" points="0 17 4 17 4 7 0 7"></polygon>
                <path d="M2,3.0005 C0.895,3.0005 0,3.9645 0,5.1545 L0,6.0005 L4,6.0005 L4,5.1545 C4,3.9645 3.105,3.0005 2,3.0005" id="Fill-310"></path>
                <polygon id="Fill-311" points="7 0.0005 7 2.0005 10 2.0005 10 4.0005 7 4.0005 7 7.0005 10 7.0005 10 9.0005 7 9.0005 7 12.0005 10 12.0005 10 14.0005 7 14.0005 7 17.0005 10 17.0005 10 19.0005 7 19.0005 7 21.0005 15 21.0005 15 0.0005"></polygon>
            </g>
        </g>
    </g>
</svg>