<?xml version="1.0" encoding="UTF-8"?>
<svg width="18px" height="20px" viewBox="0 0 18 20" version="1.1" xmlns="http://www.w3.org/2000/svg" xmlns:xlink="http://www.w3.org/1999/xlink">
    <!-- Generator: Sketch 42 (36781) - http://www.bohemiancoding.com/sketch -->
    <title>Group</title>
    <desc>Created with Sketch.</desc>
    <defs></defs>
    <g id="Page-1" stroke="none" stroke-width="1" fill="none" fill-rule="evenodd">
        <g id="Solid-Icons" transform="translate(-147.000000, -1538.000000)" fill="#767676">
            <g id="Group" transform="translate(146.000000, 1538.000000)">
                <path d="M6.999,18.0005 C6.999,19.1055 6.104,20.0005 4.999,20.0005 C3.895,20.0005 2.999,19.1055 2.999,18.0005 C2.999,16.8965 3.895,16.0005 4.999,16.0005 C6.104,16.0005 6.999,16.8965 6.999,18.0005" id="Fill-853"></path>
                <path d="M12.999,18.0005 C12.999,19.1055 12.104,20.0005 10.999,20.0005 C9.895,20.0005 8.999,19.1055 8.999,18.0005 C8.999,16.8965 9.895,16.0005 10.999,16.0005 C12.104,16.0005 12.999,16.8965 12.999,18.0005" id="Fill-854"></path>
                <path d="M8.7061,6.0005 L8.9991,6.0005 L8.9991,1.0005 C8.9991,0.4485 8.5511,0.0005 7.9991,0.0005 L6.9991,0.0005 C5.7801,0.0005 4.6471,0.3675 3.7001,0.9945 L8.7061,6.0005 Z" id="Fill-855"></path>
                <path d="M2.9121,1.6206 C1.7381,2.7166 0.9991,4.2716 0.9991,6.0006 L7.2921,6.0006 L2.9121,1.6206 Z" id="Fill-856"></path>
                <path d="M14.999,3.0005 C14.558,3.0005 14.168,3.2905 14.041,3.7135 L13.055,7.0005 L0.999,7.0005 C0.999,7.3165 0.997,7.7125 1.004,8.0275 C1.007,8.1245 1.019,8.2225 1.05,8.3165 L3.05,14.3165 C3.186,14.7255 3.568,15.0005 3.999,15.0005 L11.999,15.0005 C12.44,15.0005 12.83,14.7105 12.957,14.2875 L15.743,5.0005 L18.999,5.0005 L18.999,3.0005 L14.999,3.0005 Z" id="Fill-857"></path>
            </g>
        </g>
    </g>
</svg>