<?xml version="1.0" encoding="UTF-8"?>
<svg width="20px" height="21px" viewBox="0 0 20 21" version="1.1" xmlns="http://www.w3.org/2000/svg" xmlns:xlink="http://www.w3.org/1999/xlink">
    <!-- Generator: Sketch 42 (36781) - http://www.bohemiancoding.com/sketch -->
    <title>Group</title>
    <desc>Created with Sketch.</desc>
    <defs></defs>
    <g id="Page-1" stroke="none" stroke-width="1" fill="none" fill-rule="evenodd">
        <g id="Solid-Icons" transform="translate(-386.000000, -387.000000)" fill="#757575">
            <g id="Group" transform="translate(386.000000, 387.000000)">
                <path d="M10.9995,13.9961 L8.9995,13.9961 C6.2425,13.9961 3.9995,16.2391 3.9995,18.9961 L3.9995,20.9961 L15.9995,20.9961 L15.9995,18.9961 C15.9995,16.2391 13.7565,13.9961 10.9995,13.9961" id="Fill-190"></path>
                <path d="M6.3428,12.5234 C5.0938,10.7664 5.2438,8.3134 6.8178,6.7394 C8.5708,4.9844 11.4268,4.9844 13.1818,6.7394 C14.7558,8.3134 14.9058,10.7664 13.6568,12.5234 C14.2858,12.7824 14.8678,13.1304 15.3898,13.5514 C17.0918,11.0254 16.8288,7.5604 14.5958,5.3254 C12.0618,2.7904 7.9378,2.7924 5.4028,5.3254 C3.1708,7.5604 2.9078,11.0254 4.6098,13.5514 C5.1308,13.1304 5.7138,12.7824 6.3428,12.5234" id="Fill-191"></path>
                <path d="M3.5117,14.6641 C2.5347,13.3111 1.9997,11.6971 1.9997,9.9961 C1.9997,7.8591 2.8327,5.8501 4.3437,4.3391 C7.4617,1.2201 12.5367,1.2201 15.6567,4.3391 C18.4657,7.1491 18.7367,11.5391 16.4867,14.6631 C16.9317,15.2261 17.2897,15.8571 17.5467,16.5411 C20.9527,12.6181 20.8007,6.6551 17.0707,2.9241 C13.1727,-0.9739 6.8277,-0.9739 2.9297,2.9241 C1.0407,4.8131 -0.0003,7.3261 -0.0003,9.9961 C-0.0003,12.4301 0.8717,14.7251 2.4517,16.5421 C2.7087,15.8591 3.0667,15.2261 3.5117,14.6641" id="Fill-192"></path>
                <path d="M9.9995,6.9961 C8.3455,6.9961 6.9995,8.3421 6.9995,9.9961 C6.9995,11.6511 8.3455,12.9961 9.9995,12.9961 C11.6535,12.9961 12.9995,11.6511 12.9995,9.9961 C12.9995,8.3421 11.6535,6.9961 9.9995,6.9961" id="Fill-193"></path>
            </g>
        </g>
    </g>
</svg>