<?xml version="1.0" encoding="UTF-8"?>
<svg width="22px" height="23px" viewBox="0 0 22 23" version="1.1" xmlns="http://www.w3.org/2000/svg" xmlns:xlink="http://www.w3.org/1999/xlink">
    <!-- Generator: Sketch 42 (36781) - http://www.bohemiancoding.com/sketch -->
    <title>Group</title>
    <desc>Created with Sketch.</desc>
    <defs></defs>
    <g id="Page-1" stroke="none" stroke-width="1" fill="none" fill-rule="evenodd">
        <g id="Solid-Icons" transform="translate(-1.000000, -865.000000)" fill="#767676">
            <g id="Group" transform="translate(1.000000, 865.000000)">
                <path d="M21.5146,6.1431 L11.5146,0.1431 C11.1976,-0.0479 10.8026,-0.0479 10.4856,0.1431 L0.4856,6.1431 C0.0996,6.3741 -0.0834,6.8341 0.0356,7.2681 C0.1566,7.7011 0.5506,8.0001 0.9996,8.0001 L0.9996,22.0001 L2.9996,22.0001 L2.9996,8.0001 L18.9996,8.0001 L18.9996,22.0001 L20.9996,22.0001 L20.9996,8.0001 C21.4496,8.0001 21.8436,7.7011 21.9636,7.2681 C22.0836,6.8341 21.8996,6.3741 21.5146,6.1431" id="Fill-449"></path>
                <polygon id="Fill-450" points="8 9.0005 8 15.0005 14 15.0005 14 9.0005 12 9.0005 12 11.0005 10 11.0005 10 9.0005"></polygon>
                <polygon id="Fill-451" points="8 18.0005 6 18.0005 6 16.0005 4 16.0005 4 22.0005 10 22.0005 10 16.0005 8 16.0005"></polygon>
                <polygon id="Fill-452" points="16 18.0005 14 18.0005 14 16.0005 12 16.0005 12 22.0005 18 22.0005 18 16.0005 16 16.0005"></polygon>
            </g>
        </g>
    </g>
</svg>