<?xml version="1.0" encoding="UTF-8"?>
<svg width="24px" height="24px" viewBox="0 0 24 24" version="1.1" xmlns="http://www.w3.org/2000/svg" xmlns:xlink="http://www.w3.org/1999/xlink">
    <!-- Generator: Sketch 42 (36781) - http://www.bohemiancoding.com/sketch -->
    <title>Group</title>
    <desc>Created with Sketch.</desc>
    <defs></defs>
    <g id="Page-1" stroke="none" stroke-width="1" fill="none" fill-rule="evenodd">
        <g id="Solid-Icons" transform="translate(-192.000000, -1536.000000)" fill="#767676">
            <g id="Group" transform="translate(192.000000, 1536.000000)">
                <polygon id="Fill-858" points="13 4.0005 13 0.0005 11 0.0005 11 4.0005 0 4.0005 0 6.0005 3 6.0005 3 10.0005 5 10.0005 5 6.0005 11 6.0005 11 13.0005 13 13.0005 13 6.0005 19 6.0005 19 11.0005 21 11.0005 21 6.0005 24 6.0005 24 4.0005"></polygon>
                <polygon id="Fill-859" points="17 18.0005 23 18.0005 20 12.0005"></polygon>
                <path d="M4,11.0005 C2.344,11.0005 1,12.3435 1,14.0005 C1,15.6565 2.344,17.0005 4,17.0005 C5.657,17.0005 7,15.6565 7,14.0005 C7,12.3435 5.657,11.0005 4,11.0005" id="Fill-860"></path>
                <path d="M9,19.0005 C9,23.0005 12.239,24.0005 15,24.0005 C15,24.0005 13,22.0005 13,19.0005 C13,16.0005 15,14.0005 15,14.0005 C12.239,14.0005 9,15.0005 9,19.0005" id="Fill-861"></path>
            </g>
        </g>
    </g>
</svg>