<?xml version="1.0" encoding="UTF-8"?>
<svg width="20px" height="20px" viewBox="0 0 20 20" version="1.1" xmlns="http://www.w3.org/2000/svg" xmlns:xlink="http://www.w3.org/1999/xlink">
    <!-- Generator: Sketch 42 (36781) - http://www.bohemiancoding.com/sketch -->
    <title>Group</title>
    <desc>Created with Sketch.</desc>
    <defs></defs>
    <g id="Page-1" stroke="none" stroke-width="1" fill="none" fill-rule="evenodd">
        <g id="Solid-Icons" transform="translate(-434.000000, -578.000000)" fill="#767676">
            <g id="Group" transform="translate(434.000000, 578.000000)">
                <polygon id="Fill-320" points="11.2524 13.0039 12.8814 10.0379 11.1624 7.0159 11.1834 7.0039 8.7474 7.0039 7.1184 9.9709 8.8374 12.9919 8.8164 13.0039"></polygon>
                <path d="M10.3018,0.02 C10.2008,0.016 10.1018,0.004 9.9998,0.004 C7.3008,0.004 4.8518,1.084 3.0508,2.828 L5.9568,7.932 L10.3018,0.02 Z" id="Fill-321"></path>
                <path d="M18.647,5.0039 C17.307,2.6969 15.075,0.9769 12.422,0.3129 L9.846,5.0039 L18.647,5.0039 Z" id="Fill-322"></path>
                <path d="M19.5391,7.0039 L13.4561,7.0039 L18.3191,15.5429 C19.3791,13.9569 20.0001,12.0519 20.0001,10.0039 C20.0001,8.9589 19.8371,7.9519 19.5391,7.0039" id="Fill-323"></path>
                <path d="M1.6812,4.4653 C0.6202,6.0513 0.0002,7.9563 0.0002,10.0043 C0.0002,11.0493 0.1622,12.0563 0.4612,13.0043 L6.5432,13.0043 L1.6812,4.4653 Z" id="Fill-324"></path>
                <path d="M9.6982,19.9888 C9.7992,19.9918 9.8982,20.0038 10.0002,20.0038 C12.6992,20.0038 15.1482,18.9238 16.9492,17.1798 L14.0432,12.0778 L9.6982,19.9888 Z" id="Fill-325"></path>
                <path d="M1.353,15.0039 C2.693,17.3119 4.925,19.0309 7.578,19.6949 L10.154,15.0039 L1.353,15.0039 Z" id="Fill-326"></path>
            </g>
        </g>
    </g>
</svg>