<?xml version="1.0" encoding="UTF-8"?>
<svg width="20px" height="16px" viewBox="0 0 20 16" version="1.1" xmlns="http://www.w3.org/2000/svg" xmlns:xlink="http://www.w3.org/1999/xlink">
    <!-- Generator: Sketch 42 (36781) - http://www.bohemiancoding.com/sketch -->
    <title>Group</title>
    <desc>Created with Sketch.</desc>
    <defs></defs>
    <g id="Page-1" stroke="none" stroke-width="1" fill="none" fill-rule="evenodd">
        <g id="Solid-Icons" transform="translate(-290.000000, -917.000000)" fill="#B4B4B4">
            <g id="Group" transform="translate(290.000000, 917.000000)">
                <path d="M3,5.001 C3,6.105 3.896,7.001 5,7.001 C6.104,7.001 7,6.105 7,5.001 C7,3.896 6.104,3.001 5,3.001 C3.896,3.001 3,3.896 3,5.001" id="Fill-507"></path>
                <path d="M18,0.001 L2,0.001 C0.897,0.001 0,0.899 0,2.001 L0,8.001 C0,9.104 0.897,10.001 2,10.001 L11,10.001 L11,8.001 L2,8.001 L2,2.001 L18,2.001 L17.999,4.001 L20,4.001 L20,2.001 C20,0.899 19.103,0.001 18,0.001" id="Fill-508"></path>
                <path d="M18,14.001 L15,14.001 L15,11.001 L18,11.001 L18,14.001 Z M16,8.501 C16,8.226 16.224,8.001 16.5,8.001 C16.776,8.001 17,8.226 17,8.501 L17,9.001 L16,9.001 L16,8.501 Z M19,9.001 L19,8.501 C19,7.123 17.878,6.001 16.5,6.001 C15.122,6.001 14,7.123 14,8.501 L14,9.001 C13.448,9.001 13,9.45 13,10.001 L13,15.001 C13,15.554 13.448,16.001 14,16.001 L19,16.001 C19.552,16.001 20,15.554 20,15.001 L20,10.001 C20,9.45 19.552,9.001 19,9.001 L19,9.001 Z" id="Fill-509"></path>
                <path d="M10,3.001 C8.896,3.001 8,3.896 8,5.001 C8,6.105 8.896,7.001 10,7.001 C11.104,7.001 12,6.105 12,5.001 C12,3.896 11.104,3.001 10,3.001" id="Fill-510"></path>
            </g>
        </g>
    </g>
</svg>