<?xml version="1.0" encoding="UTF-8"?>
<svg width="20px" height="20px" viewBox="0 0 20 20" version="1.1" xmlns="http://www.w3.org/2000/svg" xmlns:xlink="http://www.w3.org/1999/xlink">
    <!-- Generator: Sketch 42 (36781) - http://www.bohemiancoding.com/sketch -->
    <title>Group</title>
    <desc>Created with Sketch.</desc>
    <defs></defs>
    <g id="Page-1" stroke="none" stroke-width="1" fill="none" fill-rule="evenodd">
        <g id="Solid-Icons" transform="translate(-434.000000, -434.000000)" fill="#757575">
            <g id="Group" transform="translate(434.000000, 434.000000)">
                <path d="M17,19.0005 C17,19.5535 17.448,20.0005 18,20.0005 C18.552,20.0005 19,19.5535 19,19.0005 C19,18.4485 18.552,18.0005 18,18.0005 C17.448,18.0005 17,18.4485 17,19.0005" id="Fill-255"></path>
                <path d="M1,19.0005 C1,19.5535 1.448,20.0005 2,20.0005 C2.552,20.0005 3,19.5535 3,19.0005 C3,18.4485 2.552,18.0005 2,18.0005 C1.448,18.0005 1,18.4485 1,19.0005" id="Fill-256"></path>
                <path d="M16,12.0005 C15.448,12.0005 15,11.5535 15,11.0005 C15,10.4485 15.448,10.0005 16,10.0005 C16.552,10.0005 17,10.4485 17,11.0005 C17,11.5535 16.552,12.0005 16,12.0005 L16,12.0005 Z M13,12.0005 C12.448,12.0005 12,11.5535 12,11.0005 C12,10.4485 12.448,10.0005 13,10.0005 C13.552,10.0005 14,10.4485 14,11.0005 C14,11.5535 13.552,12.0005 13,12.0005 L13,12.0005 Z M8,12.0005 L3,12.0005 L3,10.0005 L8,10.0005 L8,12.0005 Z M0,8.0005 L0,12.0005 C0,13.1035 0.897,14.0005 2,14.0005 L9,14.0005 L9,18.0005 L4,18.0005 L4,20.0005 L16,20.0005 L16,18.0005 L11,18.0005 L11,14.0005 L18,14.0005 C19.103,14.0005 20,13.1035 20,12.0005 L20,8.0005 L0,8.0005 Z" id="Fill-257"></path>
                <path d="M3,2 L8,2 L8,4 L3,4 L3,2 Z M13,2 C13.552,2 14,2.449 14,3 C14,3.553 13.552,4 13,4 C12.448,4 12,3.553 12,3 C12,2.449 12.448,2 13,2 L13,2 Z M16,2 C16.552,2 17,2.449 17,3 C17,3.553 16.552,4 16,4 C15.448,4 15,3.553 15,3 C15,2.449 15.448,2 16,2 L16,2 Z M20,6 L20,2 C20,0.897 19.103,0 18,0 L2,0 C0.897,0 0,0.897 0,2 L0,6 L20,6 Z" id="Fill-258"></path>
            </g>
        </g>
    </g>
</svg>