<?xml version="1.0" encoding="UTF-8"?>
<svg width="24px" height="24px" viewBox="0 0 24 24" version="1.1" xmlns="http://www.w3.org/2000/svg" xmlns:xlink="http://www.w3.org/1999/xlink">
    <!-- Generator: Sketch 42 (36781) - http://www.bohemiancoding.com/sketch -->
    <title>Group</title>
    <desc>Created with Sketch.</desc>
    <defs></defs>
    <g id="Page-1" stroke="none" stroke-width="1" fill="none" fill-rule="evenodd">
        <g id="Solid-Icons" transform="translate(-144.000000, -864.000000)" fill="#767676">
            <g id="Group" transform="translate(144.000000, 864.000000)">
                <path d="M15.832,0.4468 C15.646,0.1688 15.335,0.0008 15,0.0008 L11,0.0008 L11,6.0008 L19.535,6.0008 L15.832,0.4468 Z" id="Fill-459"></path>
                <path d="M9,0.001 L5,0.001 C4.665,0.001 4.354,0.169 4.168,0.447 L0.465,6.001 L9,6.001 L9,0.001 Z" id="Fill-460"></path>
                <path d="M20,8.001 L0,8.001 L0,19.001 C0,19.553 0.448,20.001 1,20.001 L14,20.001 L14,19.998 C14,16.684 16.686,13.998 20,13.998 L20,8.001 Z" id="Fill-461"></path>
                <polygon id="Fill-462" points="21 18.9985 21 15.9985 19 15.9985 19 18.9985 16 18.9985 16 20.9985 19 20.9985 19 23.9985 21 23.9985 21 20.9985 24 20.9985 24 18.9985"></polygon>
            </g>
        </g>
    </g>
</svg>