<?xml version="1.0" encoding="UTF-8"?>
<svg width="24px" height="16px" viewBox="0 0 24 16" version="1.1" xmlns="http://www.w3.org/2000/svg" xmlns:xlink="http://www.w3.org/1999/xlink">
    <!-- Generator: Sketch 42 (36781) - http://www.bohemiancoding.com/sketch -->
    <title>Group</title>
    <desc>Created with Sketch.</desc>
    <defs></defs>
    <g id="Page-1" stroke="none" stroke-width="1" fill="none" fill-rule="evenodd">
        <g id="Solid-Icons" transform="translate(-192.000000, -1204.000000)" fill="#767676">
            <g id="Group" transform="translate(191.000000, 1203.000000)">
                <path d="M13.9976,0.9985 L13.9976,5.1405 C15.7176,5.5875 16.9976,7.1405 16.9976,8.9985 C16.9976,10.8565 15.7176,12.4095 13.9976,12.8565 L13.9976,16.9985 L24.9976,16.9985 L24.9976,12.9985 L20.9976,12.9985 L20.9976,4.9985 L24.9976,4.9985 L24.9976,0.9985 L13.9976,0.9985 Z" id="Fill-676"></path>
                <path d="M8.9976,8.9985 C8.9976,7.1405 10.2776,5.5875 11.9976,5.1405 L11.9976,0.9985 L0.9976,0.9985 L0.9976,4.9985 L4.9976,4.9985 L4.9976,12.9985 L0.9976,12.9985 L0.9976,16.9985 L11.9976,16.9985 L11.9976,12.8565 C10.2776,12.4095 8.9976,10.8565 8.9976,8.9985" id="Fill-677"></path>
                <polygon id="Fill-678" points="2.998 6.999 0.998 6.999 0.998 10.999 2.998 10.999"></polygon>
                <polygon id="Fill-679" points="22.998 10.999 24.998 10.999 24.998 6.999 22.998 6.999"></polygon>
                <path d="M14.9976,8.9985 C14.9976,7.8945 14.1006,6.9985 12.9976,6.9985 C11.8946,6.9985 10.9976,7.8945 10.9976,8.9985 C10.9976,10.1015 11.8946,10.9985 12.9976,10.9985 C14.1006,10.9985 14.9976,10.1015 14.9976,8.9985" id="Fill-680"></path>
            </g>
        </g>
    </g>
</svg>