<?xml version="1.0" encoding="UTF-8"?>
<svg width="22px" height="22px" viewBox="0 0 22 22" version="1.1" xmlns="http://www.w3.org/2000/svg" xmlns:xlink="http://www.w3.org/1999/xlink">
    <!-- Generator: Sketch 42 (36781) - http://www.bohemiancoding.com/sketch -->
    <title>Group</title>
    <desc>Created with Sketch.</desc>
    <defs></defs>
    <g id="Page-1" stroke="none" stroke-width="1" fill="none" fill-rule="evenodd">
        <g id="Solid-Icons" transform="translate(-337.000000, -529.000000)" fill="#767676">
            <g id="Group" transform="translate(337.000000, 529.000000)">
                <path d="M21,9.0005 L19,9.0005 C18.45,9.0005 18,9.4515 18,10.0005 L18,12.0005 C18,12.5505 18.45,13.0005 19,13.0005 L21,13.0005 C21.55,13.0005 22,12.5505 22,12.0005 L22,10.0005 C22,9.4515 21.55,9.0005 21,9.0005" id="Fill-276"></path>
                <path d="M4,12.0005 L4,10.0005 C4,9.4515 3.55,9.0005 3,9.0005 L1,9.0005 C0.45,9.0005 0,9.4515 0,10.0005 L0,12.0005 C0,12.5505 0.45,13.0005 1,13.0005 L3,13.0005 C3.55,13.0005 4,12.5505 4,12.0005" id="Fill-277"></path>
                <path d="M12,0.0005 L10,0.0005 C9.45,0.0005 9,0.4515 9,1.0005 L9,3.0005 C9,3.5505 9.45,4.0005 10,4.0005 L12,4.0005 C12.55,4.0005 13,3.5505 13,3.0005 L13,1.0005 C13,0.4515 12.55,0.0005 12,0.0005" id="Fill-278"></path>
                <path d="M12,18.0005 L10,18.0005 C9.45,18.0005 9,18.4515 9,19.0005 L9,21.0005 C9,21.5505 9.45,22.0005 10,22.0005 L12,22.0005 C12.55,22.0005 13,21.5505 13,21.0005 L13,19.0005 C13,18.4515 12.55,18.0005 12,18.0005" id="Fill-279"></path>
                <path d="M17.9175,7.0005 L20.1595,7.0005 C19.1505,4.6995 17.3015,2.8505 14.9995,1.8415 L14.9995,4.0835 C16.2095,4.7845 17.2155,5.7915 17.9175,7.0005" id="Fill-280"></path>
                <path d="M1.8408,7.0005 L4.0828,7.0005 C4.7838,5.7915 5.7908,4.7845 6.9998,4.0835 L6.9998,1.8415 C4.6988,2.8505 2.8498,4.6995 1.8408,7.0005" id="Fill-281"></path>
                <path d="M15,17.918 L15,20.16 C17.301,19.151 19.15,17.301 20.159,15.001 L17.918,15.001 C17.216,16.21 16.209,17.217 15,17.918" id="Fill-282"></path>
                <path d="M4.0825,15.0005 L1.8405,15.0005 C2.8495,17.3015 4.6985,19.1505 7.0005,20.1595 L7.0005,17.9175 C5.7905,17.2165 4.7845,16.2095 4.0825,15.0005" id="Fill-283"></path>
            </g>
        </g>
    </g>
</svg>