<?xml version="1.0" encoding="UTF-8"?>
<svg width="20px" height="19px" viewBox="0 0 20 19" version="1.1" xmlns="http://www.w3.org/2000/svg" xmlns:xlink="http://www.w3.org/1999/xlink">
    <!-- Generator: Sketch 42 (36781) - http://www.bohemiancoding.com/sketch -->
    <title>Group</title>
    <desc>Created with Sketch.</desc>
    <defs></defs>
    <g id="Page-1" stroke="none" stroke-width="1" fill="none" fill-rule="evenodd">
        <g id="Solid-Icons" transform="translate(-2.000000, -1395.000000)" fill="#767676">
            <g id="Group" transform="translate(2.000000, 1395.000000)">
                <path d="M12,0.0005 C10.896,0.0005 10,0.8965 10,2.0005 L14,2.0005 C14,0.8965 13.105,0.0005 12,0.0005" id="Fill-760"></path>
                <path d="M5,11 L3,11 L3,9 L5,9 L5,11 Z M7,14.184 L7,7 C7,6.449 6.552,6 6,6 L4,6 C3.735,6 3.48,6.106 3.293,6.293 L0.293,9.293 C0.105,9.481 0,9.735 0,10 L0,16 C0,16.552 0.448,17 1,17 L3,17 C3,15.343 4.344,14 6,14 C6.353,14 6.686,14.073 7,14.184 L7,14.184 Z" id="Fill-761"></path>
                <path d="M6,15.0005 C4.896,15.0005 4,15.8965 4,17.0005 C4,18.1045 4.896,19.0005 6,19.0005 C7.105,19.0005 8,18.1045 8,17.0005 C8,15.8965 7.105,15.0005 6,15.0005" id="Fill-762"></path>
                <path d="M17,10.0005 L15,10.0005 L15,12.0005 L13,12.0005 L13,10.0005 L11,10.0005 L11,8.0005 L13,8.0005 L13,6.0005 L15,6.0005 L15,8.0005 L17,8.0005 L17,10.0005 Z M18,3.0005 L10,3.0005 C8.897,3.0005 8,3.8985 8,5.0005 L8,14.7785 C8.609,15.3275 9,16.1155 9,17.0005 L12,17.0005 C12,15.3435 13.344,14.0005 15,14.0005 C16.657,14.0005 18,15.3435 18,17.0005 L19,17.0005 C19.552,17.0005 20,16.5525 20,16.0005 L20,5.0005 C20,3.8985 19.103,3.0005 18,3.0005 L18,3.0005 Z" id="Fill-763"></path>
                <path d="M15,15.0005 C13.896,15.0005 13,15.8965 13,17.0005 C13,18.1045 13.896,19.0005 15,19.0005 C16.105,19.0005 17,18.1045 17,17.0005 C17,15.8965 16.105,15.0005 15,15.0005" id="Fill-764"></path>
            </g>
        </g>
    </g>
</svg>