<?xml version="1.0" encoding="UTF-8"?>
<svg width="22px" height="20px" viewBox="0 0 22 20" version="1.1" xmlns="http://www.w3.org/2000/svg" xmlns:xlink="http://www.w3.org/1999/xlink">
    <!-- Generator: Sketch 42 (36781) - http://www.bohemiancoding.com/sketch -->
    <title>Group</title>
    <desc>Created with Sketch.</desc>
    <defs></defs>
    <g id="Page-1" stroke="none" stroke-width="1" fill="none" fill-rule="evenodd">
        <g id="Solid-Icons" transform="translate(-49.000000, -1106.000000)" fill="#767676">
            <g id="Group" transform="translate(48.000000, 1106.000000)">
                <path d="M18.999,6.0005 C20.102,6.0005 20.999,5.1025 20.999,4.0005 C20.999,2.8965 20.102,2.0005 18.999,2.0005 C17.896,2.0005 16.999,2.8965 16.999,4.0005 C16.999,5.1025 17.896,6.0005 18.999,6.0005" id="Fill-567"></path>
                <path d="M18.999,7.0005 C16.606,7.0005 14.999,9.0095 14.999,12.0005 L14.999,14.0005 C14.999,14.5515 15.447,15.0005 15.999,15.0005 L16.999,15.0005 L16.999,19.0005 C16.999,19.5515 17.447,20.0005 17.999,20.0005 L19.999,20.0005 C20.551,20.0005 20.999,19.5515 20.999,19.0005 L20.999,15.0005 L21.999,15.0005 C22.551,15.0005 22.999,14.5515 22.999,14.0005 L22.999,12.0005 C22.999,9.0095 21.392,7.0005 18.999,7.0005" id="Fill-568"></path>
                <polygon id="Fill-569" points="10.999 20 12.999 20 12.999 0 10.999 0"></polygon>
                <path d="M4.999,6.0005 C6.102,6.0005 6.999,5.1025 6.999,4.0005 C6.999,2.8965 6.102,2.0005 4.999,2.0005 C3.896,2.0005 2.999,2.8965 2.999,4.0005 C2.999,5.1025 3.896,6.0005 4.999,6.0005" id="Fill-570"></path>
                <path d="M8.1738,12.5332 C6.9478,7.5232 6.8198,7.0002 4.9778,7.0002 C3.1778,7.0002 3.0498,7.5252 1.8228,12.5382 C1.6038,13.4342 1.3438,14.4962 1.0288,15.7572 C0.9548,16.0522 1.0198,16.3652 1.2038,16.6072 C1.3888,16.8482 1.6738,16.9932 1.9778,17.0002 C1.9778,17.0002 2.7218,17.0162 3.3098,17.0182 C3.5008,17.5912 3.7878,18.4832 4.0458,19.3012 C4.1768,19.7172 4.5628,20.0002 4.9988,20.0002 C5.4358,20.0002 5.8218,19.7172 5.9528,19.3012 C6.2108,18.4832 6.4978,17.5912 6.6888,17.0182 C7.2768,17.0162 8.0208,17.0002 8.0208,17.0002 C8.3248,16.9932 8.6098,16.8482 8.7938,16.6072 C8.9788,16.3652 9.0428,16.0522 8.9688,15.7572 C8.6538,14.4932 8.3928,13.4282 8.1738,12.5332" id="Fill-571"></path>
            </g>
        </g>
    </g>
</svg>