<?xml version="1.0" encoding="UTF-8"?>
<svg width="20px" height="22px" viewBox="0 0 20 22" version="1.1" xmlns="http://www.w3.org/2000/svg" xmlns:xlink="http://www.w3.org/1999/xlink">
    <!-- Generator: Sketch 42 (36781) - http://www.bohemiancoding.com/sketch -->
    <title>Group</title>
    <desc>Created with Sketch.</desc>
    <defs></defs>
    <g id="Page-1" stroke="none" stroke-width="1" fill="none" fill-rule="evenodd">
        <g id="Solid-Icons" transform="translate(-242.000000, -1585.000000)" fill="#757575">
            <g id="Group" transform="translate(242.000000, 1585.000000)">
                <polygon id="Fill-883" points="18 1.0005 18 3.5865 14.707 0.2935 13.293 1.7065 16.586 5.0005 14 5.0005 14 7.0005 20 7.0005 20 1.0005"></polygon>
                <polygon id="Fill-884" points="6 17.0005 6 15.0005 0 15.0005 0 21.0005 2 21.0005 2 18.4145 5.293 21.7065 6.707 20.2935 3.414 17.0005"></polygon>
                <path d="M3,14.0005 L6,14.0005 L6,8.0005 C6,6.8985 6.897,6.0005 8,6.0005 L12,6.0005 L12,3.0005 C12,1.8985 11.103,1.0005 10,1.0005 L3,1.0005 C1.897,1.0005 1,1.8985 1,3.0005 L1,12.0005 C1,13.1025 1.897,14.0005 3,14.0005" id="Fill-885"></path>
                <path d="M17,15.001 L10,15.001 L10,14.001 L17,14.001 L17,15.001 Z M17,18.001 L10,18.001 L10,17.001 L17,17.001 L17,18.001 Z M10,11.001 L14,11.001 L14,12.001 L10,12.001 L10,11.001 Z M17,8.001 L10,8.001 C8.897,8.001 8,8.899 8,10.001 L8,19.001 C8,20.103 8.897,21.001 10,21.001 L17,21.001 C18.103,21.001 19,20.103 19,19.001 L19,10.001 C19,8.899 18.103,8.001 17,8.001 L17,8.001 Z" id="Fill-886"></path>
            </g>
        </g>
    </g>
</svg>