<?xml version="1.0" encoding="UTF-8"?>
<svg width="20px" height="20px" viewBox="0 0 20 20" version="1.1" xmlns="http://www.w3.org/2000/svg" xmlns:xlink="http://www.w3.org/1999/xlink">
    <!-- Generator: Sketch 42 (36781) - http://www.bohemiancoding.com/sketch -->
    <title>Group</title>
    <desc>Created with Sketch.</desc>
    <defs></defs>
    <g id="Page-1" stroke="none" stroke-width="1" fill="none" fill-rule="evenodd">
        <g id="Solid-Icons" transform="translate(-146.000000, -1202.000000)" fill="#767676">
            <g id="Group" transform="translate(146.000000, 1202.000000)">
                <path d="M16.0771,9.0005 L19.9471,9.0005 C19.7901,7.4235 19.2591,5.9595 18.4561,4.6845 C17.1941,5.7635 16.3251,7.2815 16.0771,9.0005" id="Fill-655"></path>
                <path d="M16.0771,11.0005 C16.3251,12.7195 17.1941,14.2375 18.4561,15.3175 C19.2591,14.0415 19.7901,12.5775 19.9471,11.0005 L16.0771,11.0005 Z" id="Fill-656"></path>
                <path d="M10.9971,9.0005 L14.0561,9.0005 C14.3181,6.6405 15.4961,4.5535 17.2261,3.1035 C15.6211,1.4215 13.4411,0.2935 10.9971,0.0515 L10.9971,9.0005 Z" id="Fill-657"></path>
                <path d="M5.938,9.0005 L8.997,9.0005 L8.997,0.0515 C6.553,0.2935 4.373,1.4215 2.768,3.1035 C4.499,4.5535 5.676,6.6405 5.938,9.0005" id="Fill-658"></path>
                <path d="M0.0474,11.0005 C0.2044,12.5775 0.7344,14.0415 1.5384,15.3175 C2.7994,14.2375 3.6694,12.7195 3.9174,11.0005 L0.0474,11.0005 Z" id="Fill-659"></path>
                <path d="M1.5381,4.6841 C0.7351,5.9591 0.2041,7.4231 0.0471,9.0001 L3.9171,9.0001 C3.6691,7.2821 2.8001,5.7631 1.5381,4.6841" id="Fill-660"></path>
                <path d="M14.0562,11.0005 L10.9972,11.0005 L10.9972,19.9505 C13.4412,19.7075 15.6212,18.5795 17.2262,16.8985 C15.4952,15.4475 14.3182,13.3605 14.0562,11.0005" id="Fill-661"></path>
                <path d="M8.9971,11.0005 L5.9381,11.0005 C5.6761,13.3605 4.4981,15.4475 2.7681,16.8985 C4.3731,18.5795 6.5531,19.7075 8.9971,19.9505 L8.9971,11.0005 Z" id="Fill-662"></path>
            </g>
        </g>
    </g>
</svg>