<?xml version="1.0" encoding="UTF-8"?>
<svg width="20px" height="21px" viewBox="0 0 20 21" version="1.1" xmlns="http://www.w3.org/2000/svg" xmlns:xlink="http://www.w3.org/1999/xlink">
    <!-- Generator: Sketch 42 (36781) - http://www.bohemiancoding.com/sketch -->
    <title>Group</title>
    <desc>Created with Sketch.</desc>
    <defs></defs>
    <g id="Page-1" stroke="none" stroke-width="1" fill="none" fill-rule="evenodd">
        <g id="Solid-Icons" transform="translate(-290.000000, -1202.000000)" fill="#767676">
            <g id="Group" transform="translate(289.000000, 1202.000000)">
                <path d="M7.2979,19.3296 C12.3649,17.9506 16.1499,14.0666 17.5609,10.1366 C16.6879,9.6386 16.1159,9.3656 14.9169,9.0306 C13.3969,13.4816 9.6029,16.9146 4.5809,17.7096 C5.3879,18.3866 6.3039,18.9326 7.2979,19.3296" id="Fill-669"></path>
                <path d="M8.7349,9.0239 C9.2249,10.3899 9.9719,11.6569 10.9529,12.7669 C12.0479,11.6149 12.8909,10.2419 13.4389,8.7149 C11.8739,8.4939 10.2779,8.5929 8.7349,9.0239" id="Fill-670"></path>
                <path d="M9.856,13.7876 C6.835,10.3896 5.629,5.5416 7.316,0.7566 C6.264,1.1736 5.302,1.7626 4.461,2.4906 C3.547,7.2826 4.943,11.8376 7.686,15.1626 C8.434,14.7916 8.942,14.5276 9.856,13.7876" id="Fill-671"></path>
                <path d="M20.9956,10.0464 C20.9956,9.1954 20.8776,8.3744 20.6776,7.5854 C16.8626,4.8064 12.2836,4.0444 8.0476,5.0794 C8.0476,5.0904 8.0456,5.1004 8.0456,5.1104 C8.0456,5.9524 8.1436,6.7784 8.3176,7.5844 C12.6146,6.3804 17.4216,7.3924 20.9556,10.8334 C20.9756,10.5724 20.9956,10.3124 20.9956,10.0464" id="Fill-672"></path>
                <path d="M8.1616,3.5122 C11.9666,2.6982 16.0156,3.1752 19.7626,5.2372 C18.0616,2.1442 14.7756,0.0472 10.9976,0.0472 C10.3646,0.0472 9.7476,0.1132 9.1476,0.2252 C8.6626,1.2672 8.3206,2.3712 8.1616,3.5122" id="Fill-673"></path>
                <path d="M18.8418,10.981 C17.4238,14.602 14.2108,18.142 9.9428,19.988 C14.9398,20.511 19.3698,17.299 20.6318,12.685 C20.0948,12.056 19.4998,11.481 18.8418,10.981" id="Fill-674"></path>
                <path d="M6.2749,15.7505 C3.8129,12.6275 2.4719,8.6525 2.6899,4.4825 C1.6229,6.0735 0.9989,7.9865 0.9989,10.0465 C0.9989,12.4355 1.8389,14.6265 3.2369,16.3465 C4.2739,16.2845 5.2929,16.0855 6.2749,15.7505" id="Fill-675"></path>
            </g>
        </g>
    </g>
</svg>