<?xml version="1.0" encoding="UTF-8"?>
<svg width="24px" height="20px" viewBox="0 0 24 20" version="1.1" xmlns="http://www.w3.org/2000/svg" xmlns:xlink="http://www.w3.org/1999/xlink">
    <!-- Generator: Sketch 42 (36781) - http://www.bohemiancoding.com/sketch -->
    <title>Group</title>
    <desc>Created with Sketch.</desc>
    <defs></defs>
    <g id="Page-1" stroke="none" stroke-width="1" fill="none" fill-rule="evenodd">
        <g id="Solid-Icons" transform="translate(-288.000000, -1058.000000)" fill="#767676">
            <g id="Group" transform="translate(288.000000, 1058.000000)">
                <path d="M0,10.0005 C0,11.0455 0.163,12.0535 0.461,13.0005 L5,13.0005 L5,7.0005 L0.461,7.0005 C0.163,7.9485 0,8.9555 0,10.0005" id="Fill-593"></path>
                <path d="M1.353,5.0005 L5,5.0005 L5,1.3535 C3.489,2.2305 2.23,3.4895 1.353,5.0005" id="Fill-594"></path>
                <polygon id="Fill-595" points="11 7.0005 7 7.0005 7 13.0005 13 13.0005 13 10.0005 11 10.0005"></polygon>
                <path d="M11,0.0513 C10.671,0.0183 10.337,0.0003 10,0.0003 C8.955,0.0003 7.947,0.1633 7,0.4613 L7,5.0003 L11,5.0003 L11,0.0513 Z" id="Fill-596"></path>
                <path d="M15,18.647 C16.511,17.771 17.77,16.511 18.647,15.001 L15,15.001 L15,18.647 Z" id="Fill-597"></path>
                <path d="M5,18.647 L5,15.001 L1.353,15.001 C2.23,16.511 3.489,17.771 5,18.647" id="Fill-598"></path>
                <path d="M15,13.0005 L19.539,13.0005 C19.837,12.0535 20,11.0455 20,10.0005 L15,10.0005 L15,13.0005 Z" id="Fill-599"></path>
                <path d="M7,19.5398 C7.947,19.8388 8.955,20.0008 10,20.0008 C11.045,20.0008 12.053,19.8388 13,19.5398 L13,15.0008 L7,15.0008 L7,19.5398 Z" id="Fill-600"></path>
                <path d="M23.9121,1.521 C23.6891,1.028 23.1171,0.797 22.6151,0.998 L19.8091,2.247 L16.4881,0.143 L14.8811,0.975 C15.0401,1.079 17.9261,3 18.1161,3 L15.6851,4.082 L13.5841,3.143 L12.0001,4.056 L16.0001,6.062 L18.1991,5.047 L16.6761,9 L18.4731,8.067 L20.6641,4.064 L23.3961,2.86 C23.9091,2.638 24.1411,2.035 23.9121,1.521" id="Fill-601"></path>
            </g>
        </g>
    </g>
</svg>