<?xml version="1.0" encoding="UTF-8"?>
<svg width="20px" height="20px" viewBox="0 0 20 20" version="1.1" xmlns="http://www.w3.org/2000/svg" xmlns:xlink="http://www.w3.org/1999/xlink">
    <!-- Generator: Sketch 42 (36781) - http://www.bohemiancoding.com/sketch -->
    <title>Group</title>
    <desc>Created with Sketch.</desc>
    <defs></defs>
    <g id="Page-1" stroke="none" stroke-width="1" fill="none" fill-rule="evenodd">
        <g id="Solid-Icons" transform="translate(-194.000000, -1490.000000)" fill="#767676">
            <g id="Group" transform="translate(193.000000, 1490.000000)">
                <polygon id="Fill-825" points="11.999 8.0025 15.13 8.0025 10.999 1.8055 6.868 8.0025 9.999 8.0025 9.999 18.0025 0.999 18.0025 0.999 20.0025 20.999 20.0025 20.999 18.0025 11.999 18.0025"></polygon>
                <path d="M20.4053,4.0889 L12.6173,0.6279 L17.5343,8.0029 L19.9993,8.0029 C20.5513,8.0029 20.9993,7.5549 20.9993,7.0029 L20.9993,5.0029 C20.9993,4.6079 20.7663,4.2489 20.4053,4.0889" id="Fill-826"></path>
                <path d="M1.999,8.0025 L4.464,8.0025 L9.38,0.6275 L1.593,4.0885 C1.232,4.2485 0.999,4.6075 0.999,5.0025 L0.999,7.0025 C0.999,7.5555 1.447,8.0025 1.999,8.0025" id="Fill-827"></path>
                <path d="M1.999,13.0025 L1.999,14.0025 C1.999,15.7695 3.232,17.0025 4.998,17.0025 L5,17.0025 C6.766,17.0015 7.999,15.7685 7.999,14.0025 L7.999,13.0025 C7.999,12.4505 7.551,12.0025 6.999,12.0025 L2.999,12.0025 C2.447,12.0025 1.999,12.4505 1.999,13.0025" id="Fill-828"></path>
                <path d="M13.999,13.0025 L13.999,14.0025 C13.999,15.7695 15.232,17.0025 16.998,17.0025 L17,17.0025 C18.766,17.0015 19.999,15.7685 19.999,14.0025 L19.999,13.0025 C19.999,12.4505 19.551,12.0025 18.999,12.0025 L14.999,12.0025 C14.447,12.0025 13.999,12.4505 13.999,13.0025" id="Fill-829"></path>
            </g>
        </g>
    </g>
</svg>