<?xml version="1.0" encoding="UTF-8"?>
<svg width="24px" height="25px" viewBox="0 0 24 25" version="1.1" xmlns="http://www.w3.org/2000/svg" xmlns:xlink="http://www.w3.org/1999/xlink">
    <!-- Generator: Sketch 42 (36781) - http://www.bohemiancoding.com/sketch -->
    <title>Group</title>
    <desc>Created with Sketch.</desc>
    <defs></defs>
    <g id="Page-1" stroke="none" stroke-width="1" fill="none" fill-rule="evenodd">
        <g id="Solid-Icons" transform="translate(-96.000000, -480.000000)" fill="#757575">
            <g id="Group" transform="translate(96.000000, 480.000000)">
                <path d="M9,15.0005 C15.784,15.0005 18,12.7695 18,12.0005 L18,9.9695 C16.191,11.1575 13.175,12.0005 9,12.0005 C4.825,12.0005 1.809,11.1575 0,9.9695 L0,12.0005 C0,12.7695 2.216,15.0005 9,15.0005" id="Fill-235"></path>
                <path d="M9,10.0005 C15.784,10.0005 18,7.7695 18,7.0005 L18,4.9695 C16.191,6.1575 13.175,7.0005 9,7.0005 C4.825,7.0005 1.809,6.1575 0,4.9695 L0,7.0005 C0,7.7695 2.216,10.0005 9,10.0005" id="Fill-236"></path>
                <path d="M15.4028,16.1484 C13.7158,16.6754 11.5828,17.0004 8.9998,17.0004 C4.8248,17.0004 1.8088,16.1574 -0.0002,14.9694 L-0.0002,16.0004 C-0.0002,18.6264 4.5268,20.0004 8.9998,20.0004 C10.7648,20.0004 12.5338,19.7834 14.0348,19.3624 C14.1638,18.1454 14.6568,17.0374 15.4028,16.1484" id="Fill-237"></path>
                <path d="M9,5.0005 C14.195,5.0005 16.705,3.6945 17.599,2.7355 C16.404,0.9365 12.687,0.0005 9,0.0005 C5.313,0.0005 1.596,0.9365 0.401,2.7355 C1.295,3.6945 3.805,5.0005 9,5.0005" id="Fill-238"></path>
                <polygon id="Fill-239" points="24 19.0005 21 19.0005 21 16.0005 19 16.0005 19 19.0005 16 19.0005 16 21.0005 19 21.0005 19 24.0005 21 24.0005 21 21.0005 24 21.0005"></polygon>
            </g>
        </g>
    </g>
</svg>