<?xml version="1.0" encoding="UTF-8"?>
<svg width="23px" height="21px" viewBox="0 0 23 21" version="1.1" xmlns="http://www.w3.org/2000/svg" xmlns:xlink="http://www.w3.org/1999/xlink">
    <!-- Generator: Sketch 42 (36781) - http://www.bohemiancoding.com/sketch -->
    <title>Group</title>
    <desc>Created with Sketch.</desc>
    <defs></defs>
    <g id="Page-1" stroke="none" stroke-width="1" fill="none" fill-rule="evenodd">
        <g id="Solid-Icons" transform="translate(-144.000000, -480.000000)" fill="#757575">
            <g id="Group" transform="translate(144.000000, 480.000000)">
                <path d="M9,10.0005 C15.784,10.0005 18,7.7695 18,7.0005 L18,4.9695 C16.191,6.1575 13.175,7.0005 9,7.0005 C4.825,7.0005 1.809,6.1575 0,4.9695 L0,7.0005 C0,7.7695 2.216,10.0005 9,10.0005" id="Fill-240"></path>
                <path d="M9,15.0005 C15.784,15.0005 18,12.7695 18,12.0005 L18,9.9695 C16.191,11.1575 13.175,12.0005 9,12.0005 C4.825,12.0005 1.809,11.1575 0,9.9695 L0,12.0005 C0,12.7695 2.216,15.0005 9,15.0005" id="Fill-241"></path>
                <path d="M18,15.4224 L18,14.9694 C16.191,16.1574 13.175,17.0004 9,17.0004 C4.825,17.0004 1.809,16.1574 0,14.9694 L0,16.0004 C0,18.6264 4.527,20.0004 9,20.0004 C11.203,20.0004 13.417,19.6654 15.1,19.0134 C15.423,17.3974 16.527,16.0674 18,15.4224" id="Fill-242"></path>
                <path d="M9,5.0005 C14.195,5.0005 16.705,3.6945 17.599,2.7355 C16.404,0.9365 12.687,0.0005 9,0.0005 C5.313,0.0005 1.596,0.9365 0.401,2.7355 C1.295,3.6945 3.805,5.0005 9,5.0005" id="Fill-243"></path>
                <polygon id="Fill-244" points="23 21 17 21 17 19 23 19"></polygon>
            </g>
        </g>
    </g>
</svg>