<?xml version="1.0" encoding="UTF-8"?>
<svg width="20px" height="20px" viewBox="0 0 20 20" version="1.1" xmlns="http://www.w3.org/2000/svg" xmlns:xlink="http://www.w3.org/1999/xlink">
    <!-- Generator: Sketch 42 (36781) - http://www.bohemiancoding.com/sketch -->
    <title>Group</title>
    <desc>Created with Sketch.</desc>
    <defs></defs>
    <g id="Page-1" stroke="none" stroke-width="1" fill="none" fill-rule="evenodd">
        <g id="Solid-Icons" transform="translate(-338.000000, -1155.000000)" fill="#767676">
            <g id="Group" transform="translate(338.000000, 1155.000000)">
                <polygon id="Fill-639" points="11 0 9 0 9 2 11 2"></polygon>
                <polygon id="Fill-640" points="15.6558 2.7583 14.2418 1.3443 12.8278 2.7583 14.2418 4.1723"></polygon>
                <polygon id="Fill-641" points="15 8 17 8 17 6 15 6"></polygon>
                <polygon id="Fill-642" points="7.1714 2.7583 5.7574 1.3443 4.3434 2.7583 5.7574 4.1723"></polygon>
                <polygon id="Fill-643" points="5 6 3 6 3 8 5 8"></polygon>
                <path d="M0.9995,10.0005 C0.4475,10.0005 -0.0005,10.4485 -0.0005,11.0005 L-0.0005,18.3335 L4.9995,10.0005 L0.9995,10.0005 Z" id="Fill-644"></path>
                <polygon id="Fill-645" points="10.9995 10.0005 11.9995 20.0005 15.9995 20.0005 12.9995 10.0005"></polygon>
                <path d="M18.9995,10.0005 L14.9995,10.0005 L19.9995,18.3335 L19.9995,11.0005 C19.9995,10.4485 19.5515,10.0005 18.9995,10.0005" id="Fill-646"></path>
                <polygon id="Fill-647" points="3.9995 20.0005 7.9995 20.0005 8.9995 10.0005 6.9995 10.0005"></polygon>
                <path d="M5.9995,7.0005 C5.9995,7.7325 6.2105,8.4105 6.5545,9.0005 L13.4445,9.0005 C13.7885,8.4105 13.9995,7.7325 13.9995,7.0005 C13.9995,4.7915 12.2085,3.0005 9.9995,3.0005 C7.7905,3.0005 5.9995,4.7915 5.9995,7.0005" id="Fill-648"></path>
            </g>
        </g>
    </g>
</svg>