<?xml version="1.0" encoding="UTF-8"?>
<svg width="24px" height="20px" viewBox="0 0 24 20" version="1.1" xmlns="http://www.w3.org/2000/svg" xmlns:xlink="http://www.w3.org/1999/xlink">
    <!-- Generator: Sketch 42 (36781) - http://www.bohemiancoding.com/sketch -->
    <title>Group</title>
    <desc>Created with Sketch.</desc>
    <defs></defs>
    <g id="Page-1" stroke="none" stroke-width="1" fill="none" fill-rule="evenodd">
        <g id="Solid-Icons" transform="translate(-288.000000, -866.000000)" fill="#767676">
            <g id="Group" transform="translate(288.000000, 866.000000)">
                <path d="M22,3.0005 C22,1.3465 20.654,0.0005 19,0.0005 C17.346,0.0005 16,1.3465 16,3.0005 C16,4.6545 17.346,6.0005 19,6.0005 C20.654,6.0005 22,4.6545 22,3.0005" id="Fill-471"></path>
                <path d="M19,6.0005 C16.243,6.0005 14,8.2435 14,11.0005 L14,14.0005 C14,14.5535 14.448,15.0005 15,15.0005 L16,15.0005 L16,19.0005 C16,19.5535 16.448,20.0005 17,20.0005 L21,20.0005 C21.552,20.0005 22,19.5535 22,19.0005 L22,15.0005 L23,15.0005 C23.552,15.0005 24,14.5535 24,14.0005 L24,11.0005 C24,8.2435 21.757,6.0005 19,6.0005" id="Fill-472"></path>
                <path d="M6,14.0005 C6.552,14.0005 7,13.5535 7,13.0005 L7,7.0005 C7,6.4485 6.552,6.0005 6,6.0005 L1,6.0005 C0.448,6.0005 0,6.4485 0,7.0005 L0,13.0005 C0,13.5535 0.448,14.0005 1,14.0005 L6,14.0005 Z" id="Fill-473"></path>
                <path d="M10,16.0005 C8.896,16.0005 8,16.8965 8,18.0005 C8,19.1045 8.896,20.0005 10,20.0005 C11.104,20.0005 12,19.1045 12,18.0005 C12,16.8965 11.104,16.0005 10,16.0005" id="Fill-474"></path>
                <path d="M9.0034,3.9175 L8.0804,15.0005 L1.0004,15.0005 L1.0004,17.0005 L7.1844,17.0005 C7.5994,15.8365 8.7144,14.9675 10.0864,15.0095 L10.9204,5.0005 L13.0004,5.0005 L13.0004,3.0005 L10.0004,3.0005 C9.4804,3.0005 9.0474,3.3985 9.0034,3.9175" id="Fill-475"></path>
            </g>
        </g>
    </g>
</svg>