<?xml version="1.0" encoding="UTF-8"?>
<svg width="24px" height="24px" viewBox="0 0 24 24" version="1.1" xmlns="http://www.w3.org/2000/svg" xmlns:xlink="http://www.w3.org/1999/xlink">
    <!-- Generator: Sketch 42 (36781) - http://www.bohemiancoding.com/sketch -->
    <title>Group</title>
    <desc>Created with Sketch.</desc>
    <defs></defs>
    <g id="Page-1" stroke="none" stroke-width="1" fill="none" fill-rule="evenodd">
        <g id="Solid-Icons" transform="translate(-192.000000, -480.000000)" fill="#757575">
            <g id="Group" transform="translate(192.000000, 480.000000)">
                <path d="M9,15.0005 C15.784,15.0005 18,12.7695 18,12.0005 L18,9.9695 C16.191,11.1575 13.175,12.0005 9,12.0005 C4.825,12.0005 1.809,11.1575 0,9.9695 L0,12.0005 C0,12.7695 2.216,15.0005 9,15.0005" id="Fill-245"></path>
                <path d="M9,10.0005 C15.784,10.0005 18,7.7695 18,7.0005 L18,4.9695 C16.191,6.1575 13.175,7.0005 9,7.0005 C4.825,7.0005 1.809,6.1575 0,4.9695 L0,7.0005 C0,7.7695 2.216,10.0005 9,10.0005" id="Fill-246"></path>
                <path d="M9,5.0005 C14.195,5.0005 16.705,3.6945 17.599,2.7355 C16.404,0.9365 12.687,0.0005 9,0.0005 C5.313,0.0005 1.596,0.9365 0.401,2.7355 C1.295,3.6945 3.805,5.0005 9,5.0005" id="Fill-247"></path>
                <path d="M14.1484,16.48 C12.6924,16.806 10.9814,17.001 9.0004,17.001 C4.8244,17.001 1.8084,16.158 0.0004,14.969 L0.0004,16.001 C0.0004,18.626 4.5274,20.001 9.0004,20.001 C10.3794,20.001 11.7644,19.869 13.0194,19.611 C13.0944,18.445 13.5014,17.371 14.1484,16.48" id="Fill-248"></path>
                <polygon id="Fill-249" points="18 23.4146 14.293 19.7066 15.707 18.2936 18 20.5866 22.293 16.2936 23.707 17.7066"></polygon>
            </g>
        </g>
    </g>
</svg>