<?xml version="1.0" encoding="UTF-8"?>
<svg width="18px" height="22px" viewBox="0 0 18 22" version="1.1" xmlns="http://www.w3.org/2000/svg" xmlns:xlink="http://www.w3.org/1999/xlink">
    <!-- Generator: Sketch 42 (36781) - http://www.bohemiancoding.com/sketch -->
    <title>Group</title>
    <desc>Created with Sketch.</desc>
    <defs></defs>
    <g id="Page-1" stroke="none" stroke-width="1" fill="none" fill-rule="evenodd">
        <g id="Solid-Icons" transform="translate(-147.000000, -577.000000)" fill="#767676">
            <g id="Group" transform="translate(147.000000, 577.000000)">
                <polygon id="Fill-312" points="9 9.0005 8 9.0005 7 13.0005 10 13.0005"></polygon>
                <polygon id="Fill-313" points="2 13.0005 4.5 13.0005 7 9.0005 5.5 9.0005"></polygon>
                <polygon id="Fill-314" points="11.5 9.0005 10 9.0005 12.5 13.0005 15 13.0005"></polygon>
                <path d="M15,20.0005 C14.448,20.0005 14,19.5525 14,19.0005 C14,18.4485 14.448,18.0005 15,18.0005 C15.552,18.0005 16,18.4485 16,19.0005 C16,19.5525 15.552,20.0005 15,20.0005 M11,20.0005 C10.448,20.0005 10,19.5525 10,19.0005 C10,18.4485 10.448,18.0005 11,18.0005 C11.552,18.0005 12,18.4485 12,19.0005 C12,19.5525 11.552,20.0005 11,20.0005 M8.5,5.0005 C7.672,5.0005 7,4.3285 7,3.5005 C7,2.6725 7.672,2.0005 8.5,2.0005 C9.328,2.0005 10,2.6725 10,3.5005 C10,4.3285 9.328,5.0005 8.5,5.0005 M16,5.0005 L12,5.0005 L12,1.0005 C12,0.4485 11.553,0.0005 11,0.0005 L6,0.0005 C5.447,0.0005 5,0.4485 5,1.0005 L5,6.0005 C5,6.5525 5.447,7.0005 6,7.0005 L16,7.0005 L16,15.0005 L0,15.0005 L0,22.0005 L18,22.0005 L18,7.0005 C18,5.8985 17.103,5.0005 16,5.0005" id="Fill-315"></path>
            </g>
        </g>
    </g>
</svg>