<?xml version="1.0" encoding="UTF-8"?>
<svg width="24px" height="20px" viewBox="0 0 24 20" version="1.1" xmlns="http://www.w3.org/2000/svg" xmlns:xlink="http://www.w3.org/1999/xlink">
    <!-- Generator: Sketch 42 (36781) - http://www.bohemiancoding.com/sketch -->
    <title>Group</title>
    <desc>Created with Sketch.</desc>
    <defs></defs>
    <g id="Page-1" stroke="none" stroke-width="1" fill="none" fill-rule="evenodd">
        <g id="Solid-Icons" transform="translate(-48.000000, -914.000000)" fill="#767676">
            <g id="Group" transform="translate(48.000000, 914.000000)">
                <path d="M21.2725,17.791 C21.2505,17.879 21.0905,18.003 20.9995,18.003 L2.9995,18.003 C2.9095,18.003 2.7495,17.879 2.7275,17.791 L2.2805,16.003 L8.9995,16.003 C8.9995,16.556 9.4475,17.003 9.9995,17.003 L13.9995,17.003 C14.5525,17.003 14.9995,16.556 14.9995,16.003 L21.7195,16.003 L21.2725,17.791 Z M2.9995,2.003 L20.9995,2.003 L20.9995,14.003 L13.9995,14.003 C13.4475,14.003 12.9995,14.452 12.9995,15.003 L10.9995,15.003 C10.9995,14.452 10.5525,14.003 9.9995,14.003 L2.9995,14.003 L2.9995,2.003 Z M23.2425,14.034 C23.1615,14.013 23.0815,14.021 22.9995,14.021 L22.9995,1.003 C22.9995,0.452 22.5525,0.003 21.9995,0.003 L1.9995,0.003 C1.4475,0.003 0.9995,0.452 0.9995,1.003 L0.9995,14.003 C0.9995,14.003 0.8395,14.013 0.7575,14.034 C0.2215,14.167 -0.1035,14.711 0.0295,15.246 L0.7875,18.277 C1.0335,19.262 1.9845,20.003 2.9995,20.003 L20.9995,20.003 C22.0155,20.003 22.9665,19.262 23.2125,18.277 L23.9705,15.246 C24.1035,14.711 23.7785,14.167 23.2425,14.034 L23.2425,14.034 Z" id="Fill-485"></path>
                <path d="M11,12.0034 L9,12.0034 L9,4.0034 L11,4.0034 L11,3.0034 L5,3.0034 C4.448,3.0034 4,3.4524 4,4.0034 L4,12.0034 C4,12.5554 4.448,13.0034 5,13.0034 L11,13.0034 L11,12.0034 Z" id="Fill-486"></path>
                <path d="M12.5,9.0034 L11,9.0034 L11,10.0034 L12.5,10.0034 C12.776,10.0034 13,9.7794 13,9.5034 C13,9.2284 12.776,9.0034 12.5,9.0034" id="Fill-487"></path>
                <path d="M15,6.5034 C15,7.0694 14.805,7.5854 14.487,8.0034 C14.805,8.4224 15,8.9384 15,9.5034 C15,10.7104 14.14,11.7204 13,11.9524 L13,13.0034 L19,13.0034 C19.552,13.0034 20,12.5554 20,12.0034 L20,4.0034 C20,3.4524 19.552,3.0034 19,3.0034 L13,3.0034 L13,4.0544 C14.14,4.2864 15,5.2964 15,6.5034" id="Fill-488"></path>
                <path d="M11,7.0034 L12.5,7.0034 C12.776,7.0034 13,6.7794 13,6.5034 C13,6.2284 12.776,6.0034 12.5,6.0034 L11,6.0034 L11,7.0034 Z" id="Fill-489"></path>
            </g>
        </g>
    </g>
</svg>