<?xml version="1.0" encoding="UTF-8"?>
<svg width="21px" height="23px" viewBox="0 0 21 23" version="1.1" xmlns="http://www.w3.org/2000/svg" xmlns:xlink="http://www.w3.org/1999/xlink">
    <!-- Generator: Sketch 42 (36781) - http://www.bohemiancoding.com/sketch -->
    <title>Group</title>
    <desc>Created with Sketch.</desc>
    <defs></defs>
    <g id="Page-1" stroke="none" stroke-width="1" fill="none" fill-rule="evenodd">
        <g id="Solid-Icons" transform="translate(-290.000000, -289.000000)" fill="#757575">
            <g id="Group" transform="translate(290.000000, 289.000000)">
                <path d="M5,16.0005 C5,14.1595 6.159,13.0005 8,13.0005 C9.841,13.0005 11,14.1595 11,16.0005 L5,16.0005 Z" id="Fill-153"></path>
                <path d="M10,10.0005 C10,11.1045 9.104,12.0005 8,12.0005 C6.896,12.0005 6,11.1045 6,10.0005 C6,8.8965 6.896,8.0005 8,8.0005 C9.104,8.0005 10,8.8965 10,10.0005" id="Fill-154"></path>
                <path d="M14,8.0005 L14,19.0005 L2,19.0005 L2,5.0005 L10,5.0005 L10,1.0005 L2,1.0005 C0.897,1.0005 0,1.8975 0,3.0005 L0,21.0005 C0,22.1035 0.897,23.0005 2,23.0005 L14,23.0005 C15.103,23.0005 16,22.1035 16,21.0005 L16,8.0005 L14,8.0005 Z" id="Fill-155"></path>
                <path d="M18,2.0005 L18,1.0005 C18,0.4475 17.552,0.0005 17,0.0005 L13,0.0005 C12.448,0.0005 12,0.4475 12,1.0005 L12,5.0005 C12,5.5535 12.448,6.0005 13,6.0005 L17,6.0005 C17.552,6.0005 18,5.5535 18,5.0005 L18,4.0005 L21,5.0005 L21,1.0005 L18,2.0005 Z" id="Fill-156"></path>
            </g>
        </g>
    </g>
</svg>