<?xml version="1.0" encoding="UTF-8"?>
<svg width="20px" height="20px" viewBox="0 0 20 20" version="1.1" xmlns="http://www.w3.org/2000/svg" xmlns:xlink="http://www.w3.org/1999/xlink">
    <!-- Generator: Sketch 42 (36781) - http://www.bohemiancoding.com/sketch -->
    <title>Group</title>
    <desc>Created with Sketch.</desc>
    <defs></defs>
    <g id="Page-1" stroke="none" stroke-width="1" fill="none" fill-rule="evenodd">
        <g id="Solid-Icons" transform="translate(-194.000000, -530.000000)" fill="#767676">
            <g id="Group" transform="translate(194.000000, 530.000000)">
                <polygon id="Fill-268" points="3 6 1 6 1 14 3 14"></polygon>
                <polygon id="Fill-269" points="6 3 14 3 14 1 6 1"></polygon>
                <polygon id="Fill-270" points="6 19 14 19 14 17 6 17"></polygon>
                <polygon id="Fill-271" points="17 14 19 14 19 6 17 6"></polygon>
                <path d="M18,4.0005 C19.104,4.0005 20,3.1045 20,2.0005 C20,0.8965 19.104,0.0005 18,0.0005 C16.896,0.0005 16,0.8965 16,2.0005 C16,3.1045 16.896,4.0005 18,4.0005" id="Fill-272"></path>
                <path d="M2,0.0005 C0.895,0.0005 0,0.8965 0,2.0005 C0,3.1045 0.895,4.0005 2,4.0005 C3.105,4.0005 4,3.1045 4,2.0005 C4,0.8965 3.105,0.0005 2,0.0005" id="Fill-273"></path>
                <path d="M18,16.0005 C16.896,16.0005 16,16.8965 16,18.0005 C16,19.1045 16.896,20.0005 18,20.0005 C19.104,20.0005 20,19.1045 20,18.0005 C20,16.8965 19.104,16.0005 18,16.0005" id="Fill-274"></path>
                <path d="M2,16.0005 C0.895,16.0005 0,16.8965 0,18.0005 C0,19.1045 0.895,20.0005 2,20.0005 C3.105,20.0005 4,19.1045 4,18.0005 C4,16.8965 3.105,16.0005 2,16.0005" id="Fill-275"></path>
            </g>
        </g>
    </g>
</svg>