<?xml version="1.0" encoding="UTF-8"?>
<svg width="20px" height="21px" viewBox="0 0 20 21" version="1.1" xmlns="http://www.w3.org/2000/svg" xmlns:xlink="http://www.w3.org/1999/xlink">
    <!-- Generator: Sketch 42 (36781) - http://www.bohemiancoding.com/sketch -->
    <title>Group</title>
    <desc>Created with Sketch.</desc>
    <defs></defs>
    <g id="Page-1" stroke="none" stroke-width="1" fill="none" fill-rule="evenodd">
        <g id="Solid-Icons" transform="translate(-242.000000, -1298.000000)" fill="#767676">
            <g id="Group" transform="translate(242.000000, 1298.000000)">
                <path d="M3.001,11.0015 C1.347,11.0015 0.001,12.3475 0.001,14.0015 L3.001,14.0015 L3.001,11.0015 Z" id="Fill-719"></path>
                <path d="M4.001,8.0015 L6.001,8.0015 L6.001,5.0015 L8.001,5.0015 L8.001,8.0015 L12.001,8.0015 L12.001,5.0015 L14.001,5.0015 L14.001,8.0015 L16.001,8.0015 C16.553,8.0015 17.001,7.5535 17.001,7.0015 L17.001,3.0015 C17.001,1.3475 15.655,0.0015 14.001,0.0015 L6.001,0.0015 C4.347,0.0015 3.001,1.3475 3.001,3.0015 L3.001,7.0015 C3.001,7.5535 3.449,8.0015 4.001,8.0015" id="Fill-720"></path>
                <path d="M17.001,14.0015 L20.001,14.0015 C20.001,12.3475 18.655,11.0015 17.001,11.0015 L17.001,14.0015 Z" id="Fill-721"></path>
                <path d="M17.001,15.0015 L17.001,20.0015 L19.001,20.0015 C19.553,20.0015 20.001,19.5535 20.001,19.0015 L20.001,15.0015 L17.001,15.0015 Z" id="Fill-722"></path>
                <path d="M3.001,15.0015 L0.001,15.0015 L0.001,19.0015 C0.001,19.5535 0.449,20.0015 1.001,20.0015 L3.001,20.0015 L3.001,15.0015 Z" id="Fill-723"></path>
                <path d="M13.001,15.001 L7.001,15.001 L7.001,13.001 L13.001,13.001 L13.001,15.001 Z M16.001,9.001 L14.001,9.001 L14.001,11.001 L12.001,11.001 L12.001,9.001 L8.001,9.001 L8.001,11.001 L6.001,11.001 L6.001,9.001 L4.001,9.001 L4.001,20.001 L16.001,20.001 L16.001,9.001 Z" id="Fill-724"></path>
            </g>
        </g>
    </g>
</svg>