<?xml version="1.0" encoding="UTF-8"?>
<svg width="20px" height="16px" viewBox="0 0 20 16" version="1.1" xmlns="http://www.w3.org/2000/svg" xmlns:xlink="http://www.w3.org/1999/xlink">
    <!-- Generator: Sketch 42 (36781) - http://www.bohemiancoding.com/sketch -->
    <title>Group</title>
    <desc>Created with Sketch.</desc>
    <defs></defs>
    <g id="Page-1" stroke="none" stroke-width="1" fill="none" fill-rule="evenodd">
        <g id="Solid-Icons" transform="translate(-434.000000, -1445.000000)" fill="#767676">
            <g id="Group" transform="translate(433.000000, 1445.000000)">
                <path d="M18.9971,7.9346 C18.9971,7.9566 18.9991,7.9776 18.9991,8.0006 L18.9991,11.0006 C18.9991,11.0006 14.9991,13.0006 10.9991,13.0006 C6.9991,13.0006 2.9991,11.0006 2.9991,11.0006 L2.9991,8.0006 C2.9991,7.9776 3.0011,7.9566 3.0011,7.9346 C1.7401,8.7706 0.9991,9.8246 0.9991,11.0006 C0.9991,13.8516 5.2981,16.0006 10.9991,16.0006 C16.7001,16.0006 20.9991,13.8516 20.9991,11.0006 C20.9991,9.8246 20.2581,8.7706 18.9971,7.9346" id="Fill-914"></path>
                <path d="M11.999,7.417 L16.067,1.993 C15.067,0.904 13.696,0.244 11.999,0.059 L11.999,7.417 Z" id="Fill-915"></path>
                <path d="M9.999,0.0591 C8.302,0.2441 6.931,0.9041 5.931,1.9931 L9.999,7.4171 L9.999,0.0591 Z" id="Fill-916"></path>
                <path d="M4.6826,9.9497 C4.8116,9.9917 7.8726,11.0007 10.9986,11.0007 C14.1256,11.0007 17.1866,9.9917 17.3156,9.9497 C17.7236,9.8127 17.9986,9.4307 17.9986,9.0007 L17.9986,8.0007 C17.9986,6.1157 17.6466,4.5297 16.9776,3.2787 C12.4676,9.2927 13.3216,8.1547 11.5996,10.4507 C11.4576,10.6387 11.2346,10.7507 10.9986,10.7507 C10.7636,10.7507 10.5406,10.6387 10.3986,10.4507 C8.6696,8.1447 9.5386,9.3037 5.0196,3.2787 C4.3516,4.5297 3.9986,6.1157 3.9986,8.0007 L3.9986,9.0007 C3.9986,9.4307 4.2746,9.8127 4.6826,9.9497" id="Fill-917"></path>
            </g>
        </g>
    </g>
</svg>