<?xml version="1.0" encoding="UTF-8"?>
<svg width="20px" height="15px" viewBox="0 0 20 15" version="1.1" xmlns="http://www.w3.org/2000/svg" xmlns:xlink="http://www.w3.org/1999/xlink">
    <!-- Generator: Sketch 42 (36781) - http://www.bohemiancoding.com/sketch -->
    <title>Group</title>
    <desc>Created with Sketch.</desc>
    <defs></defs>
    <g id="Page-1" stroke="none" stroke-width="1" fill="none" fill-rule="evenodd">
        <g id="Solid-Icons" transform="translate(-50.000000, -1493.000000)" fill="#767676">
            <g id="Group" transform="translate(49.000000, 1493.000000)">
                <path d="M9.457,3.0005 C8.985,3.5955 7.999,5.0675 7.999,7.0005 C7.999,8.3635 9.127,12.7235 9.757,15.0005 L12.241,15.0005 C12.871,12.7235 13.999,8.3625 13.999,7.0005 C13.999,5.0485 13.018,3.5915 12.544,3.0005 L9.457,3.0005 Z" id="Fill-816"></path>
                <path d="M7.0684,3.0005 L1.9994,3.0005 C1.4464,3.0005 0.9994,3.4485 0.9994,4.0005 L0.9994,10.0005 C0.9994,10.5525 1.4464,11.0005 1.9994,11.0005 C4.6274,11.0005 6.2974,12.2425 7.2154,13.2365 C6.6464,11.0255 5.9994,8.2385 5.9994,7.0005 C5.9994,5.3555 6.5224,3.9885 7.0684,3.0005" id="Fill-817"></path>
                <path d="M19.999,3.0005 L14.93,3.0005 C15.476,3.9885 15.999,5.3555 15.999,7.0005 C15.999,8.2405 15.349,11.0345 14.78,13.2475 C15.699,12.2525 17.373,11.0005 19.999,11.0005 C20.551,11.0005 20.999,10.5525 20.999,10.0005 L20.999,4.0005 C20.999,3.4485 20.551,3.0005 19.999,3.0005" id="Fill-818"></path>
                <polygon id="Fill-819" points="0.999 2.001 20.999 2.001 20.999 0.001 0.999 0.001"></polygon>
            </g>
        </g>
    </g>
</svg>