<?xml version="1.0" encoding="UTF-8"?>
<svg width="22px" height="23px" viewBox="0 0 22 23" version="1.1" xmlns="http://www.w3.org/2000/svg" xmlns:xlink="http://www.w3.org/1999/xlink">
    <!-- Generator: Sketch 42 (36781) - http://www.bohemiancoding.com/sketch -->
    <title>Group</title>
    <desc>Created with Sketch.</desc>
    <defs></defs>
    <g id="Page-1" stroke="none" stroke-width="1" fill="none" fill-rule="evenodd">
        <g id="Solid-Icons" transform="translate(-97.000000, -1537.000000)" fill="#767676">
            <g id="Group" transform="translate(97.000000, 1537.000000)">
                <path d="M12.5,0.0005 C11.672,0.0005 11,0.6725 11,1.5005 C11,0.6725 10.328,0.0005 9.5,0.0005 C8.672,0.0005 8,0.6725 8,1.5005 C8,3.0005 11,6.0005 11,6.0005 C11,6.0005 14,3.0005 14,1.5005 C14,0.6725 13.328,0.0005 12.5,0.0005" id="Fill-848"></path>
                <path d="M18,9.0005 C19.381,9.0005 20.5,7.8815 20.5,6.5005 C20.5,5.1215 19.381,4.0005 18,4.0005 C16.62,4.0005 15.5,5.1215 15.5,6.5005 C15.5,7.8815 16.62,9.0005 18,9.0005" id="Fill-849"></path>
                <path d="M18,10.0005 C15.607,10.0005 14,12.0095 14,15.0005 L14,17.0005 C14,17.5525 14.448,18.0005 15,18.0005 L16,18.0005 L16,22.0005 C16,22.5525 16.448,23.0005 17,23.0005 L19,23.0005 C19.552,23.0005 20,22.5525 20,22.0005 L20,18.0005 L21,18.0005 C21.552,18.0005 22,17.5525 22,17.0005 L22,15.0005 C22,12.0095 20.393,10.0005 18,10.0005" id="Fill-850"></path>
                <path d="M4,9.0005 C5.381,9.0005 6.5,7.8815 6.5,6.5005 C6.5,5.1215 5.381,4.0005 4,4.0005 C2.62,4.0005 1.5,5.1215 1.5,6.5005 C1.5,7.8815 2.62,9.0005 4,9.0005" id="Fill-851"></path>
                <path d="M7.1748,15.5337 C5.9488,10.5237 5.8208,10.0007 3.9788,10.0007 C2.1788,10.0007 2.0508,10.5247 0.8238,15.5387 C0.6048,16.4337 0.3448,17.4957 0.0298,18.7577 C-0.0442,19.0537 0.0208,19.3657 0.2048,19.6077 C0.3898,19.8487 0.6738,19.9937 0.9788,20.0007 C0.9788,20.0007 1.7228,20.0157 2.3098,20.0187 C2.5018,20.5917 2.7888,21.4837 3.0468,22.3017 C3.1768,22.7177 3.5638,23.0007 3.9998,23.0007 C4.4368,23.0007 4.8228,22.7177 4.9538,22.3017 C5.2118,21.4837 5.4988,20.5917 5.6908,20.0187 C6.2768,20.0157 7.0218,20.0007 7.0218,20.0007 C7.3258,19.9937 7.6108,19.8487 7.7948,19.6077 C7.9798,19.3657 8.0438,19.0537 7.9698,18.7577 C7.6538,17.4937 7.3938,16.4287 7.1748,15.5337" id="Fill-852"></path>
            </g>
        </g>
    </g>
</svg>