<?xml version="1.0" encoding="UTF-8"?>
<svg width="20px" height="18px" viewBox="0 0 20 18" version="1.1" xmlns="http://www.w3.org/2000/svg" xmlns:xlink="http://www.w3.org/1999/xlink">
    <!-- Generator: Sketch 42 (36781) - http://www.bohemiancoding.com/sketch -->
    <title>Group</title>
    <desc>Created with Sketch.</desc>
    <defs></defs>
    <g id="Page-1" stroke="none" stroke-width="1" fill="none" fill-rule="evenodd">
        <g id="Solid-Icons" transform="translate(-146.000000, -915.000000)" fill="#767676">
            <g id="Group" transform="translate(146.000000, 915.000000)">
                <path d="M10.5,12.0005 L9,12.0005 L9,13.0005 L10.5,13.0005 C10.776,13.0005 11,12.7775 11,12.5005 C11,12.2245 10.776,12.0005 10.5,12.0005" id="Fill-493"></path>
                <path d="M9,10.0005 L10.5,10.0005 C10.776,10.0005 11,9.7775 11,9.5005 C11,9.2245 10.776,9.0005 10.5,9.0005 L9,9.0005 L9,10.0005 Z" id="Fill-494"></path>
                <path d="M3,1.0029 C3.552,1.0029 4,1.4519 4,2.0029 C4,2.5549 3.552,3.0029 3,3.0029 C2.448,3.0029 2,2.5549 2,2.0029 C2,1.4519 2.448,1.0029 3,1.0029 L3,1.0029 Z M6,1.0029 C6.552,1.0029 7,1.4519 7,2.0029 C7,2.5549 6.552,3.0029 6,3.0029 C5.448,3.0029 5,2.5549 5,2.0029 C5,1.4519 5.448,1.0029 6,1.0029 L6,1.0029 Z M20,4.0029 L20,2.0029 C20,0.9009 19.103,0.0029 18,0.0029 L2,0.0029 C0.897,0.0029 0,0.9009 0,2.0029 L0,4.0029 L20,4.0029 Z" id="Fill-495"></path>
                <path d="M13,12.5005 C13,13.7065 12.14,14.7175 11,14.9495 L11,16.0005 L9,16.0005 L9,15.0005 L7,15.0005 L7,7.0005 L9,7.0005 L9,6.0005 L11,6.0005 L11,7.0515 C12.14,7.2835 13,8.2935 13,9.5005 C13,10.0655 12.805,10.5815 12.487,11.0005 C12.805,11.4195 13,11.9365 13,12.5005 L13,12.5005 Z M0,5.0025 L0,16.0025 C0,17.1065 0.897,18.0025 2,18.0025 L18,18.0025 C19.103,18.0025 20,17.1065 20,16.0025 L20,5.0025 L0,5.0025 Z" id="Fill-496"></path>
            </g>
        </g>
    </g>
</svg>