<?xml version="1.0" encoding="UTF-8"?>
<svg width="24px" height="24px" viewBox="0 0 24 24" version="1.1" xmlns="http://www.w3.org/2000/svg" xmlns:xlink="http://www.w3.org/1999/xlink">
    <!-- Generator: Sketch 42 (36781) - http://www.bohemiancoding.com/sketch -->
    <title>Group</title>
    <desc>Created with Sketch.</desc>
    <defs></defs>
    <g id="Page-1" stroke="none" stroke-width="1" fill="none" fill-rule="evenodd">
        <g id="Solid-Icons" transform="translate(-48.000000, -480.000000)" fill="#757575">
            <g id="Group" transform="translate(48.000000, 480.000000)">
                <path d="M9,15.0005 C10.572,15.0005 11.889,14.8775 13,14.6845 L13,11.6995 C11.811,11.8905 10.482,12.0005 9,12.0005 C4.825,12.0005 1.809,11.1575 0,9.9695 L0,12.0005 C0,12.7695 2.216,15.0005 9,15.0005" id="Fill-229"></path>
                <path d="M9,10.0005 C15.784,10.0005 18,7.7695 18,7.0005 L18,4.9695 C16.191,6.1575 13.175,7.0005 9,7.0005 C4.825,7.0005 1.809,6.1575 0,4.9695 L0,7.0005 C0,7.7695 2.216,10.0005 9,10.0005" id="Fill-230"></path>
                <path d="M11,16.9253 C10.363,16.9703 9.703,17.0003 9,17.0003 C4.825,17.0003 1.809,16.1573 0,14.9693 L0,16.0003 C0,18.6263 4.527,20.0003 9,20.0003 C9.671,20.0003 10.342,19.9663 11,19.9043 L11,16.9253 Z" id="Fill-231"></path>
                <path d="M9,5.0005 C14.195,5.0005 16.705,3.6945 17.599,2.7355 C16.404,0.9365 12.687,0.0005 9,0.0005 C5.313,0.0005 1.596,0.9365 0.401,2.7355 C1.295,3.6945 3.805,5.0005 9,5.0005" id="Fill-232"></path>
                <path d="M21,16.0005 L15,16.0005 L12,16.0005 L12,18.0005 L14,18.0005 L14,19.0005 L12,19.0005 L12,21.0005 L14,21.0005 C14,21.3345 14.167,21.6465 14.445,21.8325 L17.445,23.8325 C17.613,23.9445 17.807,24.0005 18,24.0005 C18.193,24.0005 18.387,23.9445 18.555,23.8325 L21.555,21.8325 C21.833,21.6465 22,21.3345 22,21.0005 L24,21.0005 L24,19.0005 L22,19.0005 L22,18.0005 L24,18.0005 L24,16.0005 L21,16.0005 Z" id="Fill-233"></path>
                <path d="M14,15.0005 C14,12.7915 15.791,11.0005 18,11.0005 C20.209,11.0005 22,12.7915 22,15.0005 L14,15.0005 Z" id="Fill-234"></path>
            </g>
        </g>
    </g>
</svg>