<?xml version="1.0" encoding="UTF-8"?>
<svg width="20px" height="17px" viewBox="0 0 20 17" version="1.1" xmlns="http://www.w3.org/2000/svg" xmlns:xlink="http://www.w3.org/1999/xlink">
    <!-- Generator: Sketch 42 (36781) - http://www.bohemiancoding.com/sketch -->
    <title>Group</title>
    <desc>Created with Sketch.</desc>
    <defs></defs>
    <g id="Page-1" stroke="none" stroke-width="1" fill="none" fill-rule="evenodd">
        <g id="Solid-Icons" transform="translate(-50.000000, -1252.000000)" fill="#767676">
            <g id="Group" transform="translate(50.000000, 1252.000000)">
                <path d="M3.0015,6.0064 L10.0015,6.0064 C10.5535,6.0064 11.0015,5.5594 11.0015,5.0064 C11.0015,4.4534 10.5535,4.0064 10.0015,4.0064 L3.0015,4.0064 C2.4495,4.0064 2.0015,4.4534 2.0015,5.0064 C2.0015,5.5594 2.4495,6.0064 3.0015,6.0064" id="Fill-683"></path>
                <path d="M15.0015,15.0064 L14.1855,15.0064 C14.5985,16.1694 15.6975,17.0064 17.0015,17.0064 C18.6585,17.0064 20.0015,15.6624 20.0015,14.0064 C20.0015,13.0874 19.5795,12.2764 18.9285,11.7254 C18.5885,13.5874 16.9605,15.0064 15.0015,15.0064" id="Fill-684"></path>
                <path d="M5.0015,17.0064 C6.3055,17.0064 7.4045,16.1694 7.8175,15.0064 L2.1855,15.0064 C2.5985,16.1694 3.6975,17.0064 5.0015,17.0064" id="Fill-685"></path>
                <path d="M18.0015,6.6734 L18.0015,3.0064 C18.0015,1.3524 16.6555,0.0064 15.0015,0.0064 L13.0015,0.0064 L13.0015,2.0064 L15.0015,2.0064 C15.5525,2.0064 16.0015,2.4554 16.0015,3.0064 L16.0015,11.0064 C16.0015,11.5584 15.5525,12.0064 15.0015,12.0064 L10.0015,12.0064 L10.0015,7.0064 L5.0015,7.0064 C2.2405,7.0064 0.0015,9.2444 0.0015,12.0064 L0.0015,14.0064 L15.0015,14.0064 C16.6555,14.0064 18.0015,12.6604 18.0015,11.0064 L18.0015,9.3394 L20.0015,10.0064 L20.0015,6.0064 L18.0015,6.6734 Z" id="Fill-686"></path>
            </g>
        </g>
    </g>
</svg>