<?xml version="1.0" encoding="UTF-8"?>
<svg width="17px" height="24px" viewBox="0 0 17 24" version="1.1" xmlns="http://www.w3.org/2000/svg" xmlns:xlink="http://www.w3.org/1999/xlink">
    <!-- Generator: Sketch 42 (36781) - http://www.bohemiancoding.com/sketch -->
    <title>Group</title>
    <desc>Created with Sketch.</desc>
    <defs></defs>
    <g id="Page-1" stroke="none" stroke-width="1" fill="none" fill-rule="evenodd">
        <g id="Solid-Icons" transform="translate(-244.000000, -1536.000000)" fill="#767676">
            <g id="Group" transform="translate(243.000000, 1536.000000)">
                <path d="M11.564,16.9624 L15.57,18.7144 C15.974,17.4294 16.274,16.0984 16.505,14.7664 L11.564,16.9624 Z" id="Fill-862"></path>
                <path d="M8.9844,11.0005 C9.8134,11.0005 10.4844,10.3295 10.4844,9.5005 C10.4844,8.6725 9.8134,8.0005 8.9844,8.0005 C8.1564,8.0005 7.4844,8.6725 7.4844,9.5005 C7.4844,10.3295 8.1564,11.0005 8.9844,11.0005" id="Fill-863"></path>
                <path d="M1.5229,14.7515 C2.9519,23.0515 5.4409,24.0005 9.0149,24.0005 C11.9619,24.0005 13.6539,23.1025 14.8549,20.5845 L1.5229,14.7515 Z" id="Fill-864"></path>
                <path d="M9.0151,3.0005 C11.7761,3.0005 14.0151,5.2385 14.0151,8.0005 C14.0151,10.7615 11.7761,13.0005 9.0151,13.0005 C6.2541,13.0005 4.0151,10.7615 4.0151,8.0005 C4.0151,5.2385 6.2541,3.0005 9.0151,3.0005 L9.0151,3.0005 Z M9.0821,15.8765 L16.8301,12.4335 C17.1061,9.8485 17.0201,8.0785 17.0151,8.0005 C17.0151,3.3645 13.6501,0.0005 9.0151,0.0005 C4.3791,0.0005 1.0151,3.3645 1.0161,7.9465 C1.0101,8.0595 0.9241,9.8395 1.2001,12.4275 L9.0821,15.8765 Z" id="Fill-865"></path>
            </g>
        </g>
    </g>
</svg>