<?xml version="1.0" encoding="UTF-8"?>
<svg width="18px" height="22px" viewBox="0 0 18 22" version="1.1" xmlns="http://www.w3.org/2000/svg" xmlns:xlink="http://www.w3.org/1999/xlink">
    <!-- Generator: Sketch 42 (36781) - http://www.bohemiancoding.com/sketch -->
    <title>Group</title>
    <desc>Created with Sketch.</desc>
    <defs></defs>
    <g id="Page-1" stroke="none" stroke-width="1" fill="none" fill-rule="evenodd">
        <g id="Solid-Icons" transform="translate(-195.000000, -1105.000000)" fill="#B4B4B4">
            <g id="Group" transform="translate(195.000000, 1105.000000)">
                <path d="M15.0005,0.0022 L6.0005,0.0022 C4.8975,0.0022 4.0005,0.8992 4.0005,2.0022 L4.0005,4.0022 L6.0005,4.0022 L6.0005,2.0022 L15.0005,2.0022 C15.5515,2.0022 16.0005,2.4512 16.0005,3.0022 L16.0005,17.0022 L15.0005,17.0022 L15.0005,16.0022 L13.0005,16.0022 L13.0005,20.0022 L15.0005,20.0022 L15.0005,19.0022 L16.0005,19.0022 L16.0005,22.0022 L18.0005,22.0022 L18.0005,3.0022 C18.0005,1.3482 16.6545,0.0022 15.0005,0.0022" id="Fill-583"></path>
                <path d="M5.0005,8.0022 C5.5535,8.0022 6.0005,7.5552 6.0005,7.0022 C6.0005,6.4492 5.5535,6.0022 5.0005,6.0022 C4.4475,6.0022 4.0005,6.4492 4.0005,7.0022 C4.0005,7.5552 4.4475,8.0022 5.0005,8.0022" id="Fill-584"></path>
                <path d="M3.0005,8.5022 C2.4475,8.5022 2.0005,8.9492 2.0005,9.5022 C2.0005,10.0552 2.4475,10.5022 3.0005,10.5022 C3.5535,10.5022 4.0005,10.0552 4.0005,9.5022 C4.0005,8.9492 3.5535,8.5022 3.0005,8.5022" id="Fill-585"></path>
                <path d="M7.0005,8.5022 C6.4475,8.5022 6.0005,8.9492 6.0005,9.5022 C6.0005,10.0552 6.4475,10.5022 7.0005,10.5022 C7.5535,10.5022 8.0005,10.0552 8.0005,9.5022 C8.0005,8.9492 7.5535,8.5022 7.0005,8.5022" id="Fill-586"></path>
                <path d="M5.0005,11.0022 C4.4475,11.0022 4.0005,11.4492 4.0005,12.0022 C4.0005,12.5552 4.4475,13.0022 5.0005,13.0022 C5.5535,13.0022 6.0005,12.5552 6.0005,12.0022 C6.0005,11.4492 5.5535,11.0022 5.0005,11.0022" id="Fill-587"></path>
                <path d="M1.0005,11.0022 C0.4475,11.0022 0.0005,11.4492 0.0005,12.0022 C0.0005,12.5552 0.4475,13.0022 1.0005,13.0022 C1.5535,13.0022 2.0005,12.5552 2.0005,12.0022 C2.0005,11.4492 1.5535,11.0022 1.0005,11.0022" id="Fill-588"></path>
                <path d="M9.0005,11.0022 C8.4475,11.0022 8.0005,11.4492 8.0005,12.0022 C8.0005,12.5552 8.4475,13.0022 9.0005,13.0022 C9.5535,13.0022 10.0005,12.5552 10.0005,12.0022 C10.0005,11.4492 9.5535,11.0022 9.0005,11.0022" id="Fill-589"></path>
            </g>
        </g>
    </g>
</svg>