<?xml version="1.0" encoding="UTF-8"?>
<svg width="18px" height="24px" viewBox="0 0 18 24" version="1.1" xmlns="http://www.w3.org/2000/svg" xmlns:xlink="http://www.w3.org/1999/xlink">
    <!-- Generator: Sketch 42 (36781) - http://www.bohemiancoding.com/sketch -->
    <title>Group</title>
    <desc>Created with Sketch.</desc>
    <defs></defs>
    <g id="Page-1" stroke="none" stroke-width="1" fill="none" fill-rule="evenodd">
        <g id="Solid-Icons" transform="translate(-435.000000, -1392.000000)" fill="#767676">
            <g id="Group" transform="translate(434.000000, 1391.000000)">
                <path d="M3.999,24.9995 L15.999,24.9995 C17.102,24.9995 17.999,24.1025 17.999,22.9995 L1.999,22.9995 C1.999,24.1025 2.896,24.9995 3.999,24.9995" id="Fill-786"></path>
                <path d="M7.249,4.4995 C7.663,4.4995 7.999,4.8355 7.999,5.2495 C7.999,5.6635 7.663,5.9995 7.249,5.9995 C6.835,5.9995 6.499,5.6635 6.499,5.2495 C6.499,4.8355 6.835,4.4995 7.249,4.4995 L7.249,4.4995 Z M9.999,2.9995 C10.413,2.9995 10.749,3.3355 10.749,3.7495 C10.749,4.1635 10.413,4.4995 9.999,4.4995 C9.585,4.4995 9.249,4.1635 9.249,3.7495 C9.249,3.3355 9.585,2.9995 9.999,2.9995 L9.999,2.9995 Z M12.749,4.4995 C13.163,4.4995 13.499,4.8355 13.499,5.2495 C13.499,5.6635 13.163,5.9995 12.749,5.9995 C12.335,5.9995 11.999,5.6635 11.999,5.2495 C11.999,4.8355 12.335,4.4995 12.749,4.4995 L12.749,4.4995 Z M15.999,7.9995 C16.774,7.9995 17.417,8.0665 17.958,8.1905 C17.551,4.1575 14.137,0.9995 9.999,0.9995 C5.861,0.9995 2.447,4.1575 2.04,8.1905 C2.582,8.0665 3.224,7.9995 3.999,7.9995 L15.999,7.9995 Z" id="Fill-787"></path>
                <path d="M18.1846,13.396 C17.5206,13.781 16.7516,14 15.9986,14 C15.2446,14 14.5316,13.761 13.9406,13.326 C13.1956,13.767 12.2446,14 11.4986,14 C10.9756,14 10.4676,13.881 9.9986,13.655 C9.5316,13.881 9.0226,14 8.4986,14 C7.7536,14 6.8036,13.767 6.0576,13.326 C5.4676,13.761 4.7536,14 3.9986,14 C3.2466,14 2.4776,13.781 1.8136,13.396 C1.3216,13.761 0.9986,14.341 0.9986,15 C0.9986,16.104 1.8946,17 2.9986,17 L16.9986,17 C18.1036,17 18.9986,16.104 18.9986,15 C18.9986,14.341 18.6766,13.761 18.1846,13.396" id="Fill-788"></path>
                <path d="M3.999,12.9995 C4.821,12.9995 5.544,12.5975 5.999,11.9855 C6.455,12.5975 7.678,12.9995 8.499,12.9995 C9.065,12.9995 9.58,12.8045 9.999,12.4875 C10.418,12.8045 10.934,12.9995 11.499,12.9995 C12.321,12.9995 13.544,12.5975 13.999,11.9855 C14.455,12.5975 15.178,12.9995 15.999,12.9995 C17.38,12.9995 18.999,11.9995 18.999,10.4995 C18.999,9.9995 17.999,8.9995 16.999,8.9995 L2.999,8.9995 C1.999,8.9995 0.999,9.9995 0.999,10.4995 C0.999,11.9995 2.618,12.9995 3.999,12.9995" id="Fill-789"></path>
                <path d="M16.999,17.9995 L16.99,17.9995 C16.989,18.2595 16.897,18.5165 16.706,18.7065 L14.706,20.7065 C14.511,20.9015 14.255,20.9995 13.999,20.9995 C13.743,20.9995 13.487,20.9015 13.292,20.7065 L11.292,18.7065 C11.101,18.5165 11.009,18.2595 11.008,17.9995 L2.999,17.9995 C1.895,17.9995 0.999,18.8945 0.999,19.9995 C0.999,21.1035 1.895,21.9995 2.999,21.9995 L16.999,21.9995 C18.103,21.9995 18.999,21.1035 18.999,19.9995 C18.999,18.8945 18.103,17.9995 16.999,17.9995" id="Fill-790"></path>
            </g>
        </g>
    </g>
</svg>