<?xml version="1.0" encoding="UTF-8"?>
<svg width="18px" height="20px" viewBox="0 0 18 20" version="1.1" xmlns="http://www.w3.org/2000/svg" xmlns:xlink="http://www.w3.org/1999/xlink">
    <!-- Generator: Sketch 42 (36781) - http://www.bohemiancoding.com/sketch -->
    <title>Group</title>
    <desc>Created with Sketch.</desc>
    <defs></defs>
    <g id="Page-1" stroke="none" stroke-width="1" fill="none" fill-rule="evenodd">
        <g id="Solid-Icons" transform="translate(-435.000000, -1298.000000)" fill="#767676">
            <g id="Group" transform="translate(435.000000, 1298.000000)">
                <path d="M1.001,9.001 L17.001,9.001 C17.001,7.344 15.657,6.001 14.001,6.001 C13.686,6.001 13.389,6.063 13.103,6.153 C12.2,4.855 10.702,4.001 9.001,4.001 C7.3,4.001 5.802,4.855 4.898,6.153 C4.613,6.063 4.315,6.001 4.001,6.001 C2.345,6.001 1.001,7.344 1.001,9.001" id="Fill-730"></path>
                <polygon id="Fill-731" points="10.001 0.001 8.001 0.001 8.001 3.001 10.001 3.001"></polygon>
                <polygon id="Fill-732" points="3.708 3.2944 1.708 1.2944 0.294 2.7074 2.294 4.7074"></polygon>
                <polygon id="Fill-733" points="17.708 2.7075 16.294 1.2945 14.294 3.2945 15.708 4.7075"></polygon>
                <path d="M15.001,17.001 L3.001,17.001 L3.001,13.001 L6.001,13.001 L6.001,15.001 L12.001,15.001 L12.001,13.001 L15.001,13.001 L15.001,17.001 Z M9,11.498 C9.553,11.498 10.001,11.947 10.001,12.5 C10.001,13.053 9.553,13.501 9,13.501 C8.447,13.501 7.999,13.053 7.999,12.5 C7.999,11.947 8.447,11.498 9,11.498 L9,11.498 Z M17.001,10.001 L1.001,10.001 C0.449,10.001 0.001,10.45 0.001,11.001 L0.001,19.001 C0.001,19.553 0.449,20.001 1.001,20.001 L17.001,20.001 C17.553,20.001 18.001,19.553 18.001,19.001 L18.001,11.001 C18.001,10.45 17.553,10.001 17.001,10.001 L17.001,10.001 Z" id="Fill-734"></path>
            </g>
        </g>
    </g>
</svg>