<?xml version="1.0" encoding="UTF-8"?>
<svg width="20px" height="19px" viewBox="0 0 20 19" version="1.1" xmlns="http://www.w3.org/2000/svg" xmlns:xlink="http://www.w3.org/1999/xlink">
    <!-- Generator: Sketch 42 (36781) - http://www.bohemiancoding.com/sketch -->
    <title>Group</title>
    <desc>Created with Sketch.</desc>
    <defs></defs>
    <g id="Page-1" stroke="none" stroke-width="1" fill="none" fill-rule="evenodd">
        <g id="Solid-Icons" transform="translate(-242.000000, -1491.000000)" fill="#767676">
            <g id="Group" transform="translate(242.000000, 1491.000000)">
                <polygon id="Fill-830" points="12.999 6.2681 9.999 1.0161 6.999 6.2661 6.999 8.0001 12.999 8.0001"></polygon>
                <path d="M1.999,8.0005 L4.999,8.0005 L4.999,6.0005 C4.999,5.8265 5.044,5.6555 5.131,5.5045 L8.233,0.0745 L1.399,5.2005 C1.147,5.3895 0.999,5.6865 0.999,6.0005 L0.999,7.0005 C0.999,7.5525 1.447,8.0005 1.999,8.0005" id="Fill-831"></path>
                <path d="M14.999,6.0025 L14.999,8.0005 L17.999,8.0005 C18.551,8.0005 18.999,7.5525 18.999,7.0005 L18.999,6.0005 C18.999,5.6865 18.851,5.3895 18.599,5.2005 L11.764,0.0745 L14.867,5.5065 C14.954,5.6575 14.999,5.8285 14.999,6.0025" id="Fill-832"></path>
                <polygon id="Fill-833" points="8.999 19.001 10.999 19.001 10.999 9.001 8.999 9.001"></polygon>
                <path d="M18.0288,11.7578 L17.2178,15.0008 L13.9988,15.0008 C13.4468,15.0008 12.9988,15.4488 12.9988,16.0008 L12.9988,19.0008 L14.9988,19.0008 L14.9988,17.0008 L16.9988,17.0008 L16.9988,19.0008 L18.9988,19.0008 L18.9988,16.1238 L19.9688,12.2438 L18.0288,11.7578 Z" id="Fill-834"></path>
                <path d="M5.999,15.0005 L2.78,15.0005 L1.969,11.7575 L0.029,12.2435 L0.999,16.1235 L0.999,19.0005 L2.999,19.0005 L2.999,17.0005 L4.999,17.0005 L4.999,19.0005 L6.999,19.0005 L6.999,16.0005 C6.999,15.4485 6.551,15.0005 5.999,15.0005" id="Fill-835"></path>
            </g>
        </g>
    </g>
</svg>