<svg xmlns="http://www.w3.org/2000/svg" width="24" height="24" viewBox="0 0 24 24"><g stroke="#000" stroke-linecap="round" stroke-linejoin="round" stroke-miterlimit="10" fill="none"><path d="M5.5 23.5h-2c-.553 0-1-.447-1-1v-4.5c0-.828.672-1.5 1.5-1.5h1.5v7zM18.5 23.5h2c.553 0 1-.447 1-1v-4.5c0-.828-.67-1.5-1.5-1.5h-1.5v7zM16.5 23.5h-9v-5.5c0-.828.672-1.5 1.5-1.5h6c.828 0 1.5.672 1.5 1.5v5.5zM18.5 10.5v13h-13v-13M9.5 10.5h5"/><path d="M7.5 7.5h2v5h-2zM14.5 7.5h2v5h-2zM7.5 19.5h9M2.5 19.5h3M18.5 19.5h3M7.5 10.5h-2c-.551 0-1-.448-1-1v-6c0-1.657 1.344-3 3-3h9c1.658 0 3 1.343 3 3v6c0 .552-.447 1-1 1h-2"/></g></svg>