<svg xmlns="http://www.w3.org/2000/svg" width="24" height="24" viewBox="0 0 24 24"><g stroke="#000" stroke-linecap="round" stroke-linejoin="round" stroke-miterlimit="10" fill="none"><path d="M20.5 3c-.553 0-1 .448-1 1 0 1.104-.895 2-2 2-1.104 0-2-.896-2-2 0-1.38-1.119-2.5-2.5-2.5s-2.5 1.12-2.5 2.5v2.5M6.488 18.145c-1.736-2.492-1.125-5.919 1.367-7.656"/><path d="M13.5 7.936v-1.436h-5v1.436c-2.911 1.031-5 3.801-5 7.064 0 4.142 3.357 7.5 7.5 7.5 4.142 0 7.5-3.358 7.5-7.5 0-3.264-2.089-6.033-5-7.064z"/></g></svg>