<svg xmlns="http://www.w3.org/2000/svg" width="24" height="24" viewBox="0 0 24 24"><g stroke="#000" stroke-linejoin="round" stroke-miterlimit="10" fill="none"><path d="M19 19.5h3c.828 0 1.5-.672 1.5-1.5v-3.5l-2-2v-9c0-1.656-1.344-3-3-3h-13c-1.656 0-3 1.344-3 3v9l-2 2v3.5c0 .828.672 1.5 1.5 1.5h3"/><path d="M21.5 23.5h-19c3-3 3-7 3-7h13s0 4.5 3 7z"/><circle cx="12" cy="6" r="3"/><circle cx="5.75" cy="9.281" r=".25"/><path d="M16.5 2.531h3v1.969h-3zM10.5 3.354v-2.854M13.5 3.395v-2.895M10.5 12.5v-3.875M13.5 12.5v-3.791M2.5 12.5h19M.5 14.5h23M2 16.5h20M4 21.5h16"/></g></svg>