<svg xmlns="http://www.w3.org/2000/svg" width="24" height="24" viewBox="0 0 24 24"><g><path stroke="#000" stroke-linecap="round" stroke-linejoin="round" stroke-miterlimit="10" d="M23.5 16.5c0 .551-.443 1.078-.984 1.172l-9.53 1.658c-.542.095-1.429.095-1.97 0l-9.53-1.658c-.543-.094-.986-.621-.986-1.172v-11.998c0-.55.45-1 1-1h21c.551 0 1 .45 1 1v11.998z" fill="none"/><path stroke="#000" stroke-linejoin="round" stroke-miterlimit="10" fill="none" d="M2.5 5.502h19v10h-19z"/><path d="M12 17c-.276 0-.5.225-.5.5 0 .277.224.5.5.5s.5-.223.5-.5c0-.275-.224-.5-.5-.5z"/><path stroke="#000" stroke-linecap="round" stroke-linejoin="round" stroke-miterlimit="10" fill="none" d="M10 19.143v2.937M14 19.143v2.953M19.409 23.5c-1.741-.912-4.41-1.5-7.409-1.5-2.998 0-5.668.588-7.409 1.5"/></g></svg>