<svg xmlns="http://www.w3.org/2000/svg" width="24" height="24" viewBox="0 0 24 24"><g stroke="#000" stroke-linejoin="round" stroke-miterlimit="10" fill="none"><path d="M8.516 18.5v-2h1v-2h-5v2h1v2c-3.055.4-4.766 1.896-5 5h13.074c-.235-3.104-2.02-4.6-5.074-5z"/><path stroke-linecap="round" d="M22.904.802l-12.113 12.112M12.383 11.297c-1.18-1.18.049-4.776 2.979-7.704 1.506-1.509 3.154-2.597 4.154-3.093v3.699M16.213 7.5h4.803M14.213 9.5h5.303c-2.801 2.547-6.117 2.828-7.133 1.812M22.914.781c.912.913.703 2.719-.443 4.719h-4.268"/></g></svg>