<svg xmlns="http://www.w3.org/2000/svg" width="24" height="24" viewBox="0 0 24 24"><g><path stroke="#000" stroke-linecap="round" stroke-linejoin="round" stroke-miterlimit="10" d="M19.5 23.482l-2.5-3.5v-4.559c0-1.693-1.581-2.539-3.5-4.176M15 17.482l-2.75-2.75c-.414-.414-1.086-.414-1.5 0s-.414 1.086 0 1.5l2.25 3.25v1.539c0 .625.195 1.234.558 1.744l.526.734M10.5 21.482h-5.5c-.824 0-1.5-.674-1.5-1.5v-11c0-.824.676-1.5 1.5-1.5h7c.825 0 1.5.676 1.5 1.5v4.998" fill="none"/><path d="M6.5 9.982c-.276 0-.5.225-.5.5s.224.5.5.5.5-.225.5-.5-.224-.5-.5-.5zM8.5 9.982c-.276 0-.5.225-.5.5s.224.5.5.5.5-.225.5-.5-.224-.5-.5-.5zM10.5 9.982c-.276 0-.5.225-.5.5s.224.5.5.5.5-.225.5-.5-.224-.5-.5-.5zM6.5 11.982c-.276 0-.5.225-.5.5s.224.5.5.5.5-.225.5-.5-.224-.5-.5-.5zM6.5 13.982c-.276 0-.5.225-.5.5s.224.5.5.5.5-.225.5-.5-.224-.5-.5-.5zM6.5 15.982c-.276 0-.5.225-.5.5s.224.5.5.5.5-.225.5-.5-.224-.5-.5-.5zM6.5 17.982c-.276 0-.5.225-.5.5s.224.5.5.5.5-.225.5-.5-.224-.5-.5-.5zM8.5 11.982c-.276 0-.5.225-.5.5s.224.5.5.5.5-.225.5-.5-.224-.5-.5-.5zM8.5 13.982c-.276 0-.5.225-.5.5s.224.5.5.5.5-.225.5-.5-.224-.5-.5-.5zM8.5 15.982c-.276 0-.5.225-.5.5s.224.5.5.5.5-.225.5-.5-.224-.5-.5-.5zM8.5 17.982c-.276 0-.5.225-.5.5s.224.5.5.5.5-.225.5-.5-.224-.5-.5-.5zM10.5 11.982c-.276 0-.5.225-.5.5s.224.5.5.5.5-.225.5-.5-.224-.5-.5-.5z"/><path stroke="#000" stroke-linecap="round" stroke-linejoin="round" stroke-miterlimit="10" d="M13.276 1.91c-1.35-.9-2.97-1.43-4.714-1.43-1.745 0-3.365.529-4.715 1.43M12.167 3.574c-1.031-.689-2.271-1.094-3.605-1.094s-2.573.405-3.605 1.094M11.059 5.238c-.715-.476-1.574-.758-2.497-.758-.924 0-1.782.281-2.496.758" fill="none"/></g></svg>