<svg xmlns="http://www.w3.org/2000/svg" width="24" height="24" viewBox="0 0 24 24"><g stroke="#000" stroke-linejoin="round" stroke-miterlimit="10" fill="none"><path stroke-linecap="round" d="M19 13.5l.936-6.089c.267-1.729-.236-3.488-1.377-4.817-1.14-1.33-2.803-2.094-4.554-2.094h-4.013c-1.75 0-3.413.764-4.554 2.094-1.14 1.329-1.643 3.088-1.376 4.817l.938 6.089M6.5 22.5v1M17.5 22.5v1"/><path d="M21.5 12.5c-1.935 0-3.5 1.567-3.5 3.5v1.5s-1.5-1-6-1l-6 1v-1.5c0-1.933-1.568-3.5-3.5-3.5-1.105 0-2 .895-2 2 0 .832.507 1.547 1.23 1.848.465.192.77.648.77 1.152v2c0 1.657 1.342 3 3 3h13c1.655 0 3-1.343 3-3v-2c0-.504.302-.96.768-1.152.722-.301 1.232-1.016 1.232-1.848 0-1.105-.896-2-2-2z"/><path stroke-linecap="round" d="M15 10l-1.5-1 1.5-1M9 10l1.5-1-1.5-1"/><circle stroke-linecap="round" cx="12" cy="9" r="1.5"/></g></svg>