<svg version="1" xmlns="http://www.w3.org/2000/svg" width="24" height="24" viewBox="0 0 24 24"><path d="M17.502 2.5c-.471 0-.938.083-1.377.244-.744-1.555-2.691-2.744-4.627-2.744-1.948 0-3.906 1.189-4.652 2.744-.439-.161-.906-.244-1.375-.244-2.207 0-4.002 1.794-4.002 4 0 2.073 1.501 3.731 3.5 3.97v12.967c0 .276.224.5.5.5h12.029c.276 0 .5-.224.5-.5v-12.967c2-.239 3.502-1.896 3.502-3.97 0-2.206-1.794-4-3.998-4zm-11.533 20.438v-3h11.029v3h-11.029zm11.529-13.438c-.276 0-.5.224-.5.5v8.938h-2.01v-3.5c0-.276-.224-.5-.5-.5s-.5.224-.5.5v3.5h-2.019v-4.5c0-.276-.224-.5-.5-.5s-.5.224-.5.5v4.5h-1.99v-3.5c0-.276-.224-.5-.5-.5s-.5.224-.5.5v3.5h-2.01v-8.938c0-.276-.224-.5-.5-.5-1.683 0-3-1.318-3-3 0-1.654 1.347-3 3.002-3 .494 0 .983.123 1.415.356.133.073.294.081.433.02.14-.059.245-.179.286-.325.39-1.383 2.172-2.551 3.893-2.551 1.706 0 3.478 1.168 3.868 2.552.041.146.146.266.286.325.141.06.3.052.433-.02.437-.237.915-.357 1.417-.357 1.653 0 2.998 1.346 2.998 3 0 1.682-1.318 3-3.002 3z"/></svg>