<svg version="1" xmlns="http://www.w3.org/2000/svg" width="24" height="24" viewBox="0 0 24 24"><g><path d="M22 0h-18.5c-.276 0-.5.224-.5.5v10c0 .276.224.5.5.5h1.5v2.5h-.5c-.276 0-.5.224-.5.5v1h-3.5c-.276 0-.5.224-.5.5s.224.5.5.5h3.5v.5c0 .276.224.5.5.5h1.5v.5c0 .276.224.5.5.5s.5-.224.5-.5v-.5h1.5c.276 0 .5-.224.5-.5v-2.5c0-.276-.224-.5-.5-.5h-.5v-2.5h2v9h-9.5c-.276 0-.5.224-.5.5v3c0 .276.224.5.5.5h23c.276 0 .5-.224.5-.5v-21.5c0-1.103-.898-2-2-2zm-14 16h-3v-1.5h3v1.5zm-1-2.5h-1v-2.5h1v2.5zm-6 7.5h9.5c.276 0 .5-.224.5-.5v-10c0-.276-.224-.5-.5-.5h-6.5v-9h18c.552 0 1 .449 1 1v3h-5.5c-.276 0-.5.224-.5.5s.224.5.5.5h5.5v1h-5.5c-.276 0-.5.224-.5.5s.224.5.5.5h5.5v1h-5.5c-.276 0-.5.224-.5.5s.224.5.5.5h5.5v2h-4.5c-.276 0-.5.224-.5.5v10.5h-17v-2zm18 2v-10h4v10h-4zM7 2c-1.103 0-2 .897-2 2s.897 2 2 2c1.102 0 2-.897 2-2s-.898-2-2-2zm0 3c-.552 0-1-.449-1-1s.448-1 1-1 1 .449 1 1-.448 1-1 1z"/></g></svg>