<svg version="1" xmlns="http://www.w3.org/2000/svg" width="24" height="24" viewBox="0 0 24 24"><g><path d="M23.5 10h-2.855c-.199-.79-.454-1.667-.777-2.332l2.032-2.031c.094-.094.146-.221.146-.354 0-.133-.053-.26-.146-.353l-2.83-2.829c-.195-.195-.512-.195-.707 0l-2.033 2.032c-.665-.323-1.541-.577-2.33-.777v-2.856c0-.276-.224-.5-.5-.5h-3c-.276 0-.5.224-.5.5v2.856c-.79.2-1.667.454-2.331.777l-2.033-2.032c-.195-.195-.512-.195-.707 0l-2.829 2.829c-.094.093-.147.22-.147.353 0 .133.053.26.147.354l2.033 2.032c-.323.663-.578 1.54-.778 2.331h-2.855c-.276 0-.5.224-.5.5v3c0 .276.224.5.5.5h2.855c.201.791.456 1.669.778 2.331l-2.033 2.033c-.094.094-.147.221-.147.354 0 .133.053.26.147.354l2.829 2.828c.188.188.52.188.707 0l2.032-2.034c.663.324 1.541.58 2.332.78v2.854c0 .276.224.5.5.5h3c.276 0 .5-.224.5-.5v-2.854c.79-.2 1.668-.456 2.33-.778l2.034 2.032c.195.195.512.195.707 0l2.828-2.828c.195-.195.195-.512 0-.707l-2.032-2.033c.322-.662.578-1.54.778-2.331h2.855c.276 0 .5-.224.5-.5v-3c0-.277-.224-.501-.5-.501zm-.5 3h-2.746c-.231 0-.432.158-.486.383-.135.558-.495 2.041-.945 2.777-.12.197-.09.451.073.614l1.942 1.943-2.121 2.121-1.944-1.942c-.164-.164-.419-.192-.614-.073-.737.451-2.219.81-2.777.944-.224.055-.382.256-.382.487v2.746h-2v-2.746c0-.231-.158-.432-.382-.486-.558-.135-2.04-.493-2.778-.946-.198-.12-.452-.092-.615.073l-1.942 1.944-2.123-2.121 1.943-1.943c.164-.163.193-.417.073-.614-.45-.736-.81-2.22-.945-2.777-.053-.226-.254-.384-.485-.384h-2.746v-2h2.746c.231 0 .432-.158.486-.383.135-.557.494-2.039.945-2.777.12-.197.09-.451-.073-.614l-1.944-1.943 2.122-2.122 1.943 1.942c.163.163.417.191.614.073.742-.452 2.221-.809 2.778-.942.225-.054.383-.254.383-.486v-2.748h2v2.748c0 .232.158.432.383.486.873.21 2.111.537 2.777.942.196.118.45.09.614-.073l1.943-1.942 2.122 2.122-1.942 1.941c-.163.163-.193.417-.073.614.453.742.81 2.222.944 2.778.053.226.254.384.485.384h2.747v2zM12 7c-2.757 0-5 2.243-5 5s2.243 5 5 5 5-2.243 5-5-2.243-5-5-5zm0 9c-2.206 0-4-1.794-4-4s1.794-4 4-4 4 1.794 4 4-1.794 4-4 4z"/></g></svg>