<svg version="1" xmlns="http://www.w3.org/2000/svg" width="24" height="24" viewBox="0 0 24 24"><g><path d="M22 16h-20c-1.103 0-2 .897-2 2v5.5c0 .276.224.5.5.5h23c.276 0 .5-.224.5-.5v-5.5c0-1.103-.898-2-2-2zm1 7h-22v-5c0-.552.448-1 1-1h20c.552 0 1 .448 1 1v5zM3.326 15h17.348c1.282 0 2.326-1.121 2.326-2.5v-10c0-1.379-1.044-2.5-2.326-2.5h-17.348c-1.282 0-2.326 1.121-2.326 2.5v10c0 1.379 1.044 2.5 2.326 2.5zm-1.326-12.5c0-.827.595-1.5 1.326-1.5h17.348c.731 0 1.326.673 1.326 1.5v10c0 .827-.595 1.5-1.326 1.5h-17.348c-.731 0-1.326-.673-1.326-1.5v-10zM3.5 13h17c.276 0 .5-.224.5-.5v-10c0-.276-.224-.5-.5-.5h-17c-.276 0-.5.224-.5.5v10c0 .276.224.5.5.5zm.5-10h16v9h-16v-9zM8.5 18h-6c-.276 0-.5.224-.5.5s.224.5.5.5h6c.276 0 .5-.224.5-.5s-.224-.5-.5-.5zM5.5 20h-3c-.276 0-.5.224-.5.5s.224.5.5.5h3c.276 0 .5-.224.5-.5s-.224-.5-.5-.5zM21.5 18h-9c-.276 0-.5.224-.5.5v2c0 .276.224.5.5.5h9c.276 0 .5-.224.5-.5v-2c0-.276-.224-.5-.5-.5zm-.5 2h-8v-1h8v1z"/></g></svg>