<svg version="1" xmlns="http://www.w3.org/2000/svg" width="24" height="24" viewBox="0 0 24 24"><g><path d="M14.5 5h-6c-.276 0-.5.224-.5.5v4c0 .276.224.5.5.5h6c.276 0 .5-.224.5-.5v-4c0-.276-.224-.5-.5-.5zm-.5 4h-5v-3h5v3zM21.5 3h-2.5v-1.5c0-.276-.224-.5-.5-.5h-15c-.276 0-.5.224-.5.5v2.5h-.5c-.276 0-.5.224-.5.5s.224.5.5.5h.5v2h-.5c-.276 0-.5.224-.5.5s.224.5.5.5h.5v2h-.5c-.276 0-.5.224-.5.5s.224.5.5.5h.5v2h-.5c-.276 0-.5.224-.5.5s.224.5.5.5h.5v2h-.5c-.276 0-.5.224-.5.5s.224.5.5.5h.5v2h-.5c-.276 0-.5.224-.5.5s.224.5.5.5h.5v2.5c0 .276.224.5.5.5h15c.276 0 .5-.224.5-.5v-2.5h2.5c.276 0 .5-.224.5-.5v-16c0-.276-.224-.5-.5-.5zm-.5 8h-2v-3h2v3zm-2 1h2v3h-2v-3zm2-8v3h-2v-3h2zm-3 18h-14v-2h.5c.276 0 .5-.224.5-.5s-.224-.5-.5-.5h-.5v-2h.5c.276 0 .5-.224.5-.5s-.224-.5-.5-.5h-.5v-2h.5c.276 0 .5-.224.5-.5s-.224-.5-.5-.5h-.5v-2h.5c.276 0 .5-.224.5-.5s-.224-.5-.5-.5h-.5v-2h.5c.276 0 .5-.224.5-.5s-.224-.5-.5-.5h-.5v-2h.5c.276 0 .5-.224.5-.5s-.224-.5-.5-.5h-.5v-2h14v20zm3-3h-2v-3h2v3z"/></g></svg>