<svg version="1" xmlns="http://www.w3.org/2000/svg" width="24" height="24" viewBox="0 0 24 24"><path d="M18.5 12h-.5v-1.5c0-.276-.224-.5-.5-.5h-.277l1.279-3.387c.992-.158 1.735-1.051 1.888-2.333.195-1.64-.626-3.653-2.893-4.202-.199-.05-.407.03-.526.198-.118.168-.121.391-.009.562.528.805.21 1.282-.354 1.993-.216.272-.419.528-.542.82-.234.556-.247 1.141-.035 1.646.1.238.25.451.437.638l-2.262 4.065h-.206v-9.5c0-.276-.224-.5-.5-.5h-4c-.276 0-.5.224-.5.5v9.5h-.206l-2.357-4.243-.02-.02-.017-.037-.135-.12-.008-.009-.004-.002-.003-.002-2.493-1.496c-.167-.101-.377-.095-.538.016-.161.109-.244.303-.212.495l.5 3 .007.022.016.049.023.072 1.138 2.275h-.191c-.276 0-.5.224-.5.5v11c0 1.378 1.121 2.5 2.5 2.5h9c1.379 0 2.5-1.122 2.5-2.5v-2.5h.5c1.93 0 3.5-1.57 3.5-3.5s-1.57-3.5-3.5-3.5zm-1.511-7.96c.069-.166.231-.371.403-.587.381-.48.897-1.132.84-1.981.938.639 1.277 1.747 1.165 2.689-.082.685-.447 1.484-1.208 1.484-.18 0-.375-.044-.582-.132-.318-.134-.544-.342-.652-.603-.109-.258-.097-.559.034-.87zm.328 2.427l.153.049-1.316 3.484h-.804l1.967-3.533zm-7.317-5.467h3v1h-1.5c-.276 0-.5.224-.5.5s.224.5.5.5h1.5v1h-.5c-.276 0-.5.224-.5.5s.224.5.5.5h.5v1h-1.5c-.276 0-.5.224-.5.5s.224.5.5.5h1.5v1h-.5c-.276 0-.5.224-.5.5s.224.5.5.5h.5v1h-3v-9zm-4.895 5.046l-.747.561-.187-1.121.934.56zm-.472 1.604l1.208-.906 1.809 3.256h-1.841l-1.176-2.35zm12.367 13.85c0 .827-.673 1.5-1.5 1.5h-9c-.827 0-1.5-.673-1.5-1.5v-10.5h12v10.5zm1.5-3.5h-.5v-5h.5c1.379 0 2.5 1.122 2.5 2.5s-1.121 2.5-2.5 2.5z"/></svg>