<svg version="1" xmlns="http://www.w3.org/2000/svg" width="24" height="24" viewBox="0 0 24 24"><path d="M22 23.418v-22.918l-.044-.202-.001-.006-.013-.015c-.035-.069-.087-.125-.149-.172l-.051-.034c-.073-.041-.152-.071-.242-.071h-18c-.09 0-.169.03-.242.071l-.051.034c-.062.047-.114.103-.149.172l-.013.015-.001.006-.044.202v23l.046.205.001.007.015.017.146.167.051.034c.073.041.152.07.241.07h18.02c.276 0 .5-.224.5-.5l-.02-.082zm-16-3.418c-.148 0-.289.066-.384.18l-1.616 1.938v-20.278l2.146 2.475c.5.616 1.697.679 1.945.685h3.909v15h-6zm7-15h3.9219999999999997c.235-.006 1.431-.069 1.92-.672l2.158-2.488v20.279l-1.616-1.939c-.095-.114-.236-.18-.384-.18h-6v-15zm7.405-4l-2.329 2.685c-.136.168-.726.301-1.174.315h-8.797c-.449-.013-1.045-.145-1.192-.328l-2.318-2.672h15.81zm-15.838 22l1.667-2h12.531l1.667 2h-15.865z"/></svg>