<svg version="1" xmlns="http://www.w3.org/2000/svg" width="24" height="24" viewBox="0 0 24 24"><path d="M17.5 8h-1.5v-3.5c0-2.481-1.794-4.5-4-4.5s-4 2.019-4 4.5v3.5h-1.5c-.276 0-.5.224-.5.5s.224.5.5.5h1.5v8.5c0 1.846.986 3.425 2 4.114v1.886c0 .276.224.5.5.5h3c.276 0 .5-.224.5-.5v-1.886c1.014-.688 2-2.268 2-4.114v-8.5h1.5c.276 0 .5-.224.5-.5s-.224-.5-.5-.5zm-8.5-3.5c0-1.93 1.346-3.5 3-3.5s3 1.57 3 3.5v3.5h-6v-3.5zm6 13c0 1.716-1.012 3.014-1.731 3.389-.166.086-.269.257-.269.443v1.668h-2v-1.668c0-.187-.104-.357-.27-.443-.718-.375-1.73-1.673-1.73-3.389v-1.5h1.5c.276 0 .5-.224.5-.5s-.224-.5-.5-.5h-1.5v-1h1.5c.276 0 .5-.224.5-.5s-.224-.5-.5-.5h-1.5v-1h1.5c.276 0 .5-.224.5-.5s-.224-.5-.5-.5h-1.5v-2h6v8.5z"/></svg>