<svg version="1" xmlns="http://www.w3.org/2000/svg" width="24" height="24" viewBox="0 0 24 24"><g><path d="M15.719.056c-.067-.033-.139-.056-.219-.056-.276 0-.509.223-.509.499l.009.045v22.956c0 .276.224.5.5.5s.5-.224.5-.5v-7.5h2.5c.276 0 .5-.224.5-.5 0-6.123-1.168-14.866-3.281-15.444zm.281 14.944v-13.301c.825 1.75 1.944 6.63 1.998 13.301h-1.998zM11.5 0c-.276 0-.5.224-.5.5v5c0 1.207-.86 2.217-2 2.449v-7.449c0-.276-.224-.5-.5-.5s-.5.224-.5.5v7.449c-1.14-.232-2-1.242-2-2.449v-5c0-.276-.224-.5-.5-.5s-.5.224-.5.5v5c0 1.759 1.308 3.204 3 3.45v14.55c0 .276.224.5.5.5s.5-.224.5-.5v-14.55c1.692-.245 3-1.691 3-3.45v-5c0-.276-.224-.5-.5-.5z"/></g></svg>