<svg version="1" xmlns="http://www.w3.org/2000/svg" width="24" height="24" viewBox="0 0 24 24"><g><path d="M5.5 5c-.827 0-1.5.673-1.5 1.5v11.5h-2.5c-.276 0-.5.224-.5.5s.224.5.5.5h2.5v4h-3.5c-.276 0-.5.224-.5.5s.224.5.5.5h6c.276 0 .5-.224.5-.5v-17c0-.827-.673-1.5-1.5-1.5zm-.5 18v-16.5c0-.276.225-.5.5-.5s.5.224.5.5v16.5h-1zM23.8 16.1l-1.8-1.35v-5.25c0-1.378-1.121-2.5-2.5-2.5h-2c-5.238 0-9.5 4.262-9.5 9.5v5.5c0 .276.224.5.5.5h2.135c.634.904 1.679 1.5 2.865 1.5 1.185 0 2.231-.596 2.865-1.5h1.847c.387.881 1.265 1.5 2.288 1.5s1.901-.619 2.288-1.5h.712c.276 0 .5-.224.5-.5v-5.5c0-.157-.074-.306-.2-.4zm-14.8 5.4v-3.293l4-4 .146.147c.098.098.226.146.354.146.128 0 .256-.049.353-.146.195-.195.195-.512 0-.707l-1-1c-.195-.195-.512-.195-.707 0-.195.195-.195.512 0 .707l.147.146-3.293 3.293v-.293c0-4.687 3.813-8.5 8.5-8.5h2c.827 0 1.5.673 1.5 1.5v5h-2.359l.845-3.379c.066-.268-.096-.539-.364-.606-.273-.068-.54.095-.606.364l-.907 3.621h-1.609c-.133 0-.26.053-.354.146l-2.377 2.377c-1.82.122-3.269 1.626-3.269 3.477 0 .35.067.681.163 1h-1.163zm4.5 1.5c-1.379 0-2.5-1.122-2.5-2.5s1.121-2.5 2.5-2.5 2.5 1.122 2.5 2.5-1.121 2.5-2.5 2.5zm7 0c-.698 0-1.281-.481-1.448-1.128l-.023-.081-.029-.291c0-.827.673-1.5 1.5-1.5s1.5.673 1.5 1.5l-.029.291-.023.081c-.167.647-.75 1.128-1.448 1.128zm2.5-1.5c0-1.378-1.121-2.5-2.5-2.5s-2.5 1.122-2.5 2.5h-1.163c.096-.319.163-.65.163-1 0-1.568-1.043-2.882-2.467-3.326l1.674-1.674h5.127l1.666 1.25v4.75z"/></g></svg>