<svg version="1" xmlns="http://www.w3.org/2000/svg" width="24" height="24" viewBox="0 0 24 24"><path d="M13.5 6.35v-1.35h.5c.229 0 .429-.156.485-.379l1-4c.038-.149.004-.308-.091-.429s-.24-.192-.394-.192h-7c-.154 0-.299.071-.394.192-.095.121-.129.28-.091.429l1 4c.056.223.255.379.485.379h.5v1.35c-2.327.826-4 3.044-4 5.65 0 3.138 4.862 11.404 5.069 11.754.091.152.254.246.431.246h1c.165 0 .318-.081.412-.216 1.226-1.778 5.088-8.986 5.088-11.784 0-2.606-1.673-4.824-4-5.65zm-4.859-5.35h5.719l-.75 3h-4.219l-.75-3zm1.859 4h2v1.09c-.326-.055-.659-.09-1-.09-.341 0-.674.035-1 .09v-1.09zm1 9c-.551 0-1-.448-1-1s.449-1 1-1c.551 0 1 .448 1 1s-.449 1-1 1zm.5 8.575v-7.646c.86-.224 1.5-1 1.5-1.929 0-1.102-.897-2-2-2s-2 .898-2 2c0 .929.64 1.705 1.5 1.929v7.568c-1.195-2.105-4.5-8.136-4.5-10.497 0-2.757 2.243-5 5-5s5 2.243 5 5c0 2.211-3.018 8.151-4.5 10.575z"/></svg>