<svg version="1" xmlns="http://www.w3.org/2000/svg" width="24" height="24" viewBox="0 0 24 24"><g><path d="M12 0c-6.617 0-12 5.383-12 12s5.383 12 12 12 12-5.383 12-12-5.383-12-12-12zm0 23c-6.065 0-11-4.935-11-11s4.935-11 11-11 11 4.935 11 11-4.935 11-11 11zM18.363 5.637c-.195-.195-.512-.195-.707 0l-4.647 4.647c-.297-.176-.639-.284-1.009-.284-1.103 0-2 .897-2 2s.897 2 2 2 2-.897 2-2c0-.37-.108-.712-.283-1.01l4.647-4.647c.195-.195.195-.511-.001-.706zm-6.363 7.363c-.551 0-1-.449-1-1s.449-1 1-1c.551 0 1 .449 1 1s-.449 1-1 1zM4.943 12.186c0-.276-.224-.5-.5-.5h-2c-.276 0-.5.224-.5.5s.224.5.5.5h2c.277 0 .5-.224.5-.5zM4.879 14.408l-1.848.765c-.255.105-.376.398-.271.653.08.192.266.309.462.309l.191-.038 1.848-.765c.255-.105.376-.398.271-.653-.105-.255-.398-.376-.653-.271zM20.967 15.174l-1.847-.766c-.254-.104-.548.015-.653.271-.106.255.015.547.271.653l1.847.766.191.038c.196 0 .382-.116.462-.309.105-.255-.016-.547-.271-.653zM21.499 11.501l-1.999-.001c-.276 0-.5.224-.5.5s.224.5.499.5l2 .001c.276 0 .5-.224.5-.5s-.224-.5-.5-.5zM18.467 9.321c.08.192.266.309.462.309l.191-.038 1.848-.765c.255-.105.376-.398.271-.653-.105-.255-.399-.376-.653-.271l-1.848.765c-.256.105-.377.398-.271.653zM14.679 5.532l.191.038c.196 0 .382-.116.462-.309l.766-1.847c.106-.255-.015-.547-.271-.653-.253-.105-.548.015-.653.271l-.766 1.847c-.106.255.015.547.271.653zM11.943 5.186c.276 0 .5-.224.5-.5v-2c0-.276-.224-.5-.5-.5s-.5.224-.5.5v2c0 .276.224.5.5.5zM8.668 5.262c.08.192.266.308.462.308l.191-.038c.255-.105.376-.398.27-.653l-.764-1.848c-.105-.255-.399-.376-.653-.27-.255.105-.376.398-.271.653l.765 1.848zM7.05 6.343l-1.413-1.414c-.195-.195-.512-.195-.707 0-.195.195-.195.512 0 .707l1.413 1.414c.097.098.225.146.353.146.128 0 .256-.049.354-.147.195-.194.195-.511 0-.706zM5.262 8.668l-1.847-.766c-.254-.104-.548.016-.653.271-.106.255.015.547.27.653l1.847.766.191.038c.196 0 .382-.116.462-.309.106-.255-.015-.547-.27-.653zM16.5 16h-9c-.276 0-.5.224-.5.5v3c0 .276.224.5.5.5h9c.276 0 .5-.224.5-.5v-3c0-.276-.224-.5-.5-.5zm-.5 3h-8v-2h8v2z"/></g></svg>