<svg version="1" xmlns="http://www.w3.org/2000/svg" width="24" height="24" viewBox="0 0 24 24"><g><path d="M10.501 17.484c4.686 0 8.5-3.812 8.5-8.499 0-4.687-3.814-8.5-8.5-8.5-4.687 0-8.5 3.813-8.5 8.5 0 4.687 3.813 8.499 8.5 8.499zm0-15.999c4.136 0 7.5 3.364 7.5 7.5 0 4.135-3.364 7.499-7.5 7.499s-7.5-3.364-7.5-7.499 3.364-7.5 7.5-7.5zM18.633 17.117c4.364-4.365 4.467-11.386.336-15.892l.371-.372c.195-.195.195-.512 0-.707-.195-.195-.512-.195-.707 0l-1.414 1.414c-.195.195-.195.512 0 .707.098.098.226.146.354.146.128 0 .256-.049.354-.146l.335-.336c3.742 4.116 3.638 10.503-.335 14.478-3.974 3.975-10.362 4.077-14.477.334l.335-.334c.195-.195.195-.512 0-.707-.195-.195-.512-.195-.707 0l-.703.702-.004.003-.003.004-.704.704c-.195.195-.195.512 0 .707.098.098.226.146.354.146.128 0 .256-.049.354-.146l.372-.372c1.929 1.769 4.313 2.768 6.76 2.98v.605c-1.91.181-3.719.877-5.282 2.047-.172.129-.242.354-.175.559.068.204.26.342.475.342h11.964c.215 0 .406-.138.475-.342.067-.205-.003-.429-.175-.559-1.563-1.171-3.372-1.866-5.281-2.047v-.605c2.599-.224 5.14-1.325 7.128-3.313zm-12.363 5.867c2.617-1.316 5.845-1.316 8.46 0h-8.46z"/></g></svg>