<svg version="1" xmlns="http://www.w3.org/2000/svg" width="24" height="24" viewBox="0 0 24 24"><path d="M24 15c0-1.208-.86-2.217-2-2.45v-.55c0-1.379-1.122-2.5-2.5-2.5h-.025c-.259-3.902-3.508-7-7.475-7s-7.216 3.098-7.475 7h-.025c-1.378 0-2.5 1.121-2.5 2.5v.55c-1.14.233-2 1.242-2 2.45s.86 2.217 2 2.449v.551c0 1.379 1.122 2.5 2.5 2.5h2c.276 0 .5-.224.5-.5v-10c0-.276-.224-.5-.5-.5h-.975c.257-3.351 3.059-6 6.475-6 3.415 0 6.218 2.649 6.475 6h-.975c-.276 0-.5.224-.5.5v10c0 .276.224.5.5.5h2c1.378 0 2.5-1.121 2.5-2.5v-.551c1.14-.232 2-1.241 2-2.449zm-23 0c0-.651.419-1.201 1-1.408v2.816c-.581-.207-1-.757-1-1.408zm5 4.5h-1.5c-.827 0-1.5-.673-1.5-1.5v-6c0-.827.673-1.5 1.5-1.5h1.5v9zm15-1.5c0 .827-.673 1.5-1.5 1.5h-1.5v-9h1.5c.827 0 1.5.673 1.5 1.5v6zm1-1.592v-2.816c.581.207 1 .757 1 1.408s-.419 1.201-1 1.408z"/></svg>