<svg version="1" xmlns="http://www.w3.org/2000/svg" width="24" height="24" viewBox="0 0 24 24"><path d="M17.408.5c-2.063 0-4.336 1.259-5.408 4.022-1.055-2.719-3.271-3.958-5.28-3.958-2.843-.001-5.72 2.439-5.72 7.102 0 8.455 10.286 15.354 10.724 15.644.084.056.18.083.276.083.108 0 .216-.035.306-.104.437-.339 10.694-8.368 10.694-16.215 0-4.316-2.813-6.574-5.592-6.574zm-5.43 21.769c-1.69-1.201-9.978-7.452-9.978-14.603 0-4.192 2.446-6.102 4.72-6.102 1.853 0 4.219 1.309 4.786 4.995.037.244.247.423.494.423s.456-.18.494-.424c.575-3.734 3.006-5.058 4.914-5.058 2.212 0 4.592 1.744 4.592 5.574 0 6.659-8.361 13.836-10.022 15.195z"/></svg>