<svg version="1" xmlns="http://www.w3.org/2000/svg" width="24" height="24" viewBox="0 0 24 24"><g><path d="M7.481 16.521c-.094-.094-.147-.219-.147-.352 0-.133.052-.258.148-.354.094-.094.219-.146.353-.146.134 0 .259.052.354.147.585.585 1.536.585 2.121 0 .284-.284.44-.661.439-1.062-.001-.4-.156-.777-.439-1.059-.195-.196-.195-.514 0-.709.094-.094.219-.146.353-.146.134 0 .259.052.354.147.585.585 1.536.585 2.121 0 .284-.284.44-.661.439-1.062 0-.4-.156-.777-.439-1.059-.195-.195-.195-.513 0-.707.195-.195.512-.195.707-.001.283.284.661.44 1.062.44h.001c.401 0 .778-.157 1.06-.44.583-.583.584-1.535 0-2.122-.194-.194-.194-.511 0-.707.188-.189.517-.188.706.001.585.585 1.536.585 2.121 0 .284-.284.44-.662.439-1.063-.001-.401-.158-.776-.439-1.056-.195-.197-.196-.516-.002-.71.195-.194.513-.195.708 0 .195.195.512.195.707 0 .195-.195.195-.512 0-.707-.584-.584-1.536-.586-2.122-.001-.583.583-.584 1.535.001 2.125.094.093.146.218.146.351 0 .133-.052.259-.146.354-.195.194-.512.195-.708 0-.567-.566-1.556-.566-2.121.001-.583.585-.583 1.536 0 2.119.195.196.196.514 0 .71-.094.094-.219.146-.353.146-.134 0-.26-.052-.354-.147-.585-.584-1.537-.586-2.122.001-.583.584-.583 1.536.001 2.121.094.094.146.219.146.352 0 .134-.052.259-.146.354-.189.189-.518.189-.707 0-.283-.283-.66-.439-1.061-.439h-.001c-.4 0-.777.156-1.059.439-.584.585-.584 1.536.001 2.123.094.094.146.219.146.352 0 .134-.052.259-.147.354-.195.195-.512.195-.707 0-.283-.283-.66-.44-1.061-.44-.4.001-.777.156-1.058.439-.285.283-.441.66-.441 1.061 0 .401.157.778.439 1.059.195.196.195.514.002.708-.196.195-.514.194-.708.001-.283-.284-.659-.439-1.06-.44h-.001c-.401 0-.778.156-1.061.439-.284.283-.44.66-.44 1.06s.156.777.439 1.061c.098.098.226.147.354.147.128 0 .255-.049.353-.146.196-.195.196-.512.001-.707-.095-.095-.147-.221-.147-.355 0-.133.052-.258.147-.352.095-.094.22-.146.354-.146.133 0 .259.052.354.147.584.584 1.537.584 2.122-.001.582-.585.582-1.537-.002-2.123zM22.587 5.478c.196-1.091-.122-2.257-.963-3.098-.803-.803-1.969-1.11-3.058-.937-2.267-1.874-4.679-1.934-6.487-.122l-10.608 10.605c-1.474 1.472-2.035 4.089.096 6.446-.037.205-.061.413-.061.625 0 .935.364 1.814 1.025 2.475.661.661 1.54 1.025 2.475 1.025.219 0 .434-.024.645-.063.97.908 2.089 1.409 3.266 1.417h.028c1.153 0 2.293-.479 3.133-1.318l10.605-10.606c1.513-1.512 2.036-4.068-.096-6.449zm-20.409 7.156l10.608-10.607c1.296-1.299 2.961-1.354 4.649-.194-.274.148-.535.321-.762.547l-14.141 14.141c-.227.228-.405.488-.56.76-1.294-1.755-.888-3.554.206-4.647zm1.061 8.132c-.472-.472-.733-1.1-.733-1.768 0-.668.26-1.296.733-1.769l14.141-14.142c.473-.472 1.101-.731 1.769-.731.668 0 1.296.26 1.768.731.974.975.974 2.561 0 3.536l-14.143 14.143c-.943.943-2.591.942-3.535 0zm18.738-9.546l-10.605 10.606c-.658.658-1.582.993-2.447 1.025-.773-.005-1.526-.29-2.213-.814.276-.155.539-.335.769-.565l14.143-14.142c.231-.232.409-.494.562-.766 1.383 1.87.805 3.642-.209 4.656z"/></g></svg>