<svg version="1" xmlns="http://www.w3.org/2000/svg" width="24" height="24" viewBox="0 0 24 24"><g><path d="M23.5 0h-23c-.276 0-.5.224-.5.5v23c0 .276.224.5.5.5h23c.276 0 .5-.224.5-.5v-23c0-.276-.224-.5-.5-.5zm-.5 1v16h-.691l-3.399-6.795c-.37-.743-1.116-1.205-1.947-1.205-.772 0-1.491.414-1.88 1.08l-2.638 4.521c-.777-.937-2.437-2.601-4.445-2.601-2.465 0-4.311 3.801-4.832 5h-2.168v-16h22zm-1.809 16h-16.924c.727-1.531 2.217-4 3.733-4 2.199 0 4.065 2.75 4.084 2.777.095.144.211.213.432.223.172-.006.329-.1.416-.248l3.015-5.168c.21-.36.6-.584 1.017-.584.449 0 .852.249 1.053.651l3.174 6.349zm-20.191 6v-5h22v5h-22zM6.5 9h3c1.654 0 3-1.346 3-3s-1.346-3-3-3c-1.297 0-2.412.818-2.824 2.008-1.162-.104-2.176.831-2.176 1.992 0 1.102.897 2 2 2zm0-3c.119 0 .236.023.359.07.14.056.297.043.43-.032.131-.075.221-.205.245-.354.155-.976.983-1.684 1.966-1.684 1.102 0 2 .898 2 2s-.898 2-2 2h-3c-.552 0-1-.448-1-1s.448-1 1-1z"/></g></svg>