<svg version="1" xmlns="http://www.w3.org/2000/svg" width="24" height="24" viewBox="0 0 24 24"><g><path d="M17.5 0h-11c-1.379 0-2.5 1.121-2.5 2.5v19c0 1.379 1.121 2.5 2.5 2.5h11c1.379 0 2.5-1.121 2.5-2.5v-19c0-1.379-1.121-2.5-2.5-2.5zm-12.5 5h14v14h-14v-14zm1.5-4h11c.827 0 1.5.673 1.5 1.5v1.5h-14v-1.5c0-.827.673-1.5 1.5-1.5zm11 22h-11c-.827 0-1.5-.673-1.5-1.5v-1.5h14v1.5c0 .827-.673 1.5-1.5 1.5zM9.5 3h5c.276 0 .5-.224.5-.5s-.224-.5-.5-.5h-5c-.276 0-.5.224-.5.5s.224.5.5.5z"/><circle cx="12" cy="21.5" r="1"/></g></svg>