<svg version="1" xmlns="http://www.w3.org/2000/svg" width="24" height="24" viewBox="0 0 24 24"><g><path d="M20.5 17c-.276 0-.5.224-.5.5v1.5h-16v-10h.5c.276 0 .5-.224.5-.5s-.224-.5-.5-.5h-1c-.276 0-.5.224-.5.5v11c0 .276.224.5.5.5h17c.276 0 .5-.224.5-.5v-2c0-.276-.224-.5-.5-.5zM23.5 4h-17c-.276 0-.5.224-.5.5v11c0 .276.224.5.5.5h17c.276 0 .5-.224.5-.5v-11c0-.276-.224-.5-.5-.5zm-.5 11h-16v-10h16v10zM17.5 21c-.276 0-.5.224-.5.5v1.5h-16v-10h.5c.276 0 .5-.224.5-.5s-.224-.5-.5-.5h-1c-.276 0-.5.224-.5.5v11c0 .276.224.5.5.5h17c.276 0 .5-.224.5-.5v-2c0-.276-.224-.5-.5-.5z"/></g></svg>