<svg version="1" xmlns="http://www.w3.org/2000/svg" width="24" height="24" viewBox="0 0 24 24"><path d="M22.031 8.725l-1.902-1.902.963-2.89c.06-.18.013-.378-.121-.512-.135-.134-.33-.179-.512-.121l-2.889.964-1.902-1.902c-.149-.149-.378-.188-.57-.097-.191.092-.304.294-.28.506l.317 2.85-2.892 1.607c-.181.1-.281.303-.252.508.029.204.181.37.383.417l2.577.594-12.981 12.899c-.195.194-.196.511-.002.707.097.098.225.147.354.147.127 0 .255-.049.352-.146l12.977-12.895.59 2.56c.047.202.213.354.417.383l.07.005c.18 0 .348-.097.438-.257l1.605-2.892 2.852.316c.21.021.413-.088.505-.28.093-.19.054-.419-.097-.569zm-3.48-.496c-.197-.018-.395.078-.492.254l-1.135 2.044-.503-2.18c-.043-.186-.188-.332-.375-.375l-2.18-.503 2.045-1.136c.176-.099.276-.292.254-.493l-.196-1.764 1.113 1.113c.135.134.332.18.512.121l2.232-.745-.744 2.233c-.06.18-.013.378.121.512l1.113 1.113-1.765-.194z"/></svg>