<svg version="1" xmlns="http://www.w3.org/2000/svg" width="24" height="24" viewBox="0 0 24 24"><path d="M23.674 12.526l-2.829-2.829c-.188-.188-.519-.188-.707 0l-7.424 7.425c-.756.755-1.76 1.171-2.829 1.171-1.069 0-2.073-.416-2.829-1.171-.756-.755-1.172-1.76-1.172-2.828 0-1.068.416-2.073 1.172-2.828l7.425-7.425c.195-.195.195-.512 0-.707l-2.829-2.829c-.092-.094-.219-.147-.352-.147s-.26.053-.354.146l-8.132 8.133c-3.509 3.51-3.508 9.219 0 12.728 1.7 1.7 3.96 2.636 6.365 2.636 2.404 0 4.664-.935 6.364-2.636l8.132-8.131c.195-.196.195-.512-.001-.708zm-12.374-10.961l2.122 2.122-1.414 1.414-2.123-2.121 1.415-1.415zm3.535 19.092c-1.51 1.511-3.519 2.343-5.656 2.343-2.137 0-4.146-.832-5.658-2.343-3.119-3.119-3.119-8.194 0-11.313l5.657-5.657 2.122 2.121-4.95 4.95c-.945.944-1.465 2.199-1.465 3.535 0 1.336.52 2.591 1.465 3.535.944.944 2.2 1.464 3.536 1.464 1.335 0 2.591-.52 3.536-1.464l4.95-4.95 2.122 2.121-5.659 5.658zm6.365-6.363l-2.122-2.122 1.414-1.414 2.122 2.122-1.414 1.414z"/></svg>