<svg version="1" xmlns="http://www.w3.org/2000/svg" width="24" height="24" viewBox="0 0 24 24"><g><path d="M7 16c-1.654 0-3 1.346-3 3s1.346 3 3 3 3-1.346 3-3-1.346-3-3-3zm0 5c-1.103 0-2-.897-2-2s.897-2 2-2 2 .897 2 2-.897 2-2 2zM6.5 20l1.5-1-1.5-1zM22.5 6c-.651 0-1.201.419-1.408 1h-.092c-1.103 0-2 .898-2 2s.897 2 2 2h.092c.151.424.484.757.908.908v7.092c0 1.103-.897 2-2 2s-2-.897-2-2v-14c0-1.102-.897-2-2-2h-2v-1c0-1.102-.897-2-2-2h-10c-1.103 0-2 .897-2 2v20c0 1.103.897 2 2 2h10c1.103 0 2-.897 2-2v-18h2c.551 0 1 .448 1 1v14c0 1.654 1.346 3 3 3s3-1.346 3-3v-7.092c.581-.207 1-.757 1-1.408v-3c0-.827-.673-1.5-1.5-1.5zm-20.5-5h10c.551 0 1 .448 1 1v12h-12v-12c0-.552.449-1 1-1zm10 22h-10c-.551 0-1-.448-1-1v-7h12v7c0 .552-.449 1-1 1zm8-14c0-.552.449-1 1-1v2c-.551 0-1-.448-1-1zm3 1.5c0 .275-.224.5-.5.5s-.5-.225-.5-.5v-3c0-.275.224-.5.5-.5s.5.225.5.5v3zM3 5h2v1h-2zM3 7h2v1h-2zM3 9h2v1h-2zM3 11h2v1h-2zM9 7h2v1h-2zM9 9h2v1h-2zM9 11h2v1h-2zM6 9h2v1h-2zM6 11h2v1h-2z"/></g></svg>