<svg version="1" xmlns="http://www.w3.org/2000/svg" width="24" height="24" viewBox="0 0 24 24"><g><path d="M7.605 19.808c.095.121.241.192.395.192h8c.154 0 .3-.071.394-.192.095-.121.128-.279.091-.429l-.5-2c-.055-.223-.256-.379-.485-.379h-7c-.23 0-.43.156-.485.379l-.5 2c-.038.149-.004.308.09.429zm1.286-1.808h6.219l.25 1h-6.719l.25-1zM23.983 21.371l-1.983-7.436v-10.935c0-1.102-.898-2-2-2h-16c-1.103 0-2 .898-2 2v11.43l-1.981 6.933-.019.137v.5c0 1.103.897 2 2 2h20c1.102 0 2-.897 2-2v-.5l-.017-.129zm-19.983-19.371h16c.552 0 1 .448 1 1v11h-18v-11c0-.552.448-1 1-1zm-1.123 13h18.372l1.6 6h-21.686l1.714-6zm19.123 8h-20c-.552 0-1-.448-1-1h22c0 .552-.448 1-1 1zM4.5 13h15c.276 0 .5-.224.5-.5v-9c0-.276-.224-.5-.5-.5h-15c-.276 0-.5.224-.5.5v9c0 .276.224.5.5.5zm.5-9h14v8h-14v-8z"/></g></svg>