<svg version="1" xmlns="http://www.w3.org/2000/svg" width="24" height="24" viewBox="0 0 24 24"><g><path d="M20.485 4.272c-2.266-2.267-5.28-3.514-8.485-3.514-3.205 0-6.219 1.247-8.485 3.514-2.267 2.265-3.515 5.279-3.515 8.485 0 3.206 1.249 6.22 3.515 8.485.944.945 2.591.945 3.537 0 .973-.975.973-2.561 0-3.535-.094-.095-.146-.22-.146-.354s.051-.258.145-.353c.188-.19.518-.19.707 0l4.242 4.242c1.133 1.134 2.64 1.758 4.243 1.758 1.602 0 3.109-.624 4.242-1.758 2.267-2.265 3.515-5.279 3.515-8.485 0-3.206-1.248-6.22-3.515-8.485zm-.707 16.263c-.944.944-2.199 1.465-3.535 1.465-1.336 0-2.591-.521-3.536-1.465l-4.242-4.242c-.283-.283-.66-.439-1.061-.439s-.778.156-1.06.439c-.283.283-.439.66-.439 1.061s.156.777.439 1.061c.584.585.584 1.536 0 2.121-.566.566-1.556.566-2.122 0-2.078-2.078-3.222-4.841-3.222-7.779 0-2.938 1.145-5.701 3.222-7.778 2.077-2.078 4.84-3.221 7.778-3.221 2.938 0 5.701 1.144 7.778 3.221 2.078 2.077 3.222 4.839 3.222 7.778 0 2.938-1.144 5.701-3.222 7.778zM16.243 9.807c.534 0 1.037-.208 1.413-.585.378-.377.586-.879.586-1.414 0-.535-.208-1.037-.586-1.413-.377-.378-.88-.586-1.414-.586-.535 0-1.037.208-1.414.585-.378.377-.586.879-.586 1.414 0 .535.208 1.037.586 1.413.378.378.88.586 1.415.586zm-.708-2.705c.189-.189.44-.293.708-.293.267 0 .518.103.707.294.189.188.293.438.293.705 0 .267-.104.518-.294.706-.377.379-1.035.378-1.414-.001-.189-.188-.293-.439-.293-.705 0-.267.104-.518.293-.706zM20.06 11.694c-.566-.564-1.551-.566-2.121.002-.583.586-.582 1.537.001 2.12.283.283.66.44 1.06.44s.777-.156 1.06-.44c.584-.583.585-1.534 0-2.122zm-.706 1.415c-.189.189-.518.189-.707 0-.194-.194-.194-.512-.001-.706.095-.094.221-.146.354-.146s.26.052.353.144c.194.197.195.514.001.708zM14.475 15.939c-.472.471-.731 1.099-.731 1.767 0 .668.26 1.296.731 1.768.472.473 1.1.732 1.768.732.668 0 1.296-.26 1.768-.732.473-.473.733-1.102.732-1.77-.001-.668-.261-1.295-.732-1.766-.945-.944-2.593-.944-3.536.001zm2.827 2.829c-.565.566-1.555.566-2.12 0-.283-.283-.439-.66-.439-1.061 0-.4.155-.777.439-1.06.283-.283.659-.439 1.06-.439s.777.156 1.061.439c.283.282.438.658.439 1.059.001.4-.156.777-.44 1.062zM8.819 5.332c-.379.378-.587.88-.587 1.414s.208 1.036.586 1.414c.377.378.88.586 1.414.586.534 0 1.037-.208 1.413-.586.378-.378.587-.88.587-1.414-.001-.534-.208-1.036-.586-1.414-.755-.756-2.072-.756-2.827 0zm2.119 2.121c-.377.379-1.034.379-1.413 0-.189-.189-.293-.44-.293-.707s.104-.518.293-.707c.189-.189.44-.293.707-.293.267 0 .517.103.706.293.189.189.293.44.293.707s-.103.518-.293.707z"/></g></svg>