<svg version="1" xmlns="http://www.w3.org/2000/svg" width="24" height="24" viewBox="0 0 24 24"><path d="M20.5 3h-.5v-2.5c0-.276-.224-.5-.5-.5h-15c-.276 0-.5.224-.5.5v2.5h-.5c-.827 0-1.5.673-1.5 1.5v4c0 .827.673 1.5 1.5 1.5h8c.271 0 .5.229.5.5v2.52c-.932.203-2 .923-2 1.936v7.5c0 .942 1.418 1.544 2.159 1.544h1c.834 0 1.841-.688 1.841-1.544v-7.5c0-1.013-1.068-1.733-2-1.936v-2.52c0-.827-.673-1.5-1.5-1.5h-8c-.276 0-.5-.225-.5-.5v-4c0-.272.229-.5.5-.5h.5v2.5c0 .276.224.5.5.5h15c.276 0 .5-.224.5-.5v-2.5h.5c.276 0 .5-.224.5-.5s-.224-.5-.5-.5zm-6.5 11.956v7.5c0 .197-.486.544-.841.544h-1c-.398 0-1.101-.367-1.159-.544v-7.5c0-.483.88-1 1.5-1s1.5.518 1.5 1zm5-8.956h-14v-5h14v5z"/></svg>