<svg version="1" xmlns="http://www.w3.org/2000/svg" width="24" height="24" viewBox="0 0 24 24"><path d="M23.609 3.463l-2.828-2.828c-.188-.188-.52-.188-.707 0l-.39.39c-.97-.641-2.292-.536-3.145.318l-5.656 5.655c-.195.195-.195.512 0 .707.098.098.226.147.354.147.128 0 .256-.049.353-.147l5.656-5.655c.459-.459 1.139-.544 1.695-.282l-4.523 4.524-10.197 10.195c-.159.159-.182.395-.082.584-.736.024-1.464.296-2 .833-1.045 1.045-1.804 5.052-1.887 5.506l.002.038.01.153.012.063.114.189.164.109.19.038.09-.008c.453-.083 4.461-.84 5.506-1.887.533-.532.829-1.233.859-1.982l.204.046c.133 0 .26-.053.354-.147l10.196-10.195 5.656-5.657c.196-.195.196-.512 0-.707zm-17.976 17.935c-.437.438-1.93.91-3.333 1.253l1.626-1.626c.195-.195.195-.512 0-.707-.195-.195-.512-.195-.707 0l-1.626 1.626c.344-1.403.815-2.895 1.253-3.333.372-.373.867-.578 1.394-.578.526 0 1.021.205 1.393.578.372.372.577.867.577 1.394 0 .527-.205 1.021-.577 1.393zm1.769-2.435l-2.121-2.122 9.49-9.488 2.121 2.121-9.49 9.489zm10.198-10.196l-2.121-2.121 4.593-4.594.003-.002.002-.003.352-.352 2.121 2.121-4.95 4.951z"/></svg>