<svg version="1" xmlns="http://www.w3.org/2000/svg" width="24" height="24" viewBox="0 0 24 24"><g><path d="M9.957 7.797l-2-4.5c-.16-.361-.754-.361-.914 0l-2 4.5-.001.004-.042.199v13.5c0 1.378 1.121 2.5 2.5 2.5s2.5-1.122 2.5-2.5v-13.5l-.042-.199-.001-.004zm-2.957.703v9.5h-1v-9.5h1zm2 0v9.5h-1v-9.5h1zm-3 10.5h3v1h-3v-1zm1.5-14.269l1.231 2.769h-2.462l1.231-2.769zm0 18.269c-.827 0-1.5-.673-1.5-1.5v-.5h3v.5c0 .827-.673 1.5-1.5 1.5zM18.5 0h-6c-.276 0-.5.224-.5.5v23c0 .276.224.5.5.5h6c.276 0 .5-.224.5-.5v-23c0-.276-.224-.5-.5-.5zm-.5 23h-5v-3h1.5c.276 0 .5-.224.5-.5s-.224-.5-.5-.5h-1.5v-3h1.5c.276 0 .5-.224.5-.5s-.224-.5-.5-.5h-1.5v-3h1.5c.276 0 .5-.224.5-.5s-.224-.5-.5-.5h-1.5v-3h1.5c.276 0 .5-.224.5-.5s-.224-.5-.5-.5h-1.5v-3h1.5c.276 0 .5-.224.5-.5s-.224-.5-.5-.5h-1.5v-2h5v22z"/></g></svg>