<svg version="1" xmlns="http://www.w3.org/2000/svg" width="24" height="24" viewBox="0 0 24 24"><g><path d="M23.5 5h-5.317l-5.199-4.382c-.189-.159-.466-.156-.65.005l-5.021 4.377h-6.813c-.276 0-.5.224-.5.5v18c0 .276.224.5.5.5h23c.276 0 .5-.224.5-.5v-18c0-.276-.224-.5-.5-.5zm-10.833-3.341l3.964 3.341h-7.797l3.833-3.341zm10.333 21.341h-22v-17h22v17zM2.5 22h19c.276 0 .5-.224.5-.5v-14c0-.276-.224-.5-.5-.5h-19c-.276 0-.5.224-.5.5v14c0 .276.224.5.5.5zm4.025-3h4.95c.509.826.987 1.512 1.348 2h-7.646c.361-.488.84-1.174 1.348-2zm.588-1c.721-1.292 1.431-2.818 1.887-4.434.455 1.616 1.166 3.142 1.887 4.434h-3.774zm10.887 3h-1v-3h1v3zm1 0v-6h2v6h-2zm-16-13h18v6h-2.5c-.276 0-.5.224-.5.5v2.5h-1.5c-.276 0-.5.224-.5.5v3.5h-1.916c-.767-.97-4.584-6.038-4.584-10.787 0-.276-.224-.5-.5-.5s-.5.224-.5.5c0 4.749-3.817 9.817-4.584 10.787h-.916v-13z"/></g></svg>