<svg version="1" xmlns="http://www.w3.org/2000/svg" width="24" height="24" viewBox="0 0 24 24"><g><path d="M6.812 10.283c-.211-.176-.526-.148-.704.063l-2.526 3.025c-.249-1.798.118-3.627 1.082-5.242 1.178-1.974 3.102-3.401 5.281-3.917 2.87-.676 5.875.272 7.835 2.485.183.208.499.227.705.043.207-.183.226-.499.043-.705-2.202-2.488-5.578-3.561-8.813-2.796-2.44.576-4.594 2.172-5.909 4.377-.894 1.498-1.326 3.163-1.293 4.838l-1.597-2.378c-.156-.231-.468-.29-.694-.137-.229.154-.291.465-.137.693l2.787 4.15c.088.131.231.213.389.221l.026.001c.147 0 .288-.065.384-.18l3.205-3.838c.177-.211.148-.526-.064-.703zM23.487 14.377l-2.785-4.15c-.088-.131-.231-.213-.389-.221-.117-.012-.228.039-.322.112l-.046.035-.042.032-.047.056-.024.028-3.137 3.752c-.177.212-.148.526.064.704.21.177.527.151.704-.063l2.406-2.878c.086 3.619-2.554 7.129-6.245 8.001-2.694.639-5.484-.145-7.464-2.095-.195-.192-.512-.192-.707.006-.193.196-.191.513.006.707 1.715 1.69 3.972 2.6 6.305 2.6.694 0 1.396-.08 2.091-.245 4.04-.953 6.893-4.551 7.022-8.475l1.78 2.652c.097.144.255.222.415.222.097 0 .193-.027.278-.085.23-.155.292-.466.137-.695z"/></g></svg>