<svg version="1" xmlns="http://www.w3.org/2000/svg" width="24" height="24" viewBox="0 0 24 24"><g><path d="M21.5 12c-.665 0-1.283.179-1.835.467l.765-4.98c.289-1.875-.254-3.778-1.491-5.219-1.236-1.441-3.034-2.268-4.934-2.268h-4.013c-1.899 0-3.697.827-4.933 2.268-1.236 1.442-1.78 3.344-1.491 5.219l.767 4.979c-.552-.287-1.17-.466-1.835-.466-1.378 0-2.5 1.122-2.5 2.5 0 1.014.604 1.921 1.539 2.31.28.115.461.386.461.69v2c0 1.93 1.57 3.5 3.5 3.5h.5v.5c0 .276.224.5.5.5s.5-.224.5-.5v-.5h10v.5c0 .276.224.5.5.5s.5-.224.5-.5v-.5h.5c1.93 0 3.5-1.57 3.5-3.5v-2c0-.304.18-.575.459-.691.937-.389 1.541-1.296 1.541-2.309 0-1.378-1.122-2.5-2.5-2.5zm-15.682-9.081c1.046-1.219 2.567-1.919 4.174-1.919h4.013c1.607 0 3.129.7 4.174 1.919 1.047 1.22 1.507 2.829 1.262 4.416l-.926 6.029c-.624.706-1.015 1.622-1.015 2.636v.73c-.886-.316-2.599-.73-5.5-.73s-4.614.414-5.5.73v-.73c0-1.014-.391-1.93-1.015-2.636l-.928-6.029c-.245-1.586.215-3.196 1.261-4.416zm16.259 12.967c-.654.27-1.077.904-1.077 1.614v2c0 1.378-1.122 2.5-2.5 2.5h-13c-1.378 0-2.5-1.122-2.5-2.5v-2c0-.709-.423-1.343-1.078-1.614-.56-.233-.922-.777-.922-1.386 0-.827.673-1.5 1.5-1.5 1.654 0 3 1.346 3 3v1.5c0 .183.102.349.262.437.16.088.357.081.511-.018.014-.009 1.496-.919 5.727-.919s5.713.91 5.723.916c.153.103.351.112.513.025.163-.087.264-.256.264-.441v-1.5c0-1.654 1.346-3 3-3 .827 0 1.5.673 1.5 1.5 0 .608-.363 1.152-.923 1.386zM8.584 10.277c.096.145.255.223.416.223.095 0 .191-.027.277-.084l.901-.6c.313.696 1.01 1.184 1.822 1.184s1.509-.488 1.822-1.184l.901.6c.085.057.181.084.277.084.162 0 .32-.078.417-.223.153-.23.091-.54-.139-.693l-.877-.584.876-.584c.23-.153.292-.463.139-.693-.153-.23-.464-.292-.693-.139l-.901.6c-.313-.696-1.01-1.184-1.822-1.184s-1.509.488-1.822 1.184l-.901-.6c-.231-.154-.541-.091-.693.139-.153.23-.091.54.139.693l.876.584-.876.584c-.23.153-.292.463-.139.693zm3.416-2.277c.551 0 1 .449 1 1s-.449 1-1 1-1-.449-1-1 .449-1 1-1z"/></g></svg>