<svg version="1" xmlns="http://www.w3.org/2000/svg" width="24" height="24" viewBox="0 0 24 24"><path d="M21.5 15.967h-4.846c-3.285-2.286-1.775-5.617-.56-8.3.507-1.116.906-1.998.906-2.7 0-3.261-2.516-4.967-5.001-4.967-2.484 0-4.999 1.706-4.999 4.967 0 .706.401 1.589.91 2.707 1.217 2.678 2.727 6.002-.564 8.293h-4.846c-1.379 0-2.5 1.121-2.5 2.5v3.033c0 .276.224.5.5.5h.5v1.5c0 .276.224.5.5.5h21c.276 0 .5-.224.5-.5v-1.5h.5c.276 0 .5-.224.5-.5v-3.033c0-1.379-1.121-2.5-2.5-2.5zm.5 7.033h-20v-1h20v1zm1-2h-22v-2.533c0-.827.673-1.5 1.5-1.5h5c.099 0 .194-.029.276-.084 4.161-2.764 2.285-6.892 1.044-9.622-.422-.929-.82-1.805-.82-2.294 0-2.726 2.073-3.967 3.999-3.967 1.927 0 4.001 1.241 4.001 3.967 0 .486-.397 1.361-.816 2.287-1.239 2.736-3.113 6.87 1.04 9.629.082.055.178.084.276.084h5c.827 0 1.5.673 1.5 1.5v2.533z"/></svg>