<svg version="1" xmlns="http://www.w3.org/2000/svg" width="24" height="24" viewBox="0 0 24 24"><path d="M20.5 9.5c-.579 0-1.136.14-1.638.409-1.132-1.892-3.017-3.284-5.243-3.744.237-.329.381-.729.381-1.165 0-1.102-.897-2-2-2s-2 .898-2 2c0 .436.144.836.381 1.165-3.463.715-6.107 3.677-6.353 7.287-1.153-.221-2.028-1.235-2.028-2.452v-1.5c0-.827-.673-1.5-1.5-1.5-.276 0-.5.224-.5.5s.224.5.5.5.5.225.5.5v1.5c0 1.771 1.327 3.224 3.036 3.453.089 1.574.613 3.071 1.575 4.348.095.125.242.199.4.199h11.979c.157 0 .305-.074.399-.199.559-.743.968-1.562 1.238-2.425.285.074.575.124.873.124 1.93 0 3.5-1.57 3.5-3.5s-1.57-3.5-3.5-3.5zm-3.611-.5h-9.779c1.263-1.235 2.988-2 4.89-2 1.902 0 3.627.765 4.889 2zm-5.889-4c0-.552.449-1 1-1 .551 0 1 .448 1 1s-.449 1-1 1c-.551 0-1-.448-1-1zm6.735 13h-11.47c-.829-1.182-1.265-2.56-1.265-4 0-1.487.47-2.865 1.264-4h11.472c.794 1.135 1.264 2.513 1.264 4 0 1.44-.437 2.817-1.265 4zm2.765-2.5c-.217 0-.427-.037-.633-.092.082-.462.133-.931.133-1.408 0-1.139-.243-2.222-.675-3.204.36-.194.759-.296 1.175-.296 1.378 0 2.5 1.121 2.5 2.5s-1.122 2.5-2.5 2.5z"/></svg>