<svg version="1" xmlns="http://www.w3.org/2000/svg" width="24" height="24" viewBox="0 0 24 24"><g><path d="M23 3h-7v-2.5c0-.276-.224-.5-.5-.5h-8c-.276 0-.5.224-.5.5v2.5h-6c-.276 0-.5.224-.5.5s.224.5.5.5h2v19.5c0 .276.224.5.5.5h16c.276 0 .5-.224.5-.5v-19.5h3c.276 0 .5-.224.5-.5s-.224-.5-.5-.5zm-15-2h7v2h-7v-2zm11 22h-15v-19h15v19zM7.5 6.5c-.276 0-.5.224-.5.5v12c0 .276.224.5.5.5s.5-.224.5-.5v-12c0-.276-.224-.5-.5-.5zM11.5 6.5c-.276 0-.5.224-.5.5v12c0 .276.224.5.5.5s.5-.224.5-.5v-12c0-.276-.224-.5-.5-.5zM15 7v12c0 .276.224.5.5.5s.5-.224.5-.5v-12c0-.276-.224-.5-.5-.5s-.5.224-.5.5z"/></g></svg>