<svg version="1" xmlns="http://www.w3.org/2000/svg" width="24" height="24" viewBox="0 0 24 24"><path d="M19.677 18.318l-4.677-1.671v-2.305c1.433-1.175 2.375-3.13 2.375-5.342 0-3.584-2.467-6.5-5.5-6.5s-5.5 2.916-5.5 6.5c0 2.338 1.053 4.385 2.625 5.531v2.117l-4.678 1.671c-1.389.496-2.322 1.821-2.322 3.295v1.886c0 .276.224.5.5.5h19c.276 0 .5-.224.5-.5v-1.886c0-1.474-.934-2.799-2.323-3.296zm-7.802-14.818c2.204 0 4.039 1.948 4.423 4.507l-.017.002c-1.453.28-2.352-.192-3.206-1.686-.09-.158-.234-.244-.444-.252-.183.004-.349.106-.434.269-.461.884-2.014 1.66-3.322 1.66-.509 0-.946-.084-1.376-.261.468-2.426 2.25-4.239 4.376-4.239zm-4.5 5.5l.01-.24c.469.158.954.24 1.49.24 1.374 0 2.881-.653 3.735-1.55.797 1.109 1.737 1.635 2.931 1.635.264 0 .545-.034.834-.085 0 3.032-2.019 5.5-4.5 5.5s-4.5-2.468-4.5-5.5zm13.625 14h-18v-1.386c0-1.054.667-2 1.659-2.354l5.009-1.789c.199-.072.332-.26.332-.471v-1.897c.586.252 1.216.397 1.875.397.753 0 1.471-.181 2.125-.506v2.006c0 .211.133.399.332.471l5.008 1.789c.993.354 1.66 1.3 1.66 2.354v1.386z"/></svg>