<svg xmlns="http://www.w3.org/2000/svg" width="24" height="24" viewBox="0 0 24 24"><g><path stroke="#000" stroke-linecap="round" stroke-linejoin="round" stroke-miterlimit="10" d="M18.5 22.5c0 .55-.449 1-1 1h-9c-.549 0-1-.45-1-1v-13c0-.549.451-1 1-1h9c.551 0 1 .451 1 1v13zM5.5 10.5h2v6h-2zM5.5 13.5h2M9.5 21.5h7" fill="none"/><path stroke="#000" stroke-linecap="round" stroke-linejoin="round" stroke-miterlimit="10" fill="none" d="M9.5 10.5h7v9h-7z"/><path d="M13.5 13c-.277 0-.5.225-.5.5 0 .276.223.5.5.5.275 0 .5-.224.5-.5 0-.275-.225-.5-.5-.5zM13.5 16c-.277 0-.5.225-.5.5 0 .276.223.5.5.5.275 0 .5-.224.5-.5 0-.275-.225-.5-.5-.5z"/><path stroke="#000" stroke-linecap="round" stroke-linejoin="round" stroke-miterlimit="10" d="M3.5 16.5c0 .55-.449 1-1 1-.549 0-1-.45-1-1v-3c0-.549.451-1 1-1 .551 0 1 .451 1 1v3zM22.5 16.5c0 .55-.449 1-1 1-.549 0-1-.45-1-1v-3c0-.549.451-1 1-1 .551 0 1 .451 1 1v3zM22.5 15h1v-3c0-6.352-5.148-11.5-11.5-11.5s-11.5 5.148-11.5 11.5v3h1" fill="none"/></g></svg>