<svg xmlns="http://www.w3.org/2000/svg" width="24" height="24" viewBox="0 0 24 24"><g stroke="#000" stroke-linecap="round" stroke-linejoin="round" stroke-miterlimit="10" fill="none"><path d="M17.502 3c-.6 0-1.162.15-1.654.416-.475-1.682-2.518-2.916-4.35-2.916s-3.9 1.234-4.375 2.916c-.492-.266-1.057-.416-1.652-.416-1.934 0-3.502 1.567-3.502 3.5s1.5 3.5 3.5 3.5v13.438h12.029v-13.438c2 0 3.502-1.567 3.502-3.5s-1.566-3.5-3.498-3.5zM5.469 19.438h12.029M8.479 15.438v4M11.469 14.438v5M14.488 15.438v4"/></g></svg>