<svg xmlns="http://www.w3.org/2000/svg" width="24" height="24" viewBox="0 0 24 24"><g><path stroke="#000" stroke-linecap="round" stroke-linejoin="round" stroke-miterlimit="10" d="M5.5 9.5h-4.077c-.51 0-.923-.447-.923-1v-7c0-.552.413-1 .923-1h10.154c.51 0 .923.448.923 1v6M2.5 11.5h3M.5 7.5h12M15.5 21.5v1.969M11.5 23.5h8" fill="none"/><path stroke="#000" stroke-linecap="round" stroke-linejoin="round" stroke-miterlimit="10" d="M23.5 19.7c0 .995-.716 1.8-1.6 1.8h-12.8c-.884 0-1.601-.805-1.601-1.8v-8.399c.001-.994.718-1.801 1.602-1.801h12.8c.884 0 1.6.807 1.6 1.801v8.399zM8 18.5h15.5" fill="none"/><path d="M15.5 19.5c-.276 0-.5.225-.5.5 0 .276.224.5.5.5s.5-.224.5-.5c0-.275-.224-.5-.5-.5z"/></g></svg>