<svg xmlns="http://www.w3.org/2000/svg" width="24" height="24" viewBox="0 0 24 24"><g stroke="#000" stroke-linejoin="round" stroke-miterlimit="10" fill="none"><path stroke-linecap="round" d="M2.5 17c-1.104 0-2-.896-2-2s.896-2 2-2"/><path stroke-linecap="round" d="M6.5 20h-2c-1.104 0-2-.896-2-2v-6c0-1.104.896-2 2-2h2v10zM21.5 17c1.104 0 2-.896 2-2s-.896-2-2-2"/><path stroke-linecap="round" d="M17.5 20h2c1.104 0 2-.896 2-2v-6c0-1.104-.896-2-2-2h-2v10z"/><path d="M5 10c0-3.866 3.134-7 7-7 3.865 0 7 3.134 7 7"/></g></svg>