<svg xmlns="http://www.w3.org/2000/svg" width="24" height="24" viewBox="0 0 24 24"><g stroke="#000" stroke-linejoin="round" stroke-miterlimit="10" fill="none"><path stroke-linecap="round" d="M19.856 4.148c-.391-.391-1.024-.391-1.415-.001-.39.39-.39 1.023 0 1.416.392.389.392 1.022.001 1.413s-1.023.391-1.414 0c-.392-.391-1.024-.391-1.414 0s-.39 1.023 0 1.413c.39.392.39 1.025 0 1.415-.39.392-1.024.392-1.415 0-.391-.391-1.023-.391-1.414 0-.391.392-.391 1.022 0 1.414.391.39.391 1.023 0 1.414s-1.023.391-1.414 0-1.024-.391-1.414 0c-.391.391-.391 1.023 0 1.415.391.39.391 1.023 0 1.414s-1.023.391-1.414 0-1.024-.391-1.414 0c-.392.39-.392 1.023 0 1.413.39.392.39 1.024 0 1.415-.391.39-1.024.39-1.415 0-.39-.391-1.023-.391-1.414 0-.391.39-.391 1.022 0 1.414"/><path stroke-linecap="round" d="M2.885 16.875c-1.172 1.173-1.172 3.073 0 4.244s3.071 1.171 4.242 0l14.143-14.142c1.171-1.172 1.171-3.071 0-4.243-1.171-1.17-3.071-1.17-4.243 0l-14.142 14.141z"/><path d="M22.047 5.623c2.073 2.15 1.706 4.527.283 5.95l-10.605 10.607c-1.438 1.438-3.921 1.783-5.937-.286"/><path stroke-linecap="round" d="M2.108 18.227c-2.077-2.124-1.703-4.528-.283-5.946l10.607-10.607c1.408-1.411 3.576-1.81 5.974.274"/></g></svg>