<?xml version="1.0" encoding="iso-8859-1"?>
<!-- Generator: Adobe Illustrator 17.1.0, SVG Export Plug-In . SVG Version: 6.00 Build 0)  -->
<!DOCTYPE svg PUBLIC "-//W3C//DTD SVG 1.0//EN" "http://www.w3.org/TR/2001/REC-SVG-20010904/DTD/svg10.dtd">
<svg version="1.0" id="Outline_Version" xmlns="http://www.w3.org/2000/svg" xmlns:xlink="http://www.w3.org/1999/xlink" x="0px"
	 y="0px" width="24px" height="24px" viewBox="0 0 24 24" style="enable-background:new 0 0 24 24;" xml:space="preserve">
<g>
	<rect x="0.5" y="0.5" style="fill:none;stroke:#000000;stroke-linejoin:round;stroke-miterlimit:10;" width="23" height="23"/>
	<line style="fill:none;stroke:#000000;stroke-linejoin:round;stroke-miterlimit:10;" x1="23.5" y1="17.5" x2="0.5" y2="17.5"/>
	<path style="fill:none;stroke:#000000;stroke-linejoin:round;stroke-miterlimit:10;" d="M9.5,3.5c-1.245,0-2.27,0.914-2.46,2.104
		C6.871,5.539,6.691,5.5,6.5,5.5C5.672,5.5,5,6.172,5,7s0.672,1.5,1.5,1.5h3C10.881,8.5,12,7.381,12,6S10.881,3.5,9.5,3.5z"/>
	<path style="fill:none;stroke:#000000;stroke-linejoin:round;stroke-miterlimit:10;" d="M3.5,17.5c0,0,2-5,4.5-5s4.5,3,4.5,3
		l3.015-5.168C15.815,9.816,16.367,9.5,16.963,9.5c0.636,0,1.217,0.359,1.5,0.928L22,17.5"/>
</g>
</svg>
