<svg xmlns="http://www.w3.org/2000/svg" width="24" height="24" viewBox="0 0 24 24"><g><path stroke="#000" stroke-linecap="round" stroke-linejoin="round" stroke-miterlimit="10" d="M8.5 16.5h-6.5c-.826 0-1.5-.676-1.5-1.5v-13c0-.825.674-1.5 1.5-1.5h20c.824 0 1.5.675 1.5 1.5v13c0 .824-.676 1.5-1.5 1.5h-1.5M8.5 14.5h-6v-12h19v12h-1" fill="none"/><path stroke="#000" stroke-linejoin="round" stroke-miterlimit="10" fill="none" d="M11.5 12.5h6v10h-6z"/><path d="M13.5 14c-.277 0-.5.225-.5.5s.223.5.5.5c.275 0 .5-.225.5-.5s-.225-.5-.5-.5zM15.5 14c-.277 0-.5.225-.5.5s.223.5.5.5c.275 0 .5-.225.5-.5s-.225-.5-.5-.5zM13.5 16c-.277 0-.5.225-.5.5s.223.5.5.5c.275 0 .5-.225.5-.5s-.225-.5-.5-.5zM15.5 16c-.277 0-.5.225-.5.5s.223.5.5.5c.275 0 .5-.225.5-.5s-.225-.5-.5-.5zM13.5 18c-.277 0-.5.225-.5.5s.223.5.5.5c.275 0 .5-.225.5-.5s-.225-.5-.5-.5zM15.5 18c-.277 0-.5.225-.5.5s.223.5.5.5c.275 0 .5-.225.5-.5s-.225-.5-.5-.5z"/><path stroke="#000" stroke-linecap="round" stroke-linejoin="round" stroke-miterlimit="10" d="M17.893 6.963c-1.998-1.227-4.51-1.274-6.549-.14M16.85 8.666c-1.385-.847-3.123-.881-4.535-.097M15.803 10.374c-.77-.471-1.729-.484-2.512-.049" fill="none"/></g></svg>