<svg xmlns="http://www.w3.org/2000/svg" width="24" height="24" viewBox="0 0 24 24"><g><path stroke="#000" stroke-linecap="round" stroke-linejoin="round" stroke-miterlimit="10" d="M20.5 21.5c0 1.104-.895 2-2 2h-13c-1.104 0-2-.896-2-2v-19c0-1.104.896-2 2-2h13c1.105 0 2 .896 2 2v19zM5.5 3.5h13v16h-13z" fill="none"/><path d="M12 1.5c-.276 0-.5.224-.5.5s.224.5.5.5.5-.224.5-.5-.224-.5-.5-.5z"/><path stroke="#000" stroke-linejoin="round" stroke-miterlimit="10" d="M12.5 21.5c0 .276-.224.5-.5.5s-.5-.224-.5-.5.224-.5.5-.5.5.224.5.5z" fill="none"/></g></svg>