<svg xmlns="http://www.w3.org/2000/svg" width="24" height="24" viewBox="0 0 24 24"><g stroke="#000" stroke-linejoin="round" stroke-miterlimit="10" fill="none"><path stroke-linecap="round" d="M9.5 12.5l13.336 4.764c.397.142.664.519.664.941v2.295h-23v-7c0-.552.447-1 1-1h1c0 .829 1.756 1.5 3.5 1.5 2.209 0 3.5-.671 3.5-1.5z"/><path d="M.5 18.5h23"/><path stroke-linecap="round" d="M12.075 13.42l-1.075 1.08M13.92 14.079l-.92.921"/><path d="M17.5 15.357c0 .553-.448 1.143-1 1.143h-3c-.829 0-1.5.672-1.5 1.5v.5"/><path stroke-linecap="round" d="M3.5 18.5c0-1.656-1.344-3-3-3"/><path stroke-linecap="round" d="M14.5 11.5l-13.337-4.764c-.398-.141-.663-.518-.663-.94v-2.296h23v7c0 .553-.448 1-1 1h-1c0-.828-1.758-1.5-3.5-1.5-2.21 0-3.5.672-3.5 1.5z"/><path d="M23.5 5.5h-23"/><path stroke-linecap="round" d="M11.924 10.58l1.076-1.08M10.078 9.921l.922-.921"/><path d="M6.5 8.643c0-.552.447-1.143 1-1.143h3c.827 0 1.5-.671 1.5-1.5v-.5"/><path stroke-linecap="round" d="M20.5 5.5c0 1.657 1.342 3 3 3"/></g></svg>