<svg xmlns="http://www.w3.org/2000/svg" width="24" height="24" viewBox="0 0 24 24"><g><path d="M15 17h-6c-.552 0-1 .449-1 1v1h8v-1c0-.551-.449-1-1-1zM18.5 10.5h-1.5v-.5h1.5c.827 0 1.5-.673 1.5-1.5v-5c0-1.93-1.57-3.5-3.5-3.5h-9c-1.93 0-3.5 1.57-3.5 3.5v5c0 .827.673 1.5 1.5 1.5h1.5v.5h-1.5c-.276 0-.5.224-.5.5v12.5c0 .275.224.5.5.5h1.5v-6c0-1.104.896-2 2-2h6c1.103 0 2 .896 2 2v6h1.5c.276 0 .5-.225.5-.5v-12.5c0-.276-.224-.5-.5-.5zm-9.5 1.5h-1v-4h1v4zm5-1.5h-4v-.5h4v.5zm2 1.5h-1v-4h1v4zM8 20h8v4h-8zM4 16h-1.5c-1.104 0-2 .896-2 2v1h4v-2.5c0-.276-.224-.5-.5-.5zM.5 22.5c0 .827.672 1.5 1.5 1.5h2c.276 0 .5-.225.5-.5v-3.5h-4v2.5zM19.5 23.5c0 .275.224.5.5.5h2c.827 0 1.5-.673 1.5-1.5v-2.5h-4v3.5zM21.5 16h-1.5c-.276 0-.5.224-.5.5v2.5h4v-1c0-1.104-.897-2-2-2z"/></g></svg>