<svg xmlns="http://www.w3.org/2000/svg" width="24" height="24" viewBox="0 0 24 24"><path d="M12 1c-6.617 0-12 4.434-12 9.883 0 2.575 1.177 4.985 3.325 6.832l-2.41 4.811c-.096.189-.06.418.088.572.097.098.227.152.359.152l.211-.047 6.437-2.995c1.278.37 2.619.558 3.99.558 6.617 0 12-4.434 12-9.883s-5.383-9.883-12-9.883zm.794 15.904c-.087.064-.191.096-.294.096s-.207-.032-.294-.096c-.233-.169-5.706-4.186-5.706-7.367 0-2.214 1.639-3.537 3.223-3.537.951 0 2.071.492 2.777 1.784.706-1.292 1.826-1.784 2.777-1.784 1.584 0 3.223 1.323 3.223 3.537 0 3.181-5.473 7.198-5.706 7.367z"/></svg>