<svg xmlns="http://www.w3.org/2000/svg" width="24" height="24" viewBox="0 0 24 24"><g><path d="M17.5 5h6.5v-3c0-1.102-.897-2-2-2h-18.5c-.276 0-.5.225-.5.5v10c0 .276.224.5.5.5h1.5v1.993h-.5c-.276 0-.5.224-.5.5v1.007h-3.5c-.276 0-.5.225-.5.5 0 .276.224.5.5.5h3.5v.993c0 .276.224.5.5.5h1.5v.5c0 .276.224.5.5.5s.5-.223.5-.5v-.5h1.5c.276 0 .5-.224.5-.5v-3c0-.276-.224-.5-.5-.5h-.5v-1.993h2v9h-9.5c-.276 0-.5.225-.5.5v3c0 .276.224.5.5.5h17.5v-11.5c0-.275.224-.5.5-.5h5.5v-2h-6.5c-.276 0-.5-.224-.5-.5 0-.275.224-.5.5-.5h6.5v-1h-6.5c-.276 0-.5-.224-.5-.5 0-.275.224-.5.5-.5h6.5v-1h-6.5c-.276 0-.5-.224-.5-.5 0-.275.224-.5.5-.5zm-10.5 7.993h-1v-1.993h1v1.993zm0-6.993c-1.104 0-2-.896-2-2 0-1.102.896-2 2-2 1.103 0 2 .898 2 2 0 1.104-.897 2-2 2zM19 24h4.5c.276 0 .5-.224.5-.5v-10.5h-5v11z"/></g></svg>