<svg xmlns="http://www.w3.org/2000/svg" width="24" height="24" viewBox="0 0 24 24"><path d="M23.5 10h-2.855c-.2-.79-.454-1.667-.778-2.332l2.032-2.032c.094-.094.146-.222.146-.353 0-.133-.053-.261-.146-.354l-2.829-2.827c-.195-.196-.512-.196-.707 0l-2.033 2.031c-.664-.324-1.541-.578-2.33-.778v-2.855c0-.276-.224-.5-.5-.5h-3c-.276 0-.5.224-.5.5v2.855c-.79.2-1.667.454-2.331.778l-2.033-2.031c-.195-.196-.512-.196-.707 0l-2.829 2.827c-.195.194-.195.512 0 .707l2.033 2.033c-.322.663-.578 1.54-.779 2.331h-2.854c-.276 0-.5.224-.5.5v3c0 .276.224.5.5.5h2.854c.201.791.456 1.668.779 2.332l-2.033 2.033c-.094.093-.146.22-.146.353s.053.26.146.354l2.829 2.828c.188.188.52.188.707 0l2.033-2.032c.663.322 1.541.577 2.332.778v2.854c0 .276.224.5.5.5h3c.276 0 .5-.224.5-.5v-2.854c.791-.201 1.668-.456 2.331-.778l2.034 2.032c.195.195.512.195.707 0l2.828-2.828c.195-.195.195-.512 0-.706l-2.032-2.033c.323-.664.578-1.541.778-2.332h2.853c.276 0 .5-.224.5-.5v-3c0-.277-.224-.501-.5-.501zm-11.5 6c-2.206 0-4-1.795-4-4s1.794-4 4-4 4 1.795 4 4-1.794 4-4 4z"/></svg>