<svg xmlns="http://www.w3.org/2000/svg" width="24" height="24" viewBox="0 0 24 24"><path d="M22.5 3h-21c-.827 0-1.5.673-1.5 1.5v11.999c0 .797.614 1.528 1.399 1.665l8.101 1.408v2.07c-1.997.225-3.799.71-5.142 1.415-.245.127-.339.43-.211.674s.43.339.676.211c1.313-.689 3.118-1.157 5.129-1.348l.048.01.099-.02c.618-.054 1.253-.086 1.901-.086 2.813 0 5.429.527 7.177 1.444.074.038.153.056.231.056.181 0 .354-.096.443-.267.129-.244.034-.547-.21-.674-1.343-.705-3.146-1.19-5.142-1.415v-2.07l8.1-1.409c.785-.137 1.4-.868 1.4-1.665v-11.998c.001-.827-.672-1.5-1.499-1.5zm-10.5 14.999c-.276 0-.5-.223-.5-.5 0-.276.224-.5.5-.5s.5.224.5.5-.224.5-.5.5zm10-1.999h-20v-11h20v11z"/></svg>