<svg xmlns="http://www.w3.org/2000/svg" width="24" height="24" viewBox="0 0 24 24"><g><path d="M21.5 4h-2.5v-1.5c0-.275-.225-.5-.5-.5h-15c-.276 0-.5.225-.5.5v2h1.5c.551 0 1 .449 1 1 0 .553-.449 1-1 1h-1.5v1h1.5c.551 0 1 .449 1 1 0 .553-.449 1-1 1h-1.5v1h1.5c.551 0 1 .449 1 1 0 .553-.449 1-1 1h-1.5v1h1.5c.551 0 1 .449 1 1 0 .553-.449 1-1 1h-1.5v1h1.5c.551 0 1 .449 1 1 0 .553-.449 1-1 1h-1.5v1h1.5c.551 0 1 .449 1 1 0 .553-.449 1-1 1h-1.5v2c0 .276.224.5.5.5h15c.275 0 .5-.224.5-.5v-2.5h2.5c.275 0 .5-.224.5-.5v-16c0-.275-.225-.5-.5-.5zm-6.5 6.5c0 .276-.225.5-.5.5h-6c-.276 0-.5-.224-.5-.5v-4c0-.275.224-.5.5-.5h6c.275 0 .5.225.5.5v4zm6 9.5h-2v-3h2v3zm0-4h-2v-3h2v3zm0-4h-2v-3h2v3zm0-4h-2v-3h2v3zM2.5 6h2c.275 0 .5-.225.5-.5s-.225-.5-.5-.5h-2c-.276 0-.5.225-.5.5s.224.5.5.5zM2.5 9h2c.275 0 .5-.225.5-.5s-.225-.5-.5-.5h-2c-.276 0-.5.225-.5.5s.224.5.5.5zM2.5 12h2c.275 0 .5-.225.5-.5s-.225-.5-.5-.5h-2c-.276 0-.5.225-.5.5s.224.5.5.5zM2.5 15h2c.275 0 .5-.225.5-.5s-.225-.5-.5-.5h-2c-.276 0-.5.225-.5.5s.224.5.5.5zM2.5 18h2c.275 0 .5-.225.5-.5s-.225-.5-.5-.5h-2c-.276 0-.5.225-.5.5s.224.5.5.5zM5 20.5c0-.275-.225-.5-.5-.5h-2c-.276 0-.5.225-.5.5s.224.5.5.5h2c.275 0 .5-.225.5-.5z"/></g></svg>