<svg xmlns="http://www.w3.org/2000/svg" width="24" height="24" viewBox="0 0 24 24"><g><path d="M10 17.5c0-4.135 3.364-7.5 7.5-7.5 1.471 0 2.84.432 4 1.167v-6.667c0-.276-.225-.5-.5-.5h-17c-.827 0-1.5-.673-1.5-1.5s.673-1.5 1.5-1.5h17c.275 0 .5-.224.5-.5s-.225-.5-.5-.5h-17c-1.379 0-2.5 1.122-2.5 2.5v19c0 1.378 1.121 2.5 2.5 2.5h9.773c-2.251-1.294-3.773-3.721-3.773-6.5zM17.5 11c-3.584 0-6.5 2.916-6.5 6.5s2.916 6.5 6.5 6.5 6.5-2.916 6.5-6.5-2.916-6.5-6.5-6.5zm2.354 7.354l-2 1.999-.163.109-.191.038-.191-.038-.163-.109-1.999-1.999c-.195-.195-.195-.512 0-.707s.512-.195.707 0l1.146 1.146v-3.793c0-.276.224-.5.5-.5.275 0 .5.224.5.5v3.793l1.146-1.146c.195-.195.512-.195.707 0s.196.512.001.707zM4 2c-.276 0-.5.224-.5.5s.224.5.5.5h16c.275 0 .5-.224.5-.5s-.225-.5-.5-.5h-16z"/></g></svg>