<svg xmlns="http://www.w3.org/2000/svg" width="24" height="24" viewBox="0 0 24 24"><g><path d="M.5 4c0 1.104.896 2 2 2h1.5c1.378 0 2.5-1.121 2.5-2.5v-3c0-.276-.224-.5-.5-.5h-2.5c-1.316 0-2.434.853-2.838 2.033l-.162-.033c-.276 0-.5.224-.5.5v1c0 .276.224.5.5.5zM9.5 6h1.5c1.103 0 2-.896 2-2 .276 0 .5-.224.5-.5v-1c0-.276-.224-.5-.5-.5l-.163.033c-.404-1.18-1.522-2.033-2.837-2.033h-2.5c-.276 0-.5.224-.5.5v3c0 1.379 1.121 2.5 2.5 2.5zM16 13h7v8h-7zM18 24h3c1.103 0 2-.896 2-2h-7c0 1.104.896 2 2 2zM17.5 6c.548 0 1.159.412 1.396 1h-.396c-.276 0-.5.224-.5.5v1.843c-1.036.494-1.791 1.481-1.961 2.657h6.921c-.17-1.176-.924-2.163-1.96-2.657v-1.843c0-.276-.224-.5-.5-.5h-.557c-.246-1.11-1.282-2-2.443-2h-1c-2.355 0-3.5 1.309-3.5 4v7.75c0 4.148-1.935 6.25-5.75 6.25-3.446 0-6.25-2.804-6.25-6.25v-3.75c0-1.787 1.348-3.263 3.079-3.472.233.846 1.001 1.472 1.921 1.472 1.103 0 2-.896 2-2 0-1.102-.897-2-2-2-.938 0-1.721.65-1.937 1.522-2.277.221-4.063 2.144-4.063 4.478v3.75c0 3.998 3.252 7.25 7.25 7.25 4.353 0 6.75-2.574 6.75-7.25v-7.75c0-2.637 1.201-3 2.5-3h1z"/></g></svg>