<svg xmlns="http://www.w3.org/2000/svg" width="24" height="24" viewBox="0 0 24 24"><path d="M20.5 2c-1.93 0-3.5 1.57-3.5 3.5 0 .17.018.336.041.5h-9.314l-3.5-4h-4.227v1h3.772l2.625 3h-1.897c-.202 0-.385.122-.462.309-.078.187-.035.402.108.545l7.854 7.854v8.292h-3.5c-.276 0-.5.225-.5.5 0 .276.224.5.5.5h8c.276 0 .5-.224.5-.5 0-.275-.224-.5-.5-.5h-3.5v-8.292l6.032-6.033c.458.211.958.325 1.468.325 1.93 0 3.5-1.569 3.5-3.5 0-1.93-1.57-3.5-3.5-3.5zm0 6c-.237 0-.471-.033-.695-.098l1.049-1.049c.143-.143.186-.357.108-.544s-.26-.309-.462-.309h-2.445c-.034-.162-.055-.329-.055-.5 0-1.378 1.121-2.5 2.5-2.5 1.378 0 2.5 1.122 2.5 2.5 0 1.379-1.122 2.5-2.5 2.5z"/></svg>