<svg xmlns="http://www.w3.org/2000/svg" width="24" height="24" viewBox="0 0 24 24"><g><path d="M5.5 5c-.827 0-1.5.672-1.5 1.5v11.5h-2.5c-.276 0-.5.224-.5.5 0 .275.224.5.5.5h2.5v4h-3.5c-.276 0-.5.224-.5.5 0 .275.224.5.5.5h6c.276 0 .5-.225.5-.5v-17c0-.828-.673-1.5-1.5-1.5zM23.8 16.1l-1.8-1.35v-5.25c0-1.379-1.122-2.5-2.5-2.5h-2c-5.238 0-9.5 4.262-9.5 9.5v5.5c0 .275.224.5.5.5h2.119c-.161-.308-.271-.645-.327-1h-1.292v-3.293l4-4 .146.146c.098.098.226.146.354.146s.256-.049.354-.146c.195-.195.195-.512 0-.707l-1-1c-.195-.195-.512-.195-.707 0s-.195.512 0 .707l.146.146-3.293 3.294v-.293c0-4.688 3.812-8.5 8.5-8.5h2c.827 0 1.5.672 1.5 1.5v5h-2.36l.845-3.379c.067-.268-.096-.539-.363-.606-.269-.066-.54.096-.606.364l-.907 3.621h-1.609c-.133 0-.26.053-.354.146l-2.5 2.5c-.08.08-.131.186-.144.298l-.04.354c.176-.03.354-.049.537-.049 1.792 0 3.25 1.457 3.25 3.25 0 .541-.135 1.051-.37 1.5h1.975c-.062-.214-.104-.434-.104-.668 0-1.332 1.084-2.416 2.416-2.416 1.333 0 2.417 1.084 2.417 2.416 0 .234-.044.454-.105.668h.522c.276 0 .5-.225.5-.5v-5.5c0-.156-.074-.305-.2-.399zM20.666 19.916c-1.057 0-1.916.86-1.916 1.916 0 1.058.859 1.918 1.916 1.918 1.058 0 1.917-.86 1.917-1.918 0-1.056-.859-1.916-1.917-1.916zM13.5 18.25c-1.517 0-2.75 1.233-2.75 2.75 0 1.516 1.233 2.75 2.75 2.75 1.516 0 2.75-1.234 2.75-2.75 0-1.517-1.234-2.75-2.75-2.75z"/></g></svg>