<svg xmlns="http://www.w3.org/2000/svg" width="24" height="24" viewBox="0 0 24 24"><g><path d="M18.5 14.9c-.012-6.299-1.083-12.956-2.741-14.544-.184-.215-.454-.356-.759-.356-.553 0-1 .448-1 1v22.001c0 .552.447 1 1 1 .552 0 1-.448 1-1v-7.5h2.01c.276 0 .5-.225.5-.5l-.01-.101zM11 0c-.553 0-1 .448-1 1v4.5c0 .737-.405 1.375-1 1.723v-6.223c0-.552-.448-1-1-1-.553 0-1 .448-1 1v6.223c-.596-.348-1-.986-1-1.723v-4.5c0-.552-.448-1-1-1-.553 0-1 .448-1 1v4.5c0 1.86 1.277 3.423 3 3.869v13.632c0 .552.447 1 1 1 .552 0 1-.448 1-1v-13.632c1.722-.446 3-2.009 3-3.869v-4.5c0-.552-.448-1-1-1z"/></g></svg>