<svg xmlns="http://www.w3.org/2000/svg" width="24" height="24" viewBox="0 0 24 24"><g><circle cx="11.5" cy="10.5" r="1.5"/><path d="M9.549 23.717c.083.172.259.283.451.283h1v-11.051c-1.14-.232-2-1.242-2-2.449 0-1.379 1.122-2.5 2.5-2.5s2.5 1.121 2.5 2.5c0 1.207-.86 2.217-2 2.449v11.051h1c.192 0 .368-.111.451-.283l6-12.5c.074-.154.064-.334-.025-.479l-3.531-5.738h-8.79l-3.531 5.738c-.089.145-.099.324-.025.479l6 12.5zM15.809 4l1.638-3.276c.077-.155.069-.339-.022-.485-.091-.149-.252-.239-.425-.239h-11.5c-.182 0-.349.1-.437.258-.088.158-.083.353.013.508l2.022 3.234h8.711z"/></g></svg>