<svg xmlns="http://www.w3.org/2000/svg" width="24" height="24" viewBox="0 0 24 24"><g><path d="M11.012 17.5c4.688 0 8.5-3.813 8.5-8.5 0-4.688-3.812-8.5-8.5-8.5s-8.5 3.812-8.5 8.5c0 4.687 3.812 8.5 8.5 8.5zM19.144 17.132c4.364-4.365 4.468-11.386.335-15.893l.373-.372c.195-.195.195-.512 0-.707-.195-.195-.512-.195-.708 0l-1.414 1.415c-.195.195-.195.512 0 .708.098.098.225.146.354.146.127 0 .256-.048.353-.146l.335-.336c3.744 4.116 3.639 10.504-.335 14.478-3.974 3.975-10.362 4.078-14.478.336l.336-.336c.195-.196.195-.512 0-.707-.195-.195-.512-.195-.707 0l-1.414 1.416c-.196.195-.196.511 0 .707.098.098.225.147.354.147.127 0 .256-.049.354-.147l.371-.372c1.93 1.77 4.312 2.768 6.76 2.98v.605c-1.91.182-3.719.876-5.281 2.047-.172.129-.242.354-.176.559.067.202.258.34.473.34h11.965c.215 0 .406-.138.475-.341.066-.206-.004-.43-.176-.559-1.562-1.171-3.373-1.865-5.281-2.047v-.605c2.603-.227 5.144-1.329 7.132-3.316z"/></g></svg>