<svg xmlns="http://www.w3.org/2000/svg" width="24" height="24" viewBox="0 0 24 24"><g><path d="M0 14.5c0 .814.396 1.531 1 1.987v-3.974c-.604.457-1 1.174-1 1.987zM19.5 9h-.025c-.26-3.902-3.508-7-7.475-7s-7.215 3.098-7.475 7h-.025c-1.378 0-2.5 1.122-2.5 2.5v6c0 1.379 1.122 2.5 2.5 2.5h2c.276 0 .5-.224.5-.5v-10c0-.276-.224-.5-.5-.5h-.975c.257-3.35 3.059-6 6.475-6s6.218 2.65 6.475 6h-.975c-.276 0-.5.224-.5.5v10c0 .276.224.5.5.5h2c1.378 0 2.5-1.121 2.5-2.5v-6c0-1.378-1.122-2.5-2.5-2.5zM23 12.514v3.974c.604-.456 1-1.173 1-1.987 0-.814-.396-1.531-1-1.987z"/></g></svg>