<svg xmlns="http://www.w3.org/2000/svg" width="24" height="24" viewBox="0 0 24 24"><path d="M22.057 8.307l-1.902-1.902.963-2.889c.059-.18.013-.377-.121-.512-.135-.135-.332-.181-.512-.119l-2.889.961-1.902-1.902c-.15-.15-.379-.189-.57-.098-.191.094-.305.295-.281.506l.317 2.852-2.892 1.606c-.181.101-.281.302-.252.507s.182.371.383.418l1.994.459-12.1 12.1c-.391.391-.391 1.023 0 1.414.195.194.451.292.707.292s.512-.098.707-.293l12.1-12.098.459 1.992c.047.201.212.354.418.383l.07.006c.18 0 .348-.097.437-.258l1.606-2.893 2.852.318c.213.023.413-.09.506-.281.091-.19.052-.419-.098-.569z"/></svg>