<svg xmlns="http://www.w3.org/2000/svg" width="24" height="24" viewBox="0 0 24 24"><g><path d="M1.146 23.066c.195.196.512.196.707 0l1.768-1.768.354.354c.195.195.512.195.707 0l1.768-1.768.354.354c.098.098.226.146.354.146s.256-.049.354-.146l9.404-9.404-3.535-3.535-9.404 9.404c-.094.093-.146.221-.146.354s.053.26.146.353l.354.354-1.768 1.769c-.195.194-.195.51 0 .707l.354.353-1.768 1.769c-.198.193-.198.509-.003.704zM17.621 10.127l5.445-5.445c.094-.094.146-.221.146-.353 0-.133-.053-.261-.146-.354l-2.828-2.828c-.195-.195-.512-.195-.707 0l-.39.389c-.405-.269-.881-.414-1.378-.414-.668 0-1.296.26-1.769.732l-5.655 5.656c-.195.195-.195.512 0 .707.195.195.512.195.707 0l5.656-5.656c.444-.443 1.144-.535 1.699-.284l-4.315 4.315 3.535 3.535z"/></g></svg>