<svg xmlns="http://www.w3.org/2000/svg" width="24" height="24" viewBox="0 0 24 24"><g><path d="M13 19.97l-1.923-2.778c-.893-1.013-.846-2.545.112-3.502.483-.482 1.126-.75 1.811-.75.751 0 1.436.298 2 .967v-4.906c0-1.103-.897-2-2-2h-7c-1.104 0-2 .897-2 2v11c0 1.103.896 2 2 2h7.116c-.069-.314-.116-.634-.116-.962v-1.069zm-1.5-9.969c.276 0 .5.224.5.5 0 .275-.224.5-.5.5s-.5-.225-.5-.5c0-.276.224-.5.5-.5zm0 2c.276 0 .5.224.5.5 0 .275-.224.5-.5.5s-.5-.225-.5-.5c0-.276.224-.5.5-.5zm-4 7c-.276 0-.5-.225-.5-.5 0-.276.224-.5.5-.5s.5.224.5.5c0 .275-.224.5-.5.5zm0-2c-.276 0-.5-.225-.5-.5 0-.276.224-.5.5-.5s.5.224.5.5c0 .275-.224.5-.5.5zm0-2c-.276 0-.5-.225-.5-.5 0-.276.224-.5.5-.5s.5.224.5.5c0 .275-.224.5-.5.5zm0-2c-.276 0-.5-.225-.5-.5 0-.276.224-.5.5-.5s.5.224.5.5c0 .275-.224.5-.5.5zm0-2c-.276 0-.5-.225-.5-.5 0-.276.224-.5.5-.5s.5.224.5.5c0 .275-.224.5-.5.5zm2 8c-.276 0-.5-.225-.5-.5 0-.276.224-.5.5-.5s.5.224.5.5c0 .275-.224.5-.5.5zm0-2c-.276 0-.5-.225-.5-.5 0-.276.224-.5.5-.5s.5.224.5.5c0 .275-.224.5-.5.5zm0-2c-.276 0-.5-.225-.5-.5 0-.276.224-.5.5-.5s.5.224.5.5c0 .275-.224.5-.5.5zm0-2c-.276 0-.5-.225-.5-.5 0-.276.224-.5.5-.5s.5.224.5.5c0 .275-.224.5-.5.5zm0-2c-.276 0-.5-.225-.5-.5 0-.276.224-.5.5-.5s.5.224.5.5c0 .275-.224.5-.5.5zM5.125 2.345c1.316-.88 2.852-1.345 4.437-1.345 1.585 0 3.119.465 4.436 1.345.086.058.183.084.277.084.162 0 .32-.078.417-.223.153-.229.091-.54-.139-.693-1.481-.99-3.207-1.513-4.991-1.513-1.785 0-3.51.523-4.993 1.513-.229.153-.291.464-.137.693s.463.292.693.139zM13.166 4.092c.162 0 .32-.076.416-.221.154-.23.092-.541-.138-.694-1.151-.77-2.494-1.177-3.882-1.177s-2.73.407-3.882 1.177c-.231.153-.292.464-.139.694.153.229.464.291.693.137.989-.658 2.139-1.008 3.328-1.008s2.34.35 3.326 1.008c.087.056.183.084.278.084zM6.788 4.841c-.229.153-.291.464-.138.694.152.228.463.29.693.137 1.315-.878 3.118-.879 4.438 0 .085.057.182.084.276.084.162 0 .32-.078.417-.223.153-.229.091-.539-.139-.693-1.647-1.1-3.902-1.098-5.547.001zM21.434 23.253l-1.934-3.385v-4.426c0-1.228-.307-2.318-.928-3.329-.419-.675-.933-1.297-1.748-1.992l-.002-.002c-.148-.126-.356-.152-.532-.072-.177.082-.29.259-.29.454v6.136l-1-1.181v-.002l-.896-1.058c-.296-.294-.688-.457-1.104-.457s-.81.163-1.104.457c-.589.59-.613 1.533-.055 2.15l.04.051 2.029 2.931c.059.084.09.183.09.284 0 1.298-.112 2.189.651 3.263l.526.735c.094.131.245.208.406.208h.001l2.982-.01 2.435-.008c.178-.001.342-.096.431-.25s.09-.343.002-.497z"/></g></svg>