<svg xmlns="http://www.w3.org/2000/svg" width="24" height="24" viewBox="0 0 24 24"><g><path d="M13.854 7.854c-.088.088-.215.146-.354.146-.128 0-.254-.049-.354-.146l-3-3c-.195-.195-.195-.512 0-.707s.512-.195.707 0l2.147 2.146v-5.793c0-.276.225-.5.5-.5.276 0 .5.224.5.5v5.793l2.146-2.146c.195-.195.512-.195.707 0s.195.512 0 .707l-2.999 3zM.5 3h3.5c.232 0 .434.16.487.386l1.322 5.614h17.691c.161 0 .312.077.406.208s.119.299.068.451l-3 9c-.068.203-.258.341-.474.341h-12.339l.235 1h10.604c1.104 0 2 .898 2 2 0 1.104-.896 2-2 2-1.103 0-2-.896-2-2 0-.365.106-.704.278-1h-7.555c.172.296.277.635.277 1 0 1.104-.896 2-2 2-1.103 0-2-.896-2-2 0-.89.588-1.637 1.394-1.896l-3.79-16.104h-3.104c-.275 0-.5-.224-.5-.5s.225-.5.5-.5z"/></g></svg>