<svg xmlns="http://www.w3.org/2000/svg" width="24" height="24" viewBox="0 0 24 24"><g><path d="M21.597 17.355c.919-1.643 1.403-3.486 1.403-5.355s-.484-3.712-1.403-5.354l1.524-1.523c.567-.568.879-1.321.879-2.123 0-.801-.312-1.555-.879-2.121s-1.32-.879-2.121-.879-1.555.312-2.121.879l-1.524 1.524c-1.642-.919-3.485-1.403-5.355-1.403s-3.713.484-5.354 1.403l-1.525-1.524c-.566-.567-1.32-.879-2.121-.879s-1.555.312-2.121.879c-.567.566-.879 1.32-.879 2.121 0 .802.312 1.555.879 2.122l1.523 1.523c-.918 1.642-1.402 3.485-1.402 5.355 0 1.871.484 3.715 1.402 5.355l-1.523 1.523c-1.17 1.17-1.17 3.073 0 4.243.566.567 1.32.879 2.121.879s1.555-.312 2.121-.878l1.525-1.524c1.641.92 3.483 1.402 5.354 1.402s3.713-.482 5.354-1.402l1.524 1.524c.567.566 1.321.878 2.122.878s1.555-.312 2.121-.878c1.17-1.17 1.17-3.073 0-4.243l-1.524-1.524zm-.597-15.355c.553 0 1 .448 1 1 0 .553-.447 1-1 1s-1-.447-1-1c0-.552.447-1 1-1zm-19 1c0-.552.447-1 1-1s1 .448 1 1c0 .553-.447 1-1 1s-1-.447-1-1zm1 19c-.553 0-1-.447-1-1 0-.552.447-1 1-1s1 .448 1 1c0 .553-.447 1-1 1zm9-2c-4.41 0-8-3.589-8-8s3.59-8 8-8c4.412 0 8 3.589 8 8s-3.588 8-8 8zm9 2c-.553 0-1-.447-1-1 0-.552.447-1 1-1s1 .448 1 1c0 .553-.447 1-1 1zM12 9.5c-1.378 0-2.5 1.122-2.5 2.5 0 1.379 1.122 2.5 2.5 2.5 1.379 0 2.5-1.121 2.5-2.5 0-1.378-1.121-2.5-2.5-2.5z"/></g></svg>