<svg xmlns="http://www.w3.org/2000/svg" width="24" height="24" viewBox="0 0 24 24"><path d="M22.5 3h-6.5v-2.5c0-.276-.224-.5-.5-.5h-8c-.276 0-.5.224-.5.5v2.5h-6.5c-.276 0-.5.224-.5.5s.224.5.5.5h2.5v19.5c0 .276.224.5.5.5h16c.276 0 .5-.224.5-.5v-19.5h2.5c.276 0 .5-.224.5-.5s-.224-.5-.5-.5zm-14.5 15.5c0 .276-.224.5-.5.5s-.5-.224-.5-.5v-11c0-.276.224-.5.5-.5s.5.224.5.5v11zm0-17.5h7v2h-7v-2zm4 17.5c0 .276-.224.5-.5.5s-.5-.224-.5-.5v-11c0-.276.224-.5.5-.5s.5.224.5.5v11zm4 0c0 .276-.224.5-.5.5s-.5-.224-.5-.5v-11c0-.276.224-.5.5-.5s.5.224.5.5v11z"/></svg>