<svg xmlns="http://www.w3.org/2000/svg" width="24" height="24" viewBox="0 0 24 24"><g><path d="M15.357 10.641l-.13.094-2.583 1.292c-.187.093-.423.062-.577-.095-.152-.15-.19-.383-.094-.576l1.291-2.583.094-.13c2.986-2.985 6.643-6.643 6.643-6.643h-19.501c-.276 0-.5.224-.5.5v21c0 .276.224.5.5.5h19.5c.276 0 .5-.224.5-.5v-18.002l-1 1-4.143 4.143zm4.143 11.859c0 .276-.224.5-.5.5h-17.5c-.276 0-.5-.224-.5-.5v-19c0-.276.224-.5.5-.5h14.609c.276 0 .5.224.5.5 0 .277-.224.5-.5.5h-14.109v18h16.5v-10.914c0-.275.224-.5.5-.5s.5.225.5.5v11.414zM23.471.8c-.112-.271-.448-.409-.689-.167l-.938.938.584.584.938-.937c.132-.132.166-.27.105-.418zM14.124 9.292l-.584 1.169 1.168-.585 7.013-7.014-.584-.584z"/></g></svg>