<svg version="1" xmlns="http://www.w3.org/2000/svg" width="24" height="24" viewBox="0 0 24 24"><path d="M20 16h-1v-5.092c.581-.207 1-.757 1-1.408v-6c0-1.93-1.57-3.5-3.5-3.5h-9c-1.93 0-3.5 1.57-3.5 3.5v6c0 .651.419 1.201 1 1.408v5.092h-1c-1.103 0-2 .897-2 2v4.5c0 .827.673 1.5 1.5 1.5h17c.827 0 1.5-.673 1.5-1.5v-4.5c0-1.103-.897-2-2-2zm0 1c.551 0 1 .449 1 1v1h-2v-2h1zm-15-13.5c0-1.378 1.122-2.5 2.5-2.5h9c1.378 0 2.5 1.122 2.5 2.5v6c0 .276-.224.5-.5.5h-1.5v-2.5c0-.276-.224-.5-.5-.5h-2c-.276 0-.5.224-.5.5v2.5h-4v-2.5c0-.276-.224-.5-.5-.5h-2c-.276 0-.5.224-.5.5v2.5h-1.5c-.276 0-.5-.224-.5-.5v-6zm10 4.5h1v4h-1v-4zm-7 0h1v4h-1v-4zm-4 9h1v2h-2v-1c0-.551.449-1 1-1zm-1 5.5v-2.5h2v3h-1.5c-.276 0-.5-.224-.5-.5zm3-6v-5.5h1v1.5c0 .276.224.5.5.5h2c.276 0 .5-.224.5-.5v-1.5h4v1.5c0 .276.224.5.5.5h2c.276 0 .5-.224.5-.5v-1.5h1v12h-1v-5c0-1.103-.897-2-2-2h-6c-1.103 0-2 .897-2 2v5h-1v-6.5zm10 2.5h-8v-1c0-.551.449-1 1-1h6c.551 0 1 .449 1 1v1zm-8 4v-3h8v3h-8zm12.5 0h-1.5v-3h2v2.5c0 .276-.224.5-.5.5z"/></svg>