<svg version="1" xmlns="http://www.w3.org/2000/svg" width="24" height="24" viewBox="0 0 24 24"><g><path d="M20.5 2.5c-.827 0-1.5.673-1.5 1.5s-.673 1.5-1.5 1.5-1.5-.673-1.5-1.5c0-1.654-1.346-3-3-3s-3 1.346-3 3v2h-1.5c-.276 0-.5.224-.5.5v1.091c-3.005 1.217-5 4.151-5 7.409 0 4.411 3.589 8 8 8s8-3.589 8-8c0-3.258-1.995-6.192-5-7.409v-1.091c0-.276-.224-.5-.5-.5h-2.5v-2c0-1.103.897-2 2-2 1.102 0 2 .897 2 2 0 1.378 1.121 2.5 2.5 2.5s2.5-1.122 2.5-2.5c0-.276.225-.5.5-.5.276 0 .5-.224.5-.5s-.224-.5-.5-.5zm-7.167 5.907c2.791.989 4.667 3.638 4.667 6.593 0 3.86-3.141 7-7 7s-7-3.14-7-7c0-2.955 1.876-5.604 4.667-6.593.199-.071.333-.26.333-.471v-.936h4v.936c0 .211.134.4.333.471zM7.569 10.078c-2.713 1.892-3.383 5.638-1.491 8.352.097.14.253.214.41.214.099 0 .199-.029.286-.09.227-.158.282-.469.124-.696-1.576-2.262-1.019-5.384 1.243-6.96.227-.158.282-.47.124-.696-.159-.226-.47-.281-.696-.124z"/></g></svg>