<svg version="1" xmlns="http://www.w3.org/2000/svg" width="24" height="24" viewBox="0 0 24 24"><g><path d="M22.5 2h-21c-.827 0-1.5.673-1.5 1.5v13c0 .827.673 1.5 1.5 1.5h1.5v3.5c0 .202.122.385.309.462l.191.038c.13 0 .258-.051.353-.146l3.854-3.854h14.793c.827 0 1.5-.673 1.5-1.5v-13c0-.827-.673-1.5-1.5-1.5zm.5 14.5c0 .276-.224.5-.5.5h-15c-.133 0-.26.053-.353.146l-3.147 3.147v-2.793c0-.276-.224-.5-.5-.5h-2c-.276 0-.5-.224-.5-.5v-13c0-.276.224-.5.5-.5h21c.276 0 .5.224.5.5v13z"/><circle cx="8.5" cy="10" r="1"/><circle cx="16.5" cy="10" r="1"/><circle cx="12.5" cy="10" r="1"/></g></svg>