<svg version="1" xmlns="http://www.w3.org/2000/svg" width="24" height="24" viewBox="0 0 24 24"><g><path d="M12 0c-6.617 0-12 4.434-12 9.883 0 2.575 1.177 4.987 3.325 6.832l-2.41 4.811c-.095.19-.06.42.089.573.096.099.226.151.358.151l.211-.047 6.437-2.996c1.278.371 2.62.559 3.99.559 6.617 0 12-4.434 12-9.883s-5.383-9.883-12-9.883zm0 18.766c-1.338 0-2.645-.192-3.883-.57-.118-.036-.245-.028-.357.025l-5.308 2.471 1.946-3.883c.105-.211.049-.467-.135-.615-2.104-1.683-3.263-3.924-3.263-6.311 0-4.898 4.935-8.883 11-8.883s11 3.985 11 8.883-4.935 8.883-11 8.883zM15.276 4.999c-.951 0-2.07.492-2.776 1.784-.706-1.292-1.826-1.784-2.776-1.784-1.585 0-3.224 1.323-3.224 3.537 0 3.182 5.473 7.199 5.706 7.368.087.064.191.096.294.096s.206-.032.294-.096c.233-.169 5.706-4.186 5.706-7.368 0-2.214-1.639-3.537-3.224-3.537zm-2.776 9.877c-1.63-1.247-5-4.255-5-6.34 0-1.588 1.13-2.537 2.224-2.537 1.086 0 1.942.864 2.29 2.312.108.45.864.45.973 0 .348-1.447 1.204-2.312 2.29-2.312 1.093 0 2.224.949 2.224 2.537-.001 2.085-3.371 5.093-5.001 6.34z"/></g></svg>