<svg version="1" xmlns="http://www.w3.org/2000/svg" width="24" height="24" viewBox="0 0 24 24"><g><path d="M23.853 14.146l-1.853-1.853v-8.793c0-1.93-1.57-3.5-3.5-3.5h-13c-1.93 0-3.5 1.57-3.5 3.5v8.793l-1.854 1.853c-.093.094-.146.221-.146.354v3.5c0 1.103.897 2 2 2h2.211c-.422 1.031-1.066 2.149-2.064 3.146-.143.143-.186.358-.108.545.076.187.259.309.461.309h19c.211 0 .398-.132.47-.33.072-.198.012-.42-.149-.555-1.047-.872-1.705-2.021-2.119-3.116h2.298c1.102 0 2-.897 2-2v-3.5c0-.132-.053-.259-.147-.353zm-2.853-10.646v8.5h-7v-3.135c.904-.634 1.5-1.68 1.5-2.865s-.596-2.231-1.5-2.865v-2.135h4.5c1.379 0 2.5 1.122 2.5 2.5zm-9-1c-.35 0-.681.067-1 .163v-1.663h2v1.663c-.319-.096-.65-.163-1-.163zm0 1c1.379 0 2.5 1.122 2.5 2.5s-1.121 2.5-2.5 2.5-2.5-1.122-2.5-2.5 1.121-2.5 2.5-2.5zm0 6c.35 0 .681-.067 1-.163v2.663h-2v-2.663c.319.096.65.163 1 .163zm-6.5-8.5h4.5v2.135c-.904.634-1.5 1.68-1.5 2.865s.596 2.231 1.5 2.865v3.135h-7v-8.5c0-1.378 1.121-2.5 2.5-2.5zm-2.793 12h18.586l1 1h-20.586l1-1zm3.268 4h12.047c.058.788.276 2.387 1.017 4h-14.178c.808-1.675 1.048-3.231 1.114-4zm-2.359 6c.263-.33.49-.665.698-1h15.257c.212.342.443.68.716 1h-16.671zm18.384-4h-2.619c-.221-.826-.313-1.546-.352-2h2.971v-1h-20v1h2.967c-.044.447-.151 1.159-.402 2h-2.565c-.552 0-1-.449-1-1v-3h22v3c0 .551-.448 1-1 1zM5.75 10.031c.413 0 .75-.336.75-.75s-.337-.75-.75-.75-.75.337-.75.75c0 .414.337.75.75.75zm0-1c.138 0 .25.113.25.25 0 .275-.5.275-.5 0 0-.137.112-.25.25-.25zM16.5 5h3c.276 0 .5-.224.5-.5v-1.969c0-.276-.224-.5-.5-.5h-3c-.276 0-.5.224-.5.5v1.969c0 .276.224.5.5.5zm.5-1.969h2v.969h-2v-.969z"/></g></svg>