<svg version="1" xmlns="http://www.w3.org/2000/svg" width="24" height="24" viewBox="0 0 24 24"><g><path d="M22 3h-20c-1.103 0-2 .937-2 2.088v14.824c0 1.151.897 2.088 2 2.088h9.5v1h-6.5c-.276 0-.5.224-.5.5s.224.5.5.5h14c.276 0 .5-.224.5-.5s-.224-.5-.5-.5h-6.5v-1h9.5c1.103 0 2-.937 2-2.088v-14.824c0-1.151-.897-2.088-2-2.088zm-20 1h20c.551 0 1 .488 1 1.088v11.912h-22v-11.912c0-.6.449-1.088 1-1.088zm20 17h-20c-.551 0-1-.488-1-1.088v-1.912h22v1.912c0 .6-.449 1.088-1 1.088z"/><circle cx="12" cy="19.5" r="1"/></g></svg>