<svg version="1" xmlns="http://www.w3.org/2000/svg" width="24" height="24" viewBox="0 0 24 24"><g><path d="M22.5 3.002h-21c-.827 0-1.5.673-1.5 1.5v11.998c0 .797.615 1.529 1.399 1.665l8.101 1.409v2.069c-1.995.224-3.797.71-5.142 1.414-.244.128-.339.43-.211.675.129.245.431.339.676.211 1.75-.917 4.366-1.443 7.177-1.443.672 0 1.332.032 1.973.09l.027.005.013-.003c2.023.188 3.841.657 5.164 1.35.074.04.154.058.232.058.18 0 .354-.098.443-.268.128-.245.033-.547-.211-.675-1.345-.704-3.147-1.19-5.142-1.414v-2.069l8.101-1.41c.786-.135 1.4-.867 1.4-1.664v-11.998c0-.827-.673-1.5-1.5-1.5zm-9 18.553c-.493-.033-.992-.055-1.5-.055s-1.007.022-1.5.055v-1.807l.43.075c.289.05.669.079 1.07.079s.782-.028 1.071-.079l.429-.075v1.807zm9.5-5.055c0 .309-.267.626-.57.679l-8.421 1.465-.009-.002-.121.024-.98.17c-.461.081-1.333.081-1.798 0l-.986-.172-.115-.023-.009.002-8.421-1.464c-.303-.053-.57-.37-.57-.679v-11.998c0-.276.225-.5.5-.5h21c.275 0 .5.224.5.5v11.998zM21.5 5.002h-19c-.276 0-.5.224-.5.5v10c0 .276.224.5.5.5h19c.276 0 .5-.224.5-.5v-10c0-.276-.224-.5-.5-.5zm-.5 10h-18v-9h18v9z"/><circle cx="12" cy="17.5" r=".5"/></g></svg>