<svg version="1" xmlns="http://www.w3.org/2000/svg" width="24" height="24" viewBox="0 0 24 24"><g><path d="M5.5 9h-4.077c-.234 0-.423-.224-.423-.5v-.5h11.5c.276 0 .5-.224.5-.5v-6c0-.827-.639-1.5-1.423-1.5h-10.154c-.784 0-1.423.673-1.423 1.5v7c0 .827.639 1.5 1.423 1.5h4.077c.276 0 .5-.224.5-.5s-.224-.5-.5-.5zm-4.077-8h10.154c.233 0 .423.224.423.5v5.5h-11v-5.5c0-.276.189-.5.423-.5zM5.5 11h-3c-.276 0-.5.224-.5.5s.224.5.5.5h3c.276 0 .5-.224.5-.5s-.224-.5-.5-.5zM21.9 9h-12.8c-1.158 0-2.1 1.032-2.1 2.301v8.399c0 1.268.942 2.3 2.101 2.3h5.899v1h-3.5c-.276 0-.5.224-.5.5s.224.5.5.5h8c.276 0 .5-.224.5-.5s-.224-.5-.5-.5h-3.5v-1h5.9c1.158 0 2.1-1.032 2.1-2.3v-8.399c0-1.269-.941-2.301-2.1-2.301zm-13.9 2.301c0-.718.494-1.301 1.101-1.301h12.8c.606 0 1.1.583 1.1 1.301v6.699h-15.001v-6.699zm13.9 9.699h-12.8c-.606 0-1.1-.583-1.1-1.3v-.7h15v.7c0 .717-.493 1.3-1.1 1.3z"/><circle cx="15.5" cy="20" r=".5"/></g></svg>