<svg version="1" xmlns="http://www.w3.org/2000/svg" width="24" height="24" viewBox="0 0 24 24"><g><path d="M8.5 23h-6c-.827 0-1.5-.673-1.5-1.5v-17.013c.419.318.935.513 1.5.513h16.5v4c0 .276.224.5.5.5s.5-.224.5-.5v-4.5c0-.276-.224-.5-.5-.5h-17c-.827 0-1.5-.673-1.5-1.5s.673-1.5 1.5-1.5h17c.276 0 .5-.224.5-.5s-.224-.5-.5-.5h-17c-1.379 0-2.5 1.122-2.5 2.5l.034.333-.034.167v18.5c0 1.378 1.121 2.5 2.5 2.5h6c.276 0 .5-.224.5-.5s-.224-.5-.5-.5zM15.5 11c-3.584 0-6.5 2.916-6.5 6.5s2.916 6.5 6.5 6.5 6.5-2.916 6.5-6.5-2.916-6.5-6.5-6.5zm0 12c-3.032 0-5.5-2.467-5.5-5.5s2.468-5.5 5.5-5.5 5.5 2.467 5.5 5.5-2.468 5.5-5.5 5.5zM17.146 17.646l-1.146 1.147v-3.793c0-.276-.224-.5-.5-.5s-.5.224-.5.5v3.793l-1.147-1.146c-.195-.195-.512-.195-.707 0-.195.195-.195.512 0 .707l1.999 1.999.163.109.192.038.191-.038.163-.109 1.999-1.999c.195-.195.195-.512 0-.707-.195-.196-.511-.196-.707-.001zM2.5 2c-.276 0-.5.224-.5.5s.224.5.5.5h16c.276 0 .5-.224.5-.5s-.224-.5-.5-.5h-16z"/></g></svg>