<svg version="1" xmlns="http://www.w3.org/2000/svg" width="24" height="24" viewBox="0 0 24 24"><g><path d="M14.519 18c-.201-.023-.34.078-.435.222l-.562.843-1.094-1.823c-.18-.301-.678-.301-.857 0l-1.094 1.823-.561-.843c-.096-.144-.234-.243-.436-.222-.174.006-.331.103-.416.255-.261.465-1.564 2.832-1.564 3.745 0 1.103.897 2 2 2h5c1.102 0 2-.897 2-2 0-.913-1.303-3.28-1.565-3.745-.084-.151-.242-.248-.416-.255zm-.019 5h-5c-.552 0-1-.449-1-1 0-.349.491-1.465 1.045-2.531l.539.808c.095.142.256.224.428.223.172-.004.329-.096.417-.243l1.071-1.785 1.071 1.786c.088.147.245.238.417.243.164.003.333-.08.428-.223l.539-.809c.554 1.066 1.045 2.181 1.045 2.531 0 .551-.448 1-1 1zM19.5 5h-1.5v-2h.5c.276 0 .5-.224.5-.5s-.224-.5-.5-.5h-4.051c-.232-1.14-1.241-2-2.449-2-1.208 0-2.217.86-2.45 2h-4.05c-.276 0-.5.224-.5.5s.224.5.5.5h.5v2h-1.5c-.276 0-.5.224-.5.5s.224.5.5.5h1.5v7.5c0 1.378 1.121 2.5 2.5 2.5h7c1.379 0 2.5-1.122 2.5-2.5v-7.5h1.5c.276 0 .5-.224.5-.5s-.224-.5-.5-.5zm-7.5-4c.651 0 1.201.419 1.408 1h-2.816c.207-.581.757-1 1.408-1zm5 12.5c0 .827-.673 1.5-1.5 1.5h-7c-.827 0-1.5-.673-1.5-1.5v-10.5h10v10.5z"/></g></svg>