<svg version="1" xmlns="http://www.w3.org/2000/svg" width="24" height="24" viewBox="0 0 24 24"><path d="M23.853.854c.195-.195.195-.512 0-.707-.195-.195-.512-.195-.707 0l-6.853 6.853h-10.293v-1.5c0-.276-.224-.5-.5-.5h-3c-.276 0-.5.224-.5.5v1.5h-1.5c-.276 0-.5.224-.5.5v3c0 .276.224.5.5.5h1.5v10.5c0 .276.224.5.5.5h10.5v1.5c0 .276.224.5.5.5h3c.276 0 .5-.224.5-.5v-1.5h1.5c.276 0 .5-.224.5-.5v-3c0-.276-.224-.5-.5-.5h-1.5v-10.293l6.853-6.853zm-20.853 5.146h2v1h-2v-1zm-2 4v-2h15v10h-2v-7.5l-.039-.191c-.051-.123-.148-.22-.271-.271l-.19-.038h-12.5zm5 1h6.293l-6.293 6.293v-6.293zm7 .707v6.293h-6.293l6.293-6.293zm1 11.293v-1h2v1h-2zm4-4v2h-15v-10h2v7.5l.038.191c.051.122.148.22.271.271l.191.038h12.5z"/></svg>