<svg version="1" xmlns="http://www.w3.org/2000/svg" width="24" height="24" viewBox="0 0 24 24"><path d="M21.948 20.223c1.295-1.219 2.052-2.913 2.052-4.723 0-3.584-2.916-6.5-6.5-6.5-.963 0-1.884.215-2.748.62-.694-.326-1.452-.533-2.252-.595v-1.075c1.416-.24 2.5-1.467 2.5-2.95 0-1.654-1.346-3-3-3s-3 1.346-3 3c0 1.483 1.084 2.71 2.5 2.95v1.076c-.8.061-1.558.268-2.252.594-.865-.405-1.786-.62-2.748-.62-3.584 0-6.5 2.916-6.5 6.5 0 1.81.757 3.504 2.052 4.723-.683.349-1.041 1.063-1.041 1.777 0 .994.683 2 1.989 2h18c1.306 0 1.989-1.006 1.989-2 0-.714-.358-1.428-1.041-1.777zm-9.948-17.223c.929 0 1.705.64 1.929 1.5h-3.858c.224-.86 1-1.5 1.929-1.5zm-1.929 2.5h3.858c-.224.86-1 1.5-1.929 1.5s-1.705-.64-1.929-1.5zm-9.071 10c0-3.033 2.467-5.5 5.5-5.5.573 0 1.128.095 1.663.265-1.611 1.185-2.663 3.087-2.663 5.235 0 .738.123 1.464.366 2.157.091.26.377.399.637.306.26-.091.397-.377.306-.637-.205-.586-.309-1.201-.309-1.826 0-3.033 2.467-5.5 5.5-5.5s5.5 2.467 5.5 5.5c0 .637-.109 1.264-.324 1.862-.093.26.042.546.302.64l.169.029c.205 0 .397-.127.471-.331.254-.707.383-1.447.383-2.2 0-2.148-1.052-4.05-2.663-5.235.534-.17 1.088-.265 1.662-.265 3.033 0 5.5 2.467 5.5 5.5 0 1.796-.872 3.468-2.34 4.5h-17.32c-1.468-1.032-2.34-2.704-2.34-4.5zm20 7.5h-18c-.73 0-.989-.539-.989-1 0-.461.259-1 .989-1h18c.73 0 .989.539.989 1 0 .461-.259 1-.989 1z"/></svg>