<svg version="1" xmlns="http://www.w3.org/2000/svg" width="24" height="24" viewBox="0 0 24 24"><g><path d="M2 4c0 1.103.897 2 2 2h1.5c.821 0 1.544-.403 2-1.015.456.612 1.179 1.015 2 1.015h1.5c1.102 0 2-.897 2-2 .276 0 .5-.224.5-.5v-1c0-.276-.224-.5-.5-.5l-.173.035c-.405-1.18-1.512-2.035-2.827-2.035h-5c-1.315 0-2.422.855-2.827 2.035l-.173-.035c-.276 0-.5.224-.5.5v1c0 .276.224.5.5.5zm10-1v1c0 .551-.448 1-1 1h-1.5c-.827 0-1.5-.673-1.5-1.5v-2.5h2c1.102 0 2 .897 2 2zm-9 0c0-1.103.897-2 2-2h2v2.5c0 .827-.673 1.5-1.5 1.5h-1.5c-.552 0-1-.449-1-1v-1zM22 9.351v-1.851c0-.276-.224-.5-.5-.5h-.556c-.246-1.111-1.282-2-2.444-2h-1c-2.356 0-3.5 1.309-3.5 4v7.75c0 4.147-1.935 6.25-5.75 6.25-3.446 0-6.25-2.804-6.25-6.25v-3.75c0-1.787 1.352-3.249 3.084-3.458.238.839 1.002 1.458 1.916 1.458 1.102 0 2-.897 2-2s-.898-2-2-2c-.945 0-1.736.661-1.943 1.545-2.271.226-4.057 2.125-4.057 4.455v3.75c0 3.998 3.252 7.25 7.25 7.25 4.352 0 6.75-2.575 6.75-7.25v-7.75c0-2.637 1.201-3 2.5-3h1c.548 0 1.16.412 1.395 1h-.395c-.276 0-.5.224-.5.5v1.851c-1.178.564-2 1.758-2 3.149v9.5c0 1.103.897 2 2 2h3c1.102 0 2-.897 2-2v-9.5c0-1.391-.822-2.585-2-3.149zm-15-1.351c.552 0 1 .449 1 1s-.448 1-1 1-1-.449-1-1 .448-1 1-1zm11 5h5v8h-5v-8zm2-4v-1h1v1h-1zm.5 1c1.208 0 2.217.86 2.449 2h-4.899c.233-1.14 1.242-2 2.45-2zm1.5 13h-3c-.552 0-1-.449-1-1h5c0 .551-.448 1-1 1z"/></g></svg>