<svg version="1" xmlns="http://www.w3.org/2000/svg" width="24" height="24" viewBox="0 0 24 24"><g><path d="M20 3h-.64l-.886-2.658c-.068-.204-.259-.342-.474-.342h-12c-.215 0-.406.138-.474.342l-.886 2.658h-.64c-.276 0-.5.224-.5.5v4c0 .276.224.5.5.5h.53l.971 15.531c.017.264.235.469.499.469h12c.264 0 .482-.205.499-.469l.971-15.531h.53c.276 0 .5-.224.5-.5v-4c0-.276-.224-.5-.5-.5zm-13.64-2h11.28l.667 2h-12.613l.666-2zm-.578 11h12.436l-.312 5h-11.811l-.313-5zm.688 11l-.312-5h11.686l-.312 5h-11.062zm11.81-12h-12.56l-.188-3h12.936l-.188 3zm1.22-4h-15v-3h15v3zM14.5 14h-5c-.276 0-.5.224-.5.5s.224.5.5.5h5c.276 0 .5-.224.5-.5s-.224-.5-.5-.5z"/></g></svg>