<svg version="1" xmlns="http://www.w3.org/2000/svg" width="24" height="24" viewBox="0 0 24 24"><path d="M20.5 2c-1.93 0-3.5 1.57-3.5 3.5 0 .169.018.335.042.5h-9.315l-3.35-3.829c-.096-.109-.233-.171-.377-.171h-4v1h3.773l2.625 3h-1.898c-.202 0-.385.122-.462.309-.078.187-.035.401.109.544l7.853 7.854v8.293h-3.5c-.276 0-.5.224-.5.5s.224.5.5.5h8c.276 0 .5-.224.5-.5s-.224-.5-.5-.5h-3.5v-8.293l6.032-6.032c.459.211.958.325 1.468.325 1.93 0 3.5-1.57 3.5-3.5s-1.57-3.5-3.5-3.5zm-1.207 5l-6.793 6.793-6.793-6.793h13.586zm1.207 1c-.236 0-.469-.035-.694-.099l1.047-1.047c.143-.143.186-.358.108-.545-.076-.187-.259-.309-.461-.309h-2.445c-.033-.163-.055-.329-.055-.5 0-1.378 1.122-2.5 2.5-2.5s2.5 1.122 2.5 2.5-1.122 2.5-2.5 2.5z"/></svg>