<svg version="1" xmlns="http://www.w3.org/2000/svg" width="24" height="24" viewBox="0 0 24 24"><g><path d="M22 4h-20c-1.103 0-2 .897-2 2v12c0 1.103.897 2 2 2h20c1.103 0 2-.897 2-2v-12c0-1.103-.897-2-2-2zm1 14c0 .551-.449 1-1 1h-20c-.551 0-1-.449-1-1v-12c0-.551.449-1 1-1h20c.551 0 1 .449 1 1v12zM20.92 8.229c-.151-.232-.46-.298-.691-.148l-8.229 5.323-8.229-5.324c-.231-.149-.541-.083-.691.149-.15.231-.083.54.148.691l8.5 5.5c.083.053.177.08.272.08.095 0 .189-.027.271-.08l8.5-5.5c.232-.151.299-.46.149-.691zM6.752 13.566l-3.5 2c-.24.137-.323.442-.186.682.092.162.261.252.434.252.084 0 .169-.021.248-.066l3.5-2c.24-.137.323-.442.186-.682-.138-.24-.442-.325-.682-.186zM20.748 15.566l-3.5-2c-.241-.139-.546-.054-.682.186-.137.24-.054.545.186.682l3.5 2c.078.045.163.066.247.066.174 0 .342-.09.435-.252.137-.24.054-.545-.186-.682z"/></g></svg>