<svg version="1" xmlns="http://www.w3.org/2000/svg" width="24" height="24" viewBox="0 0 24 24"><path d="M19.426 10.738l-3.854-6.263 1.876-3.752c.078-.155.069-.339-.022-.486-.092-.147-.253-.237-.426-.237h-11.5c-.182 0-.349.099-.438.258-.087.159-.083.353.014.507l2.336 3.737-3.838 6.236c-.089.144-.099.325-.025.478l6 12.5c.083.174.259.284.451.284h3c.192 0 .368-.11.451-.283l6-12.5c.073-.153.064-.334-.025-.479zm-3.235-9.738l-1.5 3h-6.414l-1.875-3h9.789zm-4.691 11c-.827 0-1.5-.673-1.5-1.5s.673-1.5 1.5-1.5 1.5.673 1.5 1.5-.673 1.5-1.5 1.5zm1.185 11h-.685v-10.05c1.14-.232 2-1.242 2-2.45 0-1.379-1.122-2.5-2.5-2.5s-2.5 1.121-2.5 2.5c0 1.208.86 2.217 2 2.45v10.05h-.686l-5.745-11.971 3.71-6.029h6.441l3.71 6.029-5.745 11.971z"/></svg>