<svg version="1" xmlns="http://www.w3.org/2000/svg" width="24" height="24" viewBox="0 0 24 24"><path d="M23.5 12c.276 0 .5-.224.5-.5s-.224-.5-.5-.5h-6.5v-4h6.5c.276 0 .5-.224.5-.5s-.224-.5-.5-.5h-6.5v-5.5c0-.276-.224-.5-.5-.5s-.5.224-.5.5v5.5h-4v-5.5c0-.276-.224-.5-.5-.5s-.5.224-.5.5v5.5h-4v-5.5c0-.276-.224-.5-.5-.5s-.5.224-.5.5v5.5h-5.5c-.276 0-.5.224-.5.5s.224.5.5.5h5.5v4h-5.5c-.276 0-.5.224-.5.5s.224.5.5.5h5.5v4h-5.5c-.276 0-.5.224-.5.5s.224.5.5.5h5.5v6.5c0 .276.224.5.5.5s.5-.224.5-.5v-6.5h4v6.5c0 .276.224.5.5.5s.5-.224.5-.5v-6.5h4v6.5c0 .276.224.5.5.5s.5-.224.5-.5v-6.5h6.5c.276 0 .5-.224.5-.5s-.224-.5-.5-.5h-6.5v-4h6.5zm-7.5-5v4h-4v-4h4zm-9 0h4v4h-4v-4zm0 9v-4h4v4h-4zm9 0h-4v-4h4v4z"/></svg>