<svg version="1" xmlns="http://www.w3.org/2000/svg" width="24" height="24" viewBox="0 0 24 24"><g><path d="M11 13.5c0-.276-.224-.5-.5-.5h-2c-.276 0-.5.224-.5.5s.224.5.5.5h2c.276 0 .5-.224.5-.5zM4.5 10h9c.276 0 .5-.224.5-.5s-.224-.5-.5-.5h-9c-.276 0-.5.224-.5.5s.224.5.5.5zM15.976 11.976c2.81-.243 5.024-2.604 5.024-5.476 0-2.864-2.201-5.221-5-5.475v-.525c0-.276-.224-.5-.5-.5s-.5.224-.5.5v10.5h-11.5c-.276 0-.5.224-.5.5 0 2.482 1.4 4.642 3.451 5.737l-.945 6.188c-.042.273.145.528.418.57l.076.005c.243 0 .456-.177.494-.424l.546-3.576h4.59l.009.202c-.671.323-1.139 1.004-1.139 1.798 0 1.103.897 2 2 2s2-.897 2-2c0-1.058-.827-1.917-1.868-1.987l-.118-2.76c1.937-1.018 3.294-2.984 3.462-5.277zm4.024-5.476c0 2.312-1.753 4.223-4 4.472v-8.944c2.247.249 4 2.16 4 4.472zm-15.978 5.5h10.955c-.179 1.982-1.425 3.646-3.148 4.459l-.095.048c-.684.308-1.435.493-2.234.493-2.864 0-5.224-2.201-5.478-5zm9.478 10c0 .551-.449 1-1 1-.551 0-1-.449-1-1s.449-1 1-1c.551 0 1 .449 1 1zm-1.912-3h-4.395l.207-1.355c.66.226 1.364.355 2.1.355.71 0 1.391-.118 2.031-.33l.057 1.33z"/></g></svg>