<svg version="1" xmlns="http://www.w3.org/2000/svg" width="24" height="24" viewBox="0 0 24 24"><g><path d="M19 9h-1.5v-3.5c0-3.033-2.467-5.5-5.5-5.5s-5.5 2.467-5.5 5.5v3.5h-1.5c-2.757 0-5 2.243-5 5v6.5c0 1.93 1.57 3.5 3.5 3.5h17c1.93 0 3.5-1.57 3.5-3.5v-6.5c0-2.757-2.243-5-5-5zm-11.5-3.5c0-2.481 2.019-4.5 4.5-4.5s4.5 2.019 4.5 4.5v3.5h-9v-3.5zm-2.5 4.5h1.5v1.5c0 .276.224.5.5.5s.5-.224.5-.5v-1.5h9v1.5c0 .276.224.5.5.5s.5-.224.5-.5v-1.5h1.5c2.206 0 4 1.794 4 4v4.025c-2.634.239-4.736 2.341-4.975 4.975h-12.05c-.239-2.634-2.341-4.736-4.975-4.975v-4.025c0-2.206 1.794-4 4-4zm-4 10.5v-1.449c2.077.233 3.716 1.872 3.949 3.949h-1.449c-1.378 0-2.5-1.122-2.5-2.5zm19.5 2.5h-1.45c.234-2.077 1.872-3.716 3.95-3.949v1.449c0 1.378-1.122 2.5-2.5 2.5zM2.5 15h19c.276 0 .5-.224.5-.5s-.224-.5-.5-.5h-19c-.276 0-.5.224-.5.5s.224.5.5.5zM4.5 15.5c-.276 0-.5.224-.5.5v1c0 .276.224.5.5.5s.5-.224.5-.5v-1c0-.276-.224-.5-.5-.5z"/></g></svg>