<svg version="1" xmlns="http://www.w3.org/2000/svg" width="24" height="24" viewBox="0 0 24 24"><g><path d="M20.5 13.5c-.276 0-.5.224-.5.5v9h-5v-6.5c0-.276-.224-.5-.5-.5h-5c-.276 0-.5.224-.5.5v6.5h-5v-9.5c0-.276-.224-.5-.5-.5s-.5.224-.5.5v10c0 .276.224.5.5.5h6c.276 0 .5-.224.5-.5v-6.5h4v6.5c0 .276.224.5.5.5h6c.276 0 .5-.224.5-.5v-9.5c0-.276-.224-.5-.5-.5zM23.853 12.646l-11.5-11.5c-.195-.195-.512-.195-.707 0l-11.5 11.5c-.195.195-.195.512 0 .707s.512.195.707 0l11.147-11.146 11.146 11.147c.098.098.226.146.354.146.128 0 .256-.049.353-.146.196-.196.196-.512 0-.708zM16 3h3v3c0 .276.224.5.5.5s.5-.224.5-.5v-3.5c0-.276-.224-.5-.5-.5h-3.5c-.276 0-.5.224-.5.5s.224.5.5.5z"/></g></svg>