<svg version="1" xmlns="http://www.w3.org/2000/svg" width="24" height="24" viewBox="0 0 24 24"><g><path d="M11 0c-2.757 0-5 2.243-5 5v12.5c0 .276.224.5.5.5h3.5v5.5c0 .276.224.5.5.5s.5-.224.5-.5v-5.5h4.5c.276 0 .5-.224.5-.5v-12.5c0-2.757-2.243-5-5-5zm4 17h-8v-12c0-2.206 1.794-4 4-4s4 1.794 4 4v12zM13 11v-4c0-.827-.673-1.5-1.5-1.5s-1.5.673-1.5 1.5c0 .276-.225.5-.5.5s-.5-.224-.5-.5v-2c0-.276-.224-.5-.5-.5s-.5.224-.5.5v2c0 .827.673 1.5 1.5 1.5s1.5-.673 1.5-1.5c0-.276.225-.5.5-.5s.5.224.5.5v4c0 .827.673 1.5 1.5 1.5.276 0 .5-.224.5-.5s-.224-.5-.5-.5c-.275 0-.5-.224-.5-.5z"/></g></svg>