<svg version="1" xmlns="http://www.w3.org/2000/svg" width="24" height="24" viewBox="0 0 24 24"><g><path d="M17.5 0h-11c-1.378 0-2.5 1.121-2.5 2.5v19c0 1.379 1.122 2.5 2.5 2.5h11c1.378 0 2.5-1.121 2.5-2.5v-19c0-1.379-1.122-2.5-2.5-2.5zm1.5 21.5c0 .827-.673 1.5-1.5 1.5h-11c-.827 0-1.5-.673-1.5-1.5v-19c0-.827.673-1.5 1.5-1.5h11c.827 0 1.5.673 1.5 1.5v19zM17.5 2h-11c-.276 0-.5.224-.5.5v8c0 .276.224.5.5.5h11c.276 0 .5-.224.5-.5v-8c0-.276-.224-.5-.5-.5zm-.5 8h-10v-7h10v7zM12 12c-2.757 0-5 2.243-5 5s2.243 5 5 5 5-2.243 5-5-2.243-5-5-5zm0 9c-2.206 0-4-1.794-4-4s1.794-4 4-4 4 1.794 4 4-1.794 4-4 4zM12 14c-1.654 0-3 1.346-3 3s1.346 3 3 3 3-1.346 3-3-1.346-3-3-3zm0 5c-1.103 0-2-.897-2-2s.897-2 2-2 2 .898 2 2-.897 2-2 2z"/></g></svg>