<svg version="1" xmlns="http://www.w3.org/2000/svg" width="24" height="24" viewBox="0 0 24 24"><g><path d="M23 5.5v17.5h-17.5v1h18c.276 0 .5-.224.5-.5v-18h-1zM22 21.5v-19h-1v18.5h-18.5v1h19c.276 0 .5-.224.5-.5zM20 19.5v-19c0-.276-.224-.5-.5-.5h-19c-.276 0-.5.224-.5.5v19c0 .276.224.5.5.5h19c.276 0 .5-.224.5-.5zm-1-18.5v14h-1.654l-2.878-7.676c-.066-.176-.225-.3-.41-.321-.191-.017-.369.064-.474.22l-3.629 5.442-2.071-2.485c-.104-.124-.263-.19-.422-.178-.162.012-.308.102-.391.241l-2.854 4.757h-3.217v-14h18zm-2.721 14h-10.896l2.184-3.639 2.05 2.459c.1.121.247.195.41.179.158-.008.302-.091.39-.222l3.459-5.188 2.403 6.411zm-15.279 4v-3h18v3h-18zM6 7c1.102 0 2-.898 2-2s-.898-2-2-2c-1.103 0-2 .898-2 2s.897 2 2 2zm0-3c.552 0 1 .448 1 1s-.448 1-1 1-1-.448-1-1 .448-1 1-1z"/></g></svg>