<svg version="1" xmlns="http://www.w3.org/2000/svg" width="24" height="24" viewBox="0 0 24 24"><g><path d="M12.001 15.398l-3.183 3.182c-.943.945-2.591.945-3.536 0l-.707-.706c-.472-.472-.731-1.1-.731-1.768 0-.668.26-1.296.731-1.767l4.597-4.597c.975-.977 2.561-.975 3.536 0l.707.707c.195.195.512.195.707 0 .195-.195.195-.512 0-.707l-.707-.707c-1.364-1.364-3.584-1.365-4.95 0l-4.597 4.597c-1.364 1.364-1.364 3.585 0 4.949l.707.706c.661.661 1.54 1.025 2.476 1.025.936 0 1.814-.364 2.475-1.025l3.183-3.182c.195-.195.195-.512 0-.707-.196-.195-.513-.195-.708 0zM20.132 3.731l-.707-.707c-1.365-1.363-3.584-1.363-4.949 0l-3.182 3.181c-.195.195-.195.512 0 .707.195.195.512.195.707 0l3.182-3.181c.974-.975 2.56-.974 3.535 0l.707.707c.473.472.732 1.1.732 1.768 0 .668-.26 1.296-.732 1.767l-4.596 4.597c-.945.945-2.592.945-3.535 0-.195-.195-.512-.195-.707 0s-.195.512 0 .707c.66.661 1.539 1.025 2.475 1.025.935 0 1.814-.364 2.475-1.025l4.596-4.597c.661-.66 1.025-1.539 1.025-2.475-.001-.934-.365-1.813-1.026-2.474z"/></g></svg>