<svg version="1" xmlns="http://www.w3.org/2000/svg" width="24" height="24" viewBox="0 0 24 24"><g><path d="M12 0c-4.411 0-8 3.589-8 8 0 4.245 7.273 15.307 7.583 15.775.092.141.249.225.417.225s.325-.084.417-.225c.31-.468 7.583-11.53 7.583-15.775 0-4.411-3.589-8-8-8zm0 22.579c-1.566-2.447-7-11.183-7-14.579 0-3.859 3.14-7 7-7s7 3.141 7 7c0 3.394-5.434 12.132-7 14.579zM12 4.5c-1.93 0-3.5 1.57-3.5 3.5s1.57 3.5 3.5 3.5 3.5-1.57 3.5-3.5-1.57-3.5-3.5-3.5zm0 6c-1.378 0-2.5-1.121-2.5-2.5s1.122-2.5 2.5-2.5 2.5 1.121 2.5 2.5-1.122 2.5-2.5 2.5z"/></g></svg>