<svg version="1" xmlns="http://www.w3.org/2000/svg" width="24" height="24" viewBox="0 0 24 24"><path d="M19.5 10c-.276 0-.5.224-.5.5v1.5h-1v-5.5c0-2.802-1.786-5.188-4.276-6.1l-.082-.03c-.672-.235-1.391-.37-2.142-.37-.752 0-1.471.135-2.143.371l-.079.029c-2.492.91-4.278 3.297-4.278 6.1v5.5h-1v-1.5c0-.276-.224-.5-.5-.5s-.5.224-.5.5v2c0 4.597 3.476 8.223 8 8.476v2.524c0 .276.224.5.5.5s.5-.224.5-.5v-2.524c4.524-.252 8-3.878 8-8.476v-2c0-.276-.224-.5-.5-.5zm-13.5 1h3.5c.276 0 .5-.224.5-.5s-.224-.5-.5-.5h-3.5v-1h3.5c.276 0 .5-.224.5-.5s-.224-.5-.5-.5h-3.5v-1h3.5c.276 0 .5-.224.5-.5s-.224-.5-.5-.5h-3.475c.174-1.918 1.338-3.553 2.975-4.393v1.893c0 .276.224.5.5.5s.5-.224.5-.5v-2.287c.323-.092.656-.157 1-.188v2.475c0 .276.224.5.5.5s.5-.224.5-.5v-2.475c.344.031.678.096 1.001.188l-.001 2.287c0 .276.224.5.5.5s.5-.224.5-.5l.001-1.892c1.637.84 2.8 2.474 2.974 4.392h-3.475c-.276 0-.5.224-.5.5s.224.5.5.5h3.5v1h-3.5c-.276 0-.5.224-.5.5s.224.5.5.5h3.5v1h-3.5c-.276 0-.5.224-.5.5s.224.5.5.5h3.5v1h-11v-1zm10.975 2c-.254 2.799-2.611 5-5.475 5-2.864 0-5.221-2.201-5.475-5h10.95zm-5.475 7c-4.037 0-7.225-3.037-7.476-7h1.001c.257 3.351 3.059 6 6.475 6 3.415 0 6.218-2.649 6.475-6h1.001c-.251 3.963-3.44 7-7.476 7z"/></svg>