<svg version="1" xmlns="http://www.w3.org/2000/svg" width="24" height="24" viewBox="0 0 24 24"><g><path d="M16.5 1.061c-3.032 0-5.5 2.468-5.5 5.5s2.468 5.5 5.5 5.5 5.5-2.468 5.5-5.5c0-3.033-2.468-5.5-5.5-5.5zm0 10c-2.481 0-4.5-2.019-4.5-4.5s2.019-4.5 4.5-4.5 4.5 2.019 4.5 4.5-2.019 4.5-4.5 4.5z"/><circle cx="23.5" cy="6.06" r=".5"/><path d="M23.5 7c-.276 0-.5.224-.5.5v16c0 .276.224.5.5.5s.5-.224.5-.5v-16c0-.276-.224-.5-.5-.5zM19.049 19.959c-.226-.126-.511-.06-.657.154-.386.565-1.023.902-1.703.902-1.135 0-2.059-.924-2.059-2.059 0-1.99-1.532-3.032-3.045-3.032-.719 0-1.4.226-1.934.631-.533-.405-1.214-.631-1.933-.631-1.514 0-3.046 1.042-3.046 3.032 0 1.136-.924 2.059-2.059 2.059-.682 0-1.317-.337-1.701-.901-.145-.215-.43-.281-.656-.155-.226.126-.319.403-.214.64.938 2.108 2.764 3.316 5.007 3.316 1.779 0 3.514-.779 4.602-2.027 1.088 1.248 2.821 2.027 4.601 2.027 2.244 0 4.069-1.209 5.009-3.316.106-.237.013-.514-.212-.64zm-4.796 2.956c-1.675 0-3.355-.855-4.183-2.127-.092-.142-.25-.228-.419-.228-.169 0-.327.086-.419.228-.828 1.272-2.509 2.127-4.183 2.127-1.039 0-1.969-.32-2.72-.912l.284.013c1.686 0 3.059-1.372 3.059-3.059 0-2.255 2.613-2.469 3.611-1.391.095.103.227.161.367.161.14 0 .272-.059.367-.16.997-1.081 3.611-.866 3.611 1.39 0 1.783 1.581 3.215 3.344 3.046-.749.592-1.68.912-2.719.912zM19 6.561c0 1.379-1.121 2.5-2.5 2.5-.276 0-.5.224-.5.5s.224.5.5.5c1.93 0 3.5-1.57 3.5-3.5 0-.276-.224-.5-.5-.5s-.5.223-.5.5z"/></g></svg>