<svg version="1" xmlns="http://www.w3.org/2000/svg" width="24" height="24" viewBox="0 0 24 24"><path d="M20.778.585c-.138-.095-.312-.109-.468-.048l-11 4.5c-.187.077-.31.26-.31.463v11.5h-2.5c-1.93 0-3.5 1.57-3.5 3.5s1.57 3.5 3.5 3.5c1.864 0 3.5-1.636 3.5-3.5v-11.164l10-4.091v7.755h-2.5c-1.93 0-3.5 1.57-3.5 3.5s1.57 3.5 3.5 3.5c1.864 0 3.5-1.636 3.5-3.5v-15.5c0-.167-.083-.322-.222-.415zm-11.778 19.915c0 1.18-1.069 2.5-2.5 2.5-1.379 0-2.5-1.121-2.5-2.5s1.121-2.5 2.5-2.5h2.5v2.5zm1-12.245v-2.419l10-4.091v2.419l-10 4.091zm10 8.245c0 1.18-1.069 2.5-2.5 2.5-1.379 0-2.5-1.121-2.5-2.5s1.121-2.5 2.5-2.5h2.5v2.5z"/></svg>