<svg version="1" xmlns="http://www.w3.org/2000/svg" width="24" height="24" viewBox="0 0 24 24"><g><path d="M20 10h-5.023c-.166 0-.321-.083-.414-.219-.093-.138-.112-.312-.05-.466.323-.807.487-1.658.487-2.529v-3.786c0-1.654-1.346-3-3-3s-3 1.346-3 3v3.786c0 .869.164 1.72.487 2.529.062.154.043.328-.049.465-.094.137-.249.22-.415.22h-5.023c-1.103 0-2 .897-2 2v3.5c0 .276.224.5.5.5h.5v7.5c0 .276.224.5.5.5h3c.189 0 .362-.107.447-.276l1.053-2.106v1.882c0 .276.224.5.5.5h12c.276 0 .5-.224.5-.5v-7.5h.5c.276 0 .5-.224.5-.5v-3.5c0-1.103-.897-2-2-2zm0 13h-1v-4.5c0-.276-.224-.5-.5-.5s-.5.224-.5.5v4.5h-1v-3.5c0-.276-.224-.5-.5-.5s-.5.224-.5.5v3.5h-1v-2c0-.276-.224-.5-.5-.5s-.5.224-.5.5v2h-5v-3.5c0-.232-.16-.434-.385-.487-.226-.054-.458.055-.562.263l-1.862 3.724h-2.191v-7h16v7zm1-8h-18v-3c0-.551.449-1 1-1h5.023c.498 0 .962-.246 1.243-.66.279-.414.335-.936.149-1.397-.275-.69-.415-1.416-.415-2.157v-3.786c0-1.103.897-2 2-2s2 .897 2 2v3.786c0 .744-.14 1.469-.415 2.157-.185.462-.129.985.15 1.398.28.413.744.659 1.242.659h5.023c.551 0 1 .449 1 1v3z"/><circle cx="12" cy="3" r="1"/></g></svg>