<svg version="1" xmlns="http://www.w3.org/2000/svg" width="24" height="24" viewBox="0 0 24 24"><g><path d="M19.548 12.691c.077-.186.034-.402-.108-.545l-9-9c-.098-.097-.226-.146-.354-.146v-.5c0-1.379-1.121-2.5-2.5-2.5s-2.5 1.121-2.5 2.5v5.293l-3.853 3.853c-.975.975-.975 2.561 0 3.536l4.672 4.671c.473.473 1.1.732 1.768.732.668 0 1.295-.26 1.768-.732l6.852-6.853h2.793c.202 0 .385-.122.462-.309zm-13.462-10.191c0-.827.673-1.5 1.5-1.5s1.5.673 1.5 1.5v1.293l-3 3v-4.293zm10 9.5c-.133 0-.26.053-.353.146l-7 7c-.566.566-1.555.566-2.121 0l-4.672-4.671c-.585-.585-.585-1.537 0-2.122l3.951-3.951.081-.081 3.114-3.114v5.293c0 .276.224.5.5.5s.5-.224.5-.5v-6.293l7.793 7.793h-1.793zM20.514 15.24c-.182-.299-.674-.299-.856 0-.263.435-2.572 4.281-2.572 5.76 0 1.654 1.346 3 3 3s3-1.346 3-3c0-1.479-2.31-5.325-2.572-5.76zm-.428 7.76c-1.102 0-2-.897-2-2 0-.775 1.096-2.94 2-4.515.904 1.575 2 3.739 2 4.515 0 1.103-.898 2-2 2z"/></g></svg>