<svg version="1" xmlns="http://www.w3.org/2000/svg" width="24" height="24" viewBox="0 0 24 24"><path d="M22.96 3.975l-2.828-2.828c-.195-.195-.512-.195-.707 0l-.39.39c-.97-.641-2.292-.535-3.145.318l-5.658 5.655c-.195.195-.195.512 0 .707.098.098.226.147.354.147.128 0 .256-.049.354-.147l5.657-5.655c.459-.459 1.139-.544 1.695-.282l-4.524 4.524-9.899 9.898c-.195.195-.195.512 0 .707l.353.354-1.768 1.769c-.195.195-.195.512 0 .707l.353.352-1.767 1.768c-.195.195-.195.512 0 .707.098.098.226.146.354.146.128 0 .256-.049.354-.146l1.767-1.768.354.354c.098.098.226.146.353.146.128 0 .256-.049.354-.146l1.767-1.767.354.354c.094.094.221.146.354.146.133 0 .26-.053.353-.146l9.9-9.9 5.656-5.657c.195-.196.195-.512 0-.707zm-18.738 16.617l-.351-.35-.003-.004-.004-.003-.349-.349 1.414-1.416.707.708-1.414 1.414zm2.828-1.413l-.352-.352-.001-.002-1.414-1.415-.001-.001-.353-.353 9.192-9.191 1.061 1.061 1.061 1.061-9.193 9.192zm9.9-9.901l-1.061-1.061-1.061-1.061 4.594-4.594.003-.002.002-.003.351-.352 2.121 2.121-4.949 4.952z"/></svg>