<svg version="1" xmlns="http://www.w3.org/2000/svg" width="24" height="24" viewBox="0 0 24 24"><g><path d="M9.016 18.069v-1.069h.5c.276 0 .5-.224.5-.5v-2c0-.276-.224-.5-.5-.5h-5c-.276 0-.5.224-.5.5v2c0 .276.224.5.5.5h.5v1.07c-3.129.539-4.766 2.307-4.999 5.392-.01.14.038.276.133.378.093.102.227.16.366.16h13.074c.139 0 .273-.058.366-.16.095-.101.142-.238.133-.378-.234-3.081-1.894-4.849-5.073-5.393zm-7.944 4.931c.347-2.4 1.757-3.644 4.509-4.004.248-.033.435-.245.435-.496v-2c0-.276-.224-.5-.5-.5h-.5v-1h4v1h-.5c-.276 0-.5.224-.5.5v2c0 .251.186.463.435.496 2.76.361 4.227 1.639 4.581 4.004h-11.96zM23.268.428c-.195-.195-.512-.195-.707 0l-.021.032-2.524 2.523v-2.483c0-.173-.09-.334-.236-.425-.148-.091-.332-.1-.486-.023-1.058.525-2.738 1.638-4.285 3.188-1.439 1.437-2.556 3.101-3.146 4.686-.524 1.409-.559 2.565-.122 3.332l-1.303 1.303c-.195.195-.195.512 0 .707.098.098.226.146.354.146.128 0 .256-.049.353-.146l1.293-1.293c.449.26 1.038.394 1.714.394 1.66 0 3.835-.803 5.7-2.499.153-.14.205-.357.131-.551-.076-.192-.26-.319-.467-.319h-4.103l1-1h4.603c.276 0 .5-.224.5-.5s-.224-.5-.5-.5h-3.603l1-1h4.058c.179 0 .345-.096.434-.251 1.296-2.262 1.432-4.251.363-5.321zm-10.468 7.846c.533-1.432 1.596-3.01 2.915-4.328 1.137-1.139 2.367-2.036 3.301-2.599v2.635l-1.158 1.158-.014.014-5.341 5.341c-.139-.522-.041-1.313.297-2.221zm5.275 1.726c-1.969 1.33-3.908 1.546-4.874 1.211l1.211-1.211h3.663zm4.102-5h-2.764l.428-.428.048-.048 2.948-2.948c.323.779.096 2.014-.66 3.424z"/></g></svg>