<svg version="1" xmlns="http://www.w3.org/2000/svg" width="24" height="24" viewBox="0 0 24 24"><g><path d="M19.907 23.191l-2.407-3.369v-4.398c0-1.599-1.146-2.515-2.598-3.675-.285-.227-.592-.478-.902-.738v-2.029c0-1.102-.897-2-2-2h-7c-1.103 0-2 .898-2 2v11c0 1.103.897 2 2 2h5.5c.276 0 .5-.224.5-.5s-.224-.5-.5-.5h-5.5c-.551 0-1-.448-1-1v-11c0-.552.449-1 1-1h7c.551 0 1 .448 1 1v4.998c0 .276.224.5.5.5s.5-.224.5-.5v-1.677l.278.227c1.338 1.069 2.222 1.775 2.222 2.894v4.559c0 .104.033.206.093.291l2.5 3.5c.098.137.251.209.407.209.101 0 .202-.03.29-.093.225-.161.277-.473.117-.699zM12.604 14.379c-.608-.609-1.599-.609-2.207 0-.608.608-.608 1.599-.058 2.138l2.161 3.122v1.383c0 .732.225 1.436.651 2.035l.526.734c.098.137.252.209.408.209.101 0 .203-.03.291-.094.224-.161.276-.473.115-.697l-.525-.733c-.305-.428-.465-.931-.465-1.454v-1.539c0-.102-.031-.201-.089-.284l-2.308-3.319c-.219-.219-.219-.574 0-.793.219-.219.574-.219.793 0l2.75 2.75c.195.195.512.195.707 0 .195-.195.195-.512 0-.707l-2.75-2.751z"/><circle cx="6.5" cy="10.482" r=".5"/><circle cx="8.5" cy="10.482" r=".5"/><circle cx="10.5" cy="10.482" r=".5"/><circle cx="6.5" cy="12.482" r=".5"/><circle cx="6.5" cy="14.482" r=".5"/><circle cx="6.5" cy="16.482" r=".5"/><circle cx="6.5" cy="18.482" r=".5"/><circle cx="8.5" cy="12.482" r=".5"/><circle cx="8.5" cy="14.482" r=".5"/><circle cx="8.5" cy="16.482" r=".5"/><circle cx="8.5" cy="18.482" r=".5"/><circle cx="10.5" cy="12.482" r=".5"/><path d="M4.125 2.326c2.64-1.761 6.234-1.761 8.874 0 .085.057.182.084.277.084.162 0 .32-.078.417-.223.153-.23.091-.54-.139-.693-2.97-1.981-7.016-1.98-9.983 0-.231.154-.293.464-.139.694.153.229.463.29.693.138zM12.583 3.852c.154-.23.092-.54-.138-.694-2.305-1.54-5.457-1.541-7.766 0-.229.154-.291.464-.138.694.097.145.255.223.417.223.095 0 .192-.027.277-.084 1.978-1.322 4.679-1.322 6.654 0 .23.152.541.09.694-.139zM5.789 4.822c-.23.154-.292.464-.139.694.097.144.255.222.417.222.095 0 .192-.027.277-.084 1.32-.88 3.114-.881 4.437 0 .23.152.54.091.693-.139.153-.23.091-.54-.139-.693-1.652-1.101-3.897-1.1-5.546 0z"/></g></svg>