<svg version="1" xmlns="http://www.w3.org/2000/svg" width="24" height="24" viewBox="0 0 24 24"><g><path d="M22 0h-20c-1.103 0-2 .897-2 2v13c0 1.103.897 2 2 2h6.5c.276 0 .5-.224.5-.5s-.224-.5-.5-.5h-6.5c-.552 0-1-.449-1-1v-13c0-.551.448-1 1-1h20c.552 0 1 .449 1 1v13c0 .551-.448 1-1 1h-1.5c-.276 0-.5.224-.5.5s.224.5.5.5h1.5c1.102 0 2-.897 2-2v-13c0-1.103-.898-2-2-2zM20.5 14c-.276 0-.5.224-.5.5s.224.5.5.5h1c.276 0 .5-.224.5-.5v-12c0-.276-.224-.5-.5-.5h-19c-.276 0-.5.224-.5.5v12c0 .276.224.5.5.5h6c.276 0 .5-.224.5-.5s-.224-.5-.5-.5h-5.5v-11h18v11h-.5zM17.5 12h-6c-.276 0-.5.224-.5.5v10c0 .276.224.5.5.5h6c.276 0 .5-.224.5-.5v-10c0-.276-.224-.5-.5-.5zm-.5 10h-5v-9h5v9z"/><circle cx="13.5" cy="14.5" r=".5"/><circle cx="15.5" cy="14.5" r=".5"/><circle cx="13.5" cy="16.5" r=".5"/><circle cx="15.5" cy="16.5" r=".5"/><circle cx="13.5" cy="18.5" r=".5"/><circle cx="15.5" cy="18.5" r=".5"/><path d="M18.154 6.537c-2.148-1.318-4.851-1.376-7.054-.151-.241.134-.328.439-.193.68.134.242.439.328.68.194 1.888-1.05 4.203-1.001 6.044.129.082.05.172.074.262.074.168 0 .332-.085.426-.238.144-.236.071-.544-.165-.688zM16.85 9.165c.168 0 .332-.085.427-.239.143-.235.069-.543-.166-.688-1.534-.939-3.467-.982-5.039-.108-.241.134-.328.439-.194.68.135.242.441.328.681.194 1.259-.698 2.804-.664 4.031.086.08.052.17.075.26.075zM13.049 9.887c-.242.134-.329.438-.195.68.135.241.44.33.68.194.631-.349 1.398-.334 2.009.039.081.05.171.074.261.074.168 0 .332-.085.427-.239.144-.236.07-.543-.166-.688-.92-.561-2.075-.583-3.016-.06z"/></g></svg>