<svg version="1" xmlns="http://www.w3.org/2000/svg" width="24" height="24" viewBox="0 0 24 24"><g><path d="M22.5 0h-22c-.276 0-.5.224-.5.5v23c0 .276.224.5.5.5h22c.276 0 .5-.224.5-.5v-23c0-.276-.224-.5-.5-.5zm-.5 23h-21v-22h21v22zM15.531 13h1.5v1.5c0 .276.224.5.5.5s.5-.224.5-.5v-1.5h1.5c.276 0 .5-.224.5-.5v-2c0-.276-.224-.5-.5-.5h-1.5v-6.5c0-.276-.224-.5-.5-.5s-.5.224-.5.5v6.5h-1.5c-.276 0-.5.224-.5.5v2c0 .276.224.5.5.5zm.5-2h3v1h-3v-1zM9.5 8h1.5v6.5c0 .276.224.5.5.5s.5-.224.5-.5v-6.5h1.5c.276 0 .5-.224.5-.5v-2c0-.276-.224-.5-.5-.5h-1.5v-1.5c0-.276-.224-.5-.5-.5s-.5.224-.5.5v1.5h-1.5c-.276 0-.5.224-.5.5v2c0 .276.224.5.5.5zm.5-2h3v1h-3v-1zM3.5 11h1.5v3.5c0 .276.224.5.5.5s.5-.224.5-.5v-3.5h1.5c.276 0 .5-.224.5-.5v-2c0-.276-.224-.5-.5-.5h-1.5v-4.5c0-.276-.224-.5-.5-.5s-.5.224-.5.5v4.5h-1.5c-.276 0-.5.224-.5.5v2c0 .276.224.5.5.5zm.5-2h3v1h-3v-1zM17.542 17c-1.103 0-2 .897-2 2s.897 2 2 2 2-.897 2-2-.897-2-2-2zm0 3c-.551 0-1-.448-1-1s.449-1 1-1c.551 0 1 .448 1 1s-.449 1-1 1zM11.5 17c-1.103 0-2 .897-2 2s.897 2 2 2 2-.897 2-2-.897-2-2-2zm0 3c-.551 0-1-.448-1-1s.449-1 1-1c.551 0 1 .448 1 1s-.449 1-1 1zM5.5 17c-1.103 0-2 .897-2 2s.897 2 2 2 2-.897 2-2-.897-2-2-2zm0 3c-.551 0-1-.448-1-1s.449-1 1-1c.551 0 1 .448 1 1s-.449 1-1 1z"/></g></svg>