<svg version="1" xmlns="http://www.w3.org/2000/svg" width="24" height="24" viewBox="0 0 24 24"><g><path d="M22.731.578c-.167-.087-.365-.073-.517.033-1.768 1.235-3.225 1.785-4.726 1.785-1.787 0-3.461-.806-4.591-2.21-.189-.236-.605-.236-.795 0-1.13 1.404-2.803 2.21-4.589 2.21-1.502 0-2.96-.55-4.728-1.785-.152-.106-.351-.12-.517-.033-.165.086-.268.257-.268.443v14.812l.018.133c.062.226 1.627 5.57 10.348 8.015l.134.019.135-.019c8.723-2.445 10.285-7.788 10.348-8.015l.017-.132v-14.813c0-.186-.104-.357-.269-.443zm-.731 15.178c-.19.559-1.945 5.06-9.5 7.224-7.553-2.165-9.31-6.666-9.5-7.224v-13.806c1.61.996 3.03 1.447 4.514 1.447 1.897 0 3.685-.775 4.986-2.147 1.302 1.371 3.09 2.147 4.988 2.147 1.482 0 2.901-.451 4.512-1.447v13.806zM15 6.522c0-.276-.224-.5-.5-.5h-4c-.276 0-.5.224-.5.5v2.5h-2.5c-.276 0-.5.224-.5.5v4c0 .276.224.5.5.5h2.5v2.5c0 .276.224.5.5.5h4c.276 0 .5-.224.5-.5v-2.5h2.5c.276 0 .5-.224.5-.5v-4c0-.276-.224-.5-.5-.5h-2.5v-2.5zm2 3.499v3h-2.5c-.276 0-.5.224-.5.5v2.5h-3v-2.5c0-.276-.224-.5-.5-.5h-2.5v-3h2.5c.276 0 .5-.224.5-.5v-2.5h3v2.5c0 .276.224.5.5.5h2.5z"/></g></svg>