<svg version="1" xmlns="http://www.w3.org/2000/svg" width="24" height="24" viewBox="0 0 24 24"><g><path d="M13.146 7.853l.163.109.191.038.191-.038.163-.109 2.999-2.999c.195-.195.195-.512 0-.707s-.512-.195-.707 0l-2.146 2.146v-5.793c0-.276-.224-.5-.5-.5s-.5.224-.5.5v5.793l-2.147-2.147c-.195-.195-.512-.195-.707 0s-.195.512 0 .707l3 3zM20.974 18.658l3-9c.051-.152.025-.32-.068-.451-.095-.13-.245-.207-.406-.207h-17.692l-1.321-5.615c-.053-.225-.255-.385-.487-.385h-3.5c-.276 0-.5.224-.5.5s.224.5.5.5h3.104l3.789 16.104c-.805.259-1.393 1.006-1.393 1.896 0 1.103.897 2 2 2s2-.897 2-2c0-.366-.106-.705-.278-1h7.556c-.172.295-.278.634-.278 1 0 1.103.897 2 2 2s2-.897 2-2-.897-2-2-2h-10.604l-.235-1h12.339c.215 0 .406-.138.474-.342zm-11.974 3.342c0 .551-.449 1-1 1-.551 0-1-.449-1-1s.449-1 1-1c.551 0 1 .449 1 1zm11 0c0 .551-.449 1-1 1-.551 0-1-.449-1-1s.449-1 1-1c.551 0 1 .449 1 1zm-12.075-4l-1.882-8h16.763l-2.667 8h-12.214z"/></g></svg>