<svg version="1" xmlns="http://www.w3.org/2000/svg" width="24" height="24" viewBox="0 0 24 24"><g><path d="M12 .5c-5.003 0-9.148 3.697-9.875 8.5-.074.491-.125.989-.125 1.5v2.5c0 2.864 2.201 5.224 5 5.478v4.522c0 .276.224.5.5.5s.5-.224.5-.5v-5c0-.276-.224-.5-.5-.5-2.481 0-4.5-2.019-4.5-4.5v-2.5c0-.34.023-.675.06-1.005 1.942-.029 3.881-1.418 3.881-4.495 0-.276-.224-.5-.5-.5s-.5.224-.5.5c0 2.438-1.356 3.382-2.704 3.48.92-3.991 4.496-6.98 8.763-6.98s7.843 2.989 8.763 6.98c-1.349-.098-2.704-1.042-2.704-3.48 0-.276-.224-.5-.5-.5s-.5.224-.5.5c0 3.077 1.94 4.466 3.882 4.495.036.33.059.665.059 1.005v2.5c0 2.481-2.019 4.5-4.5 4.5-.276 0-.5.224-.5.5v5c0 .276.224.5.5.5s.5-.224.5-.5v-4.522c2.799-.253 5-2.613 5-5.478v-2.5c0-5.514-4.486-10-10-10zM10.5 17.5c-.276 0-.5.224-.5.5v5c0 .276.224.5.5.5s.5-.224.5-.5v-5c0-.276-.224-.5-.5-.5zM13.5 17.5c-.276 0-.5.224-.5.5v5c0 .276.224.5.5.5s.5-.224.5-.5v-5c0-.276-.224-.5-.5-.5zM20 13c0-1.93-1.57-3.5-3.5-3.5s-3.5 1.57-3.5 3.5 1.57 3.5 3.5 3.5 3.5-1.57 3.5-3.5zm-6 0c0-1.378 1.122-2.5 2.5-2.5s2.5 1.122 2.5 2.5-1.122 2.5-2.5 2.5-2.5-1.122-2.5-2.5zM7.5 9.5c-1.93 0-3.5 1.57-3.5 3.5s1.57 3.5 3.5 3.5 3.5-1.57 3.5-3.5-1.57-3.5-3.5-3.5zm0 6c-1.378 0-2.5-1.122-2.5-2.5s1.122-2.5 2.5-2.5 2.5 1.122 2.5 2.5-1.122 2.5-2.5 2.5zM12.892 15.666l-.445-.89c-.17-.339-.725-.339-.895 0l-.5 1c-.078.155-.069.339.022.486.092.148.253.238.426.238h1.02c.276 0 .5-.224.5-.5 0-.128-.048-.246-.128-.334z"/></g></svg>