<svg version="1" xmlns="http://www.w3.org/2000/svg" width="24" height="24" viewBox="0 0 24 24"><g><path d="M18.5 0h-13c-1.379 0-2.5 1.121-2.5 2.5v19c0 1.379 1.121 2.5 2.5 2.5h13c1.379 0 2.5-1.121 2.5-2.5v-19c0-1.379-1.121-2.5-2.5-2.5zm1.5 21.5c0 .827-.673 1.5-1.5 1.5h-13c-.827 0-1.5-.673-1.5-1.5v-19c0-.827.673-1.5 1.5-1.5h13c.827 0 1.5.673 1.5 1.5v19zM18.5 3h-13c-.276 0-.5.224-.5.5v16c0 .276.224.5.5.5h13c.276 0 .5-.224.5-.5v-16c0-.276-.224-.5-.5-.5zm-.5 16h-12v-15h12v15z"/><circle cx="12" cy="2" r=".5"/><circle cx="12" cy="21.5" r="1"/></g></svg>