<svg version="1" xmlns="http://www.w3.org/2000/svg" width="24" height="24" viewBox="0 0 24 24"><g><path d="M23.004 16.793l-13.336-4.764c-.152-.054-.323-.031-.456.062-.133.094-.212.246-.212.409 0 .403-.954 1-3 1-1.703 0-3-.666-3-1 0-.276-.224-.5-.5-.5h-1c-.827 0-1.5.673-1.5 1.5v7c0 .276.224.5.5.5h23c.276 0 .5-.224.5-.5v-2.295c0-.633-.4-1.2-.996-1.412zm-.069 1.207h-10.435c0-.552.449-1 1-1h3c.634 0 1.125-.447 1.355-.985l4.813 1.719c.128.046.211.148.267.266zm-21.435-5h.621c.469.939 2.23 1.5 3.879 1.5 1.964 0 3.366-.513 3.831-1.351l1.333.476-.519.522c-.195.195-.194.512.002.707.098.097.226.146.353.146.128 0 .257-.049.354-.148l.851-.855.803.287-.362.362c-.195.195-.195.512 0 .707.098.098.226.147.354.147.128 0 .256-.049.353-.146l.697-.697 2.855 1.02c-.096.179-.252.323-.405.323h-3c-1.103 0-2 .897-2 2h-7.551c-.221-1.527-1.422-2.728-2.949-2.95v-1.55c0-.275.224-.5.5-.5zm-.5 3.051c.978.199 1.75.971 1.949 1.949h-1.949v-1.949zm0 3.949v-1h22v1h-22zM23.5 3h-23c-.276 0-.5.224-.5.5v2.296c0 .633.4 1.2.995 1.411l8.894 3.177h.001l1.845.659h.001l2.595.927.169.03c.102 0 .203-.031.288-.091.133-.094.212-.246.212-.409 0-.403.954-1 3-1 1.703 0 3 .666 3 1 0 .276.224.5.5.5h1c.827 0 1.5-.673 1.5-1.5v-7c0-.276-.224-.5-.5-.5zm-.5 4.95c-.978-.2-1.75-.972-1.949-1.95h1.949v1.95zm0-3.95v1h-22v-1h22zm-21.935 2h10.435c0 .552-.449 1-1 1h-3c-.634 0-1.125.447-1.355.985l-4.814-1.719c-.128-.046-.211-.148-.266-.266zm21.435 5h-.621c-.47-.939-2.23-1.5-3.879-1.5-1.964 0-3.366.513-3.832 1.351l-1.334-.477.52-.522c.195-.195.194-.512-.001-.707-.195-.193-.512-.193-.707.002l-.852.855-.803-.287.363-.362c.195-.195.195-.512 0-.707s-.512-.195-.707 0l-.698.698-2.855-1.02c.097-.18.253-.324.406-.324h3c1.103 0 2-.898 2-2h7.55c.221 1.527 1.423 2.728 2.95 2.95v1.55c0 .275-.224.5-.5.5z"/></g></svg>