<svg version="1" xmlns="http://www.w3.org/2000/svg" width="24" height="24" viewBox="0 0 24 24"><g><path d="M12 9.5c-1.379 0-2.5 1.121-2.5 2.5s1.121 2.5 2.5 2.5 2.5-1.121 2.5-2.5-1.121-2.5-2.5-2.5zm0 4c-.827 0-1.5-.673-1.5-1.5s.673-1.5 1.5-1.5 1.5.673 1.5 1.5-.673 1.5-1.5 1.5zM12 3c-4.963 0-9 4.037-9 9s4.037 9 9 9 9-4.037 9-9-4.037-9-9-9zm0 17c-4.411 0-8-3.589-8-8s3.589-8 8-8 8 3.589 8 8-3.589 8-8 8zM21.597 17.354c.919-1.642 1.403-3.485 1.403-5.354 0-1.868-.484-3.711-1.403-5.354l1.524-1.524c1.17-1.17 1.17-3.072 0-4.242-1.133-1.133-3.109-1.133-4.242 0l-1.524 1.524c-3.291-1.839-7.426-1.837-10.709 0l-1.525-1.525c-1.133-1.133-3.109-1.133-4.242 0-1.17 1.17-1.17 3.072 0 4.242l1.524 1.524c-.919 1.641-1.403 3.484-1.403 5.355 0 1.872.484 3.715 1.403 5.354l-1.524 1.524c-1.17 1.17-1.17 3.072 0 4.242 1.133 1.133 3.109 1.133 4.242 0l1.524-1.524c3.283 1.837 7.418 1.839 10.709 0l1.524 1.524c.567.568 1.321.88 2.122.88.801 0 1.555-.312 2.121-.879 1.17-1.17 1.17-3.072 0-4.242l-1.524-1.525zm.817 5.06c-.756.756-2.072.756-2.828 0l-1.797-1.797c-.097-.097-.225-.147-.354-.147-.089 0-.179.023-.259.072-3.145 1.908-7.215 1.906-10.353 0-.199-.119-.45-.09-.613.074l-1.797 1.797c-.756.756-2.072.756-2.828 0-.779-.779-.779-2.049 0-2.828l1.797-1.797c.163-.163.193-.416.073-.613-.951-1.566-1.455-3.356-1.455-5.175 0-1.818.504-3.608 1.456-5.176.12-.197.09-.45-.073-.613l-1.797-1.797c-.779-.779-.779-2.049 0-2.828.756-.756 2.072-.756 2.828 0l1.797 1.797c.163.164.414.193.613.074 3.138-1.905 7.207-1.907 10.353 0 .196.119.449.09.612-.074l1.797-1.797c.756-.756 2.072-.756 2.828 0 .779.779.779 2.049 0 2.828l-1.797 1.797c-.163.163-.193.416-.074.613.953 1.57 1.457 3.361 1.457 5.176 0 1.816-.504 3.606-1.457 5.176-.119.197-.089.45.074.613l1.797 1.797c.779.779.779 2.049 0 2.828z"/><circle cx="3" cy="3" r="1"/><circle cx="21" cy="3" r="1"/><circle cx="21" cy="21" r="1"/><circle cx="3" cy="21" r="1"/></g></svg>