<svg version="1" xmlns="http://www.w3.org/2000/svg" width="24" height="24" viewBox="0 0 24 24"><path d="M17.5 5h-4.4990000000000006v-4h1.499c.276 0 .5-.224.5-.5s-.224-.5-.5-.5h-6c-.276 0-.5.224-.5.5s.224.5.5.5h1.501v4h-4.5009999999999994c-.276 0-.5.224-.5.5s.224.5.5.5h2.501v9.5c0 2.468 1.19 4.175 3 4.445v3.555c0 .276.224.5.5.5s.5-.224.5-.5v-3.555c1.81-.27 3-1.977 3-4.445v-9.5h2.499c.276 0 .5-.224.5-.5s-.224-.5-.5-.5zm-6.499-4h1v4h-1v-4zm3 14.5c0 1.742-.774 3.5-2.5 3.5-1.846 0-2.5-1.885-2.5-3.5v-2.5h1c.276 0 .5-.224.5-.5s-.224-.5-.5-.5h-1v-1h1c.276 0 .5-.224.5-.5s-.224-.5-.5-.5h-1v-1h1c.276 0 .5-.224.5-.5s-.224-.5-.5-.5h-1v-2h5v9.5z"/></svg>