<svg version="1" xmlns="http://www.w3.org/2000/svg" width="24" height="24" viewBox="0 0 24 24"><path d="M23.903 2.704c-.094-.128-.244-.204-.403-.204h-2v-2c0-.159-.076-.309-.204-.403-.128-.095-.294-.123-.445-.074-.194.061-4.749 1.512-5.394 4.132-.233.945.054 1.896.85 2.83l-1.317 1.317c-1.593-1.426-3.688-2.302-5.99-2.302-4.962 0-9 4.038-9 9 0 2.302.876 4.397 2.302 5.99l-2.156 2.156c-.195.195-.195.512 0 .707.098.098.226.147.354.147s.256-.049.354-.146l2.156-2.156c1.593 1.426 3.688 2.302 5.99 2.302s4.397-.876 5.991-2.302l2.156 2.156c.097.097.225.146.353.146s.256-.049.354-.146c.195-.195.195-.512 0-.707l-2.156-2.156c1.426-1.594 2.302-3.689 2.302-5.991s-.876-4.397-2.302-5.991l1.327-1.327c.72.61 1.454.937 2.188.937 3.021 0 4.695-5.248 4.765-5.471.047-.15.019-.316-.075-.444zm-3.403.089l-1.5 1.5v-2.389c.53-.285 1.059-.525 1.5-.696v1.585zm-4.072 1.602c.174-.708.808-1.347 1.572-1.882v2.78l-.974.974c-.535-.654-.745-1.271-.598-1.872zm.572 10.605c0 2.19-.886 4.176-2.316 5.622l-.037.025-.025.037c-1.446 1.43-3.432 2.316-5.622 2.316s-4.176-.886-5.622-2.316l-.025-.037-.037-.025c-1.43-1.446-2.316-3.432-2.316-5.622 0-4.411 3.589-8 8-8 2.026 0 3.873.763 5.284 2.009l-1.413 1.413c-1.046-.885-2.396-1.422-3.871-1.422-3.309 0-6 2.691-6 6s2.691 6 6 6 6-2.691 6-6c0-1.475-.537-2.825-1.423-3.87l1.413-1.413c1.247 1.41 2.01 3.257 2.01 5.283zm-6 0c0 1.103-.897 2-2 2s-2-.897-2-2 .897-2 2-2c.37 0 .712.108 1.01.283l-.766.766-.244-.049c-.551 0-1 .449-1 1s.449 1 1 1 1-.449 1-1l-.049-.244.766-.766c.175.298.283.64.283 1.01zm-.267-2.44c-.49-.35-1.086-.56-1.733-.56-1.654 0-3 1.346-3 3s1.346 3 3 3 3-1.346 3-3c0-.647-.21-1.243-.56-1.733l1.413-1.413c.706.862 1.147 1.948 1.147 3.146 0 2.757-2.243 5-5 5s-5-2.243-5-5 2.243-5 5-5c1.198 0 2.284.441 3.146 1.146l-1.413 1.414zm8.479-4.94c-.472 0-.97-.222-1.483-.642l3.478-3.478h1.586c-.603 1.555-1.941 4.12-3.581 4.12z"/></svg>