<svg version="1" xmlns="http://www.w3.org/2000/svg" width="24" height="24" viewBox="0 0 24 24"><path d="M19.693 5.465c-2.024-2.115-4.747-3.317-7.706-3.44v-1.525c0-.276-.224-.5-.5-.5s-.5.224-.5.5v1.524c-2.958.125-5.681 1.327-7.706 3.444-2.244 2.346-3.444 5.646-3.293 9.055.012.271.222.498.512.477.272-.007.489-.231.487-.503 0-.006.008-.562.429-.984.338-.34.862-.513 1.559-.513 1.921 0 2.011 1.354 2.015 1.504.002.252.19.463.44.492l.059.004c.227 0 .429-.154.485-.379.004-.015.429-1.621 2.515-1.621 1.909 0 2.419 1.324 2.498 1.57v7.43c0 1.066.88 1.625 1.75 1.625s1.75-.559 1.75-1.625c0-.276-.224-.5-.5-.5s-.5.224-.5.5c0 .607-.673.625-.75.625-.077 0-.75-.018-.75-.625v-7.366c.208-.351 1.064-1.634 2.502-1.634 1.658 0 2.545 1.708 2.554 1.725.094.186.284.296.501.272.207-.023.378-.171.43-.372.003-.018.433-1.625 2.026-1.625 1.568 0 1.983 1.547 2.002 1.62.059.24.274.392.534.378.247-.024.439-.227.45-.476.152-3.41-1.049-6.711-3.293-9.057zm.307 6.535c-1.311 0-2.144.748-2.601 1.481-.545-.657-1.507-1.481-2.91-1.481-1.417 0-2.385.841-2.927 1.502-.506-.74-1.473-1.502-3.073-1.502-1.416 0-2.336.597-2.88 1.247-.412-.658-1.211-1.247-2.634-1.247-.777 0-1.42.174-1.919.517.282-2.424 1.298-4.633 2.948-6.357 1.949-2.038 4.607-3.16 7.485-3.16 2.877 0 5.534 1.121 7.481 3.156 1.695 1.771 2.72 4.054 2.97 6.555-.469-.408-1.106-.711-1.94-.711z"/></svg>