<svg version="1" xmlns="http://www.w3.org/2000/svg" width="24" height="24" viewBox="0 0 24 24"><g><path d="M23.5 0h-15c-.276 0-.5.224-.5.5v4h1v-3.5h14v8h-3c-.133 0-.26.053-.354.146l-3.146 3.147v-2.793c0-.276-.224-.5-.5-.5h-2v1h1.5v3.5c0 .202.122.385.309.462l.191.038c.13 0 .258-.051.353-.146l3.854-3.854h3.293c.276 0 .5-.224.5-.5v-9c0-.276-.224-.5-.5-.5zM14.11 19.31l-3.61-1.293v-1.733c1.115-.953 1.849-2.488 1.849-4.231 0-2.888-1.995-5.236-4.447-5.236s-4.447 2.349-4.447 5.236c0 1.845.819 3.462 2.046 4.395v1.569l-3.61 1.293c-1.131.403-1.891 1.489-1.891 2.702v1.488c0 .276.224.5.5.5h15c.276 0 .5-.224.5-.5v-1.488c0-1.213-.76-2.299-1.89-2.702zm-6.209-11.494c1.656 0 3.043 1.445 3.372 3.362-1.055.177-1.695-.177-2.333-1.292-.091-.159-.21-.253-.444-.251-.183.004-.349.106-.434.268-.343.656-1.549 1.255-2.529 1.255-.351 0-.654-.071-.953-.18.391-1.814 1.725-3.162 3.321-3.162zm-3.447 4.237l.004-.048c.34.099.691.153 1.075.153 1.065 0 2.229-.487 2.936-1.169.634.839 1.38 1.237 2.319 1.237.174 0 .363-.029.551-.056-.052 2.281-1.57 4.12-3.438 4.12-1.9 0-3.447-1.9-3.447-4.237zm10.546 10.947h-14v-.988c0-.791.493-1.498 1.227-1.761l3.941-1.411c.199-.071.332-.26.332-.471v-1.371c.443.175.909.292 1.401.292.565 0 1.101-.137 1.599-.364v1.443c0 .211.133.399.331.471l3.942 1.411c.734.263 1.227.97 1.227 1.761v.988zM19 5h1v1h-1zM16 5h1v1h-1zM13 5h1v1h-1z"/></g></svg>