<svg version="1" xmlns="http://www.w3.org/2000/svg" width="24" height="24" viewBox="0 0 24 24"><path d="M17.992 15.238l-3.163-3.164 3.163-3.164c1.591.538 3.419.117 4.617-1.082 1.309-1.308 1.676-3.171.959-4.863-.065-.154-.204-.266-.37-.296-.167-.033-.335.023-.451.145l-1.766 1.835h-1.408v-1.563l1.769-1.768c.118-.117.169-.286.137-.449-.032-.163-.143-.3-.296-.365-1.662-.702-3.66-.319-4.939.961-1.22 1.221-1.627 3.001-1.083 4.617l-3.161 3.163-3.164-3.163c.546-1.617.138-3.396-1.082-4.617-1.308-1.309-3.172-1.676-4.863-.96-.155.065-.266.204-.297.369-.03.165.024.335.145.451l1.835 1.767v1.557h-1.556l-1.767-1.836c-.117-.121-.286-.178-.451-.144-.166.03-.304.141-.37.296-.711 1.681-.335 3.605.96 4.9 1.213 1.214 2.995 1.614 4.618 1.065l3.159 3.149-3.159 3.16c-1.588-.537-3.419-.117-4.617 1.082-1.301 1.302-1.678 3.24-.96 4.937.065.153.202.265.365.297.163.03.332-.021.449-.138l1.768-1.768h1.562v1.408l-1.835 1.767c-.121.117-.176.286-.145.451.031.166.143.305.297.37.558.235 1.146.354 1.747.354 1.184 0 2.303-.467 3.152-1.315 1.208-1.205 1.602-2.986 1.046-4.617l3.164-3.164 3.163 3.164c-.546 1.618-.139 3.398 1.082 4.617.862.863 2.006 1.319 3.174 1.319.593 0 1.192-.117 1.764-.358.153-.065.265-.202.296-.365.032-.163-.02-.332-.137-.449l-1.769-1.768v-1.414h1.414l1.768 1.768c.118.117.287.168.449.138.163-.032.3-.143.365-.297.718-1.696.341-3.635-.96-4.937-1.221-1.222-3.001-1.63-4.618-1.083zm-11.506-7.245c-.145-.142-.361-.186-.548-.106-1.33.562-2.836.276-3.84-.729-.812-.812-1.16-1.942-.973-3.033l1.319 1.37c.094.098.225.153.36.153h2.269c.276 0 .5-.224.5-.5v-2.269c0-.136-.055-.266-.153-.36l-1.371-1.322c1.079-.184 2.179.154 2.998.975 1.012 1.012 1.305 2.52.747 3.841-.08.187-.038.404.106.548l3.392 3.392-1.418 1.419-3.388-3.379zm1.307 10.144c.566 1.337.288 2.844-.709 3.84-.803.802-1.945 1.16-3.034.973l1.371-1.319c.098-.095.153-.225.153-.36v-2.121c0-.276-.224-.5-.5-.5h-2.269c-.133 0-.26.053-.353.147l-1.324 1.323c-.201-1.112.146-2.266.97-3.091.996-.996 2.551-1.292 3.84-.747.187.082.404.038.549-.107l9.611-9.613c.144-.144.186-.36.107-.548-.558-1.32-.264-2.828.747-3.841.808-.809 1.983-1.168 3.092-.97l-1.324 1.323c-.094.094-.146.221-.146.354v2.269c0 .276.224.5.5.5h2.121c.136 0 .266-.056.36-.153l1.32-1.372c.189 1.082-.155 2.18-.974 2.998-.996.995-2.55 1.292-3.84.747-.187-.081-.405-.038-.549.106l-9.612 9.613c-.144.143-.186.361-.107.549zm15.08 1.981l-1.324-1.323c-.094-.094-.221-.147-.354-.147h-2.121c-.276 0-.5.224-.5.5v2.121c0 .133.053.26.146.353l1.324 1.323c-1.116.207-2.268-.146-3.092-.97-1.012-1.011-1.305-2.519-.746-3.841.08-.188.037-.404-.107-.548l-3.392-3.393 1.414-1.414 3.392 3.393c.144.145.361.189.549.107 1.321-.56 2.827-.267 3.84.747.825.827 1.172 1.98.971 3.092z"/></svg>