<svg version="1" xmlns="http://www.w3.org/2000/svg" width="24" height="24" viewBox="0 0 24 24"><g><path d="M19.5 10.5c-.276 0-.5.224-.5.5v12h-18v-20h15.5c.276 0 .5-.224.5-.5s-.224-.5-.5-.5h-16c-.276 0-.5.224-.5.5v21c0 .276.224.5.5.5h19c.276 0 .5-.224.5-.5v-12.5c0-.276-.224-.5-.5-.5zM23.888.975c-.396-.955-1.701-1.285-2.463-.522l-9.546 9.545-.094.13-1.414 2.83c-.096.193-.059.425.094.577.096.096.224.146.354.146.076 0 .152-.017.224-.053l2.828-1.414.13-.094 9.547-9.547c.443-.443.571-1.041.34-1.598zm-10.538 10.381l-1.415.708.708-1.416 7.721-7.721.707.708-7.721 7.721zm9.49-9.489l-1.061 1.061-.707-.708 1.06-1.06c.286-.287.699-.128.833.198.074.181.032.352-.125.509z"/></g></svg>