<?xml version="1.0" encoding="UTF-8"?>
<svg width="60px" height="60px" viewBox="0 0 60 60" version="1.1" xmlns="http://www.w3.org/2000/svg" xmlns:xlink="http://www.w3.org/1999/xlink">
    <!-- Generator: Sketch 44.1 (41455) - http://www.bohemiancoding.com/sketch -->
    <title>Airbnb_Color</title>
    <desc>Created with Sketch.</desc>
    <defs></defs>
    <g id="Page-1" stroke="none" stroke-width="1" fill="none" fill-rule="evenodd">
        <g id="Social_icons" transform="translate(-160.000000, -301.000000)">
            <g id="Color" transform="translate(60.000000, 60.000000)">
                <g id="Airbnb" transform="translate(100.000000, 241.000000)">
                    <path d="M0,30 C0,13.4314567 13.4314567,0 30,0 C46.5685433,0 60,13.4314567 60,30 C60,46.5685433 46.5685433,60 30,60 C13.4314567,60 0,46.5685433 0,30 Z" id="back" fill="#FFFFFF"></path>
                    <path d="M44.9989727,38.2743364 C44.9886906,37.3335326 44.7847155,36.3729452 44.4144047,35.4139104 C44.2311601,34.9377189 44.0692671,34.5629076 43.7026917,33.7450205 C43.6919813,33.7211241 43.6919813,33.7211241 43.68128,33.6972466 C43.6303103,33.5834964 43.6303103,33.5834964 43.579644,33.4701342 C41.3302599,28.4768604 38.9644111,23.5266361 36.4828557,18.6194503 C36.4200715,18.4961272 36.3700524,18.3974504 36.2594534,18.1789394 C36.2571891,18.1744657 36.2571891,18.1744657 36.2549246,18.1699917 C35.8489494,17.3679051 35.6618762,17.0054289 35.418427,16.5596386 C34.9725278,15.7491926 34.5181185,15.1158154 33.9691875,14.5976287 C33.0033307,13.6598136 31.6960794,13.087417 30.337953,13.0013023 L29.7469336,13 C28.320343,13.0709091 26.96968,13.6661727 25.9762744,14.6523264 C25.4560132,15.1541653 25.0196889,15.7689314 24.58426,16.5593242 C24.3398407,17.0053514 24.1388139,17.3942976 23.7555355,18.1524594 C23.7329004,18.1972366 23.7329004,18.1972366 23.7102874,18.241974 C23.6227262,18.4151887 23.5846326,18.4904665 23.5352913,18.5876837 C21.8839488,21.8510893 20.2722473,25.1597792 18.6991547,28.514218 C17.5486815,30.9779626 16.7359527,32.7521621 15.9542498,34.5246116 C15.4716849,35.6237606 15.198435,36.4458868 15.0789036,37.3188994 C14.825843,39.0030877 15.1873098,40.779853 16.079606,42.2405409 C16.8479912,43.5081714 18.0004928,44.5253534 19.3418438,45.1140247 C20.3869821,45.5741901 21.5389756,45.7822193 22.6731433,45.7140434 C24.1062861,45.6365949 25.5454645,45.1333621 26.8789382,44.2917471 C28.0991331,43.5291228 29.1961495,42.5413281 30.4829803,41.1351086 L29.521375,41.1340524 C30.7003932,42.4281309 31.7237187,43.366673 32.8466648,44.1128883 C34.1653714,44.9964525 35.5796547,45.5507427 37.006413,45.6880133 C38.6651415,45.8644873 40.3779023,45.4417693 41.76393,44.5055561 C42.9841117,43.6871292 43.9477625,42.4806519 44.4893055,41.0952359 C44.8408984,40.1988136 45.015549,39.2324176 44.9989138,38.2701607 L44.9989727,38.2743364 L44.9989727,38.2743364 Z M41.6225957,39.6326981 C41.3361183,40.6396447 40.6447434,41.5222207 39.7473131,42.0278076 C38.9564228,42.4783093 38.0011943,42.6408333 37.0893701,42.4856937 C36.003357,42.3135156 34.9354691,41.7523197 33.8243499,40.8406732 C33.1714998,40.3064037 32.5458203,39.6825459 31.790268,38.8382231 L31.8195007,39.67788 C33.0638923,38.0750253 33.9609992,36.7166878 34.654304,35.2974033 C35.4309757,33.7019904 35.8690146,32.2122225 35.9152263,30.732816 C35.9461084,29.6217184 35.7279118,28.5511575 35.2543384,27.6319514 C34.6149431,26.3654633 33.4661702,25.3684939 32.1134979,24.8836901 C30.8889344,24.4381916 29.5238059,24.3955181 28.2645751,24.7610908 C27.0537927,25.1099833 25.9715264,25.8499994 25.2318362,26.8527649 C24.587679,27.7177594 24.2011312,28.7927711 24.1125527,29.9145994 C23.9944084,31.3159687 24.2849684,32.7740136 24.9100005,34.3175414 C25.6496825,36.1128384 26.725821,37.8285475 28.1888223,39.6677261 L28.2014752,38.8355584 C27.6669857,39.4669605 27.0720458,40.0677534 26.4221172,40.6359521 C25.3142871,41.590674 24.2640193,42.1972677 23.1846302,42.4350324 C22.2355377,42.6519502 21.2360015,42.5363442 20.4045703,42.1079811 C19.4138663,41.6051634 18.6501771,40.6542082 18.3635855,39.5669578 C18.1480162,38.7810739 18.1845464,37.9099957 18.4566086,37.0931001 C18.6166718,36.6150131 18.7780952,36.2295219 19.1583195,35.3813878 C19.1742897,35.3457653 19.1742897,35.3457653 19.1902848,35.3100798 C19.2596837,35.15523 19.3045024,35.0547692 19.3504559,34.9507269 C21.5522192,30.0614821 23.8834294,25.1819712 26.3397405,20.3171546 C26.3919302,20.2140675 26.4335869,20.131572 26.5273174,19.9457892 C26.5320477,19.9364132 26.5320477,19.9364132 26.5367774,19.9270385 C26.9755157,19.0574108 27.1791999,18.6616045 27.4386266,18.1853886 C27.7865132,17.5551573 28.0929814,17.1456298 28.4625777,16.8596068 C28.9056139,16.5067054 29.4615578,16.317606 30.0094098,16.3302588 C30.5953063,16.3236153 31.1680828,16.536185 31.6111945,16.9153433 C32.0067225,17.2498545 32.3093078,17.6910618 32.7137044,18.45982 C33.2951051,19.5719862 33.8010711,20.5754999 34.7279089,22.4399493 C34.8106845,22.606476 34.8106845,22.606476 34.8934711,22.7730434 C34.9026131,22.7914368 34.9026131,22.7914368 34.9117554,22.8098305 C36.9887001,26.9977178 38.9737878,31.2021369 40.8655114,35.422325 C40.8912028,35.4813059 40.9111713,35.5267676 40.959399,35.6362378 C40.9771308,35.6764489 40.9771308,35.6764489 40.9948146,35.7165341 C41.3504255,36.522655 41.4962495,36.8888035 41.6225899,37.342735 C41.8305447,38.0969676 41.8320826,38.9018064 41.6229488,39.6314616 L41.6225957,39.6326981 L41.6225957,39.6326981 Z M30.5090529,37.2658055 C30.2361184,36.9385813 30.0154011,36.6338853 29.588893,36.0131527 C29.5608347,35.9723112 29.5608347,35.9723112 29.532704,35.9313596 C29.5163047,35.9074894 29.5163047,35.9074894 29.4998765,35.8835857 C28.9158814,35.0111634 28.4423901,34.1753372 28.0721018,33.3400674 C27.7195569,32.5347906 27.4977463,31.807579 27.4092188,31.104018 C27.3338647,30.4525766 27.3755517,29.8919834 27.5532271,29.4240066 C27.7216915,28.9591953 28.0419528,28.5578302 28.4498123,28.2931627 C29.4696506,27.6228896 30.9242453,27.7091401 31.8219273,28.498959 C32.250933,28.8711725 32.5326796,29.4420549 32.6037909,30.0657124 C32.6933139,30.8630967 32.5439596,31.7324095 32.1848329,32.7093102 C31.6331966,34.1840146 30.7769375,35.5991856 29.4907818,37.2885544 L30.0089834,37.685953 L30.5090529,37.2658055 L30.5090529,37.2658055 Z" fill="#FF7977" fill-rule="nonzero"></path>
                </g>
            </g>
        </g>
    </g>
</svg>