<?xml version="1.0" encoding="UTF-8"?>
<svg width="60px" height="60px" viewBox="0 0 60 60" version="1.1" xmlns="http://www.w3.org/2000/svg" xmlns:xlink="http://www.w3.org/1999/xlink">
    <!-- Generator: Sketch 44.1 (41455) - http://www.bohemiancoding.com/sketch -->
    <title>Flickr_Color</title>
    <desc>Created with Sketch.</desc>
    <defs></defs>
    <g id="Page-1" stroke="none" stroke-width="1" fill="none" fill-rule="evenodd">
        <g id="Social_icons" transform="translate(-660.000000, -221.000000)">
            <g id="Color" transform="translate(60.000000, 60.000000)">
                <g id="Flickr" transform="translate(600.000000, 161.000000)">
                    <path d="M0,30 C0,13.4314567 13.4314567,0 30,0 C46.5685433,0 60,13.4314567 60,30 C60,46.5685433 46.5685433,60 30,60 C13.4314567,60 0,46.5685433 0,30 Z" id="back" fill="#FFFFFF"></path>
                    <g transform="translate(12.000000, 22.000000)">
                        <path d="M35.8692268,7.74825355 C35.8692268,12.0277881 32.3365076,15.4985755 27.9706994,15.4985755 C23.6006731,15.4985755 20.0658449,12.0277881 20.0658449,7.74825355 C20.0658449,3.47078736 23.6006731,0 27.9706994,0 C32.3365076,0 35.8692268,3.47078736 35.8692268,7.74825355" fill="#FF007F"></path>
                        <path d="M15.8012728,7.74825355 C15.8012728,12.0277881 12.2664446,15.4985755 7.89641824,15.4985755 C3.53271917,15.4985755 0,12.0277881 0,7.74825355 C0,3.47078736 3.53271917,0 7.89641824,0 C12.2664446,0 15.8012728,3.47078736 15.8012728,7.74825355" fill="#0960D5"></path>
                    </g>
                </g>
            </g>
        </g>
    </g>
</svg>