<?xml version="1.0" encoding="UTF-8"?>
<svg width="61px" height="60px" viewBox="0 0 61 60" version="1.1" xmlns="http://www.w3.org/2000/svg" xmlns:xlink="http://www.w3.org/1999/xlink">
    <!-- Generator: Sketch 44.1 (41455) - http://www.bohemiancoding.com/sketch -->
    <title>Google +_Color</title>
    <desc>Created with Sketch.</desc>
    <defs></defs>
    <g id="Page-1" stroke="none" stroke-width="1" fill="none" fill-rule="evenodd">
        <g id="Social_icons" transform="translate(-360.000000, -141.000000)">
            <g id="Color" transform="translate(60.000000, 60.000000)">
                <g id="Google-+" transform="translate(300.000000, 81.000000)">
                    <path d="M0,30 C0,13.4314567 13.4508663,0 30.0433526,0 C46.6358389,0 60.0867052,13.4314567 60.0867052,30 C60.0867052,46.5685433 46.6358389,60 30.0433526,60 C13.4508663,60 0,46.5685433 0,30 Z" id="back" fill="#DC4E41"></path>
                    <path d="M24.5454545,29.1428571 L24.5454545,32.4 L29.9590909,32.4 C29.7409091,33.7978571 28.3227273,36.4985714 24.5454545,36.4985714 C21.2863636,36.4985714 18.6272727,33.8114286 18.6272727,30.5 C18.6272727,27.1885714 21.2863636,24.5014286 24.5454545,24.5014286 C26.4,24.5014286 27.6409091,25.2885714 28.35,25.9671429 L30.9409091,23.4835714 C29.2772727,21.9364286 27.1227273,21 24.5454545,21 C19.2681818,21 15,25.2478571 15,30.5 C15,35.7521429 19.2681818,40 24.5454545,40 C30.0545455,40 33.7090909,36.1457143 33.7090909,30.7171429 C33.7090909,30.0928571 33.6409091,29.6178571 33.5590909,29.1428571 L24.5454545,29.1428571 L24.5454545,29.1428571 Z" id="Shape" fill="#FFFFFF"></path>
                    <polyline id="Shape-Copy" fill="#FFFFFF" points="45 29.1428571 42.2727273 29.1428571 42.2727273 26.4285714 39.5454545 26.4285714 39.5454545 29.1428571 36.8181818 29.1428571 36.8181818 31.8571429 39.5454545 31.8571429 39.5454545 34.5714286 42.2727273 34.5714286 42.2727273 31.8571429 45 31.8571429"></polyline>
                </g>
            </g>
        </g>
    </g>
</svg>