<?xml version="1.0" encoding="UTF-8"?>
<svg width="61px" height="60px" viewBox="0 0 61 60" version="1.1" xmlns="http://www.w3.org/2000/svg" xmlns:xlink="http://www.w3.org/1999/xlink">
    <!-- Generator: Sketch 44.1 (41455) - http://www.bohemiancoding.com/sketch -->
    <title>Snapchat_Color</title>
    <desc>Created with Sketch.</desc>
    <defs></defs>
    <g id="Page-1" stroke="none" stroke-width="1" fill="none" fill-rule="evenodd">
        <g id="Social_icons" transform="translate(-460.000000, -221.000000)">
            <g id="Color" transform="translate(60.000000, 60.000000)">
                <g id="Snapchat" transform="translate(400.000000, 161.000000)">
                    <path d="M0,30 C0,13.4314567 13.4508663,0 30.0433526,0 C46.6358389,0 60.0867052,13.4314567 60.0867052,30 C60.0867052,46.5685433 46.6358389,60 30.0433526,60 C13.4508663,60 0,46.5685433 0,30 Z" id="back" fill="#FFE400"></path>
                    <path d="M30.30768,15 L30.3062702,15 C30.2786546,15 30.2526977,15 30.2279846,15.0003308 C30.030944,15.0023153 29.707021,15.0054574 29.6779127,15.0057882 C28.9675379,15.0057882 27.5462077,15.1058414 26.019474,15.7777689 C25.1465571,16.161692 24.3613798,16.680811 23.6858354,17.320738 C22.8804232,18.0832095 22.2242844,19.0232961 21.7359949,20.1152817 C21.0208931,21.7141483 21.19065,24.407233 21.3269862,26.5714416 L21.3274838,26.5748318 C21.3420794,26.8066079 21.3574214,27.0486374 21.3714365,27.2844653 C21.2665306,27.3325074 21.096442,27.3831955 20.8457458,27.3831955 C20.4423763,27.3831955 19.9627116,27.2546147 19.420435,27.0012569 C19.2608785,26.9271679 19.0787651,26.88971 18.8778267,26.88971 C18.5549819,26.88971 18.2146388,26.9844711 17.9194095,27.1575383 C17.5479679,27.3750093 17.3079697,27.6823628 17.242787,28.0231225 C17.1998295,28.2485316 17.2019027,28.6940577 17.6982363,29.1458682 C17.9712405,29.3945955 18.372288,29.6239736 18.8899345,29.8279664 C19.0257731,29.8813005 19.1869882,29.9322367 19.3577403,29.9862323 C19.9502722,30.1740181 20.8470727,30.4577227 21.0809341,31.0065269 C21.1994405,31.284774 21.1484388,31.6509191 20.9297535,32.0934684 C20.9240314,32.105541 20.9183092,32.1173654 20.9130847,32.1297687 C20.8584341,32.2570265 20.348583,33.4085478 19.3027579,34.6229951 C18.7084845,35.3136103 18.0539213,35.8907766 17.3583079,36.3389488 C16.5092748,36.8860992 15.5905808,37.2438101 14.6280171,37.4019107 C14.2500241,37.4637617 13.9800883,37.7995601 14.0011524,38.1811679 C14.0076209,38.2911438 14.0334949,38.4007888 14.0783598,38.5068783 C14.0786915,38.5075398 14.0791062,38.5082013 14.0794379,38.5087802 C14.2322771,38.8652507 14.5866353,39.1680563 15.1627471,39.4351404 C15.8667364,39.7611816 16.9196104,40.0354596 18.2918463,40.2500365 C18.3611754,40.3815114 18.4331583,40.711935 18.482999,40.938171 C18.5351617,41.1786294 18.5895635,41.4258683 18.6671027,41.6884873 C18.7507786,41.9730187 18.9678053,42.3130342 19.5253409,42.3130342 C19.7366455,42.3130342 19.9796292,42.265571 20.2610093,42.2111619 C20.6730864,42.1305405 21.236593,42.0205647 21.9399188,42.0205647 C22.3298537,42.0205647 22.7339696,42.0547977 23.1407392,42.1221889 C23.9248385,42.2523408 24.6007975,42.7284617 25.3829065,43.2798292 C26.5276665,44.0867045 27.8234413,45 29.8032193,45 C29.8572065,45 29.9113595,44.9982635 29.9648491,44.9945426 C30.0302805,44.997602 30.1113856,45 30.196969,45 C32.1773275,45 33.4727706,44.0863737 34.6162867,43.28016 L34.6181111,43.2785062 C35.4003859,42.7278002 36.0755986,42.2523408 36.8594491,42.1221889 C37.2660528,42.0548804 37.6700858,42.0205647 38.0601866,42.0205647 C38.7320821,42.0205647 39.2640754,42.105982 39.739096,42.1983451 C40.0490868,42.2592039 40.2899973,42.2884757 40.4748473,42.2884757 L40.492926,42.2888064 L40.5116681,42.2888064 C40.9194329,42.2888064 41.2190575,42.0656299 41.3334174,41.6750917 C41.4093809,41.4180129 41.4636168,41.1765622 41.5171064,40.932052 C41.5637128,40.7200385 41.6381836,40.3801884 41.7075127,40.2473078 C43.0806608,40.0323175 44.1331202,39.7586182 44.8371924,39.4326598 C45.4119774,39.166816 45.7659208,38.8643411 45.9196723,38.509359 C45.9657811,38.4029388 45.9927333,38.2926322 45.9987871,38.1803411 C46.0204317,37.7993947 45.7500813,37.4629348 45.3718394,37.4010838 C41.0939167,36.6980654 39.166716,32.3152392 39.0870207,32.1290245 C39.0818791,32.1167866 39.076074,32.1046314 39.0700201,32.0928069 C38.8513348,31.6500922 38.8008307,31.2843606 38.91942,31.0056173 C39.1527839,30.4573093 40.0490039,30.1736047 40.6419505,29.9859016 C40.8136147,29.9319886 40.9754103,29.8807217 41.1101709,29.8276356 C41.6939123,29.5977613 42.111131,29.3483726 42.3863743,29.0651641 C42.7151072,28.7275466 42.7791288,28.4040688 42.7751482,28.192386 C42.7651137,27.6802129 42.3724421,27.2250949 41.7478165,27.0022491 C41.5368436,26.9152607 41.2962649,26.8693686 41.0512909,26.8693686 C40.8845195,26.8693686 40.6375552,26.8921906 40.4037767,27.0010088 C39.9032966,27.2345214 39.4549793,27.3621926 39.0701031,27.3803841 C38.8654328,27.370048 38.7218817,27.3258096 38.6289177,27.2835557 C38.6406107,27.0837801 38.6535478,26.878547 38.6668994,26.6645489 L38.6724557,26.57293 C38.8095383,24.4073157 38.9798757,21.7121638 38.2644421,20.1121395 C37.7740795,19.0162676 37.1156186,18.073783 36.3069722,17.3096578 C35.628774,16.6693173 34.8409429,16.150281 33.9648748,15.7666059 C32.4402972,15.0996398 31.01905,15 30.30768,15" fill="#FFFFFF"></path>
                </g>
            </g>
        </g>
    </g>
</svg>