<?xml version="1.0" encoding="UTF-8"?>
<svg width="60px" height="60px" viewBox="0 0 60 60" version="1.1" xmlns="http://www.w3.org/2000/svg" xmlns:xlink="http://www.w3.org/1999/xlink">
    <!-- Generator: Sketch 44.1 (41455) - http://www.bohemiancoding.com/sketch -->
    <title>Trello_Color</title>
    <desc>Created with Sketch.</desc>
    <defs>
        <linearGradient x1="50%" y1="0%" x2="50%" y2="100%" id="linearGradient-1">
            <stop stop-color="#0091E6" offset="0%"></stop>
            <stop stop-color="#0079BF" offset="100%"></stop>
        </linearGradient>
    </defs>
    <g id="Page-1" stroke="none" stroke-width="1" fill="none" fill-rule="evenodd">
        <g id="Social_icons" transform="translate(-360.000000, -382.000000)">
            <g id="Color" transform="translate(60.000000, 60.000000)">
                <g id="Trello" transform="translate(300.000000, 322.000000)">
                    <circle id="Oval" fill="url(#linearGradient-1)" cx="30" cy="30" r="30"></circle>
                    <path d="M12,18.0053227 C12,14.6886745 14.6764399,12 18.0053227,12 L41.9946773,12 C45.3113255,12 48,14.6764399 48,18.0053227 L48,41.9946773 C48,45.3113255 45.3235601,48 41.9946773,48 L18.0053227,48 C14.6886745,48 12,45.3235601 12,41.9946773 L12,18.0053227 Z M32.34,18.8410636 L32.34,30.2689364 C32.34,31.4625723 33.3068261,32.43 34.4994665,32.43 L41.1605335,32.43 C42.3528194,32.43 43.32,31.4624589 43.32,30.2689364 L43.32,18.8410636 C43.32,17.6474277 42.3531739,16.68 41.1605335,16.68 L34.4994665,16.68 C33.3071806,16.68 32.34,17.6475411 32.34,18.8410636 Z M16.68,18.8384959 L16.68,39.2715041 C16.68,40.4635721 17.6468261,41.43 18.8394665,41.43 L25.5005335,41.43 C26.6928194,41.43 27.66,40.4636085 27.66,39.2715041 L27.66,18.8384959 C27.66,17.6464279 26.6931739,16.68 25.5005335,16.68 L18.8394665,16.68 C17.6471806,16.68 16.68,17.6463915 16.68,18.8384959 Z" id="Combined-Shape" fill="#FFFFFF"></path>
                </g>
            </g>
        </g>
    </g>
</svg>