<?xml version="1.0" encoding="UTF-8"?>
<svg width="60px" height="60px" viewBox="0 0 60 60" version="1.1" xmlns="http://www.w3.org/2000/svg" xmlns:xlink="http://www.w3.org/1999/xlink">
    <!-- Generator: Sketch 44.1 (41455) - http://www.bohemiancoding.com/sketch -->
    <title>Tumblr_Color</title>
    <desc>Created with Sketch.</desc>
    <defs></defs>
    <g id="Page-1" stroke="none" stroke-width="1" fill="none" fill-rule="evenodd">
        <g id="Social_icons" transform="translate(-160.000000, -141.000000)">
            <g id="Color" transform="translate(60.000000, 60.000000)">
                <g id="Tumblr" transform="translate(100.000000, 81.000000)">
                    <path d="M0,30 C0,13.4314567 13.4314567,0 30,0 C46.5685433,0 60,13.4314567 60,30 C60,46.5685433 46.5685433,60 30,60 C13.4314567,60 0,46.5685433 0,30 Z" id="back" fill="#323E4D"></path>
                    <g id="Group" transform="translate(16.000000, 12.000000)">
                        <path d="M21.4910154,36.8647941 L21.490543,36.8647941 C18.3825562,36.8646356 16.2246753,35.8656853 14.7648999,34.4548027 C15.4119859,34.4978609 16.0860514,34.5192579 16.7865715,34.5192579 C20.2050315,34.5192579 23.592208,33.2942388 24.7126411,31.8100781 L24.9370847,31.512633 L24.2631767,29.5019999 C24.9030717,29.359987 25.5387677,29.1219782 26.0630817,28.8289183 L27.9356841,34.4157069 C26.8607066,35.8398504 24.1857027,36.8207849 21.7375044,36.8627337 C21.6544665,36.8641073 21.5728459,36.8647941 21.4910154,36.8647941 M17.9488384,25.093104 C17.8847492,25.093104 17.8268012,25.0520006 17.8105296,24.9896058 C17.755416,24.7788055 17.7224528,24.5210375 17.7173613,24.2025653 L17.7173613,16.4707912 C17.7173613,16.3913317 17.7813456,16.3269293 17.8602893,16.3269293 L23.4298591,16.3269293 C23.5088028,16.3269293 23.572787,16.2625269 23.572787,16.1830673 L23.572787,11.8654654 L26.653322,11.8654654 L26.653322,18.6544497 L20.7979488,18.6544497 L20.7979488,25.093104 L17.9488384,25.093104 M20.8218314,8.12943987 L17.8841718,8.12943987 C17.8052806,8.12943987 17.7412439,8.06503748 17.7412439,7.98563075 L17.7412439,3.86810421 L20.8218314,3.86810421 L20.8218314,8.12943987" id="Fill-3" fill="#2A323B"></path>
                        <path d="M23.3005259,31.2918475 C22.2337367,32.3242405 20.0443098,33.0912049 17.945899,33.1269194 C17.8666404,33.1282931 17.788904,33.1289799 17.7108527,33.1289799 L17.7101703,33.1289799 C10.8081112,33.1286101 8.96663484,27.8254772 8.96663484,24.6918438 L8.96663484,15.0624446 C8.96663484,14.9830379 8.90265058,14.9186355 8.82370691,14.9186355 L5.48623762,14.9186355 C5.40734644,14.9186355 5.3433097,14.8542331 5.3433097,14.7747735 L5.3433097,10.3881728 C5.3433097,10.3295291 5.37978965,10.2772253 5.4341159,10.255934 C9.00122518,8.85825939 10.9932929,6.08108453 11.517292,1.78556647 C11.5464759,1.54692364 11.7420505,1.54037245 11.7440975,1.54037245 L16.199218,1.54037245 C16.2781092,1.54037245 16.3420935,1.60477485 16.3420935,1.6842344 L16.3420935,9.39392458 C16.3420935,9.4733313 16.4060777,9.53773369 16.4850214,9.53773369 L22.0307087,9.53773369 C22.1096523,9.53773369 22.1736366,9.60218892 22.1736366,9.68159564 L22.1736366,14.7747735 C22.1736366,14.8542331 22.1096523,14.9186355 22.0307087,14.9186355 L16.4611388,14.9186355 C16.3821952,14.9186355 16.3182109,14.9830379 16.3182109,15.0624974 L16.3183684,24.2139242 C16.3511741,26.2744837 17.341959,27.3190282 19.2632189,27.3190282 C20.0373812,27.3190282 20.9240802,27.1377611 21.7336202,26.8264741 C21.8093095,26.7974164 21.8928197,26.8361423 21.9186969,26.9133829 L23.3354312,31.1405362 C23.35333,31.1938438 23.3407851,31.2528574 23.3005259,31.2918475 M16.7865715,34.5192579 C20.2050315,34.5192579 23.592208,33.2942388 24.7126411,31.8100781 L24.9370847,31.512633 L22.8181507,25.1909491 C22.7985198,25.132464 22.7440361,25.093104 22.6827287,25.093104 L17.9488384,25.093104 C17.8847492,25.093104 17.8268012,25.0520006 17.8105296,24.9896058 C17.755416,24.7788055 17.7224528,24.5210375 17.7173613,24.2025653 L17.7173613,16.4707912 C17.7173613,16.3913317 17.7813456,16.3269293 17.8602893,16.3269293 L23.4298591,16.3269293 C23.5088028,16.3269293 23.572787,16.2625269 23.572787,16.1830673 L23.572787,8.27330182 C23.572787,8.19384226 23.5088028,8.12943987 23.4298591,8.12943987 L17.8841718,8.12943987 C17.8052806,8.12943987 17.7412439,8.06503748 17.7412439,7.98563075 L17.7412439,0.275940577 C17.7412439,0.196481021 17.6773121,0.132078629 17.5983685,0.132078629 L7.87276122,0.132078629 C7.17728015,0.132078629 6.37472124,0.65126018 6.25735553,1.61365065 C5.77177852,5.59339094 3.9584363,7.98092869 0.550736536,9.12722788 L0.170505227,9.25497602 C0.112137306,9.27457675 0.0728229423,9.32952218 0.0728229423,9.39144147 L0.0728229423,16.1830673 C0.0728229423,16.2625269 0.1368072,16.3269293 0.215750863,16.3269293 L3.69609559,16.3269293 L3.69609559,24.6918438 C3.69609559,31.3694051 8.29109964,34.5192579 16.7865715,34.5192579" id="Fill-4" fill="#FFFFFF"></path>
                        <path d="M7.56743191,18.5775789 L3.69609559,18.5775789 L3.69609559,16.3269293 L7.44130051,16.3269293 C7.51095359,16.3269293 7.56743191,16.3837767 7.56743191,16.453885 L7.56743191,18.5775789" id="Fill-5" fill="#83838D"></path>
                    </g>
                </g>
            </g>
        </g>
    </g>
</svg>