<?xml version="1.0" encoding="UTF-8"?>
<svg width="60px" height="60px" viewBox="0 0 60 60" version="1.1" xmlns="http://www.w3.org/2000/svg" xmlns:xlink="http://www.w3.org/1999/xlink">
    <!-- Generator: Sketch 44.1 (41455) - http://www.bohemiancoding.com/sketch -->
    <title>Android_Color</title>
    <desc>Created with Sketch.</desc>
    <defs>
        <path d="M19.0907214,6.85778498 C18.5252714,6.85778498 18.0675214,6.41227783 18.0675214,5.86194926 C18.0675214,5.31161355 18.5252714,4.86812783 19.0907214,4.86812783 C19.6561714,4.86812783 20.1139214,5.31161355 20.1139214,5.86194926 C20.1139214,6.41227783 19.6561714,6.85778498 19.0907214,6.85778498 L19.0907214,6.85778498 Z M10.9092786,6.85778498 C10.3438286,6.85778498 9.88607857,6.41227783 9.88607857,5.86194926 C9.88607857,5.31161355 10.3438286,4.86812783 10.9092786,4.86812783 C11.4747286,4.86812783 11.9324786,5.31161355 11.9324786,5.86194926 C11.9324786,6.41227783 11.4747286,6.85778498 10.9092786,6.85778498 L10.9092786,6.85778498 Z M19.6955286,2.87039926 L20.0766357,2.30998498 L20.45775,1.75763498 L21.3069571,0.515863548 C21.4125929,0.362656406 21.3691,0.157034977 21.2116786,0.0562421198 C21.0563357,-0.046565023 20.843,-0.00422930874 20.7415071,0.148970691 L19.4449071,2.03784212 L19.0555071,2.60632069 C17.8231143,2.14065641 16.4498786,1.88060641 15,1.88060641 C13.5521929,1.88060641 12.1768857,2.14065641 10.9444929,2.60632069 L10.5571643,2.03784212 L10.1739857,1.47944926 L9.26263571,0.148970691 C9.157,-0.00422930874 8.94573571,-0.0445507373 8.78832143,0.0562421198 C8.63297143,0.157034977 8.58947857,0.362656406 8.69304286,0.515863548 L9.54225,1.75763498 L9.92336429,2.30998498 L10.3065429,2.87039926 C7.41300714,4.18272783 5.455675,6.66829926 5.455675,9.51269212 L24.5443214,9.51269212 C24.5443214,6.66829926 22.5869929,4.18272783 19.6955286,2.87039926 L19.6955286,2.87039926 Z M5.60273429,10.8391278 L5.455675,10.8391278 L5.455675,25.4380635 C5.455675,26.597185 6.42294929,27.5406128 7.61599286,27.5406128 L9.17357143,27.5406128 C9.11972143,27.7159935 9.09072143,27.8994378 9.09072143,28.0929614 L9.09072143,32.29605 C9.09072143,33.3946993 10.0082857,34.2857135 11.1371143,34.2857135 C12.26595,34.2857135 13.1835143,33.3946993 13.1835143,32.29605 L13.1835143,28.0929614 C13.1835143,27.8994378 13.1524429,27.7159935 13.1006643,27.5406128 L16.8993357,27.5406128 C16.8475571,27.7159935 16.8185571,27.8994378 16.8185571,28.0929614 L16.8185571,32.29605 C16.8185571,33.3946993 17.73405,34.2857135 18.8628857,34.2857135 C19.9937857,34.2857135 20.91135,33.3946993 20.91135,32.29605 L20.91135,28.0929614 C20.91135,27.8994378 20.8802786,27.7159935 20.8264286,27.5406128 L22.3860786,27.5406128 C23.5791214,27.5406128 24.5443214,26.597185 24.5443214,25.4380635 L24.5443214,10.8391278 L5.60273429,10.8391278 L5.60273429,10.8391278 Z M2.04639571,10.8391278 C0.915492857,10.8391278 0,11.7301493 0,12.8287921 L0,21.3458421 C0,22.4444921 0.915492857,23.3355064 2.04639571,23.3355064 C3.17522786,23.3355064 4.09072071,22.4444921 4.09072071,21.3458421 L4.09072071,12.8287921 C4.09072071,11.7301493 3.17522786,10.8391278 2.04639571,10.8391278 L2.04639571,10.8391278 Z M27.9556786,10.8391278 C26.8247714,10.8391278 25.9092786,11.7301493 25.9092786,12.8287921 L25.9092786,21.3458421 C25.9092786,22.4444921 26.8247714,23.3355064 27.9556786,23.3355064 C29.0845071,23.3355064 30,22.4444921 30,21.3458421 L30,12.8287921 C30,11.7301493 29.0845071,10.8391278 27.9556786,10.8391278 L27.9556786,10.8391278 Z" id="path-1"></path>
    </defs>
    <g id="Page-1" stroke="none" stroke-width="1" fill="none" fill-rule="evenodd">
        <g id="Social_icons" transform="translate(-460.000000, -301.000000)">
            <g id="Color" transform="translate(60.000000, 60.000000)">
                <g id="Android" transform="translate(400.000000, 241.000000)">
                    <circle id="Oval" fill="#FFFFFF" cx="30" cy="30" r="30"></circle>
                    <g id="Page-1" transform="translate(15.000000, 13.000000)">
                        <mask id="mask-2" fill="white">
                            <use xlink:href="#path-1"></use>
                        </mask>
                        <use id="Clip-2" fill="#A4C639" xlink:href="#path-1"></use>
                    </g>
                </g>
            </g>
        </g>
    </g>
</svg>