<?xml version="1.0" encoding="UTF-8"?>
<svg width="60px" height="60px" viewBox="0 0 60 60" version="1.1" xmlns="http://www.w3.org/2000/svg" xmlns:xlink="http://www.w3.org/1999/xlink">
    <!-- Generator: Sketch 44.1 (41455) - http://www.bohemiancoding.com/sketch -->
    <title>Apple_Color</title>
    <desc>Created with Sketch.</desc>
    <defs></defs>
    <g id="Page-1" stroke="none" stroke-width="1" fill="none" fill-rule="evenodd">
        <g id="Social_icons" transform="translate(-60.000000, -301.000000)">
            <g id="Color" transform="translate(60.000000, 60.000000)">
                <g id="Apple" transform="translate(0.000000, 241.000000)">
                    <path d="M0,30 C0,13.4314567 13.4314567,0 30,0 C46.5685433,0 60,13.4314567 60,30 C60,46.5685433 46.5685433,60 30,60 C13.4314567,60 0,46.5685433 0,30 Z" id="back" fill="#FFFFFF"></path>
                    <path d="M34.8839526,17.7018285 C36.0293979,16.2231943 36.8977193,14.133281 36.5836456,12 C34.71152,12.1301033 32.5232678,13.3278797 31.2464453,14.8891192 C30.0825251,16.3037344 29.1259345,18.4081036 29.4995386,20.4505188 C31.5461496,20.5145379 33.6584493,19.2878497 34.8839526,17.7018285 L34.8839526,17.7018285 Z M45,37.7687129 C44.180945,39.5942893 43.7868133,40.4100163 42.7316899,42.0270144 C41.2598542,44.2842034 39.1845044,47.0948476 36.6103316,47.1154989 C34.3255993,47.1402805 33.7364545,45.6182784 30.63472,45.6368646 C27.5329855,45.6533857 26.8863632,47.1444107 24.5975253,47.1216943 C22.0254053,47.0989778 20.0588523,44.5629961 18.5870167,42.3058072 C14.4691613,35.9988951 14.036027,28.5953981 16.5753027,24.657192 C18.3817397,21.8610037 21.2309836,20.2254194 23.9077948,20.2254194 C26.6318198,20.2254194 28.3458822,21.7288353 30.6018757,21.7288353 C32.7901278,21.7288353 34.1223752,20.2212892 37.2733761,20.2212892 C39.6586941,20.2212892 42.1856532,21.5285175 43.9838792,23.7836413 C38.0883256,27.0341585 39.0428633,35.5032635 45,37.7687129 L45,37.7687129 Z" fill="#0B0B0A"></path>
                </g>
            </g>
        </g>
    </g>
</svg>