<?xml version="1.0" encoding="UTF-8"?>
<svg width="61px" height="60px" viewBox="0 0 61 60" version="1.1" xmlns="http://www.w3.org/2000/svg" xmlns:xlink="http://www.w3.org/1999/xlink">
    <!-- Generator: Sketch 44.1 (41455) - http://www.bohemiancoding.com/sketch -->
    <title>Behance_White</title>
    <desc>Created with Sketch.</desc>
    <defs></defs>
    <g id="Page-1" stroke="none" stroke-width="1" fill="none" fill-rule="evenodd" opacity="0.5">
        <g id="Social_icons" transform="translate(-360.000000, -721.000000)" fill="#FFFFFF">
            <g id="White" transform="translate(60.000000, 560.000000)">
                <g id="Behance" transform="translate(300.000000, 161.000000)">
                    <path d="M0,30 C0,13.4314567 13.4508663,0 30.0433526,0 C46.6358389,0 60.0867052,13.4314567 60.0867052,30 C60.0867052,46.5685433 46.6358389,60 30.0433526,60 C13.4508663,60 0,46.5685433 0,30 Z M34.4478451,23.337355 L42.921998,23.337355 L42.921998,20.9095128 L34.4478451,20.9095128 L34.4478451,23.337355 Z M42.1750533,25.375406 C41.1552952,24.9243619 40.0094783,24.6979118 38.7357213,24.6979118 C36.5927239,24.6979118 34.8523617,25.3679814 33.5071087,26.6988399 C32.1656187,28.0334107 31.493933,29.9508121 31.493933,32.4510441 C31.493933,35.1164733 32.2352332,37.0431555 33.727241,38.225522 C35.211723,39.4097448 36.9295075,40 38.8768317,40 C41.234317,40 43.0687529,39.2983759 44.3782578,37.8969838 C45.2173947,37.0134571 45.6915258,36.1429234 45.7950068,35.2890951 L41.890951,35.2890951 C41.6651742,35.712297 41.4017681,36.0426914 41.1026139,36.2821346 C40.5588683,36.7220418 39.8495531,36.9429234 38.9821942,36.9429234 C38.1581092,36.9429234 37.4563199,36.7610209 36.8730633,36.3990719 C35.9097493,35.8180974 35.4055146,34.8027842 35.3415446,33.3568445 L45.9963244,33.3568445 C46.0132576,32.1113689 45.9718652,31.1535963 45.8683842,30.4928074 C45.6915258,29.362413 45.3039424,28.3675174 44.6999897,27.5099768 C44.0377113,26.537355 43.196693,25.824594 42.1750533,25.375406 Z M28.6811313,22.0788863 C27.6745434,20.7276102 25.9680477,20.0352668 23.5559997,20 L14,20 L14,39.5081206 L22.9106546,39.5081206 C23.915361,39.5081206 24.8448085,39.4227378 25.7046415,39.2464037 C26.5644745,39.0682135 27.3076562,38.7433875 27.9379496,38.2663573 C28.4986285,37.85058 28.9652337,37.3382831 29.3377653,36.7313225 C29.9266662,35.8143852 30.220176,34.7767981 30.220176,33.6204176 C30.220176,32.4993039 29.9624142,31.5452436 29.4506536,30.761949 C28.9332486,29.9767981 28.1731337,29.4032483 27.1646643,29.0394432 C27.8288242,28.7053364 28.3311774,28.3341067 28.6736054,27.9294664 C29.285084,27.2055684 29.5880011,26.2459397 29.5880011,25.0561485 C29.5880011,23.899768 29.285084,22.9085847 28.6811313,22.0788863 Z" id="Combined-Shape"></path>
                    <path d="M17.9416853,23.387471 L22.2464947,23.387471 C23.1928755,23.387471 23.9718052,23.4895592 24.5851653,23.6918794 C25.292599,23.9851508 25.6463159,24.5846868 25.6463159,25.4960557 C25.6463159,26.312761 25.3772653,26.8844548 24.842927,27.2074246 C24.3048259,27.5303944 23.6067995,27.6918794 22.7507294,27.6918794 L17.9416853,27.6918794 L17.9416853,23.387471 Z M36.4553764,28.6348028 C36.9953591,28.0853828 37.759237,27.8106729 38.7376028,27.8106729 C39.6407096,27.8106729 40.3951802,28.0686775 41.0085403,28.5865429 C41.6143745,29.1081206 41.9568025,29.8654292 42.026417,30.8677494 L35.4356182,30.8677494 C35.5748472,29.9285383 35.9153937,29.1842227 36.4553764,28.6348028 Z M17.9416853,30.9197216 L22.8109365,30.9197216 C23.6575993,30.9271462 24.3179962,31.0385151 24.7883643,31.250116 C25.6293826,31.6306265 26.0470696,32.3266821 26.0470696,33.3438515 C26.0470696,34.5429234 25.6143308,35.3522042 24.7469719,35.7791183 C24.2709593,36.0074246 23.6011551,36.1225058 22.7432035,36.1225058 L17.9416853,36.1225058 L17.9416853,30.9197216 Z" id="Combined-Shape"></path>
                </g>
            </g>
        </g>
    </g>
</svg>