<?xml version="1.0" encoding="UTF-8"?>
<svg width="60px" height="60px" viewBox="0 0 60 60" version="1.1" xmlns="http://www.w3.org/2000/svg" xmlns:xlink="http://www.w3.org/1999/xlink">
    <!-- Generator: Sketch 44.1 (41455) - http://www.bohemiancoding.com/sketch -->
    <title>Flickr Copy_White</title>
    <desc>Created with Sketch.</desc>
    <defs></defs>
    <g id="Page-1" stroke="none" stroke-width="1" fill="none" fill-rule="evenodd" opacity="0.5">
        <g id="Social_icons" transform="translate(-660.000000, -721.000000)" fill="#FFFFFF">
            <g id="White" transform="translate(60.000000, 560.000000)">
                <g id="Flickr-Copy" transform="translate(600.000000, 161.000000)">
                    <path d="M0,30 C0,13.4314567 13.4314567,0 30,0 C46.5685433,0 60,13.4314567 60,30 C60,46.5685433 46.5685433,60 30,60 C13.4314567,60 0,46.5685433 0,30 Z M47.8692268,29.7482535 C47.8692268,25.4707874 44.3365076,22 39.9706994,22 C35.6006731,22 32.0658449,25.4707874 32.0658449,29.7482535 C32.0658449,34.0277881 35.6006731,37.4985755 39.9706994,37.4985755 C44.3365076,37.4985755 47.8692268,34.0277881 47.8692268,29.7482535 Z M27.8012728,29.7482535 C27.8012728,25.4707874 24.2664446,22 19.8964182,22 C15.5327192,22 12,25.4707874 12,29.7482535 C12,34.0277881 15.5327192,37.4985755 19.8964182,37.4985755 C24.2664446,37.4985755 27.8012728,34.0277881 27.8012728,29.7482535 Z" id="Combined-Shape"></path>
                </g>
            </g>
        </g>
    </g>
</svg>