<?xml version="1.0" encoding="UTF-8"?>
<svg width="60px" height="60px" viewBox="0 0 60 60" version="1.1" xmlns="http://www.w3.org/2000/svg" xmlns:xlink="http://www.w3.org/1999/xlink">
    <!-- Generator: Sketch 44.1 (41455) - http://www.bohemiancoding.com/sketch -->
    <title>Foursquare_White</title>
    <desc>Created with Sketch.</desc>
    <defs></defs>
    <g id="Page-1" stroke="none" stroke-width="1" fill="none" fill-rule="evenodd" opacity="0.5">
        <g id="Social_icons" transform="translate(-660.000000, -811.000000)" fill="#FFFFFF">
            <g id="White" transform="translate(60.000000, 560.000000)">
                <g id="Foursquare" transform="translate(600.000000, 251.000000)">
                    <path d="M30,60 C13.4314575,60 0,46.5685425 0,30 C0,13.4314575 13.4314575,0 30,0 C46.5685425,0 60,13.4314575 60,30 C60,46.5685425 46.5685425,60 30,60 Z M40.0513218,13 L22.187495,13 C19.7338122,13 19,14.8782455 19,16.0608423 L19,44.7676023 C19,46.1820525 19.7108861,46.5994535 20.1007183,46.7617303 C20.4905797,46.9240365 21.5224904,47.0400074 22.2563027,46.2979645 C22.2563027,46.2979645 30.7410538,36.3039357 30.8786399,36.1416295 C31.0162261,35.9792938 31.0850046,35.9792938 31.1767384,35.9792938 L36.5427439,35.9792938 C38.8359435,35.9792938 39.2716281,34.3793254 39.5238743,33.4054291 C39.7302681,32.593839 42.092217,20.9998418 42.8260293,17.3361393 C43.3764321,14.5072388 42.6655461,13 40.0513218,13 Z" id="Combined-Shape"></path>
                    <path d="M38.9964558,17.8926936 L38.193836,21.8114614 C38.1021313,22.2288624 37.7122699,22.5998691 37.2307038,22.5998691 L30.2594586,22.5998691 C29.4797649,22.5998691 28.8376865,23.2491235 28.8376865,24.0375312 L28.8376865,24.8954861 C28.8376865,25.6838939 29.4797649,26.3331483 30.2594586,26.3331483 L36.1529408,26.3331483 C36.7033145,26.3331483 37.1619253,26.8664612 37.0472653,27.4461685 C36.9326053,28.0490875 36.3134822,31.1099004 36.2446454,31.4345129 C36.1987931,31.7823372 35.831887,32.2229206 35.2815133,32.2229206 L30.4658524,32.2229206 C29.4568387,32.246103 29.2504741,32.2692854 28.654248,33.0112989 C28.0580219,33.7533123 22.7837211,40.4314924 22.7837211,40.4314924 C22.7378687,40.5010396 22.6920164,40.4778572 22.6920164,40.40831 L22.6920164,17.7071755 C22.6920164,17.173892 23.127701,16.7332792 23.6551486,16.7332792 L38.1250866,16.7332792 C38.6295789,16.7332792 39.1340711,17.2434392 38.9964558,17.8926936"></path>
                </g>
            </g>
        </g>
    </g>
</svg>