<?xml version="1.0" encoding="UTF-8"?>
<svg width="61px" height="60px" viewBox="0 0 61 60" version="1.1" xmlns="http://www.w3.org/2000/svg" xmlns:xlink="http://www.w3.org/1999/xlink">
    <!-- Generator: Sketch 44.1 (41455) - http://www.bohemiancoding.com/sketch -->
    <title>Google_White</title>
    <desc>Created with Sketch.</desc>
    <defs></defs>
    <g id="Page-1" stroke="none" stroke-width="1" fill="none" fill-rule="evenodd" opacity="0.5">
        <g id="Social_icons" transform="translate(-460.000000, -641.000000)">
            <g id="White" transform="translate(60.000000, 560.000000)">
                <g id="Google" transform="translate(400.000000, 81.000000)">
                    <path d="M0,30 C0,13.4314567 13.4508663,0 30.0433526,0 C46.6358389,0 60.0867052,13.4314567 60.0867052,30 C60.0867052,46.5685433 46.6358389,60 30.0433526,60 C13.4508663,60 0,46.5685433 0,30 Z M30,22.0266667 C32.4411111,22.0266667 34.0877778,23.0811111 35.0266667,23.9622222 L38.6955556,20.38 C36.4422222,18.2855556 33.51,17 30,17 C24.9155556,17 20.5244444,19.9177778 18.3866667,24.1644444 L22.59,27.4288889 C23.6444444,24.2944444 26.5622222,22.0266667 30,22.0266667 Z M42.48,30.2888889 C42.48,29.22 42.3933333,28.44 42.2055556,27.6311111 L30,27.6311111 L30,32.4555556 L37.1644444,32.4555556 C37.02,33.6544444 36.24,35.46 34.5066667,36.6733333 L38.6088889,39.8511111 C41.0644444,37.5833333 42.48,34.2466667 42.48,30.2888889 Z M22.6044444,32.5711111 C22.33,31.7622222 22.1711111,30.8955556 22.1711111,30 C22.1711111,29.1044444 22.33,28.2377778 22.59,27.4288889 L18.3866667,24.1644444 C17.5055556,25.9266667 17,27.9055556 17,30 C17,32.0944444 17.5055556,34.0733333 18.3866667,35.8355556 L22.6044444,32.5711111 Z M30,43 C33.51,43 36.4566667,41.8444444 38.6088889,39.8511111 L34.5066667,36.6733333 C33.4088889,37.4388889 31.9355556,37.9733333 30,37.9733333 C26.5622222,37.9733333 23.6444444,35.7055556 22.6044444,32.5711111 L18.4011111,35.8355556 C20.5388889,40.0822222 24.9155556,43 30,43 Z" id="Combined-Shape" fill="#FFFFFF"></path>
                    <g id="super-g" transform="translate(17.000000, 17.000000)"></g>
                </g>
            </g>
        </g>
    </g>
</svg>