<?xml version="1.0" encoding="UTF-8"?>
<svg width="60px" height="60px" viewBox="0 0 60 60" version="1.1" xmlns="http://www.w3.org/2000/svg" xmlns:xlink="http://www.w3.org/1999/xlink">
    <!-- Generator: Sketch 44.1 (41455) - http://www.bohemiancoding.com/sketch -->
    <title>Kickstarter_Color</title>
    <desc>Created with Sketch.</desc>
    <defs></defs>
    <g id="Page-1" stroke="none" stroke-width="1" fill="none" fill-rule="evenodd">
        <g id="Social_icons" transform="translate(-460.000000, -382.000000)">
            <g id="Color" transform="translate(60.000000, 60.000000)">
                <g id="Kickstarter" transform="translate(400.000000, 322.000000)">
                    <circle id="Oval" fill="#2BDE73" cx="30" cy="30" r="30"></circle>
                    <path d="M26.7470741,25.2237759 L32.2488713,17.252663 C33.2890675,15.7508877 34.6317231,15 36.2781528,15 C37.6211372,15 38.7829747,15.4763731 39.7656381,16.4294481 C40.7473152,17.3825231 41.2381537,18.52332 41.2381537,19.8518388 C41.2381537,20.8338447 40.978762,21.7004559 40.4586639,22.4513435 L35.4980054,29.664336 L41.5632973,37.3540305 C42.1698592,38.1193836 42.4729759,39.0149256 42.4729759,40.0399991 C42.4729759,41.3977776 41.9969315,42.5632315 41.0435278,43.5380046 C40.0904529,44.5131066 38.934533,45 37.5777408,45 C36.0901022,45 34.9568667,44.516723 34.1767195,43.5488537 L26.7470741,34.2781529 L26.7470741,39.3903695 C26.7470741,40.8490772 26.4945865,41.9823127 25.9889537,42.7910621 C25.0648096,44.2635778 23.7218253,45 21.9603297,45 C20.3572963,45 19.1149125,44.4585325 18.2344935,43.3755972 C17.4112787,42.3791259 17,41.057511 17,39.4120677 L17,20.4584009 C17,18.8987638 17.4181826,17.6139701 18.2561917,16.6030333 C19.1369395,15.5345636 20.3497348,15 21.8949064,15 C23.3680796,15 24.5953403,15.5345636 25.5773463,16.6030333 C26.1260465,17.1948012 26.4725595,17.7941305 26.6168852,18.4006926 C26.7036777,18.7764652 26.7470741,19.476395 26.7470741,20.5017972 L26.7470741,25.2237759" id="K" fill="#FFFFFF"></path>
                </g>
            </g>
        </g>
    </g>
</svg>