<?xml version="1.0" encoding="UTF-8"?>
<svg width="60px" height="60px" viewBox="0 0 60 60" version="1.1" xmlns="http://www.w3.org/2000/svg" xmlns:xlink="http://www.w3.org/1999/xlink">
    <!-- Generator: Sketch 44.1 (41455) - http://www.bohemiancoding.com/sketch -->
    <title>Kickstarter_White</title>
    <desc>Created with Sketch.</desc>
    <defs></defs>
    <g id="Page-1" stroke="none" stroke-width="1" fill="none" fill-rule="evenodd" opacity="0.5">
        <g id="Social_icons" transform="translate(-460.000000, -896.000000)" fill="#FFFFFF">
            <g id="White" transform="translate(60.000000, 560.000000)">
                <g id="Kickstarter" transform="translate(400.000000, 336.000000)">
                    <path d="M30,60 C13.4314575,60 0,46.5685425 0,30 C0,13.4314575 13.4314575,0 30,0 C46.5685425,0 60,13.4314575 60,30 C60,46.5685425 46.5685425,60 30,60 Z M26.7470741,25.2237759 L26.7470741,20.5017972 C26.7470741,19.476395 26.7036777,18.7764652 26.6168852,18.4006926 C26.4725595,17.7941305 26.1260465,17.1948012 25.5773463,16.6030333 C24.5953403,15.5345636 23.3680796,15 21.8949064,15 C20.3497348,15 19.1369395,15.5345636 18.2561917,16.6030333 C17.4181826,17.6139701 17,18.8987638 17,20.4584009 L17,39.4120677 C17,41.057511 17.4112787,42.3791259 18.2344935,43.3755972 C19.1149125,44.4585325 20.3572963,45 21.9603297,45 C23.7218253,45 25.0648096,44.2635778 25.9889537,42.7910621 C26.4945865,41.9823127 26.7470741,40.8490772 26.7470741,39.3903695 L26.7470741,34.2781529 L34.1767195,43.5488537 C34.9568667,44.516723 36.0901022,45 37.5777408,45 C38.934533,45 40.0904529,44.5131066 41.0435278,43.5380046 C41.9969315,42.5632315 42.4729759,41.3977776 42.4729759,40.0399991 C42.4729759,39.0149256 42.1698592,38.1193836 41.5632973,37.3540305 L35.4980054,29.664336 L40.4586639,22.4513435 C40.978762,21.7004559 41.2381537,20.8338447 41.2381537,19.8518388 C41.2381537,18.52332 40.7473152,17.3825231 39.7656381,16.4294481 C38.7829747,15.4763731 37.6211372,15 36.2781528,15 C34.6317231,15 33.2890675,15.7508877 32.2488713,17.252663 L26.7470741,25.2237759 Z" id="Combined-Shape"></path>
                </g>
            </g>
        </g>
    </g>
</svg>