<?xml version="1.0" encoding="UTF-8"?>
<svg width="60px" height="60px" viewBox="0 0 60 60" version="1.1" xmlns="http://www.w3.org/2000/svg" xmlns:xlink="http://www.w3.org/1999/xlink">
    <!-- Generator: Sketch 44.1 (41455) - http://www.bohemiancoding.com/sketch -->
    <title>Medium_White</title>
    <desc>Created with Sketch.</desc>
    <defs></defs>
    <g id="Page-1" stroke="none" stroke-width="1" fill="none" fill-rule="evenodd" opacity="0.5">
        <g id="Social_icons" transform="translate(-660.000000, -641.000000)" fill="#FFFFFF">
            <g id="White" transform="translate(60.000000, 560.000000)">
                <g id="Medium" transform="translate(600.000000, 81.000000)">
                    <path d="M0,30 C0,13.4314567 13.4314567,0 30,0 C46.5685433,0 60,13.4314567 60,30 C60,46.5685433 46.5685433,60 30,60 C13.4314567,60 0,46.5685433 0,30 Z M25.1755958,21.9211255 L15.5705752,17.1754761 C15.4883945,17.1348196 15.410051,17.1156499 15.3392754,17.1156499 C15.2384414,17.1156499 15.1531696,17.1548319 15.0931595,17.2263494 C15.0344285,17.2962871 15,17.3974018 15,17.5239005 L15,37.8970356 C15,38.2437747 15.2567748,38.6542372 15.5705752,38.8092797 L24.4467347,43.1948133 C24.5700591,43.2557981 24.6875211,43.2846579 24.7936845,43.2846579 C25.0927755,43.2846579 25.3025443,43.0559913 25.3025443,42.6721768 L25.3025443,22.1241975 C25.3025443,22.03825 25.2534064,21.9595701 25.1755958,21.9211255 Z M36.4257235,38.9266149 L45.050864,43.1880724 C45.5215646,43.4206361 45.9066735,43.1854392 45.9066735,42.6653305 L45.9066735,23.7025346 L36.4257235,38.9266149 Z M26.213141,23.4460614 L26.213141,33.8869956 L35.6051952,38.5274225 L26.213141,23.4460614 Z M45.6809163,21.8718321 L35.8904295,17.0345475 C35.8459815,17.012534 35.7975898,17.0023172 35.749198,17.0010533 C35.7460003,17.000948 35.7429092,17 35.7397115,17 C35.6206507,17 35.5021228,17.0590889 35.4379557,17.1619942 L29.4034805,26.8520465 L36.139743,37.6690009 L45.7748219,22.1974003 C45.8462371,22.082593 45.8028551,21.9320796 45.6809163,21.8718321 Z" id="Combined-Shape"></path>
                </g>
            </g>
        </g>
    </g>
</svg>