<?xml version="1.0" encoding="UTF-8"?>
<svg width="61px" height="60px" viewBox="0 0 61 60" version="1.1" xmlns="http://www.w3.org/2000/svg" xmlns:xlink="http://www.w3.org/1999/xlink">
    <!-- Generator: Sketch 44.1 (41455) - http://www.bohemiancoding.com/sketch -->
    <title>Slack_Color</title>
    <desc>Created with Sketch.</desc>
    <defs></defs>
    <g id="Page-1" stroke="none" stroke-width="1" fill="none" fill-rule="evenodd">
        <g id="Social_icons" transform="translate(-260.000000, -141.000000)">
            <g id="Color" transform="translate(60.000000, 60.000000)">
                <g id="Slack" transform="translate(200.000000, 81.000000)">
                    <path d="M0,30 C0,13.4314567 13.4508663,0 30.0433526,0 C46.6358389,0 60.0867052,13.4314567 60.0867052,30 C60.0867052,46.5685433 46.6358389,60 30.0433526,60 C13.4508663,60 0,46.5685433 0,30 Z" id="back" fill="#FFFFFF"></path>
                    <g id="Group" transform="translate(14.000000, 14.000000)">
                        <path d="M20.7454426,1.97980327 C20.2591475,0.482885246 18.651541,-0.336262295 17.1548853,0.150295082 C15.6579673,0.636590164 14.8388196,2.24419672 15.325377,3.74085246 L22.6937705,26.411541 C23.1997378,27.8098361 24.7102951,28.5956721 26.1602623,28.1783606 C27.6726558,27.7429509 28.594623,26.1366557 28.112,24.6512787 C28.0936394,24.594623 20.7454426,1.97980327 20.7454426,1.97980327" id="Shape" fill="#DFA22F"></path>
                        <path d="M9.3282623,5.68944263 C8.84170491,4.19278689 7.23409836,3.37363935 5.73744263,3.85993443 C4.24052459,4.34622951 3.42137705,5.95383606 3.90793443,7.4507541 L11.2763279,30.1214426 C11.7822951,31.5197378 13.2928525,32.3055738 14.7428196,31.888 C16.2552131,31.4528525 17.1771804,29.8465574 16.6945574,28.360918 C16.6761968,28.3045246 9.3282623,5.68944263 9.3282623,5.68944263" id="Shape" fill="#3CB187"></path>
                        <path d="M30.0201968,20.7556721 C31.5171148,20.269377 32.336,18.6617705 31.8497049,17.1648525 C31.3634099,15.6681968 29.7558033,14.8490491 28.2591475,15.3353443 L5.58845901,22.704 C4.19016394,23.2097049 3.40432788,24.7202623 3.82163935,26.1702295 C4.25704918,27.682623 5.86334426,28.6045901 7.34872131,28.1219672 C7.40537705,28.1036065 30.0201968,20.7556721 30.0201968,20.7556721" id="Shape" fill="#CE1E5B"></path>
                        <path d="M10.3134426,27.1588196 C11.7891148,26.6793443 13.6910164,26.061377 15.7319344,25.3982951 C15.252459,23.922623 14.6344918,22.020459 13.9711475,19.9792788 L8.55239344,21.7405901 L10.3134426,27.1588196" id="Shape" fill="#392538"></path>
                        <path d="M21.7308853,23.448918 C23.7794099,22.7834754 25.6834099,22.1647213 27.149377,21.6883935 C26.6699016,20.2127213 26.0516721,18.3100328 25.3883279,16.2683279 L19.9695738,18.0296394 L21.7308853,23.448918" id="Shape" fill="#BB242A"></path>
                        <path d="M26.3105574,9.33822951 C27.8072131,8.85193443 28.6263606,7.24432788 28.1400656,5.74740984 C27.6537705,4.2507541 26.0461639,3.43160656 24.5492459,3.91790164 L1.87855737,11.2865574 C0.480262295,11.7922623 -0.30557377,13.3028196 0.112,14.7527869 C0.547147541,16.2651804 2.15344262,17.1871475 3.63908196,16.7045246 C3.69547541,16.6861639 26.3105574,9.33822951 26.3105574,9.33822951" id="Shape" fill="#72C5CD"></path>
                        <path d="M6.6027541,15.7416394 C8.07842623,15.2621639 9.98085246,14.6439344 12.0220328,13.9808525 C11.3565902,11.9320656 10.7378361,10.0280656 10.2615082,8.56183606 L4.84144263,10.3234098 L6.6027541,15.7416394" id="Shape" fill="#248C73"></path>
                        <path d="M18.0199344,12.032 C20.0689836,11.3662951 21.9732459,10.747541 23.4394754,10.2709508 C22.7737705,8.22190164 22.1550164,6.31737705 21.6784262,4.85088525 L16.258623,6.61245901 L18.0199344,12.032" id="Shape" fill="#62803A"></path>
                    </g>
                </g>
            </g>
        </g>
    </g>
</svg>