<?xml version="1.0" encoding="UTF-8"?>
<svg width="60px" height="60px" viewBox="0 0 60 60" version="1.1" xmlns="http://www.w3.org/2000/svg" xmlns:xlink="http://www.w3.org/1999/xlink">
    <!-- Generator: Sketch 44.1 (41455) - http://www.bohemiancoding.com/sketch -->
    <title>Vimeo_White</title>
    <desc>Created with Sketch.</desc>
    <defs></defs>
    <g id="Page-1" stroke="none" stroke-width="1" fill="none" fill-rule="evenodd" opacity="0.5">
        <g id="Social_icons" transform="translate(-61.000000, -890.000000)" fill="#FFFFFF">
            <g id="White" transform="translate(60.000000, 560.000000)">
                <g id="Vimeo" transform="translate(1.000000, 330.000000)">
                    <path d="M0,30 C0,13.4314567 13.4314567,0 30,0 C46.5685433,0 60,13.4314567 60,30 C60,46.5685433 46.5685433,60 30,60 C13.4314567,60 0,46.5685433 0,30 Z M46.9824963,24.2025083 C47.1962924,19.5135252 45.4514676,17.1148582 41.7525885,17.0065072 C36.7634607,16.8458488 33.3834076,19.6600689 31.6136746,25.4541492 C32.5278083,25.062259 33.4166186,24.863823 34.278445,24.863823 C36.1092033,24.863823 36.9170618,25.8933651 36.7016052,27.9470525 C36.592839,29.1916361 35.7849806,31.0024678 34.278445,33.3820385 C32.7690035,35.7632697 31.6365071,36.9530551 30.8838621,36.9530551 C29.9136847,36.9530551 29.0248743,35.120221 28.2161856,31.4508168 C27.9446854,30.3743641 27.4602194,27.6240752 26.760712,23.2011956 C26.113512,19.1025386 24.3890289,17.1879225 21.5885084,17.457347 C20.4028744,17.565698 18.6227629,18.6429809 16.2531555,20.689611 C14.5290877,22.2526054 12.7767904,23.813524 11,25.3740276 L12.6929325,27.5551623 C14.3065737,26.4268174 15.2489368,25.8601541 15.5183614,25.8601541 C16.7546422,25.8601541 17.9095559,27.7984331 18.987254,31.6708399 C19.956186,35.222345 20.9238725,38.7734349 21.8923893,42.32494 C23.3432965,46.1994225 25.1188414,48.1352107 27.218194,48.1352107 C30.6044742,48.1352107 34.7458903,44.9540086 39.6403667,38.5945105 C44.3750149,32.5040217 46.8222531,27.7066877 46.9824963,24.2025083 Z" id="Combined-Shape"></path>
                </g>
            </g>
        </g>
    </g>
</svg>