<?xml version="1.0" encoding="UTF-8"?>
<svg width="18px" height="22px" viewBox="0 0 18 22" version="1.1" xmlns="http://www.w3.org/2000/svg" xmlns:xlink="http://www.w3.org/1999/xlink">
    <!-- Generator: Sketch 42 (36781) - http://www.bohemiancoding.com/sketch -->
    <title>ic_beenhere</title>
    <desc>Created with Sketch.</desc>
    <defs></defs>
    <g id="Page-1" stroke="none" stroke-width="1" fill="none" fill-rule="evenodd">
        <g id="Maps" transform="translate(-99.000000, -49.000000)">
            <g id="ic_beenhere" transform="translate(96.000000, 48.000000)">
                <g id="Icon-24px">
                    <polygon id="Shape" points="0 0 24 0 24 24 0 24"></polygon>
                    <path d="M19,1 L5,1 C3.9,1 3.01,1.9 3.01,3 L3,15.93 C3,16.62 3.35,17.23 3.88,17.59 L12,23 L20.11,17.59 C20.64,17.23 20.99,16.62 20.99,15.93 L21,3 C21,1.9 20.1,1 19,1 L19,1 Z M10,16 L5,11 L6.41,9.59 L10,13.17 L17.59,5.58 L19,7 L10,16 L10,16 Z" id="Shape" fill="#000000"></path>
                </g>
            </g>
        </g>
    </g>
</svg>