<?xml version="1.0" encoding="UTF-8"?>
<svg width="14px" height="20px" viewBox="0 0 14 20" version="1.1" xmlns="http://www.w3.org/2000/svg" xmlns:xlink="http://www.w3.org/1999/xlink">
    <!-- Generator: Sketch 42 (36781) - http://www.bohemiancoding.com/sketch -->
    <title>ic_edit_location</title>
    <desc>Created with Sketch.</desc>
    <defs></defs>
    <g id="Page-1" stroke="none" stroke-width="1" fill="none" fill-rule="evenodd">
        <g id="Maps" transform="translate(-197.000000, -98.000000)">
            <g id="ic_edit_location" transform="translate(192.000000, 96.000000)">
                <g id="Icon-24px">
                    <path d="M12,2 C8.14,2 5,5.14 5,9 C5,14.25 12,22 12,22 C12,22 19,14.25 19,9 C19,5.14 15.86,2 12,2 L12,2 Z M10.44,12 L9,12 L9,10.56 L12.35,7.22 L13.78,8.65 L10.44,12 L10.44,12 Z M14.89,7.55 L14.19,8.25 L12.75,6.81 L13.45,6.11 C13.6,5.96 13.84,5.96 13.99,6.11 L14.89,7.01 C15.04,7.16 15.04,7.4 14.89,7.55 L14.89,7.55 Z" id="Shape" fill="#000000"></path>
                    <polygon id="Shape" points="0 0 24 0 24 24 0 24"></polygon>
                </g>
            </g>
        </g>
    </g>
</svg>