<?xml version="1.0" encoding="UTF-8"?>
<svg width="16px" height="20px" viewBox="0 0 16 20" version="1.1" xmlns="http://www.w3.org/2000/svg" xmlns:xlink="http://www.w3.org/1999/xlink">
    <!-- Generator: Sketch 42 (36781) - http://www.bohemiancoding.com/sketch -->
    <title>ic_local_laundry_service</title>
    <desc>Created with Sketch.</desc>
    <defs></defs>
    <g id="Page-1" stroke="none" stroke-width="1" fill="none" fill-rule="evenodd">
        <g id="Maps" transform="translate(-244.000000, -194.000000)">
            <g id="ic_local_laundry_service" transform="translate(240.000000, 192.000000)">
                <g id="Icon-24px">
                    <path d="M9.17,16.83 C10.73,18.39 13.27,18.39 14.83,16.83 C16.39,15.27 16.39,12.73 14.83,11.17 L9.17,16.83 L9.17,16.83 Z M18,2.01 L6,2 C4.89,2 4,2.89 4,4 L4,20 C4,21.11 4.89,22 6,22 L18,22 C19.11,22 20,21.11 20,20 L20,4 C20,2.89 19.11,2.01 18,2.01 L18,2.01 Z M10,4 C10.55,4 11,4.45 11,5 C11,5.55 10.55,6 10,6 C9.45,6 9,5.55 9,5 C9,4.45 9.45,4 10,4 L10,4 Z M7,4 C7.55,4 8,4.45 8,5 C8,5.55 7.55,6 7,6 C6.45,6 6,5.55 6,5 C6,4.45 6.45,4 7,4 L7,4 Z M12,20 C8.69,20 6,17.31 6,14 C6,10.69 8.69,8 12,8 C15.31,8 18,10.69 18,14 C18,17.31 15.31,20 12,20 L12,20 Z" id="Shape" fill="#000000"></path>
                    <polygon id="Shape" points="0 0 24 0 24 24 0 24"></polygon>
                </g>
            </g>
        </g>
    </g>
</svg>