<?xml version="1.0" encoding="UTF-8"?>
<svg width="20px" height="20px" viewBox="0 0 20 20" version="1.1" xmlns="http://www.w3.org/2000/svg" xmlns:xlink="http://www.w3.org/1999/xlink">
    <!-- Generator: Sketch 42 (36781) - http://www.bohemiancoding.com/sketch -->
    <title>ic_layers_clear</title>
    <desc>Created with Sketch.</desc>
    <defs></defs>
    <g id="Page-1" stroke="none" stroke-width="1" fill="none" fill-rule="evenodd">
        <g id="Maps" transform="translate(-386.000000, -97.000000)">
            <g id="ic_layers_clear" transform="translate(384.000000, 96.000000)">
                <g id="Icon-24px">
                    <polygon id="Shape" points="0 0 24 0 24 24 0 24"></polygon>
                    <path d="M19.81,14.99 L21,14.07 L19.57,12.64 L18.38,13.56 L19.81,14.99 L19.81,14.99 Z M19.36,10.27 L21,9 L12,2 L9.09,4.27 L16.96,12.15 L19.36,10.27 L19.36,10.27 Z M3.27,1 L2,2.27 L6.22,6.49 L3,9 L4.63,10.27 L12,16 L14.1,14.37 L15.53,15.8 L12,18.54 L4.63,12.81 L3,14.07 L12,21.07 L16.95,17.22 L20.73,21 L22,19.73 L3.27,1 L3.27,1 Z" id="Shape" fill="#000000"></path>
                </g>
            </g>
        </g>
    </g>
</svg>