<?xml version="1.0" encoding="UTF-8"?>
<svg width="20px" height="16px" viewBox="0 0 20 16" version="1.1" xmlns="http://www.w3.org/2000/svg" xmlns:xlink="http://www.w3.org/1999/xlink">
    <!-- Generator: Sketch 42 (36781) - http://www.bohemiancoding.com/sketch -->
    <title>ic_local_convenience_store</title>
    <desc>Created with Sketch.</desc>
    <defs></defs>
    <g id="Page-1" stroke="none" stroke-width="1" fill="none" fill-rule="evenodd">
        <g id="Maps" transform="translate(-290.000000, -148.000000)">
            <g id="ic_local_convenience_store" transform="translate(288.000000, 144.000000)">
                <g id="Icon-24px">
                    <polygon id="Shape" points="0 0 24 0 24 24 0 24"></polygon>
                    <path d="M19,7 L19,4 L5,4 L5,7 L2,7 L2,20 L10,20 L10,16 L14,16 L14,20 L22,20 L22,7 L19,7 L19,7 Z M11,10 L9,10 L9,11 L11,11 L11,12 L8,12 L8,9 L10,9 L10,8 L8,8 L8,7 L11,7 L11,10 L11,10 Z M16,12 L15,12 L15,10 L13,10 L13,7 L14,7 L14,9 L15,9 L15,7 L16,7 L16,12 L16,12 Z" id="Shape" fill="#000000"></path>
                </g>
            </g>
        </g>
    </g>
</svg>