<?xml version="1.0" encoding="UTF-8"?>
<svg width="18px" height="20px" viewBox="0 0 18 20" version="1.1" xmlns="http://www.w3.org/2000/svg" xmlns:xlink="http://www.w3.org/1999/xlink">
    <!-- Generator: Sketch 42 (36781) - http://www.bohemiancoding.com/sketch -->
    <title>ic_local_drink</title>
    <desc>Created with Sketch.</desc>
    <defs></defs>
    <g id="Page-1" stroke="none" stroke-width="1" fill="none" fill-rule="evenodd">
        <g id="Maps" transform="translate(-387.000000, -146.000000)">
            <g id="ic_local_drink" transform="translate(384.000000, 144.000000)">
                <g id="Icon-24px">
                    <polygon id="Shape" points="0 0 24 0 24 24 0 24"></polygon>
                    <path d="M3,2 L5.01,20.23 C5.13,21.23 5.97,22 7,22 L17,22 C18.03,22 18.87,21.23 18.99,20.23 L21,2 L3,2 L3,2 Z M12,19 C10.34,19 9,17.66 9,16 C9,14 12,10.6 12,10.6 C12,10.6 15,14 15,16 C15,17.66 13.66,19 12,19 L12,19 Z M18.33,8 L5.67,8 L5.23,4 L18.76,4 L18.33,8 L18.33,8 Z" id="Shape" fill="#000000"></path>
                </g>
            </g>
        </g>
    </g>
</svg>