<?xml version="1.0" encoding="UTF-8"?>
<svg width="13px" height="18px" viewBox="0 0 13 18" version="1.1" xmlns="http://www.w3.org/2000/svg" xmlns:xlink="http://www.w3.org/1999/xlink">
    <!-- Generator: Sketch 42 (36781) - http://www.bohemiancoding.com/sketch -->
    <title>ic_local_parking</title>
    <desc>Created with Sketch.</desc>
    <defs></defs>
    <g id="Page-1" stroke="none" stroke-width="1" fill="none" fill-rule="evenodd">
        <g id="Maps" transform="translate(-54.000000, -243.000000)">
            <g id="ic_local_parking" transform="translate(48.000000, 240.000000)">
                <g id="Icon-24px">
                    <polygon id="Shape" points="0 0 24 0 24 24 0 24"></polygon>
                    <path d="M13,3 L6,3 L6,21 L10,21 L10,15 L13,15 C16.31,15 19,12.31 19,9 C19,5.69 16.31,3 13,3 L13,3 Z M13.2,11 L10,11 L10,7 L13.2,7 C14.3,7 15.2,7.9 15.2,9 C15.2,10.1 14.3,11 13.2,11 L13.2,11 Z" id="Shape" fill="#000000"></path>
                </g>
            </g>
        </g>
    </g>
</svg>