<?xml version="1.0" encoding="UTF-8"?>
<svg width="14px" height="20px" viewBox="0 0 14 20" version="1.1" xmlns="http://www.w3.org/2000/svg" xmlns:xlink="http://www.w3.org/1999/xlink">
    <!-- Generator: Sketch 42 (36781) - http://www.bohemiancoding.com/sketch -->
    <title>ic_person_pin_circle</title>
    <desc>Created with Sketch.</desc>
    <defs>
        <polygon id="path-1" points="0 0 24 0 24 24 0 24"></polygon>
    </defs>
    <g id="Page-1" stroke="none" stroke-width="1" fill="none" fill-rule="evenodd">
        <g id="Maps" transform="translate(-343.000000, -290.000000)">
            <g id="ic_person_pin_circle" transform="translate(338.000000, 288.000000)">
                <g id="Icon-24px">
                    <mask id="mask-2" fill="white">
                        <use xlink:href="#path-1"></use>
                    </mask>
                    <g id="a"></g>
                    <path d="M12,2 C8.14,2 5,5.14 5,9 C5,14.25 12,22 12,22 C12,22 19,14.25 19,9 C19,5.14 15.86,2 12,2 L12,2 Z M12,4 C13.1,4 14,4.9 14,6 C14,7.11 13.1,8 12,8 C10.9,8 10,7.11 10,6 C10,4.9 10.9,4 12,4 L12,4 Z M12,14 C10.33,14 8.86,13.15 8,11.85 C8.02,10.53 10.67,9.8 12,9.8 C13.33,9.8 15.98,10.53 16,11.85 C15.14,13.15 13.67,14 12,14 L12,14 Z" id="Shape" fill="#000000" mask="url(#mask-2)"></path>
                </g>
            </g>
        </g>
    </g>
</svg>