<?xml version="1.0" encoding="UTF-8"?>
<svg width="20px" height="20px" viewBox="0 0 20 20" version="1.1" xmlns="http://www.w3.org/2000/svg" xmlns:xlink="http://www.w3.org/1999/xlink">
    <!-- Generator: Sketch 42 (36781) - http://www.bohemiancoding.com/sketch -->
    <title>ic_rate_review</title>
    <desc>Created with Sketch.</desc>
    <defs></defs>
    <g id="Page-1" stroke="none" stroke-width="1" fill="none" fill-rule="evenodd">
        <g id="Maps" transform="translate(-50.000000, -338.000000)">
            <g id="ic_rate_review" transform="translate(48.000000, 336.000000)">
                <g id="Icon-24px">
                    <path d="M0,0 L24,0 L24,24 L0,24 L0,0 Z M15.35,6.41 L13.58,4.64 C13.38,4.44 13.07,4.44 12.87,4.64 L6,11.53 L6,14 L8.47,14 L15.35,7.12 C15.55,6.93 15.55,6.61 15.35,6.41 L15.35,6.41 Z" id="Shape"></path>
                    <path d="M20,2 L4,2 C2.9,2 2.01,2.9 2.01,4 L2,22 L6,18 L20,18 C21.1,18 22,17.1 22,16 L22,4 C22,2.9 21.1,2 20,2 L20,2 Z M6,14 L6,11.53 L12.88,4.65 C13.08,4.45 13.39,4.45 13.59,4.65 L15.36,6.42 C15.56,6.62 15.56,6.93 15.36,7.13 L8.47,14 L6,14 L6,14 Z M18,14 L10.5,14 L12.5,12 L18,12 L18,14 L18,14 Z" id="Shape" fill="#000000"></path>
                </g>
            </g>
        </g>
    </g>
</svg>