<?xml version="1.0" encoding="UTF-8"?>
<svg width="18px" height="18px" viewBox="0 0 18 18" version="1.1" xmlns="http://www.w3.org/2000/svg" xmlns:xlink="http://www.w3.org/1999/xlink">
    <!-- Generator: Sketch 42 (36781) - http://www.bohemiancoding.com/sketch -->
    <title>ic_satellite</title>
    <desc>Created with Sketch.</desc>
    <defs></defs>
    <g id="Page-1" stroke="none" stroke-width="1" fill="none" fill-rule="evenodd">
        <g id="Maps" transform="translate(-147.000000, -339.000000)">
            <g id="ic_satellite" transform="translate(144.000000, 336.000000)">
                <g id="Icon-24px">
                    <polygon id="Shape" points="0 0 24 0 24 24 0 24"></polygon>
                    <path d="M19,3 L5,3 C3.9,3 3,3.9 3,5 L3,19 C3,20.1 3.9,21 5,21 L19,21 C20.1,21 21,20.1 21,19 L21,5 C21,3.9 20.1,3 19,3 L19,3 Z M5,4.99 L8,4.99 C8,6.65 6.66,8 5,8 L5,4.99 L5,4.99 Z M5,12 L5,10 C7.76,10 10,7.75 10,4.99 L12,4.99 C12,8.86 8.87,12 5,12 L5,12 Z M5,18 L8.5,13.5 L11,16.51 L14.5,12 L19,18 L5,18 L5,18 Z" id="Shape" fill="#000000"></path>
                </g>
            </g>
        </g>
    </g>
</svg>