<?xml version="1.0" encoding="UTF-8"?>
<svg width="22px" height="18px" viewBox="0 0 22 18" version="1.1" xmlns="http://www.w3.org/2000/svg" xmlns:xlink="http://www.w3.org/1999/xlink">
    <!-- Generator: Sketch 42 (36781) - http://www.bohemiancoding.com/sketch -->
    <title>ic_aspect_ratio</title>
    <desc>Created with Sketch.</desc>
    <defs></defs>
    <g id="Page-1" stroke="none" stroke-width="1" fill="none" fill-rule="evenodd">
        <g id="Action" transform="translate(-337.000000, -99.000000)">
            <g id="ic_aspect_ratio" transform="translate(336.000000, 96.000000)">
                <g id="Icon-24px">
                    <path d="M19,12 L17,12 L17,15 L14,15 L14,17 L19,17 L19,12 L19,12 Z M7,9 L10,9 L10,7 L5,7 L5,12 L7,12 L7,9 L7,9 Z M21,3 L3,3 C1.9,3 1,3.9 1,5 L1,19 C1,20.1 1.9,21 3,21 L21,21 C22.1,21 23,20.1 23,19 L23,5 C23,3.9 22.1,3 21,3 L21,3 Z M21,19.01 L3,19.01 L3,4.99 L21,4.99 L21,19.01 L21,19.01 Z" id="Shape" fill="#000000"></path>
                    <polygon id="Shape" points="0 0 24 0 24 24 0 24"></polygon>
                </g>
            </g>
        </g>
    </g>
</svg>