<?xml version="1.0" encoding="UTF-8"?>
<svg width="17px" height="17px" viewBox="0 0 17 17" version="1.1" xmlns="http://www.w3.org/2000/svg" xmlns:xlink="http://www.w3.org/1999/xlink">
    <!-- Generator: Sketch 42 (36781) - http://www.bohemiancoding.com/sketch -->
    <title>ic_all_out</title>
    <desc>Created with Sketch.</desc>
    <defs></defs>
    <g id="Page-1" stroke="none" stroke-width="1" fill="none" fill-rule="evenodd">
        <g id="Action" transform="translate(-196.000000, -100.000000)">
            <g id="ic_all_out" transform="translate(192.000000, 96.000000)">
                <g id="Icon-24px">
                    <path d="M16.21,4.16 L20.21,8.16 L20.21,4.16 L16.21,4.16 Z M20.21,16.16 L16.21,20.16 L20.21,20.16 L20.21,16.16 Z M8.21,20.16 L4.21,16.16 L4.21,20.16 L8.21,20.16 Z M4.21,8.16 L8.21,4.16 L4.21,4.16 L4.21,8.16 Z M17.16,7.21 C14.43,4.48 9.99,4.48 7.26,7.21 C4.53,9.94 4.53,14.38 7.26,17.11 C9.99,19.84 14.43,19.84 17.16,17.11 C19.89,14.38 19.89,9.95 17.16,7.21 L17.16,7.21 Z M16.06,16.01 C13.93,18.14 10.49,18.14 8.36,16.01 C6.23,13.88 6.23,10.44 8.36,8.31 C10.49,6.18 13.93,6.18 16.06,8.31 C18.19,10.44 18.19,13.88 16.06,16.01 L16.06,16.01 Z" id="Shape" fill="#010101"></path>
                    <polygon id="Shape" points="0.21 0.16 24 0.16 24 23.95 0.21 23.95"></polygon>
                </g>
            </g>
        </g>
    </g>
</svg>