<?xml version="1.0" encoding="UTF-8"?>
<svg width="22px" height="22px" viewBox="0 0 22 22" version="1.1" xmlns="http://www.w3.org/2000/svg" xmlns:xlink="http://www.w3.org/1999/xlink">
    <!-- Generator: Sketch 42 (36781) - http://www.bohemiancoding.com/sketch -->
    <title>ic_build</title>
    <desc>Created with Sketch.</desc>
    <defs></defs>
    <g id="Page-1" stroke="none" stroke-width="1" fill="none" fill-rule="evenodd">
        <g id="Action" transform="translate(-145.000000, -193.000000)">
            <g id="ic_build" transform="translate(144.000000, 192.000000)">
                <g id="Icon-24px">
                    <polygon id="Shape" points="0 0 24 0 24 24 0 24"></polygon>
                    <path d="M22.7,19 L13.6,9.9 C14.5,7.6 14,4.9 12.1,3 C10.1,1 7.1,0.6 4.7,1.7 L9,6 L6,9 L1.6,4.7 C0.4,7.1 0.9,10.1 2.9,12.1 C4.8,14 7.5,14.5 9.8,13.6 L18.9,22.7 C19.3,23.1 19.9,23.1 20.3,22.7 L22.6,20.4 C23.1,20 23.1,19.3 22.7,19 L22.7,19 Z" id="Shape" fill="#000000"></path>
                </g>
            </g>
        </g>
    </g>
</svg>