<?xml version="1.0" encoding="UTF-8"?>
<svg width="22px" height="17px" viewBox="0 0 22 17" version="1.1" xmlns="http://www.w3.org/2000/svg" xmlns:xlink="http://www.w3.org/1999/xlink">
    <!-- Generator: Sketch 42 (36781) - http://www.bohemiancoding.com/sketch -->
    <title>ic_chrome_reader_mode</title>
    <desc>Created with Sketch.</desc>
    <defs></defs>
    <g id="Page-1" stroke="none" stroke-width="1" fill="none" fill-rule="evenodd">
        <g id="Action" transform="translate(-97.000000, -244.000000)">
            <g id="ic_chrome_reader_mode" transform="translate(96.000000, 240.000000)">
                <g id="Icon-24px">
                    <polygon id="Shape" points="0 0 24 0 24 24 0 24"></polygon>
                    <path d="M13,12 L20,12 L20,13.5 L13,13.5 L13,12 Z M13,9.5 L20,9.5 L20,11 L13,11 L13,9.5 Z M13,14.5 L20,14.5 L20,16 L13,16 L13,14.5 Z M21,4 L3,4 C1.9,4 1,4.9 1,6 L1,19 C1,20.1 1.9,21 3,21 L21,21 C22.1,21 23,20.1 23,19 L23,6 C23,4.9 22.1,4 21,4 L21,4 Z M21,19 L12,19 L12,6 L21,6 L21,19 L21,19 Z" id="Shape" fill="#000000"></path>
                </g>
            </g>
        </g>
    </g>
</svg>