<?xml version="1.0" encoding="UTF-8"?>
<svg width="20px" height="20px" viewBox="0 0 20 20" version="1.1" xmlns="http://www.w3.org/2000/svg" xmlns:xlink="http://www.w3.org/1999/xlink">
    <!-- Generator: Sketch 42 (36781) - http://www.bohemiancoding.com/sketch -->
    <title>ic_donut_small</title>
    <desc>Created with Sketch.</desc>
    <defs></defs>
    <g id="Page-1" stroke="none" stroke-width="1" fill="none" fill-rule="evenodd">
        <g id="Action" transform="translate(-338.000000, -290.000000)">
            <g id="ic_donut_small" transform="translate(336.000000, 288.000000)">
                <g id="Icon-24px">
                    <path d="M11,9.16 L11,2 C6,2.5 2,6.79 2,12 C2,17.21 6,21.5 11,22 L11,14.84 C10,14.43 9,13.32 9,12 C9,10.68 10,9.57 11,9.16 L11,9.16 Z M14.86,11 L22,11 C21.52,6.25 18,2.47 13,2 L13,9.16 C14,9.46 14.52,10.14 14.86,11 L14.86,11 Z M13,14.84 L13,22 C18,21.53 21.52,17.75 22,13 L14.86,13 C14.52,13.86 14,14.54 13,14.84 L13,14.84 Z" id="Shape" fill="#000000"></path>
                    <polygon id="Shape" points="0 0 24 0 24 24 0 24"></polygon>
                </g>
            </g>
        </g>
    </g>
</svg>