<?xml version="1.0" encoding="UTF-8"?>
<svg width="20px" height="20px" viewBox="0 0 20 20" version="1.1" xmlns="http://www.w3.org/2000/svg" xmlns:xlink="http://www.w3.org/1999/xlink">
    <!-- Generator: Sketch 42 (36781) - http://www.bohemiancoding.com/sketch -->
    <title>ic_donut_large</title>
    <desc>Created with Sketch.</desc>
    <defs>
        <polygon id="path-1" points="0 0 24 0 24 24 0 24"></polygon>
    </defs>
    <g id="Page-1" stroke="none" stroke-width="1" fill="none" fill-rule="evenodd">
        <g id="Action" transform="translate(-290.000000, -290.000000)">
            <g id="ic_donut_large" transform="translate(288.000000, 288.000000)">
                <g id="Icon-24px">
                    <mask id="mask-2" fill="white">
                        <use xlink:href="#path-1"></use>
                    </mask>
                    <g id="a"></g>
                    <path d="M11,5.08 L11,2 C6,2.5 2,6.81 2,12 C2,17.19 6,21.5 11,22 L11,18.92 C8,18.44 5,15.52 5,12 C5,8.48 8,5.56 11,5.08 L11,5.08 Z M18.97,11 L22,11 C21.53,6 18,2.47 13,2 L13,5.08 C16,5.51 18.54,8 18.97,11 L18.97,11 Z M13,18.92 L13,22 C18,21.53 21.53,18 22,13 L18.97,13 C18.54,16 16,18.49 13,18.92 L13,18.92 Z" id="Shape" fill="#000000" mask="url(#mask-2)"></path>
                </g>
            </g>
        </g>
    </g>
</svg>