<?xml version="1.0" encoding="UTF-8"?>
<svg width="20px" height="20px" viewBox="0 0 20 20" version="1.1" xmlns="http://www.w3.org/2000/svg" xmlns:xlink="http://www.w3.org/1999/xlink">
    <!-- Generator: Sketch 42 (36781) - http://www.bohemiancoding.com/sketch -->
    <title>ic_explore</title>
    <desc>Created with Sketch.</desc>
    <defs></defs>
    <g id="Page-1" stroke="none" stroke-width="1" fill="none" fill-rule="evenodd">
        <g id="Action" transform="translate(-146.000000, -338.000000)">
            <g id="ic_explore" transform="translate(144.000000, 336.000000)">
                <g id="Icon-24px">
                    <path d="M12,10.9 C11.39,10.9 10.9,11.39 10.9,12 C10.9,12.61 11.39,13.1 12,13.1 C12.61,13.1 13.1,12.61 13.1,12 C13.1,11.39 12.61,10.9 12,10.9 L12,10.9 Z M12,2 C6.48,2 2,6.48 2,12 C2,17.52 6.48,22 12,22 C17.52,22 22,17.52 22,12 C22,6.48 17.52,2 12,2 L12,2 Z M14.19,14.19 L6,18 L9.81,9.81 L18,6 L14.19,14.19 L14.19,14.19 Z" id="Shape" fill="#000000"></path>
                    <polygon id="Shape" points="0 0 24 0 24 24 0 24"></polygon>
                </g>
            </g>
        </g>
    </g>
</svg>