<?xml version="1.0" encoding="UTF-8"?>
<svg width="19px" height="14px" viewBox="0 0 19 14" version="1.1" xmlns="http://www.w3.org/2000/svg" xmlns:xlink="http://www.w3.org/1999/xlink">
    <!-- Generator: Sketch 42 (36781) - http://www.bohemiancoding.com/sketch -->
    <title>ic_label_outline</title>
    <desc>Created with Sketch.</desc>
    <defs></defs>
    <g id="Page-1" stroke="none" stroke-width="1" fill="none" fill-rule="evenodd">
        <g id="Action" transform="translate(-435.000000, -485.000000)">
            <g id="ic_label_outline" transform="translate(432.000000, 480.000000)">
                <g id="Icon-24px">
                    <polygon id="Shape" points="0 0 24 0 24 24 0 24"></polygon>
                    <path d="M17.63,5.84 C17.27,5.33 16.67,5 16,5 L5,5.01 C3.9,5.01 3,5.9 3,7 L3,17 C3,18.1 3.9,18.99 5,18.99 L16,19 C16.67,19 17.27,18.67 17.63,18.16 L22,12 L17.63,5.84 L17.63,5.84 Z M16,17 L5,17 L5,7 L16,7 L19.55,12 L16,17 L16,17 Z" id="Shape" fill="#000000"></path>
                </g>
            </g>
        </g>
    </g>
</svg>