<?xml version="1.0" encoding="UTF-8"?>
<svg width="22px" height="22px" viewBox="0 0 22 22" version="1.1" xmlns="http://www.w3.org/2000/svg" xmlns:xlink="http://www.w3.org/1999/xlink">
    <!-- Generator: Sketch 42 (36781) - http://www.bohemiancoding.com/sketch -->
    <title>ic_open_with</title>
    <desc>Created with Sketch.</desc>
    <defs></defs>
    <g id="Page-1" stroke="none" stroke-width="1" fill="none" fill-rule="evenodd">
        <g id="Action" transform="translate(-433.000000, -577.000000)">
            <g id="ic_open_with" transform="translate(432.000000, 576.000000)">
                <g id="Icon-24px">
                    <path d="M10,9 L14,9 L14,6 L17,6 L12,1 L7,6 L10,6 L10,9 L10,9 Z M9,10 L6,10 L6,7 L1,12 L6,17 L6,14 L9,14 L9,10 L9,10 Z M23,12 L18,7 L18,10 L15,10 L15,14 L18,14 L18,17 L23,12 L23,12 Z M14,15 L10,15 L10,18 L7,18 L12,23 L17,18 L14,18 L14,15 L14,15 Z" id="Shape" fill="#000000"></path>
                    <polygon id="Shape" points="0 0 24 0 24 24 0 24"></polygon>
                </g>
            </g>
        </g>
    </g>
</svg>