<?xml version="1.0" encoding="UTF-8"?>
<svg width="22px" height="18px" viewBox="0 0 22 18" version="1.1" xmlns="http://www.w3.org/2000/svg" xmlns:xlink="http://www.w3.org/1999/xlink">
    <!-- Generator: Sketch 42 (36781) - http://www.bohemiancoding.com/sketch -->
    <title>ic_picture_in_picture_alt</title>
    <desc>Created with Sketch.</desc>
    <defs></defs>
    <g id="Page-1" stroke="none" stroke-width="1" fill="none" fill-rule="evenodd">
        <g id="Action" transform="translate(-241.000000, -675.000000)">
            <g id="ic_picture_in_picture_alt" transform="translate(240.000000, 672.000000)">
                <g id="Icon-24px">
                    <path d="M19,11 L11,11 L11,17 L19,17 L19,11 L19,11 Z M23,19 L23,4.98 C23,3.88 22.1,3 21,3 L3,3 C1.9,3 1,3.88 1,4.98 L1,19 C1,20.1 1.9,21 3,21 L21,21 C22.1,21 23,20.1 23,19 L23,19 Z M21,19.02 L3,19.02 L3,4.97 L21,4.97 L21,19.02 L21,19.02 Z" id="Shape" fill="#000000"></path>
                    <polygon id="Shape" points="0 0 24 0 24 24 0 24"></polygon>
                </g>
            </g>
        </g>
    </g>
</svg>