<?xml version="1.0" encoding="UTF-8"?>
<svg width="8px" height="20px" viewBox="0 0 8 20" version="1.1" xmlns="http://www.w3.org/2000/svg" xmlns:xlink="http://www.w3.org/1999/xlink">
    <!-- Generator: Sketch 42 (36781) - http://www.bohemiancoding.com/sketch -->
    <title>ic_pregnant_woman</title>
    <desc>Created with Sketch.</desc>
    <defs>
        <polygon id="path-1" points="0 0 24 0 24 24 0 24"></polygon>
    </defs>
    <g id="Page-1" stroke="none" stroke-width="1" fill="none" fill-rule="evenodd">
        <g id="Action" transform="translate(-440.000000, -674.000000)">
            <g id="ic_pregnant_woman" transform="translate(432.000000, 672.000000)">
                <g id="Icon-24px">
                    <mask id="mask-2" fill="white">
                        <use xlink:href="#path-1"></use>
                    </mask>
                    <g id="a"></g>
                    <path d="M9,4 C9,2.89 9.89,2 11,2 C12.11,2 13,2.89 13,4 C13,5.11 12.11,6 11,6 C9.89,6 9,5.11 9,4 L9,4 Z M16,13 C15.99,11.66 15.17,10.49 14,10 C14,8.34 12.66,7 11,7 C9.34,7 8,8.34 8,10 L8,17 L10,17 L10,22 L13,22 L13,17 L16,17 L16,13 L16,13 Z" id="Shape" fill="#000000" mask="url(#mask-2)"></path>
                </g>
            </g>
        </g>
    </g>
</svg>