<?xml version="1.0" encoding="UTF-8"?>
<svg width="20px" height="16px" viewBox="0 0 20 16" version="1.1" xmlns="http://www.w3.org/2000/svg" xmlns:xlink="http://www.w3.org/1999/xlink">
    <!-- Generator: Sketch 42 (36781) - http://www.bohemiancoding.com/sketch -->
    <title>ic_pageview</title>
    <desc>Created with Sketch.</desc>
    <defs></defs>
    <g id="Page-1" stroke="none" stroke-width="1" fill="none" fill-rule="evenodd">
        <g id="Action" transform="translate(-50.000000, -628.000000)">
            <g id="ic_pageview" transform="translate(48.000000, 624.000000)">
                <g id="Icon-24px">
                    <polygon id="Shape" points="0 0 24 0 24 24 0 24"></polygon>
                    <path d="M11.5,9 C10.12,9 9,10.12 9,11.5 C9,12.88 10.12,14 11.5,14 C12.88,14 14,12.88 14,11.5 C14,10.12 12.88,9 11.5,9 L11.5,9 Z M20,4 L4,4 C2.9,4 2,4.9 2,6 L2,18 C2,19.1 2.9,20 4,20 L20,20 C21.1,20 22,19.1 22,18 L22,6 C22,4.9 21.1,4 20,4 L20,4 Z M16.79,18.21 L13.88,15.3 C13.19,15.74 12.37,16 11.49,16 C9.01,16 7,13.99 7,11.5 C7,9.01 9.01,7 11.5,7 C13.99,7 16,9.01 16,11.5 C16,12.38 15.74,13.19 15.3,13.89 L18.21,16.79 L16.79,18.21 L16.79,18.21 Z" id="Shape" fill="#000000"></path>
                </g>
            </g>
        </g>
    </g>
</svg>