<?xml version="1.0" encoding="UTF-8"?>
<svg width="24px" height="20px" viewBox="0 0 24 20" version="1.1" xmlns="http://www.w3.org/2000/svg" xmlns:xlink="http://www.w3.org/1999/xlink">
    <!-- Generator: Sketch 42 (36781) - http://www.bohemiancoding.com/sketch -->
    <title>ic_perm_media</title>
    <desc>Created with Sketch.</desc>
    <defs></defs>
    <g id="Page-1" stroke="none" stroke-width="1" fill="none" fill-rule="evenodd">
        <g id="Action" transform="translate(-432.000000, -626.000000)">
            <g id="ic_perm_media" transform="translate(432.000000, 624.000000)">
                <g id="Icon-24px">
                    <polygon id="Shape" points="0 0 24 0 24 24 0 24"></polygon>
                    <path d="M2,6 L0,6 L0,11 L0.01,11 L0,20 C0,21.1 0.9,22 2,22 L20,22 L20,20 L2,20 L2,6 L2,6 Z M22,4 L14,4 L12,2 L6,2 C4.9,2 4.01,2.9 4.01,4 L4,16 C4,17.1 4.9,18 6,18 L22,18 C23.1,18 24,17.1 24,16 L24,6 C24,4.9 23.1,4 22,4 L22,4 Z M7,15 L11.5,9 L15,13.51 L17.5,10.5 L21,15 L7,15 L7,15 Z" id="Shape" fill="#000000"></path>
                </g>
            </g>
        </g>
    </g>
</svg>