<?xml version="1.0" encoding="UTF-8"?>
<svg width="22px" height="18px" viewBox="0 0 22 18" version="1.1" xmlns="http://www.w3.org/2000/svg" xmlns:xlink="http://www.w3.org/1999/xlink">
    <!-- Generator: Sketch 42 (36781) - http://www.bohemiancoding.com/sketch -->
    <title>ic_picture_in_picture</title>
    <desc>Created with Sketch.</desc>
    <defs></defs>
    <g id="Page-1" stroke="none" stroke-width="1" fill="none" fill-rule="evenodd">
        <g id="Action" transform="translate(-193.000000, -675.000000)">
            <g id="ic_picture_in_picture" transform="translate(192.000000, 672.000000)">
                <g id="Icon-24px">
                    <path d="M19,7 L11,7 L11,13 L19,13 L19,7 L19,7 Z M21,3 L3,3 C1.9,3 1,3.9 1,5 L1,19 C1,20.1 1.9,20.98 3,20.98 L21,20.98 C22.1,20.98 23,20.1 23,19 L23,5 C23,3.9 22.1,3 21,3 L21,3 Z M21,19.01 L3,19.01 L3,4.98 L21,4.98 L21,19.01 L21,19.01 Z" id="Shape" fill="#000000"></path>
                    <polygon id="Shape" points="0 0 24 0 24 24 0 24"></polygon>
                </g>
            </g>
        </g>
    </g>
</svg>