<?xml version="1.0" encoding="UTF-8"?>
<svg width="20px" height="18px" viewBox="0 0 20 18" version="1.1" xmlns="http://www.w3.org/2000/svg" xmlns:xlink="http://www.w3.org/1999/xlink">
    <!-- Generator: Sketch 42 (36781) - http://www.bohemiancoding.com/sketch -->
    <title>ic_perm_camera_mic</title>
    <desc>Created with Sketch.</desc>
    <defs></defs>
    <g id="Page-1" stroke="none" stroke-width="1" fill="none" fill-rule="evenodd">
        <g id="Action" transform="translate(-194.000000, -627.000000)">
            <g id="ic_perm_camera_mic" transform="translate(192.000000, 624.000000)">
                <g id="Icon-24px">
                    <polygon id="Shape" points="0 0 24 0 24 24 0 24"></polygon>
                    <path d="M20,5 L16.83,5 L15,3 L9,3 L7.17,5 L4,5 C2.9,5 2,5.9 2,7 L2,19 C2,20.1 2.9,21 4,21 L11,21 L11,18.91 C8.17,18.43 6,15.97 6,13 L8,13 C8,15.21 9.79,17 12,17 C14.21,17 16,15.21 16,13 L18,13 C18,15.97 15.83,18.43 13,18.91 L13,21 L20,21 C21.1,21 22,20.1 22,19 L22,7 C22,5.9 21.1,5 20,5 L20,5 Z M14,13 C14,14.1 13.1,15 12,15 C10.9,15 10,14.1 10,13 L10,9 C10,7.9 10.9,7 12,7 C13.1,7 14,7.9 14,9 L14,13 L14,13 Z" id="Shape" fill="#000000"></path>
                </g>
            </g>
        </g>
    </g>
</svg>