<?xml version="1.0" encoding="UTF-8"?>
<svg width="18px" height="14px" viewBox="0 0 18 14" version="1.1" xmlns="http://www.w3.org/2000/svg" xmlns:xlink="http://www.w3.org/1999/xlink">
    <!-- Generator: Sketch 42 (36781) - http://www.bohemiancoding.com/sketch -->
    <title>ic_reorder</title>
    <desc>Created with Sketch.</desc>
    <defs></defs>
    <g id="Page-1" stroke="none" stroke-width="1" fill="none" fill-rule="evenodd">
        <g id="Action" transform="translate(-339.000000, -725.000000)">
            <g id="ic_reorder" transform="translate(336.000000, 720.000000)">
                <g id="Icon-24px">
                    <polygon id="Shape" points="0 0 24 0 24 24 0 24"></polygon>
                    <path d="M3,15 L21,15 L21,13 L3,13 L3,15 L3,15 Z M3,19 L21,19 L21,17 L3,17 L3,19 L3,19 Z M3,11 L21,11 L21,9 L3,9 L3,11 L3,11 Z M3,5 L3,7 L21,7 L21,5 L3,5 L3,5 Z" id="Shape" fill="#000000"></path>
                </g>
            </g>
        </g>
    </g>
</svg>