<?xml version="1.0" encoding="UTF-8"?>
<svg width="22px" height="19px" viewBox="0 0 22 19" version="1.1" xmlns="http://www.w3.org/2000/svg" xmlns:xlink="http://www.w3.org/1999/xlink">
    <!-- Generator: Sketch 42 (36781) - http://www.bohemiancoding.com/sketch -->
    <title>ic_record_voice_over</title>
    <desc>Created with Sketch.</desc>
    <defs></defs>
    <g id="Page-1" stroke="none" stroke-width="1" fill="none" fill-rule="evenodd">
        <g id="Action" transform="translate(-241.000000, -722.000000)">
            <g id="ic_record_voice_over" transform="translate(240.000000, 720.000000)">
                <g id="Icon-24px">
                    <circle id="Oval" fill="#000000" cx="9" cy="9" r="4"></circle>
                    <path d="M9,15 C6.33,15 1,16.34 1,19 L1,21 L17,21 L17,19 C17,16.34 11.67,15 9,15 L9,15 Z M16.76,5.36 L15.08,7.05 C15.92,8.23 15.92,9.76 15.08,10.94 L16.76,12.63 C18.78,10.61 18.78,7.56 16.76,5.36 L16.76,5.36 Z M20.07,2 L18.44,3.63 C21.21,6.65 21.21,11.19 18.44,14.37 L20.07,16 C23.97,12.11 23.98,6.05 20.07,2 L20.07,2 Z" id="Shape" fill="#000000"></path>
                    <polygon id="Shape" points="0 0 24 0 24 24 0 24"></polygon>
                </g>
            </g>
        </g>
    </g>
</svg>