<?xml version="1.0" encoding="UTF-8"?>
<svg width="21px" height="20px" viewBox="0 0 21 20" version="1.1" xmlns="http://www.w3.org/2000/svg" xmlns:xlink="http://www.w3.org/1999/xlink">
    <!-- Generator: Sketch 42 (36781) - http://www.bohemiancoding.com/sketch -->
    <title>ic_spellcheck</title>
    <desc>Created with Sketch.</desc>
    <defs></defs>
    <g id="Page-1" stroke="none" stroke-width="1" fill="none" fill-rule="evenodd">
        <g id="Action" transform="translate(-50.000000, -915.000000)">
            <g id="ic_spellcheck" transform="translate(48.000000, 912.000000)">
                <g id="Icon-24px">
                    <polygon id="Shape" points="0 0 24 0 24 24 0 24"></polygon>
                    <path d="M12.45,16 L14.54,16 L9.43,3 L7.57,3 L2.46,16 L4.55,16 L5.67,13 L11.31,13 L12.45,16 L12.45,16 Z M6.43,11 L8.5,5.48 L10.57,11 L6.43,11 L6.43,11 Z M21.59,11.59 L13.5,19.68 L9.83,16 L8.42,17.41 L13.51,22.5 L23,13 L21.59,11.59 L21.59,11.59 Z" id="Shape" fill="#000000"></path>
                </g>
            </g>
        </g>
    </g>
</svg>