<?xml version="1.0" encoding="UTF-8"?>
<svg width="22px" height="21px" viewBox="0 0 22 21" version="1.1" xmlns="http://www.w3.org/2000/svg" xmlns:xlink="http://www.w3.org/1999/xlink">
    <!-- Generator: Sketch 42 (36781) - http://www.bohemiancoding.com/sketch -->
    <title>ic_shop_two</title>
    <desc>Created with Sketch.</desc>
    <defs></defs>
    <g id="Page-1" stroke="none" stroke-width="1" fill="none" fill-rule="evenodd">
        <g id="Action" transform="translate(-289.000000, -865.000000)">
            <g id="ic_shop_two" transform="translate(288.000000, 864.000000)">
                <g id="Icon-24px">
                    <path d="M3,9 L1,9 L1,20 C1,21.11 1.89,22 3,22 L17,22 C18.11,22 19,21.11 19,20 L3,20 L3,9 L3,9 Z M18,5 L18,3 C18,1.89 17.11,1 16,1 L12,1 C10.89,1 10,1.89 10,3 L10,5 L5,5 L5,16 C5,17.11 5.89,18 7,18 L21,18 C22.11,18 23,17.11 23,16 L23,5 L18,5 L18,5 Z M12,3 L16,3 L16,5 L12,5 L12,3 L12,3 Z M12,15 L12,8 L17.5,11 L12,15 L12,15 Z" id="Shape" fill="#000000"></path>
                    <polygon id="Shape" points="0 0 24 0 24 24 0 24"></polygon>
                </g>
            </g>
        </g>
    </g>
</svg>