<?xml version="1.0" encoding="UTF-8"?>
<svg width="20px" height="20px" viewBox="0 0 20 20" version="1.1" xmlns="http://www.w3.org/2000/svg" xmlns:xlink="http://www.w3.org/1999/xlink">
    <!-- Generator: Sketch 42 (36781) - http://www.bohemiancoding.com/sketch -->
    <title>ic_speaker_notes</title>
    <desc>Created with Sketch.</desc>
    <defs></defs>
    <g id="Page-1" stroke="none" stroke-width="1" fill="none" fill-rule="evenodd">
        <g id="Action" transform="translate(-434.000000, -866.000000)">
            <g id="ic_speaker_notes" transform="translate(432.000000, 864.000000)">
                <g id="Icon-24px">
                    <polygon id="Shape" points="0 0 24 0 24 24 0 24"></polygon>
                    <path d="M20,2 L4,2 C2.9,2 2.01,2.9 2.01,4 L2,22 L6,18 L20,18 C21.1,18 22,17.1 22,16 L22,4 C22,2.9 21.1,2 20,2 L20,2 Z M8,14 L6,14 L6,12 L8,12 L8,14 L8,14 Z M8,11 L6,11 L6,9 L8,9 L8,11 L8,11 Z M8,8 L6,8 L6,6 L8,6 L8,8 L8,8 Z M15,14 L10,14 L10,12 L15,12 L15,14 L15,14 Z M18,11 L10,11 L10,9 L18,9 L18,11 L18,11 Z M18,8 L10,8 L10,6 L18,6 L18,8 L18,8 Z" id="Shape" fill="#000000"></path>
                </g>
            </g>
        </g>
    </g>
</svg>