<?xml version="1.0" encoding="UTF-8"?>
<svg width="22px" height="22px" viewBox="0 0 22 22" version="1.1" xmlns="http://www.w3.org/2000/svg" xmlns:xlink="http://www.w3.org/1999/xlink">
    <!-- Generator: Sketch 42 (36781) - http://www.bohemiancoding.com/sketch -->
    <title>ic_settings_input_component</title>
    <desc>Created with Sketch.</desc>
    <defs></defs>
    <g id="Page-1" stroke="none" stroke-width="1" fill="none" fill-rule="evenodd">
        <g id="Action" transform="translate(-241.000000, -817.000000)">
            <g id="ic_settings_input_component" transform="translate(240.000000, 816.000000)">
                <g id="Icon-24px">
                    <polygon id="Shape" points="0 0 24 0 24 24 0 24"></polygon>
                    <path d="M5,2 C5,1.45 4.55,1 4,1 C3.45,1 3,1.45 3,2 L3,6 L1,6 L1,12 L7,12 L7,6 L5,6 L5,2 L5,2 Z M9,16 C9,17.3 9.84,18.4 11,18.82 L11,23 L13,23 L13,18.82 C14.16,18.41 15,17.31 15,16 L15,14 L9,14 L9,16 L9,16 Z M1,16 C1,17.3 1.84,18.4 3,18.82 L3,23 L5,23 L5,18.82 C6.16,18.4 7,17.3 7,16 L7,14 L1,14 L1,16 L1,16 Z M21,6 L21,2 C21,1.45 20.55,1 20,1 C19.45,1 19,1.45 19,2 L19,6 L17,6 L17,12 L23,12 L23,6 L21,6 L21,6 Z M13,2 C13,1.45 12.55,1 12,1 C11.45,1 11,1.45 11,2 L11,6 L9,6 L9,12 L15,12 L15,6 L13,6 L13,2 L13,2 Z M17,16 C17,17.3 17.84,18.4 19,18.82 L19,23 L21,23 L21,18.82 C22.16,18.41 23,17.31 23,16 L23,14 L17,14 L17,16 L17,16 Z" id="Shape" fill="#000000"></path>
                </g>
            </g>
        </g>
    </g>
</svg>