<?xml version="1.0" encoding="UTF-8"?>
<svg width="24px" height="14px" viewBox="0 0 24 14" version="1.1" xmlns="http://www.w3.org/2000/svg" xmlns:xlink="http://www.w3.org/1999/xlink">
    <!-- Generator: Sketch 42 (36781) - http://www.bohemiancoding.com/sketch -->
    <title>ic_settings_ethernet</title>
    <desc>Created with Sketch.</desc>
    <defs></defs>
    <g id="Page-1" stroke="none" stroke-width="1" fill="none" fill-rule="evenodd">
        <g id="Action" transform="translate(-144.000000, -821.000000)">
            <g id="ic_settings_ethernet" transform="translate(144.000000, 816.000000)">
                <g id="Icon-24px">
                    <polygon id="Shape" points="0 0 24 0 24 24 0 24"></polygon>
                    <path d="M7.77,6.76 L6.23,5.48 L0.82,12 L6.23,18.52 L7.77,17.24 L3.42,12 L7.77,6.76 L7.77,6.76 Z M7,13 L9,13 L9,11 L7,11 L7,13 L7,13 Z M17,11 L15,11 L15,13 L17,13 L17,11 L17,11 Z M11,13 L13,13 L13,11 L11,11 L11,13 L11,13 Z M17.77,5.48 L16.23,6.76 L20.58,12 L16.23,17.24 L17.77,18.52 L23.18,12 L17.77,5.48 L17.77,5.48 Z" id="Shape" fill="#000000"></path>
                </g>
            </g>
        </g>
    </g>
</svg>