<?xml version="1.0" encoding="UTF-8"?>
<svg width="22px" height="19px" viewBox="0 0 22 19" version="1.1" xmlns="http://www.w3.org/2000/svg" xmlns:xlink="http://www.w3.org/1999/xlink">
    <!-- Generator: Sketch 42 (36781) - http://www.bohemiancoding.com/sketch -->
    <title>ic_system_update_alt</title>
    <desc>Created with Sketch.</desc>
    <defs></defs>
    <g id="Page-1" stroke="none" stroke-width="1" fill="none" fill-rule="evenodd">
        <g id="Action" transform="translate(-49.000000, -963.000000)">
            <g id="ic_system_update_alt" transform="translate(48.000000, 960.000000)">
                <g id="Icon-24px">
                    <polygon id="Shape" points="0 0.5 24 0.5 24 24.5 0 24.5"></polygon>
                    <path d="M12,16.5 L16,12.5 L13,12.5 L13,3.5 L11,3.5 L11,12.5 L8,12.5 L12,16.5 L12,16.5 Z M21,3.5 L15,3.5 L15,5.49 L21,5.49 L21,19.52 L3,19.52 L3,5.49 L9,5.49 L9,3.5 L3,3.5 C1.9,3.5 1,4.4 1,5.5 L1,19.5 C1,20.6 1.9,21.5 3,21.5 L21,21.5 C22.1,21.5 23,20.6 23,19.5 L23,5.5 C23,4.4 22.1,3.5 21,3.5 L21,3.5 Z" id="Shape" fill="#000000"></path>
                </g>
            </g>
        </g>
    </g>
</svg>