<?xml version="1.0" encoding="UTF-8"?>
<svg width="14px" height="20px" viewBox="0 0 14 20" version="1.1" xmlns="http://www.w3.org/2000/svg" xmlns:xlink="http://www.w3.org/1999/xlink">
    <!-- Generator: Sketch 42 (36781) - http://www.bohemiancoding.com/sketch -->
    <title>ic_settings_input_hdmi</title>
    <desc>Created with Sketch.</desc>
    <defs></defs>
    <g id="Page-1" stroke="none" stroke-width="1" fill="none" fill-rule="evenodd">
        <g id="Action" transform="translate(-341.000000, -818.000000)">
            <g id="ic_settings_input_hdmi" transform="translate(336.000000, 816.000000)">
                <g id="Icon-24px">
                    <polygon id="Shape" points="0 0 24 0 24 24 0 24"></polygon>
                    <path d="M18,7 L18,4 C18,2.9 17.1,2 16,2 L8,2 C6.9,2 6,2.9 6,4 L6,7 L5,7 L5,13 L8,19 L8,22 L16,22 L16,19 L19,13 L19,7 L18,7 L18,7 Z M8,4 L16,4 L16,7 L14,7 L14,5 L13,5 L13,7 L11,7 L11,5 L10,5 L10,7 L8,7 L8,4 L8,4 Z" id="Shape" fill="#000000"></path>
                </g>
            </g>
        </g>
    </g>
</svg>