<?xml version="1.0" encoding="UTF-8"?>
<svg width="22px" height="18px" viewBox="0 0 22 18" version="1.1" xmlns="http://www.w3.org/2000/svg" xmlns:xlink="http://www.w3.org/1999/xlink">
    <!-- Generator: Sketch 42 (36781) - http://www.bohemiancoding.com/sketch -->
    <title>ic_settings_overscan</title>
    <desc>Created with Sketch.</desc>
    <defs></defs>
    <g id="Page-1" stroke="none" stroke-width="1" fill="none" fill-rule="evenodd">
        <g id="Action" transform="translate(-433.000000, -819.000000)">
            <g id="ic_settings_overscan" transform="translate(432.000000, 816.000000)">
                <g id="Icon-24px">
                    <polygon id="Shape" points="0 0 24 0 24 24 0 24"></polygon>
                    <path d="M12.01,5.5 L10,8 L14,8 L12.01,5.5 L12.01,5.5 Z M18,10 L18,14 L20.5,12.01 L18,10 L18,10 Z M6,10 L3.5,12.01 L6,14 L6,10 L6,10 Z M14,16 L10,16 L12.01,18.5 L14,16 L14,16 Z M21,3 L3,3 C1.9,3 1,3.9 1,5 L1,19 C1,20.1 1.9,21 3,21 L21,21 C22.1,21 23,20.1 23,19 L23,5 C23,3.9 22.1,3 21,3 L21,3 Z M21,19.01 L3,19.01 L3,4.99 L21,4.99 L21,19.01 L21,19.01 Z" id="Shape" fill="#000000"></path>
                </g>
            </g>
        </g>
    </g>
</svg>