<?xml version="1.0" encoding="UTF-8"?>
<svg width="22px" height="18px" viewBox="0 0 22 18" version="1.1" xmlns="http://www.w3.org/2000/svg" xmlns:xlink="http://www.w3.org/1999/xlink">
    <!-- Generator: Sketch 42 (36781) - http://www.bohemiancoding.com/sketch -->
    <title>ic_tab_unselected</title>
    <desc>Created with Sketch.</desc>
    <defs></defs>
    <g id="Page-1" stroke="none" stroke-width="1" fill="none" fill-rule="evenodd">
        <g id="Action" transform="translate(-97.000000, -963.000000)">
            <g id="ic_tab_unselected" transform="translate(96.000000, 960.000000)">
                <g id="Icon-24px">
                    <polygon id="Shape" points="0 0 24 0 24 24 0 24"></polygon>
                    <path d="M1,9 L3,9 L3,7 L1,7 L1,9 L1,9 Z M1,13 L3,13 L3,11 L1,11 L1,13 L1,13 Z M1,5 L3,5 L3,3 C1.9,3 1,3.9 1,5 L1,5 Z M9,21 L11,21 L11,19 L9,19 L9,21 L9,21 Z M1,17 L3,17 L3,15 L1,15 L1,17 L1,17 Z M3,21 L3,19 L1,19 C1,20.1 1.9,21 3,21 L3,21 Z M21,3 L13,3 L13,9 L23,9 L23,5 C23,3.9 22.1,3 21,3 L21,3 Z M21,17 L23,17 L23,15 L21,15 L21,17 L21,17 Z M9,5 L11,5 L11,3 L9,3 L9,5 L9,5 Z M5,21 L7,21 L7,19 L5,19 L5,21 L5,21 Z M5,5 L7,5 L7,3 L5,3 L5,5 L5,5 Z M21,21 C22.1,21 23,20.1 23,19 L21,19 L21,21 L21,21 Z M21,13 L23,13 L23,11 L21,11 L21,13 L21,13 Z M13,21 L15,21 L15,19 L13,19 L13,21 L13,21 Z M17,21 L19,21 L19,19 L17,19 L17,21 L17,21 Z" id="Shape" fill="#000000"></path>
                </g>
            </g>
        </g>
    </g>
</svg>