<?xml version="1.0" encoding="UTF-8"?>
<svg width="22px" height="16px" viewBox="0 0 22 16" version="1.1" xmlns="http://www.w3.org/2000/svg" xmlns:xlink="http://www.w3.org/1999/xlink">
    <!-- Generator: Sketch 42 (36781) - http://www.bohemiancoding.com/sketch -->
    <title>ic_toll</title>
    <desc>Created with Sketch.</desc>
    <defs></defs>
    <g id="Page-1" stroke="none" stroke-width="1" fill="none" fill-rule="evenodd">
        <g id="Action" transform="translate(-97.000000, -1012.000000)">
            <g id="ic_toll" transform="translate(96.000000, 1008.000000)">
                <g id="Icon-24px">
                    <path d="M15,4 C10.58,4 7,7.58 7,12 C7,16.42 10.58,20 15,20 C19.42,20 23,16.42 23,12 C23,7.58 19.42,4 15,4 L15,4 Z M15,18 C11.69,18 9,15.31 9,12 C9,8.69 11.69,6 15,6 C18.31,6 21,8.69 21,12 C21,15.31 18.31,18 15,18 L15,18 Z" id="Shape" fill="#000000"></path>
                    <polygon id="Shape" points="0 0 24 0 24 24 0 24"></polygon>
                    <path d="M3,12 C3,9.39 4.67,7.17 7,6.35 L7,4.26 C3.55,5.15 1,8.27 1,12 C1,15.73 3.55,18.85 7,19.74 L7,17.65 C4.67,16.83 3,14.61 3,12 L3,12 Z" id="Shape" fill="#000000"></path>
                </g>
            </g>
        </g>
    </g>
</svg>