<?xml version="1.0" encoding="UTF-8"?>
<svg width="18px" height="10px" viewBox="0 0 18 10" version="1.1" xmlns="http://www.w3.org/2000/svg" xmlns:xlink="http://www.w3.org/1999/xlink">
    <!-- Generator: Sketch 42 (36781) - http://www.bohemiancoding.com/sketch -->
    <title>ic_toc</title>
    <desc>Created with Sketch.</desc>
    <defs></defs>
    <g id="Page-1" stroke="none" stroke-width="1" fill="none" fill-rule="evenodd">
        <g id="Action" transform="translate(-435.000000, -967.000000)">
            <g id="ic_toc" transform="translate(432.000000, 960.000000)">
                <g id="Icon-24px">
                    <path d="M3,9 L17,9 L17,7 L3,7 L3,9 L3,9 Z M3,13 L17,13 L17,11 L3,11 L3,13 L3,13 Z M3,17 L17,17 L17,15 L3,15 L3,17 L3,17 Z M19,17 L21,17 L21,15 L19,15 L19,17 L19,17 Z M19,7 L19,9 L21,9 L21,7 L19,7 L19,7 Z M19,13 L21,13 L21,11 L19,11 L19,13 L19,13 Z" id="Shape" fill="#000000"></path>
                    <polygon id="Shape" points="0 0 24 0 24 24 0 24"></polygon>
                </g>
            </g>
        </g>
    </g>
</svg>