<?xml version="1.0" encoding="UTF-8"?>
<svg width="18px" height="18px" viewBox="0 0 18 18" version="1.1" xmlns="http://www.w3.org/2000/svg" xmlns:xlink="http://www.w3.org/1999/xlink">
    <!-- Generator: Sketch 42 (36781) - http://www.bohemiancoding.com/sketch -->
    <title>ic_update</title>
    <desc>Created with Sketch.</desc>
    <defs>
        <polygon id="path-1" points="0 0 24 0 24 24 0 24"></polygon>
    </defs>
    <g id="Page-1" stroke="none" stroke-width="1" fill="none" fill-rule="evenodd">
        <g id="Action" transform="translate(-99.000000, -1059.000000)">
            <g id="ic_update" transform="translate(96.000000, 1056.000000)">
                <g id="Icon-24px">
                    <mask id="mask-2" fill="white">
                        <use xlink:href="#path-1"></use>
                    </mask>
                    <g id="a"></g>
                    <path d="M21,10.12 L14.22,10.12 L16.96,7.3 C14.23,4.6 9.81,4.5 7.08,7.2 C4.35,9.91 4.35,14.28 7.08,16.99 C9.81,19.7 14.23,19.7 16.96,16.99 C18.32,15.65 19,14.08 19,12.1 L21,12.1 C21,14.08 20.12,16.65 18.36,18.39 C14.85,21.87 9.15,21.87 5.64,18.39 C2.14,14.92 2.11,9.28 5.62,5.81 C9.13,2.34 14.76,2.34 18.27,5.81 L21,3 L21,10.12 L21,10.12 Z M12.5,8 L12.5,12.25 L16,14.33 L15.28,15.54 L11,13 L11,8 L12.5,8 L12.5,8 Z" id="Shape" fill="#000000" mask="url(#mask-2)"></path>
                </g>
            </g>
        </g>
    </g>
</svg>