<?xml version="1.0" encoding="UTF-8"?>
<svg width="17px" height="13px" viewBox="0 0 17 13" version="1.1" xmlns="http://www.w3.org/2000/svg" xmlns:xlink="http://www.w3.org/1999/xlink">
    <!-- Generator: Sketch 42 (36781) - http://www.bohemiancoding.com/sketch -->
    <title>ic_view_module</title>
    <desc>Created with Sketch.</desc>
    <defs></defs>
    <g id="Page-1" stroke="none" stroke-width="1" fill="none" fill-rule="evenodd">
        <g id="Action" transform="translate(-100.000000, -1109.000000)">
            <g id="ic_view_module" transform="translate(96.000000, 1104.000000)">
                <g id="Icon-24px">
                    <path d="M4,11 L9,11 L9,5 L4,5 L4,11 L4,11 Z M4,18 L9,18 L9,12 L4,12 L4,18 L4,18 Z M10,18 L15,18 L15,12 L10,12 L10,18 L10,18 Z M16,18 L21,18 L21,12 L16,12 L16,18 L16,18 Z M10,11 L15,11 L15,5 L10,5 L10,11 L10,11 Z M16,5 L16,11 L21,11 L21,5 L16,5 L16,5 Z" id="Shape" fill="#000000"></path>
                    <polygon id="Shape" points="0 0 24 0 24 24 0 24"></polygon>
                </g>
            </g>
        </g>
    </g>
</svg>