<?xml version="1.0" encoding="UTF-8"?>
<svg width="16px" height="14px" viewBox="0 0 16 14" version="1.1" xmlns="http://www.w3.org/2000/svg" xmlns:xlink="http://www.w3.org/1999/xlink">
    <!-- Generator: Sketch 42 (36781) - http://www.bohemiancoding.com/sketch -->
    <title>ic_view_headline</title>
    <desc>Created with Sketch.</desc>
    <defs></defs>
    <g id="Page-1" stroke="none" stroke-width="1" fill="none" fill-rule="evenodd">
        <g id="Action" transform="translate(-436.000000, -1061.000000)">
            <g id="ic_view_headline" transform="translate(432.000000, 1056.000000)">
                <g id="Icon-24px">
                    <path d="M4,15 L20,15 L20,13 L4,13 L4,15 L4,15 Z M4,19 L20,19 L20,17 L4,17 L4,19 L4,19 Z M4,11 L20,11 L20,9 L4,9 L4,11 L4,11 Z M4,5 L4,7 L20,7 L20,5 L4,5 L4,5 Z" id="Shape" fill="#000000"></path>
                    <polygon id="Shape" points="0 0 24 0 24 24 0 24"></polygon>
                </g>
            </g>
        </g>
    </g>
</svg>