<?xml version="1.0" encoding="UTF-8"?>
<svg width="19px" height="18px" viewBox="0 0 19 18" version="1.1" xmlns="http://www.w3.org/2000/svg" xmlns:xlink="http://www.w3.org/1999/xlink">
    <!-- Generator: Sketch 42 (36781) - http://www.bohemiancoding.com/sketch -->
    <title>ic_view_day</title>
    <desc>Created with Sketch.</desc>
    <defs></defs>
    <g id="Page-1" stroke="none" stroke-width="1" fill="none" fill-rule="evenodd">
        <g id="Action" transform="translate(-386.000000, -1059.000000)">
            <g id="ic_view_day" transform="translate(384.000000, 1056.000000)">
                <g id="Icon-24px">
                    <polygon id="Shape" points="0 0 24 0 24 24 0 24"></polygon>
                    <path d="M2,21 L21,21 L21,18 L2,18 L2,21 L2,21 Z M20,8 L3,8 C2.45,8 2,8.45 2,9 L2,15 C2,15.55 2.45,16 3,16 L20,16 C20.55,16 21,15.55 21,15 L21,9 C21,8.45 20.55,8 20,8 L20,8 Z M2,3 L2,6 L21,6 L21,3 L2,3 L2,3 Z" id="Shape" fill="#000000"></path>
                </g>
            </g>
        </g>
    </g>
</svg>