<?xml version="1.0" encoding="UTF-8"?>
<svg width="24px" height="24px" viewBox="0 0 24 24" version="1.1" xmlns="http://www.w3.org/2000/svg" xmlns:xlink="http://www.w3.org/1999/xlink">
    <!-- Generator: Sketch 42 (36781) - http://www.bohemiancoding.com/sketch -->
    <title>ic_border_color</title>
    <desc>Created with Sketch.</desc>
    <defs></defs>
    <g id="Page-1" stroke="none" stroke-width="1" fill="none" fill-rule="evenodd">
        <g id="Editor" transform="translate(-288.000000, -48.000000)">
            <g id="ic_border_color" transform="translate(288.000000, 47.000000)">
                <g id="Icon-24px">
                    <path d="M17.75,8 L14,4.25 L4,14.25 L4,18 L7.75,18 L17.75,8 L17.75,8 Z M20.71,5.04 C21.1,4.65 21.1,4.02 20.71,3.63 L18.37,1.29 C17.98,0.9 17.35,0.9 16.96,1.29 L15,3.25 L18.75,7 L20.71,5.04 L20.71,5.04 Z" id="Shape" fill="#000000"></path>
                    <polygon id="Shape" points="0 1 24 1 24 25 0 25"></polygon>
                    <polygon id="Shape" fill="#000000" points="0 21 24 21 24 25 0 25"></polygon>
                </g>
            </g>
        </g>
    </g>
</svg>