<?xml version="1.0" encoding="UTF-8"?>
<svg width="18px" height="18px" viewBox="0 0 18 18" version="1.1" xmlns="http://www.w3.org/2000/svg" xmlns:xlink="http://www.w3.org/1999/xlink">
    <!-- Generator: Sketch 42 (36781) - http://www.bohemiancoding.com/sketch -->
    <title>ic_border_horizontal</title>
    <desc>Created with Sketch.</desc>
    <defs></defs>
    <g id="Page-1" stroke="none" stroke-width="1" fill="none" fill-rule="evenodd">
        <g id="Editor" transform="translate(-339.000000, -51.000000)">
            <g id="ic_border_horizontal" transform="translate(336.000000, 48.000000)">
                <g id="Icon-24px">
                    <path d="M3,21 L5,21 L5,19 L3,19 L3,21 L3,21 Z M5,7 L3,7 L3,9 L5,9 L5,7 L5,7 Z M3,17 L5,17 L5,15 L3,15 L3,17 L3,17 Z M7,21 L9,21 L9,19 L7,19 L7,21 L7,21 Z M5,3 L3,3 L3,5 L5,5 L5,3 L5,3 Z M9,3 L7,3 L7,5 L9,5 L9,3 L9,3 Z M17,3 L15,3 L15,5 L17,5 L17,3 L17,3 Z M13,7 L11,7 L11,9 L13,9 L13,7 L13,7 Z M13,3 L11,3 L11,5 L13,5 L13,3 L13,3 Z M19,17 L21,17 L21,15 L19,15 L19,17 L19,17 Z M11,21 L13,21 L13,19 L11,19 L11,21 L11,21 Z M3,13 L21,13 L21,11 L3,11 L3,13 L3,13 Z M19,3 L19,5 L21,5 L21,3 L19,3 L19,3 Z M19,9 L21,9 L21,7 L19,7 L19,9 L19,9 Z M11,17 L13,17 L13,15 L11,15 L11,17 L11,17 Z M15,21 L17,21 L17,19 L15,19 L15,21 L15,21 Z M19,21 L21,21 L21,19 L19,19 L19,21 L19,21 Z" id="Shape" fill="#000000"></path>
                    <polygon id="Shape" points="0 0 24 0 24 24 0 24"></polygon>
                </g>
            </g>
        </g>
    </g>
</svg>