<?xml version="1.0" encoding="UTF-8"?>
<svg width="18px" height="18px" viewBox="0 0 18 18" version="1.1" xmlns="http://www.w3.org/2000/svg" xmlns:xlink="http://www.w3.org/1999/xlink">
    <!-- Generator: Sketch 42 (36781) - http://www.bohemiancoding.com/sketch -->
    <title>ic_border_outer</title>
    <desc>Created with Sketch.</desc>
    <defs></defs>
    <g id="Page-1" stroke="none" stroke-width="1" fill="none" fill-rule="evenodd">
        <g id="Editor" transform="translate(-51.000000, -99.000000)">
            <g id="ic_border_outer" transform="translate(48.000000, 96.000000)">
                <g id="Icon-24px">
                    <path d="M13,7 L11,7 L11,9 L13,9 L13,7 L13,7 Z M13,11 L11,11 L11,13 L13,13 L13,11 L13,11 Z M17,11 L15,11 L15,13 L17,13 L17,11 L17,11 Z M3,3 L3,21 L21,21 L21,3 L3,3 L3,3 Z M19,19 L5,19 L5,5 L19,5 L19,19 L19,19 Z M13,15 L11,15 L11,17 L13,17 L13,15 L13,15 Z M9,11 L7,11 L7,13 L9,13 L9,11 L9,11 Z" id="Shape" fill="#000000"></path>
                    <polygon id="Shape" points="0 0 24 0 24 24 0 24"></polygon>
                </g>
            </g>
        </g>
    </g>
</svg>