<?xml version="1.0" encoding="UTF-8"?>
<svg width="18px" height="18px" viewBox="0 0 18 18" version="1.1" xmlns="http://www.w3.org/2000/svg" xmlns:xlink="http://www.w3.org/1999/xlink">
    <!-- Generator: Sketch 42 (36781) - http://www.bohemiancoding.com/sketch -->
    <title>ic_border_all</title>
    <desc>Created with Sketch.</desc>
    <defs></defs>
    <g id="Page-1" stroke="none" stroke-width="1" fill="none" fill-rule="evenodd">
        <g id="Editor" transform="translate(-147.000000, -51.000000)">
            <g id="ic_border_all" transform="translate(144.000000, 48.000000)">
                <g id="Icon-24px">
                    <path d="M3,3 L3,21 L21,21 L21,3 L3,3 L3,3 Z M11,19 L5,19 L5,13 L11,13 L11,19 L11,19 Z M11,11 L5,11 L5,5 L11,5 L11,11 L11,11 Z M19,19 L13,19 L13,13 L19,13 L19,19 L19,19 Z M19,11 L13,11 L13,5 L19,5 L19,11 L19,11 Z" id="Shape" fill="#000000"></path>
                    <polygon id="Shape" points="0 0 24 0 24 24 0 24"></polygon>
                </g>
            </g>
        </g>
    </g>
</svg>