<?xml version="1.0" encoding="UTF-8"?>
<svg width="21px" height="18px" viewBox="0 0 21 18" version="1.1" xmlns="http://www.w3.org/2000/svg" xmlns:xlink="http://www.w3.org/1999/xlink">
    <!-- Generator: Sketch 42 (36781) - http://www.bohemiancoding.com/sketch -->
    <title>ic_format_line_spacing</title>
    <desc>Created with Sketch.</desc>
    <defs></defs>
    <g id="Page-1" stroke="none" stroke-width="1" fill="none" fill-rule="evenodd">
        <g id="Editor" transform="translate(-49.000000, -195.000000)">
            <g id="ic_format_line_spacing" transform="translate(48.000000, 192.000000)">
                <g id="Icon-24px">
                    <path d="M6,7 L8.5,7 L5,3.5 L1.5,7 L4,7 L4,17 L1.5,17 L5,20.5 L8.5,17 L6,17 L6,7 L6,7 Z M10,5 L10,7 L22,7 L22,5 L10,5 L10,5 Z M10,19 L22,19 L22,17 L10,17 L10,19 L10,19 Z M10,13 L22,13 L22,11 L10,11 L10,13 L10,13 Z" id="Shape" fill="#000000"></path>
                    <polygon id="Shape" points="0 0 24 0 24 24 0 24"></polygon>
                </g>
            </g>
        </g>
    </g>
</svg>