<?xml version="1.0" encoding="UTF-8"?>
<svg width="16px" height="19px" viewBox="0 0 16 19" version="1.1" xmlns="http://www.w3.org/2000/svg" xmlns:xlink="http://www.w3.org/1999/xlink">
    <!-- Generator: Sketch 42 (36781) - http://www.bohemiancoding.com/sketch -->
    <title>ic_format_color_reset</title>
    <desc>Created with Sketch.</desc>
    <defs></defs>
    <g id="Page-1" stroke="none" stroke-width="1" fill="none" fill-rule="evenodd">
        <g id="Editor" transform="translate(-244.000000, -147.000000)">
            <g id="ic_format_color_reset" transform="translate(240.000000, 144.000000)">
                <g id="Icon-24px">
                    <path d="M0,0 L24,0 L24,24 L0,24 L0,0 Z M0,0 L24,0 L24,24 L0,24 L0,0 Z M0,0 L24,0 L24,24 L0,24 L0,0 Z" id="Shape"></path>
                    <path d="M18,14 C18,10 12,3.2 12,3.2 C12,3.2 10.67,4.71 9.27,6.72 L17.86,15.31 C17.95,14.89 18,14.45 18,14 L18,14 Z M17.12,17.12 L12.5,12.5 L5.27,5.27 L4,6.55 L7.32,9.87 C6.55,11.32 6,12.79 6,14 C6,17.31 8.69,20 12,20 C13.52,20 14.9,19.43 15.96,18.5 L18.59,21.13 L19.86,19.86 L17.12,17.12 L17.12,17.12 Z" id="Shape" fill="#000000"></path>
                </g>
            </g>
        </g>
    </g>
</svg>