<?xml version="1.0" encoding="UTF-8"?>
<svg width="16px" height="20px" viewBox="0 0 16 20" version="1.1" xmlns="http://www.w3.org/2000/svg" xmlns:xlink="http://www.w3.org/1999/xlink">
    <!-- Generator: Sketch 42 (36781) - http://www.bohemiancoding.com/sketch -->
    <title>ic_format_textdirection_l_to_r</title>
    <desc>Created with Sketch.</desc>
    <defs></defs>
    <g id="Page-1" stroke="none" stroke-width="1" fill="none" fill-rule="evenodd">
        <g id="Editor" transform="translate(-437.000000, -194.000000)">
            <g id="ic_format_textdirection_l_to_r" transform="translate(432.000000, 192.000000)">
                <g id="Icon-24px">
                    <path d="M9,10 L9,15 L11,15 L11,4 L13,4 L13,15 L15,15 L15,4 L17,4 L17,2 L9,2 C6.79,2 5,3.79 5,6 C5,8.21 6.79,10 9,10 L9,10 Z M21,18 L17,14 L17,17 L5,17 L5,19 L17,19 L17,22 L21,18 L21,18 Z" id="Shape" fill="#000000"></path>
                    <polygon id="Shape" points="0 0 24 0 24 24 0 24"></polygon>
                </g>
            </g>
        </g>
    </g>
</svg>