<?xml version="1.0" encoding="UTF-8"?>
<svg width="16px" height="20px" viewBox="0 0 16 20" version="1.1" xmlns="http://www.w3.org/2000/svg" xmlns:xlink="http://www.w3.org/1999/xlink">
    <!-- Generator: Sketch 42 (36781) - http://www.bohemiancoding.com/sketch -->
    <title>ic_format_textdirection_r_to_l</title>
    <desc>Created with Sketch.</desc>
    <defs></defs>
    <g id="Page-1" stroke="none" stroke-width="1" fill="none" fill-rule="evenodd">
        <g id="Editor" transform="translate(-52.000000, -242.000000)">
            <g id="ic_format_textdirection_r_to_l" transform="translate(48.000000, 240.000000)">
                <g id="Icon-24px">
                    <path d="M10,10 L10,15 L12,15 L12,4 L14,4 L14,15 L16,15 L16,4 L18,4 L18,2 L10,2 C7.79,2 6,3.79 6,6 C6,8.21 7.79,10 10,10 L10,10 Z M8,17 L8,14 L4,18 L8,22 L8,19 L20,19 L20,17 L8,17 L8,17 Z" id="Shape" fill="#000000"></path>
                    <polygon id="Shape" points="0 0 24 0 24 24 0 24"></polygon>
                </g>
            </g>
        </g>
    </g>
</svg>