<?xml version="1.0" encoding="UTF-8"?>
<svg width="18px" height="20px" viewBox="0 0 18 20" version="1.1" xmlns="http://www.w3.org/2000/svg" xmlns:xlink="http://www.w3.org/1999/xlink">
    <!-- Generator: Sketch 42 (36781) - http://www.bohemiancoding.com/sketch -->
    <title>ic_highlight</title>
    <desc>Created with Sketch.</desc>
    <defs>
        <polygon id="path-1" points="0 0 24 0 24 24 0 24"></polygon>
    </defs>
    <g id="Page-1" stroke="none" stroke-width="1" fill="none" fill-rule="evenodd">
        <g id="Editor" transform="translate(-195.000000, -242.000000)">
            <g id="ic_highlight" transform="translate(192.000000, 240.000000)">
                <g id="Icon-24px">
                    <mask id="mask-2" fill="white">
                        <use xlink:href="#path-1"></use>
                    </mask>
                    <g id="a"></g>
                    <path d="M6,14 L9,17 L9,22 L15,22 L15,17 L18,14 L18,9 L6,9 L6,14 Z M11,2 L13,2 L13,5 L11,5 L11,2 Z M3.5,5.875 L4.914,4.46 L7.034,6.582 L5.62,7.997 L3.5,5.875 Z M16.96,6.585 L19.083,4.465 L20.497,5.879 L18.375,8 L16.96,6.585 Z" id="Shape" fill="#000000" mask="url(#mask-2)"></path>
                </g>
            </g>
        </g>
    </g>
</svg>