<?xml version="1.0" encoding="UTF-8"?>
<svg width="16px" height="22px" viewBox="0 0 16 22" version="1.1" xmlns="http://www.w3.org/2000/svg" xmlns:xlink="http://www.w3.org/1999/xlink">
    <!-- Generator: Sketch 42 (36781) - http://www.bohemiancoding.com/sketch -->
    <title>ic_vertical_align_center</title>
    <desc>Created with Sketch.</desc>
    <defs></defs>
    <g id="Page-1" stroke="none" stroke-width="1" fill="none" fill-rule="evenodd">
        <g id="Editor" transform="translate(-244.000000, -337.000000)">
            <g id="ic_vertical_align_center" transform="translate(240.000000, 336.000000)">
                <g id="Icon-24px">
                    <path d="M8,19 L11,19 L11,23 L13,23 L13,19 L16,19 L12,15 L8,19 L8,19 Z M16,5 L13,5 L13,1 L11,1 L11,5 L8,5 L12,9 L16,5 L16,5 Z M4,11 L4,13 L20,13 L20,11 L4,11 L4,11 Z" id="Shape" fill="#000000"></path>
                    <polygon id="Shape" points="0 0 24 0 24 24 0 24"></polygon>
                </g>
            </g>
        </g>
    </g>
</svg>