<?xml version="1.0" encoding="UTF-8"?>
<svg width="17px" height="16px" viewBox="0 0 17 16" version="1.1" xmlns="http://www.w3.org/2000/svg" xmlns:xlink="http://www.w3.org/1999/xlink">
    <!-- Generator: Sketch 42 (36781) - http://www.bohemiancoding.com/sketch -->
    <title>ic_wrap_text</title>
    <desc>Created with Sketch.</desc>
    <defs></defs>
    <g id="Page-1" stroke="none" stroke-width="1" fill="none" fill-rule="evenodd">
        <g id="Editor" transform="translate(-340.000000, -341.000000)">
            <g id="ic_wrap_text" transform="translate(336.000000, 336.000000)">
                <g id="Icon-24px">
                    <path d="M4,19 L10,19 L10,17 L4,17 L4,19 L4,19 Z M20,5 L4,5 L4,7 L20,7 L20,5 L20,5 Z M17,11 L4,11 L4,13 L17.25,13 C18.35,13 19.25,13.9 19.25,15 C19.25,16.1 18.35,17 17.25,17 L15,17 L15,15 L12,18 L15,21 L15,19 L17,19 C19.21,19 21,17.21 21,15 C21,12.79 19.21,11 17,11 L17,11 Z" id="Shape" fill="#000000"></path>
                    <polygon id="Shape" points="0 0 24 0 24 24 0 24"></polygon>
                </g>
            </g>
        </g>
    </g>
</svg>