<svg xmlns="http://www.w3.org/2000/svg" width="24" height="24" viewBox="0 0 24 24"><g stroke="#000" stroke-linecap="round" stroke-linejoin="round" stroke-miterlimit="10" fill="none"><path d="M17.5 18.5c0 .553-.448 1-1 1h-14c-.552 0-1-.447-1-1v-8c0-.553.448-1 1-1h14c.552 0 1 .447 1 1v8z"/><circle cx="6" cy="14" r="1.5"/><circle cx="13" cy="14" r="1.5"/><path d="M6 12.5h7M.5 6.5h10c.552 0 1 .447 1 1v2M15.5 9.5v-3c0-.553.448-1 1-1h2"/><path d="M23.5 5.5c0 .553-.448 1-1 1h-3c-.552 0-1-.447-1-1s.448-1 1-1h3c.552 0 1 .447 1 1zM17.5 13l5.255-2.189c.166-.069.355-.05.506.049.148.101.239.269.239.448v6.385c0 .18-.091.348-.239.449-.15.099-.34.117-.506.049l-5.255-2.191"/></g></svg>