<svg xmlns="http://www.w3.org/2000/svg" width="24" height="24" viewBox="0 0 24 24"><g stroke="#000" stroke-linejoin="round" stroke-miterlimit="10" fill="none"><path stroke-linecap="round" d="M21 23.5h-18c-1.984 0-1.986-3 0-3h18c1.984 0 1.986 3 0 3zM17.646 17.531c.229-.635.354-1.318.354-2.031 0-3.313-2.687-6-6-6s-6 2.687-6 6c0 .697.119 1.367.338 1.991"/><circle cx="12" cy="5" r="2.5"/><path stroke-linecap="round" d="M9.5 5h5M12 7.5v2"/><path d="M9.248 10.166c-.824-.425-1.758-.666-2.748-.666-3.313 0-6 2.687-6 6 0 2.088 1.068 3.926 2.686 5h17.629c1.617-1.074 2.686-2.912 2.686-5 0-3.313-2.687-6-6-6-.991 0-1.926.241-2.75.667"/></g></svg>