<svg xmlns="http://www.w3.org/2000/svg" width="24" height="24" viewBox="0 0 24 24"><g stroke="#000" stroke-linecap="round" stroke-linejoin="round" stroke-miterlimit="10" fill="none"><path d="M2.5 3c0-1.381 1.118-2.5 2.5-2.5h2.5v3c0 1.104-.895 2-2 2h-1.5c-.829 0-1.5-.672-1.5-1.5v-1zM12.5 3c0-1.381-1.119-2.5-2.5-2.5h-2.5v3c0 1.104.895 2 2 2h1.5c.828 0 1.5-.672 1.5-1.5v-1zM2 2.5v1M13 2.5v1"/><circle cx="7" cy="9" r="1.5"/><path d="M23.5 22c0 .828-.672 1.5-1.5 1.5h-3c-.829 0-1.5-.672-1.5-1.5v-9.5c0-1.656 1.343-3 3-3 1.656 0 3 1.344 3 3v9.5zM19.5 7.5h2v2h-2zM17.5 21.5h6M17.5 12.5h6M20.5 7.5c0-1.104-1-2-2-2h-1c-1.5 0-3 .5-3 3.5v7.75c0 4.25-2 6.75-6.25 6.75-3.729 0-6.75-3.021-6.75-6.75v-3.75c0-2.209 1.79-4 4-4"/></g></svg>