<svg xmlns="http://www.w3.org/2000/svg" width="24" height="24" viewBox="0 0 24 24"><g stroke="#000" stroke-linecap="round" stroke-linejoin="round" stroke-miterlimit="10" fill="none"><circle cx="12" cy="3.5" r="3"/><path d="M16.5 8.5h-9c0 2.083 1 5 3 5.7v4.3h3v-4.3c2-.7 3-3.617 3-5.7zM16.02 17.816c1.802.318 2.98.841 2.98 1.434 0 .967-3.135 1.75-7 1.75s-7-.783-7-1.75c0-.594 1.184-1.118 2.993-1.435M16.003 15.748c4.377.565 7.497 2.032 7.497 3.752 0 2.208-5.149 4-11.5 4-6.352 0-11.5-1.792-11.5-4 0-1.72 3.12-3.187 7.499-3.752"/></g></svg>