<svg xmlns="http://www.w3.org/2000/svg" width="24" height="24" viewBox="0 0 24 24"><g stroke="#000" stroke-linejoin="round" stroke-miterlimit="10" fill="none"><path d="M17.5 12.5c0 3.314-2.688 6-6 6-3.314 0-6-2.686-6-6v-6c0-3.313 2.686-6 6-6 3.312 0 6 2.687 6 6v6z"/><path stroke-linecap="round" d="M3.5 10.5v2c0 4.474 3.525 8 8 8 4.473 0 8-3.526 8-8v-2M11.5 20.5v3M11.5.5v3M13.501.842l-.001 2.658M9.5.842v2.658"/><path d="M3.5 12.5h16"/><path stroke-linecap="round" d="M5.5 6.5h4M5.5 8.5h4M17.5 6.5h-4M17.5 8.5h-4M5.5 10.5h4M17.5 10.5h-4"/></g></svg>