<svg xmlns="http://www.w3.org/2000/svg" width="24" height="24" viewBox="0 0 24 24"><g><path stroke="#000" stroke-linejoin="round" stroke-miterlimit="10" d="M13.5 22c0 .824-.675 1.5-1.5 1.5h-10c-.824 0-1.5-.676-1.5-1.5v-20c0-.825.676-1.5 1.5-1.5h10c.825 0 1.5.675 1.5 1.5v20zM.5 14.5h13" fill="none"/><circle stroke="#000" stroke-linejoin="round" stroke-miterlimit="10" cx="7" cy="19" r="2.5" fill="none"/><path d="M6.5 18v2l1.5-1-1.5-1z"/><path stroke="#000" stroke-linejoin="round" stroke-miterlimit="10" d="M13.5 3.5h2.5c.829 0 1.5.672 1.5 1.5v14c0 1.381 1.119 2.5 2.5 2.5s2.5-1.119 2.5-2.5v-7.5" fill="none"/><path stroke="#000" stroke-linejoin="round" stroke-miterlimit="10" d="M23.5 10.5c0 .553-.447 1-1 1-.552 0-1-.447-1-1v-3c0-.553.448-1 1-1 .553 0 1 .447 1 1v3zM21.5 10.5h-.5c-.828 0-1.5-.672-1.5-1.5s.672-1.5 1.5-1.5h.5v3zM3 5.5h2M3 7.5h2M3 9.5h2M3 11.5h2M9 7.5h2M9 9.5h2M9 11.5h2M6 9.5h2M6 11.5h2" fill="none"/></g></svg>