<?xml version="1.0" encoding="iso-8859-1"?>
<!-- Generator: Adobe Illustrator 17.1.0, SVG Export Plug-In . SVG Version: 6.00 Build 0)  -->
<!DOCTYPE svg PUBLIC "-//W3C//DTD SVG 1.0//EN" "http://www.w3.org/TR/2001/REC-SVG-20010904/DTD/svg10.dtd">
<svg version="1.0" id="Outline_Icons" xmlns="http://www.w3.org/2000/svg" xmlns:xlink="http://www.w3.org/1999/xlink" x="0px"
	 y="0px" width="24px" height="24px" viewBox="0 0 24 24" style="enable-background:new 0 0 24 24;" xml:space="preserve">
<g>
	<path style="fill:none;stroke:#000000;stroke-linecap:round;stroke-linejoin:round;stroke-miterlimit:10;" d="M20,12.5l-9-9L2.5,12
		c-0.781,0.781-0.781,2.047,0,2.829L7.172,19.5c0.781,0.781,2.047,0.781,2.828,0l7-7H20z"/>
	<path style="fill:none;stroke:#000000;stroke-linecap:round;stroke-linejoin:round;stroke-miterlimit:10;" d="M10.5,10.5v-8
		c0-1.101-0.9-2-2-2l0,0c-1.1,0-2,0.899-2,2v5.516"/>
	<path style="fill:none;stroke:#000000;stroke-linecap:round;stroke-linejoin:round;stroke-miterlimit:10;" d="M23.5,21
		c0,1.381-1.119,2.5-2.5,2.5s-2.5-1.119-2.5-2.5s2.5-5.5,2.5-5.5S23.5,19.619,23.5,21z"/>
</g>
</svg>
