<?xml version="1.0" encoding="iso-8859-1"?>
<!-- Generator: Adobe Illustrator 17.1.0, SVG Export Plug-In . SVG Version: 6.00 Build 0)  -->
<!DOCTYPE svg PUBLIC "-//W3C//DTD SVG 1.0//EN" "http://www.w3.org/TR/2001/REC-SVG-20010904/DTD/svg10.dtd">
<svg version="1.0" id="Outline_Icons" xmlns="http://www.w3.org/2000/svg" xmlns:xlink="http://www.w3.org/1999/xlink" x="0px"
	 y="0px" width="24px" height="24px" viewBox="0 0 24 24" style="enable-background:new 0 0 24 24;" xml:space="preserve">
<g>
	<path style="fill:none;stroke:#000000;stroke-linejoin:round;stroke-miterlimit:10;" d="M22.5,14.5c0.29-6.549-4.46-12-10.998-12
		C4.968,2.5,0.21,7.947,0.5,14.5c0,0-0.013-2,2.487-2s2.515,2,2.515,2s0.5-2,3-2s3,2,3,2s1-2,3-2s3,2,3,2s0.511-2,2.511-2
		S22.5,14.5,22.5,14.5z"/>
	
		<line style="fill:none;stroke:#000000;stroke-linecap:round;stroke-linejoin:round;stroke-miterlimit:10;" x1="11.5" y1="2.5" x2="11.5" y2="0.5"/>
	<path style="fill:none;stroke:#000000;stroke-linecap:round;stroke-linejoin:round;stroke-miterlimit:10;" d="M14,22
		c0,1.5-2.5,1.5-2.5,0v-7.5"/>
</g>
</svg>
