<?xml version="1.0" encoding="UTF-8"?>
<svg width="28px" height="20px" viewBox="0 0 28 20" version="1.1" xmlns="http://www.w3.org/2000/svg" xmlns:xlink="http://www.w3.org/1999/xlink">
    <!-- Generator: Sketch 42 (36781) - http://www.bohemiancoding.com/sketch -->
    <title>AI</title>
    <desc>Created with Sketch.</desc>
    <defs>
        <rect id="path-1" x="0" y="0" width="28" height="20" rx="2"></rect>
        <path d="M0,3.33333333 L0,0 L1.33333333,0.666666667 L2.66666667,0 L4,0.666666667 L5.33333333,0 L5.33333333,3.33333333 C5.33333333,5.33333333 2.66666667,6.66666667 2.66666667,6.66666667 C2.66666667,6.66666667 0,5.33333333 0,3.33333333 Z" id="path-3"></path>
        <linearGradient x1="50%" y1="0%" x2="50%" y2="100%" id="linearGradient-5">
            <stop stop-color="#FFA51B" offset="0%"></stop>
            <stop stop-color="#FF9A00" offset="100%"></stop>
        </linearGradient>
        <path d="M4.66666667,4 L0,0 L0.666666667,0 L5.33333333,3.33333333 L6.66666667,3.33333333 L12,0 L12,0.333333333 C12,0.51742825 11.8846436,0.749064128 11.7220542,0.865199407 L7.33333333,4 L7.33333333,5.33333333 L11.7490997,9.11827596 C11.8876681,9.23704887 11.8453776,9.33333333 11.6666667,9.33333333 L11.6666667,9.33333333 C11.4825718,9.33333333 11.2179769,9.25093587 11.0553875,9.13480059 L6.66666667,6 L5.33333333,6 L0,9.33333333 L0,8.66666667 L4.66666667,5.33333333 L4.66666667,4 Z" id="path-6"></path>
        <mask id="mask-7" maskContentUnits="userSpaceOnUse" maskUnits="objectBoundingBox" x="-0.666666667" y="-0.666666667" width="13.3333333" height="10.6666667">
            <rect x="-0.666666667" y="-0.666666667" width="13.3333333" height="10.6666667" fill="white"></rect>
            <use xlink:href="#path-6" fill="black"></use>
        </mask>
    </defs>
    <g id="Page-1" stroke="none" stroke-width="1" fill="none" fill-rule="evenodd">
        <g id="Flags" transform="translate(-604.000000, -28.000000)">
            <g id="AI" transform="translate(604.000000, 28.000000)">
                <mask id="mask-2" fill="white">
                    <use xlink:href="#path-1"></use>
                </mask>
                <use id="Mask" fill="#FFFFFF" xlink:href="#path-1"></use>
                <rect id="Mask-Copy" fill="#0A17A7" mask="url(#mask-2)" x="0" y="0" width="28" height="20"></rect>
                <g id="Rectangle-1105" mask="url(#mask-2)">
                    <g transform="translate(17.333333, 6.666667)">
                        <mask id="mask-4" fill="white">
                            <use xlink:href="#path-3"></use>
                        </mask>
                        <use id="Mask" stroke="none" fill="#FFFFFF" fill-rule="evenodd" xlink:href="#path-3"></use>
                        <rect id="Rectangle-1106" stroke="none" fill="#9ACCFF" fill-rule="evenodd" mask="url(#mask-4)" x="0" y="5.33333333" width="5.33333333" height="1.33333333"></rect>
                        <path d="M2.66666667,2.66666667 C2.29847683,2.66666667 2,2.36818983 2,2 C2,1.63181017 2.29847683,1.33333333 2.66666667,1.33333333 C3.0348565,1.33333333 3.33333333,1.63181017 3.33333333,2 C3.33333333,2.36818983 3.0348565,2.66666667 2.66666667,2.66666667 Z M1.33333333,4 C0.9651435,4 0.666666667,3.70152317 0.666666667,3.33333333 C0.666666667,2.9651435 0.9651435,2.66666667 1.33333333,2.66666667 C1.70152317,2.66666667 2,2.9651435 2,3.33333333 C2,3.70152317 1.70152317,4 1.33333333,4 Z M4,4 C3.63181017,4 3.33333333,3.70152317 3.33333333,3.33333333 C3.33333333,2.9651435 3.63181017,2.66666667 4,2.66666667 C4.36818983,2.66666667 4.66666667,2.9651435 4.66666667,3.33333333 C4.66666667,3.70152317 4.36818983,4 4,4 Z" id="Oval-170" stroke="none" fill="url(#linearGradient-5)" fill-rule="evenodd" mask="url(#mask-4)"></path>
                    </g>
                </g>
                <g id="Rectangle-36" mask="url(#mask-2)">
                    <use fill="#FF2E3B" fill-rule="evenodd" xlink:href="#path-6"></use>
                    <use stroke="#FFFFFF" mask="url(#mask-7)" stroke-width="1.33333333" xlink:href="#path-6"></use>
                </g>
                <path d="M0,3.33333333 L0,6 L4.66666667,6 L4.66666667,9.33948135 C4.66666667,9.70427573 4.97256724,10 5.33957926,10 L6.66042074,10 C7.0320601,10 7.33333333,9.69934988 7.33333333,9.33948135 L7.33333333,6 L11.9911963,6 C12.3642483,6 12.6666667,5.69409943 12.6666667,5.3270874 L12.6666667,4.00624593 C12.6666667,3.63460657 12.3646425,3.33333333 11.9911963,3.33333333 L7.33333333,3.33333333 L7.33333333,0 L4.66666667,0 L4.66666667,3.33333333 L0,3.33333333 Z" id="Rectangle-2" fill="#FFFFFF" mask="url(#mask-2)"></path>
                <polygon id="Rectangle-36" fill="#FF2E3B" mask="url(#mask-2)" points="0 4 5.33333333 4 5.33333333 3.33333333 5.33333333 0 6.66666667 0 6.66666667 3.33333333 6.66666667 4 12 4 12 5.33333333 6.66666667 5.33333333 6.66666667 6 6.66666667 9.33333333 5.33333333 9.33333333 5.33333333 6 5.33333333 5.33333333 0 5.33333333"></polygon>
            </g>
        </g>
    </g>
</svg>