<?xml version="1.0" encoding="UTF-8"?>
<svg width="28px" height="20px" viewBox="0 0 28 20" version="1.1" xmlns="http://www.w3.org/2000/svg" xmlns:xlink="http://www.w3.org/1999/xlink">
    <!-- Generator: Sketch 42 (36781) - http://www.bohemiancoding.com/sketch -->
    <title>ES</title>
    <desc>Created with Sketch.</desc>
    <defs>
        <rect id="path-1" x="0" y="0" width="28" height="20" rx="2"></rect>
        <path d="M5.72170989,9.32718531 C5.69131036,8.96239094 5.97428385,8.66666667 6.34121641,8.66666667 L8.32545026,8.66666667 C8.6979938,8.66666667 8.97602749,8.9543368 8.94495678,9.32718531 L8.77766184,11.3347246 C8.7163609,12.0703359 8.0748469,12.6666667 7.33333333,12.6666667 L7.33333333,12.6666667 C6.59695367,12.6666667 5.95081552,12.0764529 5.88900483,11.3347246 L5.72170989,9.32718531 Z" id="path-3"></path>
        <mask id="mask-4" maskContentUnits="userSpaceOnUse" maskUnits="objectBoundingBox" x="0" y="0" width="3.2278559" height="4" fill="white">
            <use xlink:href="#path-3"></use>
        </mask>
    </defs>
    <g id="Page-1" stroke="none" stroke-width="1" fill="none" fill-rule="evenodd">
        <g id="Flags" transform="translate(-220.000000, -220.000000)">
            <g id="ES" transform="translate(220.000000, 220.000000)">
                <mask id="mask-2" fill="white">
                    <use xlink:href="#path-1"></use>
                </mask>
                <use id="Mask" fill="#FFFFFF" xlink:href="#path-1"></use>
                <rect id="Rectangle-2" fill="#DD172C" mask="url(#mask-2)" x="0" y="0" width="28" height="5.33333333"></rect>
                <rect id="Rectangle-2" fill="#DD172C" mask="url(#mask-2)" x="0" y="14.6666667" width="28" height="5.33333333"></rect>
                <rect id="Rectangle-2" fill="#FFD133" mask="url(#mask-2)" x="0" y="5.33333333" width="28" height="9.33333333"></rect>
                <polygon id="Rectangle-139-Copy" fill="#FFEDB1" mask="url(#mask-2)" points="7.33333333 9.33333333 8.66666667 9.33333333 8.66666667 10 7.33333333 10"></polygon>
                <g id="Rectangle-137" mask="url(#mask-2)" stroke-width="1.33333333" stroke="#A41517">
                    <use mask="url(#mask-4)" xlink:href="#path-3"></use>
                </g>
                <polygon id="Rectangle-139" fill="#A41517" mask="url(#mask-2)" points="6 10 8.66666667 10 8.66666667 10.6666667 8 10.6666667 7.33333333 12 6.66666667 10.6666667 6 10.6666667"></polygon>
                <rect id="Rectangle-135" fill="#A41517" mask="url(#mask-2)" x="4" y="8" width="1.33333333" height="4.66666667"></rect>
                <rect id="Rectangle-135-Copy" fill="#A41517" mask="url(#mask-2)" x="9.33333333" y="8" width="1.33333333" height="4.66666667"></rect>
                <path d="M6,7.33333333 C6,6.9651435 6.30590057,6.66666667 6.6729126,6.66666667 L7.99375407,6.66666667 C8.36539343,6.66666667 8.66666667,6.96257655 8.66666667,7.33333333 L8.66666667,7.6635437 C8.66666667,7.84936338 8.52329508,8 8.33968099,8 L6.32698568,8 C6.14639647,8 6,7.85730998 6,7.6635437 L6,7.33333333 Z" id="Rectangle-138" fill="#A41517" mask="url(#mask-2)"></path>
            </g>
        </g>
    </g>
</svg>