<?xml version="1.0" encoding="UTF-8"?>
<svg width="28px" height="20px" viewBox="0 0 28 20" version="1.1" xmlns="http://www.w3.org/2000/svg" xmlns:xlink="http://www.w3.org/1999/xlink">
    <!-- Generator: Sketch 42 (36781) - http://www.bohemiancoding.com/sketch -->
    <title>GE</title>
    <desc>Created with Sketch.</desc>
    <defs>
        <rect id="path-1" x="0" y="0" width="28" height="20" rx="2"></rect>
        <mask id="mask-2" maskContentUnits="userSpaceOnUse" maskUnits="objectBoundingBox" x="0" y="0" width="28" height="20" fill="white">
            <use xlink:href="#path-1"></use>
        </mask>
        <mask id="mask-4" maskContentUnits="userSpaceOnUse" maskUnits="objectBoundingBox" x="0" y="0" width="28" height="20" fill="white">
            <use xlink:href="#path-1"></use>
        </mask>
    </defs>
    <g id="Page-1" stroke="none" stroke-width="1" fill="none" fill-rule="evenodd">
        <g id="Flags" transform="translate(-220.000000, -316.000000)">
            <g id="GE" transform="translate(220.000000, 316.000000)">
                <mask id="mask-3" fill="white">
                    <use xlink:href="#path-1"></use>
                </mask>
                <g id="Mask" stroke="#F5F5F5" mask="url(#mask-2)" fill="#FFFFFF">
                    <use mask="url(#mask-4)" xlink:href="#path-1"></use>
                </g>
                <path d="M12,8 L-1.33333333,8 L-1.33333333,12 L12,12 L12,21.3333333 L16,21.3333333 L16,12 L29.3333333,12 L29.3333333,8 L16,8 L16,-1.33333333 L12,-1.33333333 L12,8 Z" id="Rectangle-2" fill="#FF2B37" mask="url(#mask-3)"></path>
                <path d="M21.6,3.6 L21.3333333,2 L22.6666667,2 L22.4,3.6 L24,3.33333333 L24,4.66666667 L22.4,4.4 L22.6666667,6 L21.3333333,6 L21.6,4.4 L20,4.66666667 L20,3.33333333 L21.6,3.6 Z" id="Rectangle-742" fill="#FD0D1B" mask="url(#mask-3)"></path>
                <path d="M5.6,3.6 L5.33333333,2 L6.66666667,2 L6.4,3.6 L8,3.33333333 L8,4.66666667 L6.4,4.4 L6.66666667,6 L5.33333333,6 L5.6,4.4 L4,4.66666667 L4,3.33333333 L5.6,3.6 Z" id="Rectangle-742" fill="#FD0D1B" mask="url(#mask-3)"></path>
                <path d="M5.6,15.6 L5.33333333,14 L6.66666667,14 L6.4,15.6 L8,15.3333333 L8,16.6666667 L6.4,16.4 L6.66666667,18 L5.33333333,18 L5.6,16.4 L4,16.6666667 L4,15.3333333 L5.6,15.6 Z" id="Rectangle-742" fill="#FD0D1B" mask="url(#mask-3)"></path>
                <path d="M21.6,15.6 L21.3333333,14 L22.6666667,14 L22.4,15.6 L24,15.3333333 L24,16.6666667 L22.4,16.4 L22.6666667,18 L21.3333333,18 L21.6,16.4 L20,16.6666667 L20,15.3333333 L21.6,15.6 Z" id="Rectangle-742" fill="#FD0D1B" mask="url(#mask-3)"></path>
            </g>
        </g>
    </g>
</svg>