<?xml version="1.0" encoding="UTF-8"?>
<svg width="28px" height="20px" viewBox="0 0 28 20" version="1.1" xmlns="http://www.w3.org/2000/svg" xmlns:xlink="http://www.w3.org/1999/xlink">
    <!-- Generator: Sketch 42 (36781) - http://www.bohemiancoding.com/sketch -->
    <title>HR</title>
    <desc>Created with Sketch.</desc>
    <defs>
        <rect id="path-1" x="0" y="0" width="28" height="20" rx="2"></rect>
        <mask id="mask-2" maskContentUnits="userSpaceOnUse" maskUnits="objectBoundingBox" x="0" y="0" width="28" height="20" fill="white">
            <use xlink:href="#path-1"></use>
        </mask>
        <mask id="mask-4" maskContentUnits="userSpaceOnUse" maskUnits="objectBoundingBox" x="0" y="0" width="28" height="20" fill="white">
            <use xlink:href="#path-1"></use>
        </mask>
        <linearGradient x1="50%" y1="0%" x2="50%" y2="100%" id="linearGradient-5">
            <stop stop-color="#FF202D" offset="0%"></stop>
            <stop stop-color="#FD0D1B" offset="100%"></stop>
        </linearGradient>
    </defs>
    <g id="Page-1" stroke="none" stroke-width="1" fill="none" fill-rule="evenodd">
        <g id="Flags" transform="translate(-220.000000, -364.000000)">
            <g id="HR" transform="translate(220.000000, 364.000000)">
                <mask id="mask-3" fill="white">
                    <use xlink:href="#path-1"></use>
                </mask>
                <g id="Mask" stroke="#F5F5F5" mask="url(#mask-2)" fill="#FFFFFF">
                    <use mask="url(#mask-4)" xlink:href="#path-1"></use>
                </g>
                <rect id="Rectangle-2" fill="#FF202D" mask="url(#mask-3)" x="0" y="0" width="28" height="6.66666667"></rect>
                <path d="M10.6666667,5.33333333 L11.3333333,4.66666667 L12,5.33333333 L12,6.66666667 L10.6666667,6.66666667 L10.6666667,5.33333333 Z M13.3333333,5.33333333 L14,4.66666667 L14.6666667,5.33333333 L14.6666667,6.66666667 L13.3333333,6.66666667 L13.3333333,5.33333333 Z M16,5.33333333 L16.6666667,4.66666667 L17.3333333,5.33333333 L17.3333333,6.66666667 L16,6.66666667 L16,5.33333333 Z" id="Rectangle-675" fill="#1895DB" opacity="0.5" mask="url(#mask-3)"></path>
                <path d="M12,5.33333333 L12.6666667,4.66666667 L13.3333333,5.33333333 L13.3333333,6.66666667 L12,6.66666667 L12,5.33333333 Z M14.6666667,5.33333333 L15.3333333,4.66666667 L16,5.33333333 L16,6.66666667 L14.6666667,6.66666667 L14.6666667,5.33333333 Z" id="Rectangle-675" fill="#191F94" opacity="0.5" mask="url(#mask-3)"></path>
                <rect id="Rectangle-2" fill="#2027AC" mask="url(#mask-3)" x="0" y="13.3333333" width="28" height="6.66666667"></rect>
                <path d="M13.3333333,6.66666667 L14.6666667,6.66666667 L14.6666667,8 L13.3333333,8 L13.3333333,6.66666667 Z M16,6.66666667 L16.6666667,6.66666667 L17.3333333,8 L16,8 L16,6.66666667 Z M11.3333333,6.66666667 L12,6.66666667 L12,8 L10.6666667,8 L11.3333333,6.66666667 Z M12,8 L13.3333333,8 L13.3333333,9.33333333 L12,9.33333333 L12,8 Z M14.6666667,8 L16,8 L16,9.33333333 L14.6666667,9.33333333 L14.6666667,8 Z M13.3333333,9.33333333 L14.6666667,9.33333333 L14.6666667,10.6666667 L13.3333333,10.6666667 L13.3333333,9.33333333 Z M16,9.33333333 L17.3333333,9.33333333 L17.3333333,10.6666667 L16,10.6666667 L16,9.33333333 Z M14.6666667,10.6666667 L16,10.6666667 L16,12 L14.6666667,12 L14.6666667,10.6666667 Z M10.6666667,9.33333333 L12,9.33333333 L12,10.6666667 L10.6666667,10.6666667 L10.6666667,9.33333333 Z M12,10.6666667 L13.3333333,10.6666667 L13.3333333,12 L12,12 L12,10.6666667 Z M10.6666667,12 L12,12 L12,13.3333333 L10.6666667,13.3333333 L10.6666667,12 Z M13.3333333,12 L14.6666667,12 L14.6666667,13.3333333 L13.3333333,13.3333333 L13.3333333,12 Z M16,12 L17.3333333,12 L17.3333333,13.3333333 L16,13.3333333 L16,12 Z M14.6666667,13.3333333 L16,13.3333333 L16,14.6666667 L14.6666667,14.6666667 L14.6666667,13.3333333 Z M12,13.3333333 L13.3333333,13.3333333 L13.3333333,14.6666667 L12,14.6666667 L12,13.3333333 Z" id="Rectangle-657" fill="url(#linearGradient-5)" mask="url(#mask-3)"></path>
            </g>
        </g>
    </g>
</svg>