<?xml version="1.0" encoding="UTF-8"?>
<svg width="28px" height="20px" viewBox="0 0 28 20" version="1.1" xmlns="http://www.w3.org/2000/svg" xmlns:xlink="http://www.w3.org/1999/xlink">
    <!-- Generator: Sketch 42 (36781) - http://www.bohemiancoding.com/sketch -->
    <title>HT</title>
    <desc>Created with Sketch.</desc>
    <defs>
        <rect id="path-1" x="0" y="0" width="28" height="20" rx="2"></rect>
        <linearGradient x1="50%" y1="0%" x2="50%" y2="100%" id="linearGradient-3">
            <stop stop-color="#FFFFFF" offset="0%"></stop>
            <stop stop-color="#F0F0F0" offset="100%"></stop>
        </linearGradient>
        <rect id="path-4" x="0" y="0" width="9.33333333" height="8" rx="0.666666667"></rect>
        <path d="M0,6.66666667 L1.47372659,5.92980337 C2.1325692,5.60038207 3.25688044,5.33333333 3.99860875,5.33333333 L5.33472459,5.33333333 C6.07033588,5.33333333 7.20630646,5.60315323 7.85960674,5.92980337 L9.33333333,6.66666667 L9.33333333,8 L0,8 L0,6.66666667 Z" id="path-6"></path>
        <mask id="mask-7" maskContentUnits="userSpaceOnUse" maskUnits="objectBoundingBox" x="0" y="0" width="9.33333333" height="2.66666667" fill="white">
            <use xlink:href="#path-6"></use>
        </mask>
        <path d="M1.33333333,4.00788307 C1.33333333,3.63533954 1.57305845,3.52511342 1.85416667,3.75 L4.14583333,5.58333333 C4.43348164,5.81345198 4.90639178,5.80821991 5.1875,5.58333333 L7.47916667,3.75 C7.76681497,3.51988135 8,3.64095052 8,4.00788307 L8,5.99211693 C8,6.36466046 7.69622374,6.66666667 7.33640162,6.66666667 L1.99693171,6.66666667 C1.63043645,6.66666667 1.33333333,6.35904948 1.33333333,5.99211693 L1.33333333,4.00788307 Z" id="path-8"></path>
        <mask id="mask-9" maskContentUnits="userSpaceOnUse" maskUnits="objectBoundingBox" x="0" y="0" width="6.66666667" height="3.03376435" fill="white">
            <use xlink:href="#path-8"></use>
        </mask>
    </defs>
    <g id="Page-1" stroke="none" stroke-width="1" fill="none" fill-rule="evenodd">
        <g id="Flags" transform="translate(-28.000000, -364.000000)">
            <g id="HT" transform="translate(28.000000, 364.000000)">
                <mask id="mask-2" fill="white">
                    <use xlink:href="#path-1"></use>
                </mask>
                <use id="Mask" fill="#FFFFFF" xlink:href="#path-1"></use>
                <rect id="Rectangle-2" fill="#112EBC" mask="url(#mask-2)" x="0" y="0" width="28" height="9.33333333"></rect>
                <rect id="Rectangle-2" fill="#E3264A" mask="url(#mask-2)" x="0" y="9.33333333" width="28" height="10.6666667"></rect>
                <g id="Rectangle-180" mask="url(#mask-2)">
                    <g transform="translate(9.333333, 6.666667)">
                        <mask id="mask-5" fill="white">
                            <use xlink:href="#path-4"></use>
                        </mask>
                        <use id="Mask" stroke="none" fill="url(#linearGradient-3)" fill-rule="evenodd" xlink:href="#path-4"></use>
                        <g id="Rectangle-181" stroke="none" fill="none" mask="url(#mask-5)" stroke-width="1.33333333" fill-rule="evenodd">
                            <use stroke="#366C14" mask="url(#mask-7)" fill="#AABCAE" xlink:href="#path-6"></use>
                        </g>
                        <circle id="Oval-6" stroke="none" fill="#D4B872" fill-rule="evenodd" mask="url(#mask-5)" cx="4.66666667" cy="3.33333333" r="2"></circle>
                        <g id="Rectangle-182" stroke="none" fill="none" mask="url(#mask-5)" stroke-width="1.33333333" fill-rule="evenodd">
                            <use stroke="#0D3488" mask="url(#mask-9)" fill="#C28321" xlink:href="#path-8"></use>
                        </g>
                        <path d="M2.8960921,1.56275876 C2.76938393,1.4360506 2.81858699,1.33333333 3.00770442,1.33333333 L6.32562892,1.33333333 C6.51397886,1.33333333 6.55913798,1.44086202 6.43724124,1.56275876 L4.8960921,3.1039079 C4.76938393,3.23061607 4.55913798,3.22580465 4.43724124,3.1039079 L2.8960921,1.56275876 Z" id="Rectangle-183" stroke="none" fill="#216C30" fill-rule="evenodd" mask="url(#mask-5)"></path>
                    </g>
                </g>
            </g>
        </g>
    </g>
</svg>