<?xml version="1.0" encoding="UTF-8"?>
<svg width="28px" height="20px" viewBox="0 0 28 20" version="1.1" xmlns="http://www.w3.org/2000/svg" xmlns:xlink="http://www.w3.org/1999/xlink">
    <!-- Generator: Sketch 42 (36781) - http://www.bohemiancoding.com/sketch -->
    <title>LS</title>
    <desc>Created with Sketch.</desc>
    <defs>
        <rect id="path-1" x="0" y="0" width="28" height="20" rx="2"></rect>
        <mask id="mask-2" maskContentUnits="userSpaceOnUse" maskUnits="objectBoundingBox" x="0" y="0" width="28" height="20" fill="white">
            <use xlink:href="#path-1"></use>
        </mask>
        <mask id="mask-4" maskContentUnits="userSpaceOnUse" maskUnits="objectBoundingBox" x="0" y="0" width="28" height="20" fill="white">
            <use xlink:href="#path-1"></use>
        </mask>
        <circle id="path-5" cx="14" cy="8.66666667" r="1.33333333"></circle>
        <mask id="mask-6" maskContentUnits="userSpaceOnUse" maskUnits="objectBoundingBox" x="0" y="0" width="2.66666667" height="2.66666667" fill="white">
            <use xlink:href="#path-5"></use>
        </mask>
    </defs>
    <g id="Page-1" stroke="none" stroke-width="1" fill="none" fill-rule="evenodd">
        <g id="Flags" transform="translate(-268.000000, -556.000000)">
            <g id="LS" transform="translate(268.000000, 556.000000)">
                <mask id="mask-3" fill="white">
                    <use xlink:href="#path-1"></use>
                </mask>
                <g id="Mask" stroke="#F5F5F5" mask="url(#mask-2)" fill="#FFFFFF">
                    <use mask="url(#mask-4)" xlink:href="#path-1"></use>
                </g>
                <rect id="Rectangle-2" fill="#0C33B8" mask="url(#mask-3)" x="0" y="0" width="28" height="6.66666667"></rect>
                <rect id="Rectangle-2" fill="#1DB158" mask="url(#mask-3)" x="0" y="13.3333333" width="28" height="6.66666667"></rect>
                <path d="M13.3333333,9.99999999 L13.7890625,8.6328125 C13.9055601,8.28331981 14.0926971,8.27809142 14.2109375,8.63281248 L14.6666667,9.99999992 L15.8146057,11.7219086 C15.9169962,11.8754942 15.8901367,12.0926971 15.7416992,12.1964162 C15.7416992,12.1964162 15.3333333,12.6666667 14,12.6666667 C12.6666667,12.6666667 12.2583008,12.1964162 12.2583008,12.1964162 C12.1156452,12.0879385 12.0874837,11.8687744 12.1853943,11.7219086 L13.3333333,9.99999999 Z" id="Rectangle-328" fill="#262626" mask="url(#mask-3)"></path>
                <g id="Oval-17" mask="url(#mask-3)" stroke-width="1.33333333" stroke="#262626">
                    <use mask="url(#mask-6)" xlink:href="#path-5"></use>
                </g>
            </g>
        </g>
    </g>
</svg>