<?xml version="1.0" encoding="UTF-8"?>
<svg width="28px" height="20px" viewBox="0 0 28 20" version="1.1" xmlns="http://www.w3.org/2000/svg" xmlns:xlink="http://www.w3.org/1999/xlink">
    <!-- Generator: Sketch 42 (36781) - http://www.bohemiancoding.com/sketch -->
    <title>SH</title>
    <desc>Created with Sketch.</desc>
    <defs>
        <rect id="path-1" x="0" y="0" width="28" height="20" rx="2"></rect>
        <linearGradient x1="50%" y1="0%" x2="50%" y2="100%" id="linearGradient-3">
            <stop stop-color="#06319C" offset="0%"></stop>
            <stop stop-color="#00247E" offset="100%"></stop>
        </linearGradient>
        <path d="M0,4.66666667 L3.43775544e-17,1.33245595 C1.53913554e-17,0.59656085 0.591622194,0 1.33307666,0 L5.33359001,0 C6.06982792,0 6.66666667,0.587946256 6.66666667,1.33245595 L6.66666667,4.66666667 C6.66666667,8 3.33333333,9.33333333 3.33333333,9.33333333 C3.33333333,9.33333333 0,8 0,4.66666667 Z" id="path-4"></path>
        <path d="M0,4.66666667 L3.43775544e-17,1.33245595 C1.53913554e-17,0.59656085 0.591622194,0 1.33307666,0 L5.33359001,0 C6.06982792,0 6.66666667,0.587946256 6.66666667,1.33245595 L6.66666667,4.66666667 C6.66666667,8 3.33333333,9.33333333 3.33333333,9.33333333 C3.33333333,9.33333333 0,8 0,4.66666667 Z" id="path-6"></path>
        <mask id="mask-7" maskContentUnits="userSpaceOnUse" maskUnits="objectBoundingBox" x="0" y="0" width="6.66666667" height="9.33333333" fill="white">
            <use xlink:href="#path-6"></use>
        </mask>
        <mask id="mask-9" maskContentUnits="userSpaceOnUse" maskUnits="objectBoundingBox" x="0" y="0" width="6.66666667" height="9.33333333" fill="white">
            <use xlink:href="#path-6"></use>
        </mask>
        <path d="M4.66666667,4 L0,0 L0.666666667,0 L5.33333333,3.33333333 L6.66666667,3.33333333 L12,0 L12,0.333333333 C12,0.51742825 11.8846436,0.749064128 11.7220542,0.865199407 L7.33333333,4 L7.33333333,5.33333333 L11.7490997,9.11827596 C11.8876681,9.23704887 11.8453776,9.33333333 11.6666667,9.33333333 L11.6666667,9.33333333 C11.4825718,9.33333333 11.2179769,9.25093587 11.0553875,9.13480059 L6.66666667,6 L5.33333333,6 L0,9.33333333 L0,8.66666667 L4.66666667,5.33333333 L4.66666667,4 Z" id="path-10"></path>
        <mask id="mask-11" maskContentUnits="userSpaceOnUse" maskUnits="objectBoundingBox" x="-0.666666667" y="-0.666666667" width="13.3333333" height="10.6666667">
            <rect x="-0.666666667" y="-0.666666667" width="13.3333333" height="10.6666667" fill="white"></rect>
            <use xlink:href="#path-10" fill="black"></use>
        </mask>
    </defs>
    <g id="Page-1" stroke="none" stroke-width="1" fill="none" fill-rule="evenodd">
        <g id="Flags" transform="translate(-748.000000, -892.000000)">
            <g id="SH" transform="translate(748.000000, 892.000000)">
                <mask id="mask-2" fill="white">
                    <use xlink:href="#path-1"></use>
                </mask>
                <use id="Mask" fill="#FFFFFF" xlink:href="#path-1"></use>
                <rect id="Mask-Copy" fill="url(#linearGradient-3)" mask="url(#mask-2)" x="0" y="0" width="28" height="20"></rect>
                <g id="Rectangle-1105" mask="url(#mask-2)">
                    <g transform="translate(17.333333, 5.333333)">
                        <g id="Rectangle-1238" stroke="none" stroke-width="1" fill="none" fill-rule="evenodd">
                            <mask id="mask-5" fill="white">
                                <use xlink:href="#path-4"></use>
                            </mask>
                            <use id="Mask" fill="#8FC5FF" xlink:href="#path-4"></use>
                            <path d="M2.75653334,6.5502279 C2.75653334,6.5502279 3.42384628,5.68612867 3.81635034,5.68612867 C4.2088544,5.68612867 4.28094963,6.25990043 4.88451008,6.25990043 C5.48807053,6.25990042 5.80638158,5.34547635 6.38774717,5.34547635 C6.96911275,5.34547634 6.38774697,8.34551779 6.38774697,8.34551779 L5.5999552,9.15806909 L0.988616665,9.6906833 L2.75653334,6.5502279 Z" id="Path-61" fill="#366CC9" mask="url(#mask-5)"></path>
                            <polygon id="Path-61" fill="#CF6200" mask="url(#mask-5)" points="0.79285826 5.2178679 1.38137054 4.66666667 1.95963446 6.08236376 2.7359279 4.66666667 3.40353107 8.70204894 2.29330031 8.47616863 -1.33333333 6.81802231"></polygon>
                            <rect fill="#FFFF00" mask="url(#mask-5)" x="0" y="0" width="6.66666667" height="4"></rect>
                        </g>
                        <mask id="mask-8" fill="white">
                            <use xlink:href="#path-6"></use>
                        </mask>
                        <g id="Mask" stroke="#FFFFFF" mask="url(#mask-7)" stroke-width="1.33333333" fill="none">
                            <use mask="url(#mask-9)" xlink:href="#path-6"></use>
                        </g>
                    </g>
                </g>
                <g id="Rectangle-36" mask="url(#mask-2)">
                    <use fill="#DB1E36" fill-rule="evenodd" xlink:href="#path-10"></use>
                    <use stroke="#FFFFFF" mask="url(#mask-11)" stroke-width="1.33333333" xlink:href="#path-10"></use>
                </g>
                <path d="M0,3.33333333 L0,6 L4.66666667,6 L4.66666667,9.33948135 C4.66666667,9.70427573 4.97256724,10 5.33957926,10 L6.66042074,10 C7.0320601,10 7.33333333,9.69934988 7.33333333,9.33948135 L7.33333333,6 L11.9911963,6 C12.3642483,6 12.6666667,5.69409943 12.6666667,5.3270874 L12.6666667,4.00624593 C12.6666667,3.63460657 12.3646425,3.33333333 11.9911963,3.33333333 L7.33333333,3.33333333 L7.33333333,0 L4.66666667,0 L4.66666667,3.33333333 L0,3.33333333 Z" id="Rectangle-2" fill="#FFFFFF" mask="url(#mask-2)"></path>
                <polygon id="Rectangle-36" fill="#DB1E36" mask="url(#mask-2)" points="0 4 5.33333333 4 5.33333333 3.33333333 5.33333333 0 6.66666667 0 6.66666667 3.33333333 6.66666667 4 12 4 12 5.33333333 6.66666667 5.33333333 6.66666667 6 6.66666667 9.33333333 5.33333333 9.33333333 5.33333333 6 5.33333333 5.33333333 0 5.33333333"></polygon>
            </g>
        </g>
    </g>
</svg>