<svg xmlns="http://www.w3.org/2000/svg" width="24" height="24" viewBox="0 0 24 24"><g><circle cx="6" cy="14.5" r="1"/><circle cx="13" cy="14.5" r="1"/><path d="M23.537 10.443c-.289-.193-.654-.229-.976-.094l-4.561 1.901v-1.75c0-.827-.673-1.5-1.5-1.5h-.5v-2.5c0-.275.225-.5.5-.5h1.592c.207.582.758 1 1.408 1h3c.827 0 1.5-.673 1.5-1.5s-.673-1.5-1.5-1.5h-3c-.65 0-1.201.42-1.408 1h-1.592c-.827 0-1.5.673-1.5 1.5v2.5h-3v-1.5c0-.827-.673-1.5-1.5-1.5h-10c-.275 0-.5.224-.5.5s.225.5.5.5h10c.275 0 .5.225.5.5v1.5h-8.5c-.827 0-1.5.673-1.5 1.5v8c0 .827.673 1.5 1.5 1.5h14c.827 0 1.5-.673 1.5-1.5v-1.75l4.562 1.901c.129.054.265.08.399.08.203 0 .402-.059.578-.174.289-.194.461-.517.461-.865v-6.385c0-.347-.172-.669-.463-.864zm-10.537 6.057c-1.103 0-2-.896-2-2 0-.365.105-.704.278-1h-3.556c.172.296.278.635.278 1 0 1.104-.897 2-2 2s-2-.896-2-2c0-1.102.897-2 2-2h7c1.103 0 2 .898 2 2 0 1.104-.897 2-2 2z"/></g></svg>