<svg xmlns="http://www.w3.org/2000/svg" width="24" height="24" viewBox="0 0 24 24"><g><path d="M9.1 8h3.9v-.5h-13v1c0 .827.638 1.5 1.422 1.5h4.829c.476-1.175 1.573-2 2.849-2zM13 1.5c0-.827-.639-1.5-1.424-1.5h-10.154c-.784 0-1.422.673-1.422 1.5v5h13v-5zM5.5 11h-3c-.276 0-.5.224-.5.5s.224.5.5.5h3c.276 0 .5-.224.5-.5s-.224-.5-.5-.5zM19.5 23h-8c-.276 0-.5.224-.5.5s.224.5.5.5h8c.276 0 .5-.224.5-.5s-.224-.5-.5-.5zM21.899 9h-12.799c-1.159 0-2.1 1.032-2.1 2.3v6.7h17v-6.7c0-1.268-.942-2.3-2.101-2.3zM7 19.7c0 1.269.941 2.3 2.1 2.3h12.8c1.158 0 2.1-1.031 2.1-2.3v-.7h-17v.7zm8.5-.2c.275 0 .5.224.5.5s-.225.5-.5.5c-.277 0-.5-.224-.5-.5s.223-.5.5-.5z"/></g></svg>