<svg xmlns="http://www.w3.org/2000/svg" width="24" height="24" viewBox="0 0 24 24"><path d="M23.854.854c.195-.195.195-.512 0-.707-.195-.196-.512-.196-.707 0l-6.854 6.853h-10.293v-1.5c0-.276-.225-.5-.5-.5h-3c-.275 0-.5.224-.5.5v1.5h-1.5c-.275 0-.5.224-.5.5v3c0 .277.225.5.5.5h1.5v10.5c0 .277.225.5.5.5h10.5v1.5c0 .277.225.5.5.5h3c.275 0 .5-.223.5-.5v-1.5h1.5c.275 0 .5-.223.5-.5v-3c0-.276-.225-.5-.5-.5h-1.5v-10.293l6.854-6.853zm-10.854 10.853v6.293h-6.293l6.293-6.293zm-7 5.586v-6.293h6.293l-6.293 6.293z"/></svg>