<svg xmlns="http://www.w3.org/2000/svg" width="24" height="24" viewBox="0 0 24 24"><g><path d="M7 8h-1.5c-.276 0-.5.223-.5.5 0 .276.224.5.5.5h1.5v2h2.5c.276 0 .5.223.5.5 0 .276-.224.5-.5.5h-2.5v1h2.5c.276 0 .5.223.5.5 0 .276-.224.5-.5.5h-2.5v1h2.5c.276 0 .5.223.5.5 0 .276-.224.5-.5.5h-2.5v1.5c0 1.846.986 3.426 2 4.113v1.887c0 .276.224.5.5.5h3c.276 0 .5-.224.5-.5v-1.887c1.014-.688 2-2.268 2-4.113v-8.5h1.5c.276 0 .5-.224.5-.5 0-.277-.224-.5-.5-.5h-9.5zM15 4.5c0-2.482-1.795-4.5-4-4.5s-4 2.018-4 4.5v2.5h8v-2.5z"/></g></svg>