<svg xmlns="http://www.w3.org/2000/svg" width="24" height="24" viewBox="0 0 24 24"><path d="M12 0c-6.616 0-12 5.384-12 12 0 6.617 5.384 12 12 12 6.617 0 12-5.383 12-12 0-6.616-5.383-12-12-12zm6.737 8.668l1.848-.765c.255-.104.548.016.653.271.105.255-.016.547-.271.652l-1.847.766-.191.039c-.196 0-.382-.117-.462-.31-.106-.255.015-.547.27-.653zm-4.329-3.788l.766-1.848c.106-.255.4-.375.653-.271.256.105.377.398.271.653l-.766 1.848c-.079.193-.266.309-.462.309l-.191-.038c-.255-.105-.376-.398-.271-.653zm-2.908-2.194c0-.276.224-.5.5-.5.275 0 .5.224.5.5v2c0 .275-.225.5-.5.5-.276 0-.5-.225-.5-.5v-2zm-3.326.076c.255-.105.548.016.653.271l.765 1.847c.105.254-.016.547-.271.653l-.191.038c-.196 0-.382-.116-.462-.31l-.765-1.847c-.105-.255.016-.547.271-.652zm-6.23 9.424c0-.276.224-.5.5-.5h2c.275 0 .5.224.5.5 0 .275-.225.5-.5.5h-2c-.276 0-.5-.225-.5-.5zm3.319 3.146l-1.849.766-.191.038c-.196 0-.383-.116-.462-.309-.105-.256.016-.548.271-.653l1.849-.766c.254-.105.548.016.653.271.104.256-.016.548-.271.653zm.27-6.009c-.08.191-.267.308-.462.308l-.191-.039-1.848-.765c-.255-.107-.376-.399-.27-.655.106-.255.4-.375.653-.27l1.848.766c.255.106.376.398.27.655zm.81-2.272l-1.413-1.415c-.195-.195-.195-.512 0-.707.195-.195.511-.195.707.001l1.413 1.414c.195.196.195.512 0 .707-.098.097-.226.146-.354.146s-.256-.049-.353-.146zm10.657 12.468c0 .276-.225.5-.5.5h-9c-.276 0-.5-.224-.5-.5v-3c0-.276.224-.5.5-.5h9c.275 0 .5.224.5.5v3zm-3.283-8.528c.176.297.283.64.283 1.009 0 1.103-.896 2-2 2-1.103 0-2-.897-2-2 0-1.102.897-2 2-2 .37 0 .712.108 1.01.283l4.646-4.646c.195-.195.512-.195.707 0s.195.512 0 .707l-4.646 4.647zm7.52 4.836c-.079.192-.266.31-.461.31l-.191-.039-1.848-.766c-.255-.105-.376-.398-.271-.653.105-.254.4-.376.653-.271l1.848.766c.256.105.377.399.27.653zm.262-3.326l-1.999-.001c-.276 0-.5-.224-.5-.5s.225-.5.5-.5h.001l1.998.001c.276.001.5.225.5.501 0 .275-.224.499-.5.499z"/></svg>