<svg xmlns="http://www.w3.org/2000/svg" width="24" height="24" viewBox="0 0 24 24"><g><path d="M19 9h-1.5v-3.5c0-3.031-2.468-5.5-5.5-5.5-3.033 0-5.5 2.469-5.5 5.5v3.5h-1.5c-2.758 0-5 2.243-5 5v4c3.027 0 6 2.973 6 6h12c0-3.027 2.972-6 6-6v-4c0-2.757-2.243-5-5-5zm-11.5-3.5c0-2.481 2.019-4.5 4.5-4.5 2.48 0 4.5 2.019 4.5 4.5v3.5h-9v-3.5zm-2.5 11.5c0 .276-.225.5-.5.5-.276 0-.5-.224-.5-.5v-1c0-.276.224-.5.5-.5.275 0 .5.224.5.5v1zm16.5-2h-19c-.276 0-.5-.224-.5-.5s.224-.5.5-.5h19c.275 0 .5.224.5.5s-.225.5-.5.5zM19 24h1.5c1.93 0 3.5-1.57 3.5-3.5v-1.5c-2.477 0-5 2.523-5 5zM0 19v1.5c0 1.93 1.569 3.5 3.5 3.5h1.5c0-2.477-2.523-5-5-5z"/></g></svg>