<svg xmlns="http://www.w3.org/2000/svg" width="24" height="24" viewBox="0 0 24 24"><path d="M10.5 0c-2.757 0-5 2.243-5 5v12.5c0 .276.224.5.5.5h4v5.5c0 .276.224.5.5.5s.5-.224.5-.5v-5.5h4c.276 0 .5-.224.5-.5v-12.5c0-2.757-2.243-5-5-5zm2.5 12.5c-.827 0-1.5-.672-1.5-1.5v-4c0-.275-.225-.5-.5-.5-.276 0-.5.225-.5.5 0 .828-.673 1.5-1.5 1.5s-1.5-.672-1.5-1.5v-2c0-.275.224-.5.5-.5s.5.225.5.5v2c0 .276.224.5.5.5.275 0 .5-.224.5-.5 0-.826.673-1.5 1.5-1.5s1.5.674 1.5 1.5v4c0 .276.224.5.5.5s.5.225.5.5c0 .276-.224.5-.5.5z"/></svg>