<svg xmlns="http://www.w3.org/2000/svg" width="24" height="24" viewBox="0 0 24 24"><g><path d="M12.5 19c3.416 0 6.218-2.649 6.475-6h-12.95c.257 3.351 3.059 6 6.475 6zM19 11h-4.5c-.276 0-.5-.224-.5-.5s.224-.5.5-.5h4.5v-1h-4.5c-.276 0-.5-.224-.5-.5s.224-.5.5-.5h4.5v-1h-4.5c-.276 0-.5-.224-.5-.5s.224-.5.5-.5h4.475c-.191-2.481-1.775-4.578-3.975-5.498v2.998c0 .276-.224.5-.5.5s-.5-.224-.5-.5v-3.318c-.325-.077-.658-.129-1-.156v3.474c0 .276-.224.5-.5.5s-.5-.224-.5-.5v-3.475c-.342.027-.675.079-1 .156v3.319c0 .276-.224.5-.5.5s-.5-.224-.5-.5v-2.998c-2.2.92-3.784 3.017-3.975 5.498h4.475c.276 0 .5.224.5.5s-.224.5-.5.5h-4.5v1h4.5c.276 0 .5.224.5.5s-.224.5-.5.5h-4.5v1h4.5c.276 0 .5.224.5.5s-.224.5-.5.5h-4.5v1h13v-1zM5 10.5c0-.276-.224-.5-.5-.5s-.5.224-.5.5v1.5h1v-1.5zM20.5 10c-.276 0-.5.224-.5.5v1.5h1v-1.5c0-.276-.224-.5-.5-.5zM12.5 20c-4.037 0-7.225-3.037-7.476-7h-1c.243 4.356 3.619 7.732 7.976 7.976v3.024h1v-3.024c4.357-.243 7.732-3.619 7.976-7.976h-1c-.251 3.963-3.439 7-7.476 7z"/></g></svg>