<svg xmlns="http://www.w3.org/2000/svg" width="24" height="24" viewBox="0 0 24 24"><path d="M20.479 4.514c-2.266-2.266-5.279-3.514-8.485-3.514-3.205 0-6.219 1.248-8.485 3.514-4.679 4.681-4.679 12.293 0 16.973.472.471 1.1.73 1.768.73.667 0 1.295-.26 1.768-.73.974-.976.974-2.562 0-3.537-.195-.195-.195-.513 0-.708.188-.188.518-.188.707 0l4.242 4.245c1.134 1.133 2.64 1.757 4.243 1.757 1.603 0 3.109-.624 4.242-1.757 4.679-4.68 4.679-12.293 0-16.973zm-9.192 3.535c-.585.588-1.535.588-2.121 0-.586-.586-.586-1.535 0-2.121.586-.586 1.535-.586 2.121 0 .586.586.586 1.535 0 2.121zm3.89-1.059c.585-.586 1.536-.586 2.121 0 .585.584.585 1.535 0 2.121-.585.585-1.536.585-2.121 0-.586-.586-.586-1.537 0-2.121zm2.474 12.373c-.781.781-2.048.781-2.828 0-.781-.78-.781-2.045 0-2.828.78-.781 2.047-.781 2.828 0 .781.783.781 2.048 0 2.828zm2.051-5.656c-.391.389-1.024.389-1.414 0-.391-.389-.391-1.023 0-1.414.39-.391 1.023-.391 1.414 0s.39 1.025 0 1.414z"/></svg>