<svg xmlns="http://www.w3.org/2000/svg" width="24" height="24" viewBox="0 0 24 24"><g><path d="M19.462 12.691c.077-.188.034-.402-.108-.546l-9-9c-.098-.096-.226-.145-.354-.145v-.5c0-1.379-1.121-2.5-2.5-2.5s-2.5 1.121-2.5 2.5v5.293l-3.854 3.853c-.975.976-.975 2.562 0 3.536l4.672 4.672c.473.473 1.1.732 1.768.732s1.295-.26 1.768-.732l6.853-6.854h2.793c.202 0 .385-.122.462-.309zm-10.462-8.898l-3 3v-4.293c0-.828.673-1.5 1.5-1.5s1.5.672 1.5 1.5v1.293zM20.428 15.24c-.182-.299-.674-.299-.855 0-.263.434-2.573 4.281-2.573 5.76 0 1.654 1.346 3 3 3s3-1.346 3-3c0-1.479-2.309-5.326-2.572-5.76z"/></g></svg>