<svg xmlns="http://www.w3.org/2000/svg" width="24" height="24" viewBox="0 0 24 24"><g><path d="M.002 23.462c-.011.14.037.275.131.378.096.101.228.16.367.16h13.074c.139 0 .271-.059.367-.16.094-.103.143-.238.131-.378-.231-3.081-1.892-4.849-5.072-5.393v-1.069h.5c.275 0 .5-.225.5-.5v-2c0-.276-.225-.5-.5-.5h-5c-.275 0-.5.224-.5.5v2c0 .275.225.5.5.5h.5v1.069c-3.129.539-4.766 2.307-4.998 5.393zM23.268.428c-.195-.195-.512-.195-.706 0l-2.562 2.558v-2.486c0-.173-.09-.334-.236-.425-.146-.092-.33-.101-.485-.024-1.054.521-2.731 1.632-4.286 3.187-3.012 3.011-4.334 6.334-3.295 8.049l-1.275 1.274c-.195.195-.195.512 0 .707.191.193.509.197.707 0l1.266-1.265c.502.333 1.121.499 1.814.499 1.666 0 3.75-.926 5.628-2.633.151-.139.204-.357.13-.55s-.261-.319-.468-.319h-4.102l1-1h4.602c.275 0 .5-.225.5-.5 0-.276-.225-.5-.5-.5h-3.6l1-1h4.055c.178 0 .345-.097.434-.252 1.281-2.235 1.43-4.195.415-5.266l-.036-.054z"/></g></svg>