<svg xmlns="http://www.w3.org/2000/svg" width="24" height="24" viewBox="0 0 24 24"><path d="M24 4.5c0-1.052-.146-3.5-1.5-3.5h-12.475c-1.18 0-1.513 1.303-1.525 2.007.001.087.094 8.535-.914 13.993h-4.586c-.436 0-.792.138-1.061.408-.582.585-.574 1.623-.566 2.719.007.981.015 2.095-.461 2.573-.201.202-.499.3-.912.3v1h12.475c.685 0 1.23-.199 1.623-.596.364-.366.551-.861.648-1.404h3.729c.426 0 .816-.177 1.162-.524 2.076-2.091 2.381-10.998 2.363-16.476h2v-.5zm-12 .5h2c.275 0 .5.224.5.5s-.225.5-.5.5h-2c-.276 0-.5-.224-.5-.5s.224-.5.5-.5zm-.5 4h6.5c.275 0 .5.224.5.5s-.225.5-.5.5h-6.5c-.276 0-.5-.224-.5-.5s.224-.5.5-.5zm3.343 12c.009-.296.008-.593.006-.88-.006-.805-.013-1.717.276-2.008.048-.048.136-.112.35-.112.158 0 .368.021.468.122.169.172.165.654.159 1.122-.006.581-.008 1.222.277 1.756h-1.536zm3.157-5h-7c-.276 0-.5-.224-.5-.5s.224-.5.5-.5h7c.275 0 .5.224.5.5s-.225.5-.5.5zm-7-2.5c0-.276.224-.5.5-.5h6c.275 0 .5.224.5.5s-.225.5-.5.5h-6c-.276 0-.5-.224-.5-.5zm7.5-1.5h-7c-.276 0-.5-.224-.5-.5s.224-.5.5-.5h7c.275 0 .5.224.5.5s-.225.5-.5.5zm0-4h-5.5c-.276 0-.5-.224-.5-.5s.224-.5.5-.5h5.5c.275 0 .5.224.5.5s-.225.5-.5.5zm3.492-4l-.018-.99c.002-.03.051-.999.52-1.008.197.104.43.963.49 1.998h-.992z"/></svg>