<svg xmlns="http://www.w3.org/2000/svg" width="24" height="24" viewBox="0 0 24 24"><path d="M21.73.079c-.165-.086-.364-.075-.517.033-1.768 1.234-3.226 1.784-4.727 1.784-1.787 0-3.46-.805-4.59-2.209-.19-.235-.606-.235-.796.001-1.127 1.402-2.8 2.208-4.587 2.208-1.503 0-2.961-.55-4.727-1.784-.153-.108-.351-.12-.517-.033-.165.085-.269.256-.269.443l.018 14.945s1.626 5.57 10.348 8.016l.135.018.135-.018c8.722-2.445 10.347-8.016 10.347-8.016l.017-14.945c0-.187-.104-.358-.27-.443zm-5.73 11.921h-2.5c-.276 0-.5.225-.5.5v2.5h-3v-2.5c0-.275-.224-.5-.5-.5h-2.5v-3h2.5c.276 0 .5-.224.5-.5v-2.5h3v2.5c0 .276.224.5.5.5h2.5v3z"/></svg>