<svg xmlns="http://www.w3.org/2000/svg" width="24" height="24" viewBox="0 0 24 24"><path d="M12 0c-6.617 0-12 5.383-12 12s5.383 12 12 12 12-5.383 12-12-5.383-12-12-12zm4.5 7.5c1.378 0 2.5 1.121 2.5 2.5 0 .276-.224.5-.5.5s-.5-.224-.5-.5c0-.827-.673-1.5-1.5-1.5s-1.5.673-1.5 1.5c0 .276-.224.5-.5.5s-.5-.224-.5-.5c0-1.379 1.122-2.5 2.5-2.5zm-9 0c1.378 0 2.5 1.121 2.5 2.5 0 .276-.224.5-.5.5s-.5-.224-.5-.5c0-.827-.673-1.5-1.5-1.5s-1.5.673-1.5 1.5c0 .276-.224.5-.5.5s-.5-.224-.5-.5c0-1.379 1.122-2.5 2.5-2.5zm4.5 13.5c-4.411 0-8-3.589-8-8 0-.276.224-.5.5-.5s.5.224.5.5c0 3.86 3.14 7 7 7s7-3.14 7-7c0-.276.224-.5.5-.5s.5.224.5.5c0 4.411-3.589 8-8 8z"/></svg>