<svg xmlns="http://www.w3.org/2000/svg" width="24" height="24" viewBox="0 0 24 24"><g><circle cx="12" cy="9" r="1"/><path d="M4.307 11.339c1.694.658 2.943 2.216 3.16 4.083 1.271-.28 2.792-.421 4.533-.421 1.743 0 3.266.142 4.538.421.227-1.863 1.45-3.398 3.11-4.064l.78-3.87c.289-1.876-.254-3.779-1.49-5.22-1.237-1.441-3.035-2.268-4.933-2.268h-4.013c-1.898 0-3.697.827-4.933 2.269-1.238 1.441-1.781 3.345-1.488 5.237l.736 3.833zm4.339-2.985c-.195-.195-.195-.512 0-.707.195-.196.512-.196.707 0l.749.75c.258-.807 1.006-1.397 1.898-1.397.891 0 1.639.59 1.896 1.397l.75-.75c.195-.196.512-.196.707 0 .195.195.195.512 0 .707l-.646.646.646.647c.195.195.195.512 0 .707-.097.097-.225.146-.353.146s-.256-.049-.354-.146l-.75-.75c-.257.807-1.005 1.396-1.896 1.396-.892 0-1.64-.589-1.897-1.396l-.749.75c-.098.097-.226.146-.354.146s-.256-.049-.354-.146c-.195-.195-.195-.512 0-.707l.647-.647-.647-.646zM21.5 12c-2.206 0-4 1.795-4 4.001v.655l-.632-.123c-.891-.243-2.459-.532-4.868-.532-2.41 0-3.978.289-4.869.532l-.631.173v-.655c0-2.115-1.577-3.824-3.592-4.03l-.408-.021c-1.379 0-2.5 1.123-2.5 2.501 0 .141.014.28.037.415.119.718.543 1.348 1.167 1.725l.261.133.073.037.033.02c.26.124.429.38.429.67v2c0 1.93 1.57 3.499 3.5 3.499v.5c0 .276.224.5.5.5s.5-.224.5-.5v-.5h11v.5c0 .276.224.5.5.5s.5-.224.5-.5v-.5c1.93 0 3.5-1.569 3.5-3.499v-2l.032-.22.002-.004c.043-.138.125-.261.236-.354l.047-.029.143-.085c.818-.341 1.384-1.077 1.512-1.935l.028-.373c0-1.378-1.122-2.501-2.5-2.501z"/></g></svg>