<svg xmlns="http://www.w3.org/2000/svg" width="24" height="24" viewBox="0 0 24 24"><g><path d="M9.774 12.105l1.536-1.535c-.692-.362-1.477-.57-2.31-.57-2.757 0-5 2.243-5 5s2.243 5 5 5 5-2.243 5-5c0-.833-.208-1.618-.569-2.309l-1.536 1.535c.066.248.105.506.105.774 0 1.654-1.346 3-3 3s-3-1.346-3-3 1.346-3 3-3c.268 0 .526.039.774.105zM8.865 13.014c-1.039.07-1.865.929-1.865 1.986 0 1.103.897 2 2 2 1.057 0 1.916-.826 1.986-1.865l-.926.926c-.283.283-.66.439-1.06.439s-.777-.156-1.061-.439c-.283-.284-.439-.66-.439-1.061s.156-.777.439-1.06l.926-.926zM23.903 2.704c-.094-.128-.244-.204-.403-.204h-2v-2c0-.159-.076-.309-.204-.403-.128-.094-.293-.121-.445-.074-.079.024-.884.284-1.851.755v3.722c0 .276-.224.5-.5.5s-.5-.224-.5-.5v-3.179c-1.138.688-2.248 1.638-2.542 2.834-.164.664-.07 1.331.274 1.992.146.281.339.561.576.838l-1.317 1.317-2.121 2.12-.708.708-1.427 1.427-.726.726-1.363 1.363c-.095.097-.146.219-.146.354 0 .136.051.258.146.354.191.191.516.191.707 0l1.363-1.363.726-.726 1.427-1.427.708-.708 2.121-2.12 1.317-1.318c.278.236.558.427.84.574.45.234.903.354 1.356.354 3.021 0 4.695-5.247 4.765-5.471.049-.151.021-.317-.073-.445zM16.328 9.794l-2.165 2.165c.528.893.837 1.93.837 3.041 0 3.309-2.691 6-6 6s-6-2.691-6-6c0-3.308 2.691-6 6-6 1.111 0 2.148.309 3.042.837l2.165-2.165c-1.472-1.048-3.267-1.672-5.207-1.672-4.962 0-9 4.038-9 9 0 2.302.876 4.398 2.302 5.991l-2.156 2.156c-.195.195-.195.512 0 .707.098.097.226.146.354.146s.256-.049.354-.146l2.156-2.156c1.593 1.426 3.688 2.302 5.99 2.302s4.397-.876 5.991-2.302l2.156 2.156c.097.097.225.146.353.146s.256-.049.354-.146c.195-.195.195-.512 0-.707l-2.156-2.156c1.426-1.593 2.302-3.689 2.302-5.991 0-1.94-.624-3.735-1.672-5.206z"/></g></svg>