<svg xmlns="http://www.w3.org/2000/svg" width="24" height="24" viewBox="0 0 24 24"><g><path d="M13.618 6.166c.237-.329.382-.729.382-1.166 0-1.102-.897-2-2-2-1.104 0-2 .898-2 2 0 .437.144.837.381 1.166-1.854.383-3.472 1.41-4.616 2.834h12.47c-1.145-1.424-2.763-2.451-4.617-2.834zm-1.618-.166c-.552 0-1-.447-1-1 0-.551.448-1 1-1 .551 0 1 .449 1 1 0 .553-.449 1-1 1zM20.5 9.5c-.751 0-2 .5-2 .5h-13.418c-.598 1.029-.969 2.201-1.055 3.453-1.153-.222-2.027-1.236-2.027-2.453v-1.5c0-.826-.673-1.5-1.5-1.5-.276 0-.5.225-.5.5 0 .276.224.5.5.5.275 0 .5.225.5.5v1.5c0 1.767 1.316 3.228 3.019 3.463.09 1.572.633 3.063 1.593 4.338.094.126.242.199.399.199h11.979c.157 0 .306-.073.399-.199.558-.741.971-1.556 1.241-2.415.283.073.573.114.869.114 1.93 0 3.5-1.568 3.5-3.5.001-1.93-1.569-3.5-3.499-3.5zm0 6c-.215 0-.424-.035-.629-.09.083-.462.129-.932.129-1.41 0-1.139-.244-2.222-.675-3.203.359-.194.759-.297 1.175-.297 1.378 0 2.5 1.122 2.5 2.5 0 1.379-1.122 2.5-2.5 2.5z"/></g></svg>