<svg xmlns="http://www.w3.org/2000/svg" width="24" height="24" viewBox="0 0 24 24"><g><path d="M1.237 2.599c-.147.091-.237.253-.237.425v15.5c0 .19.106.363.276.448l9.722 4.861v-16.618l-9.274-4.638c-.156-.076-.339-.069-.487.022zM21.759 2.599c-.147-.091-.331-.099-.486-.022l-9.274 4.638v16.618l9.722-4.861c.17-.085.276-.258.276-.448v-15.5c-.001-.172-.091-.334-.238-.425zM19.944 1.274c-.125-.246-.426-.346-.672-.22l-7.774 3.934-7.774-3.933c-.246-.125-.546-.027-.672.219-.124.248-.026.548.22.673l8 4.048c.071.036.148.054.226.054.078 0 .155-.018.226-.054l8-4.048c.247-.125.345-.425.22-.673z"/></g></svg>