<svg xmlns="http://www.w3.org/2000/svg" width="24" height="24" viewBox="0 0 24 24"><g><path d="M17.5 3.5h1.5v1h-1.5zM14.5 6c0-1.378-1.121-2.5-2.5-2.5s-2.5 1.122-2.5 2.5c0 1.379 1.121 2.5 2.5 2.5s2.5-1.121 2.5-2.5z"/><circle cx="5.75" cy="9.281" r=".25"/><path d="M11.5 9.46v2.04h1v-2.04c-.164.024-.33.04-.5.04s-.336-.016-.5-.04zM10.5 9.159c-1.18-.564-2-1.765-2-3.159 0-1.393.82-2.593 2-3.157v-2.343h1v2.04c.164-.023.33-.04.5-.04l.5.04v-2.04h1v2.343c1.18.564 2 1.765 2 3.157 0 1.394-.82 2.595-2 3.159v2.341h8.5v-8c0-1.93-1.57-3.5-3.5-3.5h-13c-1.93 0-3.5 1.57-3.5 3.5v8h8.5v-2.341zm6-6.659h3.5v3h-3.5v-3zm-10.75 7.531c-.414 0-.75-.336-.75-.75 0-.413.336-.75.75-.75s.75.337.75.75c0 .414-.336.75-.75.75zM0 15v3c0 1.104.897 2 2 2h2.211c-.422 1.031-1.066 2.148-2.064 3.146l-.854.854h21.588l-1.061-.884c-1.047-.873-1.705-2.021-2.119-3.116h2.299c1.103 0 2-.896 2-2v-3h-24zm20.287 8h-16.672c.264-.329.494-.664.703-1h15.246c.213.343.45.68.723 1zm1.713-6h-3.979c.058.788.266 2.387 1.008 4h-14.162c.809-1.676 1.041-3.23 1.107-4h-3.974v-1h20.000000000000004v1zM22.541 12.5h-21.081l-1.2 1.5h23.48z"/></g></svg>