<svg xmlns="http://www.w3.org/2000/svg" width="24" height="24" viewBox="0 0 24 24"><g><path d="M22 16h-20c-1.104 0-2 .898-2 2v5.5c0 .276.224.5.5.5h23c.276 0 .5-.224.5-.5v-5.5c0-1.102-.897-2-2-2zm-16.5 5h-3c-.276 0-.5-.224-.5-.5s.224-.5.5-.5h3c.276 0 .5.224.5.5s-.224.5-.5.5zm3-2h-6c-.276 0-.5-.224-.5-.5s.224-.5.5-.5h6c.276 0 .5.224.5.5s-.224.5-.5.5zm13.5 2h-10v-3h10v3zM3.325 15h17.348c1.283 0 2.327-1.122 2.327-2.5v-10c0-1.378-1.044-2.5-2.327-2.5h-17.348c-1.282 0-2.325 1.122-2.325 2.5v10c0 1.378 1.043 2.5 2.325 2.5zm-.325-13h18v11h-18v-11z"/></g></svg>