<svg xmlns="http://www.w3.org/2000/svg" width="24" height="24" viewBox="0 0 24 24"><g><path d="M14.519 18.001c-.169-.014-.339.077-.435.223l-.562.843-1.094-1.823c-.181-.301-.677-.301-.857 0l-1.094 1.823-.562-.843c-.097-.146-.258-.235-.436-.223-.174.007-.331.103-.417.255-.259.465-1.562 2.832-1.562 3.744 0 1.104.896 2 2 2h5c1.103 0 2-.896 2-2 0-.912-1.303-3.279-1.564-3.744-.085-.152-.244-.248-.417-.255zM19.5 5h-1.5v-2h.5c.276 0 .5-.224.5-.5 0-.275-.224-.5-.5-.5h-4.051c-.232-1.139-1.242-2-2.449-2-1.208 0-2.218.861-2.45 2h-4.05c-.276 0-.5.225-.5.5 0 .276.224.5.5.5h.5v2h-1.5c-.276 0-.5.225-.5.5 0 .276.224.5.5.5h1.5v7.5c0 1.379 1.121 2.5 2.5 2.5h7c1.378 0 2.5-1.121 2.5-2.5v-7.5h1.5c.276 0 .5-.224.5-.5 0-.275-.224-.5-.5-.5zm-8.908-3c.207-.58.757-1 1.408-1 .65 0 1.2.42 1.407 1h-2.815z"/></g></svg>