<svg xmlns="http://www.w3.org/2000/svg" width="24" height="24" viewBox="0 0 24 24"><g><path d="M3.035 19h17.93c2.096-1.399 3.035-3.441 3.035-5.5 0-3.584-2.916-6.5-6.5-6.5-.951 0-1.896.217-2.754.617 2.213 1.038 3.754 3.281 3.754 5.883 0 .755-.129 1.495-.383 2.199-.074.204-.266.33-.471.33l-.17-.029c-.26-.093-.395-.38-.301-.64.215-.595.324-1.221.324-1.86 0-3.033-2.468-5.5-5.5-5.5-3.033 0-5.5 2.467-5.5 5.5 0 .626.104 1.24.31 1.824.092.261-.045.546-.306.638-.262.092-.547-.045-.638-.305-.242-.692-.365-1.418-.365-2.157 0-2.602 1.539-4.845 3.753-5.883-.864-.406-1.788-.617-2.753-.617-3.585 0-6.5 2.916-6.5 6.5 0 2.108.987 4.144 3.035 5.5zM21 20h-18c-1.307 0-1.989 1.006-1.989 1.999 0 .995.682 2.001 1.989 2.001h18c1.305 0 1.988-1.006 1.988-2s-.683-2-1.988-2zM11.5 5.956v1.069l.5-.025.5.025v-1.069c1.253-.212 2.242-1.203 2.455-2.456h-5.91c.211 1.253 1.201 2.243 2.455 2.456zM12 0c-1.484 0-2.717 1.083-2.955 2.5h5.91c-.24-1.417-1.472-2.5-2.955-2.5z"/></g></svg>