<svg xmlns="http://www.w3.org/2000/svg" width="24" height="24" viewBox="0 0 24 24"><g><circle cx="11.5" cy="13" r="1"/><path d="M13.5 6.351v-1.351h.5c.229 0 .429-.156.485-.379l1-4c.038-.149.004-.307-.091-.429s-.24-.192-.394-.192h-7c-.154 0-.299.07-.394.192s-.128.28-.091.429l1 4c.055.223.256.379.485.379h.5v1.351c-2.327.826-4 3.043-4 5.649 0 3.138 4.862 11.403 5.07 11.754.09.152.253.246.43.246v-9.071c-.86-.224-1.5-1-1.5-1.929 0-1.104.897-2 2-2s2 .896 2 2c0 .929-.64 1.705-1.5 1.929v9.071c.165 0 .318-.082.412-.216 1.226-1.776 5.088-8.983 5.088-11.784 0-2.606-1.673-4.823-4-5.649zm-1-.261c-.326-.055-.659-.09-1-.09s-.674.035-1 .09v-1.09h2v1.09z"/></g></svg>