<svg xmlns="http://www.w3.org/2000/svg" width="24" height="24" viewBox="0 0 24 24"><g><path d="M12 7c1.93 0 3.5-1.57 3.5-3.5s-1.57-3.5-3.5-3.5-3.5 1.57-3.5 3.5 1.57 3.5 3.5 3.5zM10 14.533v3.967c0 .275.224.5.5.5h3c.275 0 .5-.225.5-.5v-3.967c1.951-.934 3-3.734 3-6.033 0-.276-.225-.5-.5-.5h-9c-.276 0-.5.224-.5.5 0 2.299 1.048 5.1 3 6.033zM12 20.5c-4.015 0-6.366-.821-6.502-1.239.035-.11.574-.603 2.581-.953.271-.047.454-.307.406-.579-.047-.271-.309-.453-.578-.406-2.261.395-3.407 1.044-3.407 1.927 0 1.776 4.714 2.25 7.5 2.25 2.785 0 7.5-.474 7.5-2.25 0-.882-1.142-1.53-3.394-1.926-.271-.048-.531.133-.579.406-.048.271.134.53.406.579 1.997.351 2.533.841 2.567.929-.134.441-2.486 1.262-6.5 1.262zM16.066 15.253c-.275-.035-.523.158-.56.433-.035.271.158.523.432.559 4.636.599 7.062 2.091 7.062 3.255 0 1.654-4.518 3.5-11 3.5s-11-1.846-11-3.5c0-1.165 2.426-2.657 7.063-3.256.273-.035.467-.287.432-.559-.036-.274-.285-.469-.56-.433-3.836.496-7.935 1.871-7.935 4.248 0 2.182 4.205 4.5 12 4.5 7.794 0 12-2.318 12-4.5 0-2.377-4.099-3.752-7.934-4.247z"/></g></svg>