<svg xmlns="http://www.w3.org/2000/svg" width="24" height="24" viewBox="0 0 24 24"><g><path d="M23.491 12.525l-2.828-2.829c-.188-.188-.52-.188-.707 0l-1.769 1.769 3.537 3.535 1.768-1.768c.094-.094.146-.222.146-.354 0-.132-.053-.259-.147-.353zM14.299 4.04c.195-.195.195-.512 0-.708l-2.828-2.828c-.094-.094-.222-.146-.354-.146-.133 0-.26.053-.354.146l-1.768 1.767 3.536 3.537 1.768-1.768zM12.531 17.121c-.755.756-1.76 1.172-2.829 1.172-1.068 0-2.072-.416-2.828-1.172-1.56-1.56-1.56-4.098 0-5.656l4.95-4.95-3.535-3.536-5.657 5.657c-3.509 3.509-3.509 9.22 0 12.728 1.7 1.7 3.96 2.636 6.364 2.636 2.403 0 4.664-.936 6.363-2.637l5.657-5.656-3.536-3.535-4.949 4.949z"/></g></svg>