<svg xmlns="http://www.w3.org/2000/svg" width="24" height="24" viewBox="0 0 24 24"><g><path d="M16.25 1c-3.032 0-5.5 2.467-5.5 5.5s2.468 5.5 5.5 5.5c3.033 0 5.5-2.467 5.5-5.5s-2.467-5.5-5.5-5.5zm0 9c-.276 0-.5-.224-.5-.5 0-.275.224-.5.5-.5 1.379 0 2.5-1.121 2.5-2.5 0-.275.224-.5.5-.5s.5.225.5.5c0 1.932-1.57 3.5-3.5 3.5z"/><circle cx="23.5" cy="6" r=".5"/><path d="M23.498 6.939c-.276 0-.5.224-.5.5v16c0 .277.224.5.5.5.275 0 .5-.223.5-.5v-16c0-.276-.225-.5-.5-.5zM19.394 19.898c-.228-.126-.511-.059-.656.154-.386.566-1.021.902-1.702.902-1.136 0-2.059-.924-2.059-2.06 0-1.991-1.532-3.032-3.046-3.032-.719 0-1.399.226-1.934.631-.533-.405-1.214-.631-1.933-.631-1.514 0-3.045 1.041-3.045 3.032 0 1.136-.924 2.06-2.06 2.06-.682 0-1.317-.336-1.701-.902-.146-.213-.431-.28-.656-.154-.227.125-.319.403-.214.64.938 2.107 2.764 3.315 5.008 3.315 1.779 0 3.513-.777 4.601-2.026 1.088 1.249 2.822 2.026 4.602 2.026 2.244 0 4.069-1.208 5.008-3.315.105-.236.013-.515-.213-.64z"/></g></svg>