<svg xmlns="http://www.w3.org/2000/svg" width="24" height="24" viewBox="0 0 24 24"><g><path d="M22.75 6c-.701 0-1.25.659-1.25 1.5v3c0 .498.196.932.5 1.201v7.299c0 1.103-.897 2-2 2-1.104 0-2-.897-2-2v-14c0-1.102-.897-2-2-2h-2v-1c0-1.102-.897-2-2-2h-10c-1.104 0-2 .898-2 2v20c0 1.103.896 2 2 2h10c1.103 0 2-.897 2-2v-18h2c.551 0 1 .448 1 1v14c0 1.654 1.346 3 3 3s3-1.346 3-3v-7.029c.577-.136 1-.732 1-1.471v-3c0-.841-.549-1.5-1.25-1.5zm-15.75 16c-1.654 0-3-1.346-3-3s1.346-3 3-3 3 1.346 3 3-1.346 3-3 3zm6-8h-12v-12c0-.552.448-1 1-1h10c.551 0 1 .448 1 1v12zM20.5 10.5h.5v-3h-.5c-1.327 0-2 .505-2 1.5s.673 1.5 2 1.5zM3 5h2v1h-2zM3 7h2v1h-2zM3 9h2v1h-2zM3 11h2v1h-2zM9 7h2v1h-2zM9 9h2v1h-2zM9 11h2v1h-2zM6 9h2v1h-2zM6 11h2v1h-2z"/></g></svg>