<svg xmlns="http://www.w3.org/2000/svg" width="24" height="24" viewBox="0 0 24 24"><path d="M21.5 3h-.5v-2.5c0-.276-.224-.5-.5-.5h-15c-.276 0-.5.224-.5.5v2.5h-.5c-.827 0-1.5.672-1.5 1.5v4c0 .827.673 1.5 1.5 1.5h8c.276 0 .5.224.5.5v2.516c-.932.203-2 .928-2 1.939v7.5c0 .943 1.417 1.545 2.159 1.545h1c.834 0 1.841-.688 1.841-1.545v-7.5c0-1.012-1.068-1.736-2-1.939v-2.516c0-.828-.673-1.5-1.5-1.5h-8c-.276 0-.5-.225-.5-.5v-4c0-.276.224-.5.5-.5h.5v2.5c0 .275.224.5.5.5h15c.276 0 .5-.225.5-.5v-2.5h.5c.276 0 .5-.225.5-.5 0-.276-.224-.5-.5-.5z"/></svg>