<svg xmlns="http://www.w3.org/2000/svg" width="24" height="24" viewBox="0 0 24 24"><g><path d="M20 10h-5.023c-.166 0-.321-.082-.414-.221-.093-.137-.112-.311-.05-.465.323-.807.487-1.658.487-2.53v-3.784c0-1.655-1.346-3-3-3s-3 1.345-3 3v3.784c0 .87.164 1.722.487 2.53.062.155.043.329-.05.465-.093.138-.248.221-.414.221h-5.023c-1.103 0-2 .896-2 2v2.5h20v-2.5c0-1.104-.897-2-2-2zm-8-6c-.551 0-1-.449-1-1 0-.552.449-1 1-1 .552 0 1 .448 1 1 0 .551-.448 1-1 1zM20.5 15.5h-17c-.276 0-.5.224-.5.5v7.5c0 .276.224.5.5.5h2.5c.189 0 .363-.106.447-.276l1.053-2.105v1.881c0 .276.224.5.5.5h6v-2.604c0-.276.224-.5.5-.5s.5.224.5.5v2.604h1v-4.341c0-.277.224-.5.5-.5s.5.223.5.5v4.341h1v-5.5c0-.276.224-.5.5-.5s.5.224.5.5v5.5h1.5c.276 0 .5-.224.5-.5v-7.5c0-.276-.224-.5-.5-.5z"/></g></svg>