<svg xmlns="http://www.w3.org/2000/svg" width="24" height="24" viewBox="0 0 24 24"><g><path d="M22 1h-20c-1.104 0-2 .898-2 2v13c0 1.103.896 2 2 2h8v-2h-8v-13h20v13h-3v2h3c1.103 0 2-.897 2-2v-13c0-1.102-.897-2-2-2zM11 24h7v-11h-7v11zm4.5-8.5c.275 0 .5.224.5.5 0 .275-.225.5-.5.5-.276 0-.5-.225-.5-.5 0-.276.224-.5.5-.5zm0 2c.275 0 .5.224.5.5 0 .275-.225.5-.5.5-.276 0-.5-.225-.5-.5 0-.276.224-.5.5-.5zm0 2c.275 0 .5.224.5.5 0 .275-.225.5-.5.5-.276 0-.5-.225-.5-.5 0-.276.224-.5.5-.5zm-2-4c.275 0 .5.224.5.5 0 .275-.225.5-.5.5-.276 0-.5-.225-.5-.5 0-.276.224-.5.5-.5zm0 2c.275 0 .5.224.5.5 0 .275-.225.5-.5.5-.276 0-.5-.225-.5-.5 0-.276.224-.5.5-.5zm0 2c.275 0 .5.224.5.5 0 .275-.225.5-.5.5-.276 0-.5-.225-.5-.5 0-.276.224-.5.5-.5zM18.154 7.537c-2.147-1.319-4.85-1.377-7.053-.152-.242.135-.328.438-.194.681.134.24.438.327.681.193 1.887-1.05 4.203-1 6.043.13.081.049.172.074.261.074.168 0 .332-.085.427-.238.144-.236.071-.544-.165-.688zM16.849 10.166c.168 0 .333-.084.427-.238.145-.235.07-.543-.165-.688-1.534-.94-3.465-.983-5.038-.108-.241.133-.328.438-.194.679.135.241.439.328.68.195 1.259-.7 2.802-.666 4.03.086.081.051.171.074.26.074zM13.048 10.887c-.241.134-.328.438-.194.681.134.242.439.327.68.194.629-.35 1.398-.335 2.008.039.082.05.172.073.261.073.168 0 .333-.084.427-.239.145-.234.07-.542-.165-.688-.918-.561-2.074-.585-3.017-.06z"/></g></svg>