<svg xmlns="http://www.w3.org/2000/svg" width="24" height="24" viewBox="0 0 24 24"><g><path d="M12 1c-5.607 0-10 1.977-10 4.5 0 1.585 4.461 3.5 10 3.5 4.579 0 8.625-1.261 10-2.578v-.922c0-2.523-4.393-4.5-10-4.5zM2 7.362v2.638c0 1.585 4.46 3.5 10 3.5 4.578 0 8.625-1.261 10-2.579v-3.252c-2.136 1.437-6.217 2.331-10 2.331-3.965 0-8.138-1.008-10-2.638zM2 11.862v2.638c0 1.585 4.46 3.5 10 3.5 4.578 0 8.625-1.261 10-2.578v-3.253c-2.137 1.437-6.218 2.331-10 2.331-3.965 0-8.138-1.008-10-2.638zM2 16.362v2.138c0 2.523 4.393 4.5 10 4.5s10-1.977 10-4.5v-1.831c-2.137 1.437-6.218 2.331-10 2.331-3.965 0-8.138-1.008-10-2.638z"/></g></svg>