<svg xmlns="http://www.w3.org/2000/svg" width="24" height="24" viewBox="0 0 24 24"><g><path d="M16.146 3.854l-2.146-2.147v5.793c0 .276-.224.5-.5.5-.275 0-.5-.224-.5-.5v-5.793l-2.146 2.147c-.197.198-.515.193-.707 0-.195-.195-.195-.512 0-.707l3-2.999c.201-.199.518-.192.708 0l2.999 2.999c.195.195.195.512 0 .707-.196.195-.512.195-.708 0zM.5 3h3.5c.232 0 .434.16.487.386l1.322 5.614h17.691c.161 0 .312.077.406.208s.119.299.068.451l-3 9c-.068.203-.258.341-.474.341h-12.339l.235 1h10.604c1.104 0 2 .898 2 2 0 1.104-.896 2-2 2-1.103 0-2-.896-2-2 0-.365.106-.704.278-1h-7.555c.172.296.277.635.277 1 0 1.104-.896 2-2 2-1.103 0-2-.896-2-2 0-.89.588-1.637 1.394-1.896l-3.79-16.104h-3.104c-.275 0-.5-.224-.5-.5s.225-.5.5-.5z"/></g></svg>