<svg xmlns="http://www.w3.org/2000/svg" width="24" height="24" viewBox="0 0 24 24"><g><path d="M23.5 4h-23c-.276 0-.5.224-.5.5v1.5h24v-1.5c0-.276-.224-.5-.5-.5zM20.05 7h-7.55c0 1.104-.897 2-2 2h-3c-.413 0-.486.904-.498 1.354l2.164.772 1.48-1.479c.195-.195.512-.195.707 0s.195.513 0 .707l-1.146 1.145.841.301.099-.148 1.498-1.502c.195-.197.512-.196.707-.002.196.194.196.512.001.707l-1.301 1.304 2.279.813c.157.056.324.029.456-.062.134-.095.213-.247.213-.41 0-.403.953-1 3-1 1.703 0 3 .667 3 1 0 .276.224.5.5.5h1c.827 0 1.5-.673 1.5-1.5v-1.5c-1.728 0-3.636-1.252-3.95-3zM6.021 10.003c.133-1.725.965-2.003 1.479-2.003h3c.551 0 1-.447 1-1h-11.484c.076.549.449 1.02.979 1.208l5.026 1.795zM24 9v-2h-2.928c.33 1.144 1.737 2 2.928 2zM13.5 18c-.552 0-1 .449-1 1h11.483c-.075-.547-.448-1.018-.979-1.207l-5.026-1.795c-.133 1.725-.964 2.002-1.478 2.002h-3zM0 17v2h2.928c-.33-1.144-1.738-2-2.928-2zM3.95 19h7.55c0-1.102.896-2 2-2h3c.412 0 .486-.904.497-1.352l-2.164-.773-1.479 1.479c-.098.097-.226.146-.354.146s-.256-.049-.354-.146c-.195-.195-.195-.512 0-.707l1.145-1.145-.841-.3-.099.149-1.498 1.502c-.097.098-.225.147-.353.147s-.256-.049-.354-.146c-.195-.195-.195-.512-.001-.706l1.301-1.305-2.278-.814c-.152-.054-.323-.031-.456.062s-.212.247-.212.409c0 .403-.954 1-3 1-1.703 0-3-.666-3-1 0-.276-.224-.5-.5-.5h-1c-.827 0-1.5.673-1.5 1.5v1.5c1.727 0 3.636 1.254 3.95 3zM0 21.5c0 .276.224.5.5.5h23c.276 0 .5-.224.5-.5v-1.5h-24v1.5z"/></g></svg>