<svg xmlns="http://www.w3.org/2000/svg" width="24" height="24" viewBox="0 0 24 24"><path d="M18 5h-4.5v-4h1.5c.276 0 .5-.224.5-.5s-.224-.5-.5-.5h-7c-.276 0-.5.224-.5.5s.224.5.5.5h1.5v4h-4.5c-.276 0-.5.224-.5.5s.224.5.5.5h2.5v2h2.5c.276 0 .5.224.5.5s-.224.5-.5.5h-2.5v1h2.5c.276 0 .5.224.5.5s-.224.5-.5.5h-2.5v1h2.5c.276 0 .5.224.5.5s-.224.5-.5.5h-2.5v2.5c0 2.29 1.529 4.183 3.5 4.461v3.539c0 .276.224.5.5.5s.5-.224.5-.5v-3.539c1.97-.278 3.5-2.171 3.5-4.461v-9.5h2.5c.276 0 .5-.224.5-.5s-.224-.5-.5-.5z"/></svg>