<svg xmlns="http://www.w3.org/2000/svg" width="24" height="24" viewBox="0 0 24 24"><path d="M20.67 6.082c-2.172-2.271-5.059-3.569-8.174-3.695v-1.512c0-.276-.223-.5-.5-.5-.275 0-.5.224-.5.5v1.512c-3.115.127-6 1.425-8.17 3.695-2.283 2.385-3.461 5.516-3.314 8.814.012.268.232.476.5.476h.008c.27-.004.488-.226.492-.496.002-.154.072-1.501 1.986-1.501 2.059 0 2.498 1.559 2.516 1.621.055.223.254.379.484.379.229 0 .43-.156.484-.379.004-.017.43-1.621 2.516-1.621 1.879 0 2.406 1.293 2.498 1.568v7.432c0 1.066.881 1.625 1.75 1.625s1.75-.559 1.75-1.625c0-.276-.223-.5-.5-.5-.275 0-.5.224-.5.5 0 .607-.674.625-.75.625s-.75-.018-.75-.625v-7.367c.211-.355 1.066-1.633 2.502-1.633 1.658 0 2.545 1.707 2.553 1.724.084.169.258.274.445.274.189-.002.363-.105.447-.273.01-.018.896-1.725 2.555-1.725 1.566 0 1.982 1.544 2.002 1.62.055.225.258.38.484.38l.049-.003c.248-.022.439-.227.451-.476.147-3.297-1.031-6.429-3.314-8.814z"/></svg>