<svg xmlns="http://www.w3.org/2000/svg" width="24" height="24" viewBox="0 0 24 24"><g><path d="M8 0v5.821c2.332.048 4.307 1.78 5.039 4.179h2.461v4.743l4.554-4.743h3.946v-10h-16zm5.584 5.083h-1.084v-1.083h1.084v1.083zm3.457 0h-1.082v-1.083h1.082v1.083zm3.459 0h-1.084v-1.083h1.084v1.083zM14.109 19.31l-3.609-1.292v-1.723c1.117-.953 1.849-2.497 1.849-4.241l-.001-.026-.801.122c-.266.052-.52.078-.76.078-.939 0-1.685-.398-2.318-1.237-.707.682-1.871 1.169-2.936 1.169-.459 0-1.373-.216-2.064-.441l-.015.336c0 1.846.817 3.468 2.046 4.4v1.564l-3.609 1.291c-1.131.405-1.891 1.489-1.891 2.702v1.988h16v-1.988c0-1.213-.76-2.297-1.891-2.702zM8.062 9.903l.424-.812.454.795c.656 1.147 1.313 1.495 2.42 1.281.115-.022.619-.099.902-.139-.405-2.398-2.205-4.212-4.359-4.212-2.059 0-3.789 1.655-4.295 3.893.589.207 1.549.449 1.926.449.98 0 2.186-.598 2.528-1.255z"/></g></svg>