<svg xmlns="http://www.w3.org/2000/svg" width="24" height="24" viewBox="0 0 24 24"><g><path d="M19.677 18.318l-4.677-1.67v-2.306c1.433-1.175 2.375-3.13 2.375-5.343l-.009-.213c-.311.114-.658.214-.991.214-1.655 0-2.799-.266-3.761-1.554-.854.899-2.363 1.554-3.739 1.554-.649 0-1.722-.416-2.46-.748-.024.246-.04.496-.04.748 0 2.338 1.053 4.385 2.625 5.531v2.117l-4.678 1.67c-1.389.496-2.322 1.821-2.322 3.297v2.385h20v-2.385c0-1.476-.934-2.801-2.323-3.297zM12.197 6.34l.423-.812.454.794c.821 1.436 1.682 1.678 3.301 1.678.259 0 .613-.129.896-.247-.494-2.989-2.725-5.253-5.396-5.253-2.514 0-4.634 2.006-5.288 4.732.77.364 1.84.768 2.288.768 1.308 0 2.861-.775 3.322-1.66z"/></g></svg>